<?xml version="1.0" encoding="UTF-8" standalone="no"?><svg xmlns="http://www.w3.org/2000/svg" xmlns:xlink="http://www.w3.org/1999/xlink" contentStyleType="text/css" height="550px" preserveAspectRatio="none" style="width:487px;height:550px;" version="1.1" viewBox="0 0 487 550" width="487.5px" zoomAndPan="magnify"><defs><linearGradient id="gyn8jabnvyvnh0" x1="50%" x2="50%" y1="0%" y2="100%"><stop offset="0%" stop-color="#FFFFFF"/><stop offset="100%" stop-color="#FFFFFF"/></linearGradient><filter height="300%" id="fyn8jabnvyvnh" width="300%" x="-1" y="-1"><feGaussianBlur result="blurOut" stdDeviation="2.0833333333333335"/><feColorMatrix in="blurOut" result="blurOut2" type="matrix" values="0 0 0 0 0 0 0 0 0 0 0 0 0 0 0 0 0 0 .4 0"/><feOffset dx="4.166666666666667" dy="4.166666666666667" in="blurOut2" result="blurOut3"/><feBlend in="SourceGraphic" in2="blurOut3" mode="normal"/></filter><linearGradient id="gyn8jabnvyvnh1" x1="50%" x2="50%" y1="0%" y2="100%"><stop offset="0%" stop-color="#4DABF5"/><stop offset="100%" stop-color="#2196F3"/></linearGradient></defs><g><!--cluster Capella--><g id="cluster_Capella"><path d="M299.9958,41.6262 C303.9545,28.307 311.5537,25.4726 322.9692,33.6613 C329.5493,19.7276 342.6746,20.2602 350.1772,32.71 C354.1811,17.2109 366.1352,16.6667 376.4026,26.1295 C385.5416,17.1276 392.9643,19.5893 397.7772,30.7219 C407.0204,20.7373 417.6192,19.7276 423.1262,34.5411 C435.2601,23.1074 452.0368,25.0221 455.2083,43.9969 C456.3177,44.5194 456.5477,45.7056 455.5041,46.4842 C468.8157,55.9492 469.6295,64.6443 456.7352,75.2316 C469.4039,81.8668 469.4836,91.2138 457.3966,98.551 C473.6376,103.9491 472.4822,117.6185 461.3061,126.8096 C472.3322,133.6465 473.1794,142.4809 462.3557,150.2943 C474.9404,159.4644 474.4121,172.4786 459.4169,178.8059 C472.6073,185.3332 472.7438,198.7145 460.6626,206.3833 C471.1481,214.5188 472.9312,221.8624 461.7654,230.969 C472.6374,240.8092 474.3631,249.6964 460.7264,258.6156 C473.5213,264.0524 473.7815,276.0369 462.9892,283.6091 C472.6487,290.6348 474.7151,303.4064 461.1636,308.7463 C475.2954,317.1912 475.0945,330.6782 459.2812,337.1376 C470.9456,345.1708 470.0103,354.1191 457.3974,360.1663 C469.6156,367.7242 471.102,378.0378 457.8497,386.0409 C471.7022,400.0952 467.5459,415.034 447.9167,418.9969 C449.9538,419.713 449.9636,420.8651 448.6947,422.3487 C441.3493,434.7261 432.5477,433.6647 425.4676,422.0913 C418.4846,432.8513 406.8291,433.021 399.4223,422.6126 C392.3012,437.4143 383.2634,437.4653 373.4464,425.1998 C364.3379,436.4852 356.4283,435.2314 349.2342,423.2111 C341.9498,433.6205 331.4554,436.1457 324.0951,423.2931 C305.443,438.7496 295.6309,431.7249 288.5417,411.7052 C289.8612,411.9232 290.1362,412.7364 289.3236,413.7642 C277.7993,404.2394 278.9572,393.4589 291.446,385.7537 C280.3687,378.8206 278.2411,370.5292 290.3985,362.5472 C276.7839,353.6579 273.9109,343.7702 289.2812,333.7561 C277.1326,325.6331 277.0306,318.0169 288.1526,308.8399 C276.8952,301.6834 277.5481,291.2762 288.6674,284.5949 C274.9219,276.6197 274.6777,263.7833 288.5079,255.6562 C277.3713,248.4846 276.432,237.6637 287.0886,229.3179 C276.3342,219.9934 279.9038,211.0928 291.8078,206.4429 C276.8915,197.5268 278.3842,188.7209 289.6971,177.8674 C279.8464,170.9963 279.4996,159.8868 290.7661,153.96 C278.8007,143.8625 280.4159,135.7973 292.3308,127.0904 C281.7798,120.4578 278.9695,108.4053 292.0301,101.4954 C275.9081,93.7327 276.4131,81.1142 291.1713,72.4389 C273.9836,57.9494 278.6434,46.7096 295.8333,36.7052 C299.1473,36.3328 301.1205,38.2441 299.9958,41.6262 " fill="url(#gyn8jabnvyvnh0)" filter="url(#fyn8jabnvyvnh)" style="stroke:#2196F3;stroke-width:1.0416666666666667;"/><text fill="#222222" font-family="&quot;Verdana&quot;" font-size="12.5" font-weight="bold" lengthAdjust="spacing" textLength="55.2083" x="344.2708" y="63.933">Capella</text></g><!--entity CB--><g id="elem_CB"><path d="M16.6667,92.9552 C16.6667,82.5385 96.875,82.5385 96.875,82.5385 C96.875,82.5385 177.0833,82.5385 177.0833,92.9552 L177.0833,137.7143 C177.0833,148.131 96.875,148.131 96.875,148.131 C96.875,148.131 16.6667,148.131 16.6667,137.7143 L16.6667,92.9552 " fill="url(#gyn8jabnvyvnh1)" filter="url(#fyn8jabnvyvnh)" style="stroke:#2196F3;stroke-width:1.0416666666666667;"/><path d="M16.6667,92.9552 C16.6667,103.3719 96.875,103.3719 96.875,103.3719 C96.875,103.3719 177.0833,103.3719 177.0833,92.9552 " fill="none" style="stroke:#2196F3;stroke-width:1.0416666666666667;"/><text fill="#222222" font-family="&quot;Verdana&quot;" font-size="12.5" lengthAdjust="spacing" textLength="118.75" x="37.5" y="129.558">Couchbase Server</text></g><!--entity Cap--><g id="elem_Cap"><path d="M302.6042,92.9552 C302.6042,82.5385 371.875,82.5385 371.875,82.5385 C371.875,82.5385 441.1458,82.5385 441.1458,92.9552 L441.1458,137.7143 C441.1458,148.131 371.875,148.131 371.875,148.131 C371.875,148.131 302.6042,148.131 302.6042,137.7143 L302.6042,92.9552 " fill="url(#gyn8jabnvyvnh1)" filter="url(#fyn8jabnvyvnh)" style="stroke:#2196F3;stroke-width:1.0416666666666667;"/><path d="M302.6042,92.9552 C302.6042,103.3719 371.875,103.3719 371.875,103.3719 C371.875,103.3719 441.1458,103.3719 441.1458,92.9552 " fill="none" style="stroke:#2196F3;stroke-width:1.0416666666666667;"/><text fill="#222222" font-family="&quot;Verdana&quot;" font-size="12.5" lengthAdjust="spacing" textLength="96.875" x="323.4375" y="129.558">Capella Bucket</text></g><!--entity AS--><g id="elem_AS"><polygon fill="url(#gyn8jabnvyvnh0)" filter="url(#fyn8jabnvyvnh)" points="298.9583,224.2052,309.375,213.7885,444.7917,213.7885,444.7917,270.006,434.375,280.4226,298.9583,280.4226,298.9583,224.2052" style="stroke:#222222;stroke-width:1.0416666666666667;"/><line style="stroke:#222222;stroke-width:1.0416666666666667;" x1="434.375" x2="444.7917" y1="224.2052" y2="213.7885"/><line style="stroke:#222222;stroke-width:1.0416666666666667;" x1="298.9583" x2="434.375" y1="224.2052" y2="224.2052"/><line style="stroke:#222222;stroke-width:1.0416666666666667;" x1="434.375" x2="434.375" y1="224.2052" y2="280.4226"/><text fill="#222222" font-family="&quot;Verdana&quot;" font-size="12.5" lengthAdjust="spacing" textLength="83.3333" x="325" y="256.6413">App Services</text></g><!--entity AE--><g id="elem_AE"><polygon fill="url(#gyn8jabnvyvnh0)" filter="url(#fyn8jabnvyvnh)" points="296.875,354.4135,307.2917,343.9969,446.875,343.9969,446.875,400.2143,436.4583,410.631,296.875,410.631,296.875,354.4135" style="stroke:#222222;stroke-width:1.0416666666666667;"/><line style="stroke:#222222;stroke-width:1.0416666666666667;" x1="436.4583" x2="446.875" y1="354.4135" y2="343.9969"/><line style="stroke:#222222;stroke-width:1.0416666666666667;" x1="296.875" x2="436.4583" y1="354.4135" y2="354.4135"/><line style="stroke:#222222;stroke-width:1.0416666666666667;" x1="436.4583" x2="436.4583" y1="354.4135" y2="410.631"/><text fill="#222222" font-family="&quot;Verdana&quot;" font-size="12.5" lengthAdjust="spacing" textLength="87.5" x="322.9167" y="386.8496">App Endpoint</text></g><!--entity Clients--><g id="elem_Clients"><rect fill="#FFA500" filter="url(#fyn8jabnvyvnh)" height="56.2174" rx="4.1667" ry="4.1667" style="stroke:#999999;stroke-width:1.0416666666666667;" width="188.5417" x="277.6042" y="476.2885"/><text fill="#333333" font-family="&quot;Verdana&quot;" font-size="12.5" lengthAdjust="spacing" textLength="146.875" x="298.4375" y="508.7246">Couchbase Lite clients</text></g><!--link Cap to AS--><g id="link_Cap_AS"><path d="M371.875,155.1323 C371.875,171.5489 371.875,190.6531 371.875,207.0906 " fill="none" id="Cap-AS" style="stroke:#2196F3;stroke-width:3.125;"/><polygon fill="#2196F3" points="371.875,150.0281,367.7083,159.4031,371.875,155.2364,376.0417,159.4031,371.875,150.0281" style="stroke:#2196F3;stroke-width:3.125;"/><polygon fill="#2196F3" points="371.875,211.9135,376.0417,202.5385,371.875,206.7052,367.7083,202.5385,371.875,211.9135" style="stroke:#2196F3;stroke-width:3.125;"/></g><!--link AS to AE--><g id="link_AS_AE"><path d="M371.875,280.8302 C371.875,300.101 371.875,324.4239 371.875,343.6844 " fill="none" id="AS-AE" style="stroke:#2196F3;stroke-width:3.125;"/></g><!--link AE to Clients--><g id="link_AE_Clients"><path d="M371.875,410.8927 C371.875,431.1427 371.875,456.9031 371.875,476.0906 " fill="none" id="AE-Clients" style="stroke:#2196F3;stroke-width:3.125;"/></g><!--link CB to Cap--><!--SRC=[PL0zJyGm3DtpAqmNbkiVGAUJqj3j9hgS10o-n6ejSadKk2o8_qxIW8GWqzFp-t1y9mlT26uej38gfIJELBWLFXIKvr3mYfcWCt6pomudMjzfxG0pc45zAcLzt1mOJEGz_ZT-yyDctqYQ3TCk2j4LWKvfpsHBUH_hwSzq32v53isinzg9CmNvlTMPXS1wBdHBCGqhLThWsFUdcgidwFiQeSSAVZJtaB6SuV9edi1pe0DSDu65dQDm08bGZW8sXinPQc-AcOLZu30hCq3_tAIlf_grile3T3NhHRel]--></g></svg>