<?xml version="1.0" encoding="UTF-8" standalone="no"?><svg xmlns="http://www.w3.org/2000/svg" xmlns:xlink="http://www.w3.org/1999/xlink" contentStyleType="text/css" height="399px" preserveAspectRatio="none" style="width:954px;height:399px;background:#FFFFFF;" version="1.1" viewBox="0 0 954 399" width="954px" zoomAndPan="magnify"><defs/><g><!--MD5=[85c29abb6924ba539b01a2368cd4e5a6]
cluster Cluster--><g id="cluster_Cluster"><rect height="386" rx="2.5" ry="2.5" style="stroke:#181818;stroke-width:1.0;fill:none;" width="941" x="7" y="7"/><path d="M66,7 L66,16.7999 L56,26.7999 L7,26.7999 " fill="none" style="stroke:#181818;stroke-width:1.0;"/><text fill="#000000" font-family="sans-serif" font-size="14" font-weight="bold" lengthAdjust="spacing" textLength="49" x="10" y="21.9999">Cluster</text></g><!--MD5=[857fe04585c5762257f6bc76a63b9500]
cluster globalLibrary--><g id="cluster_globalLibrary"><rect fill="#FFFFFF" height="165" rx="2.5" ry="2.5" style="stroke:#181818;stroke-width:1.0;" width="583" x="31" y="156"/><path d="M131,156 L131,165.7999 L121,175.7999 L31,175.7999 " fill="none" style="stroke:#181818;stroke-width:1.0;"/><text fill="#000000" font-family="sans-serif" font-size="14" font-weight="bold" lengthAdjust="spacing" textLength="90" x="34" y="170.9999">global library</text></g><!--MD5=[3391d9f1a19c634d68793c5dffd64995]
cluster Bucket--><g id="cluster_Bucket"><path d="M638,60 C638,50 781,50 781,50 C781,50 924,50 924,60 L924,359 C924,369 781,369 781,369 C781,369 638,369 638,359 L638,60 " style="stroke:#181818;stroke-width:1.0;fill:none;"/><path d="M638,60 C638,70 781,70 781,70 C781,70 924,70 924,60 " fill="none" style="stroke:#181818;stroke-width:1.0;"/><text fill="#000000" font-family="sans-serif" font-size="14" font-weight="bold" lengthAdjust="spacing" textLength="48" x="757" y="85.9999">Bucket</text></g><!--MD5=[ff950ce3b0faff0072a320bae03ca30a]
cluster Scope--><g id="cluster_Scope"><polygon fill="#FFFFFF" points="662,118,672,108,900,108,900,335,890,345,662,345,662,118" style="stroke:#181818;stroke-width:1.0;"/><line style="stroke:#181818;stroke-width:1.0;" x1="890" x2="900" y1="118" y2="108"/><line style="stroke:#181818;stroke-width:1.0;" x1="662" x2="890" y1="118" y2="118"/><line style="stroke:#181818;stroke-width:1.0;" x1="890" x2="890" y1="118" y2="345"/><text fill="#000000" font-family="sans-serif" font-size="14" font-weight="bold" lengthAdjust="spacing" textLength="44" x="755" y="134.9999">Scope</text></g><!--MD5=[0e81e07669dd045938252300784af9f1]
cluster my-library--><g id="cluster_my-library"><rect fill="#FFFFFF" height="165" rx="2.5" ry="2.5" style="stroke:#181818;stroke-width:1.0;" width="190" x="686" y="156"/><path d="M765,156 L765,165.7999 L755,175.7999 L686,175.7999 " fill="none" style="stroke:#181818;stroke-width:1.0;"/><text fill="#000000" font-family="sans-serif" font-size="14" font-weight="bold" lengthAdjust="spacing" textLength="69" x="689" y="170.9999">my-library</text></g><!--MD5=[1dc377d3161fb6600bd48aab5f1bef29]
entity function3--><g id="elem_function3"><rect fill="#FFFFF0" height="113.9996" rx="2.5" ry="2.5" style="stroke:#181818;stroke-width:0.5;" width="258" x="340" y="191"/><rect fill="#FFFFF0" height="10" style="stroke:#181818;stroke-width:0.5;" width="15" x="578" y="196"/><rect fill="#FFFFF0" height="2" style="stroke:#181818;stroke-width:0.5;" width="4" x="576" y="198"/><rect fill="#FFFFF0" height="2" style="stroke:#181818;stroke-width:0.5;" width="4" x="576" y="202"/><text fill="#000000" font-family="sans-serif" font-size="14" lengthAdjust="spacing" textLength="4" x="355" y="224.9999"> </text><text fill="#000000" font-family="sans-serif" font-size="14" lengthAdjust="spacing" textLength="218" x="355" y="241.7999">function globalUKHoliday(... args) {</text><text fill="#000000" font-family="sans-serif" font-size="14" lengthAdjust="spacing" textLength="12" x="371" y="258.5998">...</text><text fill="#000000" font-family="sans-serif" font-size="14" lengthAdjust="spacing" textLength="5" x="355" y="275.3997">}</text><text fill="#000000" font-family="sans-serif" font-size="14" lengthAdjust="spacing" textLength="4" x="355" y="292.1996"> </text></g><!--MD5=[7103fed7bd2172f155f5b2e4f63aed18]
entity function4--><g id="elem_function4"><rect fill="#FFFFF0" height="113.9996" rx="2.5" ry="2.5" style="stroke:#181818;stroke-width:0.5;" width="258" x="47" y="191"/><rect fill="#FFFFF0" height="10" style="stroke:#181818;stroke-width:0.5;" width="15" x="285" y="196"/><rect fill="#FFFFF0" height="2" style="stroke:#181818;stroke-width:0.5;" width="4" x="283" y="198"/><rect fill="#FFFFF0" height="2" style="stroke:#181818;stroke-width:0.5;" width="4" x="283" y="202"/><text fill="#000000" font-family="sans-serif" font-size="14" lengthAdjust="spacing" textLength="4" x="62" y="224.9999"> </text><text fill="#000000" font-family="sans-serif" font-size="14" lengthAdjust="spacing" textLength="218" x="62" y="241.7999">function globalUSHoliday(... args) {</text><text fill="#000000" font-family="sans-serif" font-size="14" lengthAdjust="spacing" textLength="12" x="78" y="258.5998">...</text><text fill="#000000" font-family="sans-serif" font-size="14" lengthAdjust="spacing" textLength="5" x="62" y="275.3997">}</text><text fill="#000000" font-family="sans-serif" font-size="14" lengthAdjust="spacing" textLength="4" x="62" y="292.1996"> </text></g><!--MD5=[08c4886f0cdbbfe5a8548b418b6bf7c5]
entity function1--><g id="elem_function1"><rect fill="#FFFFF0" height="113.9996" rx="2.5" ry="2.5" style="stroke:#181818;stroke-width:0.5;" width="158" x="702" y="191"/><rect fill="#FFFFF0" height="10" style="stroke:#181818;stroke-width:0.5;" width="15" x="840" y="196"/><rect fill="#FFFFF0" height="2" style="stroke:#181818;stroke-width:0.5;" width="4" x="838" y="198"/><rect fill="#FFFFF0" height="2" style="stroke:#181818;stroke-width:0.5;" width="4" x="838" y="202"/><text fill="#000000" font-family="sans-serif" font-size="14" lengthAdjust="spacing" textLength="4" x="717" y="224.9999"> </text><text fill="#000000" font-family="sans-serif" font-size="14" lengthAdjust="spacing" textLength="118" x="717" y="241.7999">function add(x, y) {</text><text fill="#000000" font-family="sans-serif" font-size="14" lengthAdjust="spacing" textLength="12" x="733" y="258.5998">...</text><text fill="#000000" font-family="sans-serif" font-size="14" lengthAdjust="spacing" textLength="5" x="717" y="275.3997">}</text><text fill="#000000" font-family="sans-serif" font-size="14" lengthAdjust="spacing" textLength="4" x="717" y="292.1996"> </text></g><!--MD5=[1d35cff29e29bf49dfc781a5d6e7be75]
@startuml
frame Cluster {

    frame "global library" as globalLibrary #white {

        component function3 #Ivory [

function globalUKHoliday(... args) {
    ...
}

        ]

        component function4 #Ivory [

function globalUSHoliday(... args) {
    ...
}

        ]
    }

    database "Bucket" {

        node "Scope" #White {

            frame "my-library" #White {

             component function1 #Ivory [

function add(x, y) {
    ...
}

            ]

        }
    }
}
@enduml

PlantUML version 1.2022.5(Sat Apr 30 10:55:52 GMT 2022)
(GPL source distribution)
Java Runtime: OpenJDK Runtime Environment
JVM: OpenJDK 64-Bit Server VM
Default Encoding: UTF-8
Language: en
Country: US
--></g></svg>