<?xml version="1.0" encoding="us-ascii" standalone="no"?><svg xmlns="http://www.w3.org/2000/svg" xmlns:xlink="http://www.w3.org/1999/xlink" contentStyleType="text/css" height="232px" preserveAspectRatio="none" style="width:688px;height:232px;background:#FFFFFF;" version="1.1" viewBox="0 0 688 232" width="688px" zoomAndPan="magnify"><defs/><g><!--cluster Index\nService--><g id="cluster_Index\nService"><rect fill="none" height="103.3" rx="2.5" ry="2.5" style="stroke:#181818;stroke-width:1.0;" width="126" x="42" y="7"/><text fill="#000000" font-family="sans-serif" font-size="14" font-weight="bold" lengthAdjust="spacing" textLength="43" x="83.5" y="21.9951">Index</text><text fill="#000000" font-family="sans-serif" font-size="14" font-weight="bold" lengthAdjust="spacing" textLength="59" x="75.5" y="38.292">Service</text></g><!--cluster Query\nService--><g id="cluster_Query\nService"><rect fill="none" height="103.3" rx="2.5" ry="2.5" style="stroke:#181818;stroke-width:1.0;" width="454" x="192" y="7"/><text fill="#000000" font-family="sans-serif" font-size="14" font-weight="bold" lengthAdjust="spacing" textLength="48" x="395" y="21.9951">Query</text><text fill="#000000" font-family="sans-serif" font-size="14" font-weight="bold" lengthAdjust="spacing" textLength="59" x="389.5" y="38.292">Service</text></g><!--entity IndexScan--><g id="elem_IndexScan"><rect fill="#F1F1F1" height="36.2969" rx="2.5" ry="2.5" style="stroke:#181818;stroke-width:0.5;" width="95" x="57.5" y="58"/><text fill="#000000" font-family="sans-serif" font-size="14" lengthAdjust="spacing" textLength="75" x="67.5" y="80.9951">Index Scan</text></g><!--entity Fetch--><g id="elem_Fetch"><rect fill="#F1F1F1" height="36.2969" rx="2.5" ry="2.5" style="stroke:#181818;stroke-width:0.5;" width="59" x="207.5" y="58"/><text fill="#000000" font-family="sans-serif" font-size="14" lengthAdjust="spacing" textLength="39" x="217.5" y="80.9951">Fetch</text></g><!--entity Filter--><g id="elem_Filter"><rect fill="#F1F1F1" height="36.2969" rx="2.5" ry="2.5" style="stroke:#181818;stroke-width:0.5;" width="53" x="301.5" y="58"/><text fill="#000000" font-family="sans-serif" font-size="14" lengthAdjust="spacing" textLength="33" x="311.5" y="80.9951">Filter</text></g><!--entity Order--><g id="elem_Order"><rect fill="#F1F1F1" height="36.2969" rx="2.5" ry="2.5" style="stroke:#181818;stroke-width:0.5;" width="59" x="389.5" y="58"/><text fill="#000000" font-family="sans-serif" font-size="14" lengthAdjust="spacing" textLength="39" x="399.5" y="80.9951">Order</text></g><!--entity Offset--><g id="elem_Offset"><rect fill="#F1F1F1" height="36.2969" rx="2.5" ry="2.5" style="stroke:#181818;stroke-width:0.5;" width="61" x="483.5" y="58"/><text fill="#000000" font-family="sans-serif" font-size="14" lengthAdjust="spacing" textLength="41" x="493.5" y="80.9951">Offset</text></g><!--entity Limit--><g id="elem_Limit"><rect fill="#F1F1F1" height="36.2969" rx="2.5" ry="2.5" style="stroke:#181818;stroke-width:0.5;" width="51" x="579.5" y="58"/><text fill="#000000" font-family="sans-serif" font-size="14" lengthAdjust="spacing" textLength="31" x="589.5" y="80.9951">Limit</text></g><!--entity start--><g id="elem_start"><ellipse cx="14" cy="76.15" fill="#F1F1F1" rx="8" ry="8" style="stroke:#181818;stroke-width:0.5;"/></g><!--entity end--><g id="elem_end"><ellipse cx="674" cy="76.15" fill="#F1F1F1" rx="8" ry="8" style="stroke:#181818;stroke-width:0.5;"/></g><g id="elem_GMN12"><path d="M307,164.96 L307,205.2256 A0,0 0 0 0 307,205.2256 L511,205.2256 A0,0 0 0 0 511,205.2256 L511,174.96 L501,164.96 L398.37,164.96 L341.01,94.33 L390.37,164.96 L307,164.96 A0,0 0 0 0 307,164.96 " fill="#FEFFDD" style="stroke:#181818;stroke-width:0.5;"/><path d="M501,164.96 L501,174.96 L511,174.96 L501,164.96 " fill="#FEFFDD" style="stroke:#181818;stroke-width:0.5;"/><text fill="#000000" font-family="sans-serif" font-size="13" lengthAdjust="spacing" textLength="183" x="313" y="182.0269">Filters, order, and pagination</text><text fill="#000000" font-family="sans-serif" font-size="13" lengthAdjust="spacing" textLength="137" x="336" y="197.1597">performed after fetch</text></g><!--entity Data--><g id="elem_Data"><path d="M202,164.3 C202,154.3 237,154.3 237,154.3 C237,154.3 272,154.3 272,164.3 L272,205.8937 C272,215.8937 237,215.8937 237,215.8937 C237,215.8937 202,215.8937 202,205.8937 L202,164.3 " fill="#F1F1F1" style="stroke:#181818;stroke-width:0.5;"/><path d="M202,164.3 C202,174.3 237,174.3 237,174.3 C237,174.3 272,174.3 272,164.3 " fill="none" style="stroke:#181818;stroke-width:0.5;"/><text fill="#000000" font-family="sans-serif" font-size="14" lengthAdjust="spacing" textLength="32" x="221" y="191.2951">Data</text><text fill="#000000" font-family="sans-serif" font-size="14" lengthAdjust="spacing" textLength="50" x="212" y="207.592">Service</text></g><!--link start to IndexScan--><g id="link_start_IndexScan"><path d="M23.24,76.15 C32.59,76.15 41.93,76.15 51.28,76.15 " fill="none" id="start-to-IndexScan" style="stroke:#181818;stroke-width:1.0;stroke-dasharray:7.0,7.0;"/><polygon fill="#181818" points="56.1,76.15,47.1,72.15,51.1,76.15,47.1,80.15,56.1,76.15" style="stroke:#181818;stroke-width:1.0;"/></g><!--link IndexScan to Fetch--><g id="link_IndexScan_Fetch"><path d="M152.95,76.15 C169.04,76.15 185.12,76.15 201.2,76.15 " fill="none" id="IndexScan-to-Fetch" style="stroke:#181818;stroke-width:1.0;"/><polygon fill="#181818" points="206.12,76.15,197.12,72.15,201.12,76.15,197.12,80.15,206.12,76.15" style="stroke:#181818;stroke-width:1.0;"/></g><!--link Fetch to Filter--><g id="link_Fetch_Filter"><path d="M266.86,76.15 C276.35,76.15 285.85,76.15 295.34,76.15 " fill="none" id="Fetch-to-Filter" style="stroke:#181818;stroke-width:1.0;"/><polygon fill="#181818" points="300.25,76.15,291.25,72.15,295.25,76.15,291.25,80.15,300.25,76.15" style="stroke:#181818;stroke-width:1.0;"/></g><!--link Filter to Order--><g id="link_Filter_Order"><path d="M354.66,76.15 C364.16,76.15 373.67,76.15 383.17,76.15 " fill="none" id="Filter-to-Order" style="stroke:#181818;stroke-width:1.0;"/><polygon fill="#181818" points="388.09,76.15,379.09,72.15,383.09,76.15,379.09,80.15,388.09,76.15" style="stroke:#181818;stroke-width:1.0;"/></g><!--link Order to Offset--><g id="link_Order_Offset"><path d="M448.69,76.15 C458.19,76.15 467.7,76.15 477.21,76.15 " fill="none" id="Order-to-Offset" style="stroke:#181818;stroke-width:1.0;"/><polygon fill="#181818" points="482.13,76.15,473.13,72.15,477.13,76.15,473.13,80.15,482.13,76.15" style="stroke:#181818;stroke-width:1.0;"/></g><!--link Offset to Limit--><g id="link_Offset_Limit"><path d="M544.93,76.15 C554.38,76.15 563.84,76.15 573.3,76.15 " fill="none" id="Offset-to-Limit" style="stroke:#181818;stroke-width:1.0;"/><polygon fill="#181818" points="578.19,76.15,569.19,72.15,573.19,76.15,569.19,80.15,578.19,76.15" style="stroke:#181818;stroke-width:1.0;"/></g><!--link Fetch to Data--><g id="link_Fetch_Data"><path d="M227.34,94.33 C224.33,108.88 223.52,130.23 224.9,148.46 " fill="none" id="Fetch-to-Data" style="stroke:#181818;stroke-width:1.0;"/><polygon fill="#181818" points="225.4,153,228.5615,143.6724,224.9435,148.0209,220.5949,144.4028,225.4,153" style="stroke:#181818;stroke-width:1.0;"/></g><!--reverse link Fetch to Data--><g id="link_Fetch_Data"><path d="M248.28,99.88 C250.86,115.65 251.19,136.83 249.28,154 " fill="none" id="Fetch-backto-Data" style="stroke:#181818;stroke-width:1.0;"/><polygon fill="#181818" points="247.23,95.33,244.9706,104.9162,248.1583,100.2431,252.8315,103.4308,247.23,95.33" style="stroke:#181818;stroke-width:1.0;"/></g><!--link Limit to end--><g id="link_Limit_end"><path d="M630.88,76.15 C640.18,76.15 649.48,76.15 658.78,76.15 " fill="none" id="Limit-to-end" style="stroke:#181818;stroke-width:1.0;stroke-dasharray:7.0,7.0;"/><polygon fill="#181818" points="663.57,76.15,654.57,72.15,658.57,76.15,654.57,80.15,663.57,76.15" style="stroke:#181818;stroke-width:1.0;"/></g><!--SRC=[TL3RIWGn37tlLuHvKjYPBv05GGH145aVVScswLYSfaERbHNnt-rbTMSMf93cd2QdEKdlZcUCwC6GnSCaBtIKsycDx8a5T0uKbRgwXYuVJ904eommiL4gaXRaSIBe7jZGyPLt53-SfkvB0Lo-mauZr-OA2rBVAv7d0yNF_qJkIVJRcd5JcN99FKLpoLYRI5RKe_DEojSSX60VH8A7OCzwBKaR24Lk0yW6PXmTexZ0kM2cQ4FqP01jhWHRPyixWIAfb471FQPiwIvdPqV5V66Kglk4OOZ3i5tiuo-3VdjoN6E5RRns5QAPhR72vhHTXMW-J_qPrvyRlEdx1clDxnpPm0y0]--></g></svg>