<?xml version="1.0" encoding="us-ascii" standalone="no"?><svg xmlns="http://www.w3.org/2000/svg" xmlns:xlink="http://www.w3.org/1999/xlink" contentStyleType="text/css" height="657px" preserveAspectRatio="none" style="width:773px;height:657px;background:#FFFFFF;" version="1.1" viewBox="0 0 773 657" width="773px" zoomAndPan="magnify"><defs/><g><rect fill="#FFFFFF" height="645.6484" rx="2.5" ry="2.5" style="stroke:#181818;stroke-width:0.5;" width="414" x="353" y="6"/><text fill="#000000" font-family="sans-serif" font-size="13" font-weight="bold" lengthAdjust="spacing" textLength="157" x="479" y="18.0669">Couchbase Database</text><rect fill="#008080" height="420.125" style="stroke:#181818;stroke-width:1.0;" width="10" x="418.5" y="124.8281"/><rect fill="#00BFFF" height="37" style="stroke:#181818;stroke-width:1.0;" width="10" x="559.5" y="244.4922"/><rect fill="#191970" height="37" style="stroke:#181818;stroke-width:1.0;" width="10" x="696" y="373.1563"/><line style="stroke:#181818;stroke-width:0.5;stroke-dasharray:5.0,5.0;" x1="246" x2="246" y1="60.4297" y2="613.3516"/><line style="stroke:#181818;stroke-width:0.5;stroke-dasharray:5.0,5.0;" x1="423" x2="423" y1="60.4297" y2="613.3516"/><line style="stroke:#181818;stroke-width:0.5;stroke-dasharray:5.0,5.0;" x1="564" x2="564" y1="60.4297" y2="613.3516"/><line style="stroke:#181818;stroke-width:0.5;stroke-dasharray:5.0,5.0;" x1="701" x2="701" y1="60.4297" y2="613.3516"/><rect fill="#E2E2F0" height="30.2969" rx="2.5" ry="2.5" style="stroke:#181818;stroke-width:0.5;" width="61" x="216" y="29.1328"/><text fill="#000000" font-family="sans-serif" font-size="14" lengthAdjust="spacing" textLength="47" x="223" y="49.1279">Clients</text><rect fill="#E2E2F0" height="30.2969" rx="2.5" ry="2.5" style="stroke:#181818;stroke-width:0.5;" width="61" x="216" y="612.3516"/><text fill="#000000" font-family="sans-serif" font-size="14" lengthAdjust="spacing" textLength="47" x="223" y="632.3467">Clients</text><rect fill="#E2E2F0" height="30.2969" rx="2.5" ry="2.5" style="stroke:#181818;stroke-width:0.5;" width="109" x="371" y="25.1328"/><rect fill="#E2E2F0" height="30.2969" rx="2.5" ry="2.5" style="stroke:#181818;stroke-width:0.5;" width="109" x="367" y="29.1328"/><text fill="#000000" font-family="sans-serif" font-size="14" lengthAdjust="spacing" textLength="95" x="374" y="49.1279">Query Service</text><rect fill="#E2E2F0" height="30.2969" rx="2.5" ry="2.5" style="stroke:#181818;stroke-width:0.5;" width="109" x="371" y="612.3516"/><rect fill="#E2E2F0" height="30.2969" rx="2.5" ry="2.5" style="stroke:#181818;stroke-width:0.5;" width="109" x="367" y="616.3516"/><text fill="#000000" font-family="sans-serif" font-size="14" lengthAdjust="spacing" textLength="95" x="374" y="636.3467">Query Service</text><rect fill="#E2E2F0" height="30.2969" rx="2.5" ry="2.5" style="stroke:#181818;stroke-width:0.5;" width="105" x="514" y="25.1328"/><rect fill="#E2E2F0" height="30.2969" rx="2.5" ry="2.5" style="stroke:#181818;stroke-width:0.5;" width="105" x="510" y="29.1328"/><text fill="#000000" font-family="sans-serif" font-size="14" lengthAdjust="spacing" textLength="91" x="517" y="49.1279">Index Service</text><rect fill="#E2E2F0" height="30.2969" rx="2.5" ry="2.5" style="stroke:#181818;stroke-width:0.5;" width="105" x="514" y="612.3516"/><rect fill="#E2E2F0" height="30.2969" rx="2.5" ry="2.5" style="stroke:#181818;stroke-width:0.5;" width="105" x="510" y="616.3516"/><text fill="#000000" font-family="sans-serif" font-size="14" lengthAdjust="spacing" textLength="91" x="517" y="636.3467">Index Service</text><rect fill="#E2E2F0" height="30.2969" rx="2.5" ry="2.5" style="stroke:#181818;stroke-width:0.5;" width="100" x="653" y="25.1328"/><rect fill="#E2E2F0" height="30.2969" rx="2.5" ry="2.5" style="stroke:#181818;stroke-width:0.5;" width="100" x="649" y="29.1328"/><text fill="#000000" font-family="sans-serif" font-size="14" lengthAdjust="spacing" textLength="86" x="656" y="49.1279">Data Service</text><rect fill="#E2E2F0" height="30.2969" rx="2.5" ry="2.5" style="stroke:#181818;stroke-width:0.5;" width="100" x="653" y="612.3516"/><rect fill="#E2E2F0" height="30.2969" rx="2.5" ry="2.5" style="stroke:#181818;stroke-width:0.5;" width="100" x="649" y="616.3516"/><text fill="#000000" font-family="sans-serif" font-size="14" lengthAdjust="spacing" textLength="86" x="656" y="636.3467">Data Service</text><rect fill="#008080" height="420.125" style="stroke:#181818;stroke-width:1.0;" width="10" x="418.5" y="124.8281"/><rect fill="#00BFFF" height="37" style="stroke:#181818;stroke-width:1.0;" width="10" x="559.5" y="244.4922"/><rect fill="#191970" height="37" style="stroke:#181818;stroke-width:1.0;" width="10" x="696" y="373.1563"/><polygon fill="#181818" points="406.5,120.8281,416.5,124.8281,406.5,128.8281,410.5,124.8281" style="stroke:#181818;stroke-width:1.0;"/><line style="stroke:#181818;stroke-width:1.0;" x1="246.5" x2="412.5" y1="124.8281" y2="124.8281"/><text fill="#000000" font-family="sans-serif" font-size="13" lengthAdjust="spacing" textLength="46" x="253.5" y="104.6294">Submit</text><text fill="#000000" font-family="sans-serif" font-size="13" lengthAdjust="spacing" textLength="4" x="299.5" y="104.6294">&#160;</text><text fill="#000000" font-family="sans-serif" font-size="13" lengthAdjust="spacing" textLength="21" x="303.5" y="104.6294">the</text><text fill="#000000" font-family="sans-serif" font-size="13" lengthAdjust="spacing" textLength="36" x="253.5" y="119.7622">query</text><path d="M5,77.9297 L5,142.9297 A2.5,2.5 0 0 0 7.5,145.4297 L239.5,145.4297 A2.5,2.5 0 0 0 242,142.9297 L242,85.4297 L232,75.4297 L7.5,75.4297 A2.5,2.5 0 0 0 5,77.9297 " fill="#FEFFDD" style="stroke:#181818;stroke-width:0.5;"/><path d="M232,75.4297 L232,84.1797 A1.25,1.25 0 0 0 233.25,85.4297 L242,85.4297 L232,75.4297 " fill="#FEFFDD" style="stroke:#181818;stroke-width:0.5;"/><text fill="#000000" font-family="sans-serif" font-size="13" lengthAdjust="spacing" textLength="161" x="11" y="92.4966">SELECT airportname, city</text><text fill="#000000" font-family="sans-serif" font-size="13" lengthAdjust="spacing" textLength="82" x="11" y="107.6294">FROM airport</text><text fill="#000000" font-family="sans-serif" font-size="13" lengthAdjust="spacing" textLength="216" x="11" y="122.7622">WHERE tz = "America/Anchorage"</text><text fill="#000000" font-family="sans-serif" font-size="13" lengthAdjust="spacing" textLength="143" x="11" y="137.895">AND geo.alt &gt;= 2100;</text><line style="stroke:none;stroke-width:1.0;stroke-dasharray:2.0,2.0;" x1="428.5" x2="470.5" y1="187.2266" y2="187.2266"/><line style="stroke:none;stroke-width:1.0;stroke-dasharray:2.0,2.0;" x1="470.5" x2="470.5" y1="187.2266" y2="200.2266"/><line style="stroke:none;stroke-width:1.0;stroke-dasharray:2.0,2.0;" x1="429.5" x2="470.5" y1="200.2266" y2="200.2266"/><polygon fill="none" points="439.5,196.2266,429.5,200.2266,439.5,204.2266,435.5,200.2266" style="stroke:none;stroke-width:1.0;"/><text fill="#000000" font-family="sans-serif" font-size="13" lengthAdjust="spacing" textLength="40" x="435.5" y="167.0278">Parse,</text><text fill="#000000" font-family="sans-serif" font-size="13" lengthAdjust="spacing" textLength="4" x="475.5" y="167.0278">&#160;</text><text fill="#000000" font-family="sans-serif" font-size="13" lengthAdjust="spacing" textLength="53" x="479.5" y="167.0278">analyze,</text><text fill="#000000" font-family="sans-serif" font-size="13" lengthAdjust="spacing" textLength="41" x="435.5" y="182.1606">create</text><text fill="#000000" font-family="sans-serif" font-size="13" lengthAdjust="spacing" textLength="4" x="476.5" y="182.1606">&#160;</text><text fill="#000000" font-family="sans-serif" font-size="13" lengthAdjust="spacing" textLength="27" x="480.5" y="182.1606">plan</text><polygon fill="#181818" points="547.5,240.4922,557.5,244.4922,547.5,248.4922,551.5,244.4922" style="stroke:#181818;stroke-width:1.0;"/><line style="stroke:#181818;stroke-width:1.0;" x1="428.5" x2="553.5" y1="244.4922" y2="244.4922"/><text fill="#000000" font-family="sans-serif" font-size="13" lengthAdjust="spacing" textLength="32" x="435.5" y="224.2935">Scan</text><text fill="#000000" font-family="sans-serif" font-size="13" lengthAdjust="spacing" textLength="4" x="467.5" y="224.2935">&#160;</text><text fill="#000000" font-family="sans-serif" font-size="13" lengthAdjust="spacing" textLength="53" x="471.5" y="224.2935">request;</text><text fill="#000000" font-family="sans-serif" font-size="13" lengthAdjust="spacing" textLength="34" x="435.5" y="239.4263">index</text><text fill="#000000" font-family="sans-serif" font-size="13" lengthAdjust="spacing" textLength="4" x="469.5" y="239.4263">&#160;</text><text fill="#000000" font-family="sans-serif" font-size="13" lengthAdjust="spacing" textLength="35" x="473.5" y="239.4263">filters</text><polygon fill="#181818" points="439.5,277.4922,429.5,281.4922,439.5,285.4922,435.5,281.4922" style="stroke:#181818;stroke-width:1.0;"/><line style="stroke:#181818;stroke-width:1.0;" x1="433.5" x2="563.5" y1="281.4922" y2="281.4922"/><text fill="#000000" font-family="sans-serif" font-size="13" lengthAdjust="spacing" textLength="23" x="450.5" y="294.5591">Get</text><text fill="#000000" font-family="sans-serif" font-size="13" lengthAdjust="spacing" textLength="4" x="473.5" y="294.5591">&#160;</text><text fill="#000000" font-family="sans-serif" font-size="13" lengthAdjust="spacing" textLength="53" x="477.5" y="294.5591">qualified</text><text fill="#000000" font-family="sans-serif" font-size="13" lengthAdjust="spacing" textLength="4" x="530.5" y="294.5591">&#160;</text><text fill="#000000" font-family="sans-serif" font-size="13" lengthAdjust="spacing" textLength="23" x="534.5" y="294.5591">doc</text><text fill="#000000" font-family="sans-serif" font-size="13" lengthAdjust="spacing" textLength="29" x="450.5" y="309.6919">keys</text><text fill="#000000" font-family="sans-serif" font-size="13" lengthAdjust="spacing" textLength="4" x="479.5" y="309.6919">&#160;</text><text fill="#000000" font-family="sans-serif" font-size="13" lengthAdjust="spacing" textLength="24" x="483.5" y="309.6919">and</text><text fill="#000000" font-family="sans-serif" font-size="13" lengthAdjust="spacing" textLength="4" x="507.5" y="309.6919">&#160;</text><text fill="#000000" font-family="sans-serif" font-size="13" lengthAdjust="spacing" textLength="34" x="511.5" y="309.6919">index</text><text fill="#000000" font-family="sans-serif" font-size="13" lengthAdjust="spacing" textLength="29" x="450.5" y="324.8247">keys</text><polygon fill="#181818" points="684,369.1563,694,373.1563,684,377.1563,688,373.1563" style="stroke:#181818;stroke-width:1.0;"/><line style="stroke:#181818;stroke-width:1.0;" x1="428.5" x2="690" y1="373.1563" y2="373.1563"/><text fill="#000000" font-family="sans-serif" font-size="13" lengthAdjust="spacing" textLength="35" x="435.5" y="352.9575">Fetch</text><text fill="#000000" font-family="sans-serif" font-size="13" lengthAdjust="spacing" textLength="4" x="470.5" y="352.9575">&#160;</text><text fill="#000000" font-family="sans-serif" font-size="13" lengthAdjust="spacing" textLength="53" x="474.5" y="352.9575">request,</text><text fill="#000000" font-family="sans-serif" font-size="13" lengthAdjust="spacing" textLength="4" x="527.5" y="352.9575">&#160;</text><text fill="#000000" font-family="sans-serif" font-size="13" lengthAdjust="spacing" textLength="23" x="531.5" y="352.9575">doc</text><text fill="#000000" font-family="sans-serif" font-size="13" lengthAdjust="spacing" textLength="29" x="435.5" y="368.0903">keys</text><polygon fill="#181818" points="439.5,406.1563,429.5,410.1563,439.5,414.1563,435.5,410.1563" style="stroke:#181818;stroke-width:1.0;"/><line style="stroke:#181818;stroke-width:1.0;" x1="433.5" x2="700" y1="410.1563" y2="410.1563"/><text fill="#000000" font-family="sans-serif" font-size="13" lengthAdjust="spacing" textLength="35" x="622" y="423.2231">Fetch</text><text fill="#000000" font-family="sans-serif" font-size="13" lengthAdjust="spacing" textLength="4" x="657" y="423.2231">&#160;</text><text fill="#000000" font-family="sans-serif" font-size="13" lengthAdjust="spacing" textLength="21" x="661" y="423.2231">the</text><text fill="#000000" font-family="sans-serif" font-size="13" lengthAdjust="spacing" textLength="72" x="622" y="438.356">documents</text><line style="stroke:none;stroke-width:1.0;" x1="428.5" x2="470.5" y1="501.8203" y2="501.8203"/><line style="stroke:none;stroke-width:1.0;" x1="470.5" x2="470.5" y1="501.8203" y2="514.8203"/><line style="stroke:none;stroke-width:1.0;" x1="429.5" x2="470.5" y1="514.8203" y2="514.8203"/><polygon fill="none" points="439.5,510.8203,429.5,514.8203,439.5,518.8203,435.5,514.8203" style="stroke:none;stroke-width:1.0;"/><text fill="#000000" font-family="sans-serif" font-size="13" lengthAdjust="spacing" textLength="59" x="435.5" y="466.4888">Evaluate;</text><text fill="#000000" font-family="sans-serif" font-size="13" lengthAdjust="spacing" textLength="72" x="435.5" y="481.6216">documents</text><text fill="#000000" font-family="sans-serif" font-size="13" lengthAdjust="spacing" textLength="4" x="507.5" y="481.6216">&#160;</text><text fill="#000000" font-family="sans-serif" font-size="13" lengthAdjust="spacing" textLength="13" x="511.5" y="481.6216">to</text><text fill="#000000" font-family="sans-serif" font-size="13" lengthAdjust="spacing" textLength="43" x="435.5" y="496.7544">results</text><polygon fill="#181818" points="257.5,540.9531,247.5,544.9531,257.5,548.9531,253.5,544.9531" style="stroke:#181818;stroke-width:1.0;"/><line style="stroke:#181818;stroke-width:1.0;" x1="251.5" x2="422.5" y1="544.9531" y2="544.9531"/><text fill="#000000" font-family="sans-serif" font-size="13" lengthAdjust="spacing" textLength="38" x="378.5" y="558.02">Query</text><text fill="#000000" font-family="sans-serif" font-size="13" lengthAdjust="spacing" textLength="36" x="378.5" y="573.1528">result</text><path d="M38,530.3203 L38,595.3203 A2.5,2.5 0 0 0 40.5,597.8203 L238.5,597.8203 A2.5,2.5 0 0 0 241,595.3203 L241,537.8203 L231,527.8203 L40.5,527.8203 A2.5,2.5 0 0 0 38,530.3203 " fill="#FEFFDD" style="stroke:#181818;stroke-width:0.5;"/><path d="M231,527.8203 L231,536.5703 A1.25,1.25 0 0 0 232.25,537.8203 L241,537.8203 L231,527.8203 " fill="#FEFFDD" style="stroke:#181818;stroke-width:0.5;"/><text fill="#000000" font-family="sans-serif" font-size="13" lengthAdjust="spacing" textLength="8" x="44" y="544.8872">{</text><text fill="#000000" font-family="sans-serif" font-size="13" lengthAdjust="spacing" textLength="174" x="52" y="560.02">"airportname": "Analtuvuk",</text><text fill="#000000" font-family="sans-serif" font-size="13" lengthAdjust="spacing" textLength="151" x="52" y="575.1528">"city": "Anaktuvuk Pass"</text><text fill="#000000" font-family="sans-serif" font-size="13" lengthAdjust="spacing" textLength="8" x="44" y="590.2856">}</text><!--SRC=[VLDDRzim3BthLn3EOPTsImfiXnGjaAHfDs3TkcP03sqFZCmuGcJ9bUGqwST_dpuSnm6s7Gp8Zq_a8_baLq9LQB244ZVNP2qMD1Cl18EJpyosGQDhbNDj51aumCbMMbbgRev9wkUHCVePdAcfGxJqL9FYE-98Ya91BWnn9xJg46_GEC55XShTO9uBLS2WtucFzMQ7V-dYSxs1LpP6lYgYs8cMslXiaguCaM9HLG9dX0aRQvEJQS3A-9m9VsUisik0YHIad6Kir9ZecY_dQ0akq64yzEwMmX7ZMihKZeNiLqrcwokPjU2K0Lg8o27fcyffSq2Ao24fb3dW182HoaFBZ3NYuFWyLHZ2h9wNme5RqeDwYaNHvrgZeyI0dYEKx0CuB8P3sc1PIRf_P4fxXgI5Om2pwVVfv3UWC9KsJc59Hy25s_hGvUtFwrt0_zvzdTvEmRt06MIZaepW-6ca-58Rl-RC4qO_Bg0W_H6bW_CpE1dq-wTHVgZdLVXZLmLB6e_lUywWiduFlht7VNVU7zQBGOLo-n9K6GgTLH9LU_SypT6FWgFo7lLJiEuKH1ptGaX7nkw7ahRGouagkzhEfVVjsziRI_2-y1KvUAfHYeMW77BDOKLRwuNaJUBmot8wpCjsSrwGuqlVNoinh748bm7UIJngq-xLnVNtIf4hKInTgox2Ut4fJLovJr6NqQyTBT4ppQntIlu-wJRbT8sozdTFeSq8JeSNNylm6Df66WSEqyK7bHZTwidw_pNSg_y0iexXig4tbD-ogzVrAZjAyU319h2A0Uy7QuFDtl_jgJy0]--></g></svg>