<?xml version="1.0" encoding="UTF-8" standalone="no"?><svg xmlns="http://www.w3.org/2000/svg" xmlns:xlink="http://www.w3.org/1999/xlink" contentStyleType="text/css" height="199px" preserveAspectRatio="none" style="width:380px;height:199px;background:#FFFFFF;" version="1.1" viewBox="0 0 380 199" width="380px" zoomAndPan="magnify"><defs/><g><!--cluster length--><g id="cluster_length"><rect fill="none" height="80" rx="2.5" ry="2.5" style="stroke:#181818;stroke-width:1.0;" width="68" x="306" y="7"/><text fill="#000000" font-family="sans-serif" font-size="14" font-weight="bold" lengthAdjust="spacing" textLength="50" x="315" y="21.9951">length</text></g><g id="elem_L1"><ellipse cx="339.8492" cy="56.5236" fill="#F1F1F1" rx="17.8492" ry="14.5236" style="stroke:#181818;stroke-width:0.5;"/><text fill="#000000" font-family="sans-serif" font-size="14" lengthAdjust="spacing" textLength="9" x="335.3492" y="59.3703">4</text></g><g id="elem_Start"><ellipse cx="185.0177" cy="56.6052" fill="#F1F1F1" rx="102.0177" ry="25.1052" style="stroke:#181818;stroke-width:0.5;"/><text fill="#000000" font-family="sans-serif" font-size="14" font-style="italic" lengthAdjust="spacing" textLength="102" x="126.9938" y="51.4899">«Input Token»</text><text fill="#000000" font-family="sans-serif" font-size="14" lengthAdjust="spacing" textLength="134" x="110.9938" y="67.7868">beer and breweries</text></g><g id="elem_beer"><ellipse cx="53.9232" cy="167.6851" fill="#F1F1F1" rx="47.9232" ry="25.1851" style="stroke:#181818;stroke-width:0.5;"/><text fill="#000000" font-family="sans-serif" font-size="14" font-style="italic" lengthAdjust="spacing" textLength="66" x="20.9232" y="165.4291">«Output»</text><text fill="#000000" font-family="sans-serif" font-size="14" lengthAdjust="spacing" textLength="32" x="37.9232" y="181.7259">beer</text></g><g id="elem_and"><ellipse cx="184.8288" cy="167.3915" fill="#F1F1F1" rx="47.3288" ry="24.8915" style="stroke:#181818;stroke-width:0.5;"/><text fill="#000000" font-family="sans-serif" font-size="14" font-style="italic" lengthAdjust="spacing" textLength="66" x="151.8288" y="165.5716">«Output»</text><text fill="#000000" font-family="sans-serif" font-size="14" lengthAdjust="spacing" textLength="26" x="171.8288" y="181.8685">and</text></g><g id="elem_brewe"><ellipse cx="316.7716" cy="167.351" fill="#F1F1F1" rx="49.2716" ry="25.851" style="stroke:#181818;stroke-width:0.5;"/><text fill="#000000" font-family="sans-serif" font-size="14" font-style="italic" lengthAdjust="spacing" textLength="66" x="283.7716" y="164.1298">«Output»</text><text fill="#000000" font-family="sans-serif" font-size="14" lengthAdjust="spacing" textLength="43" x="295.2716" y="180.4266">brewe</text></g><!--link Start to beer--><g id="link_Start_beer"><path d="M156.9,80.88 C135.37,98.8 105.74,123.45 83.8,141.71 " fill="none" id="Start-to-beer" style="stroke:#181818;stroke-width:1.0;"/><polygon fill="#181818" points="80.12,144.76,89.5957,142.0747,83.9623,141.5605,84.4765,135.927,80.12,144.76" style="stroke:#181818;stroke-width:1.0;"/></g><!--link Start to and--><g id="link_Start_and"><path d="M185,81.96 C185,97.95 185,118.95 185,136.02 " fill="none" id="Start-to-and" style="stroke:#181818;stroke-width:1.0;"/><polygon fill="#181818" points="185,140.61,189,131.61,185,135.61,181,131.61,185,140.61" style="stroke:#181818;stroke-width:1.0;"/></g><!--link Start to brewe--><g id="link_Start_brewe"><path d="M213.32,80.88 C234.73,98.56 264.09,122.81 286.11,140.99 " fill="none" id="Start-to-brewe" style="stroke:#181818;stroke-width:1.0;"/><polygon fill="#181818" points="289.8,144.04,285.408,135.2246,285.9449,140.856,280.3136,141.3928,289.8,144.04" style="stroke:#181818;stroke-width:1.0;"/></g><!--SRC=[LSsn2i8m4CRn_PxYerCxT10SItP1SD0NIEj75KkKomK7yTrDsiNS-EFk_kr8AdouObI-gNV63ZxYR5uDmt08hsIuF1yCpabRjhlCfsJPY-JJ6jO_5OboCX_cXLWOPhlX8yYJ8YSVYMRVbEHn9r-HBTpt3bli7qghMbXJFm00]--></g></svg>