<?xml version="1.0" encoding="UTF-8" standalone="no"?><svg xmlns="http://www.w3.org/2000/svg" xmlns:xlink="http://www.w3.org/1999/xlink" contentStyleType="text/css" height="200px" preserveAspectRatio="none" style="width:423px;height:200px;background:#FFFFFF;" version="1.1" viewBox="0 0 423 200" width="423px" zoomAndPan="magnify"><defs/><g><!--cluster wordlist--><g id="cluster_wordlist"><rect fill="none" height="80" rx="2.5" ry="2.5" style="stroke:#181818;stroke-width:1.0;" width="122" x="295.5" y="7"/><text fill="#000000" font-family="sans-serif" font-size="14" font-weight="bold" lengthAdjust="spacing" textLength="64" x="324.5" y="21.9951">wordlist</text></g><g id="elem_WL1"><ellipse cx="356.6374" cy="56.6391" fill="#F1F1F1" rx="45.1374" ry="14.6391" style="stroke:#181818;stroke-width:0.5;"/><text fill="#000000" font-family="sans-serif" font-size="14" lengthAdjust="spacing" textLength="47" x="330.1374" y="60.3867">stop_fr</text></g><g id="elem_Start"><ellipse cx="184.6996" cy="56.5863" fill="#F1F1F1" rx="91.6996" ry="25.5863" style="stroke:#181818;stroke-width:0.5;"/><text fill="#000000" font-family="sans-serif" font-size="14" font-style="italic" lengthAdjust="spacing" textLength="102" x="127.1996" y="52.1855">«Input Token»</text><text fill="#000000" font-family="sans-serif" font-size="14" lengthAdjust="spacing" textLength="116" x="120.1996" y="68.4823">je m'appelle John</text></g><g id="elem_je"><ellipse cx="52.3042" cy="168.3855" fill="#F1F1F1" rx="46.3042" ry="24.3855" style="stroke:#181818;stroke-width:0.5;"/><text fill="#000000" font-family="sans-serif" font-size="14" font-style="italic" lengthAdjust="spacing" textLength="66" x="19.3042" y="167.3349">«Output»</text><text fill="#000000" font-family="sans-serif" font-size="14" lengthAdjust="spacing" textLength="12" x="46.3042" y="183.6318">je</text></g><g id="elem_appelle"><ellipse cx="184.3135" cy="168.3655" fill="#F1F1F1" rx="50.3135" ry="26.3655" style="stroke:#181818;stroke-width:0.5;"/><text fill="#000000" font-family="sans-serif" font-size="14" font-style="italic" lengthAdjust="spacing" textLength="66" x="151.3135" y="164.4185">«Output»</text><text fill="#000000" font-family="sans-serif" font-size="14" lengthAdjust="spacing" textLength="50" x="159.3135" y="180.7153">appelle</text></g><g id="elem_John"><ellipse cx="317.7143" cy="168.5819" fill="#F1F1F1" rx="47.7143" ry="25.0819" style="stroke:#181818;stroke-width:0.5;"/><text fill="#000000" font-family="sans-serif" font-size="14" font-style="italic" lengthAdjust="spacing" textLength="66" x="284.7143" y="166.4784">«Output»</text><text fill="#000000" font-family="sans-serif" font-size="14" lengthAdjust="spacing" textLength="30" x="302.7143" y="182.7752">John</text></g><!--link Start to je--><g id="link_Start_je"><path d="M156.18,81.1 C134.21,99.41 103.86,124.7 81.67,143.19 " fill="none" id="Start-to-je" style="stroke:#181818;stroke-width:1.0;"/><polygon fill="#181818" points="77.95,146.3,87.4257,143.6147,81.7923,143.1005,82.3065,137.467,77.95,146.3" style="stroke:#181818;stroke-width:1.0;"/></g><!--link Start to appelle--><g id="link_Start_appelle"><path d="M184.5,82.46 C184.5,98.27 184.5,118.85 184.5,135.81 " fill="none" id="Start-to-appelle" style="stroke:#181818;stroke-width:1.0;"/><polygon fill="#181818" points="184.5,140.36,188.5,131.36,184.5,135.36,180.5,131.36,184.5,140.36" style="stroke:#181818;stroke-width:1.0;"/></g><!--link Start to John--><g id="link_Start_John"><path d="M213.03,81.1 C235.03,99.29 265.36,124.38 287.68,142.84 " fill="none" id="Start-to-John" style="stroke:#181818;stroke-width:1.0;"/><polygon fill="#181818" points="291.43,145.94,287.038,137.1246,287.5749,142.756,281.9436,143.2928,291.43,145.94" style="stroke:#181818;stroke-width:1.0;"/></g><!--SRC=[qyXALSXLJomeICt9ILNmoi_8qrH8B5O8BaaiAb6miV7CAoWjKGZ9pqxDixFZqiXArGGA-fUM04L1VAW-L4688KWYHQd99ObvwK3po_EBKd8oYqiKghaKWA2qE3KviJXLGQcu9ByWFgr82MHrk8yXLoqN5yG5khfs2Y1RaRamIv75m7O20000]--></g></svg>