<?xml version="1.0" encoding="us-ascii" standalone="no"?><svg xmlns="http://www.w3.org/2000/svg" xmlns:xlink="http://www.w3.org/1999/xlink" contentStyleType="text/css" height="359px" preserveAspectRatio="none" style="width:570px;height:359px;background:#FFFFFF;" version="1.1" viewBox="0 0 570 359" width="570px" zoomAndPan="magnify"><defs/><g><!--cluster route--><g id="cluster_route"><path d="M8.5,72 L148.5,72 A3.75,3.75 0 0 1 151,74.5 L158,94.2969 L228.5,94.2969 A2.5,2.5 0 0 1 231,96.7969 L231,230.5 A2.5,2.5 0 0 1 228.5,233 L8.5,233 A2.5,2.5 0 0 1 6,230.5 L6,74.5 A2.5,2.5 0 0 1 8.5,72 " fill="none" style="stroke:#000000;stroke-width:1.5;"/><line style="stroke:#000000;stroke-width:1.5;" x1="6" x2="158" y1="94.2969" y2="94.2969"/><text fill="#000000" font-family="sans-serif" font-size="14" font-weight="bold" lengthAdjust="spacing" textLength="139" x="10" y="86.9951">Route documents</text></g><!--cluster airline--><g id="cluster_airline"><path d="M374.5,6 L518.5,6 A3.75,3.75 0 0 1 521,8.5 L528,28.2969 L560.5,28.2969 A2.5,2.5 0 0 1 563,30.7969 L563,164.5 A2.5,2.5 0 0 1 560.5,167 L374.5,167 A2.5,2.5 0 0 1 372,164.5 L372,8.5 A2.5,2.5 0 0 1 374.5,6 " fill="none" style="stroke:#000000;stroke-width:1.5;"/><line style="stroke:#000000;stroke-width:1.5;" x1="372" x2="528" y1="28.2969" y2="28.2969"/><text fill="#000000" font-family="sans-serif" font-size="14" font-weight="bold" lengthAdjust="spacing" textLength="143" x="376" y="20.9951">Airline documents</text></g><!--cluster airport--><g id="cluster_airport"><path d="M388,191 L537,191 A3.75,3.75 0 0 1 539.5,193.5 L546.5,213.2969 L547,213.2969 A2.5,2.5 0 0 1 549.5,215.7969 L549.5,349.5 A2.5,2.5 0 0 1 547,352 L388,352 A2.5,2.5 0 0 1 385.5,349.5 L385.5,193.5 A2.5,2.5 0 0 1 388,191 " fill="none" style="stroke:#000000;stroke-width:1.5;"/><line style="stroke:#000000;stroke-width:1.5;" x1="385.5" x2="546.5" y1="213.2969" y2="213.2969"/><text fill="#000000" font-family="sans-serif" font-size="14" font-weight="bold" lengthAdjust="spacing" textLength="148" x="389.5" y="205.9951">Airport documents</text></g><g id="elem_route_5966"><rect fill="#F1F1F1" height="101.4844" style="stroke:#181818;stroke-width:0.5;" width="177" x="30" y="111.5"/><text fill="#000000" font-family="sans-serif" font-size="14" font-weight="bold" lengthAdjust="spacing" textLength="90" x="73.5" y="126.4951">route_5966</text><line style="stroke:#181818;stroke-width:1.0;" x1="30" x2="207" y1="131.7969" y2="131.7969"/><text fill="#000000" font-family="sans-serif" font-size="14" lengthAdjust="spacing" textLength="12" x="75" y="146.792">id</text><text fill="#000000" font-family="sans-serif" font-size="14" lengthAdjust="spacing" textLength="36" x="137" y="146.792">5966</text><line style="stroke:#181818;stroke-width:1.0;" x1="132" x2="132" y1="131.7969" y2="152.0938"/><line style="stroke:#181818;stroke-width:1.0;" x1="30" x2="207" y1="152.0938" y2="152.0938"/><text fill="#000000" font-family="sans-serif" font-size="14" lengthAdjust="spacing" textLength="30" x="66" y="167.0889">type</text><text fill="#000000" font-family="sans-serif" font-size="14" lengthAdjust="spacing" textLength="37" x="137" y="167.0889">route</text><line style="stroke:#181818;stroke-width:1.0;" x1="132" x2="132" y1="152.0938" y2="172.3906"/><line style="stroke:#181818;stroke-width:1.0;" x1="30" x2="207" y1="172.3906" y2="172.3906"/><text fill="#000000" font-family="sans-serif" font-size="14" lengthAdjust="spacing" textLength="52" x="55" y="187.3857">airlineid</text><text fill="#FF0000" font-family="sans-serif" font-size="14" lengthAdjust="spacing" textLength="65" x="137" y="187.3857">airline_24</text><line style="stroke:#181818;stroke-width:1.0;" x1="132" x2="132" y1="172.3906" y2="192.6875"/><line style="stroke:#181818;stroke-width:1.0;" x1="30" x2="207" y1="192.6875" y2="192.6875"/><text fill="#000000" font-family="sans-serif" font-size="14" lengthAdjust="spacing" textLength="92" x="35" y="207.6826">sourceairport</text><text fill="#000000" font-family="sans-serif" font-size="14" lengthAdjust="spacing" textLength="27" x="137" y="207.6826">SEA</text><line style="stroke:#181818;stroke-width:1.0;" x1="132" x2="132" y1="192.6875" y2="212.9844"/></g><g id="elem_airline_24"><rect fill="#F1F1F1" height="101.4844" style="stroke:#181818;stroke-width:0.5;" width="143" x="396" y="45.5"/><text fill="#FF0000" font-family="sans-serif" font-size="14" font-weight="bold" lengthAdjust="spacing" textLength="75" x="430" y="60.4951">airline_24</text><line style="stroke:#181818;stroke-width:1.0;" x1="396" x2="539" y1="65.7969" y2="65.7969"/><text fill="#000000" font-family="sans-serif" font-size="14" lengthAdjust="spacing" textLength="12" x="420.5" y="80.792">id</text><text fill="#000000" font-family="sans-serif" font-size="14" lengthAdjust="spacing" textLength="18" x="462" y="80.792">24</text><line style="stroke:#181818;stroke-width:1.0;" x1="457" x2="457" y1="65.7969" y2="86.0938"/><line style="stroke:#181818;stroke-width:1.0;" x1="396" x2="539" y1="86.0938" y2="86.0938"/><text fill="#000000" font-family="sans-serif" font-size="14" lengthAdjust="spacing" textLength="30" x="411.5" y="101.0889">type</text><text fill="#000000" font-family="sans-serif" font-size="14" lengthAdjust="spacing" textLength="40" x="462" y="101.0889">airline</text><line style="stroke:#181818;stroke-width:1.0;" x1="457" x2="457" y1="86.0938" y2="106.3906"/><line style="stroke:#181818;stroke-width:1.0;" x1="396" x2="539" y1="106.3906" y2="106.3906"/><text fill="#000000" font-family="sans-serif" font-size="14" lengthAdjust="spacing" textLength="51" x="401" y="121.3857">callsign</text><text fill="#000000" font-family="sans-serif" font-size="14" lengthAdjust="spacing" textLength="72" x="462" y="121.3857">AMERICAN</text><line style="stroke:#181818;stroke-width:1.0;" x1="457" x2="457" y1="106.3906" y2="126.6875"/><line style="stroke:#181818;stroke-width:1.0;" x1="396" x2="539" y1="126.6875" y2="126.6875"/><text fill="#000000" font-family="sans-serif" font-size="14" lengthAdjust="spacing" textLength="24" x="414.5" y="141.6826">iata</text><text fill="#000000" font-family="sans-serif" font-size="14" lengthAdjust="spacing" textLength="18" x="462" y="141.6826">AA</text><line style="stroke:#181818;stroke-width:1.0;" x1="457" x2="457" y1="126.6875" y2="146.9844"/></g><g id="elem_airport_3577"><rect fill="#F1F1F1" height="101.4844" style="stroke:#181818;stroke-width:0.5;" width="114" x="410.5" y="230.5"/><text fill="#000000" font-family="sans-serif" font-size="14" font-weight="bold" lengthAdjust="spacing" textLength="100" x="417.5" y="245.4951">airport_3577</text><line style="stroke:#181818;stroke-width:1.0;" x1="410.5" x2="524.5" y1="250.7969" y2="250.7969"/><text fill="#000000" font-family="sans-serif" font-size="14" lengthAdjust="spacing" textLength="12" x="424.5" y="265.792">id</text><text fill="#000000" font-family="sans-serif" font-size="14" lengthAdjust="spacing" textLength="36" x="455.5" y="265.792">3577</text><line style="stroke:#181818;stroke-width:1.0;" x1="450.5" x2="450.5" y1="250.7969" y2="271.0938"/><line style="stroke:#181818;stroke-width:1.0;" x1="410.5" x2="524.5" y1="271.0938" y2="271.0938"/><text fill="#000000" font-family="sans-serif" font-size="14" lengthAdjust="spacing" textLength="30" x="415.5" y="286.0889">type</text><text fill="#000000" font-family="sans-serif" font-size="14" lengthAdjust="spacing" textLength="44" x="455.5" y="286.0889">airport</text><line style="stroke:#181818;stroke-width:1.0;" x1="450.5" x2="450.5" y1="271.0938" y2="291.3906"/><line style="stroke:#181818;stroke-width:1.0;" x1="410.5" x2="524.5" y1="291.3906" y2="291.3906"/><text fill="#000000" font-family="sans-serif" font-size="14" lengthAdjust="spacing" textLength="20" x="420.5" y="306.3857">faa</text><text fill="#000000" font-family="sans-serif" font-size="14" lengthAdjust="spacing" textLength="27" x="455.5" y="306.3857">SEA</text><line style="stroke:#181818;stroke-width:1.0;" x1="450.5" x2="450.5" y1="291.3906" y2="311.6875"/><line style="stroke:#181818;stroke-width:1.0;" x1="410.5" x2="524.5" y1="311.6875" y2="311.6875"/><text fill="#000000" font-family="sans-serif" font-size="14" lengthAdjust="spacing" textLength="28" x="416.5" y="326.6826">icao</text><text fill="#000000" font-family="sans-serif" font-size="14" lengthAdjust="spacing" textLength="36" x="455.5" y="326.6826">KSEA</text><line style="stroke:#181818;stroke-width:1.0;" x1="450.5" x2="450.5" y1="311.6875" y2="331.9844"/></g><!--link route_5966 to airline_24--><g id="link_route_5966_airline_24"><path codeLine="43" d="M208.5,182 C268.97,182 333.52,160.47 382.92,138.96 " fill="none" id="route_5966-to-airline_24" style="stroke:#181818;stroke-width:1.0;"/><polygon fill="#181818" points="387.26,136.61,377.4112,136.5785,382.6845,138.6261,380.6369,143.8994,387.26,136.61" style="stroke:#181818;stroke-width:1.0;"/><text fill="#000000" font-family="sans-serif" font-size="13" lengthAdjust="spacing" textLength="91" x="256" y="151.0669">Foreign Key ID</text></g><!--link airport_3577 to route_5966--><g id="link_airport_3577_route_5966"><path codeLine="44" d="M409.5,301 C310.11,301 307.89,203 208.5,203 " fill="none" id="airport_3577-route_5966" style="stroke:#181818;stroke-width:1.0;stroke-dasharray:7.0,7.0;"/></g><!--SRC=[TPBHQi8m58Rl-nG7wLL1GJShArCecuAuxS8zG0djiGRJfAJfG8RlFXCJsqPs8ORl_4d__vp3yA102P2qF2eegCHSKS63G8aIrH4b_0O0DSbFf4GOxKMh40gHjnLorOo0D20D2sz_MWrGaHf6KMHGDd-9uoZgf0PO8G0jOBa2ZInGvnerCbhB29MCShnfNm-2AyW54t8fiLZPOZPxjkf6j3B7Aww5LFh6zperfKkWVvV_mgMtXxnuzda8tQ4NqRSIHPqP6xa3NkIxNHVOAYtD2MCDBRckf9_h_VOj_NBtYI86zrDvGKpqXo26Xkumc9M5sTDyiUYitv5dNgD7-rfjwO6GVkUlzt8YDDaDXz6t_K5uKH5vydmpXyFxQU3SqMmsZUEfzJw4Vkiry-ox2wxzekLAddLb8mdFtLYm8fHfobl6XalLBNUIT0ix7g_wEm09R8H4FTWTdc7x7lIxd2IwRvC9zDyQhFFrCrY97-oQyGS0]--></g></svg>