<?xml version="1.0" encoding="UTF-8" standalone="no"?><svg xmlns="http://www.w3.org/2000/svg" xmlns:xlink="http://www.w3.org/1999/xlink" contentStyleType="text/css" height="174px" preserveAspectRatio="none" style="width:371px;height:174px;background:#FFFFFF;" version="1.1" viewBox="0 0 371 174" width="371px" zoomAndPan="magnify"><defs/><g><g id="elem_Start"><ellipse cx="181.9128" cy="31.0209" fill="#F1F1F1" rx="71.9128" ry="25.0209" style="stroke:#181818;stroke-width:0.5;"/><text fill="#000000" font-family="sans-serif" font-size="14" font-style="italic" lengthAdjust="spacing" textLength="102" x="130.9128" y="29.0079">«Input Token»</text><text fill="#000000" font-family="sans-serif" font-size="14" lengthAdjust="spacing" textLength="51" x="156.4128" y="45.3048">abc def</text></g><g id="elem_abc"><ellipse cx="53.239" cy="142.3472" fill="#F1F1F1" rx="47.239" ry="24.8472" style="stroke:#181818;stroke-width:0.5;"/><text fill="#000000" font-family="sans-serif" font-size="14" font-style="italic" lengthAdjust="spacing" textLength="66" x="20.239" y="140.5937">«Output»</text><text fill="#000000" font-family="sans-serif" font-size="14" lengthAdjust="spacing" textLength="25" x="40.739" y="156.8906">abc</text></g><g id="elem_def"><ellipse cx="181.9853" cy="142.7219" fill="#F1F1F1" rx="46.9853" ry="24.7219" style="stroke:#181818;stroke-width:0.5;"/><text fill="#000000" font-family="sans-serif" font-size="14" font-style="italic" lengthAdjust="spacing" textLength="66" x="148.9853" y="141.1573">«Output»</text><text fill="#000000" font-family="sans-serif" font-size="14" lengthAdjust="spacing" textLength="22" x="170.9853" y="157.4541">def</text></g><g id="elem_abc def"><ellipse cx="314.9746" cy="142.4451" fill="#F1F1F1" rx="50.4746" ry="26.4451" style="stroke:#181818;stroke-width:0.5;"/><text fill="#000000" font-family="sans-serif" font-size="14" font-style="italic" lengthAdjust="spacing" textLength="66" x="281.9746" y="138.3872">«Output»</text><text fill="#000000" font-family="sans-serif" font-size="14" lengthAdjust="spacing" textLength="51" x="289.4746" y="154.6841">abc def</text></g><!--link Start to abc--><g id="link_Start_abc"><path d="M155.27,54.69 C134,72.74 104.27,97.98 82.35,116.59 " fill="none" id="Start-to-abc" style="stroke:#181818;stroke-width:1.0;"/><polygon fill="#181818" points="78.67,119.71,88.1238,116.9485,82.4864,116.4796,82.9552,110.8423,78.67,119.71" style="stroke:#181818;stroke-width:1.0;"/></g><!--link Start to def--><g id="link_Start_def"><path d="M182,56.3 C182,72.58 182,94.11 182,111.46 " fill="none" id="Start-to-def" style="stroke:#181818;stroke-width:1.0;"/><polygon fill="#181818" points="182,116.13,186,107.13,182,111.13,178,107.13,182,116.13" style="stroke:#181818;stroke-width:1.0;"/></g><!--link Start to abc def--><g id="link_Start_abc def"><path d="M209.24,54.42 C230.86,72.22 261.1,97.13 283.71,115.74 " fill="none" id="Start-to-abc def" style="stroke:#181818;stroke-width:1.0;"/><polygon fill="#181818" points="287.54,118.89,283.1286,110.0843,283.6779,115.7145,278.0477,116.2638,287.54,118.89" style="stroke:#181818;stroke-width:1.0;"/></g><!--SRC=[qqXCIbP8IKtJL4WiLWWkIImgKR2nySmhA2rH2CdFJispi-FYqW2gqGGA-vUM0CM18XfW3SW2S5EG1BaWnkdgsYc0JK3cWzIYoOFr0m00]--></g></svg>