<?xml version="1.0" encoding="us-ascii" standalone="no"?><svg xmlns="http://www.w3.org/2000/svg" xmlns:xlink="http://www.w3.org/1999/xlink" contentStyleType="text/css" height="199px" preserveAspectRatio="none" style="width:378px;height:199px;background:#FFFFFF;" version="1.1" viewBox="0 0 378 199" width="378px" zoomAndPan="magnify"><defs/><g><!--cluster length--><g id="cluster_length"><rect fill="none" height="80.05" rx="2.5" ry="2.5" style="stroke:#181818;stroke-width:1.0;" width="68" x="304.92" y="7"/><text fill="#000000" font-family="sans-serif" font-size="14" font-weight="bold" lengthAdjust="spacing" textLength="50" x="313.92" y="21.9951">length</text></g><g id="elem_L1"><ellipse cx="338.9192" cy="56.5236" fill="#F1F1F1" rx="17.8492" ry="14.5236" style="stroke:#181818;stroke-width:0.5;"/><text fill="#000000" font-family="sans-serif" font-size="14" lengthAdjust="spacing" textLength="9" x="334.4192" y="59.3703">4</text></g><g id="elem_Start"><ellipse cx="183.9187" cy="56.5242" fill="#F1F1F1" rx="101.8787" ry="25.0742" style="stroke:#181818;stroke-width:0.5;"/><text fill="#000000" font-family="sans-serif" font-size="14" font-style="italic" lengthAdjust="spacing" textLength="101" x="126.4062" y="51.365">&#171;Input Token&#187;</text><text fill="#000000" font-family="sans-serif" font-size="14" lengthAdjust="spacing" textLength="134" x="109.9062" y="67.6619">beer and breweries</text></g><g id="elem_beer"><ellipse cx="53.9232" cy="167.4451" fill="#F1F1F1" rx="47.9232" ry="25.1851" style="stroke:#181818;stroke-width:0.5;"/><text fill="#000000" font-family="sans-serif" font-size="14" font-style="italic" lengthAdjust="spacing" textLength="66" x="20.9232" y="165.1891">&#171;Output&#187;</text><text fill="#000000" font-family="sans-serif" font-size="14" lengthAdjust="spacing" textLength="32" x="37.9232" y="181.4859">beer</text></g><g id="elem_and"><ellipse cx="183.9188" cy="167.4515" fill="#F1F1F1" rx="47.3288" ry="24.8915" style="stroke:#181818;stroke-width:0.5;"/><text fill="#000000" font-family="sans-serif" font-size="14" font-style="italic" lengthAdjust="spacing" textLength="66" x="150.9188" y="165.6316">&#171;Output&#187;</text><text fill="#000000" font-family="sans-serif" font-size="14" lengthAdjust="spacing" textLength="26" x="170.9188" y="181.9285">and</text></g><g id="elem_brewe"><ellipse cx="315.9216" cy="167.451" fill="#F1F1F1" rx="49.2716" ry="25.851" style="stroke:#181818;stroke-width:0.5;"/><text fill="#000000" font-family="sans-serif" font-size="14" font-style="italic" lengthAdjust="spacing" textLength="66" x="282.9216" y="164.2298">&#171;Output&#187;</text><text fill="#000000" font-family="sans-serif" font-size="14" lengthAdjust="spacing" textLength="43" x="294.4216" y="180.5266">brewe</text></g><!--link Start to beer--><g id="link_Start_beer"><path d="M156.03,80.89 C134.58,98.87 105.02,123.64 83.22,141.9 " fill="none" id="Start-to-beer" style="stroke:#181818;stroke-width:1.0;"/><polygon fill="#181818" points="79.69,145.69,89.1548,142.9666,83.5194,142.475,84.0109,136.8396,79.69,145.69" style="stroke:#181818;stroke-width:1.0;"/></g><!--link Start to and--><g id="link_Start_and"><path d="M183.92,81.97 C183.92,98.09 183.92,119.3 183.92,136.44 " fill="none" id="Start-to-and" style="stroke:#181818;stroke-width:1.0;"/><polygon fill="#181818" points="183.92,141.09,187.92,132.09,183.92,136.09,179.92,132.09,183.92,141.09" style="stroke:#181818;stroke-width:1.0;"/></g><!--link Start to brewe--><g id="link_Start_brewe"><path d="M212.24,80.89 C233.88,98.75 263.65,123.32 285.74,141.54 " fill="none" id="Start-to-brewe" style="stroke:#181818;stroke-width:1.0;"/><polygon fill="#181818" points="289.33,145.33,284.938,136.5146,285.4749,142.146,279.8436,142.6828,289.33,145.33" style="stroke:#181818;stroke-width:1.0;"/></g><!--SRC=[LSsn2i8m4CRn_PxYerCxT10SItP1SD0NIEj75KkKomK7yTrDsiNS-EFk_kr8AdouObI-gNV63ZxYR5uDmt08hsIuF1yCpabRjhlCfsJPY-JJ6jO_5OboCX_cXLWOPhlX8yYJ8YSVYMRVbEHn9r-HBTpt3bli7qghMbXJFm00]--></g></svg>