<?xml version="1.0" encoding="UTF-8" standalone="no"?><svg xmlns="http://www.w3.org/2000/svg" xmlns:xlink="http://www.w3.org/1999/xlink" contentStyleType="text/css" height="371px" preserveAspectRatio="none" style="width:904px;height:371px;background:#FFFFFF;" version="1.1" viewBox="0 0 904 371" width="904px" zoomAndPan="magnify"><defs/><g><!--MD5=[cd2d2a69136bcb457c777d7f0a388268]
cluster MyLibrary--><g id="cluster_MyLibrary"><rect height="140" rx="2.5" ry="2.5" style="stroke:#181818;stroke-width:1.0;fill:none;" width="245" x="653" y="68.5"/><path d="M732,68.5 L732,78.2999 L722,88.2999 L653,88.2999 " fill="none" style="stroke:#181818;stroke-width:1.0;"/><text fill="#000000" font-family="sans-serif" font-size="14" font-weight="bold" lengthAdjust="spacing" textLength="69" x="656" y="83.4999">my-library</text></g><!--MD5=[62809005bfbcca8197a527c005e3b7f6]
cluster bucket--><g id="cluster_bucket"><path d="M718.5,250.5 C718.5,240.5 775.5,240.5 775.5,240.5 C775.5,240.5 832.5,240.5 832.5,250.5 L832.5,344.5 C832.5,354.5 775.5,354.5 775.5,354.5 C775.5,354.5 718.5,354.5 718.5,344.5 L718.5,250.5 " style="stroke:#181818;stroke-width:1.0;fill:none;"/><path d="M718.5,250.5 C718.5,260.5 775.5,260.5 775.5,260.5 C775.5,260.5 832.5,260.5 832.5,250.5 " fill="none" style="stroke:#181818;stroke-width:1.0;"/><text fill="#000000" font-family="sans-serif" font-size="14" font-weight="bold" lengthAdjust="spacing" textLength="47" x="752" y="276.4999">bucket</text></g><!--MD5=[63955b8f5af8bd25e363284f268579d0]
entity getBusinessDays--><g id="elem_getBusinessDays"><path d="M677,114 L677,162.5999 A2.5,2.5 0 0 0 679.5,165.0999 L871.5,165.0999 A2.5,2.5 0 0 0 874,162.5999 L874,121.5 L864,111.5 L679.5,111.5 A2.5,2.5 0 0 0 677,114 " fill="#F1F1F1" style="stroke:#181818;stroke-width:0.5;"/><path d="M864,111.5 L864,119 A2.5,2.5 0 0 0 866.5,121.5 L874,121.5 " fill="#F1F1F1" style="stroke:#181818;stroke-width:0.5;"/><text fill="#000000" font-family="sans-serif" font-size="14" lengthAdjust="spacing" textLength="173" x="687" y="135.4999">getBusinessDays(startDate,</text><text fill="#000000" font-family="sans-serif" font-size="14" lengthAdjust="spacing" textLength="57" x="687" y="152.2999">endDate)</text></g><!--MD5=[c8a1f054d404df0a65fc25cf7fbed36b]
entity scope--><g id="elem_scope"><polygon fill="#F1F1F1" points="734.5,301,744.5,291,816.5,291,816.5,327.7999,806.5,337.7999,734.5,337.7999,734.5,301" style="stroke:#181818;stroke-width:0.5;"/><line style="stroke:#181818;stroke-width:0.5;" x1="806.5" x2="816.5" y1="301" y2="291"/><line style="stroke:#181818;stroke-width:0.5;" x1="734.5" x2="806.5" y1="301" y2="301"/><line style="stroke:#181818;stroke-width:0.5;" x1="806.5" x2="806.5" y1="301" y2="337.7999"/><text fill="#000000" font-family="sans-serif" font-size="14" font-weight="bold" lengthAdjust="spacing" textLength="42" x="749.5" y="324.9999">scope</text></g><!--MD5=[d2ef3ebb0f476a9001ba6a631a066203]
entity n1qlUDFunction--><g id="elem_n1qlUDFunction"><rect fill="#F1F1F1" height="63.5999" rx="2.5" ry="2.5" style="stroke:#181818;stroke-width:0.5;" width="235" x="321" y="106.5"/><rect fill="#F1F1F1" height="10" style="stroke:#181818;stroke-width:0.5;" width="15" x="536" y="111.5"/><rect fill="#F1F1F1" height="2" style="stroke:#181818;stroke-width:0.5;" width="4" x="534" y="113.5"/><rect fill="#F1F1F1" height="2" style="stroke:#181818;stroke-width:0.5;" width="4" x="534" y="117.5"/><text fill="#000000" font-family="sans-serif" font-size="14" font-style="italic" lengthAdjust="spacing" textLength="195" x="336" y="140.4999">«N1QL User-Defined Function»</text><text fill="#000000" font-family="sans-serif" font-size="14" lengthAdjust="spacing" textLength="129" x="369" y="157.2999">getBusinessDays(...)</text></g><!--MD5=[8fc3522a43f8c7199df5e09e5bb0188e]
entity user--><g id="elem_user"><ellipse cx="133.5" cy="116" fill="#F1F1F1" rx="16" ry="16" style="stroke:#181818;stroke-width:1.5;"/><path d="M133.5,136 C137.5,136 140.5,136 144.5,132 C152.5,132 160.5,140 160.5,148 L160.5,152 C160.5,156 156.5,160 152.5,160 L114.5,160 C110.5,160 106.5,156 106.5,152 L106.5,148 C106.5,140 114.5,132 122.5,132 C126.5,136 129.5,136 133.5,136 " fill="#F1F1F1" style="stroke:#181818;stroke-width:1.5;"/><text fill="#000000" font-family="sans-serif" font-size="14" lengthAdjust="spacing" textLength="27" x="120" y="175.4999">user</text></g><g id="elem_GMN1117132"><path d="M6,6 L6,62.8 A0,0 0 0 0 6,62.8 L130,62.8 L134,98.22 L138,62.8 L261,62.8 A0,0 0 0 0 261,62.8 L261,16 L251,6 L6,6 A0,0 0 0 0 6,6 " fill="#FFFFF0" style="stroke:#181818;stroke-width:0.5;"/><path d="M251,6 L251,16 L261,16 L251,6 " fill="#FFFFF0" style="stroke:#181818;stroke-width:0.5;"/><text fill="#000000" font-family="sans-serif" font-size="13" lengthAdjust="spacing" textLength="234" x="12" y="24">can access the getBusinessDays function</text><text fill="#000000" font-family="sans-serif" font-size="13" lengthAdjust="spacing" textLength="142" x="12" y="39.6">as long as s/he is working</text><text fill="#000000" font-family="sans-serif" font-size="13" lengthAdjust="spacing" textLength="61" x="12" y="55.2">inside the "</text><text fill="#000000" font-family="sans-serif" font-size="13" font-weight="bold" lengthAdjust="spacing" textLength="83" x="73" y="55.2">bucket.scope</text><text fill="#000000" font-family="sans-serif" font-size="13" lengthAdjust="spacing" textLength="49" x="156" y="55.2">" context</text></g><!--MD5=[f99f17aee1b83d3c2ab474d1f7da2a89]
link n1qlUDFunction to getBusinessDays--><g id="link_n1qlUDFunction_getBusinessDays"><path codeLine="18" d="M556.37,138.5 C556.37,138.5 671.96,138.5 671.96,138.5 " fill="none" id="n1qlUDFunction-to-getBusinessDays" style="stroke:#181818;stroke-width:1.0;"/><polygon fill="#181818" points="676.96,138.5,667.96,134.5,671.96,138.5,667.96,142.5,676.96,138.5" style="stroke:#181818;stroke-width:1.0;"/></g><!--MD5=[eae8df7cf474f7b3224e735e08fb50ba]
reverse link scope to MyLibrary--><g id="link_scope_MyLibrary"><path codeLine="28" d="M776,285.88 C776,285.88 776,264.575 776,243.27 C776,232.6175 776,221.965 776,213.9756 C776,211.9783 776,210.1474 776,208.5245 " fill="none" id="scope-backto-MyLibrary" style="stroke:#181818;stroke-width:1.0;stroke-dasharray:7.0,7.0;"/><polygon fill="#181818" points="776,290.88,780,281.88,776,285.88,772,281.88,776,290.88" style="stroke:#181818;stroke-width:1.0;"/></g><!--MD5=[226fddc1abbda551b24789e9440fd7ef]
link user to n1qlUDFunction--><g id="link_user_n1qlUDFunction"><path codeLine="32" d="M162.19,138.5 C162.19,138.5 315.74,138.5 315.74,138.5 " fill="none" id="user-to-n1qlUDFunction" style="stroke:#181818;stroke-width:1.0;"/><polygon fill="#181818" points="320.74,138.5,311.7515,134.4743,315.74,138.4857,311.7286,142.4743,320.74,138.5" style="stroke:#181818;stroke-width:1.0;"/></g><!--MD5=[bbc0731f178c1e1e6f5cab21a6c201c5]
@startuml
allow_mixing

left to right direction
skinparam actorStyle Awesome
skinparam linetype polyline
skinparam linetype ortho

component "getBusinessDays(...)" <<N1QL User-Defined Function>> as n1qlUDFunction

  frame "my-library" as MyLibrary {

   file "getBusinessDays(startDate, \nendDate)" as getBusinessDays

  }



n1qlUDFunction - - -> getBusinessDays
actor "user" as user



database "bucket" as bucket {
  node "**scope**" as scope
}


scope <...r.... MyLibrary



user - -> n1qlUDFunction

note top of user #Ivory
  can access the getBusinessDays function
  as long as s/he is working
  inside the "**bucket.scope**" context
end note
@enduml

PlantUML version 1.2022.5(Sat Apr 30 10:55:52 GMT 2022)
(GPL source distribution)
Java Runtime: OpenJDK Runtime Environment
JVM: OpenJDK 64-Bit Server VM
Default Encoding: UTF-8
Language: en
Country: US
--></g></svg>