<?xml version="1.0" encoding="UTF-8" standalone="no"?><svg xmlns="http://www.w3.org/2000/svg" xmlns:xlink="http://www.w3.org/1999/xlink" contentStyleType="text/css" height="235px" preserveAspectRatio="none" style="width:669px;height:235px;background:#FFFFFF;" version="1.1" viewBox="0 0 669 235" width="669px" zoomAndPan="magnify"><defs/><g><!--MD5=[0c6c56afe89fba3f46d2be371783d5a6]
cluster Index\nService--><g id="cluster_Index\nService"><rect height="105" rx="2.5" ry="2.5" style="stroke:#181818;stroke-width:1.0;fill:none;" width="122" x="42" y="7"/><text fill="#000000" font-family="sans-serif" font-size="14" font-weight="bold" lengthAdjust="spacing" textLength="38" x="84" y="22.9999">Index</text><text fill="#000000" font-family="sans-serif" font-size="14" font-weight="bold" lengthAdjust="spacing" textLength="51" x="77.5" y="39.7999">Service</text></g><!--MD5=[7e65e753e7f4885ff7567f7618ef3bdb]
cluster Query\nService--><g id="cluster_Query\nService"><rect height="105" rx="2.5" ry="2.5" style="stroke:#181818;stroke-width:1.0;fill:none;" width="439" x="188" y="7"/><text fill="#000000" font-family="sans-serif" font-size="14" font-weight="bold" lengthAdjust="spacing" textLength="41" x="387" y="22.9999">Query</text><text fill="#000000" font-family="sans-serif" font-size="14" font-weight="bold" lengthAdjust="spacing" textLength="51" x="382" y="39.7999">Service</text></g><!--MD5=[b56d82cc628557b1acc6c002153fa3f7]
entity IndexScan--><g id="elem_IndexScan"><rect fill="#F1F1F1" height="36.7999" rx="2.5" ry="2.5" style="stroke:#181818;stroke-width:0.5;" width="90" x="58" y="59"/><text fill="#000000" font-family="sans-serif" font-size="14" lengthAdjust="spacing" textLength="70" x="68" y="82.9999">Index Scan</text></g><!--MD5=[1bb669a7cce09e263741a8133c219385]
entity Fetch--><g id="elem_Fetch"><rect fill="#F1F1F1" height="36.7999" rx="2.5" ry="2.5" style="stroke:#181818;stroke-width:0.5;" width="54" x="557" y="59"/><text fill="#000000" font-family="sans-serif" font-size="14" lengthAdjust="spacing" textLength="34" x="567" y="82.9999">Fetch</text></g><!--MD5=[d04648e85a9b10e4576b2636e86a7d55]
entity Filter--><g id="elem_Filter"><rect fill="#F1F1F1" height="36.7999" rx="2.5" ry="2.5" style="stroke:#181818;stroke-width:0.5;" width="50" x="204" y="59"/><text fill="#000000" font-family="sans-serif" font-size="14" lengthAdjust="spacing" textLength="30" x="214" y="82.9999">Filter</text></g><!--MD5=[ff70e4322b05e68cf66d2ff13f5b48e6]
entity Order--><g id="elem_Order"><rect fill="#F1F1F1" height="36.7999" rx="2.5" ry="2.5" style="stroke:#181818;stroke-width:0.5;" width="56" x="289" y="59"/><text fill="#000000" font-family="sans-serif" font-size="14" lengthAdjust="spacing" textLength="36" x="299" y="82.9999">Order</text></g><!--MD5=[ba3e2b2dca857ef37695f5c4c4439b77]
entity Offset--><g id="elem_Offset"><rect fill="#F1F1F1" height="36.7999" rx="2.5" ry="2.5" style="stroke:#181818;stroke-width:0.5;" width="57" x="380.5" y="59"/><text fill="#000000" font-family="sans-serif" font-size="14" lengthAdjust="spacing" textLength="37" x="390.5" y="82.9999">Offset</text></g><!--MD5=[7c91c379e791bbc64b0e5662b11be0d0]
entity Limit--><g id="elem_Limit"><rect fill="#F1F1F1" height="36.7999" rx="2.5" ry="2.5" style="stroke:#181818;stroke-width:0.5;" width="49" x="472.5" y="59"/><text fill="#000000" font-family="sans-serif" font-size="14" lengthAdjust="spacing" textLength="29" x="482.5" y="82.9999">Limit</text></g><!--MD5=[c88a36799ca4d6dff2d7449eacfc25f7]
entity start--><g id="elem_start"><ellipse cx="14" cy="77.5" fill="#F1F1F1" rx="8" ry="8" style="stroke:#181818;stroke-width:0.5;"/></g><!--MD5=[22efa60cf2b4332bf8574b0c93969d71]
entity end--><g id="elem_end"><ellipse cx="655" cy="77.5" fill="#F1F1F1" rx="8" ry="8" style="stroke:#181818;stroke-width:0.5;"/></g><g id="elem_GMN6579739"><path d="M124.5,167 L124.5,208.2 A0,0 0 0 0 124.5,208.2 L333.5,208.2 A0,0 0 0 0 333.5,208.2 L333.5,177 L323.5,167 L233,167 L229,96.33 L225,167 L124.5,167 A0,0 0 0 0 124.5,167 " fill="#FEFFDD" style="stroke:#181818;stroke-width:0.5;"/><path d="M323.5,167 L323.5,177 L333.5,177 L323.5,167 " fill="#FEFFDD" style="stroke:#181818;stroke-width:0.5;"/><text fill="#000000" font-family="sans-serif" font-size="13" lengthAdjust="spacing" textLength="188" x="130.5" y="185">Early filters, order, and pagination</text><text fill="#000000" font-family="sans-serif" font-size="13" lengthAdjust="spacing" textLength="154" x="147.5" y="200.6">performed by Query service</text></g><!--MD5=[0ecd579b94b5f51ba0c6012111a3b28f]
entity Data--><g id="elem_Data"><path d="M551.5,166 C551.5,156 584,156 584,156 C584,156 616.5,156 616.5,166 L616.5,208.5999 C616.5,218.5999 584,218.5999 584,218.5999 C584,218.5999 551.5,218.5999 551.5,208.5999 L551.5,166 " fill="#F1F1F1" style="stroke:#181818;stroke-width:0.5;"/><path d="M551.5,166 C551.5,176 584,176 584,176 C584,176 616.5,176 616.5,166 " fill="none" style="stroke:#181818;stroke-width:0.5;"/><text fill="#000000" font-family="sans-serif" font-size="14" lengthAdjust="spacing" textLength="30" x="569" y="193.9999">Data</text><text fill="#000000" font-family="sans-serif" font-size="14" lengthAdjust="spacing" textLength="45" x="561.5" y="210.7999">Service</text></g><!--MD5=[9dcf1f94b7e729ba3ce9af7466d1ed88]
link start to IndexScan--><g id="link_start_IndexScan"><path d="M23.04,77.5 C32.88,77.5 42.72,77.5 52.56,77.5 " fill="none" id="start-to-IndexScan" style="stroke:#181818;stroke-width:1.0;stroke-dasharray:7.0,7.0;"/><polygon fill="#181818" points="57.71,77.5,48.71,73.5,52.71,77.5,48.71,81.5,57.71,77.5" style="stroke:#181818;stroke-width:1.0;"/></g><!--MD5=[52b46ba1547ce3b69a59d2722edbd61b]
link IndexScan to Filter--><g id="link_IndexScan_Filter"><path d="M148.28,77.5 C165.05,77.5 181.81,77.5 198.57,77.5 " fill="none" id="IndexScan-to-Filter" style="stroke:#181818;stroke-width:1.0;"/><polygon fill="#181818" points="203.78,77.5,194.78,73.5,198.78,77.5,194.78,81.5,203.78,77.5" style="stroke:#181818;stroke-width:1.0;"/></g><!--MD5=[92b6a7b0f6bdfd4b1190c36d7516077d]
link Filter to Order--><g id="link_Filter_Order"><path d="M254.09,77.5 C264,77.5 273.9,77.5 283.81,77.5 " fill="none" id="Filter-to-Order" style="stroke:#181818;stroke-width:1.0;"/><polygon fill="#181818" points="288.99,77.5,279.99,73.5,283.99,77.5,279.99,81.5,288.99,77.5" style="stroke:#181818;stroke-width:1.0;"/></g><!--MD5=[d560d6cf8d8d541f6eb8e1ba1bdccf93]
link Order to Offset--><g id="link_Order_Offset"><path d="M345.03,77.5 C354.96,77.5 364.89,77.5 374.82,77.5 " fill="none" id="Order-to-Offset" style="stroke:#181818;stroke-width:1.0;"/><polygon fill="#181818" points="380.01,77.5,371.01,73.5,375.01,77.5,371.01,81.5,380.01,77.5" style="stroke:#181818;stroke-width:1.0;"/></g><!--MD5=[56c14ee24531f019d403311447c155c8]
link Offset to Limit--><g id="link_Offset_Limit"><path d="M437.53,77.5 C447.42,77.5 457.31,77.5 467.2,77.5 " fill="none" id="Offset-to-Limit" style="stroke:#181818;stroke-width:1.0;"/><polygon fill="#181818" points="472.38,77.5,463.38,73.5,467.38,77.5,463.38,81.5,472.38,77.5" style="stroke:#181818;stroke-width:1.0;"/></g><!--MD5=[3eb6ba6f9c6d7b3d15fba39b330468bf]
link Limit to Fetch--><g id="link_Limit_Fetch"><path d="M521.81,77.5 C531.74,77.5 541.67,77.5 551.6,77.5 " fill="none" id="Limit-to-Fetch" style="stroke:#181818;stroke-width:1.0;"/><polygon fill="#181818" points="556.79,77.5,547.79,73.5,551.79,77.5,547.79,81.5,556.79,77.5" style="stroke:#181818;stroke-width:1.0;"/></g><!--MD5=[99fdd6a768fdd86becbfbf4f6634f0a8]
link Fetch to Data--><g id="link_Fetch_Data"><path d="M574.24,96.33 C571.3,111.12 570.53,132.6 571.93,150.89 " fill="none" id="Fetch-to-Data" style="stroke:#181818;stroke-width:1.0;"/><polygon fill="#181818" points="572.39,155.95,575.5757,146.6306,571.9464,150.9697,567.6072,147.3404,572.39,155.95" style="stroke:#181818;stroke-width:1.0;"/></g><!--MD5=[8c88eee373a4caddaf0bcb426e85f3cc]
reverse link Fetch to Data--><g id="link_Fetch_Data"><path d="M595.29,101.5 C597.85,117.37 598.19,138.66 596.3,155.95 " fill="none" id="Fetch-backto-Data" style="stroke:#181818;stroke-width:1.0;"/><polygon fill="#181818" points="594.33,96.33,592.0437,105.9098,595.2445,101.2457,599.9087,104.4465,594.33,96.33" style="stroke:#181818;stroke-width:1.0;"/></g><!--MD5=[42e161dc13162794568d3cd51fffde3a]
link Fetch to end--><g id="link_Fetch_end"><path d="M611.18,77.5 C620.99,77.5 630.81,77.5 640.62,77.5 " fill="none" id="Fetch-to-end" style="stroke:#181818;stroke-width:1.0;stroke-dasharray:7.0,7.0;"/><polygon fill="#181818" points="645.76,77.5,636.76,73.5,640.76,77.5,636.76,81.5,645.76,77.5" style="stroke:#181818;stroke-width:1.0;"/></g><!--MD5=[616d966940fc09a4cb16274f0f35afd4]
@startuml
skinparam defaultTextAlignment center

() " " as start
() " " as end

rectangle "Index\nService"{
  rectangle "Index Scan" as IndexScan
}

rectangle "Query\nService"{
  rectangle Fetch
  rectangle Filter
  rectangle Order
  rectangle Offset
  rectangle Limit
}

note bottom of Filter
  Early filters, order, and pagination
  performed by Query service
end note

database "Data\nService" as Data

start ..r..> IndexScan
IndexScan -> Filter
Filter -> Order
Order -> Offset
Offset -> Limit
Limit -> Fetch
Fetch - -> Data
Fetch <- - Data
Fetch ..r..> end
@enduml

PlantUML version 1.2022.5(Sat Apr 30 10:55:52 GMT 2022)
(GPL source distribution)
Java Runtime: OpenJDK Runtime Environment
JVM: OpenJDK 64-Bit Server VM
Default Encoding: UTF-8
Language: en
Country: US
--></g></svg>