<?xml version="1.0" encoding="UTF-8" standalone="no"?><svg xmlns="http://www.w3.org/2000/svg" xmlns:xlink="http://www.w3.org/1999/xlink" contentStyleType="text/css" height="320px" preserveAspectRatio="none" style="width:243px;height:320px;background:#FFFFFF;" version="1.1" viewBox="0 0 243 320" width="243px" zoomAndPan="magnify"><defs/><g><!--MD5=[e6f955026f95a25accb184d80cb741ec]
class student--><g id="elem_student"><rect codeLine="2" fill="#F1F1F1" height="98.3998" id="student" rx="2.5" ry="2.5" style="stroke:#181818;stroke-width:0.5;" width="88" x="7" y="15.5"/><ellipse cx="26.5" cy="31.5" fill="#ADD1B2" rx="11" ry="11" style="stroke:#181818;stroke-width:1.0;"/><path d="M28.6563,33.9219 Q28.6563,32.7813 29.5,32.7813 Q30.3438,32.7813 30.3438,33.9219 L30.3438,36.5 L22.3438,36.5 Q21.2188,36.5 21.2188,35.6563 Q21.2188,34.7969 22.3438,34.7969 L22.5938,34.7969 L22.5938,28.2813 L22.3438,28.2813 Q21.2188,28.2813 21.2188,27.4375 Q21.2188,26.9531 21.5,26.7813 Q21.7969,26.5938 22.3438,26.5938 L29.9688,26.5938 L29.9688,29.1406 Q29.9688,30.2813 29.125,30.2813 Q28.2813,30.2813 28.2813,29.1406 L28.2813,28.2813 L24.2969,28.2813 L24.2969,30.6875 L25.75,30.6875 L25.75,30.5625 Q25.75,29.4219 26.5781,29.4219 Q27.4219,29.4219 27.4219,30.5625 L27.4219,32.4844 Q27.4219,33.6094 26.5938,33.6094 Q25.75,33.6094 25.75,32.4844 L25.75,32.375 L24.2969,32.375 L24.2969,34.7969 L28.6563,34.7969 L28.6563,33.9219 Z " fill="#000000"/><text fill="#000000" font-family="sans-serif" font-size="14" lengthAdjust="spacing" textLength="46" x="41.5" y="37.1">student</text><line style="stroke:#181818;stroke-width:0.5;" x1="8" x2="94" y1="47.5" y2="47.5"/><ellipse cx="18" cy="58.5" fill="#000000" rx="3" ry="3" style="stroke:#000000;stroke-width:1.0;"/><text fill="#000000" font-family="sans-serif" font-size="14" lengthAdjust="spacing" textLength="62" x="27" y="65.4999">student-id</text><line style="stroke:#181818;stroke-width:1.0;" x1="8" x2="94" y1="72.2999" y2="72.2999"/><text fill="#000000" font-family="sans-serif" font-size="14" lengthAdjust="spacing" textLength="34" x="13" y="90.2999">name</text><text fill="#000000" font-family="sans-serif" font-size="14" lengthAdjust="spacing" textLength="76" x="13" y="107.0998">date-of-birth</text></g><!--MD5=[67569426bc0d5335c7e46a57db929d9b]
class course--><g id="elem_course"><rect codeLine="10" fill="#F1F1F1" height="115.1997" id="course" rx="2.5" ry="2.5" style="stroke:#181818;stroke-width:0.5;" width="106" x="130" y="7"/><ellipse cx="159.85" cy="23" fill="#ADD1B2" rx="11" ry="11" style="stroke:#181818;stroke-width:1.0;"/><path d="M162.0063,25.4219 Q162.0063,24.2813 162.85,24.2813 Q163.6938,24.2813 163.6938,25.4219 L163.6938,28 L155.6938,28 Q154.5688,28 154.5688,27.1563 Q154.5688,26.2969 155.6938,26.2969 L155.9438,26.2969 L155.9438,19.7813 L155.6938,19.7813 Q154.5688,19.7813 154.5688,18.9375 Q154.5688,18.4531 154.85,18.2813 Q155.1469,18.0938 155.6938,18.0938 L163.3188,18.0938 L163.3188,20.6406 Q163.3188,21.7813 162.475,21.7813 Q161.6313,21.7813 161.6313,20.6406 L161.6313,19.7813 L157.6469,19.7813 L157.6469,22.1875 L159.1,22.1875 L159.1,22.0625 Q159.1,20.9219 159.9281,20.9219 Q160.7719,20.9219 160.7719,22.0625 L160.7719,23.9844 Q160.7719,25.1094 159.9438,25.1094 Q159.1,25.1094 159.1,23.9844 L159.1,23.875 L157.6469,23.875 L157.6469,26.2969 L162.0063,26.2969 L162.0063,25.4219 Z " fill="#000000"/><text fill="#000000" font-family="sans-serif" font-size="14" lengthAdjust="spacing" textLength="41" x="177.15" y="28.6">course</text><line style="stroke:#181818;stroke-width:0.5;" x1="131" x2="235" y1="39" y2="39"/><ellipse cx="141" cy="50" fill="#000000" rx="3" ry="3" style="stroke:#000000;stroke-width:1.0;"/><text fill="#000000" font-family="sans-serif" font-size="14" lengthAdjust="spacing" textLength="57" x="150" y="56.9999">course-id</text><text fill="#000000" font-family="sans-serif" font-size="14" lengthAdjust="spacing" textLength="80" x="150" y="73.7999">course-name</text><text fill="#000000" font-family="sans-serif" font-size="14" lengthAdjust="spacing" textLength="41" x="150" y="90.5998">faculty</text><text fill="#000000" font-family="sans-serif" font-size="14" lengthAdjust="spacing" textLength="76" x="150" y="107.3997">credit-points</text><line style="stroke:#181818;stroke-width:0.5;" x1="131" x2="235" y1="114.1997" y2="114.1997"/></g><!--MD5=[2159d546e4fdc44af037ea78dcdad4d0]
class enrollment--><g id="elem_enrollment"><rect codeLine="17" fill="#F1F1F1" height="131.9996" id="enrollment" rx="2.5" ry="2.5" style="stroke:#181818;stroke-width:0.5;" width="120" x="57" y="182"/><ellipse cx="83.25" cy="198" fill="#ADD1B2" rx="11" ry="11" style="stroke:#181818;stroke-width:1.0;"/><path d="M85.4063,200.4219 Q85.4063,199.2813 86.25,199.2813 Q87.0938,199.2813 87.0938,200.4219 L87.0938,203 L79.0938,203 Q77.9688,203 77.9688,202.1563 Q77.9688,201.2969 79.0938,201.2969 L79.3438,201.2969 L79.3438,194.7813 L79.0938,194.7813 Q77.9688,194.7813 77.9688,193.9375 Q77.9688,193.4531 78.25,193.2813 Q78.5469,193.0938 79.0938,193.0938 L86.7188,193.0938 L86.7188,195.6406 Q86.7188,196.7813 85.875,196.7813 Q85.0313,196.7813 85.0313,195.6406 L85.0313,194.7813 L81.0469,194.7813 L81.0469,197.1875 L82.5,197.1875 L82.5,197.0625 Q82.5,195.9219 83.3281,195.9219 Q84.1719,195.9219 84.1719,197.0625 L84.1719,198.9844 Q84.1719,200.1094 83.3438,200.1094 Q82.5,200.1094 82.5,198.9844 L82.5,198.875 L81.0469,198.875 L81.0469,201.2969 L85.4063,201.2969 L85.4063,200.4219 Z " fill="#000000"/><text fill="#000000" font-family="sans-serif" font-size="14" lengthAdjust="spacing" textLength="63" x="99.75" y="203.6">enrollment</text><line style="stroke:#181818;stroke-width:0.5;" x1="58" x2="176" y1="214" y2="214"/><text fill="#000000" font-family="sans-serif" font-size="14" lengthAdjust="spacing" textLength="4" x="77" y="231.9999"> </text><ellipse cx="68" cy="241.7999" fill="#000000" rx="3" ry="3" style="stroke:#000000;stroke-width:1.0;"/><text fill="#000000" font-family="sans-serif" font-size="14" lengthAdjust="spacing" textLength="62" x="77" y="248.7999">student-id</text><ellipse cx="68" cy="258.5999" fill="#000000" rx="3" ry="3" style="stroke:#000000;stroke-width:1.0;"/><text fill="#000000" font-family="sans-serif" font-size="14" lengthAdjust="spacing" textLength="57" x="77" y="265.5998">course-id</text><line style="stroke:#181818;stroke-width:1.0;" x1="58" x2="176" y1="272.3998" y2="272.3998"/><ellipse cx="68" cy="283.3998" fill="#000000" rx="3" ry="3" style="stroke:#000000;stroke-width:1.0;"/><text fill="#000000" font-family="sans-serif" font-size="14" lengthAdjust="spacing" textLength="80" x="77" y="290.3997">date-enrolled</text><text fill="#000000" font-family="sans-serif" font-size="14" lengthAdjust="spacing" textLength="94" x="77" y="307.1996">date-completed</text></g><!--MD5=[41abdb7229b8622b2ba36a1871a4ace5]
link student to enrollment--><g id="link_student_enrollment"><path codeLine="27" d="M76,113.67 C76,113.67 76,173.78 76,173.78 " fill="none" id="student-to-enrollment" style="stroke:#181818;stroke-width:1.0;"/><line style="stroke:#181818;stroke-width:1.0;" x1="76" x2="82" y1="173.78" y2="181.78"/><line style="stroke:#181818;stroke-width:1.0;" x1="76" x2="70" y1="173.78" y2="181.78"/><line style="stroke:#181818;stroke-width:1.0;" x1="76" x2="76" y1="173.78" y2="181.78"/><ellipse cx="76" cy="167.78" fill="none" rx="4" ry="4" style="stroke:#181818;stroke-width:1.0;"/></g><!--MD5=[1b3e54de257a8e5f2a1ba1595a13bf3a]
link course to enrollment--><g id="link_course_enrollment"><path codeLine="28" d="M153.5,122.06 C153.5,122.06 153.5,173.68 153.5,173.68 " fill="none" id="course-to-enrollment" style="stroke:#181818;stroke-width:1.0;"/><line style="stroke:#181818;stroke-width:1.0;" x1="153.5" x2="159.5" y1="173.68" y2="181.68"/><line style="stroke:#181818;stroke-width:1.0;" x1="153.5" x2="147.5" y1="173.68" y2="181.68"/><line style="stroke:#181818;stroke-width:1.0;" x1="153.5" x2="153.5" y1="173.68" y2="181.68"/><ellipse cx="153.5" cy="167.68" fill="none" rx="4" ry="4" style="stroke:#181818;stroke-width:1.0;"/></g><!--MD5=[1e133678fc9748c5abef23587c9640f2]
@startuml
skinparam linetype ortho
entity student {
  * student-id
- -
    name
    date-of-birth
}


entity course {
  * course-id
    course-name
    faculty
    credit-points
}

entity enrollment {

    * student-id
    * course-id
- -
    * date-enrolled
      date-completed
}


student - -o{ enrollment
course - -o{ enrollment
@enduml

PlantUML version 1.2022.5(Sat Apr 30 10:55:52 GMT 2022)
(GPL source distribution)
Java Runtime: OpenJDK Runtime Environment
JVM: OpenJDK 64-Bit Server VM
Default Encoding: UTF-8
Language: en
Country: US
--></g></svg>