<?xml version="1.0" encoding="us-ascii" standalone="no"?><svg xmlns="http://www.w3.org/2000/svg" xmlns:xlink="http://www.w3.org/1999/xlink" contentStyleType="text/css" height="375px" preserveAspectRatio="none" style="width:1159px;height:375px;background:#FFFFFF;" version="1.1" viewBox="0 0 1159 375" width="1159px" zoomAndPan="magnify"><defs/><g><!--cluster Query Service--><g id="cluster_Query Service"><rect fill="none" height="185.08" rx="2.5" ry="2.5" style="stroke:#181818;stroke-width:1.0;" width="1146" x="7" y="68.3"/><text fill="#000000" font-family="sans-serif" font-size="14" font-weight="bold" lengthAdjust="spacing" textLength="112" x="524" y="83.2951">Query Service</text></g><!--entity Parse--><g id="elem_Parse"><rect fill="#F1F1F1" height="134.0781" rx="2.5" ry="2.5" style="stroke:#181818;stroke-width:0.5;" width="59" x="22.5" y="103.3"/><text fill="#000000" font-family="sans-serif" font-size="14" lengthAdjust="spacing" textLength="39" x="32.5" y="126.2951">Parse</text><text fill="#000000" font-family="sans-serif" font-size="14" lengthAdjust="spacing" textLength="4" x="50" y="142.592">&#160;</text><text fill="#000000" font-family="sans-serif" font-size="14" lengthAdjust="spacing" textLength="4" x="50" y="158.8889">&#160;</text><text fill="#000000" font-family="sans-serif" font-size="14" lengthAdjust="spacing" textLength="13" x="45.5" y="175.1857">&#9634;</text><text fill="#000000" font-family="sans-serif" font-size="14" lengthAdjust="spacing" textLength="4" x="50" y="191.4826">&#160;</text><text fill="#000000" font-family="sans-serif" font-size="14" lengthAdjust="spacing" textLength="4" x="50" y="207.7795">&#160;</text><text fill="#000000" font-family="sans-serif" font-size="14" lengthAdjust="spacing" textLength="4" x="50" y="224.0764">&#160;</text></g><!--entity Plan--><g id="elem_Plan"><rect fill="#F1F1F1" height="134.0781" rx="2.5" ry="2.5" style="stroke:#181818;stroke-width:0.5;" width="49" x="116.5" y="103.3"/><text fill="#000000" font-family="sans-serif" font-size="14" lengthAdjust="spacing" textLength="29" x="126.5" y="126.2951">Plan</text><text fill="#000000" font-family="sans-serif" font-size="14" lengthAdjust="spacing" textLength="4" x="139" y="142.592">&#160;</text><text fill="#000000" font-family="sans-serif" font-size="14" lengthAdjust="spacing" textLength="4" x="139" y="158.8889">&#160;</text><text fill="#000000" font-family="sans-serif" font-size="14" lengthAdjust="spacing" textLength="13" x="134.5" y="175.1857">&#9634;</text><text fill="#000000" font-family="sans-serif" font-size="14" lengthAdjust="spacing" textLength="4" x="139" y="191.4826">&#160;</text><text fill="#000000" font-family="sans-serif" font-size="14" lengthAdjust="spacing" textLength="4" x="139" y="207.7795">&#160;</text><text fill="#000000" font-family="sans-serif" font-size="14" lengthAdjust="spacing" textLength="4" x="139" y="224.0764">&#160;</text></g><!--entity Scan--><g id="elem_Scan"><rect fill="#F1F1F1" height="134.0781" rx="2.5" ry="2.5" style="stroke:#181818;stroke-width:0.5;" width="54" x="201" y="103.3"/><text fill="#000000" font-family="sans-serif" font-size="14" lengthAdjust="spacing" textLength="34" x="211" y="126.2951">Scan</text><text fill="#000000" font-family="sans-serif" font-size="14" lengthAdjust="spacing" textLength="4" x="226" y="142.592">&#160;</text><text fill="#000000" font-family="sans-serif" font-size="14" lengthAdjust="spacing" textLength="4" x="226" y="158.8889">&#160;</text><text fill="#000000" font-family="sans-serif" font-size="14" lengthAdjust="spacing" textLength="13" x="221.5" y="175.1857">&#9634;</text><text fill="#000000" font-family="sans-serif" font-size="14" lengthAdjust="spacing" textLength="4" x="226" y="191.4826">&#160;</text><text fill="#000000" font-family="sans-serif" font-size="14" lengthAdjust="spacing" textLength="13" x="221.5" y="207.7795">&#9634;</text><text fill="#000000" font-family="sans-serif" font-size="14" lengthAdjust="spacing" textLength="4" x="226" y="224.0764">&#160;</text></g><!--entity Fetch--><g id="elem_Fetch"><rect fill="#F1F1F1" height="134.0781" rx="2.5" ry="2.5" style="stroke:#181818;stroke-width:0.5;" width="59" x="289.5" y="103.3"/><text fill="#000000" font-family="sans-serif" font-size="14" lengthAdjust="spacing" textLength="39" x="299.5" y="126.2951">Fetch</text><text fill="#000000" font-family="sans-serif" font-size="14" lengthAdjust="spacing" textLength="4" x="317" y="142.592">&#160;</text><text fill="#000000" font-family="sans-serif" font-size="14" lengthAdjust="spacing" textLength="4" x="317" y="158.8889">&#160;</text><text fill="#000000" font-family="sans-serif" font-size="14" lengthAdjust="spacing" textLength="13" x="312.5" y="175.1857">&#9634;</text><text fill="#000000" font-family="sans-serif" font-size="14" lengthAdjust="spacing" textLength="13" x="312.5" y="191.4826">&#9634;</text><text fill="#000000" font-family="sans-serif" font-size="14" lengthAdjust="spacing" textLength="13" x="312.5" y="207.7795">&#9634;</text><text fill="#000000" font-family="sans-serif" font-size="14" lengthAdjust="spacing" textLength="13" x="312.5" y="224.0764">&#9634;</text></g><!--entity Join--><g id="elem_Join"><rect fill="#F1F1F1" height="134.0781" rx="2.5" ry="2.5" style="stroke:#181818;stroke-width:0.5;" width="44" x="383" y="103.3"/><text fill="#000000" font-family="sans-serif" font-size="14" lengthAdjust="spacing" textLength="24" x="393" y="126.2951">Join</text><text fill="#000000" font-family="sans-serif" font-size="14" lengthAdjust="spacing" textLength="4" x="403" y="142.592">&#160;</text><text fill="#000000" font-family="sans-serif" font-size="14" lengthAdjust="spacing" textLength="4" x="403" y="158.8889">&#160;</text><text fill="#000000" font-family="sans-serif" font-size="14" lengthAdjust="spacing" textLength="13" x="398.5" y="175.1857">&#9634;</text><text fill="#000000" font-family="sans-serif" font-size="14" lengthAdjust="spacing" textLength="13" x="398.5" y="191.4826">&#9634;</text><text fill="#000000" font-family="sans-serif" font-size="14" lengthAdjust="spacing" textLength="13" x="398.5" y="207.7795">&#9634;</text><text fill="#000000" font-family="sans-serif" font-size="14" lengthAdjust="spacing" textLength="13" x="398.5" y="224.0764">&#9634;</text></g><!--entity Filter--><g id="elem_Filter"><rect fill="#F1F1F1" height="134.0781" rx="2.5" ry="2.5" style="stroke:#181818;stroke-width:0.5;" width="53" x="461.5" y="103.3"/><text fill="#000000" font-family="sans-serif" font-size="14" lengthAdjust="spacing" textLength="33" x="471.5" y="126.2951">Filter</text><text fill="#000000" font-family="sans-serif" font-size="14" lengthAdjust="spacing" textLength="4" x="486" y="142.592">&#160;</text><text fill="#000000" font-family="sans-serif" font-size="14" lengthAdjust="spacing" textLength="4" x="486" y="158.8889">&#160;</text><text fill="#000000" font-family="sans-serif" font-size="14" lengthAdjust="spacing" textLength="13" x="481.5" y="175.1857">&#9634;</text><text fill="#000000" font-family="sans-serif" font-size="14" lengthAdjust="spacing" textLength="13" x="481.5" y="191.4826">&#9634;</text><text fill="#000000" font-family="sans-serif" font-size="14" lengthAdjust="spacing" textLength="13" x="481.5" y="207.7795">&#9634;</text><text fill="#000000" font-family="sans-serif" font-size="14" lengthAdjust="spacing" textLength="13" x="481.5" y="224.0764">&#9634;</text></g><!--entity PreAggregate--><g id="elem_PreAggregate"><rect fill="#F1F1F1" height="134.0781" rx="2.5" ry="2.5" style="stroke:#181818;stroke-width:0.5;" width="92" x="550" y="103.3"/><text fill="#000000" font-family="sans-serif" font-size="14" lengthAdjust="spacing" textLength="28" x="582" y="126.2951">Pre-</text><text fill="#000000" font-family="sans-serif" font-size="14" lengthAdjust="spacing" textLength="72" x="560" y="142.592">Aggregate</text><text fill="#000000" font-family="sans-serif" font-size="14" lengthAdjust="spacing" textLength="4" x="594" y="158.8889">&#160;</text><text fill="#000000" font-family="sans-serif" font-size="14" lengthAdjust="spacing" textLength="13" x="589.5" y="175.1857">&#9634;</text><text fill="#000000" font-family="sans-serif" font-size="14" lengthAdjust="spacing" textLength="13" x="589.5" y="191.4826">&#9634;</text><text fill="#000000" font-family="sans-serif" font-size="14" lengthAdjust="spacing" textLength="13" x="589.5" y="207.7795">&#9634;</text><text fill="#000000" font-family="sans-serif" font-size="14" lengthAdjust="spacing" textLength="13" x="589.5" y="224.0764">&#9634;</text></g><!--entity Aggregate--><g id="elem_Aggregate"><rect fill="#F1F1F1" height="134.0781" rx="2.5" ry="2.5" style="stroke:#181818;stroke-width:0.5;" width="92" x="677" y="103.3"/><text fill="#000000" font-family="sans-serif" font-size="14" lengthAdjust="spacing" textLength="72" x="687" y="126.2951">Aggregate</text><text fill="#000000" font-family="sans-serif" font-size="14" lengthAdjust="spacing" textLength="4" x="721" y="142.592">&#160;</text><text fill="#000000" font-family="sans-serif" font-size="14" lengthAdjust="spacing" textLength="4" x="721" y="158.8889">&#160;</text><text fill="#000000" font-family="sans-serif" font-size="14" lengthAdjust="spacing" textLength="13" x="716.5" y="175.1857">&#9634;</text><text fill="#000000" font-family="sans-serif" font-size="14" lengthAdjust="spacing" textLength="4" x="721" y="191.4826">&#160;</text><text fill="#000000" font-family="sans-serif" font-size="14" lengthAdjust="spacing" textLength="4" x="721" y="207.7795">&#160;</text><text fill="#000000" font-family="sans-serif" font-size="14" lengthAdjust="spacing" textLength="4" x="721" y="224.0764">&#160;</text></g><!--entity Sort--><g id="elem_Sort"><rect fill="#F1F1F1" height="134.0781" rx="2.5" ry="2.5" style="stroke:#181818;stroke-width:0.5;" width="48" x="804" y="103.3"/><text fill="#000000" font-family="sans-serif" font-size="14" lengthAdjust="spacing" textLength="28" x="814" y="126.2951">Sort</text><text fill="#000000" font-family="sans-serif" font-size="14" lengthAdjust="spacing" textLength="4" x="826" y="142.592">&#160;</text><text fill="#000000" font-family="sans-serif" font-size="14" lengthAdjust="spacing" textLength="4" x="826" y="158.8889">&#160;</text><text fill="#000000" font-family="sans-serif" font-size="14" lengthAdjust="spacing" textLength="13" x="821.5" y="175.1857">&#9634;</text><text fill="#000000" font-family="sans-serif" font-size="14" lengthAdjust="spacing" textLength="13" x="821.5" y="191.4826">&#9634;</text><text fill="#000000" font-family="sans-serif" font-size="14" lengthAdjust="spacing" textLength="13" x="821.5" y="207.7795">&#9634;</text><text fill="#000000" font-family="sans-serif" font-size="14" lengthAdjust="spacing" textLength="13" x="821.5" y="224.0764">&#9634;</text></g><!--entity Offset--><g id="elem_Offset"><rect fill="#F1F1F1" height="134.0781" rx="2.5" ry="2.5" style="stroke:#181818;stroke-width:0.5;" width="61" x="887.5" y="103.3"/><text fill="#000000" font-family="sans-serif" font-size="14" lengthAdjust="spacing" textLength="41" x="897.5" y="126.2951">Offset</text><text fill="#000000" font-family="sans-serif" font-size="14" lengthAdjust="spacing" textLength="4" x="916" y="142.592">&#160;</text><text fill="#000000" font-family="sans-serif" font-size="14" lengthAdjust="spacing" textLength="4" x="916" y="158.8889">&#160;</text><text fill="#000000" font-family="sans-serif" font-size="14" lengthAdjust="spacing" textLength="13" x="911.5" y="175.1857">&#9634;</text><text fill="#000000" font-family="sans-serif" font-size="14" lengthAdjust="spacing" textLength="4" x="916" y="191.4826">&#160;</text><text fill="#000000" font-family="sans-serif" font-size="14" lengthAdjust="spacing" textLength="4" x="916" y="207.7795">&#160;</text><text fill="#000000" font-family="sans-serif" font-size="14" lengthAdjust="spacing" textLength="4" x="916" y="224.0764">&#160;</text></g><!--entity Limit--><g id="elem_Limit"><rect fill="#F1F1F1" height="134.0781" rx="2.5" ry="2.5" style="stroke:#181818;stroke-width:0.5;" width="51" x="983.5" y="103.3"/><text fill="#000000" font-family="sans-serif" font-size="14" lengthAdjust="spacing" textLength="31" x="993.5" y="126.2951">Limit</text><text fill="#000000" font-family="sans-serif" font-size="14" lengthAdjust="spacing" textLength="4" x="1007" y="142.592">&#160;</text><text fill="#000000" font-family="sans-serif" font-size="14" lengthAdjust="spacing" textLength="4" x="1007" y="158.8889">&#160;</text><text fill="#000000" font-family="sans-serif" font-size="14" lengthAdjust="spacing" textLength="13" x="1002.5" y="175.1857">&#9634;</text><text fill="#000000" font-family="sans-serif" font-size="14" lengthAdjust="spacing" textLength="4" x="1007" y="191.4826">&#160;</text><text fill="#000000" font-family="sans-serif" font-size="14" lengthAdjust="spacing" textLength="4" x="1007" y="207.7795">&#160;</text><text fill="#000000" font-family="sans-serif" font-size="14" lengthAdjust="spacing" textLength="4" x="1007" y="224.0764">&#160;</text></g><!--entity Project--><g id="elem_Project"><rect fill="#F1F1F1" height="134.0781" rx="2.5" ry="2.5" style="stroke:#181818;stroke-width:0.5;" width="68" x="1069" y="103.3"/><text fill="#000000" font-family="sans-serif" font-size="14" lengthAdjust="spacing" textLength="48" x="1079" y="126.2951">Project</text><text fill="#000000" font-family="sans-serif" font-size="14" lengthAdjust="spacing" textLength="4" x="1101" y="142.592">&#160;</text><text fill="#000000" font-family="sans-serif" font-size="14" lengthAdjust="spacing" textLength="4" x="1101" y="158.8889">&#160;</text><text fill="#000000" font-family="sans-serif" font-size="14" lengthAdjust="spacing" textLength="13" x="1096.5" y="175.1857">&#9634;</text><text fill="#000000" font-family="sans-serif" font-size="14" lengthAdjust="spacing" textLength="13" x="1096.5" y="191.4826">&#9634;</text><text fill="#000000" font-family="sans-serif" font-size="14" lengthAdjust="spacing" textLength="13" x="1096.5" y="207.7795">&#9634;</text><text fill="#000000" font-family="sans-serif" font-size="14" lengthAdjust="spacing" textLength="13" x="1096.5" y="224.0764">&#9634;</text></g><!--entity Client--><g id="elem_Client"><rect fill="#F1F1F1" height="36.2969" rx="2.5" ry="2.5" style="stroke:#181818;stroke-width:0.5;" width="59" x="22.5" y="7"/><text fill="#000000" font-family="sans-serif" font-size="14" lengthAdjust="spacing" textLength="39" x="32.5" y="29.9951">Client</text></g><!--entity Data--><g id="elem_Data"><path d="M352,307.38 C352,297.38 387,297.38 387,297.38 C387,297.38 422,297.38 422,307.38 L422,348.9738 C422,358.9738 387,358.9738 387,358.9738 C387,358.9738 352,358.9738 352,348.9738 L352,307.38 " fill="#F1F1F1" style="stroke:#181818;stroke-width:0.5;"/><path d="M352,307.38 C352,317.38 387,317.38 387,317.38 C387,317.38 422,317.38 422,307.38 " fill="none" style="stroke:#181818;stroke-width:0.5;"/><text fill="#000000" font-family="sans-serif" font-size="14" lengthAdjust="spacing" textLength="32" x="371" y="334.3751">Data</text><text fill="#000000" font-family="sans-serif" font-size="14" lengthAdjust="spacing" textLength="50" x="362" y="350.672">Service</text></g><!--entity Index--><g id="elem_Index"><path d="M211,307.38 C211,297.38 246,297.38 246,297.38 C246,297.38 281,297.38 281,307.38 L281,348.9738 C281,358.9738 246,358.9738 246,358.9738 C246,358.9738 211,358.9738 211,348.9738 L211,307.38 " fill="#F1F1F1" style="stroke:#181818;stroke-width:0.5;"/><path d="M211,307.38 C211,317.38 246,317.38 246,317.38 C246,317.38 281,317.38 281,307.38 " fill="none" style="stroke:#181818;stroke-width:0.5;"/><text fill="#000000" font-family="sans-serif" font-size="14" lengthAdjust="spacing" textLength="37" x="227.5" y="334.3751">Index</text><text fill="#000000" font-family="sans-serif" font-size="14" lengthAdjust="spacing" textLength="50" x="221" y="350.672">Service</text></g><!--entity Search--><g id="elem_Search"><path d="M106,307.38 C106,297.38 141,297.38 141,297.38 C141,297.38 176,297.38 176,307.38 L176,348.9738 C176,358.9738 141,358.9738 141,358.9738 C141,358.9738 106,358.9738 106,348.9738 L106,307.38 " fill="#F1F1F1" style="stroke:#181818;stroke-width:0.5;"/><path d="M106,307.38 C106,317.38 141,317.38 141,317.38 C141,317.38 176,317.38 176,307.38 " fill="none" style="stroke:#181818;stroke-width:0.5;"/><text fill="#000000" font-family="sans-serif" font-size="14" lengthAdjust="spacing" textLength="48" x="117" y="334.3751">Search</text><text fill="#000000" font-family="sans-serif" font-size="14" lengthAdjust="spacing" textLength="50" x="116" y="350.672">Service</text></g><!--entity End--><g id="elem_End"><ellipse cx="1103" cy="25.15" fill="#F1F1F1" rx="8" ry="8" style="stroke:#181818;stroke-width:0.5;"/></g><!--link Client to Parse--><g id="link_Client_Parse"><path d="M52,43.71 C52,57.3 52,77.11 52,96.99 " fill="none" id="Client-to-Parse" style="stroke:#181818;stroke-width:1.0;stroke-dasharray:7.0,7.0;"/><polygon fill="#181818" points="52,101.88,56,92.88,52,96.88,48,92.88,52,101.88" style="stroke:#181818;stroke-width:1.0;"/></g><!--link Parse to Plan--><g id="link_Parse_Plan"><path d="M81.9,170.34 C91.33,170.34 100.76,170.34 110.19,170.34 " fill="none" id="Parse-to-Plan" style="stroke:#181818;stroke-width:1.0;"/><polygon fill="#181818" points="115.07,170.34,106.07,166.34,110.07,170.34,106.07,174.34,115.07,170.34" style="stroke:#181818;stroke-width:1.0;"/></g><!--link Plan to Scan--><g id="link_Plan_Scan"><path d="M165.81,170.34 C175.56,170.34 185.3,170.34 195.05,170.34 " fill="none" id="Plan-to-Scan" style="stroke:#181818;stroke-width:1.0;"/><polygon fill="#181818" points="199.79,170.34,190.79,166.34,194.79,170.34,190.79,174.34,199.79,170.34" style="stroke:#181818;stroke-width:1.0;"/></g><!--link Scan to Fetch--><g id="link_Scan_Fetch"><path d="M255.37,170.34 C264.7,170.34 274.03,170.34 283.36,170.34 " fill="none" id="Scan-to-Fetch" style="stroke:#181818;stroke-width:1.0;"/><polygon fill="#181818" points="288.17,170.34,279.17,166.34,283.17,170.34,279.17,174.34,288.17,170.34" style="stroke:#181818;stroke-width:1.0;"/></g><!--link Fetch to Join--><g id="link_Fetch_Join"><path d="M348.9,170.34 C358.21,170.34 367.53,170.34 376.85,170.34 " fill="none" id="Fetch-to-Join" style="stroke:#181818;stroke-width:1.0;"/><polygon fill="#181818" points="381.65,170.34,372.65,166.34,376.65,170.34,372.65,174.34,381.65,170.34" style="stroke:#181818;stroke-width:1.0;"/></g><!--link Join to Filter--><g id="link_Join_Filter"><path d="M427.37,170.34 C436.65,170.34 445.94,170.34 455.22,170.34 " fill="none" id="Join-to-Filter" style="stroke:#181818;stroke-width:1.0;"/><polygon fill="#181818" points="460,170.34,451,166.34,455,170.34,451,174.34,460,170.34" style="stroke:#181818;stroke-width:1.0;"/></g><!--link Filter to PreAggregate--><g id="link_Filter_PreAggregate"><path d="M514.58,170.34 C524.33,170.34 534.08,170.34 543.82,170.34 " fill="none" id="Filter-to-PreAggregate" style="stroke:#181818;stroke-width:1.0;"/><polygon fill="#181818" points="548.56,170.34,539.56,166.34,543.56,170.34,539.56,174.34,548.56,170.34" style="stroke:#181818;stroke-width:1.0;"/></g><!--link PreAggregate to Aggregate--><g id="link_PreAggregate_Aggregate"><path d="M642.14,170.34 C651.64,170.34 661.14,170.34 670.65,170.34 " fill="none" id="PreAggregate-to-Aggregate" style="stroke:#181818;stroke-width:1.0;"/><polygon fill="#181818" points="675.57,170.34,666.57,166.34,670.57,170.34,666.57,174.34,675.57,170.34" style="stroke:#181818;stroke-width:1.0;"/></g><!--link Aggregate to Sort--><g id="link_Aggregate_Sort"><path d="M769.35,170.34 C778.83,170.34 788.32,170.34 797.81,170.34 " fill="none" id="Aggregate-to-Sort" style="stroke:#181818;stroke-width:1.0;"/><polygon fill="#181818" points="802.71,170.34,793.71,166.34,797.71,170.34,793.71,174.34,802.71,170.34" style="stroke:#181818;stroke-width:1.0;"/></g><!--link Sort to Offset--><g id="link_Sort_Offset"><path d="M852.26,170.34 C861.99,170.34 871.72,170.34 881.45,170.34 " fill="none" id="Sort-to-Offset" style="stroke:#181818;stroke-width:1.0;"/><polygon fill="#181818" points="886.18,170.34,877.18,166.34,881.18,170.34,877.18,174.34,886.18,170.34" style="stroke:#181818;stroke-width:1.0;"/></g><!--link Offset to Limit--><g id="link_Offset_Limit"><path d="M948.93,170.34 C958.38,170.34 967.84,170.34 977.3,170.34 " fill="none" id="Offset-to-Limit" style="stroke:#181818;stroke-width:1.0;"/><polygon fill="#181818" points="982.19,170.34,973.19,166.34,977.19,170.34,973.19,174.34,982.19,170.34" style="stroke:#181818;stroke-width:1.0;"/></g><!--link Limit to Project--><g id="link_Limit_Project"><path d="M1034.7,170.34 C1044.06,170.34 1053.41,170.34 1062.76,170.34 " fill="none" id="Limit-to-Project" style="stroke:#181818;stroke-width:1.0;"/><polygon fill="#181818" points="1067.58,170.34,1058.58,166.34,1062.58,170.34,1058.58,174.34,1067.58,170.34" style="stroke:#181818;stroke-width:1.0;"/></g><!--reverse link End to Project--><g id="link_End_Project"><path d="M1103,39.52 C1103,54.26 1103,79.09 1103,103.11 " fill="none" id="End-backto-Project" style="stroke:#181818;stroke-width:1.0;stroke-dasharray:7.0,7.0;"/><polygon fill="#181818" points="1103,34.85,1099,43.85,1103,39.85,1107,43.85,1103,34.85" style="stroke:#181818;stroke-width:1.0;"/></g><!--link Scan to Index--><g id="link_Scan_Index"><path d="M235.63,237.43 C238.03,258.16 240.56,280.05 242.52,297.01 " fill="none" id="Scan-Index" style="stroke:#181818;stroke-width:1.0;stroke-dasharray:7.0,7.0;"/></g><!--link Scan to Search--><g id="link_Scan_Search"><path d="M200.57,228.49 C194.96,239.51 188.95,250.89 183,261.38 C176.25,273.28 168.29,286.04 161.12,297.11 " fill="none" id="Scan-Search" style="stroke:#181818;stroke-width:1.0;stroke-dasharray:7.0,7.0;"/></g><!--link Fetch to Data--><g id="link_Fetch_Data"><path d="M347.84,237.43 C356.89,258.16 366.44,280.05 373.84,297.01 " fill="none" id="Fetch-Data" style="stroke:#181818;stroke-width:1.0;stroke-dasharray:7.0,7.0;"/></g><!--link Join to Data--><g id="link_Join_Data"><path d="M397.37,237.43 C394.97,258.16 392.44,280.05 390.48,297.01 " fill="none" id="Join-Data" style="stroke:#181818;stroke-width:1.0;stroke-dasharray:7.0,7.0;"/></g><!--SRC=[dLF1JiCm3BtdAwAUuB1-mgG9c0H2OgZSW4DelIxGPIXDqH3YD_W0FeqlmRMJBjbWWbtIznpRTMo_zacRPsNLKbOmLrtZRc3j9eskpHACaoKUO8MmK3fbwWRaIQFH5bkowmxigop0lkWIiZSXvUPofcmByXPjah4GXBy-FWN1-zIzKIPu8zplN9I3SmzZvmYaCLDmvS874OwYVl-cEIvMElotXmTacEe6snhA8790bfc5ILrRg9KRMcnXH62u-7_QxPnHghtJM5aNfe7mWFTSpUSjX1nCjhBmiHDugPSwn17-CSmVsprSFI8PsaViZxM_2r4ffnuKRdXsYkZE1158rShU4ZcScmhMgGUP8fS2b2qNgG_RX3WwbfaaovcfX60PohpAnrvNhBJHc8L3Ga92mY2X8E65PmaWfUMbPUxlU0lzPlPfekqIoQhXvUOcCTFWQH6G-0dwgQA1HyF3eXzmiyC8yWxVGe-ZUlFSzoSmtmak7pdrbyhtv1i0]--></g></svg>