<?xml version="1.0" encoding="UTF-8" standalone="no"?><svg xmlns="http://www.w3.org/2000/svg" xmlns:xlink="http://www.w3.org/1999/xlink" contentStyleType="text/css" height="366px" preserveAspectRatio="none" style="width:989px;height:366px;background:#FFFFFF;" version="1.1" viewBox="0 0 989 366" width="989px" zoomAndPan="magnify"><defs/><g><!--cluster MyLibrary--><g id="cluster_MyLibrary"><rect fill="none" height="140" rx="2.5" ry="2.5" style="stroke:#181818;stroke-width:1.0;" width="266" x="717" y="65.5"/><path d="M806,65.5 L806,74.7969 L796,84.7969 L717,84.7969 " fill="none" style="stroke:#181818;stroke-width:1.0;"/><text fill="#000000" font-family="sans-serif" font-size="14" font-weight="bold" lengthAdjust="spacing" textLength="79" x="720" y="79.4951">my-library</text></g><!--cluster bucket--><g id="cluster_bucket"><path d="M790,247.5 C790,237.5 850,237.5 850,237.5 C850,237.5 910,237.5 910,247.5 L910,339.5 C910,349.5 850,349.5 850,349.5 C850,349.5 790,349.5 790,339.5 L790,247.5 " fill="none" style="stroke:#181818;stroke-width:1.0;"/><path d="M790,247.5 C790,257.5 850,257.5 850,257.5 C850,257.5 910,257.5 910,247.5 " fill="none" style="stroke:#181818;stroke-width:1.0;"/><text fill="#000000" font-family="sans-serif" font-size="14" font-weight="bold" lengthAdjust="spacing" textLength="54" x="823" y="272.4951">bucket</text></g><!--entity getBusinessDays--><g id="elem_getBusinessDays"><path d="M741,111.5 L741,159.0938 A2.5,2.5 0 0 0 743.5,161.5938 L956.5,161.5938 A2.5,2.5 0 0 0 959,159.0938 L959,119 L949,109 L743.5,109 A2.5,2.5 0 0 0 741,111.5 " fill="#F1F1F1" style="stroke:#181818;stroke-width:0.5;"/><path d="M949,109 L949,116.5 A2.5,2.5 0 0 0 951.5,119 L959,119 " fill="#F1F1F1" style="stroke:#181818;stroke-width:0.5;"/><text fill="#000000" font-family="sans-serif" font-size="14" lengthAdjust="spacing" textLength="194" x="751" y="131.9951">getBusinessDays(startDate,</text><text fill="#000000" font-family="sans-serif" font-size="14" lengthAdjust="spacing" textLength="65" x="751" y="148.292">endDate)</text></g><!--entity scope--><g id="elem_scope"><polygon fill="#F1F1F1" points="806,297.5,816,287.5,894,287.5,894,323.7969,884,333.7969,806,333.7969,806,297.5" style="stroke:#181818;stroke-width:0.5;"/><line style="stroke:#181818;stroke-width:0.5;" x1="884" x2="894" y1="297.5" y2="287.5"/><line style="stroke:#181818;stroke-width:0.5;" x1="806" x2="884" y1="297.5" y2="297.5"/><line style="stroke:#181818;stroke-width:0.5;" x1="884" x2="884" y1="297.5" y2="333.7969"/><text fill="#000000" font-family="sans-serif" font-size="14" font-weight="bold" lengthAdjust="spacing" textLength="48" x="821" y="320.4951">scope</text></g><!--entity n1qlUDFunction--><g id="elem_n1qlUDFunction"><rect fill="#F1F1F1" height="62.5938" rx="2.5" ry="2.5" style="stroke:#181818;stroke-width:0.5;" width="268" x="352" y="104"/><rect fill="#F1F1F1" height="10" style="stroke:#181818;stroke-width:0.5;" width="15" x="600" y="109"/><rect fill="#F1F1F1" height="2" style="stroke:#181818;stroke-width:0.5;" width="4" x="598" y="111"/><rect fill="#F1F1F1" height="2" style="stroke:#181818;stroke-width:0.5;" width="4" x="598" y="115"/><text fill="#000000" font-family="sans-serif" font-size="14" font-style="italic" lengthAdjust="spacing" textLength="228" x="367" y="136.9951">«SQL++ User-Defined Function»</text><text fill="#000000" font-family="sans-serif" font-size="14" lengthAdjust="spacing" textLength="143" x="409.5" y="153.292">getBusinessDays(...)</text></g><!--entity user--><g id="elem_user"><ellipse cx="149" cy="113.5" fill="#F1F1F1" rx="16" ry="16" style="stroke:#181818;stroke-width:1.5;"/><path d="M149,133.5 C153,133.5 156,133.5 160,129.5 C168,129.5 176,137.5 176,145.5 L176,149.5 C176,153.5 172,157.5 168,157.5 L130,157.5 C126,157.5 122,153.5 122,149.5 L122,145.5 C122,137.5 130,129.5 138,129.5 C142,133.5 145,133.5 149,133.5 " fill="#F1F1F1" style="stroke:#181818;stroke-width:1.5;"/><text fill="#000000" font-family="sans-serif" font-size="14" lengthAdjust="spacing" textLength="31" x="133.5" y="171.9951">user</text></g><g id="elem_GMN11"><path d="M6,6 L6,61.3984 A0,0 0 0 0 6,61.3984 L145,61.3984 L149,95.81 L153,61.3984 L292,61.3984 A0,0 0 0 0 292,61.3984 L292,16 L282,6 L6,6 A0,0 0 0 0 6,6 " fill="#FFFFF0" style="stroke:#181818;stroke-width:0.5;"/><path d="M282,6 L282,16 L292,16 L282,6 " fill="#FFFFF0" style="stroke:#181818;stroke-width:0.5;"/><text fill="#000000" font-family="sans-serif" font-size="13" lengthAdjust="spacing" textLength="265" x="12" y="23.0669">can access the getBusinessDays function</text><text fill="#000000" font-family="sans-serif" font-size="13" lengthAdjust="spacing" textLength="162" x="12" y="38.1997">as long as s/he is working</text><text fill="#000000" font-family="sans-serif" font-size="13" lengthAdjust="spacing" textLength="71" x="12" y="53.3325">inside the "</text><text fill="#000000" font-family="sans-serif" font-size="13" font-weight="bold" lengthAdjust="spacing" textLength="100" x="83" y="53.3325">bucket.scope</text><text fill="#000000" font-family="sans-serif" font-size="13" lengthAdjust="spacing" textLength="57" x="183" y="53.3325">" context</text></g><!--link n1qlUDFunction to getBusinessDays--><g id="link_n1qlUDFunction_getBusinessDays"><path codeLine="18" d="M620.25,135.5 C620.25,135.5 734.06,135.5 734.06,135.5 " fill="none" id="n1qlUDFunction-to-getBusinessDays" style="stroke:#181818;stroke-width:1.0;"/><polygon fill="#181818" points="739.06,135.5,730.06,131.5,734.06,135.5,730.06,139.5,739.06,135.5" style="stroke:#181818;stroke-width:1.0;"/></g><!--reverse link scope to MyLibrary--><g id="link_scope_MyLibrary"><path codeLine="28" d="M850,280.57 C850,280.57 850,259.9625 850,239.355 C850,229.0512 850,218.7475 850,211.0197 C850,209.0877 850,207.3168 850,205.7471 " fill="none" id="scope-backto-MyLibrary" style="stroke:#181818;stroke-width:1.0;stroke-dasharray:7.0,7.0;"/><polygon fill="#181818" points="850,285.57,854,276.57,850,280.57,846,276.57,850,285.57" style="stroke:#181818;stroke-width:1.0;"/></g><!--link user to n1qlUDFunction--><g id="link_user_n1qlUDFunction"><path codeLine="32" d="M177.73,135.5 C177.73,135.5 345.25,135.5 345.25,135.5 " fill="none" id="user-to-n1qlUDFunction" style="stroke:#181818;stroke-width:1.0;"/><polygon fill="#181818" points="350.25,135.5,341.25,131.5,345.25,135.5,341.25,139.5,350.25,135.5" style="stroke:#181818;stroke-width:1.0;"/></g><!--SRC=[RP5DQyCm38Rl_XKYkwpjah5xAMo4mQ0xZDBROBY9afewLcOhQyFOVv_iigzs8G4vhomzhwIjfVrBPmx6jKfPR1YOm9jsor0RZnKRSYhiZEkrrnteYiclUBG8jtiCrE4lqHg7FFO8FTan7lxJoFEMbAgewycXOyXQvBiXY1v2gSTmMHJ598FvVFMqdCrW7T3d9JQYrt0_k4IqM80Eu6vUxRhy-gSKG2Ej4B9kpAtPUEt7BEOzZilZ2TubHrveZ1WuQnnOUourunKy2reTmqcgS98PMtqeUVuIG9xdYzDSK6bca0rY91MBGRnSQzOR7GHaCrGxv2GUmmJgg1PjEWqLzJYT9Zd5AlPE4SnbM5w-uiTaB1rRG8Gv7P4ZHjbm3zGa3hXuU2Ev0r1f9zkjX1fuYsSkcgyI434ikJRXN4kg2R0dBvjkusoD2qQuOmrXFzeflYrKv1WFh6Iw45a-0G00]--></g></svg>