<?xml version="1.0" encoding="us-ascii" standalone="no"?><svg xmlns="http://www.w3.org/2000/svg" xmlns:xlink="http://www.w3.org/1999/xlink" contentStyleType="text/css" height="366px" preserveAspectRatio="none" style="width:989px;height:366px;background:#FFFFFF;" version="1.1" viewBox="0 0 989 366" width="989px" zoomAndPan="magnify"><defs/><g><!--cluster MyLibrary--><g id="cluster_MyLibrary"><rect fill="none" height="139" rx="2.5" ry="2.5" style="stroke:#181818;stroke-width:1.0;" width="266" x="717" y="66.7"/><path d="M806,66.7 L806,75.9969 L796,85.9969 L717,85.9969 " fill="none" style="stroke:#181818;stroke-width:1.0;"/><text fill="#000000" font-family="sans-serif" font-size="14" font-weight="bold" lengthAdjust="spacing" textLength="79" x="720" y="80.6951">my-library</text></g><!--cluster bucket--><g id="cluster_bucket"><path d="M790,247.7 C790,237.7 850,237.7 850,237.7 C850,237.7 910,237.7 910,247.7 L910,339.7 C910,349.7 850,349.7 850,349.7 C850,349.7 790,349.7 790,339.7 L790,247.7 " fill="none" style="stroke:#181818;stroke-width:1.0;"/><path d="M790,247.7 C790,257.7 850,257.7 850,257.7 C850,257.7 910,257.7 910,247.7 " fill="none" style="stroke:#181818;stroke-width:1.0;"/><text fill="#000000" font-family="sans-serif" font-size="14" font-weight="bold" lengthAdjust="spacing" textLength="54" x="823" y="272.6951">bucket</text></g><!--entity getBusinessDays--><g id="elem_getBusinessDays"><path d="M741,111.9 L741,159.4937 A2.5,2.5 0 0 0 743.5,161.9937 L956.5,161.9937 A2.5,2.5 0 0 0 959,159.4937 L959,119.4 L949,109.4 L743.5,109.4 A2.5,2.5 0 0 0 741,111.9 " fill="#F1F1F1" style="stroke:#181818;stroke-width:0.5;"/><path d="M949,109.4 L949,116.9 A2.5,2.5 0 0 0 951.5,119.4 L959,119.4 " fill="#F1F1F1" style="stroke:#181818;stroke-width:0.5;"/><text fill="#000000" font-family="sans-serif" font-size="14" lengthAdjust="spacing" textLength="194" x="751" y="132.3951">getBusinessDays(startDate,</text><text fill="#000000" font-family="sans-serif" font-size="14" lengthAdjust="spacing" textLength="65" x="751" y="148.692">endDate)</text></g><!--entity scope--><g id="elem_scope"><polygon fill="#F1F1F1" points="806,297.55,816,287.55,894,287.55,894,323.8469,884,333.8469,806,333.8469,806,297.55" style="stroke:#181818;stroke-width:0.5;"/><line style="stroke:#181818;stroke-width:0.5;" x1="884" x2="894" y1="297.55" y2="287.55"/><line style="stroke:#181818;stroke-width:0.5;" x1="806" x2="884" y1="297.55" y2="297.55"/><line style="stroke:#181818;stroke-width:0.5;" x1="884" x2="884" y1="297.55" y2="333.8469"/><text fill="#000000" font-family="sans-serif" font-size="14" font-weight="bold" lengthAdjust="spacing" textLength="48" x="821" y="320.5451">scope</text></g><!--entity n1qlUDFunction--><g id="elem_n1qlUDFunction"><rect fill="#F1F1F1" height="62.5938" rx="2.5" ry="2.5" style="stroke:#181818;stroke-width:0.5;" width="268" x="352" y="104.4"/><rect fill="#F1F1F1" height="10" style="stroke:#181818;stroke-width:0.5;" width="15" x="600" y="109.4"/><rect fill="#F1F1F1" height="2" style="stroke:#181818;stroke-width:0.5;" width="4" x="598" y="111.4"/><rect fill="#F1F1F1" height="2" style="stroke:#181818;stroke-width:0.5;" width="4" x="598" y="115.4"/><text fill="#000000" font-family="sans-serif" font-size="14" font-style="italic" lengthAdjust="spacing" textLength="228" x="367" y="137.3951">&#171;SQL++ User-Defined Function&#187;</text><text fill="#000000" font-family="sans-serif" font-size="14" lengthAdjust="spacing" textLength="143" x="409.5" y="153.692">getBusinessDays(...)</text></g><!--entity user--><g id="elem_user"><ellipse cx="149" cy="113.55" fill="#F1F1F1" rx="16" ry="16" style="stroke:#181818;stroke-width:1.5;"/><path d="M149,133.55 C153,133.55 156,133.55 160,129.55 C168,129.55 176,137.55 176,145.55 L176,149.55 C176,153.55 172,157.55 168,157.55 L130,157.55 C126,157.55 122,153.55 122,149.55 L122,145.55 C122,137.55 130,129.55 138,129.55 C142,133.55 145,133.55 149,133.55 " fill="#F1F1F1" style="stroke:#181818;stroke-width:1.5;"/><text fill="#000000" font-family="sans-serif" font-size="14" lengthAdjust="spacing" textLength="31" x="133.5" y="172.0451">user</text></g><g id="elem_GMN11"><path d="M6,6 L6,61.3984 A0,0 0 0 0 6,61.3984 L146,61.3984 L150,95.82 L154,61.3984 L292,61.3984 A0,0 0 0 0 292,61.3984 L292,16 L282,6 L6,6 A0,0 0 0 0 6,6 " fill="#FFFFF0" style="stroke:#181818;stroke-width:0.5;"/><path d="M282,6 L282,16 L292,16 L282,6 " fill="#FFFFF0" style="stroke:#181818;stroke-width:0.5;"/><text fill="#000000" font-family="sans-serif" font-size="13" lengthAdjust="spacing" textLength="265" x="12" y="23.0669">can access the getBusinessDays function</text><text fill="#000000" font-family="sans-serif" font-size="13" lengthAdjust="spacing" textLength="162" x="12" y="38.1997">as long as s/he is working</text><text fill="#000000" font-family="sans-serif" font-size="13" lengthAdjust="spacing" textLength="71" x="12" y="53.3325">inside the "</text><text fill="#000000" font-family="sans-serif" font-size="13" font-weight="bold" lengthAdjust="spacing" textLength="100" x="83" y="53.3325">bucket.scope</text><text fill="#000000" font-family="sans-serif" font-size="13" lengthAdjust="spacing" textLength="57" x="183" y="53.3325">" context</text></g><!--link n1qlUDFunction to getBusinessDays--><g id="link_n1qlUDFunction_getBusinessDays"><path codeLine="18" d="M620.25,135.7 C620.25,135.7 734.57,135.7 734.57,135.7 " fill="none" id="n1qlUDFunction-to-getBusinessDays" style="stroke:#181818;stroke-width:1.0;"/><polygon fill="#181818" points="739.57,135.7,730.57,131.7,734.57,135.7,730.57,139.7,739.57,135.7" style="stroke:#181818;stroke-width:1.0;"/></g><!--reverse link scope to MyLibrary--><g id="link_scope_MyLibrary"><path codeLine="28" d="M850,281.29 C850,281.29 850,260.5525 850,239.815 C850,229.4463 850,219.0775 850,211.3009 C850,209.3568 850,207.5747 850,205.9951 C850,205.8963 850,205.7984 850,205.7013 " fill="none" id="scope-backto-MyLibrary" style="stroke:#181818;stroke-width:1.0;stroke-dasharray:7.0,7.0;"/><polygon fill="#181818" points="850,286.29,854,277.29,850,281.29,846,277.29,850,286.29" style="stroke:#181818;stroke-width:1.0;"/></g><!--link user to n1qlUDFunction--><g id="link_user_n1qlUDFunction"><path codeLine="32" d="M177.73,135.7 C177.73,135.7 345.77,135.7 345.77,135.7 " fill="none" id="user-to-n1qlUDFunction" style="stroke:#181818;stroke-width:1.0;"/><polygon fill="#181818" points="350.77,135.7,341.77,131.7,345.77,135.7,341.77,139.7,350.77,135.7" style="stroke:#181818;stroke-width:1.0;"/></g><!--SRC=[RP5DQyCm38Rl_XKYkwpjah5xAMo4mQ0xZDBROBY9afewLcOhQyFOVv_iigzs8G4vhomzhwIjfVrBPmx6jKfPR1YOm9jsor0RZnKRSYhiZEkrrnteYiclUBG8jtiCrE4lqHg7FFO8FTan7lxJoFEMbAgewycXOyXQvBiXY1v2gSTmMHJ598FvVFMqdCrW7T3d9JQYrt0_k4IqM80Eu6vUxRhy-gSKG2Ej4B9kpAtPUEt7BEOzZilZ2TubHrveZ1WuQnnOUourunKy2reTmqcgS98PMtqeUVuIG9xdYzDSK6bca0rY91MBGRnSQzOR7GHaCrGxv2GUmmJgg1PjEWqLzJYT9Zd5AlPE4SnbM5w-uiTaB1rRG8Gv7P4ZHjbm3zGa3hXuU2Ev0r1f9zkjX1fuYsSkcgyI434ikJRXN4kg2R0dBvjkusoD2qQuOmrXFzeflYrKv1WFh6Iw45a-0G00]--></g></svg>