<?xml version="1.0" encoding="us-ascii" standalone="no"?><svg xmlns="http://www.w3.org/2000/svg" xmlns:xlink="http://www.w3.org/1999/xlink" contentStyleType="text/css" height="481px" preserveAspectRatio="none" style="width:570px;height:481px;background:#FFFFFF;" version="1.1" viewBox="0 0 570 481" width="570px" zoomAndPan="magnify"><defs/><g><rect fill="#FFFFFF" height="87.3984" style="stroke:#181818;stroke-width:1.0;" width="10" x="206.5" y="115.4297"/><rect fill="#FFFFFF" height="29.1328" style="stroke:#181818;stroke-width:1.0;" width="10" x="361.5" y="144.5625"/><rect fill="#FFFFFF" height="87.3984" style="stroke:#181818;stroke-width:1.0;" width="10" x="361.5" y="285.2266"/><rect fill="#FFFFFF" height="29.1328" style="stroke:#181818;stroke-width:1.0;" width="10" x="521.5" y="314.3594"/><rect fill="none" height="162.7969" style="stroke:#000000;stroke-width:1.5;" width="554" x="10" y="217.8281"/><line style="stroke:#181818;stroke-width:0.5;stroke-dasharray:5.0,5.0;" x1="48" x2="48" y1="84.2969" y2="397.625"/><line style="stroke:#181818;stroke-width:0.5;stroke-dasharray:5.0,5.0;" x1="211.5" x2="211.5" y1="84.2969" y2="397.625"/><line style="stroke:#181818;stroke-width:0.5;stroke-dasharray:5.0,5.0;" x1="366" x2="366" y1="84.2969" y2="397.625"/><line style="stroke:#181818;stroke-width:0.5;stroke-dasharray:5.0,5.0;" x1="526" x2="526" y1="84.2969" y2="397.625"/><text fill="#000000" font-family="sans-serif" font-size="14" lengthAdjust="spacing" textLength="27" x="32" y="80.9951">Dev</text><ellipse cx="48.5" cy="22.5" fill="#E2E2F0" rx="16" ry="16" style="stroke:#181818;stroke-width:1.5;"/><path d="M48.5,42.5 C52.5,42.5 55.5,42.5 59.5,38.5 C67.5,38.5 75.5,46.5 75.5,54.5 L75.5,58.5 C75.5,62.5 71.5,66.5 67.5,66.5 L29.5,66.5 C25.5,66.5 21.5,62.5 21.5,58.5 L21.5,54.5 C21.5,46.5 29.5,38.5 37.5,38.5 C41.5,42.5 44.5,42.5 48.5,42.5 " fill="#E2E2F0" style="stroke:#181818;stroke-width:1.5;"/><text fill="#000000" font-family="sans-serif" font-size="14" lengthAdjust="spacing" textLength="27" x="32" y="409.6201">Dev</text><ellipse cx="48.5" cy="430.4219" fill="#E2E2F0" rx="16" ry="16" style="stroke:#181818;stroke-width:1.5;"/><path d="M48.5,450.4219 C52.5,450.4219 55.5,450.4219 59.5,446.4219 C67.5,446.4219 75.5,454.4219 75.5,462.4219 L75.5,466.4219 C75.5,470.4219 71.5,474.4219 67.5,474.4219 L29.5,474.4219 C25.5,474.4219 21.5,470.4219 21.5,466.4219 L21.5,462.4219 C21.5,454.4219 29.5,446.4219 37.5,446.4219 C41.5,450.4219 44.5,450.4219 48.5,450.4219 " fill="#E2E2F0" style="stroke:#181818;stroke-width:1.5;"/><rect fill="#E2E2F0" height="30.2969" rx="2.5" ry="2.5" style="stroke:#181818;stroke-width:0.5;" width="74" x="174.5" y="53"/><text fill="#000000" font-family="sans-serif" font-size="14" lengthAdjust="spacing" textLength="60" x="181.5" y="72.9951">JSEngine</text><rect fill="#E2E2F0" height="30.2969" rx="2.5" ry="2.5" style="stroke:#181818;stroke-width:0.5;" width="74" x="174.5" y="396.625"/><text fill="#000000" font-family="sans-serif" font-size="14" lengthAdjust="spacing" textLength="60" x="181.5" y="416.6201">JSEngine</text><rect fill="#E2E2F0" height="30.2969" rx="2.5" ry="2.5" style="stroke:#181818;stroke-width:0.5;" width="103" x="315" y="53"/><text fill="#000000" font-family="sans-serif" font-size="14" lengthAdjust="spacing" textLength="89" x="322" y="72.9951">QueryEngine</text><rect fill="#E2E2F0" height="30.2969" rx="2.5" ry="2.5" style="stroke:#181818;stroke-width:0.5;" width="103" x="315" y="396.625"/><text fill="#000000" font-family="sans-serif" font-size="14" lengthAdjust="spacing" textLength="89" x="322" y="416.6201">QueryEngine</text><text fill="#000000" font-family="sans-serif" font-size="14" lengthAdjust="spacing" textLength="49" x="499" y="80.9951">Bucket</text><path d="M508.5,32 C508.5,22 526.5,22 526.5,22 C526.5,22 544.5,22 544.5,32 L544.5,58 C544.5,68 526.5,68 526.5,68 C526.5,68 508.5,68 508.5,58 L508.5,32 " fill="#E2E2F0" style="stroke:#181818;stroke-width:1.5;"/><path d="M508.5,32 C508.5,42 526.5,42 526.5,42 C526.5,42 544.5,42 544.5,32 " fill="none" style="stroke:#181818;stroke-width:1.5;"/><text fill="#000000" font-family="sans-serif" font-size="14" lengthAdjust="spacing" textLength="49" x="499" y="409.6201">Bucket</text><path d="M508.5,422.9219 C508.5,412.9219 526.5,412.9219 526.5,412.9219 C526.5,412.9219 544.5,412.9219 544.5,422.9219 L544.5,448.9219 C544.5,458.9219 526.5,458.9219 526.5,458.9219 C526.5,458.9219 508.5,458.9219 508.5,448.9219 L508.5,422.9219 " fill="#E2E2F0" style="stroke:#181818;stroke-width:1.5;"/><path d="M508.5,422.9219 C508.5,432.9219 526.5,432.9219 526.5,432.9219 C526.5,432.9219 544.5,432.9219 544.5,422.9219 " fill="none" style="stroke:#181818;stroke-width:1.5;"/><rect fill="#FFFFFF" height="87.3984" style="stroke:#181818;stroke-width:1.0;" width="10" x="206.5" y="115.4297"/><rect fill="#FFFFFF" height="29.1328" style="stroke:#181818;stroke-width:1.0;" width="10" x="361.5" y="144.5625"/><rect fill="#FFFFFF" height="87.3984" style="stroke:#181818;stroke-width:1.0;" width="10" x="361.5" y="285.2266"/><rect fill="#FFFFFF" height="29.1328" style="stroke:#181818;stroke-width:1.0;" width="10" x="521.5" y="314.3594"/><line style="stroke:#181818;stroke-width:1.0;" x1="204.5" x2="194.5" y1="115.4297" y2="111.4297"/><line style="stroke:#181818;stroke-width:1.0;" x1="204.5" x2="194.5" y1="115.4297" y2="119.4297"/><line style="stroke:#181818;stroke-width:1.0;" x1="48.5" x2="205.5" y1="115.4297" y2="115.4297"/><text fill="#000000" font-family="sans-serif" font-size="13" lengthAdjust="spacing" textLength="126" x="55.5" y="110.3638">JS: var q = select &#8230;</text><line style="stroke:#181818;stroke-width:1.0;" x1="359.5" x2="349.5" y1="144.5625" y2="140.5625"/><line style="stroke:#181818;stroke-width:1.0;" x1="359.5" x2="349.5" y1="144.5625" y2="148.5625"/><line style="stroke:#181818;stroke-width:1.0;" x1="216.5" x2="360.5" y1="144.5625" y2="144.5625"/><text fill="#000000" font-family="sans-serif" font-size="13" lengthAdjust="spacing" textLength="96" x="223.5" y="139.4966">SQL++(&#8230;) call</text><line style="stroke:#181818;stroke-width:1.0;" x1="217.5" x2="227.5" y1="173.6953" y2="169.6953"/><line style="stroke:#181818;stroke-width:1.0;" x1="217.5" x2="227.5" y1="173.6953" y2="177.6953"/><line style="stroke:#181818;stroke-width:1.0;" x1="216.5" x2="365.5" y1="173.6953" y2="173.6953"/><text fill="#000000" font-family="sans-serif" font-size="13" lengthAdjust="spacing" textLength="79" x="233.5" y="168.6294">return query</text><line style="stroke:#181818;stroke-width:1.0;" x1="49.5" x2="59.5" y1="202.8281" y2="198.8281"/><line style="stroke:#181818;stroke-width:1.0;" x1="49.5" x2="59.5" y1="202.8281" y2="206.8281"/><line style="stroke:#181818;stroke-width:1.0;" x1="48.5" x2="210.5" y1="202.8281" y2="202.8281"/><text fill="#000000" font-family="sans-serif" font-size="13" lengthAdjust="spacing" textLength="51" x="65.5" y="197.7622">return q</text><path d="M10,217.8281 L87,217.8281 L87,224.9609 L77,234.9609 L10,234.9609 L10,217.8281 " fill="#EEEEEE" style="stroke:#000000;stroke-width:1.5;"/><rect fill="none" height="162.7969" style="stroke:#000000;stroke-width:1.5;" width="554" x="10" y="217.8281"/><text fill="#000000" font-family="sans-serif" font-size="13" font-weight="bold" lengthAdjust="spacing" textLength="32" x="25" y="230.895">loop</text><text fill="#000000" font-family="sans-serif" font-size="11" font-weight="bold" lengthAdjust="spacing" textLength="140" x="102" y="230.0386">[Every document in q]</text><line style="stroke:#181818;stroke-width:1.0;" x1="209.5" x2="199.5" y1="256.0938" y2="252.0938"/><line style="stroke:#181818;stroke-width:1.0;" x1="209.5" x2="199.5" y1="256.0938" y2="260.0938"/><line style="stroke:#181818;stroke-width:1.0;" x1="48.5" x2="210.5" y1="256.0938" y2="256.0938"/><text fill="#000000" font-family="sans-serif" font-size="13" lengthAdjust="spacing" textLength="139" x="55.5" y="251.0278">operate on document</text><line style="stroke:#181818;stroke-width:1.0;" x1="359.5" x2="349.5" y1="285.2266" y2="281.2266"/><line style="stroke:#181818;stroke-width:1.0;" x1="359.5" x2="349.5" y1="285.2266" y2="289.2266"/><line style="stroke:#181818;stroke-width:1.0;" x1="211.5" x2="360.5" y1="285.2266" y2="285.2266"/><text fill="#000000" font-family="sans-serif" font-size="13" lengthAdjust="spacing" textLength="90" x="218.5" y="280.1606">get document</text><line style="stroke:#181818;stroke-width:1.0;" x1="519.5" x2="509.5" y1="314.3594" y2="310.3594"/><line style="stroke:#181818;stroke-width:1.0;" x1="519.5" x2="509.5" y1="314.3594" y2="318.3594"/><line style="stroke:#181818;stroke-width:1.0;" x1="371.5" x2="520.5" y1="314.3594" y2="314.3594"/><text fill="#000000" font-family="sans-serif" font-size="13" lengthAdjust="spacing" textLength="90" x="378.5" y="309.2935">get document</text><line style="stroke:#181818;stroke-width:1.0;" x1="372.5" x2="382.5" y1="343.4922" y2="339.4922"/><line style="stroke:#181818;stroke-width:1.0;" x1="372.5" x2="382.5" y1="343.4922" y2="347.4922"/><line style="stroke:#181818;stroke-width:1.0;" x1="371.5" x2="525.5" y1="343.4922" y2="343.4922"/><text fill="#000000" font-family="sans-serif" font-size="13" lengthAdjust="spacing" textLength="126" x="388.5" y="338.4263">retrieved document</text><line style="stroke:#181818;stroke-width:1.0;" x1="212.5" x2="222.5" y1="372.625" y2="368.625"/><line style="stroke:#181818;stroke-width:1.0;" x1="212.5" x2="222.5" y1="372.625" y2="376.625"/><line style="stroke:#181818;stroke-width:1.0;" x1="211.5" x2="365.5" y1="372.625" y2="372.625"/><text fill="#000000" font-family="sans-serif" font-size="13" lengthAdjust="spacing" textLength="126" x="228.5" y="367.5591">retrieved document</text><!--SRC=[XP51JiCm44NtFiLVWg9S858hWUW6iQboWi4PLLOTEtKSe-uu3GVZ9DX9cpeH1Qz6C_F-_1dtHsKwSjI2fBUkzcVDUFhWthOin9J42mU1sEMLL1qPZzTwPmxAy3Ax7zYThuM6FBrJptWUv96zW4WoABVRcQvYL26GmmaRzAnPUdn_VerZLI3FsQ1hD2faar2XthyLnKC47o59wmnVECgXt0QYX6C_E8DJQedU-NU5XOUqpGrSGBDhWVYqjHrs8UgWiN9eEPvAZSZurbT1ycCxTad9cfcvjD-zGr54xi1-3QpNdlxZRlkbl5OlosbPfpXmyz-Ccya_C3RD3m00]--></g></svg>