<?xml version="1.0" encoding="UTF-8" standalone="no"?><svg xmlns="http://www.w3.org/2000/svg" xmlns:xlink="http://www.w3.org/1999/xlink" contentStyleType="text/css" height="396px" preserveAspectRatio="none" style="width:1008px;height:396px;background:#FFFFFF;" version="1.1" viewBox="0 0 1008 396" width="1008px" zoomAndPan="magnify"><defs/><g><!--MD5=[85c29abb6924ba539b01a2368cd4e5a6]
cluster Cluster--><g id="cluster_Cluster"><rect fill="none" height="383" rx="2.5" ry="2.5" style="stroke:#181818;stroke-width:1.0;" width="995" x="7" y="7"/><path d="M74,7 L74,16.2969 L64,26.2969 L7,26.2969 " fill="none" style="stroke:#181818;stroke-width:1.0;"/><text fill="#000000" font-family="sans-serif" font-size="14" font-weight="bold" lengthAdjust="spacing" textLength="57" x="10" y="20.9951">Cluster</text></g><!--MD5=[857fe04585c5762257f6bc76a63b9500]
cluster globalLibrary--><g id="cluster_globalLibrary"><rect fill="#FFFFFF" height="162" rx="2.5" ry="2.5" style="stroke:#181818;stroke-width:1.0;" width="623" x="31" y="156"/><path d="M143,156 L143,165.2969 L133,175.2969 L31,175.2969 " fill="none" style="stroke:#181818;stroke-width:1.0;"/><text fill="#000000" font-family="sans-serif" font-size="14" font-weight="bold" lengthAdjust="spacing" textLength="102" x="34" y="169.9951">global library</text></g><!--MD5=[3391d9f1a19c634d68793c5dffd64995]
cluster Bucket--><g id="cluster_Bucket"><path d="M678,60 C678,50 828,50 828,50 C828,50 978,50 978,60 L978,356 C978,366 828,366 828,366 C828,366 678,366 678,356 L678,60 " fill="none" style="stroke:#181818;stroke-width:1.0;"/><path d="M678,60 C678,70 828,70 828,70 C828,70 978,70 978,60 " fill="none" style="stroke:#181818;stroke-width:1.0;"/><text fill="#000000" font-family="sans-serif" font-size="14" font-weight="bold" lengthAdjust="spacing" textLength="54" x="801" y="84.9951">Bucket</text></g><!--MD5=[ff950ce3b0faff0072a320bae03ca30a]
cluster Scope--><g id="cluster_Scope"><polygon fill="#FFFFFF" points="702,118,712,108,954,108,954,332,944,342,702,342,702,118" style="stroke:#181818;stroke-width:1.0;"/><line style="stroke:#181818;stroke-width:1.0;" x1="944" x2="954" y1="118" y2="108"/><line style="stroke:#181818;stroke-width:1.0;" x1="702" x2="944" y1="118" y2="118"/><line style="stroke:#181818;stroke-width:1.0;" x1="944" x2="944" y1="118" y2="342"/><text fill="#000000" font-family="sans-serif" font-size="14" font-weight="bold" lengthAdjust="spacing" textLength="49" x="799.5" y="133.9951">Scope</text></g><!--MD5=[0e81e07669dd045938252300784af9f1]
cluster my-library--><g id="cluster_my-library"><rect fill="#FFFFFF" height="162" rx="2.5" ry="2.5" style="stroke:#181818;stroke-width:1.0;" width="204" x="726" y="156"/><path d="M815,156 L815,165.2969 L805,175.2969 L726,175.2969 " fill="none" style="stroke:#181818;stroke-width:1.0;"/><text fill="#000000" font-family="sans-serif" font-size="14" font-weight="bold" lengthAdjust="spacing" textLength="79" x="729" y="169.9951">my-library</text></g><!--MD5=[1dc377d3161fb6600bd48aab5f1bef29]
entity function3--><g id="elem_function3"><rect fill="#FFFFF0" height="111.4844" rx="2.5" ry="2.5" style="stroke:#181818;stroke-width:0.5;" width="278" x="360" y="191"/><rect fill="#FFFFF0" height="10" style="stroke:#181818;stroke-width:0.5;" width="15" x="618" y="196"/><rect fill="#FFFFF0" height="2" style="stroke:#181818;stroke-width:0.5;" width="4" x="616" y="198"/><rect fill="#FFFFF0" height="2" style="stroke:#181818;stroke-width:0.5;" width="4" x="616" y="202"/><text fill="#000000" font-family="sans-serif" font-size="14" lengthAdjust="spacing" textLength="4" x="375" y="223.9951"> </text><text fill="#000000" font-family="sans-serif" font-size="14" lengthAdjust="spacing" textLength="238" x="375" y="240.292">function globalUKHoliday(... args) {</text><text fill="#000000" font-family="sans-serif" font-size="14" lengthAdjust="spacing" textLength="12" x="391" y="256.5889">...</text><text fill="#000000" font-family="sans-serif" font-size="14" lengthAdjust="spacing" textLength="9" x="375" y="272.8857">}</text><text fill="#000000" font-family="sans-serif" font-size="14" lengthAdjust="spacing" textLength="4" x="375" y="289.1826"> </text></g><!--MD5=[7103fed7bd2172f155f5b2e4f63aed18]
entity function4--><g id="elem_function4"><rect fill="#FFFFF0" height="111.4844" rx="2.5" ry="2.5" style="stroke:#181818;stroke-width:0.5;" width="278" x="47" y="191"/><rect fill="#FFFFF0" height="10" style="stroke:#181818;stroke-width:0.5;" width="15" x="305" y="196"/><rect fill="#FFFFF0" height="2" style="stroke:#181818;stroke-width:0.5;" width="4" x="303" y="198"/><rect fill="#FFFFF0" height="2" style="stroke:#181818;stroke-width:0.5;" width="4" x="303" y="202"/><text fill="#000000" font-family="sans-serif" font-size="14" lengthAdjust="spacing" textLength="4" x="62" y="223.9951"> </text><text fill="#000000" font-family="sans-serif" font-size="14" lengthAdjust="spacing" textLength="238" x="62" y="240.292">function globalUSHoliday(... args) {</text><text fill="#000000" font-family="sans-serif" font-size="14" lengthAdjust="spacing" textLength="12" x="78" y="256.5889">...</text><text fill="#000000" font-family="sans-serif" font-size="14" lengthAdjust="spacing" textLength="9" x="62" y="272.8857">}</text><text fill="#000000" font-family="sans-serif" font-size="14" lengthAdjust="spacing" textLength="4" x="62" y="289.1826"> </text></g><!--MD5=[08c4886f0cdbbfe5a8548b418b6bf7c5]
entity function1--><g id="elem_function1"><rect fill="#FFFFF0" height="111.4844" rx="2.5" ry="2.5" style="stroke:#181818;stroke-width:0.5;" width="171" x="742.5" y="191"/><rect fill="#FFFFF0" height="10" style="stroke:#181818;stroke-width:0.5;" width="15" x="893.5" y="196"/><rect fill="#FFFFF0" height="2" style="stroke:#181818;stroke-width:0.5;" width="4" x="891.5" y="198"/><rect fill="#FFFFF0" height="2" style="stroke:#181818;stroke-width:0.5;" width="4" x="891.5" y="202"/><text fill="#000000" font-family="sans-serif" font-size="14" lengthAdjust="spacing" textLength="4" x="757.5" y="223.9951"> </text><text fill="#000000" font-family="sans-serif" font-size="14" lengthAdjust="spacing" textLength="131" x="757.5" y="240.292">function add(x, y) {</text><text fill="#000000" font-family="sans-serif" font-size="14" lengthAdjust="spacing" textLength="12" x="773.5" y="256.5889">...</text><text fill="#000000" font-family="sans-serif" font-size="14" lengthAdjust="spacing" textLength="9" x="757.5" y="272.8857">}</text><text fill="#000000" font-family="sans-serif" font-size="14" lengthAdjust="spacing" textLength="4" x="757.5" y="289.1826"> </text></g><!--MD5=[b1ae130607d69f78fb98fea26df85298]
@startuml
frame Cluster {

    frame "global library" as globalLibrary #white {

        component function3 #Ivory [

function globalUKHoliday(... args) {
    ...
}

        ]

        component function4 #Ivory [

function globalUSHoliday(... args) {
    ...
}

        ]
    }

    database "Bucket" {

        node "Scope" #White {

            frame "my-library" #White {

             component function1 #Ivory [

function add(x, y) {
    ...
}

            ]

        }
    }
}
@enduml

PlantUML version 1.2022.12(Sun Oct 23 18:12:26 GMT 2022)
(GPL source distribution)
Java Runtime: OpenJDK Runtime Environment
JVM: OpenJDK 64-Bit Server VM
Default Encoding: UTF-8
Language: en
Country: US
--></g></svg>