<?xml version="1.0" encoding="UTF-8" standalone="no"?><svg xmlns="http://www.w3.org/2000/svg" xmlns:xlink="http://www.w3.org/1999/xlink" contentStyleType="text/css" height="232px" preserveAspectRatio="none" style="width:692px;height:232px;background:#FFFFFF;" version="1.1" viewBox="0 0 692 232" width="692px" zoomAndPan="magnify"><defs/><g><!--cluster Index\nService--><g id="cluster_Index\nService"><rect fill="none" height="103" rx="2.5" ry="2.5" style="stroke:#181818;stroke-width:1.0;" width="128" x="42" y="7"/><text fill="#000000" font-family="sans-serif" font-size="14" font-weight="bold" lengthAdjust="spacing" textLength="43" x="84.5" y="21.9951">Index</text><text fill="#000000" font-family="sans-serif" font-size="14" font-weight="bold" lengthAdjust="spacing" textLength="59" x="76.5" y="38.292">Service</text></g><!--cluster Query\nService--><g id="cluster_Query\nService"><rect fill="none" height="103" rx="2.5" ry="2.5" style="stroke:#181818;stroke-width:1.0;" width="456" x="194" y="7"/><text fill="#000000" font-family="sans-serif" font-size="14" font-weight="bold" lengthAdjust="spacing" textLength="48" x="398" y="21.9951">Query</text><text fill="#000000" font-family="sans-serif" font-size="14" font-weight="bold" lengthAdjust="spacing" textLength="59" x="392.5" y="38.292">Service</text></g><!--entity IndexScan--><g id="elem_IndexScan"><rect fill="#F1F1F1" height="36.2969" rx="2.5" ry="2.5" style="stroke:#181818;stroke-width:0.5;" width="95" x="58.5" y="58"/><text fill="#000000" font-family="sans-serif" font-size="14" lengthAdjust="spacing" textLength="75" x="68.5" y="80.9951">Index Scan</text></g><!--entity Fetch--><g id="elem_Fetch"><rect fill="#F1F1F1" height="36.2969" rx="2.5" ry="2.5" style="stroke:#181818;stroke-width:0.5;" width="59" x="210.5" y="58"/><text fill="#000000" font-family="sans-serif" font-size="14" lengthAdjust="spacing" textLength="39" x="220.5" y="80.9951">Fetch</text></g><!--entity Filter--><g id="elem_Filter"><rect fill="#F1F1F1" height="36.2969" rx="2.5" ry="2.5" style="stroke:#181818;stroke-width:0.5;" width="53" x="304.5" y="58"/><text fill="#000000" font-family="sans-serif" font-size="14" lengthAdjust="spacing" textLength="33" x="314.5" y="80.9951">Filter</text></g><!--entity Order--><g id="elem_Order"><rect fill="#F1F1F1" height="36.2969" rx="2.5" ry="2.5" style="stroke:#181818;stroke-width:0.5;" width="59" x="392.5" y="58"/><text fill="#000000" font-family="sans-serif" font-size="14" lengthAdjust="spacing" textLength="39" x="402.5" y="80.9951">Order</text></g><!--entity Offset--><g id="elem_Offset"><rect fill="#F1F1F1" height="36.2969" rx="2.5" ry="2.5" style="stroke:#181818;stroke-width:0.5;" width="61" x="486.5" y="58"/><text fill="#000000" font-family="sans-serif" font-size="14" lengthAdjust="spacing" textLength="41" x="496.5" y="80.9951">Offset</text></g><!--entity Limit--><g id="elem_Limit"><rect fill="#F1F1F1" height="36.2969" rx="2.5" ry="2.5" style="stroke:#181818;stroke-width:0.5;" width="51" x="582.5" y="58"/><text fill="#000000" font-family="sans-serif" font-size="14" lengthAdjust="spacing" textLength="31" x="592.5" y="80.9951">Limit</text></g><!--entity start--><g id="elem_start"><ellipse cx="14" cy="76" fill="#F1F1F1" rx="8" ry="8" style="stroke:#181818;stroke-width:0.5;"/></g><!--entity end--><g id="elem_end"><ellipse cx="678" cy="76" fill="#F1F1F1" rx="8" ry="8" style="stroke:#181818;stroke-width:0.5;"/></g><g id="elem_GMN12"><path d="M310,165 L310,205.2656 A0,0 0 0 0 310,205.2656 L514,205.2656 A0,0 0 0 0 514,205.2656 L514,175 L504,165 L401.37,165 L344.01,94.19 L393.37,165 L310,165 A0,0 0 0 0 310,165 " fill="#FEFFDD" style="stroke:#181818;stroke-width:0.5;"/><path d="M504,165 L504,175 L514,175 L504,165 " fill="#FEFFDD" style="stroke:#181818;stroke-width:0.5;"/><text fill="#000000" font-family="sans-serif" font-size="13" lengthAdjust="spacing" textLength="183" x="316" y="182.0669">Filters, order, and pagination</text><text fill="#000000" font-family="sans-serif" font-size="13" lengthAdjust="spacing" textLength="137" x="339" y="197.1997">performed after fetch</text></g><!--entity Data--><g id="elem_Data"><path d="M205,164 C205,154 240,154 240,154 C240,154 275,154 275,164 L275,205.5938 C275,215.5938 240,215.5938 240,215.5938 C240,215.5938 205,215.5938 205,205.5938 L205,164 " fill="#F1F1F1" style="stroke:#181818;stroke-width:0.5;"/><path d="M205,164 C205,174 240,174 240,174 C240,174 275,174 275,164 " fill="none" style="stroke:#181818;stroke-width:0.5;"/><text fill="#000000" font-family="sans-serif" font-size="14" lengthAdjust="spacing" textLength="32" x="224" y="190.9951">Data</text><text fill="#000000" font-family="sans-serif" font-size="14" lengthAdjust="spacing" textLength="50" x="215" y="207.292">Service</text></g><!--link start to IndexScan--><g id="link_start_IndexScan"><path d="M23.34,76 C32.88,76 42.41,76 51.95,76 " fill="none" id="start-to-IndexScan" style="stroke:#181818;stroke-width:1.0;stroke-dasharray:7.0,7.0;"/><polygon fill="#181818" points="56.7,76,47.7,72,51.7,76,47.7,80,56.7,76" style="stroke:#181818;stroke-width:1.0;"/></g><!--link IndexScan to Fetch--><g id="link_IndexScan_Fetch"><path d="M153.89,76 C170.57,76 187.25,76 203.92,76 " fill="none" id="IndexScan-to-Fetch" style="stroke:#181818;stroke-width:1.0;"/><polygon fill="#181818" points="208.55,76,199.55,72,203.55,76,199.55,80,208.55,76" style="stroke:#181818;stroke-width:1.0;"/></g><!--link Fetch to Filter--><g id="link_Fetch_Filter"><path d="M269.86,76 C279.17,76 288.49,76 297.8,76 " fill="none" id="Fetch-to-Filter" style="stroke:#181818;stroke-width:1.0;"/><polygon fill="#181818" points="302.74,76,293.74,72,297.74,76,293.74,80,302.74,76" style="stroke:#181818;stroke-width:1.0;"/></g><!--link Filter to Order--><g id="link_Filter_Order"><path d="M357.66,76 C366.99,76 376.31,76 385.64,76 " fill="none" id="Filter-to-Order" style="stroke:#181818;stroke-width:1.0;"/><polygon fill="#181818" points="390.58,76,381.58,72,385.58,76,381.58,80,390.58,76" style="stroke:#181818;stroke-width:1.0;"/></g><!--link Order to Offset--><g id="link_Order_Offset"><path d="M451.69,76 C461.02,76 470.34,76 479.67,76 " fill="none" id="Order-to-Offset" style="stroke:#181818;stroke-width:1.0;"/><polygon fill="#181818" points="484.62,76,475.62,72,479.62,76,475.62,80,484.62,76" style="stroke:#181818;stroke-width:1.0;"/></g><!--link Offset to Limit--><g id="link_Offset_Limit"><path d="M547.93,76 C557.2,76 566.48,76 575.76,76 " fill="none" id="Offset-to-Limit" style="stroke:#181818;stroke-width:1.0;"/><polygon fill="#181818" points="580.67,76,571.67,72,575.67,76,571.67,80,580.67,76" style="stroke:#181818;stroke-width:1.0;"/></g><!--link Fetch to Data--><g id="link_Fetch_Data"><path d="M230.34,94.19 C227.36,108.63 226.54,129.74 227.87,147.87 " fill="none" id="Fetch-to-Data" style="stroke:#181818;stroke-width:1.0;"/><polygon fill="#181818" points="228.27,152.38,231.458,143.0614,227.8276,147.3996,223.4894,143.7692,228.27,152.38" style="stroke:#181818;stroke-width:1.0;"/></g><!--reverse link Fetch to Data--><g id="link_Fetch_Data"><path d="M251.41,100.58 C253.87,116.27 254.16,137.01 252.28,153.89 " fill="none" id="Fetch-backto-Data" style="stroke:#181818;stroke-width:1.0;"/><polygon fill="#181818" points="250.51,95.68,248.1967,105.2533,251.4107,100.5982,256.0659,103.8122,250.51,95.68" style="stroke:#181818;stroke-width:1.0;"/></g><!--link Limit to end--><g id="link_Limit_end"><path d="M633.98,76 C643.38,76 652.79,76 662.2,76 " fill="none" id="Limit-to-end" style="stroke:#181818;stroke-width:1.0;stroke-dasharray:7.0,7.0;"/><polygon fill="#181818" points="667.2,76,658.2,72,662.2,76,658.2,80,667.2,76" style="stroke:#181818;stroke-width:1.0;"/></g><!--SRC=[TL3RIWGn37tlLuHvKjYPBv05GGH145aVVScswLYSfaERbHNnt-rbTMSMf93cd2QdEKdlZcUCwC6GnSCaBtIKsycDx8a5T0uKbRgwXYuVJ904eommiL4gaXRaSIBe7jZGyPLt53-SfkvB0Lo-mauZr-OA2rBVAv7d0yNF_qJkIVJRcd5JcN99FKLpoLYRI5RKe_DEojSSX60VH8A7OCzwBKaR24Lk0yW6PXmTexZ0kM2cQ4FqP01jhWHRPyixWIAfb471FQPiwIvdPqV5V66Kglk4OOZ3i5tiuo-3VdjoN6E5RRns5QAPhR72vhHTXMW-J_qPrvyRlEdx1clDxnpPm0y0]--></g></svg>