<?xml version="1.0" encoding="UTF-8" standalone="no"?><svg xmlns="http://www.w3.org/2000/svg" xmlns:xlink="http://www.w3.org/1999/xlink" contentStyleType="text/css" height="232px" preserveAspectRatio="none" style="width:692px;height:232px;background:#FFFFFF;" version="1.1" viewBox="0 0 692 232" width="692px" zoomAndPan="magnify"><defs/><g><!--cluster Index\nService--><g id="cluster_Index\nService"><rect fill="none" height="103" rx="2.5" ry="2.5" style="stroke:#181818;stroke-width:1.0;" width="128" x="42" y="7"/><text fill="#000000" font-family="sans-serif" font-size="14" font-weight="bold" lengthAdjust="spacing" textLength="43" x="84.5" y="21.9951">Index</text><text fill="#000000" font-family="sans-serif" font-size="14" font-weight="bold" lengthAdjust="spacing" textLength="59" x="76.5" y="38.292">Service</text></g><!--cluster Query\nService--><g id="cluster_Query\nService"><rect fill="none" height="103" rx="2.5" ry="2.5" style="stroke:#181818;stroke-width:1.0;" width="456" x="194" y="7"/><text fill="#000000" font-family="sans-serif" font-size="14" font-weight="bold" lengthAdjust="spacing" textLength="48" x="398" y="21.9951">Query</text><text fill="#000000" font-family="sans-serif" font-size="14" font-weight="bold" lengthAdjust="spacing" textLength="59" x="392.5" y="38.292">Service</text></g><!--entity IndexScan--><g id="elem_IndexScan"><rect fill="#F1F1F1" height="36.2969" rx="2.5" ry="2.5" style="stroke:#181818;stroke-width:0.5;" width="95" x="58.5" y="58"/><text fill="#000000" font-family="sans-serif" font-size="14" lengthAdjust="spacing" textLength="75" x="68.5" y="80.9951">Index Scan</text></g><!--entity Fetch--><g id="elem_Fetch"><rect fill="#F1F1F1" height="36.2969" rx="2.5" ry="2.5" style="stroke:#181818;stroke-width:0.5;" width="59" x="574.5" y="58"/><text fill="#000000" font-family="sans-serif" font-size="14" lengthAdjust="spacing" textLength="39" x="584.5" y="80.9951">Fetch</text></g><!--entity Filter--><g id="elem_Filter"><rect fill="#F1F1F1" height="36.2969" rx="2.5" ry="2.5" style="stroke:#181818;stroke-width:0.5;" width="53" x="210.5" y="58"/><text fill="#000000" font-family="sans-serif" font-size="14" lengthAdjust="spacing" textLength="33" x="220.5" y="80.9951">Filter</text></g><!--entity Order--><g id="elem_Order"><rect fill="#F1F1F1" height="36.2969" rx="2.5" ry="2.5" style="stroke:#181818;stroke-width:0.5;" width="59" x="298.5" y="58"/><text fill="#000000" font-family="sans-serif" font-size="14" lengthAdjust="spacing" textLength="39" x="308.5" y="80.9951">Order</text></g><!--entity Offset--><g id="elem_Offset"><rect fill="#F1F1F1" height="36.2969" rx="2.5" ry="2.5" style="stroke:#181818;stroke-width:0.5;" width="61" x="392.5" y="58"/><text fill="#000000" font-family="sans-serif" font-size="14" lengthAdjust="spacing" textLength="41" x="402.5" y="80.9951">Offset</text></g><!--entity Limit--><g id="elem_Limit"><rect fill="#F1F1F1" height="36.2969" rx="2.5" ry="2.5" style="stroke:#181818;stroke-width:0.5;" width="51" x="488.5" y="58"/><text fill="#000000" font-family="sans-serif" font-size="14" lengthAdjust="spacing" textLength="31" x="498.5" y="80.9951">Limit</text></g><!--entity start--><g id="elem_start"><ellipse cx="14" cy="76" fill="#F1F1F1" rx="8" ry="8" style="stroke:#181818;stroke-width:0.5;"/></g><!--entity end--><g id="elem_end"><ellipse cx="678" cy="76" fill="#F1F1F1" rx="8" ry="8" style="stroke:#181818;stroke-width:0.5;"/></g><g id="elem_GMN12"><path d="M119,165 L119,205.2656 A0,0 0 0 0 119,205.2656 L355,205.2656 A0,0 0 0 0 355,205.2656 L355,175 L345,165 L241,165 L237,94.19 L233,165 L119,165 A0,0 0 0 0 119,165 " fill="#FEFFDD" style="stroke:#181818;stroke-width:0.5;"/><path d="M345,165 L345,175 L355,175 L345,165 " fill="#FEFFDD" style="stroke:#181818;stroke-width:0.5;"/><text fill="#000000" font-family="sans-serif" font-size="13" lengthAdjust="spacing" textLength="215" x="125" y="182.0669">Early filters, order, and pagination</text><text fill="#000000" font-family="sans-serif" font-size="13" lengthAdjust="spacing" textLength="177" x="144" y="197.1997">performed by Query service</text></g><!--entity Data--><g id="elem_Data"><path d="M569,164 C569,154 604,154 604,154 C604,154 639,154 639,164 L639,205.5938 C639,215.5938 604,215.5938 604,215.5938 C604,215.5938 569,215.5938 569,205.5938 L569,164 " fill="#F1F1F1" style="stroke:#181818;stroke-width:0.5;"/><path d="M569,164 C569,174 604,174 604,174 C604,174 639,174 639,164 " fill="none" style="stroke:#181818;stroke-width:0.5;"/><text fill="#000000" font-family="sans-serif" font-size="14" lengthAdjust="spacing" textLength="32" x="588" y="190.9951">Data</text><text fill="#000000" font-family="sans-serif" font-size="14" lengthAdjust="spacing" textLength="50" x="579" y="207.292">Service</text></g><!--link start to IndexScan--><g id="link_start_IndexScan"><path d="M23.34,76 C32.88,76 42.41,76 51.95,76 " fill="none" id="start-to-IndexScan" style="stroke:#181818;stroke-width:1.0;stroke-dasharray:7.0,7.0;"/><polygon fill="#181818" points="56.7,76,47.7,72,51.7,76,47.7,80,56.7,76" style="stroke:#181818;stroke-width:1.0;"/></g><!--link IndexScan to Filter--><g id="link_IndexScan_Filter"><path d="M153.85,76 C170.53,76 187.21,76 203.89,76 " fill="none" id="IndexScan-to-Filter" style="stroke:#181818;stroke-width:1.0;"/><polygon fill="#181818" points="208.53,76,199.53,72,203.53,76,199.53,80,208.53,76" style="stroke:#181818;stroke-width:1.0;"/></g><!--link Filter to Order--><g id="link_Filter_Order"><path d="M263.66,76 C272.99,76 282.31,76 291.64,76 " fill="none" id="Filter-to-Order" style="stroke:#181818;stroke-width:1.0;"/><polygon fill="#181818" points="296.58,76,287.58,72,291.58,76,287.58,80,296.58,76" style="stroke:#181818;stroke-width:1.0;"/></g><!--link Order to Offset--><g id="link_Order_Offset"><path d="M357.69,76 C367.02,76 376.34,76 385.67,76 " fill="none" id="Order-to-Offset" style="stroke:#181818;stroke-width:1.0;"/><polygon fill="#181818" points="390.62,76,381.62,72,385.62,76,381.62,80,390.62,76" style="stroke:#181818;stroke-width:1.0;"/></g><!--link Offset to Limit--><g id="link_Offset_Limit"><path d="M453.93,76 C463.2,76 472.48,76 481.76,76 " fill="none" id="Offset-to-Limit" style="stroke:#181818;stroke-width:1.0;"/><polygon fill="#181818" points="486.67,76,477.67,72,481.67,76,477.67,80,486.67,76" style="stroke:#181818;stroke-width:1.0;"/></g><!--link Limit to Fetch--><g id="link_Limit_Fetch"><path d="M539.66,76 C548.99,76 558.31,76 567.64,76 " fill="none" id="Limit-to-Fetch" style="stroke:#181818;stroke-width:1.0;"/><polygon fill="#181818" points="572.58,76,563.58,72,567.58,76,563.58,80,572.58,76" style="stroke:#181818;stroke-width:1.0;"/></g><!--link Fetch to Data--><g id="link_Fetch_Data"><path d="M594.34,94.19 C591.36,108.63 590.54,129.74 591.87,147.87 " fill="none" id="Fetch-to-Data" style="stroke:#181818;stroke-width:1.0;"/><polygon fill="#181818" points="592.27,152.38,595.458,143.0614,591.8276,147.3996,587.4894,143.7692,592.27,152.38" style="stroke:#181818;stroke-width:1.0;"/></g><!--reverse link Fetch to Data--><g id="link_Fetch_Data"><path d="M615.41,100.58 C617.87,116.27 618.16,137.01 616.28,153.89 " fill="none" id="Fetch-backto-Data" style="stroke:#181818;stroke-width:1.0;"/><polygon fill="#181818" points="614.51,95.68,612.1967,105.2533,615.4107,100.5982,620.0659,103.8122,614.51,95.68" style="stroke:#181818;stroke-width:1.0;"/></g><!--link Fetch to end--><g id="link_Fetch_end"><path d="M633.77,76 C643.32,76 652.86,76 662.4,76 " fill="none" id="Fetch-to-end" style="stroke:#181818;stroke-width:1.0;stroke-dasharray:7.0,7.0;"/><polygon fill="#181818" points="667.16,76,658.16,72,662.16,76,658.16,80,667.16,76" style="stroke:#181818;stroke-width:1.0;"/></g><!--SRC=[TL3HIiGm47pFLoptf73j5yY1e89m878- -h9jjZNORago9rV4VpVPgDSUI66JcIQJcOdlZYSCE8Ab3e-3lD19RWVNyqWiqAP1mPYhQzYa3oD4mI0BJ6oD2TGASZyGR1xPqkcL3nG-N4kRJmDm-HSEBR9ULfYH-Lg9F1yfpF-9F92qRsl63TdbadeAzfBfkaYoelPkT9AVPYy4ZHVn8_Zkh7UFOPYXKnYtuBFe5f0jJDWxHd6Uqx69GkV3I1QQ6TGxn6BTf7eWgnjZKR31cDBTfTqvNEuXCyPejL3NeQvtYsh-Tb3jVgsL9HCbg4w59MLPCb4owjJxMfvEg1BMbmkygQeb_F6H0dm3]--></g></svg>