<?xml version="1.0" encoding="UTF-8" standalone="no"?><svg xmlns="http://www.w3.org/2000/svg" xmlns:xlink="http://www.w3.org/1999/xlink" contentStyleType="text/css" height="316px" preserveAspectRatio="none" style="width:264px;height:316px;background:#FFFFFF;" version="1.1" viewBox="0 0 264 316" width="264px" zoomAndPan="magnify"><defs/><g><!--MD5=[e6f955026f95a25accb184d80cb741ec]
class student--><g id="elem_student"><rect codeLine="2" fill="#F1F1F1" height="96.8906" id="student" rx="2.5" ry="2.5" style="stroke:#181818;stroke-width:0.5;" width="97" x="7" y="15"/><ellipse cx="26.95" cy="31" fill="#ADD1B2" rx="11" ry="11" style="stroke:#181818;stroke-width:1.0;"/><path d="M31.0594,37 L23.3406,37 L23.3406,24.6094 L31.0594,24.6094 L31.0594,26.7656 L25.7938,26.7656 L25.7938,29.4375 L30.5594,29.4375 L30.5594,31.5938 L25.7938,31.5938 L25.7938,34.8438 L31.0594,34.8438 L31.0594,37 Z " fill="#000000"/><text fill="#000000" font-family="sans-serif" font-size="14" lengthAdjust="spacing" textLength="54" x="42.05" y="35.8467">student</text><line style="stroke:#181818;stroke-width:0.5;" x1="8" x2="103" y1="47" y2="47"/><ellipse cx="18" cy="60.6484" fill="#000000" rx="3" ry="3" style="stroke:#000000;stroke-width:1.0;"/><text fill="#000000" font-family="sans-serif" font-size="14" lengthAdjust="spacing" textLength="71" x="27" y="63.9951">student-id</text><line style="stroke:#181818;stroke-width:1.0;" x1="8" x2="103" y1="71.2969" y2="71.2969"/><text fill="#000000" font-family="sans-serif" font-size="14" lengthAdjust="spacing" textLength="39" x="13" y="88.292">name</text><text fill="#000000" font-family="sans-serif" font-size="14" lengthAdjust="spacing" textLength="85" x="13" y="104.5889">date-of-birth</text></g><!--MD5=[67569426bc0d5335c7e46a57db929d9b]
class course--><g id="elem_course"><rect codeLine="10" fill="#F1F1F1" height="113.1875" id="course" rx="2.5" ry="2.5" style="stroke:#181818;stroke-width:0.5;" width="118" x="139.5" y="7"/><ellipse cx="171.6" cy="23" fill="#ADD1B2" rx="11" ry="11" style="stroke:#181818;stroke-width:1.0;"/><path d="M175.7094,29 L167.9906,29 L167.9906,16.6094 L175.7094,16.6094 L175.7094,18.7656 L170.4438,18.7656 L170.4438,21.4375 L175.2094,21.4375 L175.2094,23.5938 L170.4438,23.5938 L170.4438,26.8438 L175.7094,26.8438 L175.7094,29 Z " fill="#000000"/><text fill="#000000" font-family="sans-serif" font-size="14" lengthAdjust="spacing" textLength="48" x="189.4" y="27.8467">course</text><line style="stroke:#181818;stroke-width:0.5;" x1="140.5" x2="256.5" y1="39" y2="39"/><ellipse cx="150.5" cy="52.6484" fill="#000000" rx="3" ry="3" style="stroke:#000000;stroke-width:1.0;"/><text fill="#000000" font-family="sans-serif" font-size="14" lengthAdjust="spacing" textLength="65" x="159.5" y="55.9951">course-id</text><text fill="#000000" font-family="sans-serif" font-size="14" lengthAdjust="spacing" textLength="92" x="159.5" y="72.292">course-name</text><text fill="#000000" font-family="sans-serif" font-size="14" lengthAdjust="spacing" textLength="44" x="159.5" y="88.5889">faculty</text><text fill="#000000" font-family="sans-serif" font-size="14" lengthAdjust="spacing" textLength="87" x="159.5" y="104.8857">credit-points</text><line style="stroke:#181818;stroke-width:0.5;" x1="140.5" x2="256.5" y1="112.1875" y2="112.1875"/></g><!--MD5=[2159d546e4fdc44af037ea78dcdad4d0]
class enrollment--><g id="elem_enrollment"><rect codeLine="17" fill="#F1F1F1" height="129.4844" id="enrollment" rx="2.5" ry="2.5" style="stroke:#181818;stroke-width:0.5;" width="136" x="58.5" y="180"/><ellipse cx="87" cy="196" fill="#ADD1B2" rx="11" ry="11" style="stroke:#181818;stroke-width:1.0;"/><path d="M91.1094,202 L83.3906,202 L83.3906,189.6094 L91.1094,189.6094 L91.1094,191.7656 L85.8438,191.7656 L85.8438,194.4375 L90.6094,194.4375 L90.6094,196.5938 L85.8438,196.5938 L85.8438,199.8438 L91.1094,199.8438 L91.1094,202 Z " fill="#000000"/><text fill="#000000" font-family="sans-serif" font-size="14" lengthAdjust="spacing" textLength="74" x="104" y="200.8467">enrollment</text><line style="stroke:#181818;stroke-width:0.5;" x1="59.5" x2="193.5" y1="212" y2="212"/><text fill="#000000" font-family="sans-serif" font-size="14" lengthAdjust="spacing" textLength="4" x="78.5" y="228.9951"> </text><ellipse cx="69.5" cy="241.9453" fill="#000000" rx="3" ry="3" style="stroke:#000000;stroke-width:1.0;"/><text fill="#000000" font-family="sans-serif" font-size="14" lengthAdjust="spacing" textLength="71" x="78.5" y="245.292">student-id</text><ellipse cx="69.5" cy="258.2422" fill="#000000" rx="3" ry="3" style="stroke:#000000;stroke-width:1.0;"/><text fill="#000000" font-family="sans-serif" font-size="14" lengthAdjust="spacing" textLength="65" x="78.5" y="261.5889">course-id</text><line style="stroke:#181818;stroke-width:1.0;" x1="59.5" x2="193.5" y1="268.8906" y2="268.8906"/><ellipse cx="69.5" cy="282.5391" fill="#000000" rx="3" ry="3" style="stroke:#000000;stroke-width:1.0;"/><text fill="#000000" font-family="sans-serif" font-size="14" lengthAdjust="spacing" textLength="92" x="78.5" y="285.8857">date-enrolled</text><text fill="#000000" font-family="sans-serif" font-size="14" lengthAdjust="spacing" textLength="110" x="78.5" y="302.1826">date-completed</text></g><!--MD5=[41abdb7229b8622b2ba36a1871a4ace5]
link student to enrollment--><g id="link_student_enrollment"><path codeLine="27" d="M81.25,112 C81.25,112 81.25,171.86 81.25,171.86 " fill="none" id="student-to-enrollment" style="stroke:#181818;stroke-width:1.0;"/><line style="stroke:#181818;stroke-width:1.0;" x1="81.25" x2="87.25" y1="171.86" y2="179.86"/><line style="stroke:#181818;stroke-width:1.0;" x1="81.25" x2="75.25" y1="171.86" y2="179.86"/><line style="stroke:#181818;stroke-width:1.0;" x1="81.25" x2="81.25" y1="171.86" y2="179.86"/><ellipse cx="81.25" cy="165.86" fill="none" rx="4" ry="4" style="stroke:#181818;stroke-width:1.0;"/></g><!--MD5=[1b3e54de257a8e5f2a1ba1595a13bf3a]
link course to enrollment--><g id="link_course_enrollment"><path codeLine="28" d="M167,120.27 C167,120.27 167,171.72 167,171.72 " fill="none" id="course-to-enrollment" style="stroke:#181818;stroke-width:1.0;"/><line style="stroke:#181818;stroke-width:1.0;" x1="167" x2="173" y1="171.72" y2="179.72"/><line style="stroke:#181818;stroke-width:1.0;" x1="167" x2="161" y1="171.72" y2="179.72"/><line style="stroke:#181818;stroke-width:1.0;" x1="167" x2="167" y1="171.72" y2="179.72"/><ellipse cx="167" cy="165.72" fill="none" rx="4" ry="4" style="stroke:#181818;stroke-width:1.0;"/></g><!--MD5=[97e17fc3aff5fa61f3638ebe1b69faf6]
@startuml
skinparam linetype ortho
entity student {
  * student-id
- -
    name
    date-of-birth
}


entity course {
  * course-id
    course-name
    faculty
    credit-points
}

entity enrollment {

    * student-id
    * course-id
- -
    * date-enrolled
      date-completed
}


student - -o{ enrollment
course - -o{ enrollment
@enduml

PlantUML version 1.2022.12(Sun Oct 23 18:12:26 GMT 2022)
(GPL source distribution)
Java Runtime: OpenJDK Runtime Environment
JVM: OpenJDK 64-Bit Server VM
Default Encoding: UTF-8
Language: en
Country: US
--></g></svg>