<?xml version="1.0" encoding="us-ascii" standalone="no"?><svg xmlns="http://www.w3.org/2000/svg" xmlns:xlink="http://www.w3.org/1999/xlink" contentStyleType="text/css" height="200px" preserveAspectRatio="none" style="width:423px;height:200px;background:#FFFFFF;" version="1.1" viewBox="0 0 423 200" width="423px" zoomAndPan="magnify"><defs/><g><!--cluster wordlist--><g id="cluster_wordlist"><rect fill="none" height="80.28" rx="2.5" ry="2.5" style="stroke:#181818;stroke-width:1.0;" width="122" x="295.3" y="7"/><text fill="#000000" font-family="sans-serif" font-size="14" font-weight="bold" lengthAdjust="spacing" textLength="64" x="324.3" y="21.9951">wordlist</text></g><g id="elem_WL1"><ellipse cx="356.2974" cy="56.6391" fill="#F1F1F1" rx="45.1374" ry="14.6391" style="stroke:#181818;stroke-width:0.5;"/><text fill="#000000" font-family="sans-serif" font-size="14" lengthAdjust="spacing" textLength="47" x="329.7974" y="60.3867">stop_fr</text></g><g id="elem_Start"><ellipse cx="184.2977" cy="56.6351" fill="#F1F1F1" rx="91.5377" ry="25.5451" style="stroke:#181818;stroke-width:0.5;"/><text fill="#000000" font-family="sans-serif" font-size="14" font-style="italic" lengthAdjust="spacing" textLength="101" x="127.0878" y="52.2256">&#171;Input Token&#187;</text><text fill="#000000" font-family="sans-serif" font-size="14" lengthAdjust="spacing" textLength="116" x="119.5878" y="68.5225">je m'appelle John</text></g><g id="elem_je"><ellipse cx="52.3042" cy="168.5455" fill="#F1F1F1" rx="46.3042" ry="24.3855" style="stroke:#181818;stroke-width:0.5;"/><text fill="#000000" font-family="sans-serif" font-size="14" font-style="italic" lengthAdjust="spacing" textLength="66" x="19.3042" y="167.4949">&#171;Output&#187;</text><text fill="#000000" font-family="sans-serif" font-size="14" lengthAdjust="spacing" textLength="12" x="46.3042" y="183.7918">je</text></g><g id="elem_appelle"><ellipse cx="184.3035" cy="168.5455" fill="#F1F1F1" rx="50.3135" ry="26.3655" style="stroke:#181818;stroke-width:0.5;"/><text fill="#000000" font-family="sans-serif" font-size="14" font-style="italic" lengthAdjust="spacing" textLength="66" x="151.3035" y="164.5985">&#171;Output&#187;</text><text fill="#000000" font-family="sans-serif" font-size="14" lengthAdjust="spacing" textLength="50" x="159.3035" y="180.8953">appelle</text></g><g id="elem_John"><ellipse cx="317.3043" cy="168.5519" fill="#F1F1F1" rx="47.7143" ry="25.0819" style="stroke:#181818;stroke-width:0.5;"/><text fill="#000000" font-family="sans-serif" font-size="14" font-style="italic" lengthAdjust="spacing" textLength="66" x="284.3043" y="166.4484">&#171;Output&#187;</text><text fill="#000000" font-family="sans-serif" font-size="14" lengthAdjust="spacing" textLength="30" x="302.3043" y="182.7452">John</text></g><!--link Start to je--><g id="link_Start_je"><path d="M155.99,81.22 C133.92,99.6 103.4,125.01 81.19,143.5 " fill="none" id="Start-to-je" style="stroke:#181818;stroke-width:1.0;"/><polygon fill="#181818" points="77.59,147.34,87.0657,144.6547,81.4323,144.1405,81.9465,138.507,77.59,147.34" style="stroke:#181818;stroke-width:1.0;"/></g><!--link Start to appelle--><g id="link_Start_appelle"><path d="M184.3,82.58 C184.3,98.52 184.3,119.31 184.3,136.33 " fill="none" id="Start-to-appelle" style="stroke:#181818;stroke-width:1.0;"/><polygon fill="#181818" points="184.3,140.95,188.3,131.95,184.3,135.95,180.3,131.95,184.3,140.95" style="stroke:#181818;stroke-width:1.0;"/></g><!--link Start to John--><g id="link_Start_John"><path d="M212.84,81.22 C235.02,99.55 265.68,124.89 288.04,143.37 " fill="none" id="Start-to-John" style="stroke:#181818;stroke-width:1.0;"/><polygon fill="#181818" points="291.4,146.97,287.008,138.1546,287.5449,143.786,281.9136,144.3228,291.4,146.97" style="stroke:#181818;stroke-width:1.0;"/></g><!--SRC=[qyXALSXLJomeICt9ILNmoi_8qrH8B5O8BaaiAb6miV7CAoWjKGZ9pqxDixFZqiXArGGA-fUM04L1VAW-L4688KWYHQd99ObvwK3po_EBKd8oYqiKghaKWA2qE3KviJXLGQcu9ByWFgr82MHrk8yXLoqN5yG5khfs2Y1RaRamIv75m7O20000]--></g></svg>