<?xml version="1.0" encoding="UTF-8" standalone="no"?><svg xmlns="http://www.w3.org/2000/svg" xmlns:xlink="http://www.w3.org/1999/xlink" contentStyleType="text/css" height="442px" preserveAspectRatio="none" style="width:597px;height:442px;background:#FFFFFF;" version="1.1" viewBox="0 0 597 442" width="597px" zoomAndPan="magnify"><defs/><g><!--cluster student-bucket--><g id="cluster_student-bucket"><path d="M6,16 C6,6 293,6 293,6 C293,6 580,6 580,16 L580,415 C580,425 293,425 293,425 C293,425 6,425 6,415 L6,16 " fill="none" style="stroke:#181818;stroke-width:1.0;"/><path d="M6,16 C6,26 293,26 293,26 C293,26 580,26 580,16 " fill="none" style="stroke:#181818;stroke-width:1.0;"/><text fill="#000000" font-family="sans-serif" font-size="14" font-weight="bold" lengthAdjust="spacing" textLength="121" x="232.5" y="40.9951">student-bucket</text></g><!--cluster art-school-scope--><g id="cluster_art-school-scope"><polygon fill="none" points="30,74,40,64,556,64,556,391,546,401,30,401,30,74" style="stroke:#181818;stroke-width:1.0;"/><line style="stroke:#181818;stroke-width:1.0;" x1="546" x2="556" y1="74" y2="64"/><line style="stroke:#181818;stroke-width:1.0;" x1="30" x2="546" y1="74" y2="74"/><line style="stroke:#181818;stroke-width:1.0;" x1="546" x2="546" y1="74" y2="401"/><text fill="#000000" font-family="sans-serif" font-size="14" font-weight="bold" lengthAdjust="spacing" textLength="134" x="222" y="89.9951">art-school-scope</text></g><!--cluster student-record-collection--><g id="cluster_student-record-collection"><path d="M56.5,112 L259.5,112 A3.75,3.75 0 0 1 262,114.5 L269,134.2969 L274.5,134.2969 A2.5,2.5 0 0 1 277,136.7969 L277,374.5 A2.5,2.5 0 0 1 274.5,377 L56.5,377 A2.5,2.5 0 0 1 54,374.5 L54,114.5 A2.5,2.5 0 0 1 56.5,112 " fill="none" style="stroke:#000000;stroke-width:1.5;"/><line style="stroke:#000000;stroke-width:1.5;" x1="54" x2="269" y1="134.2969" y2="134.2969"/><text fill="#000000" font-family="sans-serif" font-size="14" font-weight="bold" lengthAdjust="spacing" textLength="202" x="58" y="126.9951">student-record-collection</text></g><!--cluster hilary--><g id="cluster_hilary"><path d="M78,157.5 L78,239.5 A2.5,2.5 0 0 0 80.5,242 L250.5,242 A2.5,2.5 0 0 0 253,239.5 L253,165 L243,155 L80.5,155 A2.5,2.5 0 0 0 78,157.5 " fill="none" style="stroke:#181818;stroke-width:1.0;"/><path d="M243,155 L243,162.5 A2.5,2.5 0 0 0 245.5,165 L253,165 " fill="none" style="stroke:#181818;stroke-width:1.0;"/><text fill="#000000" font-family="sans-serif" font-size="14" font-weight="bold" lengthAdjust="spacing" textLength="115" x="108" y="169.9951">Hilary's record</text></g><!--cluster ashley--><g id="cluster_ashley"><path d="M78,268.5 L78,350.5 A2.5,2.5 0 0 0 80.5,353 L250.5,353 A2.5,2.5 0 0 0 253,350.5 L253,276 L243,266 L80.5,266 A2.5,2.5 0 0 0 78,268.5 " fill="none" style="stroke:#181818;stroke-width:1.0;"/><path d="M243,266 L243,273.5 A2.5,2.5 0 0 0 245.5,276 L253,276 " fill="none" style="stroke:#181818;stroke-width:1.0;"/><text fill="#000000" font-family="sans-serif" font-size="14" font-weight="bold" lengthAdjust="spacing" textLength="124" x="103.5" y="280.9951">Ashley's record</text></g><!--cluster course-record-collection--><g id="cluster_course-record-collection"><path d="M303.5,124 L500.5,124 A3.75,3.75 0 0 1 503,126.5 L510,146.2969 L529.5,146.2969 A2.5,2.5 0 0 1 532,148.7969 L532,350.5 A2.5,2.5 0 0 1 529.5,353 L303.5,353 A2.5,2.5 0 0 1 301,350.5 L301,126.5 A2.5,2.5 0 0 1 303.5,124 " fill="none" style="stroke:#000000;stroke-width:1.5;"/><line style="stroke:#000000;stroke-width:1.5;" x1="301" x2="510" y1="146.2969" y2="146.2969"/><text fill="#000000" font-family="sans-serif" font-size="14" font-weight="bold" lengthAdjust="spacing" textLength="196" x="305" y="138.9951">course-record-collection</text></g><!--entity hilary_enrollment--><g id="elem_hilary_enrollment"><path d="M94,192.5 L94,223.7969 A2.5,2.5 0 0 0 96.5,226.2969 L234.5,226.2969 A2.5,2.5 0 0 0 237,223.7969 L237,200 L227,190 L96.5,190 A2.5,2.5 0 0 0 94,192.5 " fill="#F1F1F1" style="stroke:#181818;stroke-width:0.5;"/><path d="M227,190 L227,197.5 A2.5,2.5 0 0 0 229.5,200 L237,200 " fill="#F1F1F1" style="stroke:#181818;stroke-width:0.5;"/><text fill="#000000" font-family="sans-serif" font-size="14" lengthAdjust="spacing" textLength="123" x="104" y="212.9951">enrollment details</text></g><!--entity ashley_enrollment--><g id="elem_ashley_enrollment"><path d="M94,303.5 L94,334.7969 A2.5,2.5 0 0 0 96.5,337.2969 L234.5,337.2969 A2.5,2.5 0 0 0 237,334.7969 L237,311 L227,301 L96.5,301 A2.5,2.5 0 0 0 94,303.5 " fill="#F1F1F1" style="stroke:#181818;stroke-width:0.5;"/><path d="M227,301 L227,308.5 A2.5,2.5 0 0 0 229.5,311 L237,311 " fill="#F1F1F1" style="stroke:#181818;stroke-width:0.5;"/><text fill="#000000" font-family="sans-serif" font-size="14" lengthAdjust="spacing" textLength="123" x="104" y="323.9951">enrollment details</text></g><!--entity art_history--><g id="elem_art_history"><path d="M330,161.5 L330,192.7969 A2.5,2.5 0 0 0 332.5,195.2969 L500.5,195.2969 A2.5,2.5 0 0 0 503,192.7969 L503,169 L493,159 L332.5,159 A2.5,2.5 0 0 0 330,161.5 " fill="#F1F1F1" style="stroke:#181818;stroke-width:0.5;"/><path d="M493,159 L493,166.5 A2.5,2.5 0 0 0 495.5,169 L503,169 " fill="#F1F1F1" style="stroke:#181818;stroke-width:0.5;"/><text fill="#000000" font-family="sans-serif" font-size="14" lengthAdjust="spacing" textLength="153" x="340" y="181.9951">ART-HISTORY-000001</text></g><!--entity graphic_design--><g id="elem_graphic_design"><path d="M317,232.5 L317,263.7969 A2.5,2.5 0 0 0 319.5,266.2969 L513.5,266.2969 A2.5,2.5 0 0 0 516,263.7969 L516,240 L506,230 L319.5,230 A2.5,2.5 0 0 0 317,232.5 " fill="#F1F1F1" style="stroke:#181818;stroke-width:0.5;"/><path d="M506,230 L506,237.5 A2.5,2.5 0 0 0 508.5,240 L516,240 " fill="#F1F1F1" style="stroke:#181818;stroke-width:0.5;"/><text fill="#000000" font-family="sans-serif" font-size="14" lengthAdjust="spacing" textLength="179" x="327" y="252.9951">GRAPHIC-DESIGN-000003</text></g><!--entity fine_art--><g id="elem_fine_art"><path d="M344.5,303.5 L344.5,334.7969 A2.5,2.5 0 0 0 347,337.2969 L486,337.2969 A2.5,2.5 0 0 0 488.5,334.7969 L488.5,311 L478.5,301 L347,301 A2.5,2.5 0 0 0 344.5,303.5 " fill="#F1F1F1" style="stroke:#181818;stroke-width:0.5;"/><path d="M478.5,301 L478.5,308.5 A2.5,2.5 0 0 0 481,311 L488.5,311 " fill="#F1F1F1" style="stroke:#181818;stroke-width:0.5;"/><text fill="#000000" font-family="sans-serif" font-size="14" lengthAdjust="spacing" textLength="124" x="354.5" y="323.9951">FINE_ART-000002</text></g><!--link hilary_enrollment to art_history--><g id="link_hilary_enrollment_art_history"><path d="M237.19,199.2 C263.92,195.87 294.75,192.03 323.18,188.49 " fill="none" id="hilary_enrollment-to-art_history" style="stroke:#181818;stroke-width:1.0;"/><polygon fill="#181818" points="328.09,187.88,318.6674,185.0139,323.1277,188.4932,319.6485,192.9535,328.09,187.88" style="stroke:#181818;stroke-width:1.0;"/></g><!--link hilary_enrollment to graphic_design--><g id="link_hilary_enrollment_graphic_design"><path d="M237.19,219.36 C259.99,223.02 285.76,227.16 310.49,231.13 " fill="none" id="hilary_enrollment-to-graphic_design" style="stroke:#181818;stroke-width:1.0;"/><polygon fill="#181818" points="315.26,231.9,307.0172,226.5097,310.3246,231.0989,305.7354,234.4063,315.26,231.9" style="stroke:#181818;stroke-width:1.0;"/></g><!--link ashley_enrollment to fine_art--><g id="link_ashley_enrollment_fine_art"><path d="M237.19,319 C268.59,319 305.66,319 337.84,319 " fill="none" id="ashley_enrollment-to-fine_art" style="stroke:#181818;stroke-width:1.0;"/><polygon fill="#181818" points="342.69,319,333.69,315,337.69,319,333.69,323,342.69,319" style="stroke:#181818;stroke-width:1.0;"/></g><!--SRC=[dP4zRyCW48Pt_ueJIoUaVkoLh3QDlQILawMJHSpPHgKG0HwYol-z65ebhHqdxRiWmJrt3o2nTk0q6D6q3hWmM3cXLP8auCEPOrjc4OXr7KVbwBQhtj0H-8W5GvJcle0PHstLQYtzedVue-GxjPOSpQ6RdwODfvMMCiwTf08f90AGJ4XczbSM8ac0MMZ3dWVXH09BK1a_vjsF1OwE2McFwF9mEjccdx4YgMqb_f9YOU-_Kf4-bhhKgZ_zw9NkZCM_lZb9YmtDylNckNYbrqDkeg9nPIkiqsO_0o-Bz2NB7-ZZOfqlLv6_2tnZsAuLLSdHYaRDj7ZALujoa0ZmRO1heR3q1fTSV_J1GEdzhFuqSKPuz6K3DFByyki_0G00]--></g></svg>