<?xml version="1.0" encoding="UTF-8" standalone="no"?><svg xmlns="http://www.w3.org/2000/svg" xmlns:xlink="http://www.w3.org/1999/xlink" contentStyleType="text/css" height="500px" preserveAspectRatio="none" style="width:580px;height:500px;background:#FFFFFF;" version="1.1" viewBox="0 0 580 500" width="580px" zoomAndPan="magnify"><defs/><g><!--entity cluster--><g id="elem_cluster"><polygon fill="#F1F1F1" points="196,16,206,6,366,6,366,42.2969,356,52.2969,196,52.2969,196,16" style="stroke:#181818;stroke-width:0.5;"/><line style="stroke:#181818;stroke-width:0.5;" x1="356" x2="366" y1="16" y2="6"/><line style="stroke:#181818;stroke-width:0.5;" x1="196" x2="356" y1="16" y2="16"/><line style="stroke:#181818;stroke-width:0.5;" x1="356" x2="356" y1="16" y2="52.2969"/><text fill="#000000" font-family="sans-serif" font-size="14" lengthAdjust="spacing" textLength="130" x="211" y="38.9951">Couchbase cluster</text></g><!--entity bucket--><g id="elem_bucket"><path d="M246.5,127 C246.5,117 281,117 281,117 C281,117 315.5,117 315.5,127 L315.5,152.2969 C315.5,162.2969 281,162.2969 281,162.2969 C281,162.2969 246.5,162.2969 246.5,152.2969 L246.5,127 " fill="#F1F1F1" style="stroke:#181818;stroke-width:0.5;"/><path d="M246.5,127 C246.5,137 281,137 281,137 C281,137 315.5,137 315.5,127 " fill="none" style="stroke:#181818;stroke-width:0.5;"/><text fill="#000000" font-family="sans-serif" font-size="14" lengthAdjust="spacing" textLength="49" x="256.5" y="153.9951">Bucket</text></g><!--entity scope--><g id="elem_scope"><rect fill="#F1F1F1" height="36.2969" rx="2.5" ry="2.5" style="stroke:#181818;stroke-width:0.5;" width="64" x="249" y="236.5"/><text fill="#000000" font-family="sans-serif" font-size="14" lengthAdjust="spacing" textLength="44" x="259" y="259.4951">Scope</text></g><!--entity collection--><g id="elem_collection"><path d="M234.5,342.5 L275.5,342.5 A3.75,3.75 0 0 1 278,345 L285,363.5 L327.5,363.5 A2.5,2.5 0 0 1 330,366 L330,394.2969 A2.5,2.5 0 0 1 327.5,396.7969 L234.5,396.7969 A2.5,2.5 0 0 1 232,394.2969 L232,345 A2.5,2.5 0 0 1 234.5,342.5 " fill="#F1F1F1" style="stroke:#181818;stroke-width:0.5;"/><line style="stroke:#181818;stroke-width:0.5;" x1="232" x2="285" y1="363.5" y2="363.5"/><text fill="#000000" font-family="sans-serif" font-size="14" lengthAdjust="spacing" textLength="68" x="242" y="383.4951">Collection</text></g><!--entity document1--><g id="elem_document1"><path d="M87,459.5 L87,490.7969 A2.5,2.5 0 0 0 89.5,493.2969 L190.5,493.2969 A2.5,2.5 0 0 0 193,490.7969 L193,467 L183,457 L89.5,457 A2.5,2.5 0 0 0 87,459.5 " fill="#F1F1F1" style="stroke:#181818;stroke-width:0.5;"/><path d="M183,457 L183,464.5 A2.5,2.5 0 0 0 185.5,467 L193,467 " fill="#F1F1F1" style="stroke:#181818;stroke-width:0.5;"/><text fill="#000000" font-family="sans-serif" font-size="14" lengthAdjust="spacing" textLength="86" x="97" y="479.9951">Document 1</text></g><!--entity document2--><g id="elem_document2"><path d="M228,459.5 L228,490.7969 A2.5,2.5 0 0 0 230.5,493.2969 L331.5,493.2969 A2.5,2.5 0 0 0 334,490.7969 L334,467 L324,457 L230.5,457 A2.5,2.5 0 0 0 228,459.5 " fill="#F1F1F1" style="stroke:#181818;stroke-width:0.5;"/><path d="M324,457 L324,464.5 A2.5,2.5 0 0 0 326.5,467 L334,467 " fill="#F1F1F1" style="stroke:#181818;stroke-width:0.5;"/><text fill="#000000" font-family="sans-serif" font-size="14" lengthAdjust="spacing" textLength="86" x="238" y="479.9951">Document 2</text></g><!--entity document3--><g id="elem_document3"><path d="M369,459.5 L369,490.7969 A2.5,2.5 0 0 0 371.5,493.2969 L472.5,493.2969 A2.5,2.5 0 0 0 475,490.7969 L475,467 L465,457 L371.5,457 A2.5,2.5 0 0 0 369,459.5 " fill="#F1F1F1" style="stroke:#181818;stroke-width:0.5;"/><path d="M465,457 L465,464.5 A2.5,2.5 0 0 0 467.5,467 L475,467 " fill="#F1F1F1" style="stroke:#181818;stroke-width:0.5;"/><text fill="#000000" font-family="sans-serif" font-size="14" lengthAdjust="spacing" textLength="86" x="379" y="479.9951">Document 3</text></g><g id="elem_GMN15"><path d="M351,112 L351,135.5 L315.78,139.5 L351,143.5 L351,167.3984 A0,0 0 0 0 351,167.3984 L547,167.3984 A0,0 0 0 0 547,167.3984 L547,122 L537,112 L351,112 A0,0 0 0 0 351,112 " fill="#FEFFDD" style="stroke:#181818;stroke-width:0.5;"/><path d="M537,112 L537,122 L547,122 L537,112 " fill="#FEFFDD" style="stroke:#181818;stroke-width:0.5;"/><text fill="#000000" font-family="sans-serif" font-size="13" lengthAdjust="spacing" textLength="4" x="357" y="129.0669"> </text><text fill="#000000" font-family="sans-serif" font-size="13" lengthAdjust="spacing" textLength="175" x="357" y="144.1997">Maximum of  30 per cluster</text><text fill="#000000" font-family="sans-serif" font-size="13" lengthAdjust="spacing" textLength="4" x="357" y="159.3325"> </text></g><g id="elem_GMN18"><path d="M6,227 L6,282.3984 A0,0 0 0 0 6,282.3984 L214,282.3984 A0,0 0 0 0 214,282.3984 L214,258.5 L248.65,254.5 L214,250.5 L214,237 L204,227 L6,227 A0,0 0 0 0 6,227 " fill="#FEFFDD" style="stroke:#181818;stroke-width:0.5;"/><path d="M204,227 L204,237 L214,237 L204,227 " fill="#FEFFDD" style="stroke:#181818;stroke-width:0.5;"/><text fill="#000000" font-family="sans-serif" font-size="13" lengthAdjust="spacing" textLength="4" x="12" y="244.0669"> </text><text fill="#000000" font-family="sans-serif" font-size="13" lengthAdjust="spacing" textLength="187" x="12" y="259.1997">Maximum of 1000 per cluster</text><text fill="#000000" font-family="sans-serif" font-size="13" lengthAdjust="spacing" textLength="4" x="12" y="274.3325"> </text></g><g id="elem_GMN21"><path d="M365,342 L365,365.5 L330.2,369.5 L365,373.5 L365,397.3984 A0,0 0 0 0 365,397.3984 L573,397.3984 A0,0 0 0 0 573,397.3984 L573,352 L563,342 L365,342 A0,0 0 0 0 365,342 " fill="#FEFFDD" style="stroke:#181818;stroke-width:0.5;"/><path d="M563,342 L563,352 L573,352 L563,342 " fill="#FEFFDD" style="stroke:#181818;stroke-width:0.5;"/><text fill="#000000" font-family="sans-serif" font-size="13" lengthAdjust="spacing" textLength="4" x="371" y="359.0669"> </text><text fill="#000000" font-family="sans-serif" font-size="13" lengthAdjust="spacing" textLength="187" x="371" y="374.1997">Maximum of 1000 per cluster</text><text fill="#000000" font-family="sans-serif" font-size="13" lengthAdjust="spacing" textLength="4" x="371" y="389.3325"> </text></g><!--link cluster to bucket--><g id="link_cluster_bucket"><path d="M281,52.48 C281,69.29 281,92.37 281,110.4 " fill="none" id="cluster-to-bucket" style="stroke:#181818;stroke-width:1.0;"/><polygon fill="#181818" points="281,115.27,285,106.27,281,110.27,277,106.27,281,115.27" style="stroke:#181818;stroke-width:1.0;"/></g><!--link bucket to scope--><g id="link_bucket_scope"><path d="M281,162.29 C281,181.65 281,209.89 281,229.8 " fill="none" id="bucket-to-scope" style="stroke:#181818;stroke-width:1.0;"/><polygon fill="#181818" points="281,234.7,285,225.7,281,229.7,277,225.7,281,234.7" style="stroke:#181818;stroke-width:1.0;"/></g><!--link scope to collection--><g id="link_scope_collection"><path d="M281,272.66 C281,289.38 281,315.21 281,335.84 " fill="none" id="scope-to-collection" style="stroke:#181818;stroke-width:1.0;"/><polygon fill="#181818" points="281,340.83,285,331.83,281,335.83,277,331.83,281,340.83" style="stroke:#181818;stroke-width:1.0;"/></g><!--link collection to document1--><g id="link_collection_document1"><path d="M245.05,396.89 C221.34,414.3 190.69,436.79 168.62,452.99 " fill="none" id="collection-to-document1" style="stroke:#181818;stroke-width:1.0;"/><polygon fill="#181818" points="164.71,455.86,174.3357,453.7752,168.7456,452.9081,169.6127,447.3181,164.71,455.86" style="stroke:#181818;stroke-width:1.0;"/></g><!--link collection to document2--><g id="link_collection_document2"><path d="M281,396.89 C281,413.34 281,434.34 281,450.27 " fill="none" id="collection-to-document2" style="stroke:#181818;stroke-width:1.0;"/><polygon fill="#181818" points="281,455.25,285,446.25,281,450.25,277,446.25,281,455.25" style="stroke:#181818;stroke-width:1.0;"/></g><!--link collection to document3--><g id="link_collection_document3"><path d="M316.95,396.89 C340.66,414.3 371.31,436.79 393.38,452.99 " fill="none" id="collection-to-document3" style="stroke:#181818;stroke-width:1.0;"/><polygon fill="#181818" points="397.29,455.86,392.3873,447.3181,393.2544,452.9081,387.6643,453.7752,397.29,455.86" style="stroke:#181818;stroke-width:1.0;"/></g><!--SRC=[ZP1D3y8W38Rl_HNDxalsSVUWNZtv2nWKNMHWDaZy-KBtwOo97A3bwLjUQfqYp4uko7iZ1a9fmk2fpr0CSmoWX1TCisEG3_9C6mu1Uf9Us9k9z2hTanWEAGBGpYZgKtzZObdhxDXuII4ktIRjsSdGaVLOSecQqdAFgmzSxN7zWMk0wHEOvuVPydZmpUYJTyutpjQGoMhe1wX-WMZ2Ea_OjxUxHwUNoU55lDekTEaEwmAVqUOySmIo2fDkKXlIB9ucYrjnMHGxzPTyUNmx-x-Rl040]--></g></svg>