<?xml version="1.0" encoding="us-ascii" standalone="no"?><svg xmlns="http://www.w3.org/2000/svg" xmlns:xlink="http://www.w3.org/1999/xlink" contentStyleType="text/css" height="316px" preserveAspectRatio="none" style="width:263px;height:316px;background:#FFFFFF;" version="1.1" viewBox="0 0 263 316" width="263px" zoomAndPan="magnify"><defs/><g><!--class student--><g id="elem_student"><rect codeLine="2" fill="#F1F1F1" height="96.8906" id="student" rx="2.5" ry="2.5" style="stroke:#181818;stroke-width:0.5;" width="97" x="7" y="15.15"/><ellipse cx="26.95" cy="31.15" fill="#ADD1B2" rx="11" ry="11" style="stroke:#181818;stroke-width:1.0;"/><path d="M31.0594,37.15 L23.3406,37.15 L23.3406,24.7594 L31.0594,24.7594 L31.0594,26.9156 L25.7938,26.9156 L25.7938,29.5875 L30.5594,29.5875 L30.5594,31.7438 L25.7938,31.7438 L25.7938,34.9938 L31.0594,34.9938 L31.0594,37.15 Z " fill="#000000"/><text fill="#000000" font-family="sans-serif" font-size="14" lengthAdjust="spacing" textLength="54" x="42.05" y="35.9967">student</text><line style="stroke:#181818;stroke-width:0.5;" x1="8" x2="103" y1="47.15" y2="47.15"/><ellipse cx="18" cy="60.7984" fill="#000000" rx="3" ry="3" style="stroke:#000000;stroke-width:1.0;"/><text fill="#000000" font-family="sans-serif" font-size="14" lengthAdjust="spacing" textLength="71" x="27" y="64.1451">student-id</text><line style="stroke:#181818;stroke-width:1.0;" x1="8" x2="103" y1="71.4469" y2="71.4469"/><text fill="#000000" font-family="sans-serif" font-size="14" lengthAdjust="spacing" textLength="39" x="13" y="88.442">name</text><text fill="#000000" font-family="sans-serif" font-size="14" lengthAdjust="spacing" textLength="85" x="13" y="104.7389">date-of-birth</text></g><!--class course--><g id="elem_course"><rect codeLine="10" fill="#F1F1F1" height="113.1875" id="course" rx="2.5" ry="2.5" style="stroke:#181818;stroke-width:0.5;" width="118" x="138.5" y="7"/><ellipse cx="170.6" cy="23" fill="#ADD1B2" rx="11" ry="11" style="stroke:#181818;stroke-width:1.0;"/><path d="M174.7094,29 L166.9906,29 L166.9906,16.6094 L174.7094,16.6094 L174.7094,18.7656 L169.4438,18.7656 L169.4438,21.4375 L174.2094,21.4375 L174.2094,23.5938 L169.4438,23.5938 L169.4438,26.8438 L174.7094,26.8438 L174.7094,29 Z " fill="#000000"/><text fill="#000000" font-family="sans-serif" font-size="14" lengthAdjust="spacing" textLength="48" x="188.4" y="27.8467">course</text><line style="stroke:#181818;stroke-width:0.5;" x1="139.5" x2="255.5" y1="39" y2="39"/><ellipse cx="149.5" cy="52.6484" fill="#000000" rx="3" ry="3" style="stroke:#000000;stroke-width:1.0;"/><text fill="#000000" font-family="sans-serif" font-size="14" lengthAdjust="spacing" textLength="65" x="158.5" y="55.9951">course-id</text><text fill="#000000" font-family="sans-serif" font-size="14" lengthAdjust="spacing" textLength="92" x="158.5" y="72.292">course-name</text><text fill="#000000" font-family="sans-serif" font-size="14" lengthAdjust="spacing" textLength="44" x="158.5" y="88.5889">faculty</text><text fill="#000000" font-family="sans-serif" font-size="14" lengthAdjust="spacing" textLength="87" x="158.5" y="104.8857">credit-points</text><line style="stroke:#181818;stroke-width:0.5;" x1="139.5" x2="255.5" y1="112.1875" y2="112.1875"/></g><!--class enrollment--><g id="elem_enrollment"><rect codeLine="17" fill="#F1F1F1" height="129.4844" id="enrollment" rx="2.5" ry="2.5" style="stroke:#181818;stroke-width:0.5;" width="136" x="58.5" y="180.19"/><ellipse cx="87" cy="196.19" fill="#ADD1B2" rx="11" ry="11" style="stroke:#181818;stroke-width:1.0;"/><path d="M91.1094,202.19 L83.3906,202.19 L83.3906,189.7994 L91.1094,189.7994 L91.1094,191.9556 L85.8438,191.9556 L85.8438,194.6275 L90.6094,194.6275 L90.6094,196.7838 L85.8438,196.7838 L85.8438,200.0338 L91.1094,200.0338 L91.1094,202.19 Z " fill="#000000"/><text fill="#000000" font-family="sans-serif" font-size="14" lengthAdjust="spacing" textLength="74" x="104" y="201.0367">enrollment</text><line style="stroke:#181818;stroke-width:0.5;" x1="59.5" x2="193.5" y1="212.19" y2="212.19"/><text fill="#000000" font-family="sans-serif" font-size="14" lengthAdjust="spacing" textLength="4" x="78.5" y="229.1851">&#160;</text><ellipse cx="69.5" cy="242.1353" fill="#000000" rx="3" ry="3" style="stroke:#000000;stroke-width:1.0;"/><text fill="#000000" font-family="sans-serif" font-size="14" lengthAdjust="spacing" textLength="71" x="78.5" y="245.482">student-id</text><ellipse cx="69.5" cy="258.4322" fill="#000000" rx="3" ry="3" style="stroke:#000000;stroke-width:1.0;"/><text fill="#000000" font-family="sans-serif" font-size="14" lengthAdjust="spacing" textLength="65" x="78.5" y="261.7789">course-id</text><line style="stroke:#181818;stroke-width:1.0;" x1="59.5" x2="193.5" y1="269.0806" y2="269.0806"/><ellipse cx="69.5" cy="282.7291" fill="#000000" rx="3" ry="3" style="stroke:#000000;stroke-width:1.0;"/><text fill="#000000" font-family="sans-serif" font-size="14" lengthAdjust="spacing" textLength="92" x="78.5" y="286.0757">date-enrolled</text><text fill="#000000" font-family="sans-serif" font-size="14" lengthAdjust="spacing" textLength="110" x="78.5" y="302.3726">date-completed</text></g><!--link student to enrollment--><g id="link_student_enrollment"><path codeLine="27" d="M81.25,112.19 C81.25,112.19 81.25,170.83 81.25,170.83 " fill="none" id="student-to-enrollment" style="stroke:#181818;stroke-width:1.0;"/><line style="stroke:#181818;stroke-width:1.0;" x1="81.25" x2="87.25" y1="170.83" y2="178.83"/><line style="stroke:#181818;stroke-width:1.0;" x1="81.25" x2="75.25" y1="170.83" y2="178.83"/><line style="stroke:#181818;stroke-width:1.0;" x1="81.25" x2="81.25" y1="170.83" y2="178.83"/><ellipse cx="81.25" cy="164.83" fill="none" rx="4" ry="4" style="stroke:#181818;stroke-width:1.0;"/></g><!--link course to enrollment--><g id="link_course_enrollment"><path codeLine="28" d="M166.5,120.47 C166.5,120.47 166.5,170.71 166.5,170.71 " fill="none" id="course-to-enrollment" style="stroke:#181818;stroke-width:1.0;"/><line style="stroke:#181818;stroke-width:1.0;" x1="166.5" x2="172.5" y1="170.71" y2="178.71"/><line style="stroke:#181818;stroke-width:1.0;" x1="166.5" x2="160.5" y1="170.71" y2="178.71"/><line style="stroke:#181818;stroke-width:1.0;" x1="166.5" x2="166.5" y1="170.71" y2="178.71"/><ellipse cx="166.5" cy="164.71" fill="none" rx="4" ry="4" style="stroke:#181818;stroke-width:1.0;"/></g><!--SRC=[NOzD3iGW28Ntde9r4mxbL9eXesAKBffcxZvQTVvsyE0zFig3OxBP1l0SIOz485dlOYWgwm55TrTBE0t0CZjaPn2h0X1jeAjmLWbbmnjNktaQCnDMsNEX4T2Rvc-UqRqpDhlkNey-o-HOCGb7BIrln57CudteJDVc3rONFcS6vjBvkfdwsc1U9IHFMiK6FVz5bFFhbXbV_Cal]--></g></svg>