<?xml version="1.0" encoding="us-ascii" standalone="no"?><svg xmlns="http://www.w3.org/2000/svg" xmlns:xlink="http://www.w3.org/1999/xlink" contentStyleType="text/css" height="442px" preserveAspectRatio="none" style="width:597px;height:442px;background:#FFFFFF;" version="1.1" viewBox="0 0 597 442" width="597px" zoomAndPan="magnify"><defs/><g><!--cluster student-bucket--><g id="cluster_student-bucket"><path d="M6,16 C6,6 293,6 293,6 C293,6 580,6 580,16 L580,415 C580,425 293,425 293,425 C293,425 6,425 6,415 L6,16 " fill="none" style="stroke:#181818;stroke-width:1.0;"/><path d="M6,16 C6,26 293,26 293,26 C293,26 580,26 580,16 " fill="none" style="stroke:#181818;stroke-width:1.0;"/><text fill="#000000" font-family="sans-serif" font-size="14" font-weight="bold" lengthAdjust="spacing" textLength="121" x="232.5" y="40.9951">student-bucket</text></g><!--cluster art-school-scope--><g id="cluster_art-school-scope"><polygon fill="none" points="30,74,40,64,556,64,556,391,546,401,30,401,30,74" style="stroke:#181818;stroke-width:1.0;"/><line style="stroke:#181818;stroke-width:1.0;" x1="546" x2="556" y1="74" y2="64"/><line style="stroke:#181818;stroke-width:1.0;" x1="30" x2="546" y1="74" y2="74"/><line style="stroke:#181818;stroke-width:1.0;" x1="546" x2="546" y1="74" y2="401"/><text fill="#000000" font-family="sans-serif" font-size="14" font-weight="bold" lengthAdjust="spacing" textLength="134" x="222" y="89.9951">art-school-scope</text></g><!--cluster student-record-collection--><g id="cluster_student-record-collection"><path d="M56.5,112 L259.5,112 A3.75,3.75 0 0 1 262,114.5 L269,134.2969 L274.5,134.2969 A2.5,2.5 0 0 1 277,136.7969 L277,374.5 A2.5,2.5 0 0 1 274.5,377 L56.5,377 A2.5,2.5 0 0 1 54,374.5 L54,114.5 A2.5,2.5 0 0 1 56.5,112 " fill="none" style="stroke:#000000;stroke-width:1.5;"/><line style="stroke:#000000;stroke-width:1.5;" x1="54" x2="269" y1="134.2969" y2="134.2969"/><text fill="#000000" font-family="sans-serif" font-size="14" font-weight="bold" lengthAdjust="spacing" textLength="202" x="58" y="126.9951">student-record-collection</text></g><!--cluster hilary--><g id="cluster_hilary"><path d="M78,157.5 L78,239.5 A2.5,2.5 0 0 0 80.5,242 L250.5,242 A2.5,2.5 0 0 0 253,239.5 L253,165 L243,155 L80.5,155 A2.5,2.5 0 0 0 78,157.5 " fill="none" style="stroke:#181818;stroke-width:1.0;"/><path d="M243,155 L243,162.5 A2.5,2.5 0 0 0 245.5,165 L253,165 " fill="none" style="stroke:#181818;stroke-width:1.0;"/><text fill="#000000" font-family="sans-serif" font-size="14" font-weight="bold" lengthAdjust="spacing" textLength="115" x="108" y="169.9951">Hilary's record</text></g><!--cluster ashley--><g id="cluster_ashley"><path d="M78,268.5 L78,350.5 A2.5,2.5 0 0 0 80.5,353 L250.5,353 A2.5,2.5 0 0 0 253,350.5 L253,276 L243,266 L80.5,266 A2.5,2.5 0 0 0 78,268.5 " fill="none" style="stroke:#181818;stroke-width:1.0;"/><path d="M243,266 L243,273.5 A2.5,2.5 0 0 0 245.5,276 L253,276 " fill="none" style="stroke:#181818;stroke-width:1.0;"/><text fill="#000000" font-family="sans-serif" font-size="14" font-weight="bold" lengthAdjust="spacing" textLength="124" x="103.5" y="280.9951">Ashley's record</text></g><!--cluster course-record-collection--><g id="cluster_course-record-collection"><path d="M303.5,124 L500.5,124 A3.75,3.75 0 0 1 503,126.5 L510,146.2969 L529.5,146.2969 A2.5,2.5 0 0 1 532,148.7969 L532,350.5 A2.5,2.5 0 0 1 529.5,353 L303.5,353 A2.5,2.5 0 0 1 301,350.5 L301,126.5 A2.5,2.5 0 0 1 303.5,124 " fill="none" style="stroke:#000000;stroke-width:1.5;"/><line style="stroke:#000000;stroke-width:1.5;" x1="301" x2="510" y1="146.2969" y2="146.2969"/><text fill="#000000" font-family="sans-serif" font-size="14" font-weight="bold" lengthAdjust="spacing" textLength="196" x="305" y="138.9951">course-record-collection</text></g><!--entity hilary_enrollment--><g id="elem_hilary_enrollment"><path d="M94,192.35 L94,223.6469 A2.5,2.5 0 0 0 96.5,226.1469 L234.5,226.1469 A2.5,2.5 0 0 0 237,223.6469 L237,199.85 L227,189.85 L96.5,189.85 A2.5,2.5 0 0 0 94,192.35 " fill="#F1F1F1" style="stroke:#181818;stroke-width:0.5;"/><path d="M227,189.85 L227,197.35 A2.5,2.5 0 0 0 229.5,199.85 L237,199.85 " fill="#F1F1F1" style="stroke:#181818;stroke-width:0.5;"/><text fill="#000000" font-family="sans-serif" font-size="14" lengthAdjust="spacing" textLength="123" x="104" y="212.8451">enrollment details</text></g><!--entity ashley_enrollment--><g id="elem_ashley_enrollment"><path d="M94,303.35 L94,334.6469 A2.5,2.5 0 0 0 96.5,337.1469 L234.5,337.1469 A2.5,2.5 0 0 0 237,334.6469 L237,310.85 L227,300.85 L96.5,300.85 A2.5,2.5 0 0 0 94,303.35 " fill="#F1F1F1" style="stroke:#181818;stroke-width:0.5;"/><path d="M227,300.85 L227,308.35 A2.5,2.5 0 0 0 229.5,310.85 L237,310.85 " fill="#F1F1F1" style="stroke:#181818;stroke-width:0.5;"/><text fill="#000000" font-family="sans-serif" font-size="14" lengthAdjust="spacing" textLength="123" x="104" y="323.8451">enrollment details</text></g><!--entity art_history--><g id="elem_art_history"><path d="M330,161.35 L330,192.6469 A2.5,2.5 0 0 0 332.5,195.1469 L500.5,195.1469 A2.5,2.5 0 0 0 503,192.6469 L503,168.85 L493,158.85 L332.5,158.85 A2.5,2.5 0 0 0 330,161.35 " fill="#F1F1F1" style="stroke:#181818;stroke-width:0.5;"/><path d="M493,158.85 L493,166.35 A2.5,2.5 0 0 0 495.5,168.85 L503,168.85 " fill="#F1F1F1" style="stroke:#181818;stroke-width:0.5;"/><text fill="#000000" font-family="sans-serif" font-size="14" lengthAdjust="spacing" textLength="153" x="340" y="181.8451">ART-HISTORY-000001</text></g><!--entity graphic_design--><g id="elem_graphic_design"><path d="M317,232.35 L317,263.6469 A2.5,2.5 0 0 0 319.5,266.1469 L513.5,266.1469 A2.5,2.5 0 0 0 516,263.6469 L516,239.85 L506,229.85 L319.5,229.85 A2.5,2.5 0 0 0 317,232.35 " fill="#F1F1F1" style="stroke:#181818;stroke-width:0.5;"/><path d="M506,229.85 L506,237.35 A2.5,2.5 0 0 0 508.5,239.85 L516,239.85 " fill="#F1F1F1" style="stroke:#181818;stroke-width:0.5;"/><text fill="#000000" font-family="sans-serif" font-size="14" lengthAdjust="spacing" textLength="179" x="327" y="252.8451">GRAPHIC-DESIGN-000003</text></g><!--entity fine_art--><g id="elem_fine_art"><path d="M344.5,303.35 L344.5,334.6469 A2.5,2.5 0 0 0 347,337.1469 L486,337.1469 A2.5,2.5 0 0 0 488.5,334.6469 L488.5,310.85 L478.5,300.85 L347,300.85 A2.5,2.5 0 0 0 344.5,303.35 " fill="#F1F1F1" style="stroke:#181818;stroke-width:0.5;"/><path d="M478.5,300.85 L478.5,308.35 A2.5,2.5 0 0 0 481,310.85 L488.5,310.85 " fill="#F1F1F1" style="stroke:#181818;stroke-width:0.5;"/><text fill="#000000" font-family="sans-serif" font-size="14" lengthAdjust="spacing" textLength="124" x="354.5" y="323.8451">FINE_ART-000002</text></g><!--link hilary_enrollment to art_history--><g id="link_hilary_enrollment_art_history"><path d="M237.19,199.2 C264.15,195.84 295.27,191.97 323.9,188.4 " fill="none" id="hilary_enrollment-to-art_history" style="stroke:#181818;stroke-width:1.0;"/><polygon fill="#181818" points="328.59,187.7,319.1664,184.8372,323.628,188.3149,320.1502,192.7764,328.59,187.7" style="stroke:#181818;stroke-width:1.0;"/></g><!--link hilary_enrollment to graphic_design--><g id="link_hilary_enrollment_graphic_design"><path d="M237.19,219.36 C260.18,223.05 286.2,227.23 311.12,231.23 " fill="none" id="hilary_enrollment-to-graphic_design" style="stroke:#181818;stroke-width:1.0;"/><polygon fill="#181818" points="315.75,232.14,307.492,226.773,310.8124,231.3528,306.2325,234.6732,315.75,232.14" style="stroke:#181818;stroke-width:1.0;"/></g><!--link ashley_enrollment to fine_art--><g id="link_ashley_enrollment_fine_art"><path d="M237.19,319 C268.73,319 305.97,319 338.24,319 " fill="none" id="ashley_enrollment-to-fine_art" style="stroke:#181818;stroke-width:1.0;"/><polygon fill="#181818" points="343.2,319,334.2,315,338.2,319,334.2,323,343.2,319" style="stroke:#181818;stroke-width:1.0;"/></g><!--SRC=[dP4zRyCW48Pt_ueJIoUaVkoLh3QDlQILawMJHSpPHgKG0HwYol-z65ebhHqdxRiWmJrt3o2nTk0q6D6q3hWmM3cXLP8auCEPOrjc4OXr7KVbwBQhtj0H-8W5GvJcle0PHstLQYtzedVue-GxjPOSpQ6RdwODfvMMCiwTf08f90AGJ4XczbSM8ac0MMZ3dWVXH09BK1a_vjsF1OwE2McFwF9mEjccdx4YgMqb_f9YOU-_Kf4-bhhKgZ_zw9NkZCM_lZb9YmtDylNckNYbrqDkeg9nPIkiqsO_0o-Bz2NB7-ZZOfqlLv6_2tnZsAuLLSdHYaRDj7ZALujoa0ZmRO1heR3q1fTSV_J1GEdzhFuqSKPuz6K3DFByyki_0G00]--></g></svg>