<?xml version="1.0" encoding="UTF-8"?>
<svg xmlns="http://www.w3.org/2000/svg" width="647" height="231">
   <defs>
      <style type="text/css">
    @namespace "http://www.w3.org/2000/svg";
    .line                 {fill: none; stroke: #332900; stroke-width: 1;}
    .bold-line            {stroke: #141000; shape-rendering: crispEdges; stroke-width: 2;}
    .thin-line            {stroke: #1F1800; shape-rendering: crispEdges}
    .filled               {fill: #332900; stroke: none;}
    text.terminal         {font-family: Verdana, Sans-serif;
                            font-size: 12px;
                            fill: #141000;
                            font-weight: bold;
                          }
    text.nonterminal      {font-family: Verdana, Sans-serif;
                            font-size: 12px;
                            fill: #1A1400;
                            font-weight: normal;
                          }
    text.regexp           {font-family: Verdana, Sans-serif;
                            font-size: 12px;
                            fill: #1F1800;
                            font-weight: normal;
                          }
    rect, circle, polygon {fill: #332900; stroke: #332900;}
    rect.terminal         {fill: #FFDB4D; stroke: #332900; stroke-width: 1;}
    rect.nonterminal      {fill: #FFEC9E; stroke: #332900; stroke-width: 1;}
    rect.text             {fill: none; stroke: none;}
    polygon.regexp        {fill: #FFF4C7; stroke: #332900; stroke-width: 1;}
  </style>
   </defs>
   <polygon points="9 17 1 13 1 21"/>
   <polygon points="17 17 9 13 9 21"/>
   <a xmlns:xlink="http://www.w3.org/1999/xlink"
       xlink:href="#aggregate-function-name"
       xlink:title="aggregate-function-name">
      <rect x="31" y="3" width="182" height="32"/>
      <rect x="29" y="1" width="182" height="32" class="nonterminal"/>
      <text class="nonterminal" x="39" y="21">aggregate-function-name</text>
   </a>
   <rect x="233" y="3" width="26" height="32" rx="10"/>
   <rect x="231"
          y="1"
          width="26"
          height="32"
          class="terminal"
          rx="10"/>
   <text class="terminal" x="241" y="21">(</text>
   <a xmlns:xlink="http://www.w3.org/1999/xlink"
       xlink:href="#aggregate-quantifier"
       xlink:title="aggregate-quantifier">
      <rect x="319" y="35" width="152" height="32"/>
      <rect x="317" y="33" width="152" height="32" class="nonterminal"/>
      <text class="nonterminal" x="327" y="53">aggregate-quantifier</text>
   </a>
   <a xmlns:xlink="http://www.w3.org/1999/xlink"
       xlink:href="#expr"
       xlink:title="expr">
      <rect x="511" y="3" width="48" height="32"/>
      <rect x="509" y="1" width="48" height="32" class="nonterminal"/>
      <text class="nonterminal" x="519" y="21">expr</text>
   </a>
   <a xmlns:xlink="http://www.w3.org/1999/xlink"
       xlink:href="#path"
       xlink:title="path">
      <rect x="319" y="111" width="48" height="32"/>
      <rect x="317" y="109" width="48" height="32" class="nonterminal"/>
      <text class="nonterminal" x="327" y="129">path</text>
   </a>
   <rect x="387" y="111" width="24" height="32" rx="10"/>
   <rect x="385"
          y="109"
          width="24"
          height="32"
          class="terminal"
          rx="10"/>
   <text class="terminal" x="395" y="129">.</text>
   <rect x="451" y="79" width="28" height="32" rx="10"/>
   <rect x="449"
          y="77"
          width="28"
          height="32"
          class="terminal"
          rx="10"/>
   <text class="terminal" x="459" y="97">*</text>
   <rect x="599" y="3" width="26" height="32" rx="10"/>
   <rect x="597"
          y="1"
          width="26"
          height="32"
          class="terminal"
          rx="10"/>
   <text class="terminal" x="607" y="21">)</text>
   <a xmlns:xlink="http://www.w3.org/1999/xlink"
       xlink:href="#filter-clause"
       xlink:title="filter-clause">
      <rect x="351" y="197" width="94" height="32"/>
      <rect x="349" y="195" width="94" height="32" class="nonterminal"/>
      <text class="nonterminal" x="359" y="215">filter-clause</text>
   </a>
   <a xmlns:xlink="http://www.w3.org/1999/xlink"
       xlink:href="#over-clause"
       xlink:title="over-clause">
      <rect x="505" y="197" width="94" height="32"/>
      <rect x="503" y="195" width="94" height="32" class="nonterminal"/>
      <text class="nonterminal" x="513" y="215">over-clause</text>
   </a>
   <path class="line"
          d="m17 17 h2 m0 0 h10 m182 0 h10 m0 0 h10 m26 0 h10 m40 0 h10 m0 0 h162 m-192 0 h20 m172 0 h20 m-212 0 q10 0 10 10 m192 0 q0 -10 10 -10 m-202 10 v12 m192 0 v-12 m-192 12 q0 10 10 10 m172 0 q10 0 10 -10 m-182 10 h10 m152 0 h10 m20 -32 h10 m48 0 h10 m-300 0 h20 m280 0 h20 m-320 0 q10 0 10 10 m300 0 q0 -10 10 -10 m-310 10 v56 m300 0 v-56 m-300 56 q0 10 10 10 m280 0 q10 0 10 -10 m-270 10 h10 m0 0 h102 m-132 0 h20 m112 0 h20 m-152 0 q10 0 10 10 m132 0 q0 -10 10 -10 m-142 10 v12 m132 0 v-12 m-132 12 q0 10 10 10 m112 0 q10 0 10 -10 m-122 10 h10 m48 0 h10 m0 0 h10 m24 0 h10 m20 -32 h10 m28 0 h10 m0 0 h80 m20 -76 h10 m26 0 h10 m2 0 l2 0 m2 0 l2 0 m2 0 l2 0 m-338 162 l2 0 m2 0 l2 0 m2 0 l2 0 m22 0 h10 m0 0 h104 m-134 0 h20 m114 0 h20 m-154 0 q10 0 10 10 m134 0 q0 -10 10 -10 m-144 10 v12 m134 0 v-12 m-134 12 q0 10 10 10 m114 0 q10 0 10 -10 m-124 10 h10 m94 0 h10 m40 -32 h10 m0 0 h104 m-134 0 h20 m114 0 h20 m-154 0 q10 0 10 10 m134 0 q0 -10 10 -10 m-144 10 v12 m134 0 v-12 m-134 12 q0 10 10 10 m114 0 q10 0 10 -10 m-124 10 h10 m94 0 h10 m23 -32 h-3"/>
   <polygon points="637 179 645 175 645 183"/>
   <polygon points="637 179 629 175 629 183"/>
</svg>
