<?xml version="1.0" encoding="UTF-8"?>
<svg xmlns="http://www.w3.org/2000/svg" width="689" height="147">
   <defs>
      <style type="text/css">
    @namespace "http://www.w3.org/2000/svg";
    .line                 {fill: none; stroke: #332900; stroke-width: 1;}
    .bold-line            {stroke: #141000; shape-rendering: crispEdges; stroke-width: 2;}
    .thin-line            {stroke: #1F1800; shape-rendering: crispEdges}
    .filled               {fill: #332900; stroke: none;}
    text.terminal         {font-family: Verdana, Sans-serif;
                            font-size: 12px;
                            fill: #141000;
                            font-weight: bold;
                          }
    text.nonterminal      {font-family: Verdana, Sans-serif;
                            font-size: 12px;
                            fill: #1A1400;
                            font-weight: normal;
                          }
    text.regexp           {font-family: Verdana, Sans-serif;
                            font-size: 12px;
                            fill: #1F1800;
                            font-weight: normal;
                          }
    rect, circle, polygon {fill: #332900; stroke: #332900;}
    rect.terminal         {fill: #FFDB4D; stroke: #332900; stroke-width: 1;}
    rect.nonterminal      {fill: #FFEC9E; stroke: #332900; stroke-width: 1;}
    rect.text             {fill: none; stroke: none;}
    polygon.regexp        {fill: #FFF4C7; stroke: #332900; stroke-width: 1;}
  </style>
   </defs>
   <polygon points="9 17 1 13 1 21"/>
   <polygon points="17 17 9 13 9 21"/>
   <rect x="31" y="3" width="62" height="32" rx="10"/>
   <rect x="29"
          y="1"
          width="62"
          height="32"
          class="terminal"
          rx="10"/>
   <text class="terminal" x="39" y="21">ALTER</text>
   <rect x="113" y="3" width="64" height="32" rx="10"/>
   <rect x="111"
          y="1"
          width="64"
          height="32"
          class="terminal"
          rx="10"/>
   <text class="terminal" x="121" y="21">INDEX</text>
   <a xmlns:xlink="http://www.w3.org/1999/xlink"
       xlink:href="#index-path"
       xlink:title="index-path">
      <rect x="217" y="3" width="88" height="32"/>
      <rect x="215" y="1" width="88" height="32" class="nonterminal"/>
      <text class="nonterminal" x="225" y="21">index-path</text>
   </a>
   <rect x="325" y="3" width="24" height="32" rx="10"/>
   <rect x="323"
          y="1"
          width="24"
          height="32"
          class="terminal"
          rx="10"/>
   <text class="terminal" x="333" y="21">.</text>
   <a xmlns:xlink="http://www.w3.org/1999/xlink"
       xlink:href="#index-name"
       xlink:title="index-name">
      <rect x="369" y="3" width="94" height="32"/>
      <rect x="367" y="1" width="94" height="32" class="nonterminal"/>
      <text class="nonterminal" x="377" y="21">index-name</text>
   </a>
   <a xmlns:xlink="http://www.w3.org/1999/xlink"
       xlink:href="#index-name"
       xlink:title="index-name">
      <rect x="217" y="47" width="94" height="32"/>
      <rect x="215" y="45" width="94" height="32" class="nonterminal"/>
      <text class="nonterminal" x="225" y="65">index-name</text>
   </a>
   <rect x="331" y="47" width="40" height="32" rx="10"/>
   <rect x="329"
          y="45"
          width="40"
          height="32"
          class="terminal"
          rx="10"/>
   <text class="terminal" x="339" y="65">ON</text>
   <a xmlns:xlink="http://www.w3.org/1999/xlink"
       xlink:href="#keyspace-ref"
       xlink:title="keyspace-ref">
      <rect x="391" y="47" width="102" height="32"/>
      <rect x="389" y="45" width="102" height="32" class="nonterminal"/>
      <text class="nonterminal" x="399" y="65">keyspace-ref</text>
   </a>
   <a xmlns:xlink="http://www.w3.org/1999/xlink"
       xlink:href="#index-using"
       xlink:title="index-using">
      <rect x="553" y="35" width="94" height="32"/>
      <rect x="551" y="33" width="94" height="32" class="nonterminal"/>
      <text class="nonterminal" x="561" y="53">index-using</text>
   </a>
   <a xmlns:xlink="http://www.w3.org/1999/xlink"
       xlink:href="#index-with"
       xlink:title="index-with">
      <rect x="575" y="113" width="86" height="32"/>
      <rect x="573" y="111" width="86" height="32" class="nonterminal"/>
      <text class="nonterminal" x="583" y="131">index-with</text>
   </a>
   <path class="line"
          d="m17 17 h2 m0 0 h10 m62 0 h10 m0 0 h10 m64 0 h10 m20 0 h10 m88 0 h10 m0 0 h10 m24 0 h10 m0 0 h10 m94 0 h10 m0 0 h30 m-316 0 h20 m296 0 h20 m-336 0 q10 0 10 10 m316 0 q0 -10 10 -10 m-326 10 v24 m316 0 v-24 m-316 24 q0 10 10 10 m296 0 q10 0 10 -10 m-306 10 h10 m94 0 h10 m0 0 h10 m40 0 h10 m0 0 h10 m102 0 h10 m40 -44 h10 m0 0 h104 m-134 0 h20 m114 0 h20 m-154 0 q10 0 10 10 m134 0 q0 -10 10 -10 m-144 10 v12 m134 0 v-12 m-134 12 q0 10 10 10 m114 0 q10 0 10 -10 m-124 10 h10 m94 0 h10 m22 -32 l2 0 m2 0 l2 0 m2 0 l2 0 m-136 110 l2 0 m2 0 l2 0 m2 0 l2 0 m2 0 h10 m86 0 h10 m3 0 h-3"/>
   <polygon points="679 127 687 123 687 131"/>
   <polygon points="679 127 671 123 671 131"/>
</svg>
