<?xml version="1.0" encoding="UTF-8"?>
<svg xmlns="http://www.w3.org/2000/svg" width="745" height="103">
   <defs>
      <style type="text/css">
    @namespace "http://www.w3.org/2000/svg";
    .line                 {fill: none; stroke: #332900; stroke-width: 1;}
    .bold-line            {stroke: #141000; shape-rendering: crispEdges; stroke-width: 2;}
    .thin-line            {stroke: #1F1800; shape-rendering: crispEdges}
    .filled               {fill: #332900; stroke: none;}
    text.terminal         {font-family: Verdana, Sans-serif;
                            font-size: 12px;
                            fill: #141000;
                            font-weight: bold;
                          }
    text.nonterminal      {font-family: Verdana, Sans-serif;
                            font-size: 12px;
                            fill: #1A1400;
                            font-weight: normal;
                          }
    text.regexp           {font-family: Verdana, Sans-serif;
                            font-size: 12px;
                            fill: #1F1800;
                            font-weight: normal;
                          }
    rect, circle, polygon {fill: #332900; stroke: #332900;}
    rect.terminal         {fill: #FFDB4D; stroke: #332900; stroke-width: 1;}
    rect.nonterminal      {fill: #FFEC9E; stroke: #332900; stroke-width: 1;}
    rect.text             {fill: none; stroke: none;}
    polygon.regexp        {fill: #FFF4C7; stroke: #332900; stroke-width: 1;}
  </style>
   </defs>
   <polygon points="9 17 1 13 1 21"/>
   <polygon points="17 17 9 13 9 21"/>
   <a xmlns:xlink="http://www.w3.org/1999/xlink"
       xlink:href="#target-keyspace"
       xlink:title="target-keyspace">
      <rect x="31" y="3" width="124" height="32"/>
      <rect x="29" y="1" width="124" height="32" class="nonterminal"/>
      <text class="nonterminal" x="39" y="21">target-keyspace</text>
   </a>
   <a xmlns:xlink="http://www.w3.org/1999/xlink"
       xlink:href="#use-index-clause"
       xlink:title="use-index-clause">
      <rect x="175" y="3" width="128" height="32"/>
      <rect x="173" y="1" width="128" height="32" class="nonterminal"/>
      <text class="nonterminal" x="183" y="21">use-index-clause</text>
   </a>
   <rect x="323" y="3" width="64" height="32" rx="10"/>
   <rect x="321"
          y="1"
          width="64"
          height="32"
          class="terminal"
          rx="10"/>
   <text class="terminal" x="331" y="21">USING</text>
   <a xmlns:xlink="http://www.w3.org/1999/xlink"
       xlink:href="#ansi-merge-source"
       xlink:title="ansi-merge-source">
      <rect x="407" y="3" width="140" height="32"/>
      <rect x="405" y="1" width="140" height="32" class="nonterminal"/>
      <text class="nonterminal" x="415" y="21">ansi-merge-source</text>
   </a>
   <a xmlns:xlink="http://www.w3.org/1999/xlink"
       xlink:href="#ansi-merge-predicate"
       xlink:title="ansi-merge-predicate">
      <rect x="567" y="3" width="156" height="32"/>
      <rect x="565" y="1" width="156" height="32" class="nonterminal"/>
      <text class="nonterminal" x="575" y="21">ansi-merge-predicate</text>
   </a>
   <a xmlns:xlink="http://www.w3.org/1999/xlink"
       xlink:href="#ansi-merge-actions"
       xlink:title="ansi-merge-actions">
      <rect x="575" y="69" width="142" height="32"/>
      <rect x="573" y="67" width="142" height="32" class="nonterminal"/>
      <text class="nonterminal" x="583" y="87">ansi-merge-actions</text>
   </a>
   <path class="line"
          d="m17 17 h2 m0 0 h10 m124 0 h10 m0 0 h10 m128 0 h10 m0 0 h10 m64 0 h10 m0 0 h10 m140 0 h10 m0 0 h10 m156 0 h10 m2 0 l2 0 m2 0 l2 0 m2 0 l2 0 m-192 66 l2 0 m2 0 l2 0 m2 0 l2 0 m2 0 h10 m142 0 h10 m3 0 h-3"/>
   <polygon points="735 83 743 79 743 87"/>
   <polygon points="735 83 727 79 727 87"/>
</svg>
