<?xml version="1.0" encoding="UTF-8"?>
<svg xmlns="http://www.w3.org/2000/svg" width="669" height="285">
   <defs>
      <style type="text/css">
    @namespace "http://www.w3.org/2000/svg";
    .line                 {fill: none; stroke: #332900; stroke-width: 1;}
    .bold-line            {stroke: #141000; shape-rendering: crispEdges; stroke-width: 2;}
    .thin-line            {stroke: #1F1800; shape-rendering: crispEdges}
    .filled               {fill: #332900; stroke: none;}
    text.terminal         {font-family: Verdana, Sans-serif;
                            font-size: 12px;
                            fill: #141000;
                            font-weight: bold;
                          }
    text.nonterminal      {font-family: Verdana, Sans-serif;
                            font-size: 12px;
                            fill: #1A1400;
                            font-weight: normal;
                          }
    text.regexp           {font-family: Verdana, Sans-serif;
                            font-size: 12px;
                            fill: #1F1800;
                            font-weight: normal;
                          }
    rect, circle, polygon {fill: #332900; stroke: #332900;}
    rect.terminal         {fill: #FFDB4D; stroke: #332900; stroke-width: 1;}
    rect.nonterminal      {fill: #FFEC9E; stroke: #332900; stroke-width: 1;}
    rect.text             {fill: none; stroke: none;}
    polygon.regexp        {fill: #FFF4C7; stroke: #332900; stroke-width: 1;}
  </style>
   </defs>
   <polygon points="9 17 1 13 1 21"/>
   <polygon points="17 17 9 13 9 21"/>
   <rect x="31" y="3" width="62" height="32" rx="10"/>
   <rect x="29"
          y="1"
          width="62"
          height="32"
          class="terminal"
          rx="10"/>
   <text class="terminal" x="39" y="21">WHEN</text>
   <rect x="113" y="3" width="48" height="32" rx="10"/>
   <rect x="111"
          y="1"
          width="48"
          height="32"
          class="terminal"
          rx="10"/>
   <text class="terminal" x="121" y="21">NOT</text>
   <rect x="181" y="3" width="86" height="32" rx="10"/>
   <rect x="179"
          y="1"
          width="86"
          height="32"
          class="terminal"
          rx="10"/>
   <text class="terminal" x="189" y="21">MATCHED</text>
   <rect x="287" y="3" width="56" height="32" rx="10"/>
   <rect x="285"
          y="1"
          width="56"
          height="32"
          class="terminal"
          rx="10"/>
   <text class="terminal" x="295" y="21">THEN</text>
   <rect x="363" y="3" width="70" height="32" rx="10"/>
   <rect x="361"
          y="1"
          width="70"
          height="32"
          class="terminal"
          rx="10"/>
   <text class="terminal" x="371" y="21">INSERT</text>
   <rect x="453" y="3" width="26" height="32" rx="10"/>
   <rect x="451"
          y="1"
          width="26"
          height="32"
          class="terminal"
          rx="10"/>
   <text class="terminal" x="461" y="21">(</text>
   <rect x="519" y="35" width="46" height="32" rx="10"/>
   <rect x="517"
          y="33"
          width="46"
          height="32"
          class="terminal"
          rx="10"/>
   <text class="terminal" x="527" y="53">KEY</text>
   <a xmlns:xlink="http://www.w3.org/1999/xlink"
       xlink:href="#key"
       xlink:title="key">
      <rect x="605" y="3" width="42" height="32"/>
      <rect x="603" y="1" width="42" height="32" class="nonterminal"/>
      <text class="nonterminal" x="613" y="21">key</text>
   </a>
   <rect x="45" y="133" width="24" height="32" rx="10"/>
   <rect x="43"
          y="131"
          width="24"
          height="32"
          class="terminal"
          rx="10"/>
   <text class="terminal" x="53" y="151">,</text>
   <rect x="109" y="165" width="64" height="32" rx="10"/>
   <rect x="107"
          y="163"
          width="64"
          height="32"
          class="terminal"
          rx="10"/>
   <text class="terminal" x="117" y="183">VALUE</text>
   <a xmlns:xlink="http://www.w3.org/1999/xlink"
       xlink:href="#value"
       xlink:title="value">
      <rect x="213" y="133" width="54" height="32"/>
      <rect x="211" y="131" width="54" height="32" class="nonterminal"/>
      <text class="nonterminal" x="221" y="151">value</text>
   </a>
   <rect x="327" y="133" width="24" height="32" rx="10"/>
   <rect x="325"
          y="131"
          width="24"
          height="32"
          class="terminal"
          rx="10"/>
   <text class="terminal" x="335" y="151">,</text>
   <rect x="391" y="165" width="84" height="32" rx="10"/>
   <rect x="389"
          y="163"
          width="84"
          height="32"
          class="terminal"
          rx="10"/>
   <text class="terminal" x="399" y="183">OPTIONS</text>
   <a xmlns:xlink="http://www.w3.org/1999/xlink"
       xlink:href="#options"
       xlink:title="options">
      <rect x="515" y="133" width="66" height="32"/>
      <rect x="513" y="131" width="66" height="32" class="nonterminal"/>
      <text class="nonterminal" x="523" y="151">options</text>
   </a>
   <rect x="621" y="101" width="26" height="32" rx="10"/>
   <rect x="619"
          y="99"
          width="26"
          height="32"
          class="terminal"
          rx="10"/>
   <text class="terminal" x="629" y="119">)</text>
   <a xmlns:xlink="http://www.w3.org/1999/xlink"
       xlink:href="#where-clause"
       xlink:title="where-clause">
      <rect x="517" y="251" width="104" height="32"/>
      <rect x="515" y="249" width="104" height="32" class="nonterminal"/>
      <text class="nonterminal" x="525" y="269">where-clause</text>
   </a>
   <path class="line"
          d="m17 17 h2 m0 0 h10 m62 0 h10 m0 0 h10 m48 0 h10 m0 0 h10 m86 0 h10 m0 0 h10 m56 0 h10 m0 0 h10 m70 0 h10 m0 0 h10 m26 0 h10 m20 0 h10 m0 0 h56 m-86 0 h20 m66 0 h20 m-106 0 q10 0 10 10 m86 0 q0 -10 10 -10 m-96 10 v12 m86 0 v-12 m-86 12 q0 10 10 10 m66 0 q10 0 10 -10 m-76 10 h10 m46 0 h10 m20 -32 h10 m42 0 h10 m2 0 l2 0 m2 0 l2 0 m2 0 l2 0 m-666 98 l2 0 m2 0 l2 0 m2 0 l2 0 m22 0 h10 m0 0 h232 m-262 0 h20 m242 0 h20 m-282 0 q10 0 10 10 m262 0 q0 -10 10 -10 m-272 10 v12 m262 0 v-12 m-262 12 q0 10 10 10 m242 0 q10 0 10 -10 m-252 10 h10 m24 0 h10 m20 0 h10 m0 0 h74 m-104 0 h20 m84 0 h20 m-124 0 q10 0 10 10 m104 0 q0 -10 10 -10 m-114 10 v12 m104 0 v-12 m-104 12 q0 10 10 10 m84 0 q10 0 10 -10 m-94 10 h10 m64 0 h10 m20 -32 h10 m54 0 h10 m40 -32 h10 m0 0 h264 m-294 0 h20 m274 0 h20 m-314 0 q10 0 10 10 m294 0 q0 -10 10 -10 m-304 10 v12 m294 0 v-12 m-294 12 q0 10 10 10 m274 0 q10 0 10 -10 m-284 10 h10 m24 0 h10 m20 0 h10 m0 0 h94 m-124 0 h20 m104 0 h20 m-144 0 q10 0 10 10 m124 0 q0 -10 10 -10 m-134 10 v12 m124 0 v-12 m-124 12 q0 10 10 10 m104 0 q10 0 10 -10 m-114 10 h10 m84 0 h10 m20 -32 h10 m66 0 h10 m20 -32 h10 m26 0 h10 m2 0 l2 0 m2 0 l2 0 m2 0 l2 0 m-194 118 l2 0 m2 0 l2 0 m2 0 l2 0 m22 0 h10 m0 0 h114 m-144 0 h20 m124 0 h20 m-164 0 q10 0 10 10 m144 0 q0 -10 10 -10 m-154 10 v12 m144 0 v-12 m-144 12 q0 10 10 10 m124 0 q10 0 10 -10 m-134 10 h10 m104 0 h10 m23 -32 h-3"/>
   <polygon points="659 233 667 229 667 237"/>
   <polygon points="659 233 651 229 651 237"/>
</svg>
