<?xml version="1.0" encoding="UTF-8"?>
<svg xmlns="http://www.w3.org/2000/svg" width="561" height="69">
   <defs>
      <style type="text/css">
    @namespace "http://www.w3.org/2000/svg";
    .line                 {fill: none; stroke: #332900; stroke-width: 1;}
    .bold-line            {stroke: #141000; shape-rendering: crispEdges; stroke-width: 2;}
    .thin-line            {stroke: #1F1800; shape-rendering: crispEdges}
    .filled               {fill: #332900; stroke: none;}
    text.terminal         {font-family: Verdana, Sans-serif;
                            font-size: 12px;
                            fill: #141000;
                            font-weight: bold;
                          }
    text.nonterminal      {font-family: Verdana, Sans-serif;
                            font-size: 12px;
                            fill: #1A1400;
                            font-weight: normal;
                          }
    text.regexp           {font-family: Verdana, Sans-serif;
                            font-size: 12px;
                            fill: #1F1800;
                            font-weight: normal;
                          }
    rect, circle, polygon {fill: #332900; stroke: #332900;}
    rect.terminal         {fill: #FFDB4D; stroke: #332900; stroke-width: 1;}
    rect.nonterminal      {fill: #FFEC9E; stroke: #332900; stroke-width: 1;}
    rect.text             {fill: none; stroke: none;}
    polygon.regexp        {fill: #FFF4C7; stroke: #332900; stroke-width: 1;}
  </style>
   </defs>
   <polygon points="9 17 1 13 1 21"/>
   <polygon points="17 17 9 13 9 21"/>
   <a xmlns:xlink="http://www.w3.org/1999/xlink"
       xlink:href="#ansi-join-type"
       xlink:title="ansi-join-type">
      <rect x="51" y="35" width="108" height="32"/>
      <rect x="49" y="33" width="108" height="32" class="nonterminal"/>
      <text class="nonterminal" x="59" y="53">ansi-join-type</text>
   </a>
   <rect x="199" y="3" width="54" height="32" rx="10"/>
   <rect x="197"
          y="1"
          width="54"
          height="32"
          class="terminal"
          rx="10"/>
   <text class="terminal" x="207" y="21">JOIN</text>
   <a xmlns:xlink="http://www.w3.org/1999/xlink"
       xlink:href="#ansi-join-rhs"
       xlink:title="ansi-join-rhs">
      <rect x="273" y="3" width="100" height="32"/>
      <rect x="271" y="1" width="100" height="32" class="nonterminal"/>
      <text class="nonterminal" x="281" y="21">ansi-join-rhs</text>
   </a>
   <a xmlns:xlink="http://www.w3.org/1999/xlink"
       xlink:href="#ansi-join-predicate"
       xlink:title="ansi-join-predicate">
      <rect x="393" y="3" width="140" height="32"/>
      <rect x="391" y="1" width="140" height="32" class="nonterminal"/>
      <text class="nonterminal" x="401" y="21">ansi-join-predicate</text>
   </a>
   <path class="line"
          d="m17 17 h2 m20 0 h10 m0 0 h118 m-148 0 h20 m128 0 h20 m-168 0 q10 0 10 10 m148 0 q0 -10 10 -10 m-158 10 v12 m148 0 v-12 m-148 12 q0 10 10 10 m128 0 q10 0 10 -10 m-138 10 h10 m108 0 h10 m20 -32 h10 m54 0 h10 m0 0 h10 m100 0 h10 m0 0 h10 m140 0 h10 m3 0 h-3"/>
   <polygon points="551 17 559 13 559 21"/>
   <polygon points="551 17 543 13 543 21"/>
</svg>
