<?xml version="1.0" encoding="UTF-8"?>
<svg xmlns="http://www.w3.org/2000/svg" width="443" height="125">
   <defs>
      <style type="text/css">
    @namespace "http://www.w3.org/2000/svg";
    .line                 {fill: none; stroke: #332900; stroke-width: 1;}
    .bold-line            {stroke: #141000; shape-rendering: crispEdges; stroke-width: 2;}
    .thin-line            {stroke: #1F1800; shape-rendering: crispEdges}
    .filled               {fill: #332900; stroke: none;}
    text.terminal         {font-family: Verdana, Sans-serif;
                            font-size: 12px;
                            fill: #141000;
                            font-weight: bold;
                          }
    text.nonterminal      {font-family: Verdana, Sans-serif;
                            font-size: 12px;
                            fill: #1A1400;
                            font-weight: normal;
                          }
    text.regexp           {font-family: Verdana, Sans-serif;
                            font-size: 12px;
                            fill: #1F1800;
                            font-weight: normal;
                          }
    rect, circle, polygon {fill: #332900; stroke: #332900;}
    rect.terminal         {fill: #FFDB4D; stroke: #332900; stroke-width: 1;}
    rect.nonterminal      {fill: #FFEC9E; stroke: #332900; stroke-width: 1;}
    rect.text             {fill: none; stroke: none;}
    polygon.regexp        {fill: #FFF4C7; stroke: #332900; stroke-width: 1;}
  </style>
   </defs>
   <polygon points="9 17 1 13 1 21"/>
   <polygon points="17 17 9 13 9 21"/>
   <a xmlns:xlink="http://www.w3.org/1999/xlink"
       xlink:href="#merge-source-keyspace"
       xlink:title="merge-source-keyspace">
      <rect x="51" y="3" width="172" height="32"/>
      <rect x="49" y="1" width="172" height="32" class="nonterminal"/>
      <text class="nonterminal" x="59" y="21">merge-source-keyspace</text>
   </a>
   <a xmlns:xlink="http://www.w3.org/1999/xlink"
       xlink:href="#merge-source-subquery"
       xlink:title="merge-source-subquery">
      <rect x="51" y="47" width="172" height="32"/>
      <rect x="49" y="45" width="172" height="32" class="nonterminal"/>
      <text class="nonterminal" x="59" y="65">merge-source-subquery</text>
   </a>
   <a xmlns:xlink="http://www.w3.org/1999/xlink"
       xlink:href="#merge-source-expr"
       xlink:title="merge-source-expr">
      <rect x="51" y="91" width="142" height="32"/>
      <rect x="49" y="89" width="142" height="32" class="nonterminal"/>
      <text class="nonterminal" x="59" y="109">merge-source-expr</text>
   </a>
   <a xmlns:xlink="http://www.w3.org/1999/xlink"
       xlink:href="#ansi-join-hints"
       xlink:title="ansi-join-hints">
      <rect x="283" y="35" width="112" height="32"/>
      <rect x="281" y="33" width="112" height="32" class="nonterminal"/>
      <text class="nonterminal" x="291" y="53">ansi-join-hints</text>
   </a>
   <path class="line"
          d="m17 17 h2 m20 0 h10 m172 0 h10 m-212 0 h20 m192 0 h20 m-232 0 q10 0 10 10 m212 0 q0 -10 10 -10 m-222 10 v24 m212 0 v-24 m-212 24 q0 10 10 10 m192 0 q10 0 10 -10 m-202 10 h10 m172 0 h10 m-202 -10 v20 m212 0 v-20 m-212 20 v24 m212 0 v-24 m-212 24 q0 10 10 10 m192 0 q10 0 10 -10 m-202 10 h10 m142 0 h10 m0 0 h30 m40 -88 h10 m0 0 h122 m-152 0 h20 m132 0 h20 m-172 0 q10 0 10 10 m152 0 q0 -10 10 -10 m-162 10 v12 m152 0 v-12 m-152 12 q0 10 10 10 m132 0 q10 0 10 -10 m-142 10 h10 m112 0 h10 m23 -32 h-3"/>
   <polygon points="433 17 441 13 441 21"/>
   <polygon points="433 17 425 13 425 21"/>
</svg>
