<?xml version="1.0" encoding="UTF-8"?>
<svg xmlns="http://www.w3.org/2000/svg" width="475" height="211">
   <defs>
      <style type="text/css">
    @namespace "http://www.w3.org/2000/svg";
    .line                 {fill: none; stroke: #332900; stroke-width: 1;}
    .bold-line            {stroke: #141000; shape-rendering: crispEdges; stroke-width: 2;}
    .thin-line            {stroke: #1F1800; shape-rendering: crispEdges}
    .filled               {fill: #332900; stroke: none;}
    text.terminal         {font-family: Verdana, Sans-serif;
                            font-size: 12px;
                            fill: #141000;
                            font-weight: bold;
                          }
    text.nonterminal      {font-family: Verdana, Sans-serif;
                            font-size: 12px;
                            fill: #1A1400;
                            font-weight: normal;
                          }
    text.regexp           {font-family: Verdana, Sans-serif;
                            font-size: 12px;
                            fill: #1F1800;
                            font-weight: normal;
                          }
    rect, circle, polygon {fill: #332900; stroke: #332900;}
    rect.terminal         {fill: #FFDB4D; stroke: #332900; stroke-width: 1;}
    rect.nonterminal      {fill: #FFEC9E; stroke: #332900; stroke-width: 1;}
    rect.text             {fill: none; stroke: none;}
    polygon.regexp        {fill: #FFF4C7; stroke: #332900; stroke-width: 1;}
  </style>
   </defs>
   <polygon points="11 17 3 13 3 21"/>
   <polygon points="19 17 11 13 11 21"/>
   <rect x="53" y="3" width="64" height="32" rx="10"/>
   <rect x="51"
          y="1"
          width="64"
          height="32"
          class="terminal"
          rx="10"/>
   <text class="terminal" x="61" y="21">BEGIN</text>
   <rect x="53" y="47" width="64" height="32" rx="10"/>
   <rect x="51"
          y="45"
          width="64"
          height="32"
          class="terminal"
          rx="10"/>
   <text class="terminal" x="61" y="65">START</text>
   <rect x="177" y="3" width="64" height="32" rx="10"/>
   <rect x="175"
          y="1"
          width="64"
          height="32"
          class="terminal"
          rx="10"/>
   <text class="terminal" x="185" y="21">WORK</text>
   <rect x="177" y="47" width="56" height="32" rx="10"/>
   <rect x="175"
          y="45"
          width="56"
          height="32"
          class="terminal"
          rx="10"/>
   <text class="terminal" x="185" y="65">TRAN</text>
   <rect x="177" y="91" width="120" height="32" rx="10"/>
   <rect x="175"
          y="89"
          width="120"
          height="32"
          class="terminal"
          rx="10"/>
   <text class="terminal" x="185" y="109">TRANSACTION</text>
   <rect x="45" y="177" width="100" height="32" rx="10"/>
   <rect x="43"
          y="175"
          width="100"
          height="32"
          class="terminal"
          rx="10"/>
   <text class="terminal" x="53" y="195">ISOLATION</text>
   <rect x="165" y="177" width="62" height="32" rx="10"/>
   <rect x="163"
          y="175"
          width="62"
          height="32"
          class="terminal"
          rx="10"/>
   <text class="terminal" x="173" y="195">LEVEL</text>
   <rect x="247" y="177" width="56" height="32" rx="10"/>
   <rect x="245"
          y="175"
          width="56"
          height="32"
          class="terminal"
          rx="10"/>
   <text class="terminal" x="255" y="195">READ</text>
   <rect x="323" y="177" width="104" height="32" rx="10"/>
   <rect x="321"
          y="175"
          width="104"
          height="32"
          class="terminal"
          rx="10"/>
   <text class="terminal" x="331" y="195">COMMITTED</text>
   <path class="line"
          d="m19 17 h2 m20 0 h10 m64 0 h10 m-104 0 h20 m84 0 h20 m-124 0 q10 0 10 10 m104 0 q0 -10 10 -10 m-114 10 v24 m104 0 v-24 m-104 24 q0 10 10 10 m84 0 q10 0 10 -10 m-94 10 h10 m64 0 h10 m40 -44 h10 m64 0 h10 m0 0 h56 m-160 0 h20 m140 0 h20 m-180 0 q10 0 10 10 m160 0 q0 -10 10 -10 m-170 10 v24 m160 0 v-24 m-160 24 q0 10 10 10 m140 0 q10 0 10 -10 m-150 10 h10 m56 0 h10 m0 0 h64 m-150 -10 v20 m160 0 v-20 m-160 20 v24 m160 0 v-24 m-160 24 q0 10 10 10 m140 0 q10 0 10 -10 m-150 10 h10 m120 0 h10 m22 -88 l2 0 m2 0 l2 0 m2 0 l2 0 m-336 142 l2 0 m2 0 l2 0 m2 0 l2 0 m22 0 h10 m0 0 h392 m-422 0 h20 m402 0 h20 m-442 0 q10 0 10 10 m422 0 q0 -10 10 -10 m-432 10 v12 m422 0 v-12 m-422 12 q0 10 10 10 m402 0 q10 0 10 -10 m-412 10 h10 m100 0 h10 m0 0 h10 m62 0 h10 m0 0 h10 m56 0 h10 m0 0 h10 m104 0 h10 m23 -32 h-3"/>
   <polygon points="465 159 473 155 473 163"/>
   <polygon points="465 159 457 155 457 163"/>
</svg>
