<?xml version="1.0" encoding="UTF-8"?>
<svg xmlns="http://www.w3.org/2000/svg" width="591" height="69">
   <defs>
      <style type="text/css">
    @namespace "http://www.w3.org/2000/svg";
    .line                 {fill: none; stroke: #332900; stroke-width: 1;}
    .bold-line            {stroke: #141000; shape-rendering: crispEdges; stroke-width: 2;}
    .thin-line            {stroke: #1F1800; shape-rendering: crispEdges}
    .filled               {fill: #332900; stroke: none;}
    text.terminal         {font-family: Verdana, Sans-serif;
                            font-size: 12px;
                            fill: #141000;
                            font-weight: bold;
                          }
    text.nonterminal      {font-family: Verdana, Sans-serif;
                            font-size: 12px;
                            fill: #1A1400;
                            font-weight: normal;
                          }
    text.regexp           {font-family: Verdana, Sans-serif;
                            font-size: 12px;
                            fill: #1F1800;
                            font-weight: normal;
                          }
    rect, circle, polygon {fill: #332900; stroke: #332900;}
    rect.terminal         {fill: #FFDB4D; stroke: #332900; stroke-width: 1;}
    rect.nonterminal      {fill: #FFEC9E; stroke: #332900; stroke-width: 1;}
    rect.text             {fill: none; stroke: none;}
    polygon.regexp        {fill: #FFF4C7; stroke: #332900; stroke-width: 1;}
  </style>
   </defs>
   <polygon points="9 17 1 13 1 21"/>
   <polygon points="17 17 9 13 9 21"/>
   <a xmlns:xlink="http://www.w3.org/1999/xlink"
       xlink:href="#expr"
       xlink:title="expr">
      <rect x="31" y="3" width="48" height="32"/>
      <rect x="29" y="1" width="48" height="32" class="nonterminal"/>
      <text class="nonterminal" x="39" y="21">expr</text>
   </a>
   <rect x="119" y="35" width="48" height="32" rx="10"/>
   <rect x="117"
          y="33"
          width="48"
          height="32"
          class="terminal"
          rx="10"/>
   <text class="terminal" x="127" y="53">NOT</text>
   <rect x="207" y="3" width="86" height="32" rx="10"/>
   <rect x="205"
          y="1"
          width="86"
          height="32"
          class="terminal"
          rx="10"/>
   <text class="terminal" x="215" y="21">BETWEEN</text>
   <a xmlns:xlink="http://www.w3.org/1999/xlink"
       xlink:href="#start-expr"
       xlink:title="start-expr">
      <rect x="313" y="3" width="84" height="32"/>
      <rect x="311" y="1" width="84" height="32" class="nonterminal"/>
      <text class="nonterminal" x="321" y="21">start-expr</text>
   </a>
   <rect x="417" y="3" width="48" height="32" rx="10"/>
   <rect x="415"
          y="1"
          width="48"
          height="32"
          class="terminal"
          rx="10"/>
   <text class="terminal" x="425" y="21">AND</text>
   <a xmlns:xlink="http://www.w3.org/1999/xlink"
       xlink:href="#end-expr"
       xlink:title="end-expr">
      <rect x="485" y="3" width="78" height="32"/>
      <rect x="483" y="1" width="78" height="32" class="nonterminal"/>
      <text class="nonterminal" x="493" y="21">end-expr</text>
   </a>
   <path class="line"
          d="m17 17 h2 m0 0 h10 m48 0 h10 m20 0 h10 m0 0 h58 m-88 0 h20 m68 0 h20 m-108 0 q10 0 10 10 m88 0 q0 -10 10 -10 m-98 10 v12 m88 0 v-12 m-88 12 q0 10 10 10 m68 0 q10 0 10 -10 m-78 10 h10 m48 0 h10 m20 -32 h10 m86 0 h10 m0 0 h10 m84 0 h10 m0 0 h10 m48 0 h10 m0 0 h10 m78 0 h10 m3 0 h-3"/>
   <polygon points="581 17 589 13 589 21"/>
   <polygon points="581 17 573 13 573 21"/>
</svg>
