<?xml version="1.0" encoding="UTF-8"?>
<svg xmlns="http://www.w3.org/2000/svg" width="623" height="167">
   <defs>
      <style type="text/css">
    @namespace "http://www.w3.org/2000/svg";
    .line                 {fill: none; stroke: #332900; stroke-width: 1;}
    .bold-line            {stroke: #141000; shape-rendering: crispEdges; stroke-width: 2;}
    .thin-line            {stroke: #1F1800; shape-rendering: crispEdges}
    .filled               {fill: #332900; stroke: none;}
    text.terminal         {font-family: Verdana, Sans-serif;
                            font-size: 12px;
                            fill: #141000;
                            font-weight: bold;
                          }
    text.nonterminal      {font-family: Verdana, Sans-serif;
                            font-size: 12px;
                            fill: #1A1400;
                            font-weight: normal;
                          }
    text.regexp           {font-family: Verdana, Sans-serif;
                            font-size: 12px;
                            fill: #1F1800;
                            font-weight: normal;
                          }
    rect, circle, polygon {fill: #332900; stroke: #332900;}
    rect.terminal         {fill: #FFDB4D; stroke: #332900; stroke-width: 1;}
    rect.nonterminal      {fill: #FFEC9E; stroke: #332900; stroke-width: 1;}
    rect.text             {fill: none; stroke: none;}
    polygon.regexp        {fill: #FFF4C7; stroke: #332900; stroke-width: 1;}
  </style>
   </defs>
   <polygon points="9 61 1 57 1 65"/>
   <polygon points="17 61 9 57 9 65"/>
   <rect x="31" y="47" width="62" height="32" rx="10"/>
   <rect x="29"
          y="45"
          width="62"
          height="32"
          class="terminal"
          rx="10"/>
   <text class="terminal" x="39" y="65">BUILD</text>
   <rect x="113" y="47" width="64" height="32" rx="10"/>
   <rect x="111"
          y="45"
          width="64"
          height="32"
          class="terminal"
          rx="10"/>
   <text class="terminal" x="121" y="65">INDEX</text>
   <rect x="197" y="47" width="40" height="32" rx="10"/>
   <rect x="195"
          y="45"
          width="40"
          height="32"
          class="terminal"
          rx="10"/>
   <text class="terminal" x="205" y="65">ON</text>
   <a xmlns:xlink="http://www.w3.org/1999/xlink"
       xlink:href="#keyspace-ref"
       xlink:title="keyspace-ref">
      <rect x="257" y="47" width="102" height="32"/>
      <rect x="255" y="45" width="102" height="32" class="nonterminal"/>
      <text class="nonterminal" x="265" y="65">keyspace-ref</text>
   </a>
   <rect x="379" y="47" width="26" height="32" rx="10"/>
   <rect x="377"
          y="45"
          width="26"
          height="32"
          class="terminal"
          rx="10"/>
   <text class="terminal" x="387" y="65">(</text>
   <a xmlns:xlink="http://www.w3.org/1999/xlink"
       xlink:href="#index-term"
       xlink:title="index-term">
      <rect x="445" y="47" width="90" height="32"/>
      <rect x="443" y="45" width="90" height="32" class="nonterminal"/>
      <text class="nonterminal" x="453" y="65">index-term</text>
   </a>
   <rect x="445" y="3" width="24" height="32" rx="10"/>
   <rect x="443"
          y="1"
          width="24"
          height="32"
          class="terminal"
          rx="10"/>
   <text class="terminal" x="453" y="21">,</text>
   <rect x="575" y="47" width="26" height="32" rx="10"/>
   <rect x="573"
          y="45"
          width="26"
          height="32"
          class="terminal"
          rx="10"/>
   <text class="terminal" x="583" y="65">)</text>
   <a xmlns:xlink="http://www.w3.org/1999/xlink"
       xlink:href="#index-using"
       xlink:title="index-using">
      <rect x="481" y="133" width="94" height="32"/>
      <rect x="479" y="131" width="94" height="32" class="nonterminal"/>
      <text class="nonterminal" x="489" y="151">index-using</text>
   </a>
   <path class="line"
          d="m17 61 h2 m0 0 h10 m62 0 h10 m0 0 h10 m64 0 h10 m0 0 h10 m40 0 h10 m0 0 h10 m102 0 h10 m0 0 h10 m26 0 h10 m20 0 h10 m90 0 h10 m-130 0 l20 0 m-1 0 q-9 0 -9 -10 l0 -24 q0 -10 10 -10 m110 44 l20 0 m-20 0 q10 0 10 -10 l0 -24 q0 -10 -10 -10 m-110 0 h10 m24 0 h10 m0 0 h66 m20 44 h10 m26 0 h10 m2 0 l2 0 m2 0 l2 0 m2 0 l2 0 m-184 54 l2 0 m2 0 l2 0 m2 0 l2 0 m22 0 h10 m0 0 h104 m-134 0 h20 m114 0 h20 m-154 0 q10 0 10 10 m134 0 q0 -10 10 -10 m-144 10 v12 m134 0 v-12 m-134 12 q0 10 10 10 m114 0 q10 0 10 -10 m-124 10 h10 m94 0 h10 m23 -32 h-3"/>
   <polygon points="613 115 621 111 621 119"/>
   <polygon points="613 115 605 111 605 119"/>
</svg>
