<?xml version="1.0" encoding="UTF-8"?>
<svg xmlns="http://www.w3.org/2000/svg" width="463" height="389">
   <defs>
      <style type="text/css">
    @namespace "http://www.w3.org/2000/svg";
    .line                 {fill: none; stroke: #332900; stroke-width: 1;}
    .bold-line            {stroke: #141000; shape-rendering: crispEdges; stroke-width: 2;}
    .thin-line            {stroke: #1F1800; shape-rendering: crispEdges}
    .filled               {fill: #332900; stroke: none;}
    text.terminal         {font-family: Verdana, Sans-serif;
                            font-size: 12px;
                            fill: #141000;
                            font-weight: bold;
                          }
    text.nonterminal      {font-family: Verdana, Sans-serif;
                            font-size: 12px;
                            fill: #1A1400;
                            font-weight: normal;
                          }
    text.regexp           {font-family: Verdana, Sans-serif;
                            font-size: 12px;
                            fill: #1F1800;
                            font-weight: normal;
                          }
    rect, circle, polygon {fill: #332900; stroke: #332900;}
    rect.terminal         {fill: #FFDB4D; stroke: #332900; stroke-width: 1;}
    rect.nonterminal      {fill: #FFEC9E; stroke: #332900; stroke-width: 1;}
    rect.text             {fill: none; stroke: none;}
    polygon.regexp        {fill: #FFF4C7; stroke: #332900; stroke-width: 1;}
  </style>
   </defs>
   <polygon points="9 17 1 13 1 21"/>
   <polygon points="17 17 9 13 9 21"/>
   <a xmlns:xlink="http://www.w3.org/1999/xlink"
       xlink:href="#unicode-character"
       xlink:title="unicode-character">
      <rect x="51" y="3" width="134" height="32"/>
      <rect x="49" y="1" width="134" height="32" class="nonterminal"/>
      <text class="nonterminal" x="59" y="21">unicode-character</text>
   </a>
   <rect x="51" y="47" width="28" height="32" rx="10"/>
   <rect x="49"
          y="45"
          width="28"
          height="32"
          class="terminal"
          rx="10"/>
   <text class="terminal" x="59" y="65">\</text>
   <rect x="119" y="47" width="28" height="32" rx="10"/>
   <rect x="117"
          y="45"
          width="28"
          height="32"
          class="terminal"
          rx="10"/>
   <text class="terminal" x="127" y="65">\</text>
   <rect x="119" y="91" width="28" height="32" rx="10"/>
   <rect x="117"
          y="89"
          width="28"
          height="32"
          class="terminal"
          rx="10"/>
   <text class="terminal" x="127" y="109">/</text>
   <rect x="119" y="135" width="28" height="32" rx="10"/>
   <rect x="117"
          y="133"
          width="28"
          height="32"
          class="terminal"
          rx="10"/>
   <text class="terminal" x="127" y="153">b</text>
   <rect x="119" y="179" width="24" height="32" rx="10"/>
   <rect x="117"
          y="177"
          width="24"
          height="32"
          class="terminal"
          rx="10"/>
   <text class="terminal" x="127" y="197">f</text>
   <rect x="119" y="223" width="28" height="32" rx="10"/>
   <rect x="117"
          y="221"
          width="28"
          height="32"
          class="terminal"
          rx="10"/>
   <text class="terminal" x="127" y="241">n</text>
   <rect x="119" y="267" width="26" height="32" rx="10"/>
   <rect x="117"
          y="265"
          width="26"
          height="32"
          class="terminal"
          rx="10"/>
   <text class="terminal" x="127" y="285">r</text>
   <rect x="119" y="311" width="24" height="32" rx="10"/>
   <rect x="117"
          y="309"
          width="24"
          height="32"
          class="terminal"
          rx="10"/>
   <text class="terminal" x="127" y="329">t</text>
   <rect x="119" y="355" width="28" height="32" rx="10"/>
   <rect x="117"
          y="353"
          width="28"
          height="32"
          class="terminal"
          rx="10"/>
   <text class="terminal" x="127" y="373">u</text>
   <a xmlns:xlink="http://www.w3.org/1999/xlink"
       xlink:href="#hex"
       xlink:title="hex">
      <rect x="167" y="355" width="42" height="32"/>
      <rect x="165" y="353" width="42" height="32" class="nonterminal"/>
      <text class="nonterminal" x="175" y="373">hex</text>
   </a>
   <a xmlns:xlink="http://www.w3.org/1999/xlink"
       xlink:href="#hex"
       xlink:title="hex">
      <rect x="229" y="355" width="42" height="32"/>
      <rect x="227" y="353" width="42" height="32" class="nonterminal"/>
      <text class="nonterminal" x="237" y="373">hex</text>
   </a>
   <a xmlns:xlink="http://www.w3.org/1999/xlink"
       xlink:href="#hex"
       xlink:title="hex">
      <rect x="291" y="355" width="42" height="32"/>
      <rect x="289" y="353" width="42" height="32" class="nonterminal"/>
      <text class="nonterminal" x="299" y="373">hex</text>
   </a>
   <a xmlns:xlink="http://www.w3.org/1999/xlink"
       xlink:href="#hex"
       xlink:title="hex">
      <rect x="353" y="355" width="42" height="32"/>
      <rect x="351" y="353" width="42" height="32" class="nonterminal"/>
      <text class="nonterminal" x="361" y="373">hex</text>
   </a>
   <path class="line"
          d="m17 17 h2 m20 0 h10 m134 0 h10 m0 0 h230 m-404 0 h20 m384 0 h20 m-424 0 q10 0 10 10 m404 0 q0 -10 10 -10 m-414 10 v24 m404 0 v-24 m-404 24 q0 10 10 10 m384 0 q10 0 10 -10 m-394 10 h10 m28 0 h10 m20 0 h10 m28 0 h10 m0 0 h248 m-316 0 h20 m296 0 h20 m-336 0 q10 0 10 10 m316 0 q0 -10 10 -10 m-326 10 v24 m316 0 v-24 m-316 24 q0 10 10 10 m296 0 q10 0 10 -10 m-306 10 h10 m28 0 h10 m0 0 h248 m-306 -10 v20 m316 0 v-20 m-316 20 v24 m316 0 v-24 m-316 24 q0 10 10 10 m296 0 q10 0 10 -10 m-306 10 h10 m28 0 h10 m0 0 h248 m-306 -10 v20 m316 0 v-20 m-316 20 v24 m316 0 v-24 m-316 24 q0 10 10 10 m296 0 q10 0 10 -10 m-306 10 h10 m24 0 h10 m0 0 h252 m-306 -10 v20 m316 0 v-20 m-316 20 v24 m316 0 v-24 m-316 24 q0 10 10 10 m296 0 q10 0 10 -10 m-306 10 h10 m28 0 h10 m0 0 h248 m-306 -10 v20 m316 0 v-20 m-316 20 v24 m316 0 v-24 m-316 24 q0 10 10 10 m296 0 q10 0 10 -10 m-306 10 h10 m26 0 h10 m0 0 h250 m-306 -10 v20 m316 0 v-20 m-316 20 v24 m316 0 v-24 m-316 24 q0 10 10 10 m296 0 q10 0 10 -10 m-306 10 h10 m24 0 h10 m0 0 h252 m-306 -10 v20 m316 0 v-20 m-316 20 v24 m316 0 v-24 m-316 24 q0 10 10 10 m296 0 q10 0 10 -10 m-306 10 h10 m28 0 h10 m0 0 h10 m42 0 h10 m0 0 h10 m42 0 h10 m0 0 h10 m42 0 h10 m0 0 h10 m42 0 h10 m43 -352 h-3"/>
   <polygon points="453 17 461 13 461 21"/>
   <polygon points="453 17 445 13 445 21"/>
</svg>
