<?xml version="1.0" encoding="UTF-8"?>
<svg xmlns="http://www.w3.org/2000/svg" width="247" height="125">
   <defs>
      <style type="text/css">
    @namespace "http://www.w3.org/2000/svg";
    .line                 {fill: none; stroke: #332900; stroke-width: 1;}
    .bold-line            {stroke: #141000; shape-rendering: crispEdges; stroke-width: 2;}
    .thin-line            {stroke: #1F1800; shape-rendering: crispEdges}
    .filled               {fill: #332900; stroke: none;}
    text.terminal         {font-family: Verdana, Sans-serif;
                            font-size: 12px;
                            fill: #141000;
                            font-weight: bold;
                          }
    text.nonterminal      {font-family: Verdana, Sans-serif;
                            font-size: 12px;
                            fill: #1A1400;
                            font-weight: normal;
                          }
    text.regexp           {font-family: Verdana, Sans-serif;
                            font-size: 12px;
                            fill: #1F1800;
                            font-weight: normal;
                          }
    rect, circle, polygon {fill: #332900; stroke: #332900;}
    rect.terminal         {fill: #FFDB4D; stroke: #332900; stroke-width: 1;}
    rect.nonterminal      {fill: #FFEC9E; stroke: #332900; stroke-width: 1;}
    rect.text             {fill: none; stroke: none;}
    polygon.regexp        {fill: #FFF4C7; stroke: #332900; stroke-width: 1;}
  </style>
   </defs>
   <polygon points="9 17 1 13 1 21"/>
   <polygon points="17 17 9 13 9 21"/>
   <rect x="31" y="3" width="24" height="32" rx="10"/>
   <rect x="29"
          y="1"
          width="24"
          height="32"
          class="terminal"
          rx="10"/>
   <text class="terminal" x="39" y="21">,</text>
   <a xmlns:xlink="http://www.w3.org/1999/xlink"
       xlink:href="#rhs-keyspace"
       xlink:title="rhs-keyspace">
      <rect x="95" y="3" width="104" height="32"/>
      <rect x="93" y="1" width="104" height="32" class="nonterminal"/>
      <text class="nonterminal" x="103" y="21">rhs-keyspace</text>
   </a>
   <a xmlns:xlink="http://www.w3.org/1999/xlink"
       xlink:href="#rhs-subquery"
       xlink:title="rhs-subquery">
      <rect x="95" y="47" width="104" height="32"/>
      <rect x="93" y="45" width="104" height="32" class="nonterminal"/>
      <text class="nonterminal" x="103" y="65">rhs-subquery</text>
   </a>
   <a xmlns:xlink="http://www.w3.org/1999/xlink"
       xlink:href="#rhs-generic"
       xlink:title="rhs-generic">
      <rect x="95" y="91" width="92" height="32"/>
      <rect x="93" y="89" width="92" height="32" class="nonterminal"/>
      <text class="nonterminal" x="103" y="109">rhs-generic</text>
   </a>
   <path class="line"
          d="m17 17 h2 m0 0 h10 m24 0 h10 m20 0 h10 m104 0 h10 m-144 0 h20 m124 0 h20 m-164 0 q10 0 10 10 m144 0 q0 -10 10 -10 m-154 10 v24 m144 0 v-24 m-144 24 q0 10 10 10 m124 0 q10 0 10 -10 m-134 10 h10 m104 0 h10 m-134 -10 v20 m144 0 v-20 m-144 20 v24 m144 0 v-24 m-144 24 q0 10 10 10 m124 0 q10 0 10 -10 m-134 10 h10 m92 0 h10 m0 0 h12 m23 -88 h-3"/>
   <polygon points="237 17 245 13 245 21"/>
   <polygon points="237 17 229 13 229 21"/>
</svg>
