<?xml version="1.0" encoding="UTF-8"?>
<svg xmlns="http://www.w3.org/2000/svg" width="253" height="213">
   <defs>
      <style type="text/css">
    @namespace "http://www.w3.org/2000/svg";
    .line                 {fill: none; stroke: #332900; stroke-width: 1;}
    .bold-line            {stroke: #141000; shape-rendering: crispEdges; stroke-width: 2;}
    .thin-line            {stroke: #1F1800; shape-rendering: crispEdges}
    .filled               {fill: #332900; stroke: none;}
    text.terminal         {font-family: Verdana, Sans-serif;
                            font-size: 12px;
                            fill: #141000;
                            font-weight: bold;
                          }
    text.nonterminal      {font-family: Verdana, Sans-serif;
                            font-size: 12px;
                            fill: #1A1400;
                            font-weight: normal;
                          }
    text.regexp           {font-family: Verdana, Sans-serif;
                            font-size: 12px;
                            fill: #1F1800;
                            font-weight: normal;
                          }
    rect, circle, polygon {fill: #332900; stroke: #332900;}
    rect.terminal         {fill: #FFDB4D; stroke: #332900; stroke-width: 1;}
    rect.nonterminal      {fill: #FFEC9E; stroke: #332900; stroke-width: 1;}
    rect.text             {fill: none; stroke: none;}
    polygon.regexp        {fill: #FFF4C7; stroke: #332900; stroke-width: 1;}
  </style>
   </defs>
   <polygon points="9 17 1 13 1 21"/>
   <polygon points="17 17 9 13 9 21"/>
   <a xmlns:xlink="http://www.w3.org/1999/xlink"
       xlink:href="#create-scope"
       xlink:title="create-scope">
      <rect x="51" y="3" width="102" height="32"/>
      <rect x="49" y="1" width="102" height="32" class="nonterminal"/>
      <text class="nonterminal" x="59" y="21">create-scope</text>
   </a>
   <a xmlns:xlink="http://www.w3.org/1999/xlink"
       xlink:href="#create-collection"
       xlink:title="create-collection">
      <rect x="51" y="47" width="124" height="32"/>
      <rect x="49" y="45" width="124" height="32" class="nonterminal"/>
      <text class="nonterminal" x="59" y="65">create-collection</text>
   </a>
   <a xmlns:xlink="http://www.w3.org/1999/xlink"
       xlink:href="#create-primary-index"
       xlink:title="create-primary-index">
      <rect x="51" y="91" width="154" height="32"/>
      <rect x="49" y="89" width="154" height="32" class="nonterminal"/>
      <text class="nonterminal" x="59" y="109">create-primary-index</text>
   </a>
   <a xmlns:xlink="http://www.w3.org/1999/xlink"
       xlink:href="#create-index"
       xlink:title="create-index">
      <rect x="51" y="135" width="100" height="32"/>
      <rect x="49" y="133" width="100" height="32" class="nonterminal"/>
      <text class="nonterminal" x="59" y="153">create-index</text>
   </a>
   <a xmlns:xlink="http://www.w3.org/1999/xlink"
       xlink:href="#create-function"
       xlink:title="create-function">
      <rect x="51" y="179" width="116" height="32"/>
      <rect x="49" y="177" width="116" height="32" class="nonterminal"/>
      <text class="nonterminal" x="59" y="197">create-function</text>
   </a>
   <path class="line"
          d="m17 17 h2 m20 0 h10 m102 0 h10 m0 0 h52 m-194 0 h20 m174 0 h20 m-214 0 q10 0 10 10 m194 0 q0 -10 10 -10 m-204 10 v24 m194 0 v-24 m-194 24 q0 10 10 10 m174 0 q10 0 10 -10 m-184 10 h10 m124 0 h10 m0 0 h30 m-184 -10 v20 m194 0 v-20 m-194 20 v24 m194 0 v-24 m-194 24 q0 10 10 10 m174 0 q10 0 10 -10 m-184 10 h10 m154 0 h10 m-184 -10 v20 m194 0 v-20 m-194 20 v24 m194 0 v-24 m-194 24 q0 10 10 10 m174 0 q10 0 10 -10 m-184 10 h10 m100 0 h10 m0 0 h54 m-184 -10 v20 m194 0 v-20 m-194 20 v24 m194 0 v-24 m-194 24 q0 10 10 10 m174 0 q10 0 10 -10 m-184 10 h10 m116 0 h10 m0 0 h38 m23 -176 h-3"/>
   <polygon points="243 17 251 13 251 21"/>
   <polygon points="243 17 235 13 235 21"/>
</svg>
