<?xml version="1.0" encoding="UTF-8"?>
<svg xmlns="http://www.w3.org/2000/svg" width="273" height="81">
   <defs>
      <style type="text/css">
    @namespace "http://www.w3.org/2000/svg";
    .line                 {fill: none; stroke: #332900; stroke-width: 1;}
    .bold-line            {stroke: #141000; shape-rendering: crispEdges; stroke-width: 2;}
    .thin-line            {stroke: #1F1800; shape-rendering: crispEdges}
    .filled               {fill: #332900; stroke: none;}
    text.terminal         {font-family: Verdana, Sans-serif;
                            font-size: 12px;
                            fill: #141000;
                            font-weight: bold;
                          }
    text.nonterminal      {font-family: Verdana, Sans-serif;
                            font-size: 12px;
                            fill: #1A1400;
                            font-weight: normal;
                          }
    text.regexp           {font-family: Verdana, Sans-serif;
                            font-size: 12px;
                            fill: #1F1800;
                            font-weight: normal;
                          }
    rect, circle, polygon {fill: #332900; stroke: #332900;}
    rect.terminal         {fill: #FFDB4D; stroke: #332900; stroke-width: 1;}
    rect.nonterminal      {fill: #FFEC9E; stroke: #332900; stroke-width: 1;}
    rect.text             {fill: none; stroke: none;}
    polygon.regexp        {fill: #FFF4C7; stroke: #332900; stroke-width: 1;}
  </style>
   </defs>
   <polygon points="9 17 1 13 1 21"/>
   <polygon points="17 17 9 13 9 21"/>
   <a xmlns:xlink="http://www.w3.org/1999/xlink"
       xlink:href="#create-function-inline"
       xlink:title="create-function-inline">
      <rect x="51" y="3" width="156" height="32"/>
      <rect x="49" y="1" width="156" height="32" class="nonterminal"/>
      <text class="nonterminal" x="59" y="21">create-function-inline</text>
   </a>
   <a xmlns:xlink="http://www.w3.org/1999/xlink"
       xlink:href="#create-function-external"
       xlink:title="create-function-external">
      <rect x="51" y="47" width="174" height="32"/>
      <rect x="49" y="45" width="174" height="32" class="nonterminal"/>
      <text class="nonterminal" x="59" y="65">create-function-external</text>
   </a>
   <path class="line"
          d="m17 17 h2 m20 0 h10 m156 0 h10 m0 0 h18 m-214 0 h20 m194 0 h20 m-234 0 q10 0 10 10 m214 0 q0 -10 10 -10 m-224 10 v24 m214 0 v-24 m-214 24 q0 10 10 10 m194 0 q10 0 10 -10 m-204 10 h10 m174 0 h10 m23 -44 h-3"/>
   <polygon points="263 17 271 13 271 21"/>
   <polygon points="263 17 255 13 255 21"/>
</svg>
