<?xml version="1.0" encoding="UTF-8"?>
<svg xmlns="http://www.w3.org/2000/svg" width="747" height="233">
   <defs>
      <style type="text/css">
    @namespace "http://www.w3.org/2000/svg";
    .line                 {fill: none; stroke: #332900; stroke-width: 1;}
    .bold-line            {stroke: #141000; shape-rendering: crispEdges; stroke-width: 2;}
    .thin-line            {stroke: #1F1800; shape-rendering: crispEdges}
    .filled               {fill: #332900; stroke: none;}
    text.terminal         {font-family: Verdana, Sans-serif;
                            font-size: 12px;
                            fill: #141000;
                            font-weight: bold;
                          }
    text.nonterminal      {font-family: Verdana, Sans-serif;
                            font-size: 12px;
                            fill: #1A1400;
                            font-weight: normal;
                          }
    text.regexp           {font-family: Verdana, Sans-serif;
                            font-size: 12px;
                            fill: #1F1800;
                            font-weight: normal;
                          }
    rect, circle, polygon {fill: #332900; stroke: #332900;}
    rect.terminal         {fill: #FFDB4D; stroke: #332900; stroke-width: 1;}
    rect.nonterminal      {fill: #FFEC9E; stroke: #332900; stroke-width: 1;}
    rect.text             {fill: none; stroke: none;}
    polygon.regexp        {fill: #FFF4C7; stroke: #332900; stroke-width: 1;}
  </style>
   </defs>
   <polygon points="9 17 1 13 1 21"/>
   <polygon points="17 17 9 13 9 21"/>
   <rect x="31" y="3" width="72" height="32" rx="10"/>
   <rect x="29"
          y="1"
          width="72"
          height="32"
          class="terminal"
          rx="10"/>
   <text class="terminal" x="39" y="21">CREATE</text>
   <rect x="143" y="35" width="40" height="32" rx="10"/>
   <rect x="141"
          y="33"
          width="40"
          height="32"
          class="terminal"
          rx="10"/>
   <text class="terminal" x="151" y="53">OR</text>
   <rect x="203" y="35" width="80" height="32" rx="10"/>
   <rect x="201"
          y="33"
          width="80"
          height="32"
          class="terminal"
          rx="10"/>
   <text class="terminal" x="211" y="53">REPLACE</text>
   <rect x="323" y="3" width="92" height="32" rx="10"/>
   <rect x="321"
          y="1"
          width="92"
          height="32"
          class="terminal"
          rx="10"/>
   <text class="terminal" x="331" y="21">FUNCTION</text>
   <a xmlns:xlink="http://www.w3.org/1999/xlink"
       xlink:href="#function"
       xlink:title="function">
      <rect x="435" y="3" width="70" height="32"/>
      <rect x="433" y="1" width="70" height="32" class="nonterminal"/>
      <text class="nonterminal" x="443" y="21">function</text>
   </a>
   <rect x="525" y="3" width="26" height="32" rx="10"/>
   <rect x="523"
          y="1"
          width="26"
          height="32"
          class="terminal"
          rx="10"/>
   <text class="terminal" x="533" y="21">(</text>
   <a xmlns:xlink="http://www.w3.org/1999/xlink"
       xlink:href="#params"
       xlink:title="params">
      <rect x="591" y="35" width="68" height="32"/>
      <rect x="589" y="33" width="68" height="32" class="nonterminal"/>
      <text class="nonterminal" x="599" y="53">params</text>
   </a>
   <rect x="699" y="3" width="26" height="32" rx="10"/>
   <rect x="697"
          y="1"
          width="26"
          height="32"
          class="terminal"
          rx="10"/>
   <text class="terminal" x="707" y="21">)</text>
   <rect x="71" y="133" width="34" height="32" rx="10"/>
   <rect x="69"
          y="131"
          width="34"
          height="32"
          class="terminal"
          rx="10"/>
   <text class="terminal" x="79" y="151">IF</text>
   <rect x="125" y="133" width="48" height="32" rx="10"/>
   <rect x="123"
          y="131"
          width="48"
          height="32"
          class="terminal"
          rx="10"/>
   <text class="terminal" x="133" y="151">NOT</text>
   <rect x="193" y="133" width="70" height="32" rx="10"/>
   <rect x="191"
          y="131"
          width="70"
          height="32"
          class="terminal"
          rx="10"/>
   <text class="terminal" x="201" y="151">EXISTS</text>
   <rect x="303" y="101" width="94" height="32" rx="10"/>
   <rect x="301"
          y="99"
          width="94"
          height="32"
          class="terminal"
          rx="10"/>
   <text class="terminal" x="311" y="119">LANGUAGE</text>
   <rect x="417" y="101" width="106" height="32" rx="10"/>
   <rect x="415"
          y="99"
          width="106"
          height="32"
          class="terminal"
          rx="10"/>
   <text class="terminal" x="425" y="119">JAVASCRIPT</text>
   <rect x="543" y="101" width="38" height="32" rx="10"/>
   <rect x="541"
          y="99"
          width="38"
          height="32"
          class="terminal"
          rx="10"/>
   <text class="terminal" x="551" y="119">AS</text>
   <a xmlns:xlink="http://www.w3.org/1999/xlink"
       xlink:href="#obj"
       xlink:title="obj">
      <rect x="601" y="101" width="40" height="32"/>
      <rect x="599" y="99" width="40" height="32" class="nonterminal"/>
      <text class="nonterminal" x="609" y="119">obj</text>
   </a>
   <rect x="661" y="101" width="38" height="32" rx="10"/>
   <rect x="659"
          y="99"
          width="38"
          height="32"
          class="terminal"
          rx="10"/>
   <text class="terminal" x="669" y="119">AT</text>
   <a xmlns:xlink="http://www.w3.org/1999/xlink"
       xlink:href="#library"
       xlink:title="library">
      <rect x="659" y="199" width="60" height="32"/>
      <rect x="657" y="197" width="60" height="32" class="nonterminal"/>
      <text class="nonterminal" x="667" y="217">library</text>
   </a>
   <path class="line"
          d="m17 17 h2 m0 0 h10 m72 0 h10 m20 0 h10 m0 0 h150 m-180 0 h20 m160 0 h20 m-200 0 q10 0 10 10 m180 0 q0 -10 10 -10 m-190 10 v12 m180 0 v-12 m-180 12 q0 10 10 10 m160 0 q10 0 10 -10 m-170 10 h10 m40 0 h10 m0 0 h10 m80 0 h10 m20 -32 h10 m92 0 h10 m0 0 h10 m70 0 h10 m0 0 h10 m26 0 h10 m20 0 h10 m0 0 h78 m-108 0 h20 m88 0 h20 m-128 0 q10 0 10 10 m108 0 q0 -10 10 -10 m-118 10 v12 m108 0 v-12 m-108 12 q0 10 10 10 m88 0 q10 0 10 -10 m-98 10 h10 m68 0 h10 m20 -32 h10 m26 0 h10 m2 0 l2 0 m2 0 l2 0 m2 0 l2 0 m-718 98 l2 0 m2 0 l2 0 m2 0 l2 0 m22 0 h10 m0 0 h202 m-232 0 h20 m212 0 h20 m-252 0 q10 0 10 10 m232 0 q0 -10 10 -10 m-242 10 v12 m232 0 v-12 m-232 12 q0 10 10 10 m212 0 q10 0 10 -10 m-222 10 h10 m34 0 h10 m0 0 h10 m48 0 h10 m0 0 h10 m70 0 h10 m20 -32 h10 m94 0 h10 m0 0 h10 m106 0 h10 m0 0 h10 m38 0 h10 m0 0 h10 m40 0 h10 m0 0 h10 m38 0 h10 m2 0 l2 0 m2 0 l2 0 m2 0 l2 0 m-84 98 l2 0 m2 0 l2 0 m2 0 l2 0 m2 0 h10 m60 0 h10 m3 0 h-3"/>
   <polygon points="737 213 745 209 745 217"/>
   <polygon points="737 213 729 209 729 217"/>
</svg>
