<?xml version="1.0" encoding="UTF-8"?>
<svg xmlns="http://www.w3.org/2000/svg" width="779" height="167">
   <defs>
      <style type="text/css">
    @namespace "http://www.w3.org/2000/svg";
    .line                 {fill: none; stroke: #332900; stroke-width: 1;}
    .bold-line            {stroke: #141000; shape-rendering: crispEdges; stroke-width: 2;}
    .thin-line            {stroke: #1F1800; shape-rendering: crispEdges}
    .filled               {fill: #332900; stroke: none;}
    text.terminal         {font-family: Verdana, Sans-serif;
                            font-size: 12px;
                            fill: #141000;
                            font-weight: bold;
                          }
    text.nonterminal      {font-family: Verdana, Sans-serif;
                            font-size: 12px;
                            fill: #1A1400;
                            font-weight: normal;
                          }
    text.regexp           {font-family: Verdana, Sans-serif;
                            font-size: 12px;
                            fill: #1F1800;
                            font-weight: normal;
                          }
    rect, circle, polygon {fill: #332900; stroke: #332900;}
    rect.terminal         {fill: #FFDB4D; stroke: #332900; stroke-width: 1;}
    rect.nonterminal      {fill: #FFEC9E; stroke: #332900; stroke-width: 1;}
    rect.text             {fill: none; stroke: none;}
    polygon.regexp        {fill: #FFF4C7; stroke: #332900; stroke-width: 1;}
  </style>
   </defs>
   <polygon points="9 17 1 13 1 21"/>
   <polygon points="17 17 9 13 9 21"/>
   <rect x="31" y="3" width="72" height="32" rx="10"/>
   <rect x="29"
          y="1"
          width="72"
          height="32"
          class="terminal"
          rx="10"/>
   <text class="terminal" x="39" y="21">CREATE</text>
   <rect x="123" y="3" width="84" height="32" rx="10"/>
   <rect x="121"
          y="1"
          width="84"
          height="32"
          class="terminal"
          rx="10"/>
   <text class="terminal" x="131" y="21">PRIMARY</text>
   <rect x="227" y="3" width="64" height="32" rx="10"/>
   <rect x="225"
          y="1"
          width="64"
          height="32"
          class="terminal"
          rx="10"/>
   <text class="terminal" x="235" y="21">INDEX</text>
   <a xmlns:xlink="http://www.w3.org/1999/xlink"
       xlink:href="#index-name"
       xlink:title="index-name">
      <rect x="331" y="35" width="94" height="32"/>
      <rect x="329" y="33" width="94" height="32" class="nonterminal"/>
      <text class="nonterminal" x="339" y="53">index-name</text>
   </a>
   <rect x="485" y="35" width="34" height="32" rx="10"/>
   <rect x="483"
          y="33"
          width="34"
          height="32"
          class="terminal"
          rx="10"/>
   <text class="terminal" x="493" y="53">IF</text>
   <rect x="539" y="35" width="48" height="32" rx="10"/>
   <rect x="537"
          y="33"
          width="48"
          height="32"
          class="terminal"
          rx="10"/>
   <text class="terminal" x="547" y="53">NOT</text>
   <rect x="607" y="35" width="70" height="32" rx="10"/>
   <rect x="605"
          y="33"
          width="70"
          height="32"
          class="terminal"
          rx="10"/>
   <text class="terminal" x="615" y="53">EXISTS</text>
   <rect x="717" y="3" width="40" height="32" rx="10"/>
   <rect x="715"
          y="1"
          width="40"
          height="32"
          class="terminal"
          rx="10"/>
   <text class="terminal" x="725" y="21">ON</text>
   <a xmlns:xlink="http://www.w3.org/1999/xlink"
       xlink:href="#keyspace-ref"
       xlink:title="keyspace-ref">
      <rect x="349" y="101" width="102" height="32"/>
      <rect x="347" y="99" width="102" height="32" class="nonterminal"/>
      <text class="nonterminal" x="357" y="119">keyspace-ref</text>
   </a>
   <a xmlns:xlink="http://www.w3.org/1999/xlink"
       xlink:href="#index-using"
       xlink:title="index-using">
      <rect x="491" y="133" width="94" height="32"/>
      <rect x="489" y="131" width="94" height="32" class="nonterminal"/>
      <text class="nonterminal" x="499" y="151">index-using</text>
   </a>
   <a xmlns:xlink="http://www.w3.org/1999/xlink"
       xlink:href="#index-with"
       xlink:title="index-with">
      <rect x="645" y="133" width="86" height="32"/>
      <rect x="643" y="131" width="86" height="32" class="nonterminal"/>
      <text class="nonterminal" x="653" y="151">index-with</text>
   </a>
   <path class="line"
          d="m17 17 h2 m0 0 h10 m72 0 h10 m0 0 h10 m84 0 h10 m0 0 h10 m64 0 h10 m20 0 h10 m0 0 h104 m-134 0 h20 m114 0 h20 m-154 0 q10 0 10 10 m134 0 q0 -10 10 -10 m-144 10 v12 m134 0 v-12 m-134 12 q0 10 10 10 m114 0 q10 0 10 -10 m-124 10 h10 m94 0 h10 m40 -32 h10 m0 0 h202 m-232 0 h20 m212 0 h20 m-252 0 q10 0 10 10 m232 0 q0 -10 10 -10 m-242 10 v12 m232 0 v-12 m-232 12 q0 10 10 10 m212 0 q10 0 10 -10 m-222 10 h10 m34 0 h10 m0 0 h10 m48 0 h10 m0 0 h10 m70 0 h10 m20 -32 h10 m40 0 h10 m2 0 l2 0 m2 0 l2 0 m2 0 l2 0 m-452 98 l2 0 m2 0 l2 0 m2 0 l2 0 m2 0 h10 m102 0 h10 m20 0 h10 m0 0 h104 m-134 0 h20 m114 0 h20 m-154 0 q10 0 10 10 m134 0 q0 -10 10 -10 m-144 10 v12 m134 0 v-12 m-134 12 q0 10 10 10 m114 0 q10 0 10 -10 m-124 10 h10 m94 0 h10 m40 -32 h10 m0 0 h96 m-126 0 h20 m106 0 h20 m-146 0 q10 0 10 10 m126 0 q0 -10 10 -10 m-136 10 v12 m126 0 v-12 m-126 12 q0 10 10 10 m106 0 q10 0 10 -10 m-116 10 h10 m86 0 h10 m23 -32 h-3"/>
   <polygon points="769 115 777 111 777 119"/>
   <polygon points="769 115 761 111 761 119"/>
</svg>
