<?xml version="1.0" encoding="UTF-8"?>
<svg xmlns="http://www.w3.org/2000/svg" width="777" height="285">
   <defs>
      <style type="text/css">
    @namespace "http://www.w3.org/2000/svg";
    .line                 {fill: none; stroke: #332900; stroke-width: 1;}
    .bold-line            {stroke: #141000; shape-rendering: crispEdges; stroke-width: 2;}
    .thin-line            {stroke: #1F1800; shape-rendering: crispEdges}
    .filled               {fill: #332900; stroke: none;}
    text.terminal         {font-family: Verdana, Sans-serif;
                            font-size: 12px;
                            fill: #141000;
                            font-weight: bold;
                          }
    text.nonterminal      {font-family: Verdana, Sans-serif;
                            font-size: 12px;
                            fill: #1A1400;
                            font-weight: normal;
                          }
    text.regexp           {font-family: Verdana, Sans-serif;
                            font-size: 12px;
                            fill: #1F1800;
                            font-weight: normal;
                          }
    rect, circle, polygon {fill: #332900; stroke: #332900;}
    rect.terminal         {fill: #FFDB4D; stroke: #332900; stroke-width: 1;}
    rect.nonterminal      {fill: #FFEC9E; stroke: #332900; stroke-width: 1;}
    rect.text             {fill: none; stroke: none;}
    polygon.regexp        {fill: #FFF4C7; stroke: #332900; stroke-width: 1;}
  </style>
   </defs>
   <polygon points="9 17 1 13 1 21"/>
   <polygon points="17 17 9 13 9 21"/>
   <rect x="31" y="3" width="72" height="32" rx="10"/>
   <rect x="29"
          y="1"
          width="72"
          height="32"
          class="terminal"
          rx="10"/>
   <text class="terminal" x="39" y="21">CREATE</text>
   <rect x="123" y="3" width="64" height="32" rx="10"/>
   <rect x="121"
          y="1"
          width="64"
          height="32"
          class="terminal"
          rx="10"/>
   <text class="terminal" x="131" y="21">INDEX</text>
   <a xmlns:xlink="http://www.w3.org/1999/xlink"
       xlink:href="#index-name"
       xlink:title="index-name">
      <rect x="207" y="3" width="94" height="32"/>
      <rect x="205" y="1" width="94" height="32" class="nonterminal"/>
      <text class="nonterminal" x="215" y="21">index-name</text>
   </a>
   <rect x="341" y="35" width="34" height="32" rx="10"/>
   <rect x="339"
          y="33"
          width="34"
          height="32"
          class="terminal"
          rx="10"/>
   <text class="terminal" x="349" y="53">IF</text>
   <rect x="395" y="35" width="48" height="32" rx="10"/>
   <rect x="393"
          y="33"
          width="48"
          height="32"
          class="terminal"
          rx="10"/>
   <text class="terminal" x="403" y="53">NOT</text>
   <rect x="463" y="35" width="70" height="32" rx="10"/>
   <rect x="461"
          y="33"
          width="70"
          height="32"
          class="terminal"
          rx="10"/>
   <text class="terminal" x="471" y="53">EXISTS</text>
   <rect x="573" y="3" width="40" height="32" rx="10"/>
   <rect x="571"
          y="1"
          width="40"
          height="32"
          class="terminal"
          rx="10"/>
   <text class="terminal" x="581" y="21">ON</text>
   <a xmlns:xlink="http://www.w3.org/1999/xlink"
       xlink:href="#keyspace-ref"
       xlink:title="keyspace-ref">
      <rect x="633" y="3" width="102" height="32"/>
      <rect x="631" y="1" width="102" height="32" class="nonterminal"/>
      <text class="nonterminal" x="641" y="21">keyspace-ref</text>
   </a>
   <rect x="25" y="117" width="26" height="32" rx="10"/>
   <rect x="23"
          y="115"
          width="26"
          height="32"
          class="terminal"
          rx="10"/>
   <text class="terminal" x="33" y="135">(</text>
   <a xmlns:xlink="http://www.w3.org/1999/xlink"
       xlink:href="#index-key"
       xlink:title="index-key">
      <rect x="71" y="117" width="82" height="32"/>
      <rect x="69" y="115" width="82" height="32" class="nonterminal"/>
      <text class="nonterminal" x="79" y="135">index-key</text>
   </a>
   <a xmlns:xlink="http://www.w3.org/1999/xlink"
       xlink:href="#lead-key-attribs"
       xlink:title="lead-key-attribs">
      <rect x="193" y="149" width="122" height="32"/>
      <rect x="191" y="147" width="122" height="32" class="nonterminal"/>
      <text class="nonterminal" x="201" y="167">lead-key-attribs</text>
   </a>
   <rect x="395" y="117" width="24" height="32" rx="10"/>
   <rect x="393"
          y="115"
          width="24"
          height="32"
          class="terminal"
          rx="10"/>
   <text class="terminal" x="403" y="135">,</text>
   <a xmlns:xlink="http://www.w3.org/1999/xlink"
       xlink:href="#index-key"
       xlink:title="index-key">
      <rect x="439" y="117" width="82" height="32"/>
      <rect x="437" y="115" width="82" height="32" class="nonterminal"/>
      <text class="nonterminal" x="447" y="135">index-key</text>
   </a>
   <a xmlns:xlink="http://www.w3.org/1999/xlink"
       xlink:href="#key-attribs"
       xlink:title="key-attribs">
      <rect x="561" y="149" width="88" height="32"/>
      <rect x="559" y="147" width="88" height="32" class="nonterminal"/>
      <text class="nonterminal" x="569" y="167">key-attribs</text>
   </a>
   <rect x="729" y="117" width="26" height="32" rx="10"/>
   <rect x="727"
          y="115"
          width="26"
          height="32"
          class="terminal"
          rx="10"/>
   <text class="terminal" x="737" y="135">)</text>
   <a xmlns:xlink="http://www.w3.org/1999/xlink"
       xlink:href="#index-partition"
       xlink:title="index-partition">
      <rect x="151" y="251" width="114" height="32"/>
      <rect x="149" y="249" width="114" height="32" class="nonterminal"/>
      <text class="nonterminal" x="159" y="269">index-partition</text>
   </a>
   <a xmlns:xlink="http://www.w3.org/1999/xlink"
       xlink:href="#where-clause"
       xlink:title="where-clause">
      <rect x="325" y="251" width="104" height="32"/>
      <rect x="323" y="249" width="104" height="32" class="nonterminal"/>
      <text class="nonterminal" x="333" y="269">where-clause</text>
   </a>
   <a xmlns:xlink="http://www.w3.org/1999/xlink"
       xlink:href="#index-using"
       xlink:title="index-using">
      <rect x="489" y="251" width="94" height="32"/>
      <rect x="487" y="249" width="94" height="32" class="nonterminal"/>
      <text class="nonterminal" x="497" y="269">index-using</text>
   </a>
   <a xmlns:xlink="http://www.w3.org/1999/xlink"
       xlink:href="#index-with"
       xlink:title="index-with">
      <rect x="643" y="251" width="86" height="32"/>
      <rect x="641" y="249" width="86" height="32" class="nonterminal"/>
      <text class="nonterminal" x="651" y="269">index-with</text>
   </a>
   <path class="line"
          d="m17 17 h2 m0 0 h10 m72 0 h10 m0 0 h10 m64 0 h10 m0 0 h10 m94 0 h10 m20 0 h10 m0 0 h202 m-232 0 h20 m212 0 h20 m-252 0 q10 0 10 10 m232 0 q0 -10 10 -10 m-242 10 v12 m232 0 v-12 m-232 12 q0 10 10 10 m212 0 q10 0 10 -10 m-222 10 h10 m34 0 h10 m0 0 h10 m48 0 h10 m0 0 h10 m70 0 h10 m20 -32 h10 m40 0 h10 m0 0 h10 m102 0 h10 m2 0 l2 0 m2 0 l2 0 m2 0 l2 0 m-754 114 l2 0 m2 0 l2 0 m2 0 l2 0 m2 0 h10 m26 0 h10 m0 0 h10 m82 0 h10 m20 0 h10 m0 0 h132 m-162 0 h20 m142 0 h20 m-182 0 q10 0 10 10 m162 0 q0 -10 10 -10 m-172 10 v12 m162 0 v-12 m-162 12 q0 10 10 10 m142 0 q10 0 10 -10 m-152 10 h10 m122 0 h10 m60 -32 h10 m24 0 h10 m0 0 h10 m82 0 h10 m20 0 h10 m0 0 h98 m-128 0 h20 m108 0 h20 m-148 0 q10 0 10 10 m128 0 q0 -10 10 -10 m-138 10 v12 m128 0 v-12 m-128 12 q0 10 10 10 m108 0 q10 0 10 -10 m-118 10 h10 m88 0 h10 m-294 -32 l20 0 m-1 0 q-9 0 -9 -10 l0 -12 q0 -10 10 -10 m294 32 l20 0 m-20 0 q10 0 10 -10 l0 -12 q0 -10 -10 -10 m-294 0 h10 m0 0 h284 m-334 32 h20 m334 0 h20 m-374 0 q10 0 10 10 m354 0 q0 -10 10 -10 m-364 10 v46 m354 0 v-46 m-354 46 q0 10 10 10 m334 0 q10 0 10 -10 m-344 10 h10 m0 0 h324 m20 -66 h10 m26 0 h10 m2 0 l2 0 m2 0 l2 0 m2 0 l2 0 m-668 102 l2 0 m2 0 l2 0 m2 0 l2 0 m22 0 h10 m0 0 h124 m-154 0 h20 m134 0 h20 m-174 0 q10 0 10 10 m154 0 q0 -10 10 -10 m-164 10 v12 m154 0 v-12 m-154 12 q0 10 10 10 m134 0 q10 0 10 -10 m-144 10 h10 m114 0 h10 m40 -32 h10 m0 0 h114 m-144 0 h20 m124 0 h20 m-164 0 q10 0 10 10 m144 0 q0 -10 10 -10 m-154 10 v12 m144 0 v-12 m-144 12 q0 10 10 10 m124 0 q10 0 10 -10 m-134 10 h10 m104 0 h10 m40 -32 h10 m0 0 h104 m-134 0 h20 m114 0 h20 m-154 0 q10 0 10 10 m134 0 q0 -10 10 -10 m-144 10 v12 m134 0 v-12 m-134 12 q0 10 10 10 m114 0 q10 0 10 -10 m-124 10 h10 m94 0 h10 m40 -32 h10 m0 0 h96 m-126 0 h20 m106 0 h20 m-146 0 q10 0 10 10 m126 0 q0 -10 10 -10 m-136 10 v12 m126 0 v-12 m-126 12 q0 10 10 10 m106 0 q10 0 10 -10 m-116 10 h10 m86 0 h10 m23 -32 h-3"/>
   <polygon points="767 233 775 229 775 237"/>
   <polygon points="767 233 759 229 759 237"/>
</svg>
