<?xml version="1.0" encoding="UTF-8"?>
<svg xmlns="http://www.w3.org/2000/svg" width="695" height="155">
   <defs>
      <style type="text/css">
    @namespace "http://www.w3.org/2000/svg";
    .line                 {fill: none; stroke: #332900; stroke-width: 1;}
    .bold-line            {stroke: #141000; shape-rendering: crispEdges; stroke-width: 2;}
    .thin-line            {stroke: #1F1800; shape-rendering: crispEdges}
    .filled               {fill: #332900; stroke: none;}
    text.terminal         {font-family: Verdana, Sans-serif;
                            font-size: 12px;
                            fill: #141000;
                            font-weight: bold;
                          }
    text.nonterminal      {font-family: Verdana, Sans-serif;
                            font-size: 12px;
                            fill: #1A1400;
                            font-weight: normal;
                          }
    text.regexp           {font-family: Verdana, Sans-serif;
                            font-size: 12px;
                            fill: #1F1800;
                            font-weight: normal;
                          }
    rect, circle, polygon {fill: #332900; stroke: #332900;}
    rect.terminal         {fill: #FFDB4D; stroke: #332900; stroke-width: 1;}
    rect.nonterminal      {fill: #FFEC9E; stroke: #332900; stroke-width: 1;}
    rect.text             {fill: none; stroke: none;}
    polygon.regexp        {fill: #FFF4C7; stroke: #332900; stroke-width: 1;}
  </style>
   </defs>
   <polygon points="9 17 1 13 1 21"/>
   <polygon points="17 17 9 13 9 21"/>
   <rect x="31" y="3" width="70" height="32" rx="10"/>
   <rect x="29"
          y="1"
          width="70"
          height="32"
          class="terminal"
          rx="10"/>
   <text class="terminal" x="39" y="21">DELETE</text>
   <rect x="121" y="3" width="60" height="32" rx="10"/>
   <rect x="119"
          y="1"
          width="60"
          height="32"
          class="terminal"
          rx="10"/>
   <text class="terminal" x="129" y="21">FROM</text>
   <a xmlns:xlink="http://www.w3.org/1999/xlink"
       xlink:href="#target-keyspace"
       xlink:title="target-keyspace">
      <rect x="201" y="3" width="124" height="32"/>
      <rect x="199" y="1" width="124" height="32" class="nonterminal"/>
      <text class="nonterminal" x="209" y="21">target-keyspace</text>
   </a>
   <a xmlns:xlink="http://www.w3.org/1999/xlink"
       xlink:href="#use-keys-clause"
       xlink:title="use-keys-clause">
      <rect x="365" y="35" width="124" height="32"/>
      <rect x="363" y="33" width="124" height="32" class="nonterminal"/>
      <text class="nonterminal" x="373" y="53">use-keys-clause</text>
   </a>
   <a xmlns:xlink="http://www.w3.org/1999/xlink"
       xlink:href="#where-clause"
       xlink:title="where-clause">
      <rect x="549" y="35" width="104" height="32"/>
      <rect x="547" y="33" width="104" height="32" class="nonterminal"/>
      <text class="nonterminal" x="557" y="53">where-clause</text>
   </a>
   <a xmlns:xlink="http://www.w3.org/1999/xlink"
       xlink:href="#limit-clause"
       xlink:title="limit-clause">
      <rect x="371" y="121" width="92" height="32"/>
      <rect x="369" y="119" width="92" height="32" class="nonterminal"/>
      <text class="nonterminal" x="379" y="139">limit-clause</text>
   </a>
   <a xmlns:xlink="http://www.w3.org/1999/xlink"
       xlink:href="#returning-clause"
       xlink:title="returning-clause">
      <rect x="523" y="121" width="124" height="32"/>
      <rect x="521" y="119" width="124" height="32" class="nonterminal"/>
      <text class="nonterminal" x="531" y="139">returning-clause</text>
   </a>
   <path class="line"
          d="m17 17 h2 m0 0 h10 m70 0 h10 m0 0 h10 m60 0 h10 m0 0 h10 m124 0 h10 m20 0 h10 m0 0 h134 m-164 0 h20 m144 0 h20 m-184 0 q10 0 10 10 m164 0 q0 -10 10 -10 m-174 10 v12 m164 0 v-12 m-164 12 q0 10 10 10 m144 0 q10 0 10 -10 m-154 10 h10 m124 0 h10 m40 -32 h10 m0 0 h114 m-144 0 h20 m124 0 h20 m-164 0 q10 0 10 10 m144 0 q0 -10 10 -10 m-154 10 v12 m144 0 v-12 m-144 12 q0 10 10 10 m124 0 q10 0 10 -10 m-134 10 h10 m104 0 h10 m22 -32 l2 0 m2 0 l2 0 m2 0 l2 0 m-366 86 l2 0 m2 0 l2 0 m2 0 l2 0 m22 0 h10 m0 0 h102 m-132 0 h20 m112 0 h20 m-152 0 q10 0 10 10 m132 0 q0 -10 10 -10 m-142 10 v12 m132 0 v-12 m-132 12 q0 10 10 10 m112 0 q10 0 10 -10 m-122 10 h10 m92 0 h10 m40 -32 h10 m0 0 h134 m-164 0 h20 m144 0 h20 m-184 0 q10 0 10 10 m164 0 q0 -10 10 -10 m-174 10 v12 m164 0 v-12 m-164 12 q0 10 10 10 m144 0 q10 0 10 -10 m-154 10 h10 m124 0 h10 m23 -32 h-3"/>
   <polygon points="685 103 693 99 693 107"/>
   <polygon points="685 103 677 99 677 107"/>
</svg>
