<?xml version="1.0" encoding="UTF-8"?>
<svg xmlns="http://www.w3.org/2000/svg" width="163" height="213">
   <defs>
      <style type="text/css">
    @namespace "http://www.w3.org/2000/svg";
    .line                 {fill: none; stroke: #332900; stroke-width: 1;}
    .bold-line            {stroke: #141000; shape-rendering: crispEdges; stroke-width: 2;}
    .thin-line            {stroke: #1F1800; shape-rendering: crispEdges}
    .filled               {fill: #332900; stroke: none;}
    text.terminal         {font-family: Verdana, Sans-serif;
                            font-size: 12px;
                            fill: #141000;
                            font-weight: bold;
                          }
    text.nonterminal      {font-family: Verdana, Sans-serif;
                            font-size: 12px;
                            fill: #1A1400;
                            font-weight: normal;
                          }
    text.regexp           {font-family: Verdana, Sans-serif;
                            font-size: 12px;
                            fill: #1F1800;
                            font-weight: normal;
                          }
    rect, circle, polygon {fill: #332900; stroke: #332900;}
    rect.terminal         {fill: #FFDB4D; stroke: #332900; stroke-width: 1;}
    rect.nonterminal      {fill: #FFEC9E; stroke: #332900; stroke-width: 1;}
    rect.text             {fill: none; stroke: none;}
    polygon.regexp        {fill: #FFF4C7; stroke: #332900; stroke-width: 1;}
  </style>
   </defs>
   <polygon points="9 17 1 13 1 21"/>
   <polygon points="17 17 9 13 9 21"/>
   <a xmlns:xlink="http://www.w3.org/1999/xlink"
       xlink:href="#delete"
       xlink:title="delete">
      <rect x="51" y="3" width="60" height="32"/>
      <rect x="49" y="1" width="60" height="32" class="nonterminal"/>
      <text class="nonterminal" x="59" y="21">delete</text>
   </a>
   <a xmlns:xlink="http://www.w3.org/1999/xlink"
       xlink:href="#insert"
       xlink:title="insert">
      <rect x="51" y="47" width="56" height="32"/>
      <rect x="49" y="45" width="56" height="32" class="nonterminal"/>
      <text class="nonterminal" x="59" y="65">insert</text>
   </a>
   <a xmlns:xlink="http://www.w3.org/1999/xlink"
       xlink:href="#merge"
       xlink:title="merge">
      <rect x="51" y="91" width="60" height="32"/>
      <rect x="49" y="89" width="60" height="32" class="nonterminal"/>
      <text class="nonterminal" x="59" y="109">merge</text>
   </a>
   <a xmlns:xlink="http://www.w3.org/1999/xlink"
       xlink:href="#update"
       xlink:title="update">
      <rect x="51" y="135" width="64" height="32"/>
      <rect x="49" y="133" width="64" height="32" class="nonterminal"/>
      <text class="nonterminal" x="59" y="153">update</text>
   </a>
   <a xmlns:xlink="http://www.w3.org/1999/xlink"
       xlink:href="#upsert"
       xlink:title="upsert">
      <rect x="51" y="179" width="60" height="32"/>
      <rect x="49" y="177" width="60" height="32" class="nonterminal"/>
      <text class="nonterminal" x="59" y="197">upsert</text>
   </a>
   <path class="line"
          d="m17 17 h2 m20 0 h10 m60 0 h10 m0 0 h4 m-104 0 h20 m84 0 h20 m-124 0 q10 0 10 10 m104 0 q0 -10 10 -10 m-114 10 v24 m104 0 v-24 m-104 24 q0 10 10 10 m84 0 q10 0 10 -10 m-94 10 h10 m56 0 h10 m0 0 h8 m-94 -10 v20 m104 0 v-20 m-104 20 v24 m104 0 v-24 m-104 24 q0 10 10 10 m84 0 q10 0 10 -10 m-94 10 h10 m60 0 h10 m0 0 h4 m-94 -10 v20 m104 0 v-20 m-104 20 v24 m104 0 v-24 m-104 24 q0 10 10 10 m84 0 q10 0 10 -10 m-94 10 h10 m64 0 h10 m-94 -10 v20 m104 0 v-20 m-104 20 v24 m104 0 v-24 m-104 24 q0 10 10 10 m84 0 q10 0 10 -10 m-94 10 h10 m60 0 h10 m0 0 h4 m23 -176 h-3"/>
   <polygon points="153 17 161 13 161 21"/>
   <polygon points="153 17 145 13 145 21"/>
</svg>
