<?xml version="1.0" encoding="UTF-8"?>
<svg xmlns="http://www.w3.org/2000/svg" width="715" height="231">
   <defs>
      <style type="text/css">
    @namespace "http://www.w3.org/2000/svg";
    .line                 {fill: none; stroke: #332900; stroke-width: 1;}
    .bold-line            {stroke: #141000; shape-rendering: crispEdges; stroke-width: 2;}
    .thin-line            {stroke: #1F1800; shape-rendering: crispEdges}
    .filled               {fill: #332900; stroke: none;}
    text.terminal         {font-family: Verdana, Sans-serif;
                            font-size: 12px;
                            fill: #141000;
                            font-weight: bold;
                          }
    text.nonterminal      {font-family: Verdana, Sans-serif;
                            font-size: 12px;
                            fill: #1A1400;
                            font-weight: normal;
                          }
    text.regexp           {font-family: Verdana, Sans-serif;
                            font-size: 12px;
                            fill: #1F1800;
                            font-weight: normal;
                          }
    rect, circle, polygon {fill: #332900; stroke: #332900;}
    rect.terminal         {fill: #FFDB4D; stroke: #332900; stroke-width: 1;}
    rect.nonterminal      {fill: #FFEC9E; stroke: #332900; stroke-width: 1;}
    rect.text             {fill: none; stroke: none;}
    polygon.regexp        {fill: #FFF4C7; stroke: #332900; stroke-width: 1;}
  </style>
   </defs>
   <polygon points="9 17 1 13 1 21"/>
   <polygon points="17 17 9 13 9 21"/>
   <rect x="31" y="3" width="58" height="32" rx="10"/>
   <rect x="29"
          y="1"
          width="58"
          height="32"
          class="terminal"
          rx="10"/>
   <text class="terminal" x="39" y="21">DROP</text>
   <rect x="109" y="3" width="64" height="32" rx="10"/>
   <rect x="107"
          y="1"
          width="64"
          height="32"
          class="terminal"
          rx="10"/>
   <text class="terminal" x="117" y="21">INDEX</text>
   <a xmlns:xlink="http://www.w3.org/1999/xlink"
       xlink:href="#index-path"
       xlink:title="index-path">
      <rect x="213" y="3" width="88" height="32"/>
      <rect x="211" y="1" width="88" height="32" class="nonterminal"/>
      <text class="nonterminal" x="221" y="21">index-path</text>
   </a>
   <rect x="321" y="3" width="24" height="32" rx="10"/>
   <rect x="319"
          y="1"
          width="24"
          height="32"
          class="terminal"
          rx="10"/>
   <text class="terminal" x="329" y="21">.</text>
   <a xmlns:xlink="http://www.w3.org/1999/xlink"
       xlink:href="#index-name"
       xlink:title="index-name">
      <rect x="365" y="3" width="94" height="32"/>
      <rect x="363" y="1" width="94" height="32" class="nonterminal"/>
      <text class="nonterminal" x="373" y="21">index-name</text>
   </a>
   <rect x="499" y="35" width="34" height="32" rx="10"/>
   <rect x="497"
          y="33"
          width="34"
          height="32"
          class="terminal"
          rx="10"/>
   <text class="terminal" x="507" y="53">IF</text>
   <rect x="553" y="35" width="70" height="32" rx="10"/>
   <rect x="551"
          y="33"
          width="70"
          height="32"
          class="terminal"
          rx="10"/>
   <text class="terminal" x="561" y="53">EXISTS</text>
   <a xmlns:xlink="http://www.w3.org/1999/xlink"
       xlink:href="#index-name"
       xlink:title="index-name">
      <rect x="213" y="79" width="94" height="32"/>
      <rect x="211" y="77" width="94" height="32" class="nonterminal"/>
      <text class="nonterminal" x="221" y="97">index-name</text>
   </a>
   <rect x="347" y="111" width="34" height="32" rx="10"/>
   <rect x="345"
          y="109"
          width="34"
          height="32"
          class="terminal"
          rx="10"/>
   <text class="terminal" x="355" y="129">IF</text>
   <rect x="401" y="111" width="70" height="32" rx="10"/>
   <rect x="399"
          y="109"
          width="70"
          height="32"
          class="terminal"
          rx="10"/>
   <text class="terminal" x="409" y="129">EXISTS</text>
   <rect x="511" y="79" width="40" height="32" rx="10"/>
   <rect x="509"
          y="77"
          width="40"
          height="32"
          class="terminal"
          rx="10"/>
   <text class="terminal" x="519" y="97">ON</text>
   <a xmlns:xlink="http://www.w3.org/1999/xlink"
       xlink:href="#keyspace-ref"
       xlink:title="keyspace-ref">
      <rect x="571" y="79" width="102" height="32"/>
      <rect x="569" y="77" width="102" height="32" class="nonterminal"/>
      <text class="nonterminal" x="579" y="97">keyspace-ref</text>
   </a>
   <a xmlns:xlink="http://www.w3.org/1999/xlink"
       xlink:href="#index-using"
       xlink:title="index-using">
      <rect x="573" y="197" width="94" height="32"/>
      <rect x="571" y="195" width="94" height="32" class="nonterminal"/>
      <text class="nonterminal" x="581" y="215">index-using</text>
   </a>
   <path class="line"
          d="m17 17 h2 m0 0 h10 m58 0 h10 m0 0 h10 m64 0 h10 m20 0 h10 m88 0 h10 m0 0 h10 m24 0 h10 m0 0 h10 m94 0 h10 m20 0 h10 m0 0 h134 m-164 0 h20 m144 0 h20 m-184 0 q10 0 10 10 m164 0 q0 -10 10 -10 m-174 10 v12 m164 0 v-12 m-164 12 q0 10 10 10 m144 0 q10 0 10 -10 m-154 10 h10 m34 0 h10 m0 0 h10 m70 0 h10 m20 -32 h30 m-500 0 h20 m480 0 h20 m-520 0 q10 0 10 10 m500 0 q0 -10 10 -10 m-510 10 v56 m500 0 v-56 m-500 56 q0 10 10 10 m480 0 q10 0 10 -10 m-490 10 h10 m94 0 h10 m20 0 h10 m0 0 h134 m-164 0 h20 m144 0 h20 m-184 0 q10 0 10 10 m164 0 q0 -10 10 -10 m-174 10 v12 m164 0 v-12 m-164 12 q0 10 10 10 m144 0 q10 0 10 -10 m-154 10 h10 m34 0 h10 m0 0 h10 m70 0 h10 m20 -32 h10 m40 0 h10 m0 0 h10 m102 0 h10 m22 -76 l2 0 m2 0 l2 0 m2 0 l2 0 m-184 162 l2 0 m2 0 l2 0 m2 0 l2 0 m22 0 h10 m0 0 h104 m-134 0 h20 m114 0 h20 m-154 0 q10 0 10 10 m134 0 q0 -10 10 -10 m-144 10 v12 m134 0 v-12 m-134 12 q0 10 10 10 m114 0 q10 0 10 -10 m-124 10 h10 m94 0 h10 m23 -32 h-3"/>
   <polygon points="705 179 713 175 713 183"/>
   <polygon points="705 179 697 175 697 183"/>
</svg>
