<?xml version="1.0" encoding="UTF-8"?>
<svg xmlns="http://www.w3.org/2000/svg" width="595" height="155">
   <defs>
      <style type="text/css">
    @namespace "http://www.w3.org/2000/svg";
    .line                 {fill: none; stroke: #332900; stroke-width: 1;}
    .bold-line            {stroke: #141000; shape-rendering: crispEdges; stroke-width: 2;}
    .thin-line            {stroke: #1F1800; shape-rendering: crispEdges}
    .filled               {fill: #332900; stroke: none;}
    text.terminal         {font-family: Verdana, Sans-serif;
                            font-size: 12px;
                            fill: #141000;
                            font-weight: bold;
                          }
    text.nonterminal      {font-family: Verdana, Sans-serif;
                            font-size: 12px;
                            fill: #1A1400;
                            font-weight: normal;
                          }
    text.regexp           {font-family: Verdana, Sans-serif;
                            font-size: 12px;
                            fill: #1F1800;
                            font-weight: normal;
                          }
    rect, circle, polygon {fill: #332900; stroke: #332900;}
    rect.terminal         {fill: #FFDB4D; stroke: #332900; stroke-width: 1;}
    rect.nonterminal      {fill: #FFEC9E; stroke: #332900; stroke-width: 1;}
    rect.text             {fill: none; stroke: none;}
    polygon.regexp        {fill: #FFF4C7; stroke: #332900; stroke-width: 1;}
  </style>
   </defs>
   <polygon points="9 17 1 13 1 21"/>
   <polygon points="17 17 9 13 9 21"/>
   <rect x="31" y="3" width="58" height="32" rx="10"/>
   <rect x="29"
          y="1"
          width="58"
          height="32"
          class="terminal"
          rx="10"/>
   <text class="terminal" x="39" y="21">DROP</text>
   <rect x="109" y="3" width="66" height="32" rx="10"/>
   <rect x="107"
          y="1"
          width="66"
          height="32"
          class="terminal"
          rx="10"/>
   <text class="terminal" x="117" y="21">SCOPE</text>
   <a xmlns:xlink="http://www.w3.org/1999/xlink"
       xlink:href="#namespace"
       xlink:title="namespace">
      <rect x="215" y="35" width="92" height="32"/>
      <rect x="213" y="33" width="92" height="32" class="nonterminal"/>
      <text class="nonterminal" x="223" y="53">namespace</text>
   </a>
   <rect x="327" y="35" width="24" height="32" rx="10"/>
   <rect x="325"
          y="33"
          width="24"
          height="32"
          class="terminal"
          rx="10"/>
   <text class="terminal" x="335" y="53">:</text>
   <a xmlns:xlink="http://www.w3.org/1999/xlink"
       xlink:href="#bucket"
       xlink:title="bucket">
      <rect x="391" y="3" width="62" height="32"/>
      <rect x="389" y="1" width="62" height="32" class="nonterminal"/>
      <text class="nonterminal" x="399" y="21">bucket</text>
   </a>
   <rect x="473" y="3" width="24" height="32" rx="10"/>
   <rect x="471"
          y="1"
          width="24"
          height="32"
          class="terminal"
          rx="10"/>
   <text class="terminal" x="481" y="21">.</text>
   <a xmlns:xlink="http://www.w3.org/1999/xlink"
       xlink:href="#scope"
       xlink:title="scope">
      <rect x="517" y="3" width="56" height="32"/>
      <rect x="515" y="1" width="56" height="32" class="nonterminal"/>
      <text class="nonterminal" x="525" y="21">scope</text>
   </a>
   <rect x="423" y="121" width="34" height="32" rx="10"/>
   <rect x="421"
          y="119"
          width="34"
          height="32"
          class="terminal"
          rx="10"/>
   <text class="terminal" x="431" y="139">IF</text>
   <rect x="477" y="121" width="70" height="32" rx="10"/>
   <rect x="475"
          y="119"
          width="70"
          height="32"
          class="terminal"
          rx="10"/>
   <text class="terminal" x="485" y="139">EXISTS</text>
   <path class="line"
          d="m17 17 h2 m0 0 h10 m58 0 h10 m0 0 h10 m66 0 h10 m20 0 h10 m0 0 h146 m-176 0 h20 m156 0 h20 m-196 0 q10 0 10 10 m176 0 q0 -10 10 -10 m-186 10 v12 m176 0 v-12 m-176 12 q0 10 10 10 m156 0 q10 0 10 -10 m-166 10 h10 m92 0 h10 m0 0 h10 m24 0 h10 m20 -32 h10 m62 0 h10 m0 0 h10 m24 0 h10 m0 0 h10 m56 0 h10 m2 0 l2 0 m2 0 l2 0 m2 0 l2 0 m-214 86 l2 0 m2 0 l2 0 m2 0 l2 0 m22 0 h10 m0 0 h134 m-164 0 h20 m144 0 h20 m-184 0 q10 0 10 10 m164 0 q0 -10 10 -10 m-174 10 v12 m164 0 v-12 m-164 12 q0 10 10 10 m144 0 q10 0 10 -10 m-154 10 h10 m34 0 h10 m0 0 h10 m70 0 h10 m23 -32 h-3"/>
   <polygon points="585 103 593 99 593 107"/>
   <polygon points="585 103 577 99 577 107"/>
</svg>
