<?xml version="1.0" encoding="UTF-8"?>
<svg xmlns="http://www.w3.org/2000/svg" width="665" height="155">
   <defs>
      <style type="text/css">
    @namespace "http://www.w3.org/2000/svg";
    .line                 {fill: none; stroke: #332900; stroke-width: 1;}
    .bold-line            {stroke: #141000; shape-rendering: crispEdges; stroke-width: 2;}
    .thin-line            {stroke: #1F1800; shape-rendering: crispEdges}
    .filled               {fill: #332900; stroke: none;}
    text.terminal         {font-family: Verdana, Sans-serif;
                            font-size: 12px;
                            fill: #141000;
                            font-weight: bold;
                          }
    text.nonterminal      {font-family: Verdana, Sans-serif;
                            font-size: 12px;
                            fill: #1A1400;
                            font-weight: normal;
                          }
    text.regexp           {font-family: Verdana, Sans-serif;
                            font-size: 12px;
                            fill: #1F1800;
                            font-weight: normal;
                          }
    rect, circle, polygon {fill: #332900; stroke: #332900;}
    rect.terminal         {fill: #FFDB4D; stroke: #332900; stroke-width: 1;}
    rect.nonterminal      {fill: #FFEC9E; stroke: #332900; stroke-width: 1;}
    rect.text             {fill: none; stroke: none;}
    polygon.regexp        {fill: #FFF4C7; stroke: #332900; stroke-width: 1;}
  </style>
   </defs>
   <polygon points="9 17 1 13 1 21"/>
   <polygon points="17 17 9 13 9 21"/>
   <rect x="31" y="3" width="58" height="32" rx="10"/>
   <rect x="29"
          y="1"
          width="58"
          height="32"
          class="terminal"
          rx="10"/>
   <text class="terminal" x="39" y="21">DROP</text>
   <rect x="109" y="3" width="84" height="32" rx="10"/>
   <rect x="107"
          y="1"
          width="84"
          height="32"
          class="terminal"
          rx="10"/>
   <text class="terminal" x="117" y="21">PRIMARY</text>
   <rect x="213" y="3" width="64" height="32" rx="10"/>
   <rect x="211"
          y="1"
          width="64"
          height="32"
          class="terminal"
          rx="10"/>
   <text class="terminal" x="221" y="21">INDEX</text>
   <rect x="317" y="35" width="34" height="32" rx="10"/>
   <rect x="315"
          y="33"
          width="34"
          height="32"
          class="terminal"
          rx="10"/>
   <text class="terminal" x="325" y="53">IF</text>
   <rect x="371" y="35" width="70" height="32" rx="10"/>
   <rect x="369"
          y="33"
          width="70"
          height="32"
          class="terminal"
          rx="10"/>
   <text class="terminal" x="379" y="53">EXISTS</text>
   <rect x="481" y="3" width="40" height="32" rx="10"/>
   <rect x="479"
          y="1"
          width="40"
          height="32"
          class="terminal"
          rx="10"/>
   <text class="terminal" x="489" y="21">ON</text>
   <a xmlns:xlink="http://www.w3.org/1999/xlink"
       xlink:href="#keyspace-ref"
       xlink:title="keyspace-ref">
      <rect x="541" y="3" width="102" height="32"/>
      <rect x="539" y="1" width="102" height="32" class="nonterminal"/>
      <text class="nonterminal" x="549" y="21">keyspace-ref</text>
   </a>
   <a xmlns:xlink="http://www.w3.org/1999/xlink"
       xlink:href="#index-using"
       xlink:title="index-using">
      <rect x="523" y="121" width="94" height="32"/>
      <rect x="521" y="119" width="94" height="32" class="nonterminal"/>
      <text class="nonterminal" x="531" y="139">index-using</text>
   </a>
   <path class="line"
          d="m17 17 h2 m0 0 h10 m58 0 h10 m0 0 h10 m84 0 h10 m0 0 h10 m64 0 h10 m20 0 h10 m0 0 h134 m-164 0 h20 m144 0 h20 m-184 0 q10 0 10 10 m164 0 q0 -10 10 -10 m-174 10 v12 m164 0 v-12 m-164 12 q0 10 10 10 m144 0 q10 0 10 -10 m-154 10 h10 m34 0 h10 m0 0 h10 m70 0 h10 m20 -32 h10 m40 0 h10 m0 0 h10 m102 0 h10 m2 0 l2 0 m2 0 l2 0 m2 0 l2 0 m-184 86 l2 0 m2 0 l2 0 m2 0 l2 0 m22 0 h10 m0 0 h104 m-134 0 h20 m114 0 h20 m-154 0 q10 0 10 10 m134 0 q0 -10 10 -10 m-144 10 v12 m134 0 v-12 m-134 12 q0 10 10 10 m114 0 q10 0 10 -10 m-124 10 h10 m94 0 h10 m23 -32 h-3"/>
   <polygon points="655 103 663 99 663 107"/>
   <polygon points="655 103 647 99 647 107"/>
</svg>
