<?xml version="1.0" encoding="UTF-8"?>
<svg xmlns="http://www.w3.org/2000/svg" width="721" height="199">
   <defs>
      <style type="text/css">
    @namespace "http://www.w3.org/2000/svg";
    .line                 {fill: none; stroke: #332900; stroke-width: 1;}
    .bold-line            {stroke: #141000; shape-rendering: crispEdges; stroke-width: 2;}
    .thin-line            {stroke: #1F1800; shape-rendering: crispEdges}
    .filled               {fill: #332900; stroke: none;}
    text.terminal         {font-family: Verdana, Sans-serif;
                            font-size: 12px;
                            fill: #141000;
                            font-weight: bold;
                          }
    text.nonterminal      {font-family: Verdana, Sans-serif;
                            font-size: 12px;
                            fill: #1A1400;
                            font-weight: normal;
                          }
    text.regexp           {font-family: Verdana, Sans-serif;
                            font-size: 12px;
                            fill: #1F1800;
                            font-weight: normal;
                          }
    rect, circle, polygon {fill: #332900; stroke: #332900;}
    rect.terminal         {fill: #FFDB4D; stroke: #332900; stroke-width: 1;}
    rect.nonterminal      {fill: #FFEC9E; stroke: #332900; stroke-width: 1;}
    rect.text             {fill: none; stroke: none;}
    polygon.regexp        {fill: #FFF4C7; stroke: #332900; stroke-width: 1;}
  </style>
   </defs>
   <polygon points="9 17 1 13 1 21"/>
   <polygon points="17 17 9 13 9 21"/>
   <rect x="31" y="3" width="58" height="32" rx="10"/>
   <rect x="29"
          y="1"
          width="58"
          height="32"
          class="terminal"
          rx="10"/>
   <text class="terminal" x="39" y="21">DROP</text>
   <rect x="109" y="3" width="108" height="32" rx="10"/>
   <rect x="107"
          y="1"
          width="108"
          height="32"
          class="terminal"
          rx="10"/>
   <text class="terminal" x="117" y="21">COLLECTION</text>
   <a xmlns:xlink="http://www.w3.org/1999/xlink"
       xlink:href="#namespace"
       xlink:title="namespace">
      <rect x="277" y="67" width="92" height="32"/>
      <rect x="275" y="65" width="92" height="32" class="nonterminal"/>
      <text class="nonterminal" x="285" y="85">namespace</text>
   </a>
   <rect x="389" y="67" width="24" height="32" rx="10"/>
   <rect x="387"
          y="65"
          width="24"
          height="32"
          class="terminal"
          rx="10"/>
   <text class="terminal" x="397" y="85">:</text>
   <a xmlns:xlink="http://www.w3.org/1999/xlink"
       xlink:href="#bucket"
       xlink:title="bucket">
      <rect x="453" y="35" width="62" height="32"/>
      <rect x="451" y="33" width="62" height="32" class="nonterminal"/>
      <text class="nonterminal" x="461" y="53">bucket</text>
   </a>
   <rect x="535" y="35" width="24" height="32" rx="10"/>
   <rect x="533"
          y="33"
          width="24"
          height="32"
          class="terminal"
          rx="10"/>
   <text class="terminal" x="543" y="53">.</text>
   <a xmlns:xlink="http://www.w3.org/1999/xlink"
       xlink:href="#scope"
       xlink:title="scope">
      <rect x="579" y="35" width="56" height="32"/>
      <rect x="577" y="33" width="56" height="32" class="nonterminal"/>
      <text class="nonterminal" x="587" y="53">scope</text>
   </a>
   <rect x="655" y="35" width="24" height="32" rx="10"/>
   <rect x="653"
          y="33"
          width="24"
          height="32"
          class="terminal"
          rx="10"/>
   <text class="terminal" x="663" y="53">.</text>
   <a xmlns:xlink="http://www.w3.org/1999/xlink"
       xlink:href="#collection"
       xlink:title="collection">
      <rect x="431" y="133" width="78" height="32"/>
      <rect x="429" y="131" width="78" height="32" class="nonterminal"/>
      <text class="nonterminal" x="439" y="151">collection</text>
   </a>
   <rect x="549" y="165" width="34" height="32" rx="10"/>
   <rect x="547"
          y="163"
          width="34"
          height="32"
          class="terminal"
          rx="10"/>
   <text class="terminal" x="557" y="183">IF</text>
   <rect x="603" y="165" width="70" height="32" rx="10"/>
   <rect x="601"
          y="163"
          width="70"
          height="32"
          class="terminal"
          rx="10"/>
   <text class="terminal" x="611" y="183">EXISTS</text>
   <path class="line"
          d="m17 17 h2 m0 0 h10 m58 0 h10 m0 0 h10 m108 0 h10 m20 0 h10 m0 0 h432 m-462 0 h20 m442 0 h20 m-482 0 q10 0 10 10 m462 0 q0 -10 10 -10 m-472 10 v12 m462 0 v-12 m-462 12 q0 10 10 10 m442 0 q10 0 10 -10 m-432 10 h10 m0 0 h146 m-176 0 h20 m156 0 h20 m-196 0 q10 0 10 10 m176 0 q0 -10 10 -10 m-186 10 v12 m176 0 v-12 m-176 12 q0 10 10 10 m156 0 q10 0 10 -10 m-166 10 h10 m92 0 h10 m0 0 h10 m24 0 h10 m20 -32 h10 m62 0 h10 m0 0 h10 m24 0 h10 m0 0 h10 m56 0 h10 m0 0 h10 m24 0 h10 m22 -32 l2 0 m2 0 l2 0 m2 0 l2 0 m-312 130 l2 0 m2 0 l2 0 m2 0 l2 0 m2 0 h10 m78 0 h10 m20 0 h10 m0 0 h134 m-164 0 h20 m144 0 h20 m-184 0 q10 0 10 10 m164 0 q0 -10 10 -10 m-174 10 v12 m164 0 v-12 m-164 12 q0 10 10 10 m144 0 q10 0 10 -10 m-154 10 h10 m34 0 h10 m0 0 h10 m70 0 h10 m23 -32 h-3"/>
   <polygon points="711 147 719 143 719 151"/>
   <polygon points="711 147 703 143 703 151"/>
</svg>
