<?xml version="1.0" encoding="UTF-8"?>
<svg xmlns="http://www.w3.org/2000/svg" width="289" height="37">
   <defs>
      <style type="text/css">
    @namespace "http://www.w3.org/2000/svg";
    .line                 {fill: none; stroke: #332900; stroke-width: 1;}
    .bold-line            {stroke: #141000; shape-rendering: crispEdges; stroke-width: 2;}
    .thin-line            {stroke: #1F1800; shape-rendering: crispEdges}
    .filled               {fill: #332900; stroke: none;}
    text.terminal         {font-family: Verdana, Sans-serif;
                            font-size: 12px;
                            fill: #141000;
                            font-weight: bold;
                          }
    text.nonterminal      {font-family: Verdana, Sans-serif;
                            font-size: 12px;
                            fill: #1A1400;
                            font-weight: normal;
                          }
    text.regexp           {font-family: Verdana, Sans-serif;
                            font-size: 12px;
                            fill: #1F1800;
                            font-weight: normal;
                          }
    rect, circle, polygon {fill: #332900; stroke: #332900;}
    rect.terminal         {fill: #FFDB4D; stroke: #332900; stroke-width: 1;}
    rect.nonterminal      {fill: #FFEC9E; stroke: #332900; stroke-width: 1;}
    rect.text             {fill: none; stroke: none;}
    polygon.regexp        {fill: #FFF4C7; stroke: #332900; stroke-width: 1;}
  </style>
   </defs>
   <polygon points="9 17 1 13 1 21"/>
   <polygon points="17 17 9 13 9 21"/>
   <a xmlns:xlink="http://www.w3.org/1999/xlink"
       xlink:href="#expr"
       xlink:title="expr">
      <rect x="31" y="3" width="48" height="32"/>
      <rect x="29" y="1" width="48" height="32" class="nonterminal"/>
      <text class="nonterminal" x="39" y="21">expr</text>
   </a>
   <rect x="99" y="3" width="26" height="32" rx="10"/>
   <rect x="97"
          y="1"
          width="26"
          height="32"
          class="terminal"
          rx="10"/>
   <text class="terminal" x="107" y="21">[</text>
   <a xmlns:xlink="http://www.w3.org/1999/xlink"
       xlink:href="#position"
       xlink:title="position">
      <rect x="145" y="3" width="70" height="32"/>
      <rect x="143" y="1" width="70" height="32" class="nonterminal"/>
      <text class="nonterminal" x="153" y="21">position</text>
   </a>
   <rect x="235" y="3" width="26" height="32" rx="10"/>
   <rect x="233"
          y="1"
          width="26"
          height="32"
          class="terminal"
          rx="10"/>
   <text class="terminal" x="243" y="21">]</text>
   <path class="line"
          d="m17 17 h2 m0 0 h10 m48 0 h10 m0 0 h10 m26 0 h10 m0 0 h10 m70 0 h10 m0 0 h10 m26 0 h10 m3 0 h-3"/>
   <polygon points="279 17 287 13 287 21"/>
   <polygon points="279 17 271 13 271 21"/>
</svg>
