<?xml version="1.0" encoding="UTF-8"?>
<svg xmlns="http://www.w3.org/2000/svg" width="453" height="69">
   <defs>
      <style type="text/css">
    @namespace "http://www.w3.org/2000/svg";
    .line                 {fill: none; stroke: #332900; stroke-width: 1;}
    .bold-line            {stroke: #141000; shape-rendering: crispEdges; stroke-width: 2;}
    .thin-line            {stroke: #1F1800; shape-rendering: crispEdges}
    .filled               {fill: #332900; stroke: none;}
    text.terminal         {font-family: Verdana, Sans-serif;
                            font-size: 12px;
                            fill: #141000;
                            font-weight: bold;
                          }
    text.nonterminal      {font-family: Verdana, Sans-serif;
                            font-size: 12px;
                            fill: #1A1400;
                            font-weight: normal;
                          }
    text.regexp           {font-family: Verdana, Sans-serif;
                            font-size: 12px;
                            fill: #1F1800;
                            font-weight: normal;
                          }
    rect, circle, polygon {fill: #332900; stroke: #332900;}
    rect.terminal         {fill: #FFDB4D; stroke: #332900; stroke-width: 1;}
    rect.nonterminal      {fill: #FFEC9E; stroke: #332900; stroke-width: 1;}
    rect.text             {fill: none; stroke: none;}
    polygon.regexp        {fill: #FFF4C7; stroke: #332900; stroke-width: 1;}
  </style>
   </defs>
   <polygon points="9 17 1 13 1 21"/>
   <polygon points="17 17 9 13 9 21"/>
   <rect x="31" y="3" width="80" height="32" rx="10"/>
   <rect x="29"
          y="1"
          width="80"
          height="32"
          class="terminal"
          rx="10"/>
   <text class="terminal" x="39" y="21">EXECUTE</text>
   <a xmlns:xlink="http://www.w3.org/1999/xlink"
       xlink:href="#name"
       xlink:title="name">
      <rect x="131" y="3" width="56" height="32"/>
      <rect x="129" y="1" width="56" height="32" class="nonterminal"/>
      <text class="nonterminal" x="139" y="21">name</text>
   </a>
   <rect x="227" y="35" width="64" height="32" rx="10"/>
   <rect x="225"
          y="33"
          width="64"
          height="32"
          class="terminal"
          rx="10"/>
   <text class="terminal" x="235" y="53">USING</text>
   <a xmlns:xlink="http://www.w3.org/1999/xlink"
       xlink:href="#parameters"
       xlink:title="parameters">
      <rect x="311" y="35" width="94" height="32"/>
      <rect x="309" y="33" width="94" height="32" class="nonterminal"/>
      <text class="nonterminal" x="319" y="53">parameters</text>
   </a>
   <path class="line"
          d="m17 17 h2 m0 0 h10 m80 0 h10 m0 0 h10 m56 0 h10 m20 0 h10 m0 0 h188 m-218 0 h20 m198 0 h20 m-238 0 q10 0 10 10 m218 0 q0 -10 10 -10 m-228 10 v12 m218 0 v-12 m-218 12 q0 10 10 10 m198 0 q10 0 10 -10 m-208 10 h10 m64 0 h10 m0 0 h10 m94 0 h10 m23 -32 h-3"/>
   <polygon points="443 17 451 13 451 21"/>
   <polygon points="443 17 435 13 435 21"/>
</svg>
