<?xml version="1.0" encoding="UTF-8"?>
<svg xmlns="http://www.w3.org/2000/svg" width="243" height="565">
   <defs>
      <style type="text/css">
    @namespace "http://www.w3.org/2000/svg";
    .line                 {fill: none; stroke: #332900; stroke-width: 1;}
    .bold-line            {stroke: #141000; shape-rendering: crispEdges; stroke-width: 2;}
    .thin-line            {stroke: #1F1800; shape-rendering: crispEdges}
    .filled               {fill: #332900; stroke: none;}
    text.terminal         {font-family: Verdana, Sans-serif;
                            font-size: 12px;
                            fill: #141000;
                            font-weight: bold;
                          }
    text.nonterminal      {font-family: Verdana, Sans-serif;
                            font-size: 12px;
                            fill: #1A1400;
                            font-weight: normal;
                          }
    text.regexp           {font-family: Verdana, Sans-serif;
                            font-size: 12px;
                            fill: #1F1800;
                            font-weight: normal;
                          }
    rect, circle, polygon {fill: #332900; stroke: #332900;}
    rect.terminal         {fill: #FFDB4D; stroke: #332900; stroke-width: 1;}
    rect.nonterminal      {fill: #FFEC9E; stroke: #332900; stroke-width: 1;}
    rect.text             {fill: none; stroke: none;}
    polygon.regexp        {fill: #FFF4C7; stroke: #332900; stroke-width: 1;}
  </style>
   </defs>
   <polygon points="9 17 1 13 1 21"/>
   <polygon points="17 17 9 13 9 21"/>
   <a xmlns:xlink="http://www.w3.org/1999/xlink"
       xlink:href="#literal"
       xlink:title="literal">
      <rect x="51" y="3" width="56" height="32"/>
      <rect x="49" y="1" width="56" height="32" class="nonterminal"/>
      <text class="nonterminal" x="59" y="21">literal</text>
   </a>
   <a xmlns:xlink="http://www.w3.org/1999/xlink"
       xlink:href="#identifier"
       xlink:title="identifier">
      <rect x="51" y="47" width="76" height="32"/>
      <rect x="49" y="45" width="76" height="32" class="nonterminal"/>
      <text class="nonterminal" x="59" y="65">identifier</text>
   </a>
   <a xmlns:xlink="http://www.w3.org/1999/xlink"
       xlink:href="#arithmetic-term"
       xlink:title="arithmetic-term">
      <rect x="51" y="91" width="118" height="32"/>
      <rect x="49" y="89" width="118" height="32" class="nonterminal"/>
      <text class="nonterminal" x="59" y="109">arithmetic-term</text>
   </a>
   <a xmlns:xlink="http://www.w3.org/1999/xlink"
       xlink:href="#comparison-term"
       xlink:title="comparison-term">
      <rect x="51" y="135" width="128" height="32"/>
      <rect x="49" y="133" width="128" height="32" class="nonterminal"/>
      <text class="nonterminal" x="59" y="153">comparison-term</text>
   </a>
   <a xmlns:xlink="http://www.w3.org/1999/xlink"
       xlink:href="#concatenation-term"
       xlink:title="concatenation-term">
      <rect x="51" y="179" width="144" height="32"/>
      <rect x="49" y="177" width="144" height="32" class="nonterminal"/>
      <text class="nonterminal" x="59" y="197">concatenation-term</text>
   </a>
   <a xmlns:xlink="http://www.w3.org/1999/xlink"
       xlink:href="#logical-term"
       xlink:title="logical-term">
      <rect x="51" y="223" width="94" height="32"/>
      <rect x="49" y="221" width="94" height="32" class="nonterminal"/>
      <text class="nonterminal" x="59" y="241">logical-term</text>
   </a>
   <a xmlns:xlink="http://www.w3.org/1999/xlink"
       xlink:href="#case-expr"
       xlink:title="case-expr">
      <rect x="51" y="267" width="82" height="32"/>
      <rect x="49" y="265" width="82" height="32" class="nonterminal"/>
      <text class="nonterminal" x="59" y="285">case-expr</text>
   </a>
   <a xmlns:xlink="http://www.w3.org/1999/xlink"
       xlink:href="#collection-expr"
       xlink:title="collection-expr">
      <rect x="51" y="311" width="112" height="32"/>
      <rect x="49" y="309" width="112" height="32" class="nonterminal"/>
      <text class="nonterminal" x="59" y="329">collection-expr</text>
   </a>
   <a xmlns:xlink="http://www.w3.org/1999/xlink"
       xlink:href="#construction-expr"
       xlink:title="construction-expr">
      <rect x="51" y="355" width="130" height="32"/>
      <rect x="49" y="353" width="130" height="32" class="nonterminal"/>
      <text class="nonterminal" x="59" y="373">construction-expr</text>
   </a>
   <a xmlns:xlink="http://www.w3.org/1999/xlink"
       xlink:href="#nested-expr"
       xlink:title="nested-expr">
      <rect x="51" y="399" width="98" height="32"/>
      <rect x="49" y="397" width="98" height="32" class="nonterminal"/>
      <text class="nonterminal" x="59" y="417">nested-expr</text>
   </a>
   <a xmlns:xlink="http://www.w3.org/1999/xlink"
       xlink:href="#function-call"
       xlink:title="function-call">
      <rect x="51" y="443" width="96" height="32"/>
      <rect x="49" y="441" width="96" height="32" class="nonterminal"/>
      <text class="nonterminal" x="59" y="461">function-call</text>
   </a>
   <a xmlns:xlink="http://www.w3.org/1999/xlink"
       xlink:href="#subquery-expr"
       xlink:title="subquery-expr">
      <rect x="51" y="487" width="112" height="32"/>
      <rect x="49" y="485" width="112" height="32" class="nonterminal"/>
      <text class="nonterminal" x="59" y="505">subquery-expr</text>
   </a>
   <rect x="51" y="531" width="26" height="32" rx="10"/>
   <rect x="49"
          y="529"
          width="26"
          height="32"
          class="terminal"
          rx="10"/>
   <text class="terminal" x="59" y="549">(</text>
   <a xmlns:xlink="http://www.w3.org/1999/xlink"
       xlink:href="#expr"
       xlink:title="expr">
      <rect x="97" y="531" width="48" height="32"/>
      <rect x="95" y="529" width="48" height="32" class="nonterminal"/>
      <text class="nonterminal" x="105" y="549">expr</text>
   </a>
   <rect x="165" y="531" width="26" height="32" rx="10"/>
   <rect x="163"
          y="529"
          width="26"
          height="32"
          class="terminal"
          rx="10"/>
   <text class="terminal" x="173" y="549">)</text>
   <path class="line"
          d="m17 17 h2 m20 0 h10 m56 0 h10 m0 0 h88 m-184 0 h20 m164 0 h20 m-204 0 q10 0 10 10 m184 0 q0 -10 10 -10 m-194 10 v24 m184 0 v-24 m-184 24 q0 10 10 10 m164 0 q10 0 10 -10 m-174 10 h10 m76 0 h10 m0 0 h68 m-174 -10 v20 m184 0 v-20 m-184 20 v24 m184 0 v-24 m-184 24 q0 10 10 10 m164 0 q10 0 10 -10 m-174 10 h10 m118 0 h10 m0 0 h26 m-174 -10 v20 m184 0 v-20 m-184 20 v24 m184 0 v-24 m-184 24 q0 10 10 10 m164 0 q10 0 10 -10 m-174 10 h10 m128 0 h10 m0 0 h16 m-174 -10 v20 m184 0 v-20 m-184 20 v24 m184 0 v-24 m-184 24 q0 10 10 10 m164 0 q10 0 10 -10 m-174 10 h10 m144 0 h10 m-174 -10 v20 m184 0 v-20 m-184 20 v24 m184 0 v-24 m-184 24 q0 10 10 10 m164 0 q10 0 10 -10 m-174 10 h10 m94 0 h10 m0 0 h50 m-174 -10 v20 m184 0 v-20 m-184 20 v24 m184 0 v-24 m-184 24 q0 10 10 10 m164 0 q10 0 10 -10 m-174 10 h10 m82 0 h10 m0 0 h62 m-174 -10 v20 m184 0 v-20 m-184 20 v24 m184 0 v-24 m-184 24 q0 10 10 10 m164 0 q10 0 10 -10 m-174 10 h10 m112 0 h10 m0 0 h32 m-174 -10 v20 m184 0 v-20 m-184 20 v24 m184 0 v-24 m-184 24 q0 10 10 10 m164 0 q10 0 10 -10 m-174 10 h10 m130 0 h10 m0 0 h14 m-174 -10 v20 m184 0 v-20 m-184 20 v24 m184 0 v-24 m-184 24 q0 10 10 10 m164 0 q10 0 10 -10 m-174 10 h10 m98 0 h10 m0 0 h46 m-174 -10 v20 m184 0 v-20 m-184 20 v24 m184 0 v-24 m-184 24 q0 10 10 10 m164 0 q10 0 10 -10 m-174 10 h10 m96 0 h10 m0 0 h48 m-174 -10 v20 m184 0 v-20 m-184 20 v24 m184 0 v-24 m-184 24 q0 10 10 10 m164 0 q10 0 10 -10 m-174 10 h10 m112 0 h10 m0 0 h32 m-174 -10 v20 m184 0 v-20 m-184 20 v24 m184 0 v-24 m-184 24 q0 10 10 10 m164 0 q10 0 10 -10 m-174 10 h10 m26 0 h10 m0 0 h10 m48 0 h10 m0 0 h10 m26 0 h10 m0 0 h4 m23 -528 h-3"/>
   <polygon points="233 17 241 13 241 21"/>
   <polygon points="233 17 225 13 225 21"/>
</svg>
