<?xml version="1.0" encoding="UTF-8"?>
<svg xmlns="http://www.w3.org/2000/svg" width="515" height="125">
   <defs>
      <style type="text/css">
    @namespace "http://www.w3.org/2000/svg";
    .line                 {fill: none; stroke: #332900; stroke-width: 1;}
    .bold-line            {stroke: #141000; shape-rendering: crispEdges; stroke-width: 2;}
    .thin-line            {stroke: #1F1800; shape-rendering: crispEdges}
    .filled               {fill: #332900; stroke: none;}
    text.terminal         {font-family: Verdana, Sans-serif;
                            font-size: 12px;
                            fill: #141000;
                            font-weight: bold;
                          }
    text.nonterminal      {font-family: Verdana, Sans-serif;
                            font-size: 12px;
                            fill: #1A1400;
                            font-weight: normal;
                          }
    text.regexp           {font-family: Verdana, Sans-serif;
                            font-size: 12px;
                            fill: #1F1800;
                            font-weight: normal;
                          }
    rect, circle, polygon {fill: #332900; stroke: #332900;}
    rect.terminal         {fill: #FFDB4D; stroke: #332900; stroke-width: 1;}
    rect.nonterminal      {fill: #FFEC9E; stroke: #332900; stroke-width: 1;}
    rect.text             {fill: none; stroke: none;}
    polygon.regexp        {fill: #FFF4C7; stroke: #332900; stroke-width: 1;}
  </style>
   </defs>
   <polygon points="9 17 1 13 1 21"/>
   <polygon points="17 17 9 13 9 21"/>
   <a xmlns:xlink="http://www.w3.org/1999/xlink"
       xlink:href="#expr"
       xlink:title="expr">
      <rect x="31" y="3" width="48" height="32"/>
      <rect x="29" y="1" width="48" height="32" class="nonterminal"/>
      <text class="nonterminal" x="39" y="21">expr</text>
   </a>
   <rect x="99" y="3" width="24" height="32" rx="10"/>
   <rect x="97"
          y="1"
          width="24"
          height="32"
          class="terminal"
          rx="10"/>
   <text class="terminal" x="107" y="21">.</text>
   <a xmlns:xlink="http://www.w3.org/1999/xlink"
       xlink:href="#identifier"
       xlink:title="identifier">
      <rect x="163" y="3" width="76" height="32"/>
      <rect x="161" y="1" width="76" height="32" class="nonterminal"/>
      <text class="nonterminal" x="171" y="21">identifier</text>
   </a>
   <a xmlns:xlink="http://www.w3.org/1999/xlink"
       xlink:href="#escaped-identifier"
       xlink:title="escaped-identifier">
      <rect x="183" y="47" width="134" height="32"/>
      <rect x="181" y="45" width="134" height="32" class="nonterminal"/>
      <text class="nonterminal" x="191" y="65">escaped-identifier</text>
   </a>
   <rect x="183" y="91" width="26" height="32" rx="10"/>
   <rect x="181"
          y="89"
          width="26"
          height="32"
          class="terminal"
          rx="10"/>
   <text class="terminal" x="191" y="109">[</text>
   <a xmlns:xlink="http://www.w3.org/1999/xlink"
       xlink:href="#name-expr"
       xlink:title="name-expr">
      <rect x="229" y="91" width="88" height="32"/>
      <rect x="227" y="89" width="88" height="32" class="nonterminal"/>
      <text class="nonterminal" x="237" y="109">name-expr</text>
   </a>
   <rect x="337" y="91" width="26" height="32" rx="10"/>
   <rect x="335"
          y="89"
          width="26"
          height="32"
          class="terminal"
          rx="10"/>
   <text class="terminal" x="345" y="109">]</text>
   <rect x="423" y="79" width="24" height="32" rx="10"/>
   <rect x="421"
          y="77"
          width="24"
          height="32"
          class="terminal"
          rx="10"/>
   <text class="terminal" x="431" y="97">i</text>
   <path class="line"
          d="m17 17 h2 m0 0 h10 m48 0 h10 m0 0 h10 m24 0 h10 m20 0 h10 m76 0 h10 m0 0 h228 m-344 0 h20 m324 0 h20 m-364 0 q10 0 10 10 m344 0 q0 -10 10 -10 m-354 10 v24 m344 0 v-24 m-344 24 q0 10 10 10 m324 0 q10 0 10 -10 m-314 10 h10 m134 0 h10 m0 0 h46 m-220 0 h20 m200 0 h20 m-240 0 q10 0 10 10 m220 0 q0 -10 10 -10 m-230 10 v24 m220 0 v-24 m-220 24 q0 10 10 10 m200 0 q10 0 10 -10 m-210 10 h10 m26 0 h10 m0 0 h10 m88 0 h10 m0 0 h10 m26 0 h10 m40 -44 h10 m0 0 h34 m-64 0 h20 m44 0 h20 m-84 0 q10 0 10 10 m64 0 q0 -10 10 -10 m-74 10 v12 m64 0 v-12 m-64 12 q0 10 10 10 m44 0 q10 0 10 -10 m-54 10 h10 m24 0 h10 m43 -76 h-3"/>
   <polygon points="505 17 513 13 513 21"/>
   <polygon points="505 17 497 13 497 21"/>
</svg>
