<?xml version="1.0" encoding="UTF-8"?>
<svg xmlns="http://www.w3.org/2000/svg" width="205" height="53">
   <defs>
      <style type="text/css">
    @namespace "http://www.w3.org/2000/svg";
    .line                 {fill: none; stroke: #332900; stroke-width: 1;}
    .bold-line            {stroke: #141000; shape-rendering: crispEdges; stroke-width: 2;}
    .thin-line            {stroke: #1F1800; shape-rendering: crispEdges}
    .filled               {fill: #332900; stroke: none;}
    text.terminal         {font-family: Verdana, Sans-serif;
                            font-size: 12px;
                            fill: #141000;
                            font-weight: bold;
                          }
    text.nonterminal      {font-family: Verdana, Sans-serif;
                            font-size: 12px;
                            fill: #1A1400;
                            font-weight: normal;
                          }
    text.regexp           {font-family: Verdana, Sans-serif;
                            font-size: 12px;
                            fill: #1F1800;
                            font-weight: normal;
                          }
    rect, circle, polygon {fill: #332900; stroke: #332900;}
    rect.terminal         {fill: #FFDB4D; stroke: #332900; stroke-width: 1;}
    rect.nonterminal      {fill: #FFEC9E; stroke: #332900; stroke-width: 1;}
    rect.text             {fill: none; stroke: none;}
    polygon.regexp        {fill: #FFF4C7; stroke: #332900; stroke-width: 1;}
  </style>
   </defs>
   <polygon points="9 33 1 29 1 37"/>
   <polygon points="17 33 9 29 9 37"/>
   <rect x="31" y="19" width="24" height="32" rx="10"/>
   <rect x="29"
          y="17"
          width="24"
          height="32"
          class="terminal"
          rx="10"/>
   <text class="terminal" x="39" y="37">.</text>
   <polygon points="95 35 102 19 150 19 157 35 150 51 102 51"/>
   <polygon points="93 33 100 17 148 17 155 33 148 49 100 49" class="regexp"/>
   <text class="regexp" x="108" y="37">[0-9]</text>
   <path class="line"
          d="m17 33 h2 m0 0 h10 m24 0 h10 m20 0 h10 m62 0 h10 m-102 0 l20 0 m-1 0 q-9 0 -9 -10 l0 -12 q0 -10 10 -10 m82 32 l20 0 m-20 0 q10 0 10 -10 l0 -12 q0 -10 -10 -10 m-82 0 h10 m0 0 h72 m23 32 h-3"/>
   <polygon points="195 33 203 29 203 37"/>
   <polygon points="195 33 187 29 187 37"/>
</svg>
