<?xml version="1.0" encoding="UTF-8"?>
<svg xmlns="http://www.w3.org/2000/svg" width="607" height="247">
   <defs>
      <style type="text/css">
    @namespace "http://www.w3.org/2000/svg";
    .line                 {fill: none; stroke: #332900; stroke-width: 1;}
    .bold-line            {stroke: #141000; shape-rendering: crispEdges; stroke-width: 2;}
    .thin-line            {stroke: #1F1800; shape-rendering: crispEdges}
    .filled               {fill: #332900; stroke: none;}
    text.terminal         {font-family: Verdana, Sans-serif;
                            font-size: 12px;
                            fill: #141000;
                            font-weight: bold;
                          }
    text.nonterminal      {font-family: Verdana, Sans-serif;
                            font-size: 12px;
                            fill: #1A1400;
                            font-weight: normal;
                          }
    text.regexp           {font-family: Verdana, Sans-serif;
                            font-size: 12px;
                            fill: #1F1800;
                            font-weight: normal;
                          }
    rect, circle, polygon {fill: #332900; stroke: #332900;}
    rect.terminal         {fill: #FFDB4D; stroke: #332900; stroke-width: 1;}
    rect.nonterminal      {fill: #FFEC9E; stroke: #332900; stroke-width: 1;}
    rect.text             {fill: none; stroke: none;}
    polygon.regexp        {fill: #FFF4C7; stroke: #332900; stroke-width: 1;}
  </style>
   </defs>
   <polygon points="9 139 1 135 1 143"/>
   <polygon points="17 139 9 135 9 143"/>
   <a xmlns:xlink="http://www.w3.org/1999/xlink"
       xlink:href="#from-keyspace"
       xlink:title="from-keyspace">
      <rect x="51" y="125" width="114" height="32"/>
      <rect x="49" y="123" width="114" height="32" class="nonterminal"/>
      <text class="nonterminal" x="59" y="143">from-keyspace</text>
   </a>
   <a xmlns:xlink="http://www.w3.org/1999/xlink"
       xlink:href="#from-subquery"
       xlink:title="from-subquery">
      <rect x="51" y="169" width="114" height="32"/>
      <rect x="49" y="167" width="114" height="32" class="nonterminal"/>
      <text class="nonterminal" x="59" y="187">from-subquery</text>
   </a>
   <a xmlns:xlink="http://www.w3.org/1999/xlink"
       xlink:href="#from-generic"
       xlink:title="from-generic">
      <rect x="51" y="213" width="100" height="32"/>
      <rect x="49" y="211" width="100" height="32" class="nonterminal"/>
      <text class="nonterminal" x="59" y="231">from-generic</text>
   </a>
   <a xmlns:xlink="http://www.w3.org/1999/xlink"
       xlink:href="#join-clause"
       xlink:title="join-clause">
      <rect x="225" y="91" width="88" height="32"/>
      <rect x="223" y="89" width="88" height="32" class="nonterminal"/>
      <text class="nonterminal" x="233" y="109">join-clause</text>
   </a>
   <a xmlns:xlink="http://www.w3.org/1999/xlink"
       xlink:href="#nest-clause"
       xlink:title="nest-clause">
      <rect x="225" y="47" width="94" height="32"/>
      <rect x="223" y="45" width="94" height="32" class="nonterminal"/>
      <text class="nonterminal" x="233" y="65">nest-clause</text>
   </a>
   <a xmlns:xlink="http://www.w3.org/1999/xlink"
       xlink:href="#unnest-clause"
       xlink:title="unnest-clause">
      <rect x="225" y="3" width="110" height="32"/>
      <rect x="223" y="1" width="110" height="32" class="nonterminal"/>
      <text class="nonterminal" x="233" y="21">unnest-clause</text>
   </a>
   <a xmlns:xlink="http://www.w3.org/1999/xlink"
       xlink:href="#comma-separated-join"
       xlink:title="comma-separated-join">
      <rect x="395" y="91" width="164" height="32"/>
      <rect x="393" y="89" width="164" height="32" class="nonterminal"/>
      <text class="nonterminal" x="403" y="109">comma-separated-join</text>
   </a>
   <path class="line"
          d="m17 139 h2 m20 0 h10 m114 0 h10 m-154 0 h20 m134 0 h20 m-174 0 q10 0 10 10 m154 0 q0 -10 10 -10 m-164 10 v24 m154 0 v-24 m-154 24 q0 10 10 10 m134 0 q10 0 10 -10 m-144 10 h10 m114 0 h10 m-144 -10 v20 m154 0 v-20 m-154 20 v24 m154 0 v-24 m-154 24 q0 10 10 10 m134 0 q10 0 10 -10 m-144 10 h10 m100 0 h10 m0 0 h14 m40 -88 h10 m0 0 h120 m-150 0 l20 0 m-1 0 q-9 0 -9 -10 l0 -14 q0 -10 10 -10 m130 34 l20 0 m-20 0 q10 0 10 -10 l0 -14 q0 -10 -10 -10 m-130 0 h10 m88 0 h10 m0 0 h22 m-140 10 l0 -44 q0 -10 10 -10 m140 54 l0 -44 q0 -10 -10 -10 m-130 0 h10 m94 0 h10 m0 0 h16 m-140 10 l0 -44 q0 -10 10 -10 m140 54 l0 -44 q0 -10 -10 -10 m-130 0 h10 m110 0 h10 m40 122 h10 m0 0 h174 m-204 0 l20 0 m-1 0 q-9 0 -9 -10 l0 -14 q0 -10 10 -10 m184 34 l20 0 m-20 0 q10 0 10 -10 l0 -14 q0 -10 -10 -10 m-184 0 h10 m164 0 h10 m23 34 h-3"/>
   <polygon points="597 139 605 135 605 143"/>
   <polygon points="597 139 589 135 589 143"/>
</svg>
