<?xml version="1.0" encoding="UTF-8"?>
<svg xmlns="http://www.w3.org/2000/svg" width="605" height="167">
   <defs>
      <style type="text/css">
    @namespace "http://www.w3.org/2000/svg";
    .line                 {fill: none; stroke: #332900; stroke-width: 1;}
    .bold-line            {stroke: #141000; shape-rendering: crispEdges; stroke-width: 2;}
    .thin-line            {stroke: #1F1800; shape-rendering: crispEdges}
    .filled               {fill: #332900; stroke: none;}
    text.terminal         {font-family: Verdana, Sans-serif;
                            font-size: 12px;
                            fill: #141000;
                            font-weight: bold;
                          }
    text.nonterminal      {font-family: Verdana, Sans-serif;
                            font-size: 12px;
                            fill: #1A1400;
                            font-weight: normal;
                          }
    text.regexp           {font-family: Verdana, Sans-serif;
                            font-size: 12px;
                            fill: #1F1800;
                            font-weight: normal;
                          }
    rect, circle, polygon {fill: #332900; stroke: #332900;}
    rect.terminal         {fill: #FFDB4D; stroke: #332900; stroke-width: 1;}
    rect.nonterminal      {fill: #FFEC9E; stroke: #332900; stroke-width: 1;}
    rect.text             {fill: none; stroke: none;}
    polygon.regexp        {fill: #FFF4C7; stroke: #332900; stroke-width: 1;}
  </style>
   </defs>
   <polygon points="9 17 1 13 1 21"/>
   <polygon points="17 17 9 13 9 21"/>
   <a xmlns:xlink="http://www.w3.org/1999/xlink"
       xlink:href="#with-clause"
       xlink:title="with-clause">
      <rect x="51" y="35" width="92" height="32"/>
      <rect x="49" y="33" width="92" height="32" class="nonterminal"/>
      <text class="nonterminal" x="59" y="53">with-clause</text>
   </a>
   <a xmlns:xlink="http://www.w3.org/1999/xlink"
       xlink:href="#from-clause"
       xlink:title="from-clause">
      <rect x="183" y="3" width="94" height="32"/>
      <rect x="181" y="1" width="94" height="32" class="nonterminal"/>
      <text class="nonterminal" x="191" y="21">from-clause</text>
   </a>
   <a xmlns:xlink="http://www.w3.org/1999/xlink"
       xlink:href="#let-clause"
       xlink:title="let-clause">
      <rect x="317" y="35" width="82" height="32"/>
      <rect x="315" y="33" width="82" height="32" class="nonterminal"/>
      <text class="nonterminal" x="325" y="53">let-clause</text>
   </a>
   <a xmlns:xlink="http://www.w3.org/1999/xlink"
       xlink:href="#where-clause"
       xlink:title="where-clause">
      <rect x="459" y="35" width="104" height="32"/>
      <rect x="457" y="33" width="104" height="32" class="nonterminal"/>
      <text class="nonterminal" x="467" y="53">where-clause</text>
   </a>
   <a xmlns:xlink="http://www.w3.org/1999/xlink"
       xlink:href="#group-by-clause"
       xlink:title="group-by-clause">
      <rect x="139" y="133" width="124" height="32"/>
      <rect x="137" y="131" width="124" height="32" class="nonterminal"/>
      <text class="nonterminal" x="147" y="151">group-by-clause</text>
   </a>
   <a xmlns:xlink="http://www.w3.org/1999/xlink"
       xlink:href="#window-clause"
       xlink:title="window-clause">
      <rect x="323" y="133" width="112" height="32"/>
      <rect x="321" y="131" width="112" height="32" class="nonterminal"/>
      <text class="nonterminal" x="331" y="151">window-clause</text>
   </a>
   <a xmlns:xlink="http://www.w3.org/1999/xlink"
       xlink:href="#select-clause"
       xlink:title="select-clause">
      <rect x="475" y="101" width="102" height="32"/>
      <rect x="473" y="99" width="102" height="32" class="nonterminal"/>
      <text class="nonterminal" x="483" y="119">select-clause</text>
   </a>
   <path class="line"
          d="m17 17 h2 m20 0 h10 m0 0 h102 m-132 0 h20 m112 0 h20 m-152 0 q10 0 10 10 m132 0 q0 -10 10 -10 m-142 10 v12 m132 0 v-12 m-132 12 q0 10 10 10 m112 0 q10 0 10 -10 m-122 10 h10 m92 0 h10 m20 -32 h10 m94 0 h10 m20 0 h10 m0 0 h92 m-122 0 h20 m102 0 h20 m-142 0 q10 0 10 10 m122 0 q0 -10 10 -10 m-132 10 v12 m122 0 v-12 m-122 12 q0 10 10 10 m102 0 q10 0 10 -10 m-112 10 h10 m82 0 h10 m40 -32 h10 m0 0 h114 m-144 0 h20 m124 0 h20 m-164 0 q10 0 10 10 m144 0 q0 -10 10 -10 m-154 10 v12 m144 0 v-12 m-144 12 q0 10 10 10 m124 0 q10 0 10 -10 m-134 10 h10 m104 0 h10 m22 -32 l2 0 m2 0 l2 0 m2 0 l2 0 m-508 98 l2 0 m2 0 l2 0 m2 0 l2 0 m22 0 h10 m0 0 h134 m-164 0 h20 m144 0 h20 m-184 0 q10 0 10 10 m164 0 q0 -10 10 -10 m-174 10 v12 m164 0 v-12 m-164 12 q0 10 10 10 m144 0 q10 0 10 -10 m-154 10 h10 m124 0 h10 m40 -32 h10 m0 0 h122 m-152 0 h20 m132 0 h20 m-172 0 q10 0 10 10 m152 0 q0 -10 10 -10 m-162 10 v12 m152 0 v-12 m-152 12 q0 10 10 10 m132 0 q10 0 10 -10 m-142 10 h10 m112 0 h10 m20 -32 h10 m102 0 h10 m3 0 h-3"/>
   <polygon points="595 115 603 111 603 119"/>
   <polygon points="595 115 587 111 587 119"/>
</svg>
