<?xml version="1.0" encoding="UTF-8"?>
<svg xmlns="http://www.w3.org/2000/svg" width="461" height="71">
   <defs>
      <style type="text/css">
    @namespace "http://www.w3.org/2000/svg";
    .line                 {fill: none; stroke: #332900; stroke-width: 1;}
    .bold-line            {stroke: #141000; shape-rendering: crispEdges; stroke-width: 2;}
    .thin-line            {stroke: #1F1800; shape-rendering: crispEdges}
    .filled               {fill: #332900; stroke: none;}
    text.terminal         {font-family: Verdana, Sans-serif;
                            font-size: 12px;
                            fill: #141000;
                            font-weight: bold;
                          }
    text.nonterminal      {font-family: Verdana, Sans-serif;
                            font-size: 12px;
                            fill: #1A1400;
                            font-weight: normal;
                          }
    text.regexp           {font-family: Verdana, Sans-serif;
                            font-size: 12px;
                            fill: #1F1800;
                            font-weight: normal;
                          }
    rect, circle, polygon {fill: #332900; stroke: #332900;}
    rect.terminal         {fill: #FFDB4D; stroke: #332900; stroke-width: 1;}
    rect.nonterminal      {fill: #FFEC9E; stroke: #332900; stroke-width: 1;}
    rect.text             {fill: none; stroke: none;}
    polygon.regexp        {fill: #FFF4C7; stroke: #332900; stroke-width: 1;}
  </style>
   </defs>
   <polygon points="9 51 1 47 1 55"/>
   <polygon points="17 51 9 47 9 55"/>
   <rect x="31" y="37" width="98" height="32" rx="10"/>
   <rect x="29"
          y="35"
          width="98"
          height="32"
          class="terminal"
          rx="10"/>
   <text class="terminal" x="39" y="55">INDEX_FTS</text>
   <rect x="149" y="37" width="26" height="32" rx="10"/>
   <rect x="147"
          y="35"
          width="26"
          height="32"
          class="terminal"
          rx="10"/>
   <text class="terminal" x="157" y="55">(</text>
   <a xmlns:xlink="http://www.w3.org/1999/xlink"
       xlink:href="#keyspace"
       xlink:title="keyspace">
      <rect x="195" y="37" width="78" height="32"/>
      <rect x="193" y="35" width="78" height="32" class="nonterminal"/>
      <text class="nonterminal" x="203" y="55">keyspace</text>
   </a>
   <a xmlns:xlink="http://www.w3.org/1999/xlink"
       xlink:href="#index"
       xlink:title="index">
      <rect x="313" y="3" width="54" height="32"/>
      <rect x="311" y="1" width="54" height="32" class="nonterminal"/>
      <text class="nonterminal" x="321" y="21">index</text>
   </a>
   <rect x="407" y="37" width="26" height="32" rx="10"/>
   <rect x="405"
          y="35"
          width="26"
          height="32"
          class="terminal"
          rx="10"/>
   <text class="terminal" x="415" y="55">)</text>
   <path class="line"
          d="m17 51 h2 m0 0 h10 m98 0 h10 m0 0 h10 m26 0 h10 m0 0 h10 m78 0 h10 m20 0 h10 m0 0 h64 m-94 0 l20 0 m-1 0 q-9 0 -9 -10 l0 -14 q0 -10 10 -10 m74 34 l20 0 m-20 0 q10 0 10 -10 l0 -14 q0 -10 -10 -10 m-74 0 h10 m54 0 h10 m20 34 h10 m26 0 h10 m3 0 h-3"/>
   <polygon points="451 51 459 47 459 55"/>
   <polygon points="451 51 443 47 443 55"/>
</svg>
