<?xml version="1.0" encoding="UTF-8"?>
<svg xmlns="http://www.w3.org/2000/svg" width="729" height="223">
   <defs>
      <style type="text/css">
    @namespace "http://www.w3.org/2000/svg";
    .line                 {fill: none; stroke: #332900; stroke-width: 1;}
    .bold-line            {stroke: #141000; shape-rendering: crispEdges; stroke-width: 2;}
    .thin-line            {stroke: #1F1800; shape-rendering: crispEdges}
    .filled               {fill: #332900; stroke: none;}
    text.terminal         {font-family: Verdana, Sans-serif;
                            font-size: 12px;
                            fill: #141000;
                            font-weight: bold;
                          }
    text.nonterminal      {font-family: Verdana, Sans-serif;
                            font-size: 12px;
                            fill: #1A1400;
                            font-weight: normal;
                          }
    text.regexp           {font-family: Verdana, Sans-serif;
                            font-size: 12px;
                            fill: #1F1800;
                            font-weight: normal;
                          }
    rect, circle, polygon {fill: #332900; stroke: #332900;}
    rect.terminal         {fill: #FFDB4D; stroke: #332900; stroke-width: 1;}
    rect.nonterminal      {fill: #FFEC9E; stroke: #332900; stroke-width: 1;}
    rect.text             {fill: none; stroke: none;}
    polygon.regexp        {fill: #FFF4C7; stroke: #332900; stroke-width: 1;}
  </style>
   </defs>
   <polygon points="9 61 1 57 1 65"/>
   <polygon points="17 61 9 57 9 65"/>
   <rect x="51" y="47" width="44" height="32" rx="10"/>
   <rect x="49"
          y="45"
          width="44"
          height="32"
          class="terminal"
          rx="10"/>
   <text class="terminal" x="59" y="65">ALL</text>
   <rect x="51" y="91" width="86" height="32" rx="10"/>
   <rect x="49"
          y="89"
          width="86"
          height="32"
          class="terminal"
          rx="10"/>
   <text class="terminal" x="59" y="109">DISTINCT</text>
   <rect x="177" y="47" width="66" height="32" rx="10"/>
   <rect x="175"
          y="45"
          width="66"
          height="32"
          class="terminal"
          rx="10"/>
   <text class="terminal" x="185" y="65">ARRAY</text>
   <a xmlns:xlink="http://www.w3.org/1999/xlink"
       xlink:href="#var-expr"
       xlink:title="var-expr">
      <rect x="263" y="47" width="74" height="32"/>
      <rect x="261" y="45" width="74" height="32" class="nonterminal"/>
      <text class="nonterminal" x="271" y="65">var-expr</text>
   </a>
   <rect x="357" y="47" width="48" height="32" rx="10"/>
   <rect x="355"
          y="45"
          width="48"
          height="32"
          class="terminal"
          rx="10"/>
   <text class="terminal" x="365" y="65">FOR</text>
   <a xmlns:xlink="http://www.w3.org/1999/xlink"
       xlink:href="#var"
       xlink:title="var">
      <rect x="445" y="47" width="40" height="32"/>
      <rect x="443" y="45" width="40" height="32" class="nonterminal"/>
      <text class="nonterminal" x="453" y="65">var</text>
   </a>
   <rect x="525" y="47" width="36" height="32" rx="10"/>
   <rect x="523"
          y="45"
          width="36"
          height="32"
          class="terminal"
          rx="10"/>
   <text class="terminal" x="533" y="65">IN</text>
   <rect x="525" y="91" width="74" height="32" rx="10"/>
   <rect x="523"
          y="89"
          width="74"
          height="32"
          class="terminal"
          rx="10"/>
   <text class="terminal" x="533" y="109">WITHIN</text>
   <a xmlns:xlink="http://www.w3.org/1999/xlink"
       xlink:href="#expr"
       xlink:title="expr">
      <rect x="639" y="47" width="48" height="32"/>
      <rect x="637" y="45" width="48" height="32" class="nonterminal"/>
      <text class="nonterminal" x="647" y="65">expr</text>
   </a>
   <rect x="445" y="3" width="24" height="32" rx="10"/>
   <rect x="443"
          y="1"
          width="24"
          height="32"
          class="terminal"
          rx="10"/>
   <text class="terminal" x="453" y="21">,</text>
   <rect x="481" y="189" width="62" height="32" rx="10"/>
   <rect x="479"
          y="187"
          width="62"
          height="32"
          class="terminal"
          rx="10"/>
   <text class="terminal" x="489" y="207">WHEN</text>
   <a xmlns:xlink="http://www.w3.org/1999/xlink"
       xlink:href="#cond"
       xlink:title="cond">
      <rect x="563" y="189" width="50" height="32"/>
      <rect x="561" y="187" width="50" height="32" class="nonterminal"/>
      <text class="nonterminal" x="571" y="207">cond</text>
   </a>
   <rect x="653" y="157" width="48" height="32" rx="10"/>
   <rect x="651"
          y="155"
          width="48"
          height="32"
          class="terminal"
          rx="10"/>
   <text class="terminal" x="661" y="175">END</text>
   <path class="line"
          d="m17 61 h2 m20 0 h10 m44 0 h10 m0 0 h42 m-126 0 h20 m106 0 h20 m-146 0 q10 0 10 10 m126 0 q0 -10 10 -10 m-136 10 v24 m126 0 v-24 m-126 24 q0 10 10 10 m106 0 q10 0 10 -10 m-116 10 h10 m86 0 h10 m20 -44 h10 m66 0 h10 m0 0 h10 m74 0 h10 m0 0 h10 m48 0 h10 m20 0 h10 m40 0 h10 m20 0 h10 m36 0 h10 m0 0 h38 m-114 0 h20 m94 0 h20 m-134 0 q10 0 10 10 m114 0 q0 -10 10 -10 m-124 10 v24 m114 0 v-24 m-114 24 q0 10 10 10 m94 0 q10 0 10 -10 m-104 10 h10 m74 0 h10 m20 -44 h10 m48 0 h10 m-282 0 l20 0 m-1 0 q-9 0 -9 -10 l0 -24 q0 -10 10 -10 m262 44 l20 0 m-20 0 q10 0 10 -10 l0 -24 q0 -10 -10 -10 m-262 0 h10 m24 0 h10 m0 0 h218 m22 44 l2 0 m2 0 l2 0 m2 0 l2 0 m-290 110 l2 0 m2 0 l2 0 m2 0 l2 0 m22 0 h10 m0 0 h142 m-172 0 h20 m152 0 h20 m-192 0 q10 0 10 10 m172 0 q0 -10 10 -10 m-182 10 v12 m172 0 v-12 m-172 12 q0 10 10 10 m152 0 q10 0 10 -10 m-162 10 h10 m62 0 h10 m0 0 h10 m50 0 h10 m20 -32 h10 m48 0 h10 m3 0 h-3"/>
   <polygon points="719 171 727 167 727 175"/>
   <polygon points="719 171 711 167 711 175"/>
</svg>
