<?xml version="1.0" encoding="UTF-8"?>
<svg xmlns="http://www.w3.org/2000/svg" width="617" height="101">
   <defs>
      <style type="text/css">
    @namespace "http://www.w3.org/2000/svg";
    .line                 {fill: none; stroke: #332900; stroke-width: 1;}
    .bold-line            {stroke: #141000; shape-rendering: crispEdges; stroke-width: 2;}
    .thin-line            {stroke: #1F1800; shape-rendering: crispEdges}
    .filled               {fill: #332900; stroke: none;}
    text.terminal         {font-family: Verdana, Sans-serif;
                            font-size: 12px;
                            fill: #141000;
                            font-weight: bold;
                          }
    text.nonterminal      {font-family: Verdana, Sans-serif;
                            font-size: 12px;
                            fill: #1A1400;
                            font-weight: normal;
                          }
    text.regexp           {font-family: Verdana, Sans-serif;
                            font-size: 12px;
                            fill: #1F1800;
                            font-weight: normal;
                          }
    rect, circle, polygon {fill: #332900; stroke: #332900;}
    rect.terminal         {fill: #FFDB4D; stroke: #332900; stroke-width: 1;}
    rect.nonterminal      {fill: #FFEC9E; stroke: #332900; stroke-width: 1;}
    rect.text             {fill: none; stroke: none;}
    polygon.regexp        {fill: #FFF4C7; stroke: #332900; stroke-width: 1;}
  </style>
   </defs>
   <polygon points="9 17 1 13 1 21"/>
   <polygon points="17 17 9 13 9 21"/>
   <a xmlns:xlink="http://www.w3.org/1999/xlink"
       xlink:href="#namespace"
       xlink:title="namespace">
      <rect x="51" y="35" width="92" height="32"/>
      <rect x="49" y="33" width="92" height="32" class="nonterminal"/>
      <text class="nonterminal" x="59" y="53">namespace</text>
   </a>
   <rect x="163" y="35" width="24" height="32" rx="10"/>
   <rect x="161"
          y="33"
          width="24"
          height="32"
          class="terminal"
          rx="10"/>
   <text class="terminal" x="171" y="53">:</text>
   <a xmlns:xlink="http://www.w3.org/1999/xlink"
       xlink:href="#bucket"
       xlink:title="bucket">
      <rect x="227" y="67" width="62" height="32"/>
      <rect x="225" y="65" width="62" height="32" class="nonterminal"/>
      <text class="nonterminal" x="235" y="85">bucket</text>
   </a>
   <rect x="309" y="67" width="24" height="32" rx="10"/>
   <rect x="307"
          y="65"
          width="24"
          height="32"
          class="terminal"
          rx="10"/>
   <text class="terminal" x="317" y="85">.</text>
   <a xmlns:xlink="http://www.w3.org/1999/xlink"
       xlink:href="#scope"
       xlink:title="scope">
      <rect x="353" y="67" width="56" height="32"/>
      <rect x="351" y="65" width="56" height="32" class="nonterminal"/>
      <text class="nonterminal" x="361" y="85">scope</text>
   </a>
   <rect x="429" y="67" width="24" height="32" rx="10"/>
   <rect x="427"
          y="65"
          width="24"
          height="32"
          class="terminal"
          rx="10"/>
   <text class="terminal" x="437" y="85">.</text>
   <a xmlns:xlink="http://www.w3.org/1999/xlink"
       xlink:href="#identifier"
       xlink:title="identifier">
      <rect x="513" y="3" width="76" height="32"/>
      <rect x="511" y="1" width="76" height="32" class="nonterminal"/>
      <text class="nonterminal" x="521" y="21">identifier</text>
   </a>
   <path class="line"
          d="m17 17 h2 m20 0 h10 m0 0 h432 m-462 0 h20 m442 0 h20 m-482 0 q10 0 10 10 m462 0 q0 -10 10 -10 m-472 10 v12 m462 0 v-12 m-462 12 q0 10 10 10 m442 0 q10 0 10 -10 m-452 10 h10 m92 0 h10 m0 0 h10 m24 0 h10 m20 0 h10 m0 0 h236 m-266 0 h20 m246 0 h20 m-286 0 q10 0 10 10 m266 0 q0 -10 10 -10 m-276 10 v12 m266 0 v-12 m-266 12 q0 10 10 10 m246 0 q10 0 10 -10 m-256 10 h10 m62 0 h10 m0 0 h10 m24 0 h10 m0 0 h10 m56 0 h10 m0 0 h10 m24 0 h10 m40 -64 h10 m76 0 h10 m3 0 h-3"/>
   <polygon points="607 17 615 13 615 21"/>
   <polygon points="607 17 599 13 599 21"/>
</svg>
