<?xml version="1.0" encoding="UTF-8"?>
<svg xmlns="http://www.w3.org/2000/svg" width="657" height="97">
   <defs>
      <style type="text/css">
    @namespace "http://www.w3.org/2000/svg";
    .line                 {fill: none; stroke: #332900; stroke-width: 1;}
    .bold-line            {stroke: #141000; shape-rendering: crispEdges; stroke-width: 2;}
    .thin-line            {stroke: #1F1800; shape-rendering: crispEdges}
    .filled               {fill: #332900; stroke: none;}
    text.terminal         {font-family: Verdana, Sans-serif;
                            font-size: 12px;
                            fill: #141000;
                            font-weight: bold;
                          }
    text.nonterminal      {font-family: Verdana, Sans-serif;
                            font-size: 12px;
                            fill: #1A1400;
                            font-weight: normal;
                          }
    text.regexp           {font-family: Verdana, Sans-serif;
                            font-size: 12px;
                            fill: #1F1800;
                            font-weight: normal;
                          }
    rect, circle, polygon {fill: #332900; stroke: #332900;}
    rect.terminal         {fill: #FFDB4D; stroke: #332900; stroke-width: 1;}
    rect.nonterminal      {fill: #FFEC9E; stroke: #332900; stroke-width: 1;}
    rect.text             {fill: none; stroke: none;}
    polygon.regexp        {fill: #FFF4C7; stroke: #332900; stroke-width: 1;}
  </style>
   </defs>
   <polygon points="9 61 1 57 1 65"/>
   <polygon points="17 61 9 57 9 65"/>
   <rect x="31" y="47" width="66" height="32" rx="10"/>
   <rect x="29"
          y="45"
          width="66"
          height="32"
          class="terminal"
          rx="10"/>
   <text class="terminal" x="39" y="65">GRANT</text>
   <a xmlns:xlink="http://www.w3.org/1999/xlink"
       xlink:href="#role"
       xlink:title="role">
      <rect x="137" y="47" width="44" height="32"/>
      <rect x="135" y="45" width="44" height="32" class="nonterminal"/>
      <text class="nonterminal" x="145" y="65">role</text>
   </a>
   <rect x="137" y="3" width="24" height="32" rx="10"/>
   <rect x="135"
          y="1"
          width="24"
          height="32"
          class="terminal"
          rx="10"/>
   <text class="terminal" x="145" y="21">,</text>
   <rect x="241" y="47" width="40" height="32" rx="10"/>
   <rect x="239"
          y="45"
          width="40"
          height="32"
          class="terminal"
          rx="10"/>
   <text class="terminal" x="249" y="65">ON</text>
   <a xmlns:xlink="http://www.w3.org/1999/xlink"
       xlink:href="#keyspace-ref"
       xlink:title="keyspace-ref">
      <rect x="321" y="47" width="102" height="32"/>
      <rect x="319" y="45" width="102" height="32" class="nonterminal"/>
      <text class="nonterminal" x="329" y="65">keyspace-ref</text>
   </a>
   <rect x="321" y="3" width="24" height="32" rx="10"/>
   <rect x="319"
          y="1"
          width="24"
          height="32"
          class="terminal"
          rx="10"/>
   <text class="terminal" x="329" y="21">,</text>
   <rect x="483" y="47" width="38" height="32" rx="10"/>
   <rect x="481"
          y="45"
          width="38"
          height="32"
          class="terminal"
          rx="10"/>
   <text class="terminal" x="491" y="65">TO</text>
   <a xmlns:xlink="http://www.w3.org/1999/xlink"
       xlink:href="#user"
       xlink:title="user">
      <rect x="561" y="47" width="48" height="32"/>
      <rect x="559" y="45" width="48" height="32" class="nonterminal"/>
      <text class="nonterminal" x="569" y="65">user</text>
   </a>
   <rect x="561" y="3" width="24" height="32" rx="10"/>
   <rect x="559"
          y="1"
          width="24"
          height="32"
          class="terminal"
          rx="10"/>
   <text class="terminal" x="569" y="21">,</text>
   <path class="line"
          d="m17 61 h2 m0 0 h10 m66 0 h10 m20 0 h10 m44 0 h10 m-84 0 l20 0 m-1 0 q-9 0 -9 -10 l0 -24 q0 -10 10 -10 m64 44 l20 0 m-20 0 q10 0 10 -10 l0 -24 q0 -10 -10 -10 m-64 0 h10 m24 0 h10 m0 0 h20 m40 44 h10 m40 0 h10 m20 0 h10 m102 0 h10 m-142 0 l20 0 m-1 0 q-9 0 -9 -10 l0 -24 q0 -10 10 -10 m122 44 l20 0 m-20 0 q10 0 10 -10 l0 -24 q0 -10 -10 -10 m-122 0 h10 m24 0 h10 m0 0 h78 m-222 44 h20 m222 0 h20 m-262 0 q10 0 10 10 m242 0 q0 -10 10 -10 m-252 10 v14 m242 0 v-14 m-242 14 q0 10 10 10 m222 0 q10 0 10 -10 m-232 10 h10 m0 0 h212 m20 -34 h10 m38 0 h10 m20 0 h10 m48 0 h10 m-88 0 l20 0 m-1 0 q-9 0 -9 -10 l0 -24 q0 -10 10 -10 m68 44 l20 0 m-20 0 q10 0 10 -10 l0 -24 q0 -10 -10 -10 m-68 0 h10 m24 0 h10 m0 0 h24 m23 44 h-3"/>
   <polygon points="647 61 655 57 655 65"/>
   <polygon points="647 61 639 57 639 65"/>
</svg>
