<?xml version="1.0" encoding="UTF-8"?>
<svg xmlns="http://www.w3.org/2000/svg" width="711" height="157">
   <defs>
      <style type="text/css">
    @namespace "http://www.w3.org/2000/svg";
    .line                 {fill: none; stroke: #332900; stroke-width: 1;}
    .bold-line            {stroke: #141000; shape-rendering: crispEdges; stroke-width: 2;}
    .thin-line            {stroke: #1F1800; shape-rendering: crispEdges}
    .filled               {fill: #332900; stroke: none;}
    text.terminal         {font-family: Verdana, Sans-serif;
                            font-size: 12px;
                            fill: #141000;
                            font-weight: bold;
                          }
    text.nonterminal      {font-family: Verdana, Sans-serif;
                            font-size: 12px;
                            fill: #1A1400;
                            font-weight: normal;
                          }
    text.regexp           {font-family: Verdana, Sans-serif;
                            font-size: 12px;
                            fill: #1F1800;
                            font-weight: normal;
                          }
    rect, circle, polygon {fill: #332900; stroke: #332900;}
    rect.terminal         {fill: #FFDB4D; stroke: #332900; stroke-width: 1;}
    rect.nonterminal      {fill: #FFEC9E; stroke: #332900; stroke-width: 1;}
    rect.text             {fill: none; stroke: none;}
    polygon.regexp        {fill: #FFF4C7; stroke: #332900; stroke-width: 1;}
  </style>
   </defs>
   <polygon points="9 61 1 57 1 65"/>
   <polygon points="17 61 9 57 9 65"/>
   <rect x="51" y="47" width="68" height="32" rx="10"/>
   <rect x="49"
          y="45"
          width="68"
          height="32"
          class="terminal"
          rx="10"/>
   <text class="terminal" x="59" y="65">GROUP</text>
   <rect x="139" y="47" width="38" height="32" rx="10"/>
   <rect x="137"
          y="45"
          width="38"
          height="32"
          class="terminal"
          rx="10"/>
   <text class="terminal" x="147" y="65">BY</text>
   <a xmlns:xlink="http://www.w3.org/1999/xlink"
       xlink:href="#group-term"
       xlink:title="group-term">
      <rect x="217" y="47" width="92" height="32"/>
      <rect x="215" y="45" width="92" height="32" class="nonterminal"/>
      <text class="nonterminal" x="225" y="65">group-term</text>
   </a>
   <rect x="217" y="3" width="24" height="32" rx="10"/>
   <rect x="215"
          y="1"
          width="24"
          height="32"
          class="terminal"
          rx="10"/>
   <text class="terminal" x="225" y="21">,</text>
   <a xmlns:xlink="http://www.w3.org/1999/xlink"
       xlink:href="#letting-clause"
       xlink:title="letting-clause">
      <rect x="369" y="79" width="106" height="32"/>
      <rect x="367" y="77" width="106" height="32" class="nonterminal"/>
      <text class="nonterminal" x="377" y="97">letting-clause</text>
   </a>
   <a xmlns:xlink="http://www.w3.org/1999/xlink"
       xlink:href="#having-clause"
       xlink:title="having-clause">
      <rect x="535" y="79" width="108" height="32"/>
      <rect x="533" y="77" width="108" height="32" class="nonterminal"/>
      <text class="nonterminal" x="543" y="97">having-clause</text>
   </a>
   <a xmlns:xlink="http://www.w3.org/1999/xlink"
       xlink:href="#letting-clause"
       xlink:title="letting-clause">
      <rect x="51" y="123" width="106" height="32"/>
      <rect x="49" y="121" width="106" height="32" class="nonterminal"/>
      <text class="nonterminal" x="59" y="141">letting-clause</text>
   </a>
   <path class="line"
          d="m17 61 h2 m20 0 h10 m68 0 h10 m0 0 h10 m38 0 h10 m20 0 h10 m92 0 h10 m-132 0 l20 0 m-1 0 q-9 0 -9 -10 l0 -24 q0 -10 10 -10 m112 44 l20 0 m-20 0 q10 0 10 -10 l0 -24 q0 -10 -10 -10 m-112 0 h10 m24 0 h10 m0 0 h68 m40 44 h10 m0 0 h116 m-146 0 h20 m126 0 h20 m-166 0 q10 0 10 10 m146 0 q0 -10 10 -10 m-156 10 v12 m146 0 v-12 m-146 12 q0 10 10 10 m126 0 q10 0 10 -10 m-136 10 h10 m106 0 h10 m40 -32 h10 m0 0 h118 m-148 0 h20 m128 0 h20 m-168 0 q10 0 10 10 m148 0 q0 -10 10 -10 m-158 10 v12 m148 0 v-12 m-148 12 q0 10 10 10 m128 0 q10 0 10 -10 m-138 10 h10 m108 0 h10 m-632 -32 h20 m632 0 h20 m-672 0 q10 0 10 10 m652 0 q0 -10 10 -10 m-662 10 v56 m652 0 v-56 m-652 56 q0 10 10 10 m632 0 q10 0 10 -10 m-642 10 h10 m106 0 h10 m0 0 h506 m23 -76 h-3"/>
   <polygon points="701 61 709 57 709 65"/>
   <polygon points="701 61 693 57 693 65"/>
</svg>
