<?xml version="1.0" encoding="UTF-8"?>
<svg xmlns="http://www.w3.org/2000/svg" width="597" height="129">
   <defs>
      <style type="text/css">
    @namespace "http://www.w3.org/2000/svg";
    .line                 {fill: none; stroke: #332900; stroke-width: 1;}
    .bold-line            {stroke: #141000; shape-rendering: crispEdges; stroke-width: 2;}
    .thin-line            {stroke: #1F1800; shape-rendering: crispEdges}
    .filled               {fill: #332900; stroke: none;}
    text.terminal         {font-family: Verdana, Sans-serif;
                            font-size: 12px;
                            fill: #141000;
                            font-weight: bold;
                          }
    text.nonterminal      {font-family: Verdana, Sans-serif;
                            font-size: 12px;
                            fill: #1A1400;
                            font-weight: normal;
                          }
    text.regexp           {font-family: Verdana, Sans-serif;
                            font-size: 12px;
                            fill: #1F1800;
                            font-weight: normal;
                          }
    rect, circle, polygon {fill: #332900; stroke: #332900;}
    rect.terminal         {fill: #FFDB4D; stroke: #332900; stroke-width: 1;}
    rect.nonterminal      {fill: #FFEC9E; stroke: #332900; stroke-width: 1;}
    rect.text             {fill: none; stroke: none;}
    polygon.regexp        {fill: #FFF4C7; stroke: #332900; stroke-width: 1;}
  </style>
   </defs>
   <polygon points="9 33 1 29 1 37"/>
   <polygon points="17 33 9 29 9 37"/>
   <rect x="31" y="19" width="94" height="32" rx="10"/>
   <rect x="29"
          y="17"
          width="94"
          height="32"
          class="terminal"
          rx="10"/>
   <text class="terminal" x="39" y="37">USE_HASH</text>
   <rect x="145" y="19" width="26" height="32" rx="10"/>
   <rect x="143"
          y="17"
          width="26"
          height="32"
          class="terminal"
          rx="10"/>
   <text class="terminal" x="153" y="37">(</text>
   <a xmlns:xlink="http://www.w3.org/1999/xlink"
       xlink:href="#keyspace"
       xlink:title="keyspace">
      <rect x="211" y="19" width="78" height="32"/>
      <rect x="209" y="17" width="78" height="32" class="nonterminal"/>
      <text class="nonterminal" x="219" y="37">keyspace</text>
   </a>
   <rect x="329" y="51" width="28" height="32" rx="10"/>
   <rect x="327"
          y="49"
          width="28"
          height="32"
          class="terminal"
          rx="10"/>
   <text class="terminal" x="337" y="69">/</text>
   <rect x="397" y="51" width="62" height="32" rx="10"/>
   <rect x="395"
          y="49"
          width="62"
          height="32"
          class="terminal"
          rx="10"/>
   <text class="terminal" x="405" y="69">BUILD</text>
   <rect x="397" y="95" width="66" height="32" rx="10"/>
   <rect x="395"
          y="93"
          width="66"
          height="32"
          class="terminal"
          rx="10"/>
   <text class="terminal" x="405" y="113">PROBE</text>
   <rect x="543" y="19" width="26" height="32" rx="10"/>
   <rect x="541"
          y="17"
          width="26"
          height="32"
          class="terminal"
          rx="10"/>
   <text class="terminal" x="551" y="37">)</text>
   <path class="line"
          d="m17 33 h2 m0 0 h10 m94 0 h10 m0 0 h10 m26 0 h10 m20 0 h10 m78 0 h10 m20 0 h10 m0 0 h164 m-194 0 h20 m174 0 h20 m-214 0 q10 0 10 10 m194 0 q0 -10 10 -10 m-204 10 v12 m194 0 v-12 m-194 12 q0 10 10 10 m174 0 q10 0 10 -10 m-184 10 h10 m28 0 h10 m20 0 h10 m62 0 h10 m0 0 h4 m-106 0 h20 m86 0 h20 m-126 0 q10 0 10 10 m106 0 q0 -10 10 -10 m-116 10 v24 m106 0 v-24 m-106 24 q0 10 10 10 m86 0 q10 0 10 -10 m-96 10 h10 m66 0 h10 m-292 -76 l20 0 m-1 0 q-9 0 -9 -10 l0 -12 q0 -10 10 -10 m312 32 l20 0 m-20 0 q10 0 10 -10 l0 -12 q0 -10 -10 -10 m-312 0 h10 m0 0 h302 m20 32 h10 m26 0 h10 m3 0 h-3"/>
   <polygon points="587 33 595 29 595 37"/>
   <polygon points="587 33 579 29 579 37"/>
</svg>
