<?xml version="1.0" encoding="UTF-8"?>
<svg xmlns="http://www.w3.org/2000/svg" width="517" height="69">
   <defs>
      <style type="text/css">
    @namespace "http://www.w3.org/2000/svg";
    .line                 {fill: none; stroke: #332900; stroke-width: 1;}
    .bold-line            {stroke: #141000; shape-rendering: crispEdges; stroke-width: 2;}
    .thin-line            {stroke: #1F1800; shape-rendering: crispEdges}
    .filled               {fill: #332900; stroke: none;}
    text.terminal         {font-family: Verdana, Sans-serif;
                            font-size: 12px;
                            fill: #141000;
                            font-weight: bold;
                          }
    text.nonterminal      {font-family: Verdana, Sans-serif;
                            font-size: 12px;
                            fill: #1A1400;
                            font-weight: normal;
                          }
    text.regexp           {font-family: Verdana, Sans-serif;
                            font-size: 12px;
                            fill: #1F1800;
                            font-weight: normal;
                          }
    rect, circle, polygon {fill: #332900; stroke: #332900;}
    rect.terminal         {fill: #FFDB4D; stroke: #332900; stroke-width: 1;}
    rect.nonterminal      {fill: #FFEC9E; stroke: #332900; stroke-width: 1;}
    rect.text             {fill: none; stroke: none;}
    polygon.regexp        {fill: #FFF4C7; stroke: #332900; stroke-width: 1;}
  </style>
   </defs>
   <polygon points="9 17 1 13 1 21"/>
   <polygon points="17 17 9 13 9 21"/>
   <rect x="31" y="3" width="28" height="32" rx="10"/>
   <rect x="29"
          y="1"
          width="28"
          height="32"
          class="terminal"
          rx="10"/>
   <text class="terminal" x="39" y="21">{</text>
   <a xmlns:xlink="http://www.w3.org/1999/xlink"
       xlink:href="#keyspace-property"
       xlink:title="keyspace-property">
      <rect x="79" y="3" width="138" height="32"/>
      <rect x="77" y="1" width="138" height="32" class="nonterminal"/>
      <text class="nonterminal" x="87" y="21">keyspace-property</text>
   </a>
   <rect x="257" y="35" width="24" height="32" rx="10"/>
   <rect x="255"
          y="33"
          width="24"
          height="32"
          class="terminal"
          rx="10"/>
   <text class="terminal" x="265" y="53">,</text>
   <a xmlns:xlink="http://www.w3.org/1999/xlink"
       xlink:href="#option-property"
       xlink:title="option-property">
      <rect x="301" y="35" width="120" height="32"/>
      <rect x="299" y="33" width="120" height="32" class="nonterminal"/>
      <text class="nonterminal" x="309" y="53">option-property</text>
   </a>
   <rect x="461" y="3" width="28" height="32" rx="10"/>
   <rect x="459"
          y="1"
          width="28"
          height="32"
          class="terminal"
          rx="10"/>
   <text class="terminal" x="469" y="21">}</text>
   <path class="line"
          d="m17 17 h2 m0 0 h10 m28 0 h10 m0 0 h10 m138 0 h10 m20 0 h10 m0 0 h174 m-204 0 h20 m184 0 h20 m-224 0 q10 0 10 10 m204 0 q0 -10 10 -10 m-214 10 v12 m204 0 v-12 m-204 12 q0 10 10 10 m184 0 q10 0 10 -10 m-194 10 h10 m24 0 h10 m0 0 h10 m120 0 h10 m20 -32 h10 m28 0 h10 m3 0 h-3"/>
   <polygon points="507 17 515 13 515 21"/>
   <polygon points="507 17 499 13 499 21"/>
</svg>
