<?xml version="1.0" encoding="UTF-8"?>
<svg xmlns="http://www.w3.org/2000/svg" width="371" height="37">
   <defs>
      <style type="text/css">
    @namespace "http://www.w3.org/2000/svg";
    .line                 {fill: none; stroke: #332900; stroke-width: 1;}
    .bold-line            {stroke: #141000; shape-rendering: crispEdges; stroke-width: 2;}
    .thin-line            {stroke: #1F1800; shape-rendering: crispEdges}
    .filled               {fill: #332900; stroke: none;}
    text.terminal         {font-family: Verdana, Sans-serif;
                            font-size: 12px;
                            fill: #141000;
                            font-weight: bold;
                          }
    text.nonterminal      {font-family: Verdana, Sans-serif;
                            font-size: 12px;
                            fill: #1A1400;
                            font-weight: normal;
                          }
    text.regexp           {font-family: Verdana, Sans-serif;
                            font-size: 12px;
                            fill: #1F1800;
                            font-weight: normal;
                          }
    rect, circle, polygon {fill: #332900; stroke: #332900;}
    rect.terminal         {fill: #FFDB4D; stroke: #332900; stroke-width: 1;}
    rect.nonterminal      {fill: #FFEC9E; stroke: #332900; stroke-width: 1;}
    rect.text             {fill: none; stroke: none;}
    polygon.regexp        {fill: #FFF4C7; stroke: #332900; stroke-width: 1;}
  </style>
   </defs>
   <polygon points="9 17 1 13 1 21"/>
   <polygon points="17 17 9 13 9 21"/>
   <rect x="31" y="3" width="40" height="32" rx="10"/>
   <rect x="29"
          y="1"
          width="40"
          height="32"
          class="terminal"
          rx="10"/>
   <text class="terminal" x="39" y="21">ON</text>
   <rect x="91" y="3" width="46" height="32" rx="10"/>
   <rect x="89"
          y="1"
          width="46"
          height="32"
          class="terminal"
          rx="10"/>
   <text class="terminal" x="99" y="21">KEY</text>
   <a xmlns:xlink="http://www.w3.org/1999/xlink"
       xlink:href="#expr"
       xlink:title="expr">
      <rect x="157" y="3" width="48" height="32"/>
      <rect x="155" y="1" width="48" height="32" class="nonterminal"/>
      <text class="nonterminal" x="165" y="21">expr</text>
   </a>
   <rect x="225" y="3" width="48" height="32" rx="10"/>
   <rect x="223"
          y="1"
          width="48"
          height="32"
          class="terminal"
          rx="10"/>
   <text class="terminal" x="233" y="21">FOR</text>
   <a xmlns:xlink="http://www.w3.org/1999/xlink"
       xlink:href="#alias"
       xlink:title="alias">
      <rect x="293" y="3" width="50" height="32"/>
      <rect x="291" y="1" width="50" height="32" class="nonterminal"/>
      <text class="nonterminal" x="301" y="21">alias</text>
   </a>
   <path class="line"
          d="m17 17 h2 m0 0 h10 m40 0 h10 m0 0 h10 m46 0 h10 m0 0 h10 m48 0 h10 m0 0 h10 m48 0 h10 m0 0 h10 m50 0 h10 m3 0 h-3"/>
   <polygon points="361 17 369 13 369 21"/>
   <polygon points="361 17 353 13 353 21"/>
</svg>
