<?xml version="1.0" encoding="UTF-8"?>
<svg xmlns="http://www.w3.org/2000/svg" width="579" height="81">
   <defs>
      <style type="text/css">
    @namespace "http://www.w3.org/2000/svg";
    .line                 {fill: none; stroke: #332900; stroke-width: 1;}
    .bold-line            {stroke: #141000; shape-rendering: crispEdges; stroke-width: 2;}
    .thin-line            {stroke: #1F1800; shape-rendering: crispEdges}
    .filled               {fill: #332900; stroke: none;}
    text.terminal         {font-family: Verdana, Sans-serif;
                            font-size: 12px;
                            fill: #141000;
                            font-weight: bold;
                          }
    text.nonterminal      {font-family: Verdana, Sans-serif;
                            font-size: 12px;
                            fill: #1A1400;
                            font-weight: normal;
                          }
    text.regexp           {font-family: Verdana, Sans-serif;
                            font-size: 12px;
                            fill: #1F1800;
                            font-weight: normal;
                          }
    rect, circle, polygon {fill: #332900; stroke: #332900;}
    rect.terminal         {fill: #FFDB4D; stroke: #332900; stroke-width: 1;}
    rect.nonterminal      {fill: #FFEC9E; stroke: #332900; stroke-width: 1;}
    rect.text             {fill: none; stroke: none;}
    polygon.regexp        {fill: #FFF4C7; stroke: #332900; stroke-width: 1;}
  </style>
   </defs>
   <polygon points="9 61 1 57 1 65"/>
   <polygon points="17 61 9 57 9 65"/>
   <rect x="31" y="47" width="98" height="32" rx="10"/>
   <rect x="29"
          y="45"
          width="98"
          height="32"
          class="terminal"
          rx="10"/>
   <text class="terminal" x="39" y="65">PARTITION</text>
   <rect x="149" y="47" width="38" height="32" rx="10"/>
   <rect x="147"
          y="45"
          width="38"
          height="32"
          class="terminal"
          rx="10"/>
   <text class="terminal" x="157" y="65">BY</text>
   <rect x="207" y="47" width="58" height="32" rx="10"/>
   <rect x="205"
          y="45"
          width="58"
          height="32"
          class="terminal"
          rx="10"/>
   <text class="terminal" x="215" y="65">HASH</text>
   <rect x="285" y="47" width="26" height="32" rx="10"/>
   <rect x="283"
          y="45"
          width="26"
          height="32"
          class="terminal"
          rx="10"/>
   <text class="terminal" x="293" y="65">(</text>
   <a xmlns:xlink="http://www.w3.org/1999/xlink"
       xlink:href="#partition-key-expr"
       xlink:title="partition-key-expr">
      <rect x="351" y="47" width="134" height="32"/>
      <rect x="349" y="45" width="134" height="32" class="nonterminal"/>
      <text class="nonterminal" x="359" y="65">partition-key-expr</text>
   </a>
   <rect x="351" y="3" width="24" height="32" rx="10"/>
   <rect x="349"
          y="1"
          width="24"
          height="32"
          class="terminal"
          rx="10"/>
   <text class="terminal" x="359" y="21">,</text>
   <rect x="525" y="47" width="26" height="32" rx="10"/>
   <rect x="523"
          y="45"
          width="26"
          height="32"
          class="terminal"
          rx="10"/>
   <text class="terminal" x="533" y="65">)</text>
   <path class="line"
          d="m17 61 h2 m0 0 h10 m98 0 h10 m0 0 h10 m38 0 h10 m0 0 h10 m58 0 h10 m0 0 h10 m26 0 h10 m20 0 h10 m134 0 h10 m-174 0 l20 0 m-1 0 q-9 0 -9 -10 l0 -24 q0 -10 10 -10 m154 44 l20 0 m-20 0 q10 0 10 -10 l0 -24 q0 -10 -10 -10 m-154 0 h10 m24 0 h10 m0 0 h110 m20 44 h10 m26 0 h10 m3 0 h-3"/>
   <polygon points="569 61 577 57 577 65"/>
   <polygon points="569 61 561 57 561 65"/>
</svg>
