<?xml version="1.0" encoding="UTF-8"?>
<svg xmlns="http://www.w3.org/2000/svg" width="449" height="169">
   <defs>
      <style type="text/css">
    @namespace "http://www.w3.org/2000/svg";
    .line                 {fill: none; stroke: #332900; stroke-width: 1;}
    .bold-line            {stroke: #141000; shape-rendering: crispEdges; stroke-width: 2;}
    .thin-line            {stroke: #1F1800; shape-rendering: crispEdges}
    .filled               {fill: #332900; stroke: none;}
    text.terminal         {font-family: Verdana, Sans-serif;
                            font-size: 12px;
                            fill: #141000;
                            font-weight: bold;
                          }
    text.nonterminal      {font-family: Verdana, Sans-serif;
                            font-size: 12px;
                            fill: #1A1400;
                            font-weight: normal;
                          }
    text.regexp           {font-family: Verdana, Sans-serif;
                            font-size: 12px;
                            fill: #1F1800;
                            font-weight: normal;
                          }
    rect, circle, polygon {fill: #332900; stroke: #332900;}
    rect.terminal         {fill: #FFDB4D; stroke: #332900; stroke-width: 1;}
    rect.nonterminal      {fill: #FFEC9E; stroke: #332900; stroke-width: 1;}
    rect.text             {fill: none; stroke: none;}
    polygon.regexp        {fill: #FFF4C7; stroke: #332900; stroke-width: 1;}
  </style>
   </defs>
   <polygon points="9 61 1 57 1 65"/>
   <polygon points="17 61 9 57 9 65"/>
   <rect x="31" y="47" width="64" height="32" rx="10"/>
   <rect x="29"
          y="45"
          width="64"
          height="32"
          class="terminal"
          rx="10"/>
   <text class="terminal" x="39" y="65">INDEX</text>
   <rect x="135" y="47" width="26" height="32" rx="10"/>
   <rect x="133"
          y="45"
          width="26"
          height="32"
          class="terminal"
          rx="10"/>
   <text class="terminal" x="143" y="65">(</text>
   <a xmlns:xlink="http://www.w3.org/1999/xlink"
       xlink:href="#index-name"
       xlink:title="index-name">
      <rect x="221" y="47" width="94" height="32"/>
      <rect x="219" y="45" width="94" height="32" class="nonterminal"/>
      <text class="nonterminal" x="229" y="65">index-name</text>
   </a>
   <rect x="221" y="3" width="24" height="32" rx="10"/>
   <rect x="219"
          y="1"
          width="24"
          height="32"
          class="terminal"
          rx="10"/>
   <text class="terminal" x="229" y="21">,</text>
   <a xmlns:xlink="http://www.w3.org/1999/xlink"
       xlink:href="#subquery-expr"
       xlink:title="subquery-expr">
      <rect x="201" y="91" width="112" height="32"/>
      <rect x="199" y="89" width="112" height="32" class="nonterminal"/>
      <text class="nonterminal" x="209" y="109">subquery-expr</text>
   </a>
   <rect x="375" y="47" width="26" height="32" rx="10"/>
   <rect x="373"
          y="45"
          width="26"
          height="32"
          class="terminal"
          rx="10"/>
   <text class="terminal" x="383" y="65">)</text>
   <rect x="135" y="135" width="44" height="32" rx="10"/>
   <rect x="133"
          y="133"
          width="44"
          height="32"
          class="terminal"
          rx="10"/>
   <text class="terminal" x="143" y="153">ALL</text>
   <path class="line"
          d="m17 61 h2 m0 0 h10 m64 0 h10 m20 0 h10 m26 0 h10 m40 0 h10 m94 0 h10 m-134 0 l20 0 m-1 0 q-9 0 -9 -10 l0 -24 q0 -10 10 -10 m114 44 l20 0 m-20 0 q10 0 10 -10 l0 -24 q0 -10 -10 -10 m-114 0 h10 m24 0 h10 m0 0 h70 m-154 44 h20 m154 0 h20 m-194 0 q10 0 10 10 m174 0 q0 -10 10 -10 m-184 10 v24 m174 0 v-24 m-174 24 q0 10 10 10 m154 0 q10 0 10 -10 m-164 10 h10 m112 0 h10 m0 0 h22 m20 -44 h10 m26 0 h10 m-306 0 h20 m286 0 h20 m-326 0 q10 0 10 10 m306 0 q0 -10 10 -10 m-316 10 v68 m306 0 v-68 m-306 68 q0 10 10 10 m286 0 q10 0 10 -10 m-296 10 h10 m44 0 h10 m0 0 h222 m23 -88 h-3"/>
   <polygon points="439 61 447 57 447 65"/>
   <polygon points="439 61 431 57 431 65"/>
</svg>
