<?xml version="1.0" encoding="UTF-8"?>
<svg xmlns="http://www.w3.org/2000/svg" width="527" height="169">
   <defs>
      <style type="text/css">
    @namespace "http://www.w3.org/2000/svg";
    .line                 {fill: none; stroke: #332900; stroke-width: 1;}
    .bold-line            {stroke: #141000; shape-rendering: crispEdges; stroke-width: 2;}
    .thin-line            {stroke: #1F1800; shape-rendering: crispEdges}
    .filled               {fill: #332900; stroke: none;}
    text.terminal         {font-family: Verdana, Sans-serif;
                            font-size: 12px;
                            fill: #141000;
                            font-weight: bold;
                          }
    text.nonterminal      {font-family: Verdana, Sans-serif;
                            font-size: 12px;
                            fill: #1A1400;
                            font-weight: normal;
                          }
    text.regexp           {font-family: Verdana, Sans-serif;
                            font-size: 12px;
                            fill: #1F1800;
                            font-weight: normal;
                          }
    rect, circle, polygon {fill: #332900; stroke: #332900;}
    rect.terminal         {fill: #FFDB4D; stroke: #332900; stroke-width: 1;}
    rect.nonterminal      {fill: #FFEC9E; stroke: #332900; stroke-width: 1;}
    rect.text             {fill: none; stroke: none;}
    polygon.regexp        {fill: #FFF4C7; stroke: #332900; stroke-width: 1;}
  </style>
   </defs>
   <polygon points="9 17 1 13 1 21"/>
   <polygon points="17 17 9 13 9 21"/>
   <rect x="31" y="3" width="86" height="32" rx="10"/>
   <rect x="29"
          y="1"
          width="86"
          height="32"
          class="terminal"
          rx="10"/>
   <text class="terminal" x="39" y="21">"indexes"</text>
   <rect x="137" y="3" width="24" height="32" rx="10"/>
   <rect x="135"
          y="1"
          width="24"
          height="32"
          class="terminal"
          rx="10"/>
   <text class="terminal" x="145" y="21">:</text>
   <rect x="201" y="3" width="44" height="32" rx="10"/>
   <rect x="199"
          y="1"
          width="44"
          height="32"
          class="terminal"
          rx="10"/>
   <text class="terminal" x="209" y="21">null</text>
   <rect x="201" y="47" width="26" height="32" rx="10"/>
   <rect x="199"
          y="45"
          width="26"
          height="32"
          class="terminal"
          rx="10"/>
   <text class="terminal" x="209" y="65">"</text>
   <a xmlns:xlink="http://www.w3.org/1999/xlink"
       xlink:href="#index"
       xlink:title="index">
      <rect x="247" y="47" width="54" height="32"/>
      <rect x="245" y="45" width="54" height="32" class="nonterminal"/>
      <text class="nonterminal" x="255" y="65">index</text>
   </a>
   <rect x="321" y="47" width="26" height="32" rx="10"/>
   <rect x="319"
          y="45"
          width="26"
          height="32"
          class="terminal"
          rx="10"/>
   <text class="terminal" x="329" y="65">"</text>
   <rect x="201" y="135" width="26" height="32" rx="10"/>
   <rect x="199"
          y="133"
          width="26"
          height="32"
          class="terminal"
          rx="10"/>
   <text class="terminal" x="209" y="153">[</text>
   <rect x="267" y="135" width="26" height="32" rx="10"/>
   <rect x="265"
          y="133"
          width="26"
          height="32"
          class="terminal"
          rx="10"/>
   <text class="terminal" x="275" y="153">"</text>
   <a xmlns:xlink="http://www.w3.org/1999/xlink"
       xlink:href="#index"
       xlink:title="index">
      <rect x="313" y="135" width="54" height="32"/>
      <rect x="311" y="133" width="54" height="32" class="nonterminal"/>
      <text class="nonterminal" x="321" y="153">index</text>
   </a>
   <rect x="387" y="135" width="26" height="32" rx="10"/>
   <rect x="385"
          y="133"
          width="26"
          height="32"
          class="terminal"
          rx="10"/>
   <text class="terminal" x="395" y="153">"</text>
   <rect x="267" y="91" width="24" height="32" rx="10"/>
   <rect x="265"
          y="89"
          width="24"
          height="32"
          class="terminal"
          rx="10"/>
   <text class="terminal" x="275" y="109">,</text>
   <rect x="453" y="135" width="26" height="32" rx="10"/>
   <rect x="451"
          y="133"
          width="26"
          height="32"
          class="terminal"
          rx="10"/>
   <text class="terminal" x="461" y="153">]</text>
   <path class="line"
          d="m17 17 h2 m0 0 h10 m86 0 h10 m0 0 h10 m24 0 h10 m20 0 h10 m44 0 h10 m0 0 h234 m-318 0 h20 m298 0 h20 m-338 0 q10 0 10 10 m318 0 q0 -10 10 -10 m-328 10 v24 m318 0 v-24 m-318 24 q0 10 10 10 m298 0 q10 0 10 -10 m-308 10 h10 m26 0 h10 m0 0 h10 m54 0 h10 m0 0 h10 m26 0 h10 m0 0 h132 m-308 -10 v20 m318 0 v-20 m-318 20 v68 m318 0 v-68 m-318 68 q0 10 10 10 m298 0 q10 0 10 -10 m-308 10 h10 m26 0 h10 m20 0 h10 m26 0 h10 m0 0 h10 m54 0 h10 m0 0 h10 m26 0 h10 m-186 0 l20 0 m-1 0 q-9 0 -9 -10 l0 -24 q0 -10 10 -10 m166 44 l20 0 m-20 0 q10 0 10 -10 l0 -24 q0 -10 -10 -10 m-166 0 h10 m24 0 h10 m0 0 h122 m20 44 h10 m26 0 h10 m23 -132 h-3"/>
   <polygon points="517 17 525 13 525 21"/>
   <polygon points="517 17 509 13 509 21"/>
</svg>
