<?xml version="1.0" encoding="UTF-8"?>
<svg xmlns="http://www.w3.org/2000/svg" width="615" height="113">
   <defs>
      <style type="text/css">
    @namespace "http://www.w3.org/2000/svg";
    .line                 {fill: none; stroke: #332900; stroke-width: 1;}
    .bold-line            {stroke: #141000; shape-rendering: crispEdges; stroke-width: 2;}
    .thin-line            {stroke: #1F1800; shape-rendering: crispEdges}
    .filled               {fill: #332900; stroke: none;}
    text.terminal         {font-family: Verdana, Sans-serif;
                            font-size: 12px;
                            fill: #141000;
                            font-weight: bold;
                          }
    text.nonterminal      {font-family: Verdana, Sans-serif;
                            font-size: 12px;
                            fill: #1A1400;
                            font-weight: normal;
                          }
    text.regexp           {font-family: Verdana, Sans-serif;
                            font-size: 12px;
                            fill: #1F1800;
                            font-weight: normal;
                          }
    rect, circle, polygon {fill: #332900; stroke: #332900;}
    rect.terminal         {fill: #FFDB4D; stroke: #332900; stroke-width: 1;}
    rect.nonterminal      {fill: #FFEC9E; stroke: #332900; stroke-width: 1;}
    rect.text             {fill: none; stroke: none;}
    polygon.regexp        {fill: #FFF4C7; stroke: #332900; stroke-width: 1;}
  </style>
   </defs>
   <polygon points="9 17 1 13 1 21"/>
   <polygon points="17 17 9 13 9 21"/>
   <rect x="31" y="3" width="62" height="32" rx="10"/>
   <rect x="29"
          y="1"
          width="62"
          height="32"
          class="terminal"
          rx="10"/>
   <text class="terminal" x="39" y="21">INFER</text>
   <rect x="133" y="35" width="108" height="32" rx="10"/>
   <rect x="131"
          y="33"
          width="108"
          height="32"
          class="terminal"
          rx="10"/>
   <text class="terminal" x="141" y="53">COLLECTION</text>
   <rect x="133" y="79" width="90" height="32" rx="10"/>
   <rect x="131"
          y="77"
          width="90"
          height="32"
          class="terminal"
          rx="10"/>
   <text class="terminal" x="141" y="97">KEYSPACE</text>
   <a xmlns:xlink="http://www.w3.org/1999/xlink"
       xlink:href="#keyspace-ref"
       xlink:title="keyspace-ref">
      <rect x="281" y="3" width="102" height="32"/>
      <rect x="279" y="1" width="102" height="32" class="nonterminal"/>
      <text class="nonterminal" x="289" y="21">keyspace-ref</text>
   </a>
   <rect x="423" y="35" width="58" height="32" rx="10"/>
   <rect x="421"
          y="33"
          width="58"
          height="32"
          class="terminal"
          rx="10"/>
   <text class="terminal" x="431" y="53">WITH</text>
   <a xmlns:xlink="http://www.w3.org/1999/xlink"
       xlink:href="#options"
       xlink:title="options">
      <rect x="501" y="35" width="66" height="32"/>
      <rect x="499" y="33" width="66" height="32" class="nonterminal"/>
      <text class="nonterminal" x="509" y="53">options</text>
   </a>
   <path class="line"
          d="m17 17 h2 m0 0 h10 m62 0 h10 m20 0 h10 m0 0 h118 m-148 0 h20 m128 0 h20 m-168 0 q10 0 10 10 m148 0 q0 -10 10 -10 m-158 10 v12 m148 0 v-12 m-148 12 q0 10 10 10 m128 0 q10 0 10 -10 m-138 10 h10 m108 0 h10 m-138 -10 v20 m148 0 v-20 m-148 20 v24 m148 0 v-24 m-148 24 q0 10 10 10 m128 0 q10 0 10 -10 m-138 10 h10 m90 0 h10 m0 0 h18 m20 -76 h10 m102 0 h10 m20 0 h10 m0 0 h154 m-184 0 h20 m164 0 h20 m-204 0 q10 0 10 10 m184 0 q0 -10 10 -10 m-194 10 v12 m184 0 v-12 m-184 12 q0 10 10 10 m164 0 q10 0 10 -10 m-174 10 h10 m58 0 h10 m0 0 h10 m66 0 h10 m23 -32 h-3"/>
   <polygon points="605 17 613 13 613 21"/>
   <polygon points="605 17 597 13 597 21"/>
</svg>
