<?xml version="1.0" encoding="UTF-8"?>
<svg xmlns="http://www.w3.org/2000/svg" width="691" height="155">
   <defs>
      <style type="text/css">
    @namespace "http://www.w3.org/2000/svg";
    .line                 {fill: none; stroke: #332900; stroke-width: 1;}
    .bold-line            {stroke: #141000; shape-rendering: crispEdges; stroke-width: 2;}
    .thin-line            {stroke: #1F1800; shape-rendering: crispEdges}
    .filled               {fill: #332900; stroke: none;}
    text.terminal         {font-family: Verdana, Sans-serif;
                            font-size: 12px;
                            fill: #141000;
                            font-weight: bold;
                          }
    text.nonterminal      {font-family: Verdana, Sans-serif;
                            font-size: 12px;
                            fill: #1A1400;
                            font-weight: normal;
                          }
    text.regexp           {font-family: Verdana, Sans-serif;
                            font-size: 12px;
                            fill: #1F1800;
                            font-weight: normal;
                          }
    rect, circle, polygon {fill: #332900; stroke: #332900;}
    rect.terminal         {fill: #FFDB4D; stroke: #332900; stroke-width: 1;}
    rect.nonterminal      {fill: #FFEC9E; stroke: #332900; stroke-width: 1;}
    rect.text             {fill: none; stroke: none;}
    polygon.regexp        {fill: #FFF4C7; stroke: #332900; stroke-width: 1;}
  </style>
   </defs>
   <polygon points="9 5 1 1 1 9"/>
   <polygon points="17 5 9 1 9 9"/>
   <rect x="51" y="23" width="26" height="32" rx="10"/>
   <rect x="49"
          y="21"
          width="26"
          height="32"
          class="terminal"
          rx="10"/>
   <text class="terminal" x="59" y="41">(</text>
   <rect x="117" y="55" width="84" height="32" rx="10"/>
   <rect x="115"
          y="53"
          width="84"
          height="32"
          class="terminal"
          rx="10"/>
   <text class="terminal" x="125" y="73">PRIMARY</text>
   <rect x="241" y="23" width="46" height="32" rx="10"/>
   <rect x="239"
          y="21"
          width="46"
          height="32"
          class="terminal"
          rx="10"/>
   <text class="terminal" x="249" y="41">KEY</text>
   <rect x="307" y="23" width="24" height="32" rx="10"/>
   <rect x="305"
          y="21"
          width="24"
          height="32"
          class="terminal"
          rx="10"/>
   <text class="terminal" x="315" y="41">,</text>
   <rect x="351" y="23" width="64" height="32" rx="10"/>
   <rect x="349"
          y="21"
          width="64"
          height="32"
          class="terminal"
          rx="10"/>
   <text class="terminal" x="359" y="41">VALUE</text>
   <rect x="455" y="55" width="24" height="32" rx="10"/>
   <rect x="453"
          y="53"
          width="24"
          height="32"
          class="terminal"
          rx="10"/>
   <text class="terminal" x="463" y="73">,</text>
   <rect x="499" y="55" width="84" height="32" rx="10"/>
   <rect x="497"
          y="53"
          width="84"
          height="32"
          class="terminal"
          rx="10"/>
   <text class="terminal" x="507" y="73">OPTIONS</text>
   <rect x="623" y="23" width="26" height="32" rx="10"/>
   <rect x="621"
          y="21"
          width="26"
          height="32"
          class="terminal"
          rx="10"/>
   <text class="terminal" x="631" y="41">)</text>
   <a xmlns:xlink="http://www.w3.org/1999/xlink"
       xlink:href="#values-clause"
       xlink:title="values-clause">
      <rect x="557" y="121" width="106" height="32"/>
      <rect x="555" y="119" width="106" height="32" class="nonterminal"/>
      <text class="nonterminal" x="565" y="139">values-clause</text>
   </a>
   <path class="line"
          d="m17 5 h2 m20 0 h10 m0 0 h608 m-638 0 h20 m618 0 h20 m-658 0 q10 0 10 10 m638 0 q0 -10 10 -10 m-648 10 v12 m638 0 v-12 m-638 12 q0 10 10 10 m618 0 q10 0 10 -10 m-628 10 h10 m26 0 h10 m20 0 h10 m0 0 h94 m-124 0 h20 m104 0 h20 m-144 0 q10 0 10 10 m124 0 q0 -10 10 -10 m-134 10 v12 m124 0 v-12 m-124 12 q0 10 10 10 m104 0 q10 0 10 -10 m-114 10 h10 m84 0 h10 m20 -32 h10 m46 0 h10 m0 0 h10 m24 0 h10 m0 0 h10 m64 0 h10 m20 0 h10 m0 0 h138 m-168 0 h20 m148 0 h20 m-188 0 q10 0 10 10 m168 0 q0 -10 10 -10 m-178 10 v12 m168 0 v-12 m-168 12 q0 10 10 10 m148 0 q10 0 10 -10 m-158 10 h10 m24 0 h10 m0 0 h10 m84 0 h10 m20 -32 h10 m26 0 h10 m22 -32 l2 0 m2 0 l2 0 m2 0 l2 0 m-156 130 l2 0 m2 0 l2 0 m2 0 l2 0 m2 0 h10 m106 0 h10 m3 0 h-3"/>
   <polygon points="681 135 689 131 689 139"/>
   <polygon points="681 135 673 131 673 139"/>
</svg>
