<?xml version="1.0" encoding="UTF-8"?>
<svg xmlns="http://www.w3.org/2000/svg" width="695" height="81">
   <defs>
      <style type="text/css">
    @namespace "http://www.w3.org/2000/svg";
    .line                 {fill: none; stroke: #332900; stroke-width: 1;}
    .bold-line            {stroke: #141000; shape-rendering: crispEdges; stroke-width: 2;}
    .thin-line            {stroke: #1F1800; shape-rendering: crispEdges}
    .filled               {fill: #332900; stroke: none;}
    text.terminal         {font-family: Verdana, Sans-serif;
                            font-size: 12px;
                            fill: #141000;
                            font-weight: bold;
                          }
    text.nonterminal      {font-family: Verdana, Sans-serif;
                            font-size: 12px;
                            fill: #1A1400;
                            font-weight: normal;
                          }
    text.regexp           {font-family: Verdana, Sans-serif;
                            font-size: 12px;
                            fill: #1F1800;
                            font-weight: normal;
                          }
    rect, circle, polygon {fill: #332900; stroke: #332900;}
    rect.terminal         {fill: #FFDB4D; stroke: #332900; stroke-width: 1;}
    rect.nonterminal      {fill: #FFEC9E; stroke: #332900; stroke-width: 1;}
    rect.text             {fill: none; stroke: none;}
    polygon.regexp        {fill: #FFF4C7; stroke: #332900; stroke-width: 1;}
  </style>
   </defs>
   <polygon points="9 17 1 13 1 21"/>
   <polygon points="17 17 9 13 9 21"/>
   <rect x="31" y="3" width="70" height="32" rx="10"/>
   <rect x="29"
          y="1"
          width="70"
          height="32"
          class="terminal"
          rx="10"/>
   <text class="terminal" x="39" y="21">INSERT</text>
   <rect x="121" y="3" width="56" height="32" rx="10"/>
   <rect x="119"
          y="1"
          width="56"
          height="32"
          class="terminal"
          rx="10"/>
   <text class="terminal" x="129" y="21">INTO</text>
   <a xmlns:xlink="http://www.w3.org/1999/xlink"
       xlink:href="#target-keyspace"
       xlink:title="target-keyspace">
      <rect x="197" y="3" width="124" height="32"/>
      <rect x="195" y="1" width="124" height="32" class="nonterminal"/>
      <text class="nonterminal" x="205" y="21">target-keyspace</text>
   </a>
   <a xmlns:xlink="http://www.w3.org/1999/xlink"
       xlink:href="#insert-values"
       xlink:title="insert-values">
      <rect x="361" y="3" width="102" height="32"/>
      <rect x="359" y="1" width="102" height="32" class="nonterminal"/>
      <text class="nonterminal" x="369" y="21">insert-values</text>
   </a>
   <a xmlns:xlink="http://www.w3.org/1999/xlink"
       xlink:href="#insert-select"
       xlink:title="insert-select">
      <rect x="361" y="47" width="98" height="32"/>
      <rect x="359" y="45" width="98" height="32" class="nonterminal"/>
      <text class="nonterminal" x="369" y="65">insert-select</text>
   </a>
   <a xmlns:xlink="http://www.w3.org/1999/xlink"
       xlink:href="#returning-clause"
       xlink:title="returning-clause">
      <rect x="523" y="35" width="124" height="32"/>
      <rect x="521" y="33" width="124" height="32" class="nonterminal"/>
      <text class="nonterminal" x="531" y="53">returning-clause</text>
   </a>
   <path class="line"
          d="m17 17 h2 m0 0 h10 m70 0 h10 m0 0 h10 m56 0 h10 m0 0 h10 m124 0 h10 m20 0 h10 m102 0 h10 m-142 0 h20 m122 0 h20 m-162 0 q10 0 10 10 m142 0 q0 -10 10 -10 m-152 10 v24 m142 0 v-24 m-142 24 q0 10 10 10 m122 0 q10 0 10 -10 m-132 10 h10 m98 0 h10 m0 0 h4 m40 -44 h10 m0 0 h134 m-164 0 h20 m144 0 h20 m-184 0 q10 0 10 10 m164 0 q0 -10 10 -10 m-174 10 v12 m164 0 v-12 m-164 12 q0 10 10 10 m144 0 q10 0 10 -10 m-154 10 h10 m124 0 h10 m23 -32 h-3"/>
   <polygon points="685 17 693 13 693 21"/>
   <polygon points="685 17 677 13 677 21"/>
</svg>
