<?xml version="1.0" encoding="UTF-8"?>
<svg xmlns="http://www.w3.org/2000/svg" width="593" height="167">
   <defs>
      <style type="text/css">
    @namespace "http://www.w3.org/2000/svg";
    .line                 {fill: none; stroke: #332900; stroke-width: 1;}
    .bold-line            {stroke: #141000; shape-rendering: crispEdges; stroke-width: 2;}
    .thin-line            {stroke: #1F1800; shape-rendering: crispEdges}
    .filled               {fill: #332900; stroke: none;}
    text.terminal         {font-family: Verdana, Sans-serif;
                            font-size: 12px;
                            fill: #141000;
                            font-weight: bold;
                          }
    text.nonterminal      {font-family: Verdana, Sans-serif;
                            font-size: 12px;
                            fill: #1A1400;
                            font-weight: normal;
                          }
    text.regexp           {font-family: Verdana, Sans-serif;
                            font-size: 12px;
                            fill: #1F1800;
                            font-weight: normal;
                          }
    rect, circle, polygon {fill: #332900; stroke: #332900;}
    rect.terminal         {fill: #FFDB4D; stroke: #332900; stroke-width: 1;}
    rect.nonterminal      {fill: #FFEC9E; stroke: #332900; stroke-width: 1;}
    rect.text             {fill: none; stroke: none;}
    polygon.regexp        {fill: #FFF4C7; stroke: #332900; stroke-width: 1;}
  </style>
   </defs>
   <polygon points="9 17 1 13 1 21"/>
   <polygon points="17 17 9 13 9 21"/>
   <rect x="31" y="3" width="26" height="32" rx="10"/>
   <rect x="29"
          y="1"
          width="26"
          height="32"
          class="terminal"
          rx="10"/>
   <text class="terminal" x="39" y="21">(</text>
   <rect x="97" y="35" width="84" height="32" rx="10"/>
   <rect x="95"
          y="33"
          width="84"
          height="32"
          class="terminal"
          rx="10"/>
   <text class="terminal" x="105" y="53">PRIMARY</text>
   <rect x="221" y="3" width="46" height="32" rx="10"/>
   <rect x="219"
          y="1"
          width="46"
          height="32"
          class="terminal"
          rx="10"/>
   <text class="terminal" x="229" y="21">KEY</text>
   <a xmlns:xlink="http://www.w3.org/1999/xlink"
       xlink:href="#key"
       xlink:title="key">
      <rect x="287" y="3" width="42" height="32"/>
      <rect x="285" y="1" width="42" height="32" class="nonterminal"/>
      <text class="nonterminal" x="295" y="21">key</text>
   </a>
   <rect x="369" y="35" width="24" height="32" rx="10"/>
   <rect x="367"
          y="33"
          width="24"
          height="32"
          class="terminal"
          rx="10"/>
   <text class="terminal" x="377" y="53">,</text>
   <rect x="413" y="35" width="64" height="32" rx="10"/>
   <rect x="411"
          y="33"
          width="64"
          height="32"
          class="terminal"
          rx="10"/>
   <text class="terminal" x="421" y="53">VALUE</text>
   <a xmlns:xlink="http://www.w3.org/1999/xlink"
       xlink:href="#value"
       xlink:title="value">
      <rect x="497" y="35" width="54" height="32"/>
      <rect x="495" y="33" width="54" height="32" class="nonterminal"/>
      <text class="nonterminal" x="505" y="53">value</text>
   </a>
   <rect x="207" y="133" width="24" height="32" rx="10"/>
   <rect x="205"
          y="131"
          width="24"
          height="32"
          class="terminal"
          rx="10"/>
   <text class="terminal" x="215" y="151">,</text>
   <rect x="251" y="133" width="84" height="32" rx="10"/>
   <rect x="249"
          y="131"
          width="84"
          height="32"
          class="terminal"
          rx="10"/>
   <text class="terminal" x="259" y="151">OPTIONS</text>
   <a xmlns:xlink="http://www.w3.org/1999/xlink"
       xlink:href="#options"
       xlink:title="options">
      <rect x="355" y="133" width="66" height="32"/>
      <rect x="353" y="131" width="66" height="32" class="nonterminal"/>
      <text class="nonterminal" x="363" y="151">options</text>
   </a>
   <rect x="461" y="101" width="26" height="32" rx="10"/>
   <rect x="459"
          y="99"
          width="26"
          height="32"
          class="terminal"
          rx="10"/>
   <text class="terminal" x="469" y="119">)</text>
   <a xmlns:xlink="http://www.w3.org/1999/xlink"
       xlink:href="#select"
       xlink:title="select">
      <rect x="507" y="101" width="58" height="32"/>
      <rect x="505" y="99" width="58" height="32" class="nonterminal"/>
      <text class="nonterminal" x="515" y="119">select</text>
   </a>
   <path class="line"
          d="m17 17 h2 m0 0 h10 m26 0 h10 m20 0 h10 m0 0 h94 m-124 0 h20 m104 0 h20 m-144 0 q10 0 10 10 m124 0 q0 -10 10 -10 m-134 10 v12 m124 0 v-12 m-124 12 q0 10 10 10 m104 0 q10 0 10 -10 m-114 10 h10 m84 0 h10 m20 -32 h10 m46 0 h10 m0 0 h10 m42 0 h10 m20 0 h10 m0 0 h192 m-222 0 h20 m202 0 h20 m-242 0 q10 0 10 10 m222 0 q0 -10 10 -10 m-232 10 v12 m222 0 v-12 m-222 12 q0 10 10 10 m202 0 q10 0 10 -10 m-212 10 h10 m24 0 h10 m0 0 h10 m64 0 h10 m0 0 h10 m54 0 h10 m22 -32 l2 0 m2 0 l2 0 m2 0 l2 0 m-428 98 l2 0 m2 0 l2 0 m2 0 l2 0 m22 0 h10 m0 0 h224 m-254 0 h20 m234 0 h20 m-274 0 q10 0 10 10 m254 0 q0 -10 10 -10 m-264 10 v12 m254 0 v-12 m-254 12 q0 10 10 10 m234 0 q10 0 10 -10 m-244 10 h10 m24 0 h10 m0 0 h10 m84 0 h10 m0 0 h10 m66 0 h10 m20 -32 h10 m26 0 h10 m0 0 h10 m58 0 h10 m3 0 h-3"/>
   <polygon points="583 115 591 111 591 119"/>
   <polygon points="583 115 575 111 575 119"/>
</svg>
