<?xml version="1.0" encoding="UTF-8"?>
<svg xmlns="http://www.w3.org/2000/svg" width="283" height="103">
   <defs>
      <style type="text/css">
    @namespace "http://www.w3.org/2000/svg";
    .line                 {fill: none; stroke: #332900; stroke-width: 1;}
    .bold-line            {stroke: #141000; shape-rendering: crispEdges; stroke-width: 2;}
    .thin-line            {stroke: #1F1800; shape-rendering: crispEdges}
    .filled               {fill: #332900; stroke: none;}
    text.terminal         {font-family: Verdana, Sans-serif;
                            font-size: 12px;
                            fill: #141000;
                            font-weight: bold;
                          }
    text.nonterminal      {font-family: Verdana, Sans-serif;
                            font-size: 12px;
                            fill: #1A1400;
                            font-weight: normal;
                          }
    text.regexp           {font-family: Verdana, Sans-serif;
                            font-size: 12px;
                            fill: #1F1800;
                            font-weight: normal;
                          }
    rect, circle, polygon {fill: #332900; stroke: #332900;}
    rect.terminal         {fill: #FFDB4D; stroke: #332900; stroke-width: 1;}
    rect.nonterminal      {fill: #FFEC9E; stroke: #332900; stroke-width: 1;}
    rect.text             {fill: none; stroke: none;}
    polygon.regexp        {fill: #FFF4C7; stroke: #332900; stroke-width: 1;}
  </style>
   </defs>
   <polygon points="9 17 1 13 1 21"/>
   <polygon points="17 17 9 13 9 21"/>
   <polygon points="51 19 58 3 106 3 113 19 106 35 58 35"/>
   <polygon points="49 17 56 1 104 1 111 17 104 33 56 33" class="regexp"/>
   <text class="regexp" x="64" y="21">[0-9]</text>
   <polygon points="51 85 58 69 106 69 113 85 106 101 58 101"/>
   <polygon points="49 83 56 67 104 67 111 83 104 99 56 99" class="regexp"/>
   <text class="regexp" x="64" y="87">[1-9]</text>
   <polygon points="153 85 160 69 208 69 215 85 208 101 160 101"/>
   <polygon points="151 83 158 67 206 67 213 83 206 99 158 99" class="regexp"/>
   <text class="regexp" x="166" y="87">[0-9]</text>
   <path class="line"
          d="m17 17 h2 m20 0 h10 m62 0 h10 m0 0 h122 m-224 0 h20 m204 0 h20 m-244 0 q10 0 10 10 m224 0 q0 -10 10 -10 m-234 10 v46 m224 0 v-46 m-224 46 q0 10 10 10 m204 0 q10 0 10 -10 m-214 10 h10 m62 0 h10 m20 0 h10 m62 0 h10 m-102 0 l20 0 m-1 0 q-9 0 -9 -10 l0 -12 q0 -10 10 -10 m82 32 l20 0 m-20 0 q10 0 10 -10 l0 -12 q0 -10 -10 -10 m-82 0 h10 m0 0 h72 m43 -34 h-3"/>
   <polygon points="273 17 281 13 281 21"/>
   <polygon points="273 17 265 13 265 21"/>
</svg>
