<?xml version="1.0" encoding="UTF-8"?>
<svg xmlns="http://www.w3.org/2000/svg" width="413" height="221">
   <defs>
      <style type="text/css">
    @namespace "http://www.w3.org/2000/svg";
    .line                 {fill: none; stroke: #332900; stroke-width: 1;}
    .bold-line            {stroke: #141000; shape-rendering: crispEdges; stroke-width: 2;}
    .thin-line            {stroke: #1F1800; shape-rendering: crispEdges}
    .filled               {fill: #332900; stroke: none;}
    text.terminal         {font-family: Verdana, Sans-serif;
                            font-size: 12px;
                            fill: #141000;
                            font-weight: bold;
                          }
    text.nonterminal      {font-family: Verdana, Sans-serif;
                            font-size: 12px;
                            fill: #1A1400;
                            font-weight: normal;
                          }
    text.regexp           {font-family: Verdana, Sans-serif;
                            font-size: 12px;
                            fill: #1F1800;
                            font-weight: normal;
                          }
    rect, circle, polygon {fill: #332900; stroke: #332900;}
    rect.terminal         {fill: #FFDB4D; stroke: #332900; stroke-width: 1;}
    rect.nonterminal      {fill: #FFEC9E; stroke: #332900; stroke-width: 1;}
    rect.text             {fill: none; stroke: none;}
    polygon.regexp        {fill: #FFF4C7; stroke: #332900; stroke-width: 1;}
  </style>
   </defs>
   <polygon points="9 17 1 13 1 21"/>
   <polygon points="17 17 9 13 9 21"/>
   <a xmlns:xlink="http://www.w3.org/1999/xlink"
       xlink:href="#expr"
       xlink:title="expr">
      <rect x="51" y="3" width="48" height="32"/>
      <rect x="49" y="1" width="48" height="32" class="nonterminal"/>
      <text class="nonterminal" x="59" y="21">expr</text>
   </a>
   <rect x="119" y="3" width="36" height="32" rx="10"/>
   <rect x="117"
          y="1"
          width="36"
          height="32"
          class="terminal"
          rx="10"/>
   <text class="terminal" x="127" y="21">IS</text>
   <rect x="195" y="35" width="48" height="32" rx="10"/>
   <rect x="193"
          y="33"
          width="48"
          height="32"
          class="terminal"
          rx="10"/>
   <text class="terminal" x="203" y="53">NOT</text>
   <rect x="283" y="3" width="56" height="32" rx="10"/>
   <rect x="281"
          y="1"
          width="56"
          height="32"
          class="terminal"
          rx="10"/>
   <text class="terminal" x="291" y="21">NULL</text>
   <a xmlns:xlink="http://www.w3.org/1999/xlink"
       xlink:href="#expr"
       xlink:title="expr">
      <rect x="51" y="79" width="48" height="32"/>
      <rect x="49" y="77" width="48" height="32" class="nonterminal"/>
      <text class="nonterminal" x="59" y="97">expr</text>
   </a>
   <rect x="119" y="79" width="36" height="32" rx="10"/>
   <rect x="117"
          y="77"
          width="36"
          height="32"
          class="terminal"
          rx="10"/>
   <text class="terminal" x="127" y="97">IS</text>
   <rect x="195" y="111" width="48" height="32" rx="10"/>
   <rect x="193"
          y="109"
          width="48"
          height="32"
          class="terminal"
          rx="10"/>
   <text class="terminal" x="203" y="129">NOT</text>
   <rect x="283" y="79" width="82" height="32" rx="10"/>
   <rect x="281"
          y="77"
          width="82"
          height="32"
          class="terminal"
          rx="10"/>
   <text class="terminal" x="291" y="97">MISSING</text>
   <a xmlns:xlink="http://www.w3.org/1999/xlink"
       xlink:href="#expr"
       xlink:title="expr">
      <rect x="51" y="155" width="48" height="32"/>
      <rect x="49" y="153" width="48" height="32" class="nonterminal"/>
      <text class="nonterminal" x="59" y="173">expr</text>
   </a>
   <rect x="119" y="155" width="36" height="32" rx="10"/>
   <rect x="117"
          y="153"
          width="36"
          height="32"
          class="terminal"
          rx="10"/>
   <text class="terminal" x="127" y="173">IS</text>
   <rect x="195" y="187" width="48" height="32" rx="10"/>
   <rect x="193"
          y="185"
          width="48"
          height="32"
          class="terminal"
          rx="10"/>
   <text class="terminal" x="203" y="205">NOT</text>
   <rect x="283" y="155" width="74" height="32" rx="10"/>
   <rect x="281"
          y="153"
          width="74"
          height="32"
          class="terminal"
          rx="10"/>
   <text class="terminal" x="291" y="173">VALUED</text>
   <path class="line"
          d="m17 17 h2 m20 0 h10 m48 0 h10 m0 0 h10 m36 0 h10 m20 0 h10 m0 0 h58 m-88 0 h20 m68 0 h20 m-108 0 q10 0 10 10 m88 0 q0 -10 10 -10 m-98 10 v12 m88 0 v-12 m-88 12 q0 10 10 10 m68 0 q10 0 10 -10 m-78 10 h10 m48 0 h10 m20 -32 h10 m56 0 h10 m0 0 h26 m-354 0 h20 m334 0 h20 m-374 0 q10 0 10 10 m354 0 q0 -10 10 -10 m-364 10 v56 m354 0 v-56 m-354 56 q0 10 10 10 m334 0 q10 0 10 -10 m-344 10 h10 m48 0 h10 m0 0 h10 m36 0 h10 m20 0 h10 m0 0 h58 m-88 0 h20 m68 0 h20 m-108 0 q10 0 10 10 m88 0 q0 -10 10 -10 m-98 10 v12 m88 0 v-12 m-88 12 q0 10 10 10 m68 0 q10 0 10 -10 m-78 10 h10 m48 0 h10 m20 -32 h10 m82 0 h10 m-344 -10 v20 m354 0 v-20 m-354 20 v56 m354 0 v-56 m-354 56 q0 10 10 10 m334 0 q10 0 10 -10 m-344 10 h10 m48 0 h10 m0 0 h10 m36 0 h10 m20 0 h10 m0 0 h58 m-88 0 h20 m68 0 h20 m-108 0 q10 0 10 10 m88 0 q0 -10 10 -10 m-98 10 v12 m88 0 v-12 m-88 12 q0 10 10 10 m68 0 q10 0 10 -10 m-78 10 h10 m48 0 h10 m20 -32 h10 m74 0 h10 m0 0 h8 m23 -152 h-3"/>
   <polygon points="403 17 411 13 411 21"/>
   <polygon points="403 17 395 13 395 21"/>
</svg>
