<?xml version="1.0" encoding="UTF-8"?>
<svg xmlns="http://www.w3.org/2000/svg" width="235" height="125">
   <defs>
      <style type="text/css">
    @namespace "http://www.w3.org/2000/svg";
    .line                 {fill: none; stroke: #332900; stroke-width: 1;}
    .bold-line            {stroke: #141000; shape-rendering: crispEdges; stroke-width: 2;}
    .thin-line            {stroke: #1F1800; shape-rendering: crispEdges}
    .filled               {fill: #332900; stroke: none;}
    text.terminal         {font-family: Verdana, Sans-serif;
                            font-size: 12px;
                            fill: #141000;
                            font-weight: bold;
                          }
    text.nonterminal      {font-family: Verdana, Sans-serif;
                            font-size: 12px;
                            fill: #1A1400;
                            font-weight: normal;
                          }
    text.regexp           {font-family: Verdana, Sans-serif;
                            font-size: 12px;
                            fill: #1F1800;
                            font-weight: normal;
                          }
    rect, circle, polygon {fill: #332900; stroke: #332900;}
    rect.terminal         {fill: #FFDB4D; stroke: #332900; stroke-width: 1;}
    rect.nonterminal      {fill: #FFEC9E; stroke: #332900; stroke-width: 1;}
    rect.text             {fill: none; stroke: none;}
    polygon.regexp        {fill: #FFF4C7; stroke: #332900; stroke-width: 1;}
  </style>
   </defs>
   <polygon points="9 17 1 13 1 21"/>
   <polygon points="17 17 9 13 9 21"/>
   <a xmlns:xlink="http://www.w3.org/1999/xlink"
       xlink:href="#ansi-join-clause"
       xlink:title="ansi-join-clause">
      <rect x="51" y="3" width="120" height="32"/>
      <rect x="49" y="1" width="120" height="32" class="nonterminal"/>
      <text class="nonterminal" x="59" y="21">ansi-join-clause</text>
   </a>
   <a xmlns:xlink="http://www.w3.org/1999/xlink"
       xlink:href="#lookup-join-clause"
       xlink:title="lookup-join-clause">
      <rect x="51" y="47" width="136" height="32"/>
      <rect x="49" y="45" width="136" height="32" class="nonterminal"/>
      <text class="nonterminal" x="59" y="65">lookup-join-clause</text>
   </a>
   <a xmlns:xlink="http://www.w3.org/1999/xlink"
       xlink:href="#index-join-clause"
       xlink:title="index-join-clause">
      <rect x="51" y="91" width="128" height="32"/>
      <rect x="49" y="89" width="128" height="32" class="nonterminal"/>
      <text class="nonterminal" x="59" y="109">index-join-clause</text>
   </a>
   <path class="line"
          d="m17 17 h2 m20 0 h10 m120 0 h10 m0 0 h16 m-176 0 h20 m156 0 h20 m-196 0 q10 0 10 10 m176 0 q0 -10 10 -10 m-186 10 v24 m176 0 v-24 m-176 24 q0 10 10 10 m156 0 q10 0 10 -10 m-166 10 h10 m136 0 h10 m-166 -10 v20 m176 0 v-20 m-176 20 v24 m176 0 v-24 m-176 24 q0 10 10 10 m156 0 q10 0 10 -10 m-166 10 h10 m128 0 h10 m0 0 h8 m23 -88 h-3"/>
   <polygon points="225 17 233 13 233 21"/>
   <polygon points="225 17 217 13 217 21"/>
</svg>
