<?xml version="1.0" encoding="UTF-8"?>
<svg xmlns="http://www.w3.org/2000/svg" width="231" height="213">
   <defs>
      <style type="text/css">
    @namespace "http://www.w3.org/2000/svg";
    .line                 {fill: none; stroke: #332900; stroke-width: 1;}
    .bold-line            {stroke: #141000; shape-rendering: crispEdges; stroke-width: 2;}
    .thin-line            {stroke: #1F1800; shape-rendering: crispEdges}
    .filled               {fill: #332900; stroke: none;}
    text.terminal         {font-family: Verdana, Sans-serif;
                            font-size: 12px;
                            fill: #141000;
                            font-weight: bold;
                          }
    text.nonterminal      {font-family: Verdana, Sans-serif;
                            font-size: 12px;
                            fill: #1A1400;
                            font-weight: normal;
                          }
    text.regexp           {font-family: Verdana, Sans-serif;
                            font-size: 12px;
                            fill: #1F1800;
                            font-weight: normal;
                          }
    rect, circle, polygon {fill: #332900; stroke: #332900;}
    rect.terminal         {fill: #FFDB4D; stroke: #332900; stroke-width: 1;}
    rect.nonterminal      {fill: #FFEC9E; stroke: #332900; stroke-width: 1;}
    rect.text             {fill: none; stroke: none;}
    polygon.regexp        {fill: #FFF4C7; stroke: #332900; stroke-width: 1;}
  </style>
   </defs>
   <polygon points="9 17 1 13 1 21"/>
   <polygon points="17 17 9 13 9 21"/>
   <a xmlns:xlink="http://www.w3.org/1999/xlink"
       xlink:href="#ordered-hint-json"
       xlink:title="ordered-hint-json">
      <rect x="51" y="3" width="132" height="32"/>
      <rect x="49" y="1" width="132" height="32" class="nonterminal"/>
      <text class="nonterminal" x="59" y="21">ordered-hint-json</text>
   </a>
   <a xmlns:xlink="http://www.w3.org/1999/xlink"
       xlink:href="#gsi-hint-json"
       xlink:title="gsi-hint-json">
      <rect x="51" y="47" width="100" height="32"/>
      <rect x="49" y="45" width="100" height="32" class="nonterminal"/>
      <text class="nonterminal" x="59" y="65">gsi-hint-json</text>
   </a>
   <a xmlns:xlink="http://www.w3.org/1999/xlink"
       xlink:href="#fts-hint-json"
       xlink:title="fts-hint-json">
      <rect x="51" y="91" width="98" height="32"/>
      <rect x="49" y="89" width="98" height="32" class="nonterminal"/>
      <text class="nonterminal" x="59" y="109">fts-hint-json</text>
   </a>
   <a xmlns:xlink="http://www.w3.org/1999/xlink"
       xlink:href="#hash-hint-json"
       xlink:title="hash-hint-json">
      <rect x="51" y="135" width="112" height="32"/>
      <rect x="49" y="133" width="112" height="32" class="nonterminal"/>
      <text class="nonterminal" x="59" y="153">hash-hint-json</text>
   </a>
   <a xmlns:xlink="http://www.w3.org/1999/xlink"
       xlink:href="#nl-hint-json"
       xlink:title="nl-hint-json">
      <rect x="51" y="179" width="94" height="32"/>
      <rect x="49" y="177" width="94" height="32" class="nonterminal"/>
      <text class="nonterminal" x="59" y="197">nl-hint-json</text>
   </a>
   <path class="line"
          d="m17 17 h2 m20 0 h10 m132 0 h10 m-172 0 h20 m152 0 h20 m-192 0 q10 0 10 10 m172 0 q0 -10 10 -10 m-182 10 v24 m172 0 v-24 m-172 24 q0 10 10 10 m152 0 q10 0 10 -10 m-162 10 h10 m100 0 h10 m0 0 h32 m-162 -10 v20 m172 0 v-20 m-172 20 v24 m172 0 v-24 m-172 24 q0 10 10 10 m152 0 q10 0 10 -10 m-162 10 h10 m98 0 h10 m0 0 h34 m-162 -10 v20 m172 0 v-20 m-172 20 v24 m172 0 v-24 m-172 24 q0 10 10 10 m152 0 q10 0 10 -10 m-162 10 h10 m112 0 h10 m0 0 h20 m-162 -10 v20 m172 0 v-20 m-172 20 v24 m172 0 v-24 m-172 24 q0 10 10 10 m152 0 q10 0 10 -10 m-162 10 h10 m94 0 h10 m0 0 h38 m23 -176 h-3"/>
   <polygon points="221 17 229 13 229 21"/>
   <polygon points="221 17 213 13 213 21"/>
</svg>
