<?xml version="1.0" encoding="UTF-8"?>
<svg xmlns="http://www.w3.org/2000/svg" width="371" height="145">
   <defs>
      <style type="text/css">
    @namespace "http://www.w3.org/2000/svg";
    .line                 {fill: none; stroke: #332900; stroke-width: 1;}
    .bold-line            {stroke: #141000; shape-rendering: crispEdges; stroke-width: 2;}
    .thin-line            {stroke: #1F1800; shape-rendering: crispEdges}
    .filled               {fill: #332900; stroke: none;}
    text.terminal         {font-family: Verdana, Sans-serif;
                            font-size: 12px;
                            fill: #141000;
                            font-weight: bold;
                          }
    text.nonterminal      {font-family: Verdana, Sans-serif;
                            font-size: 12px;
                            fill: #1A1400;
                            font-weight: normal;
                          }
    text.regexp           {font-family: Verdana, Sans-serif;
                            font-size: 12px;
                            fill: #1F1800;
                            font-weight: normal;
                          }
    rect, circle, polygon {fill: #332900; stroke: #332900;}
    rect.terminal         {fill: #FFDB4D; stroke: #332900; stroke-width: 1;}
    rect.nonterminal      {fill: #FFEC9E; stroke: #332900; stroke-width: 1;}
    rect.text             {fill: none; stroke: none;}
    polygon.regexp        {fill: #FFF4C7; stroke: #332900; stroke-width: 1;}
  </style>
   </defs>
   <polygon points="9 17 1 13 1 21"/>
   <polygon points="17 17 9 13 9 21"/>
   <a xmlns:xlink="http://www.w3.org/1999/xlink"
       xlink:href="#index-order"
       xlink:title="index-order">
      <rect x="51" y="3" width="94" height="32"/>
      <rect x="49" y="1" width="94" height="32" class="nonterminal"/>
      <text class="nonterminal" x="59" y="21">index-order</text>
   </a>
   <a xmlns:xlink="http://www.w3.org/1999/xlink"
       xlink:href="#include-missing"
       xlink:title="include-missing">
      <rect x="185" y="35" width="118" height="32"/>
      <rect x="183" y="33" width="118" height="32" class="nonterminal"/>
      <text class="nonterminal" x="193" y="53">include-missing</text>
   </a>
   <a xmlns:xlink="http://www.w3.org/1999/xlink"
       xlink:href="#include-missing"
       xlink:title="include-missing">
      <rect x="51" y="79" width="118" height="32"/>
      <rect x="49" y="77" width="118" height="32" class="nonterminal"/>
      <text class="nonterminal" x="59" y="97">include-missing</text>
   </a>
   <a xmlns:xlink="http://www.w3.org/1999/xlink"
       xlink:href="#index-order"
       xlink:title="index-order">
      <rect x="209" y="111" width="94" height="32"/>
      <rect x="207" y="109" width="94" height="32" class="nonterminal"/>
      <text class="nonterminal" x="217" y="129">index-order</text>
   </a>
   <path class="line"
          d="m17 17 h2 m20 0 h10 m94 0 h10 m20 0 h10 m0 0 h128 m-158 0 h20 m138 0 h20 m-178 0 q10 0 10 10 m158 0 q0 -10 10 -10 m-168 10 v12 m158 0 v-12 m-158 12 q0 10 10 10 m138 0 q10 0 10 -10 m-148 10 h10 m118 0 h10 m-292 -32 h20 m292 0 h20 m-332 0 q10 0 10 10 m312 0 q0 -10 10 -10 m-322 10 v56 m312 0 v-56 m-312 56 q0 10 10 10 m292 0 q10 0 10 -10 m-302 10 h10 m118 0 h10 m20 0 h10 m0 0 h104 m-134 0 h20 m114 0 h20 m-154 0 q10 0 10 10 m134 0 q0 -10 10 -10 m-144 10 v12 m134 0 v-12 m-134 12 q0 10 10 10 m114 0 q10 0 10 -10 m-124 10 h10 m94 0 h10 m43 -108 h-3"/>
   <polygon points="361 17 369 13 369 21"/>
   <polygon points="361 17 353 13 353 21"/>
</svg>
