<?xml version="1.0" encoding="UTF-8"?>
<svg xmlns="http://www.w3.org/2000/svg" width="195" height="69">
   <defs>
      <style type="text/css">
    @namespace "http://www.w3.org/2000/svg";
    .line                 {fill: none; stroke: #332900; stroke-width: 1;}
    .bold-line            {stroke: #141000; shape-rendering: crispEdges; stroke-width: 2;}
    .thin-line            {stroke: #1F1800; shape-rendering: crispEdges}
    .filled               {fill: #332900; stroke: none;}
    text.terminal         {font-family: Verdana, Sans-serif;
                            font-size: 12px;
                            fill: #141000;
                            font-weight: bold;
                          }
    text.nonterminal      {font-family: Verdana, Sans-serif;
                            font-size: 12px;
                            fill: #1A1400;
                            font-weight: normal;
                          }
    text.regexp           {font-family: Verdana, Sans-serif;
                            font-size: 12px;
                            fill: #1F1800;
                            font-weight: normal;
                          }
    rect, circle, polygon {fill: #332900; stroke: #332900;}
    rect.terminal         {fill: #FFDB4D; stroke: #332900; stroke-width: 1;}
    rect.nonterminal      {fill: #FFEC9E; stroke: #332900; stroke-width: 1;}
    rect.text             {fill: none; stroke: none;}
    polygon.regexp        {fill: #FFF4C7; stroke: #332900; stroke-width: 1;}
  </style>
   </defs>
   <polygon points="9 17 1 13 1 21"/>
   <polygon points="17 17 9 13 9 21"/>
   <rect x="31" y="3" width="32" height="32" rx="10"/>
   <rect x="29"
          y="1"
          width="32"
          height="32"
          class="terminal"
          rx="10"/>
   <text class="terminal" x="39" y="21">--</text>
   <a xmlns:xlink="http://www.w3.org/1999/xlink"
       xlink:href="#text"
       xlink:title="text">
      <rect x="103" y="35" width="44" height="32"/>
      <rect x="101" y="33" width="44" height="32" class="nonterminal"/>
      <text class="nonterminal" x="111" y="53">text</text>
   </a>
   <path class="line"
          d="m17 17 h2 m0 0 h10 m32 0 h10 m20 0 h10 m0 0 h54 m-84 0 h20 m64 0 h20 m-104 0 q10 0 10 10 m84 0 q0 -10 10 -10 m-94 10 v12 m84 0 v-12 m-84 12 q0 10 10 10 m64 0 q10 0 10 -10 m-74 10 h10 m44 0 h10 m23 -32 h-3"/>
   <polygon points="185 17 193 13 193 21"/>
   <polygon points="185 17 177 13 177 21"/>
</svg>
