<?xml version="1.0" encoding="UTF-8"?>
<svg xmlns="http://www.w3.org/2000/svg" width="623" height="69">
   <defs>
      <style type="text/css">
    @namespace "http://www.w3.org/2000/svg";
    .line                 {fill: none; stroke: #332900; stroke-width: 1;}
    .bold-line            {stroke: #141000; shape-rendering: crispEdges; stroke-width: 2;}
    .thin-line            {stroke: #1F1800; shape-rendering: crispEdges}
    .filled               {fill: #332900; stroke: none;}
    text.terminal         {font-family: Verdana, Sans-serif;
                            font-size: 12px;
                            fill: #141000;
                            font-weight: bold;
                          }
    text.nonterminal      {font-family: Verdana, Sans-serif;
                            font-size: 12px;
                            fill: #1A1400;
                            font-weight: normal;
                          }
    text.regexp           {font-family: Verdana, Sans-serif;
                            font-size: 12px;
                            fill: #1F1800;
                            font-weight: normal;
                          }
    rect, circle, polygon {fill: #332900; stroke: #332900;}
    rect.terminal         {fill: #FFDB4D; stroke: #332900; stroke-width: 1;}
    rect.nonterminal      {fill: #FFEC9E; stroke: #332900; stroke-width: 1;}
    rect.text             {fill: none; stroke: none;}
    polygon.regexp        {fill: #FFF4C7; stroke: #332900; stroke-width: 1;}
  </style>
   </defs>
   <polygon points="9 17 1 13 1 21"/>
   <polygon points="17 17 9 13 9 21"/>
   <a xmlns:xlink="http://www.w3.org/1999/xlink"
       xlink:href="#lookup-nest-type"
       xlink:title="lookup-nest-type">
      <rect x="51" y="35" width="128" height="32"/>
      <rect x="49" y="33" width="128" height="32" class="nonterminal"/>
      <text class="nonterminal" x="59" y="53">lookup-nest-type</text>
   </a>
   <rect x="219" y="3" width="56" height="32" rx="10"/>
   <rect x="217"
          y="1"
          width="56"
          height="32"
          class="terminal"
          rx="10"/>
   <text class="terminal" x="227" y="21">NEST</text>
   <a xmlns:xlink="http://www.w3.org/1999/xlink"
       xlink:href="#lookup-nest-rhs"
       xlink:title="lookup-nest-rhs">
      <rect x="295" y="3" width="120" height="32"/>
      <rect x="293" y="1" width="120" height="32" class="nonterminal"/>
      <text class="nonterminal" x="303" y="21">lookup-nest-rhs</text>
   </a>
   <a xmlns:xlink="http://www.w3.org/1999/xlink"
       xlink:href="#lookup-nest-predicate"
       xlink:title="lookup-nest-predicate">
      <rect x="435" y="3" width="160" height="32"/>
      <rect x="433" y="1" width="160" height="32" class="nonterminal"/>
      <text class="nonterminal" x="443" y="21">lookup-nest-predicate</text>
   </a>
   <path class="line"
          d="m17 17 h2 m20 0 h10 m0 0 h138 m-168 0 h20 m148 0 h20 m-188 0 q10 0 10 10 m168 0 q0 -10 10 -10 m-178 10 v12 m168 0 v-12 m-168 12 q0 10 10 10 m148 0 q10 0 10 -10 m-158 10 h10 m128 0 h10 m20 -32 h10 m56 0 h10 m0 0 h10 m120 0 h10 m0 0 h10 m160 0 h10 m3 0 h-3"/>
   <polygon points="613 17 621 13 621 21"/>
   <polygon points="613 17 605 13 605 21"/>
</svg>
