<?xml version="1.0" encoding="UTF-8"?>
<svg xmlns="http://www.w3.org/2000/svg" width="631" height="103">
   <defs>
      <style type="text/css">
    @namespace "http://www.w3.org/2000/svg";
    .line                 {fill: none; stroke: #332900; stroke-width: 1;}
    .bold-line            {stroke: #141000; shape-rendering: crispEdges; stroke-width: 2;}
    .thin-line            {stroke: #1F1800; shape-rendering: crispEdges}
    .filled               {fill: #332900; stroke: none;}
    text.terminal         {font-family: Verdana, Sans-serif;
                            font-size: 12px;
                            fill: #141000;
                            font-weight: bold;
                          }
    text.nonterminal      {font-family: Verdana, Sans-serif;
                            font-size: 12px;
                            fill: #1A1400;
                            font-weight: normal;
                          }
    text.regexp           {font-family: Verdana, Sans-serif;
                            font-size: 12px;
                            fill: #1F1800;
                            font-weight: normal;
                          }
    rect, circle, polygon {fill: #332900; stroke: #332900;}
    rect.terminal         {fill: #FFDB4D; stroke: #332900; stroke-width: 1;}
    rect.nonterminal      {fill: #FFEC9E; stroke: #332900; stroke-width: 1;}
    rect.text             {fill: none; stroke: none;}
    polygon.regexp        {fill: #FFF4C7; stroke: #332900; stroke-width: 1;}
  </style>
   </defs>
   <polygon points="9 17 1 13 1 21"/>
   <polygon points="17 17 9 13 9 21"/>
   <a xmlns:xlink="http://www.w3.org/1999/xlink"
       xlink:href="#target-keyspace"
       xlink:title="target-keyspace">
      <rect x="31" y="3" width="124" height="32"/>
      <rect x="29" y="1" width="124" height="32" class="nonterminal"/>
      <text class="nonterminal" x="39" y="21">target-keyspace</text>
   </a>
   <rect x="175" y="3" width="64" height="32" rx="10"/>
   <rect x="173"
          y="1"
          width="64"
          height="32"
          class="terminal"
          rx="10"/>
   <text class="terminal" x="183" y="21">USING</text>
   <a xmlns:xlink="http://www.w3.org/1999/xlink"
       xlink:href="#lookup-merge-source"
       xlink:title="lookup-merge-source">
      <rect x="259" y="3" width="156" height="32"/>
      <rect x="257" y="1" width="156" height="32" class="nonterminal"/>
      <text class="nonterminal" x="267" y="21">lookup-merge-source</text>
   </a>
   <a xmlns:xlink="http://www.w3.org/1999/xlink"
       xlink:href="#lookup-merge-predicate"
       xlink:title="lookup-merge-predicate">
      <rect x="435" y="3" width="174" height="32"/>
      <rect x="433" y="1" width="174" height="32" class="nonterminal"/>
      <text class="nonterminal" x="443" y="21">lookup-merge-predicate</text>
   </a>
   <a xmlns:xlink="http://www.w3.org/1999/xlink"
       xlink:href="#lookup-merge-actions"
       xlink:title="lookup-merge-actions">
      <rect x="445" y="69" width="158" height="32"/>
      <rect x="443" y="67" width="158" height="32" class="nonterminal"/>
      <text class="nonterminal" x="453" y="87">lookup-merge-actions</text>
   </a>
   <path class="line"
          d="m17 17 h2 m0 0 h10 m124 0 h10 m0 0 h10 m64 0 h10 m0 0 h10 m156 0 h10 m0 0 h10 m174 0 h10 m2 0 l2 0 m2 0 l2 0 m2 0 l2 0 m-208 66 l2 0 m2 0 l2 0 m2 0 l2 0 m2 0 h10 m158 0 h10 m3 0 h-3"/>
   <polygon points="621 83 629 79 629 87"/>
   <polygon points="621 83 613 79 613 87"/>
</svg>
