<?xml version="1.0" encoding="UTF-8"?>
<svg xmlns="http://www.w3.org/2000/svg" width="705" height="81">
   <defs>
      <style type="text/css">
    @namespace "http://www.w3.org/2000/svg";
    .line                 {fill: none; stroke: #332900; stroke-width: 1;}
    .bold-line            {stroke: #141000; shape-rendering: crispEdges; stroke-width: 2;}
    .thin-line            {stroke: #1F1800; shape-rendering: crispEdges}
    .filled               {fill: #332900; stroke: none;}
    text.terminal         {font-family: Verdana, Sans-serif;
                            font-size: 12px;
                            fill: #141000;
                            font-weight: bold;
                          }
    text.nonterminal      {font-family: Verdana, Sans-serif;
                            font-size: 12px;
                            fill: #1A1400;
                            font-weight: normal;
                          }
    text.regexp           {font-family: Verdana, Sans-serif;
                            font-size: 12px;
                            fill: #1F1800;
                            font-weight: normal;
                          }
    rect, circle, polygon {fill: #332900; stroke: #332900;}
    rect.terminal         {fill: #FFDB4D; stroke: #332900; stroke-width: 1;}
    rect.nonterminal      {fill: #FFEC9E; stroke: #332900; stroke-width: 1;}
    rect.text             {fill: none; stroke: none;}
    polygon.regexp        {fill: #FFF4C7; stroke: #332900; stroke-width: 1;}
  </style>
   </defs>
   <polygon points="9 17 1 13 1 21"/>
   <polygon points="17 17 9 13 9 21"/>
   <rect x="31" y="3" width="66" height="32" rx="10"/>
   <rect x="29"
          y="1"
          width="66"
          height="32"
          class="terminal"
          rx="10"/>
   <text class="terminal" x="39" y="21">MERGE</text>
   <rect x="117" y="3" width="56" height="32" rx="10"/>
   <rect x="115"
          y="1"
          width="56"
          height="32"
          class="terminal"
          rx="10"/>
   <text class="terminal" x="125" y="21">INTO</text>
   <a xmlns:xlink="http://www.w3.org/1999/xlink"
       xlink:href="#ansi-merge"
       xlink:title="ansi-merge">
      <rect x="213" y="3" width="92" height="32"/>
      <rect x="211" y="1" width="92" height="32" class="nonterminal"/>
      <text class="nonterminal" x="221" y="21">ansi-merge</text>
   </a>
   <a xmlns:xlink="http://www.w3.org/1999/xlink"
       xlink:href="#lookup-merge"
       xlink:title="lookup-merge">
      <rect x="213" y="47" width="108" height="32"/>
      <rect x="211" y="45" width="108" height="32" class="nonterminal"/>
      <text class="nonterminal" x="221" y="65">lookup-merge</text>
   </a>
   <a xmlns:xlink="http://www.w3.org/1999/xlink"
       xlink:href="#limit-clause"
       xlink:title="limit-clause">
      <rect x="381" y="35" width="92" height="32"/>
      <rect x="379" y="33" width="92" height="32" class="nonterminal"/>
      <text class="nonterminal" x="389" y="53">limit-clause</text>
   </a>
   <a xmlns:xlink="http://www.w3.org/1999/xlink"
       xlink:href="#returning-clause"
       xlink:title="returning-clause">
      <rect x="533" y="35" width="124" height="32"/>
      <rect x="531" y="33" width="124" height="32" class="nonterminal"/>
      <text class="nonterminal" x="541" y="53">returning-clause</text>
   </a>
   <path class="line"
          d="m17 17 h2 m0 0 h10 m66 0 h10 m0 0 h10 m56 0 h10 m20 0 h10 m92 0 h10 m0 0 h16 m-148 0 h20 m128 0 h20 m-168 0 q10 0 10 10 m148 0 q0 -10 10 -10 m-158 10 v24 m148 0 v-24 m-148 24 q0 10 10 10 m128 0 q10 0 10 -10 m-138 10 h10 m108 0 h10 m40 -44 h10 m0 0 h102 m-132 0 h20 m112 0 h20 m-152 0 q10 0 10 10 m132 0 q0 -10 10 -10 m-142 10 v12 m132 0 v-12 m-132 12 q0 10 10 10 m112 0 q10 0 10 -10 m-122 10 h10 m92 0 h10 m40 -32 h10 m0 0 h134 m-164 0 h20 m144 0 h20 m-184 0 q10 0 10 10 m164 0 q0 -10 10 -10 m-174 10 v12 m164 0 v-12 m-164 12 q0 10 10 10 m144 0 q10 0 10 -10 m-154 10 h10 m124 0 h10 m23 -32 h-3"/>
   <polygon points="695 17 703 13 703 21"/>
   <polygon points="695 17 687 13 687 21"/>
</svg>
