<?xml version="1.0" encoding="UTF-8"?>
<svg xmlns="http://www.w3.org/2000/svg" width="429" height="81">
   <defs>
      <style type="text/css">
    @namespace "http://www.w3.org/2000/svg";
    .line                 {fill: none; stroke: #332900; stroke-width: 1;}
    .bold-line            {stroke: #141000; shape-rendering: crispEdges; stroke-width: 2;}
    .thin-line            {stroke: #1F1800; shape-rendering: crispEdges}
    .filled               {fill: #332900; stroke: none;}
    text.terminal         {font-family: Verdana, Sans-serif;
                            font-size: 12px;
                            fill: #141000;
                            font-weight: bold;
                          }
    text.nonterminal      {font-family: Verdana, Sans-serif;
                            font-size: 12px;
                            fill: #1A1400;
                            font-weight: normal;
                          }
    text.regexp           {font-family: Verdana, Sans-serif;
                            font-size: 12px;
                            fill: #1F1800;
                            font-weight: normal;
                          }
    rect, circle, polygon {fill: #332900; stroke: #332900;}
    rect.terminal         {fill: #FFDB4D; stroke: #332900; stroke-width: 1;}
    rect.nonterminal      {fill: #FFEC9E; stroke: #332900; stroke-width: 1;}
    rect.text             {fill: none; stroke: none;}
    polygon.regexp        {fill: #FFF4C7; stroke: #332900; stroke-width: 1;}
  </style>
   </defs>
   <polygon points="9 17 1 13 1 21"/>
   <polygon points="17 17 9 13 9 21"/>
   <rect x="31" y="3" width="46" height="32" rx="10"/>
   <rect x="29"
          y="1"
          width="46"
          height="32"
          class="terminal"
          rx="10"/>
   <text class="terminal" x="39" y="21">USE</text>
   <a xmlns:xlink="http://www.w3.org/1999/xlink"
       xlink:href="#ansi-hint-terms"
       xlink:title="ansi-hint-terms">
      <rect x="117" y="3" width="118" height="32"/>
      <rect x="115" y="1" width="118" height="32" class="nonterminal"/>
      <text class="nonterminal" x="125" y="21">ansi-hint-terms</text>
   </a>
   <a xmlns:xlink="http://www.w3.org/1999/xlink"
       xlink:href="#other-hint-terms"
       xlink:title="other-hint-terms">
      <rect x="255" y="3" width="126" height="32"/>
      <rect x="253" y="1" width="126" height="32" class="nonterminal"/>
      <text class="nonterminal" x="263" y="21">other-hint-terms</text>
   </a>
   <a xmlns:xlink="http://www.w3.org/1999/xlink"
       xlink:href="#other-hint-terms"
       xlink:title="other-hint-terms">
      <rect x="117" y="47" width="126" height="32"/>
      <rect x="115" y="45" width="126" height="32" class="nonterminal"/>
      <text class="nonterminal" x="125" y="65">other-hint-terms</text>
   </a>
   <a xmlns:xlink="http://www.w3.org/1999/xlink"
       xlink:href="#ansi-hint-terms"
       xlink:title="ansi-hint-terms">
      <rect x="263" y="47" width="118" height="32"/>
      <rect x="261" y="45" width="118" height="32" class="nonterminal"/>
      <text class="nonterminal" x="271" y="65">ansi-hint-terms</text>
   </a>
   <path class="line"
          d="m17 17 h2 m0 0 h10 m46 0 h10 m20 0 h10 m118 0 h10 m0 0 h10 m126 0 h10 m-304 0 h20 m284 0 h20 m-324 0 q10 0 10 10 m304 0 q0 -10 10 -10 m-314 10 v24 m304 0 v-24 m-304 24 q0 10 10 10 m284 0 q10 0 10 -10 m-294 10 h10 m126 0 h10 m0 0 h10 m118 0 h10 m23 -44 h-3"/>
   <polygon points="419 17 427 13 427 21"/>
   <polygon points="419 17 411 13 411 21"/>
</svg>
