<?xml version="1.0" encoding="UTF-8"?>
<svg xmlns="http://www.w3.org/2000/svg" width="363" height="53">
   <defs>
      <style type="text/css">
    @namespace "http://www.w3.org/2000/svg";
    .line                 {fill: none; stroke: #332900; stroke-width: 1;}
    .bold-line            {stroke: #141000; shape-rendering: crispEdges; stroke-width: 2;}
    .thin-line            {stroke: #1F1800; shape-rendering: crispEdges}
    .filled               {fill: #332900; stroke: none;}
    text.terminal         {font-family: Verdana, Sans-serif;
                            font-size: 12px;
                            fill: #141000;
                            font-weight: bold;
                          }
    text.nonterminal      {font-family: Verdana, Sans-serif;
                            font-size: 12px;
                            fill: #1A1400;
                            font-weight: normal;
                          }
    text.regexp           {font-family: Verdana, Sans-serif;
                            font-size: 12px;
                            fill: #1F1800;
                            font-weight: normal;
                          }
    rect, circle, polygon {fill: #332900; stroke: #332900;}
    rect.terminal         {fill: #FFDB4D; stroke: #332900; stroke-width: 1;}
    rect.nonterminal      {fill: #FFEC9E; stroke: #332900; stroke-width: 1;}
    rect.text             {fill: none; stroke: none;}
    polygon.regexp        {fill: #FFF4C7; stroke: #332900; stroke-width: 1;}
  </style>
   </defs>
   <polygon points="9 33 1 29 1 37"/>
   <polygon points="17 33 9 29 9 37"/>
   <rect x="31" y="19" width="74" height="32" rx="10"/>
   <rect x="29"
          y="17"
          width="74"
          height="32"
          class="terminal"
          rx="10"/>
   <text class="terminal" x="39" y="37">USE_NL</text>
   <rect x="125" y="19" width="26" height="32" rx="10"/>
   <rect x="123"
          y="17"
          width="26"
          height="32"
          class="terminal"
          rx="10"/>
   <text class="terminal" x="133" y="37">(</text>
   <a xmlns:xlink="http://www.w3.org/1999/xlink"
       xlink:href="#keyspace"
       xlink:title="keyspace">
      <rect x="191" y="19" width="78" height="32"/>
      <rect x="189" y="17" width="78" height="32" class="nonterminal"/>
      <text class="nonterminal" x="199" y="37">keyspace</text>
   </a>
   <rect x="309" y="19" width="26" height="32" rx="10"/>
   <rect x="307"
          y="17"
          width="26"
          height="32"
          class="terminal"
          rx="10"/>
   <text class="terminal" x="317" y="37">)</text>
   <path class="line"
          d="m17 33 h2 m0 0 h10 m74 0 h10 m0 0 h10 m26 0 h10 m20 0 h10 m78 0 h10 m-118 0 l20 0 m-1 0 q-9 0 -9 -10 l0 -12 q0 -10 10 -10 m98 32 l20 0 m-20 0 q10 0 10 -10 l0 -12 q0 -10 -10 -10 m-98 0 h10 m0 0 h88 m20 32 h10 m26 0 h10 m3 0 h-3"/>
   <polygon points="353 33 361 29 361 37"/>
   <polygon points="353 33 345 29 345 37"/>
</svg>
