<?xml version="1.0" encoding="UTF-8"?>
<svg xmlns="http://www.w3.org/2000/svg" width="475" height="129">
   <defs>
      <style type="text/css">
    @namespace "http://www.w3.org/2000/svg";
    .line                 {fill: none; stroke: #332900; stroke-width: 1;}
    .bold-line            {stroke: #141000; shape-rendering: crispEdges; stroke-width: 2;}
    .thin-line            {stroke: #1F1800; shape-rendering: crispEdges}
    .filled               {fill: #332900; stroke: none;}
    text.terminal         {font-family: Verdana, Sans-serif;
                            font-size: 12px;
                            fill: #141000;
                            font-weight: bold;
                          }
    text.nonterminal      {font-family: Verdana, Sans-serif;
                            font-size: 12px;
                            fill: #1A1400;
                            font-weight: normal;
                          }
    text.regexp           {font-family: Verdana, Sans-serif;
                            font-size: 12px;
                            fill: #1F1800;
                            font-weight: normal;
                          }
    rect, circle, polygon {fill: #332900; stroke: #332900;}
    rect.terminal         {fill: #FFDB4D; stroke: #332900; stroke-width: 1;}
    rect.nonterminal      {fill: #FFEC9E; stroke: #332900; stroke-width: 1;}
    rect.text             {fill: none; stroke: none;}
    polygon.regexp        {fill: #FFF4C7; stroke: #332900; stroke-width: 1;}
  </style>
   </defs>
   <polygon points="9 61 1 57 1 65"/>
   <polygon points="17 61 9 57 9 65"/>
   <rect x="31" y="47" width="28" height="32" rx="10"/>
   <rect x="29"
          y="45"
          width="28"
          height="32"
          class="terminal"
          rx="10"/>
   <text class="terminal" x="39" y="65">{</text>
   <a xmlns:xlink="http://www.w3.org/1999/xlink"
       xlink:href="#name-expr"
       xlink:title="name-expr">
      <rect x="139" y="79" width="88" height="32"/>
      <rect x="137" y="77" width="88" height="32" class="nonterminal"/>
      <text class="nonterminal" x="147" y="97">name-expr</text>
   </a>
   <rect x="247" y="79" width="24" height="32" rx="10"/>
   <rect x="245"
          y="77"
          width="24"
          height="32"
          class="terminal"
          rx="10"/>
   <text class="terminal" x="255" y="97">:</text>
   <a xmlns:xlink="http://www.w3.org/1999/xlink"
       xlink:href="#expr"
       xlink:title="expr">
      <rect x="311" y="47" width="48" height="32"/>
      <rect x="309" y="45" width="48" height="32" class="nonterminal"/>
      <text class="nonterminal" x="319" y="65">expr</text>
   </a>
   <rect x="119" y="3" width="24" height="32" rx="10"/>
   <rect x="117"
          y="1"
          width="24"
          height="32"
          class="terminal"
          rx="10"/>
   <text class="terminal" x="127" y="21">,</text>
   <rect x="419" y="47" width="28" height="32" rx="10"/>
   <rect x="417"
          y="45"
          width="28"
          height="32"
          class="terminal"
          rx="10"/>
   <text class="terminal" x="427" y="65">}</text>
   <path class="line"
          d="m17 61 h2 m0 0 h10 m28 0 h10 m60 0 h10 m0 0 h142 m-172 0 h20 m152 0 h20 m-192 0 q10 0 10 10 m172 0 q0 -10 10 -10 m-182 10 v12 m172 0 v-12 m-172 12 q0 10 10 10 m152 0 q10 0 10 -10 m-162 10 h10 m88 0 h10 m0 0 h10 m24 0 h10 m20 -32 h10 m48 0 h10 m-280 0 l20 0 m-1 0 q-9 0 -9 -10 l0 -24 q0 -10 10 -10 m260 44 l20 0 m-20 0 q10 0 10 -10 l0 -24 q0 -10 -10 -10 m-260 0 h10 m24 0 h10 m0 0 h216 m-300 44 h20 m300 0 h20 m-340 0 q10 0 10 10 m320 0 q0 -10 10 -10 m-330 10 v46 m320 0 v-46 m-320 46 q0 10 10 10 m300 0 q10 0 10 -10 m-310 10 h10 m0 0 h290 m20 -66 h10 m28 0 h10 m3 0 h-3"/>
   <polygon points="465 61 473 57 473 65"/>
   <polygon points="465 61 457 57 457 65"/>
</svg>
