<?xml version="1.0" encoding="UTF-8"?>
<svg xmlns="http://www.w3.org/2000/svg" width="311" height="125">
   <defs>
      <style type="text/css">
    @namespace "http://www.w3.org/2000/svg";
    .line                 {fill: none; stroke: #332900; stroke-width: 1;}
    .bold-line            {stroke: #141000; shape-rendering: crispEdges; stroke-width: 2;}
    .thin-line            {stroke: #1F1800; shape-rendering: crispEdges}
    .filled               {fill: #332900; stroke: none;}
    text.terminal         {font-family: Verdana, Sans-serif;
                            font-size: 12px;
                            fill: #141000;
                            font-weight: bold;
                          }
    text.nonterminal      {font-family: Verdana, Sans-serif;
                            font-size: 12px;
                            fill: #1A1400;
                            font-weight: normal;
                          }
    text.regexp           {font-family: Verdana, Sans-serif;
                            font-size: 12px;
                            fill: #1F1800;
                            font-weight: normal;
                          }
    rect, circle, polygon {fill: #332900; stroke: #332900;}
    rect.terminal         {fill: #FFDB4D; stroke: #332900; stroke-width: 1;}
    rect.nonterminal      {fill: #FFEC9E; stroke: #332900; stroke-width: 1;}
    rect.text             {fill: none; stroke: none;}
    polygon.regexp        {fill: #FFF4C7; stroke: #332900; stroke-width: 1;}
  </style>
   </defs>
   <polygon points="9 17 1 13 1 21"/>
   <polygon points="17 17 9 13 9 21"/>
   <rect x="31" y="3" width="76" height="32" rx="10"/>
   <rect x="29"
          y="1"
          width="76"
          height="32"
          class="terminal"
          rx="10"/>
   <text class="terminal" x="39" y="21">"option"</text>
   <rect x="127" y="3" width="24" height="32" rx="10"/>
   <rect x="125"
          y="1"
          width="24"
          height="32"
          class="terminal"
          rx="10"/>
   <text class="terminal" x="135" y="21">:</text>
   <rect x="191" y="3" width="68" height="32" rx="10"/>
   <rect x="189"
          y="1"
          width="68"
          height="32"
          class="terminal"
          rx="10"/>
   <text class="terminal" x="199" y="21">"build"</text>
   <rect x="191" y="47" width="72" height="32" rx="10"/>
   <rect x="189"
          y="45"
          width="72"
          height="32"
          class="terminal"
          rx="10"/>
   <text class="terminal" x="199" y="65">"probe"</text>
   <rect x="191" y="91" width="44" height="32" rx="10"/>
   <rect x="189"
          y="89"
          width="44"
          height="32"
          class="terminal"
          rx="10"/>
   <text class="terminal" x="199" y="109">null</text>
   <path class="line"
          d="m17 17 h2 m0 0 h10 m76 0 h10 m0 0 h10 m24 0 h10 m20 0 h10 m68 0 h10 m0 0 h4 m-112 0 h20 m92 0 h20 m-132 0 q10 0 10 10 m112 0 q0 -10 10 -10 m-122 10 v24 m112 0 v-24 m-112 24 q0 10 10 10 m92 0 q10 0 10 -10 m-102 10 h10 m72 0 h10 m-102 -10 v20 m112 0 v-20 m-112 20 v24 m112 0 v-24 m-112 24 q0 10 10 10 m92 0 q10 0 10 -10 m-102 10 h10 m44 0 h10 m0 0 h28 m23 -88 h-3"/>
   <polygon points="301 17 309 13 309 21"/>
   <polygon points="301 17 293 13 293 21"/>
</svg>
