<?xml version="1.0" encoding="UTF-8"?>
<svg xmlns="http://www.w3.org/2000/svg" width="467" height="113">
   <defs>
      <style type="text/css">
    @namespace "http://www.w3.org/2000/svg";
    .line                 {fill: none; stroke: #332900; stroke-width: 1;}
    .bold-line            {stroke: #141000; shape-rendering: crispEdges; stroke-width: 2;}
    .thin-line            {stroke: #1F1800; shape-rendering: crispEdges}
    .filled               {fill: #332900; stroke: none;}
    text.terminal         {font-family: Verdana, Sans-serif;
                            font-size: 12px;
                            fill: #141000;
                            font-weight: bold;
                          }
    text.nonterminal      {font-family: Verdana, Sans-serif;
                            font-size: 12px;
                            fill: #1A1400;
                            font-weight: normal;
                          }
    text.regexp           {font-family: Verdana, Sans-serif;
                            font-size: 12px;
                            fill: #1F1800;
                            font-weight: normal;
                          }
    rect, circle, polygon {fill: #332900; stroke: #332900;}
    rect.terminal         {fill: #FFDB4D; stroke: #332900; stroke-width: 1;}
    rect.nonterminal      {fill: #FFEC9E; stroke: #332900; stroke-width: 1;}
    rect.text             {fill: none; stroke: none;}
    polygon.regexp        {fill: #FFF4C7; stroke: #332900; stroke-width: 1;}
  </style>
   </defs>
   <polygon points="9 17 1 13 1 21"/>
   <polygon points="17 17 9 13 9 21"/>
   <a xmlns:xlink="http://www.w3.org/1999/xlink"
       xlink:href="#expr"
       xlink:title="expr">
      <rect x="31" y="3" width="48" height="32"/>
      <rect x="29" y="1" width="48" height="32" class="nonterminal"/>
      <text class="nonterminal" x="39" y="21">expr</text>
   </a>
   <rect x="119" y="35" width="46" height="32" rx="10"/>
   <rect x="117"
          y="33"
          width="46"
          height="32"
          class="terminal"
          rx="10"/>
   <text class="terminal" x="127" y="53">ASC</text>
   <rect x="119" y="79" width="56" height="32" rx="10"/>
   <rect x="117"
          y="77"
          width="56"
          height="32"
          class="terminal"
          rx="10"/>
   <text class="terminal" x="127" y="97">DESC</text>
   <rect x="235" y="35" width="64" height="32" rx="10"/>
   <rect x="233"
          y="33"
          width="64"
          height="32"
          class="terminal"
          rx="10"/>
   <text class="terminal" x="243" y="53">NULLS</text>
   <rect x="339" y="35" width="60" height="32" rx="10"/>
   <rect x="337"
          y="33"
          width="60"
          height="32"
          class="terminal"
          rx="10"/>
   <text class="terminal" x="347" y="53">FIRST</text>
   <rect x="339" y="79" width="54" height="32" rx="10"/>
   <rect x="337"
          y="77"
          width="54"
          height="32"
          class="terminal"
          rx="10"/>
   <text class="terminal" x="347" y="97">LAST</text>
   <path class="line"
          d="m17 17 h2 m0 0 h10 m48 0 h10 m20 0 h10 m0 0 h66 m-96 0 h20 m76 0 h20 m-116 0 q10 0 10 10 m96 0 q0 -10 10 -10 m-106 10 v12 m96 0 v-12 m-96 12 q0 10 10 10 m76 0 q10 0 10 -10 m-86 10 h10 m46 0 h10 m0 0 h10 m-86 -10 v20 m96 0 v-20 m-96 20 v24 m96 0 v-24 m-96 24 q0 10 10 10 m76 0 q10 0 10 -10 m-86 10 h10 m56 0 h10 m40 -76 h10 m0 0 h194 m-224 0 h20 m204 0 h20 m-244 0 q10 0 10 10 m224 0 q0 -10 10 -10 m-234 10 v12 m224 0 v-12 m-224 12 q0 10 10 10 m204 0 q10 0 10 -10 m-214 10 h10 m64 0 h10 m20 0 h10 m60 0 h10 m-100 0 h20 m80 0 h20 m-120 0 q10 0 10 10 m100 0 q0 -10 10 -10 m-110 10 v24 m100 0 v-24 m-100 24 q0 10 10 10 m80 0 q10 0 10 -10 m-90 10 h10 m54 0 h10 m0 0 h6 m43 -76 h-3"/>
   <polygon points="457 17 465 13 465 21"/>
   <polygon points="457 17 449 13 449 21"/>
</svg>
