<?xml version="1.0" encoding="UTF-8"?>
<svg xmlns="http://www.w3.org/2000/svg" width="399" height="81">
   <defs>
      <style type="text/css">
    @namespace "http://www.w3.org/2000/svg";
    .line                 {fill: none; stroke: #332900; stroke-width: 1;}
    .bold-line            {stroke: #141000; shape-rendering: crispEdges; stroke-width: 2;}
    .thin-line            {stroke: #1F1800; shape-rendering: crispEdges}
    .filled               {fill: #332900; stroke: none;}
    text.terminal         {font-family: Verdana, Sans-serif;
                            font-size: 12px;
                            fill: #141000;
                            font-weight: bold;
                          }
    text.nonterminal      {font-family: Verdana, Sans-serif;
                            font-size: 12px;
                            fill: #1A1400;
                            font-weight: normal;
                          }
    text.regexp           {font-family: Verdana, Sans-serif;
                            font-size: 12px;
                            fill: #1F1800;
                            font-weight: normal;
                          }
    rect, circle, polygon {fill: #332900; stroke: #332900;}
    rect.terminal         {fill: #FFDB4D; stroke: #332900; stroke-width: 1;}
    rect.nonterminal      {fill: #FFEC9E; stroke: #332900; stroke-width: 1;}
    rect.text             {fill: none; stroke: none;}
    polygon.regexp        {fill: #FFF4C7; stroke: #332900; stroke-width: 1;}
  </style>
   </defs>
   <polygon points="9 17 1 13 1 21"/>
   <polygon points="17 17 9 13 9 21"/>
   <rect x="31" y="3" width="62" height="32" rx="10"/>
   <rect x="29"
          y="1"
          width="62"
          height="32"
          class="terminal"
          rx="10"/>
   <text class="terminal" x="39" y="21">PAIRS</text>
   <rect x="113" y="3" width="26" height="32" rx="10"/>
   <rect x="111"
          y="1"
          width="26"
          height="32"
          class="terminal"
          rx="10"/>
   <text class="terminal" x="121" y="21">(</text>
   <rect x="179" y="3" width="52" height="32" rx="10"/>
   <rect x="177"
          y="1"
          width="52"
          height="32"
          class="terminal"
          rx="10"/>
   <text class="terminal" x="187" y="21">SELF</text>
   <a xmlns:xlink="http://www.w3.org/1999/xlink"
       xlink:href="#index-key-object"
       xlink:title="index-key-object">
      <rect x="179" y="47" width="126" height="32"/>
      <rect x="177" y="45" width="126" height="32" class="nonterminal"/>
      <text class="nonterminal" x="187" y="65">index-key-object</text>
   </a>
   <rect x="345" y="3" width="26" height="32" rx="10"/>
   <rect x="343"
          y="1"
          width="26"
          height="32"
          class="terminal"
          rx="10"/>
   <text class="terminal" x="353" y="21">)</text>
   <path class="line"
          d="m17 17 h2 m0 0 h10 m62 0 h10 m0 0 h10 m26 0 h10 m20 0 h10 m52 0 h10 m0 0 h74 m-166 0 h20 m146 0 h20 m-186 0 q10 0 10 10 m166 0 q0 -10 10 -10 m-176 10 v24 m166 0 v-24 m-166 24 q0 10 10 10 m146 0 q10 0 10 -10 m-156 10 h10 m126 0 h10 m20 -44 h10 m26 0 h10 m3 0 h-3"/>
   <polygon points="389 17 397 13 397 21"/>
   <polygon points="389 17 381 13 381 21"/>
</svg>
