<?xml version="1.0" encoding="UTF-8"?>
<svg xmlns="http://www.w3.org/2000/svg" width="415" height="119">
   <defs>
      <style type="text/css">
    @namespace "http://www.w3.org/2000/svg";
    .line                 {fill: none; stroke: #332900; stroke-width: 1;}
    .bold-line            {stroke: #141000; shape-rendering: crispEdges; stroke-width: 2;}
    .thin-line            {stroke: #1F1800; shape-rendering: crispEdges}
    .filled               {fill: #332900; stroke: none;}
    text.terminal         {font-family: Verdana, Sans-serif;
                            font-size: 12px;
                            fill: #141000;
                            font-weight: bold;
                          }
    text.nonterminal      {font-family: Verdana, Sans-serif;
                            font-size: 12px;
                            fill: #1A1400;
                            font-weight: normal;
                          }
    text.regexp           {font-family: Verdana, Sans-serif;
                            font-size: 12px;
                            fill: #1F1800;
                            font-weight: normal;
                          }
    rect, circle, polygon {fill: #332900; stroke: #332900;}
    rect.terminal         {fill: #FFDB4D; stroke: #332900; stroke-width: 1;}
    rect.nonterminal      {fill: #FFEC9E; stroke: #332900; stroke-width: 1;}
    rect.text             {fill: none; stroke: none;}
    polygon.regexp        {fill: #FFF4C7; stroke: #332900; stroke-width: 1;}
  </style>
   </defs>
   <polygon points="9 83 1 79 1 87"/>
   <polygon points="17 83 9 79 9 87"/>
   <a xmlns:xlink="http://www.w3.org/1999/xlink"
       xlink:href="#identifier"
       xlink:title="identifier">
      <rect x="51" y="69" width="76" height="32"/>
      <rect x="49" y="67" width="76" height="32" class="nonterminal"/>
      <text class="nonterminal" x="59" y="87">identifier</text>
   </a>
   <rect x="187" y="69" width="26" height="32" rx="10"/>
   <rect x="185"
          y="67"
          width="26"
          height="32"
          class="terminal"
          rx="10"/>
   <text class="terminal" x="195" y="87">[</text>
   <a xmlns:xlink="http://www.w3.org/1999/xlink"
       xlink:href="#expr"
       xlink:title="expr">
      <rect x="233" y="69" width="48" height="32"/>
      <rect x="231" y="67" width="48" height="32" class="nonterminal"/>
      <text class="nonterminal" x="241" y="87">expr</text>
   </a>
   <rect x="301" y="69" width="26" height="32" rx="10"/>
   <rect x="299"
          y="67"
          width="26"
          height="32"
          class="terminal"
          rx="10"/>
   <text class="terminal" x="309" y="87">]</text>
   <rect x="51" y="3" width="24" height="32" rx="10"/>
   <rect x="49"
          y="1"
          width="24"
          height="32"
          class="terminal"
          rx="10"/>
   <text class="terminal" x="59" y="21">.</text>
   <path class="line"
          d="m17 83 h2 m20 0 h10 m76 0 h10 m40 0 h10 m26 0 h10 m0 0 h10 m48 0 h10 m0 0 h10 m26 0 h10 m-180 0 l20 0 m-1 0 q-9 0 -9 -10 l0 -12 q0 -10 10 -10 m160 32 l20 0 m-20 0 q10 0 10 -10 l0 -12 q0 -10 -10 -10 m-160 0 h10 m0 0 h150 m-200 32 h20 m200 0 h20 m-240 0 q10 0 10 10 m220 0 q0 -10 10 -10 m-230 10 v14 m220 0 v-14 m-220 14 q0 10 10 10 m200 0 q10 0 10 -10 m-210 10 h10 m0 0 h190 m-336 -34 l20 0 m-1 0 q-9 0 -9 -10 l0 -46 q0 -10 10 -10 m336 66 l20 0 m-20 0 q10 0 10 -10 l0 -46 q0 -10 -10 -10 m-336 0 h10 m24 0 h10 m0 0 h292 m23 66 h-3"/>
   <polygon points="405 83 413 79 413 87"/>
   <polygon points="405 83 397 79 397 87"/>
</svg>
