<?xml version="1.0" encoding="UTF-8"?>
<svg xmlns="http://www.w3.org/2000/svg" width="609" height="113">
   <defs>
      <style type="text/css">
    @namespace "http://www.w3.org/2000/svg";
    .line                 {fill: none; stroke: #332900; stroke-width: 1;}
    .bold-line            {stroke: #141000; shape-rendering: crispEdges; stroke-width: 2;}
    .thin-line            {stroke: #1F1800; shape-rendering: crispEdges}
    .filled               {fill: #332900; stroke: none;}
    text.terminal         {font-family: Verdana, Sans-serif;
                            font-size: 12px;
                            fill: #141000;
                            font-weight: bold;
                          }
    text.nonterminal      {font-family: Verdana, Sans-serif;
                            font-size: 12px;
                            fill: #1A1400;
                            font-weight: normal;
                          }
    text.regexp           {font-family: Verdana, Sans-serif;
                            font-size: 12px;
                            fill: #1F1800;
                            font-weight: normal;
                          }
    rect, circle, polygon {fill: #332900; stroke: #332900;}
    rect.terminal         {fill: #FFDB4D; stroke: #332900; stroke-width: 1;}
    rect.nonterminal      {fill: #FFEC9E; stroke: #332900; stroke-width: 1;}
    rect.text             {fill: none; stroke: none;}
    polygon.regexp        {fill: #FFF4C7; stroke: #332900; stroke-width: 1;}
  </style>
   </defs>
   <polygon points="9 17 1 13 1 21"/>
   <polygon points="17 17 9 13 9 21"/>
   <rect x="31" y="3" width="82" height="32" rx="10"/>
   <rect x="29"
          y="1"
          width="82"
          height="32"
          class="terminal"
          rx="10"/>
   <text class="terminal" x="39" y="21">PREPARE</text>
   <rect x="153" y="35" width="66" height="32" rx="10"/>
   <rect x="151"
          y="33"
          width="66"
          height="32"
          class="terminal"
          rx="10"/>
   <text class="terminal" x="161" y="53">FORCE</text>
   <a xmlns:xlink="http://www.w3.org/1999/xlink"
       xlink:href="#name"
       xlink:title="name">
      <rect x="279" y="35" width="56" height="32"/>
      <rect x="277" y="33" width="56" height="32" class="nonterminal"/>
      <text class="nonterminal" x="287" y="53">name</text>
   </a>
   <rect x="375" y="35" width="60" height="32" rx="10"/>
   <rect x="373"
          y="33"
          width="60"
          height="32"
          class="terminal"
          rx="10"/>
   <text class="terminal" x="383" y="53">FROM</text>
   <rect x="375" y="79" width="38" height="32" rx="10"/>
   <rect x="373"
          y="77"
          width="38"
          height="32"
          class="terminal"
          rx="10"/>
   <text class="terminal" x="383" y="97">AS</text>
   <a xmlns:xlink="http://www.w3.org/1999/xlink"
       xlink:href="#statement"
       xlink:title="statement">
      <rect x="495" y="3" width="86" height="32"/>
      <rect x="493" y="1" width="86" height="32" class="nonterminal"/>
      <text class="nonterminal" x="503" y="21">statement</text>
   </a>
   <path class="line"
          d="m17 17 h2 m0 0 h10 m82 0 h10 m20 0 h10 m0 0 h76 m-106 0 h20 m86 0 h20 m-126 0 q10 0 10 10 m106 0 q0 -10 10 -10 m-116 10 v12 m106 0 v-12 m-106 12 q0 10 10 10 m86 0 q10 0 10 -10 m-96 10 h10 m66 0 h10 m40 -32 h10 m0 0 h186 m-216 0 h20 m196 0 h20 m-236 0 q10 0 10 10 m216 0 q0 -10 10 -10 m-226 10 v12 m216 0 v-12 m-216 12 q0 10 10 10 m196 0 q10 0 10 -10 m-206 10 h10 m56 0 h10 m20 0 h10 m60 0 h10 m-100 0 h20 m80 0 h20 m-120 0 q10 0 10 10 m100 0 q0 -10 10 -10 m-110 10 v24 m100 0 v-24 m-100 24 q0 10 10 10 m80 0 q10 0 10 -10 m-90 10 h10 m38 0 h10 m0 0 h22 m40 -76 h10 m86 0 h10 m3 0 h-3"/>
   <polygon points="599 17 607 13 607 21"/>
   <polygon points="599 17 591 13 591 21"/>
</svg>
