<?xml version="1.0" encoding="UTF-8"?>
<svg xmlns="http://www.w3.org/2000/svg" width="643" height="213">
   <defs>
      <style type="text/css">
    @namespace "http://www.w3.org/2000/svg";
    .line                 {fill: none; stroke: #332900; stroke-width: 1;}
    .bold-line            {stroke: #141000; shape-rendering: crispEdges; stroke-width: 2;}
    .thin-line            {stroke: #1F1800; shape-rendering: crispEdges}
    .filled               {fill: #332900; stroke: none;}
    text.terminal         {font-family: Verdana, Sans-serif;
                            font-size: 12px;
                            fill: #141000;
                            font-weight: bold;
                          }
    text.nonterminal      {font-family: Verdana, Sans-serif;
                            font-size: 12px;
                            fill: #1A1400;
                            font-weight: normal;
                          }
    text.regexp           {font-family: Verdana, Sans-serif;
                            font-size: 12px;
                            fill: #1F1800;
                            font-weight: normal;
                          }
    rect, circle, polygon {fill: #332900; stroke: #332900;}
    rect.terminal         {fill: #FFDB4D; stroke: #332900; stroke-width: 1;}
    rect.nonterminal      {fill: #FFEC9E; stroke: #332900; stroke-width: 1;}
    rect.text             {fill: none; stroke: none;}
    polygon.regexp        {fill: #FFF4C7; stroke: #332900; stroke-width: 1;}
  </style>
   </defs>
   <polygon points="9 61 1 57 1 65"/>
   <polygon points="17 61 9 57 9 65"/>
   <rect x="51" y="79" width="44" height="32" rx="10"/>
   <rect x="49"
          y="77"
          width="44"
          height="32"
          class="terminal"
          rx="10"/>
   <text class="terminal" x="59" y="97">ALL</text>
   <rect x="51" y="123" width="86" height="32" rx="10"/>
   <rect x="49"
          y="121"
          width="86"
          height="32"
          class="terminal"
          rx="10"/>
   <text class="terminal" x="59" y="141">DISTINCT</text>
   <a xmlns:xlink="http://www.w3.org/1999/xlink"
       xlink:href="#result-expr"
       xlink:title="result-expr">
      <rect x="217" y="47" width="90" height="32"/>
      <rect x="215" y="45" width="90" height="32" class="nonterminal"/>
      <text class="nonterminal" x="225" y="65">result-expr</text>
   </a>
   <rect x="217" y="3" width="24" height="32" rx="10"/>
   <rect x="215"
          y="1"
          width="24"
          height="32"
          class="terminal"
          rx="10"/>
   <text class="terminal" x="225" y="21">,</text>
   <rect x="217" y="91" width="52" height="32" rx="10"/>
   <rect x="215"
          y="89"
          width="52"
          height="32"
          class="terminal"
          rx="10"/>
   <text class="terminal" x="225" y="109">RAW</text>
   <rect x="217" y="135" width="82" height="32" rx="10"/>
   <rect x="215"
          y="133"
          width="82"
          height="32"
          class="terminal"
          rx="10"/>
   <text class="terminal" x="225" y="153">ELEMENT</text>
   <rect x="217" y="179" width="64" height="32" rx="10"/>
   <rect x="215"
          y="177"
          width="64"
          height="32"
          class="terminal"
          rx="10"/>
   <text class="terminal" x="225" y="197">VALUE</text>
   <a xmlns:xlink="http://www.w3.org/1999/xlink"
       xlink:href="#expr"
       xlink:title="expr">
      <rect x="339" y="91" width="48" height="32"/>
      <rect x="337" y="89" width="48" height="32" class="nonterminal"/>
      <text class="nonterminal" x="347" y="109">expr</text>
   </a>
   <rect x="447" y="155" width="38" height="32" rx="10"/>
   <rect x="445"
          y="153"
          width="38"
          height="32"
          class="terminal"
          rx="10"/>
   <text class="terminal" x="455" y="173">AS</text>
   <a xmlns:xlink="http://www.w3.org/1999/xlink"
       xlink:href="#alias"
       xlink:title="alias">
      <rect x="525" y="123" width="50" height="32"/>
      <rect x="523" y="121" width="50" height="32" class="nonterminal"/>
      <text class="nonterminal" x="533" y="141">alias</text>
   </a>
   <path class="line"
          d="m17 61 h2 m20 0 h10 m0 0 h96 m-126 0 h20 m106 0 h20 m-146 0 q10 0 10 10 m126 0 q0 -10 10 -10 m-136 10 v12 m126 0 v-12 m-126 12 q0 10 10 10 m106 0 q10 0 10 -10 m-116 10 h10 m44 0 h10 m0 0 h42 m-116 -10 v20 m126 0 v-20 m-126 20 v24 m126 0 v-24 m-126 24 q0 10 10 10 m106 0 q10 0 10 -10 m-116 10 h10 m86 0 h10 m60 -76 h10 m90 0 h10 m-130 0 l20 0 m-1 0 q-9 0 -9 -10 l0 -24 q0 -10 10 -10 m110 44 l20 0 m-20 0 q10 0 10 -10 l0 -24 q0 -10 -10 -10 m-110 0 h10 m24 0 h10 m0 0 h66 m20 44 h268 m-438 0 h20 m418 0 h20 m-458 0 q10 0 10 10 m438 0 q0 -10 10 -10 m-448 10 v24 m438 0 v-24 m-438 24 q0 10 10 10 m418 0 q10 0 10 -10 m-408 10 h10 m52 0 h10 m0 0 h30 m-122 0 h20 m102 0 h20 m-142 0 q10 0 10 10 m122 0 q0 -10 10 -10 m-132 10 v24 m122 0 v-24 m-122 24 q0 10 10 10 m102 0 q10 0 10 -10 m-112 10 h10 m82 0 h10 m-112 -10 v20 m122 0 v-20 m-122 20 v24 m122 0 v-24 m-122 24 q0 10 10 10 m102 0 q10 0 10 -10 m-112 10 h10 m64 0 h10 m0 0 h18 m20 -88 h10 m48 0 h10 m20 0 h10 m0 0 h158 m-188 0 h20 m168 0 h20 m-208 0 q10 0 10 10 m188 0 q0 -10 10 -10 m-198 10 v12 m188 0 v-12 m-188 12 q0 10 10 10 m168 0 q10 0 10 -10 m-158 10 h10 m0 0 h48 m-78 0 h20 m58 0 h20 m-98 0 q10 0 10 10 m78 0 q0 -10 10 -10 m-88 10 v12 m78 0 v-12 m-78 12 q0 10 10 10 m58 0 q10 0 10 -10 m-68 10 h10 m38 0 h10 m20 -32 h10 m50 0 h10 m43 -76 h-3"/>
   <polygon points="633 61 641 57 641 65"/>
   <polygon points="633 61 625 57 625 65"/>
</svg>
