<?xml version="1.0" encoding="UTF-8"?>
<svg xmlns="http://www.w3.org/2000/svg" width="719" height="125">
   <defs>
      <style type="text/css">
    @namespace "http://www.w3.org/2000/svg";
    .line                 {fill: none; stroke: #332900; stroke-width: 1;}
    .bold-line            {stroke: #141000; shape-rendering: crispEdges; stroke-width: 2;}
    .thin-line            {stroke: #1F1800; shape-rendering: crispEdges}
    .filled               {fill: #332900; stroke: none;}
    text.terminal         {font-family: Verdana, Sans-serif;
                            font-size: 12px;
                            fill: #141000;
                            font-weight: bold;
                          }
    text.nonterminal      {font-family: Verdana, Sans-serif;
                            font-size: 12px;
                            fill: #1A1400;
                            font-weight: normal;
                          }
    text.regexp           {font-family: Verdana, Sans-serif;
                            font-size: 12px;
                            fill: #1F1800;
                            font-weight: normal;
                          }
    rect, circle, polygon {fill: #332900; stroke: #332900;}
    rect.terminal         {fill: #FFDB4D; stroke: #332900; stroke-width: 1;}
    rect.nonterminal      {fill: #FFEC9E; stroke: #332900; stroke-width: 1;}
    rect.text             {fill: none; stroke: none;}
    polygon.regexp        {fill: #FFF4C7; stroke: #332900; stroke-width: 1;}
  </style>
   </defs>
   <polygon points="9 17 1 13 1 21"/>
   <polygon points="17 17 9 13 9 21"/>
   <rect x="71" y="3" width="48" height="32" rx="10"/>
   <rect x="69"
          y="1"
          width="48"
          height="32"
          class="terminal"
          rx="10"/>
   <text class="terminal" x="79" y="21">ANY</text>
   <rect x="71" y="47" width="60" height="32" rx="10"/>
   <rect x="69"
          y="45"
          width="60"
          height="32"
          class="terminal"
          rx="10"/>
   <text class="terminal" x="79" y="65">SOME</text>
   <rect x="191" y="35" width="48" height="32" rx="10"/>
   <rect x="189"
          y="33"
          width="48"
          height="32"
          class="terminal"
          rx="10"/>
   <text class="terminal" x="199" y="53">AND</text>
   <rect x="259" y="35" width="64" height="32" rx="10"/>
   <rect x="257"
          y="33"
          width="64"
          height="32"
          class="terminal"
          rx="10"/>
   <text class="terminal" x="267" y="53">EVERY</text>
   <rect x="51" y="91" width="64" height="32" rx="10"/>
   <rect x="49"
          y="89"
          width="64"
          height="32"
          class="terminal"
          rx="10"/>
   <text class="terminal" x="59" y="109">EVERY</text>
   <a xmlns:xlink="http://www.w3.org/1999/xlink"
       xlink:href="#range"
       xlink:title="range">
      <rect x="383" y="3" width="56" height="32"/>
      <rect x="381" y="1" width="56" height="32" class="nonterminal"/>
      <text class="nonterminal" x="391" y="21">range</text>
   </a>
   <rect x="459" y="3" width="94" height="32" rx="10"/>
   <rect x="457"
          y="1"
          width="94"
          height="32"
          class="terminal"
          rx="10"/>
   <text class="terminal" x="467" y="21">SATISFIES</text>
   <a xmlns:xlink="http://www.w3.org/1999/xlink"
       xlink:href="#cond"
       xlink:title="cond">
      <rect x="573" y="3" width="50" height="32"/>
      <rect x="571" y="1" width="50" height="32" class="nonterminal"/>
      <text class="nonterminal" x="581" y="21">cond</text>
   </a>
   <rect x="643" y="3" width="48" height="32" rx="10"/>
   <rect x="641"
          y="1"
          width="48"
          height="32"
          class="terminal"
          rx="10"/>
   <text class="terminal" x="651" y="21">END</text>
   <path class="line"
          d="m17 17 h2 m40 0 h10 m48 0 h10 m0 0 h12 m-100 0 h20 m80 0 h20 m-120 0 q10 0 10 10 m100 0 q0 -10 10 -10 m-110 10 v24 m100 0 v-24 m-100 24 q0 10 10 10 m80 0 q10 0 10 -10 m-90 10 h10 m60 0 h10 m40 -44 h10 m0 0 h142 m-172 0 h20 m152 0 h20 m-192 0 q10 0 10 10 m172 0 q0 -10 10 -10 m-182 10 v12 m172 0 v-12 m-172 12 q0 10 10 10 m152 0 q10 0 10 -10 m-162 10 h10 m48 0 h10 m0 0 h10 m64 0 h10 m-312 -32 h20 m312 0 h20 m-352 0 q10 0 10 10 m332 0 q0 -10 10 -10 m-342 10 v68 m332 0 v-68 m-332 68 q0 10 10 10 m312 0 q10 0 10 -10 m-322 10 h10 m64 0 h10 m0 0 h228 m20 -88 h10 m56 0 h10 m0 0 h10 m94 0 h10 m0 0 h10 m50 0 h10 m0 0 h10 m48 0 h10 m3 0 h-3"/>
   <polygon points="709 17 717 13 717 21"/>
   <polygon points="709 17 701 13 701 21"/>
</svg>
