<?xml version="1.0" encoding="UTF-8"?>
<svg xmlns="http://www.w3.org/2000/svg" width="747" height="191">
   <defs>
      <style type="text/css">
    @namespace "http://www.w3.org/2000/svg";
    .line                 {fill: none; stroke: #332900; stroke-width: 1;}
    .bold-line            {stroke: #141000; shape-rendering: crispEdges; stroke-width: 2;}
    .thin-line            {stroke: #1F1800; shape-rendering: crispEdges}
    .filled               {fill: #332900; stroke: none;}
    text.terminal         {font-family: Verdana, Sans-serif;
                            font-size: 12px;
                            fill: #141000;
                            font-weight: bold;
                          }
    text.nonterminal      {font-family: Verdana, Sans-serif;
                            font-size: 12px;
                            fill: #1A1400;
                            font-weight: normal;
                          }
    text.regexp           {font-family: Verdana, Sans-serif;
                            font-size: 12px;
                            fill: #1F1800;
                            font-weight: normal;
                          }
    rect, circle, polygon {fill: #332900; stroke: #332900;}
    rect.terminal         {fill: #FFDB4D; stroke: #332900; stroke-width: 1;}
    rect.nonterminal      {fill: #FFEC9E; stroke: #332900; stroke-width: 1;}
    rect.text             {fill: none; stroke: none;}
    polygon.regexp        {fill: #FFF4C7; stroke: #332900; stroke-width: 1;}
  </style>
   </defs>
   <polygon points="9 17 1 13 1 21"/>
   <polygon points="17 17 9 13 9 21"/>
   <rect x="51" y="3" width="66" height="32" rx="10"/>
   <rect x="49"
          y="1"
          width="66"
          height="32"
          class="terminal"
          rx="10"/>
   <text class="terminal" x="59" y="21">ARRAY</text>
   <rect x="51" y="47" width="60" height="32" rx="10"/>
   <rect x="49"
          y="45"
          width="60"
          height="32"
          class="terminal"
          rx="10"/>
   <text class="terminal" x="59" y="65">FIRST</text>
   <rect x="51" y="91" width="72" height="32" rx="10"/>
   <rect x="49"
          y="89"
          width="72"
          height="32"
          class="terminal"
          rx="10"/>
   <text class="terminal" x="59" y="109">OBJECT</text>
   <a xmlns:xlink="http://www.w3.org/1999/xlink"
       xlink:href="#name-expr"
       xlink:title="name-expr">
      <rect x="143" y="91" width="88" height="32"/>
      <rect x="141" y="89" width="88" height="32" class="nonterminal"/>
      <text class="nonterminal" x="151" y="109">name-expr</text>
   </a>
   <rect x="251" y="91" width="24" height="32" rx="10"/>
   <rect x="249"
          y="89"
          width="24"
          height="32"
          class="terminal"
          rx="10"/>
   <text class="terminal" x="259" y="109">:</text>
   <a xmlns:xlink="http://www.w3.org/1999/xlink"
       xlink:href="#var-expr"
       xlink:title="var-expr">
      <rect x="315" y="3" width="74" height="32"/>
      <rect x="313" y="1" width="74" height="32" class="nonterminal"/>
      <text class="nonterminal" x="323" y="21">var-expr</text>
   </a>
   <rect x="409" y="3" width="48" height="32" rx="10"/>
   <rect x="407"
          y="1"
          width="48"
          height="32"
          class="terminal"
          rx="10"/>
   <text class="terminal" x="417" y="21">FOR</text>
   <a xmlns:xlink="http://www.w3.org/1999/xlink"
       xlink:href="#range"
       xlink:title="range">
      <rect x="477" y="3" width="56" height="32"/>
      <rect x="475" y="1" width="56" height="32" class="nonterminal"/>
      <text class="nonterminal" x="485" y="21">range</text>
   </a>
   <rect x="573" y="35" width="62" height="32" rx="10"/>
   <rect x="571"
          y="33"
          width="62"
          height="32"
          class="terminal"
          rx="10"/>
   <text class="terminal" x="581" y="53">WHEN</text>
   <a xmlns:xlink="http://www.w3.org/1999/xlink"
       xlink:href="#cond"
       xlink:title="cond">
      <rect x="655" y="35" width="50" height="32"/>
      <rect x="653" y="33" width="50" height="32" class="nonterminal"/>
      <text class="nonterminal" x="663" y="53">cond</text>
   </a>
   <rect x="671" y="157" width="48" height="32" rx="10"/>
   <rect x="669"
          y="155"
          width="48"
          height="32"
          class="terminal"
          rx="10"/>
   <text class="terminal" x="679" y="175">END</text>
   <path class="line"
          d="m17 17 h2 m20 0 h10 m66 0 h10 m0 0 h158 m-264 0 h20 m244 0 h20 m-284 0 q10 0 10 10 m264 0 q0 -10 10 -10 m-274 10 v24 m264 0 v-24 m-264 24 q0 10 10 10 m244 0 q10 0 10 -10 m-254 10 h10 m60 0 h10 m0 0 h164 m-254 -10 v20 m264 0 v-20 m-264 20 v24 m264 0 v-24 m-264 24 q0 10 10 10 m244 0 q10 0 10 -10 m-254 10 h10 m72 0 h10 m0 0 h10 m88 0 h10 m0 0 h10 m24 0 h10 m20 -88 h10 m74 0 h10 m0 0 h10 m48 0 h10 m0 0 h10 m56 0 h10 m20 0 h10 m0 0 h142 m-172 0 h20 m152 0 h20 m-192 0 q10 0 10 10 m172 0 q0 -10 10 -10 m-182 10 v12 m172 0 v-12 m-172 12 q0 10 10 10 m152 0 q10 0 10 -10 m-162 10 h10 m62 0 h10 m0 0 h10 m50 0 h10 m22 -32 l2 0 m2 0 l2 0 m2 0 l2 0 m-98 154 l2 0 m2 0 l2 0 m2 0 l2 0 m2 0 h10 m48 0 h10 m3 0 h-3"/>
   <polygon points="737 171 745 167 745 175"/>
   <polygon points="737 171 729 167 729 175"/>
</svg>
