<?xml version="1.0" encoding="UTF-8"?>
<svg xmlns="http://www.w3.org/2000/svg" width="525" height="125">
   <defs>
      <style type="text/css">
    @namespace "http://www.w3.org/2000/svg";
    .line                 {fill: none; stroke: #332900; stroke-width: 1;}
    .bold-line            {stroke: #141000; shape-rendering: crispEdges; stroke-width: 2;}
    .thin-line            {stroke: #1F1800; shape-rendering: crispEdges}
    .filled               {fill: #332900; stroke: none;}
    text.terminal         {font-family: Verdana, Sans-serif;
                            font-size: 12px;
                            fill: #141000;
                            font-weight: bold;
                          }
    text.nonterminal      {font-family: Verdana, Sans-serif;
                            font-size: 12px;
                            fill: #1A1400;
                            font-weight: normal;
                          }
    text.regexp           {font-family: Verdana, Sans-serif;
                            font-size: 12px;
                            fill: #1F1800;
                            font-weight: normal;
                          }
    rect, circle, polygon {fill: #332900; stroke: #332900;}
    rect.terminal         {fill: #FFDB4D; stroke: #332900; stroke-width: 1;}
    rect.nonterminal      {fill: #FFEC9E; stroke: #332900; stroke-width: 1;}
    rect.text             {fill: none; stroke: none;}
    polygon.regexp        {fill: #FFF4C7; stroke: #332900; stroke-width: 1;}
  </style>
   </defs>
   <polygon points="9 61 1 57 1 65"/>
   <polygon points="17 61 9 57 9 65"/>
   <a xmlns:xlink="http://www.w3.org/1999/xlink"
       xlink:href="#name-var"
       xlink:title="name-var">
      <rect x="71" y="79" width="80" height="32"/>
      <rect x="69" y="77" width="80" height="32" class="nonterminal"/>
      <text class="nonterminal" x="79" y="97">name-var</text>
   </a>
   <rect x="171" y="79" width="24" height="32" rx="10"/>
   <rect x="169"
          y="77"
          width="24"
          height="32"
          class="terminal"
          rx="10"/>
   <text class="terminal" x="179" y="97">:</text>
   <a xmlns:xlink="http://www.w3.org/1999/xlink"
       xlink:href="#var"
       xlink:title="var">
      <rect x="235" y="47" width="40" height="32"/>
      <rect x="233" y="45" width="40" height="32" class="nonterminal"/>
      <text class="nonterminal" x="243" y="65">var</text>
   </a>
   <rect x="315" y="47" width="36" height="32" rx="10"/>
   <rect x="313"
          y="45"
          width="36"
          height="32"
          class="terminal"
          rx="10"/>
   <text class="terminal" x="323" y="65">IN</text>
   <rect x="315" y="91" width="74" height="32" rx="10"/>
   <rect x="313"
          y="89"
          width="74"
          height="32"
          class="terminal"
          rx="10"/>
   <text class="terminal" x="323" y="109">WITHIN</text>
   <a xmlns:xlink="http://www.w3.org/1999/xlink"
       xlink:href="#expr"
       xlink:title="expr">
      <rect x="429" y="47" width="48" height="32"/>
      <rect x="427" y="45" width="48" height="32" class="nonterminal"/>
      <text class="nonterminal" x="437" y="65">expr</text>
   </a>
   <rect x="51" y="3" width="24" height="32" rx="10"/>
   <rect x="49"
          y="1"
          width="24"
          height="32"
          class="terminal"
          rx="10"/>
   <text class="terminal" x="59" y="21">,</text>
   <path class="line"
          d="m17 61 h2 m40 0 h10 m0 0 h134 m-164 0 h20 m144 0 h20 m-184 0 q10 0 10 10 m164 0 q0 -10 10 -10 m-174 10 v12 m164 0 v-12 m-164 12 q0 10 10 10 m144 0 q10 0 10 -10 m-154 10 h10 m80 0 h10 m0 0 h10 m24 0 h10 m20 -32 h10 m40 0 h10 m20 0 h10 m36 0 h10 m0 0 h38 m-114 0 h20 m94 0 h20 m-134 0 q10 0 10 10 m114 0 q0 -10 10 -10 m-124 10 v24 m114 0 v-24 m-114 24 q0 10 10 10 m94 0 q10 0 10 -10 m-104 10 h10 m74 0 h10 m20 -44 h10 m48 0 h10 m-466 0 l20 0 m-1 0 q-9 0 -9 -10 l0 -24 q0 -10 10 -10 m446 44 l20 0 m-20 0 q10 0 10 -10 l0 -24 q0 -10 -10 -10 m-446 0 h10 m24 0 h10 m0 0 h402 m23 44 h-3"/>
   <polygon points="515 61 523 57 523 65"/>
   <polygon points="515 61 507 57 507 65"/>
</svg>
