<?xml version="1.0" encoding="UTF-8"?>
<svg xmlns="http://www.w3.org/2000/svg" width="275" height="345">
   <defs>
      <style type="text/css">
    @namespace "http://www.w3.org/2000/svg";
    .line                 {fill: none; stroke: #332900; stroke-width: 1;}
    .bold-line            {stroke: #141000; shape-rendering: crispEdges; stroke-width: 2;}
    .thin-line            {stroke: #1F1800; shape-rendering: crispEdges}
    .filled               {fill: #332900; stroke: none;}
    text.terminal         {font-family: Verdana, Sans-serif;
                            font-size: 12px;
                            fill: #141000;
                            font-weight: bold;
                          }
    text.nonterminal      {font-family: Verdana, Sans-serif;
                            font-size: 12px;
                            fill: #1A1400;
                            font-weight: normal;
                          }
    text.regexp           {font-family: Verdana, Sans-serif;
                            font-size: 12px;
                            fill: #1F1800;
                            font-weight: normal;
                          }
    rect, circle, polygon {fill: #332900; stroke: #332900;}
    rect.terminal         {fill: #FFDB4D; stroke: #332900; stroke-width: 1;}
    rect.nonterminal      {fill: #FFEC9E; stroke: #332900; stroke-width: 1;}
    rect.text             {fill: none; stroke: none;}
    polygon.regexp        {fill: #FFF4C7; stroke: #332900; stroke-width: 1;}
  </style>
   </defs>
   <polygon points="9 17 1 13 1 21"/>
   <polygon points="17 17 9 13 9 21"/>
   <a xmlns:xlink="http://www.w3.org/1999/xlink"
       xlink:href="#expr"
       xlink:title="expr">
      <rect x="51" y="3" width="48" height="32"/>
      <rect x="49" y="1" width="48" height="32" class="nonterminal"/>
      <text class="nonterminal" x="59" y="21">expr</text>
   </a>
   <rect x="119" y="3" width="30" height="32" rx="10"/>
   <rect x="117"
          y="1"
          width="30"
          height="32"
          class="terminal"
          rx="10"/>
   <text class="terminal" x="127" y="21">=</text>
   <a xmlns:xlink="http://www.w3.org/1999/xlink"
       xlink:href="#expr"
       xlink:title="expr">
      <rect x="169" y="3" width="48" height="32"/>
      <rect x="167" y="1" width="48" height="32" class="nonterminal"/>
      <text class="nonterminal" x="177" y="21">expr</text>
   </a>
   <a xmlns:xlink="http://www.w3.org/1999/xlink"
       xlink:href="#expr"
       xlink:title="expr">
      <rect x="51" y="47" width="48" height="32"/>
      <rect x="49" y="45" width="48" height="32" class="nonterminal"/>
      <text class="nonterminal" x="59" y="65">expr</text>
   </a>
   <rect x="119" y="47" width="40" height="32" rx="10"/>
   <rect x="117"
          y="45"
          width="40"
          height="32"
          class="terminal"
          rx="10"/>
   <text class="terminal" x="127" y="65">==</text>
   <a xmlns:xlink="http://www.w3.org/1999/xlink"
       xlink:href="#expr"
       xlink:title="expr">
      <rect x="179" y="47" width="48" height="32"/>
      <rect x="177" y="45" width="48" height="32" class="nonterminal"/>
      <text class="nonterminal" x="187" y="65">expr</text>
   </a>
   <a xmlns:xlink="http://www.w3.org/1999/xlink"
       xlink:href="#expr"
       xlink:title="expr">
      <rect x="51" y="91" width="48" height="32"/>
      <rect x="49" y="89" width="48" height="32" class="nonterminal"/>
      <text class="nonterminal" x="59" y="109">expr</text>
   </a>
   <rect x="119" y="91" width="34" height="32" rx="10"/>
   <rect x="117"
          y="89"
          width="34"
          height="32"
          class="terminal"
          rx="10"/>
   <text class="terminal" x="127" y="109">!=</text>
   <a xmlns:xlink="http://www.w3.org/1999/xlink"
       xlink:href="#expr"
       xlink:title="expr">
      <rect x="173" y="91" width="48" height="32"/>
      <rect x="171" y="89" width="48" height="32" class="nonterminal"/>
      <text class="nonterminal" x="181" y="109">expr</text>
   </a>
   <a xmlns:xlink="http://www.w3.org/1999/xlink"
       xlink:href="#expr"
       xlink:title="expr">
      <rect x="51" y="135" width="48" height="32"/>
      <rect x="49" y="133" width="48" height="32" class="nonterminal"/>
      <text class="nonterminal" x="59" y="153">expr</text>
   </a>
   <rect x="119" y="135" width="40" height="32" rx="10"/>
   <rect x="117"
          y="133"
          width="40"
          height="32"
          class="terminal"
          rx="10"/>
   <text class="terminal" x="127" y="153">&lt;&gt;</text>
   <a xmlns:xlink="http://www.w3.org/1999/xlink"
       xlink:href="#expr"
       xlink:title="expr">
      <rect x="179" y="135" width="48" height="32"/>
      <rect x="177" y="133" width="48" height="32" class="nonterminal"/>
      <text class="nonterminal" x="187" y="153">expr</text>
   </a>
   <a xmlns:xlink="http://www.w3.org/1999/xlink"
       xlink:href="#expr"
       xlink:title="expr">
      <rect x="51" y="179" width="48" height="32"/>
      <rect x="49" y="177" width="48" height="32" class="nonterminal"/>
      <text class="nonterminal" x="59" y="197">expr</text>
   </a>
   <rect x="119" y="179" width="30" height="32" rx="10"/>
   <rect x="117"
          y="177"
          width="30"
          height="32"
          class="terminal"
          rx="10"/>
   <text class="terminal" x="127" y="197">&gt;</text>
   <a xmlns:xlink="http://www.w3.org/1999/xlink"
       xlink:href="#expr"
       xlink:title="expr">
      <rect x="169" y="179" width="48" height="32"/>
      <rect x="167" y="177" width="48" height="32" class="nonterminal"/>
      <text class="nonterminal" x="177" y="197">expr</text>
   </a>
   <a xmlns:xlink="http://www.w3.org/1999/xlink"
       xlink:href="#expr"
       xlink:title="expr">
      <rect x="51" y="223" width="48" height="32"/>
      <rect x="49" y="221" width="48" height="32" class="nonterminal"/>
      <text class="nonterminal" x="59" y="241">expr</text>
   </a>
   <rect x="119" y="223" width="40" height="32" rx="10"/>
   <rect x="117"
          y="221"
          width="40"
          height="32"
          class="terminal"
          rx="10"/>
   <text class="terminal" x="127" y="241">&gt;=</text>
   <a xmlns:xlink="http://www.w3.org/1999/xlink"
       xlink:href="#expr"
       xlink:title="expr">
      <rect x="179" y="223" width="48" height="32"/>
      <rect x="177" y="221" width="48" height="32" class="nonterminal"/>
      <text class="nonterminal" x="187" y="241">expr</text>
   </a>
   <a xmlns:xlink="http://www.w3.org/1999/xlink"
       xlink:href="#expr"
       xlink:title="expr">
      <rect x="51" y="267" width="48" height="32"/>
      <rect x="49" y="265" width="48" height="32" class="nonterminal"/>
      <text class="nonterminal" x="59" y="285">expr</text>
   </a>
   <rect x="119" y="267" width="30" height="32" rx="10"/>
   <rect x="117"
          y="265"
          width="30"
          height="32"
          class="terminal"
          rx="10"/>
   <text class="terminal" x="127" y="285">&lt;</text>
   <a xmlns:xlink="http://www.w3.org/1999/xlink"
       xlink:href="#expr"
       xlink:title="expr">
      <rect x="169" y="267" width="48" height="32"/>
      <rect x="167" y="265" width="48" height="32" class="nonterminal"/>
      <text class="nonterminal" x="177" y="285">expr</text>
   </a>
   <a xmlns:xlink="http://www.w3.org/1999/xlink"
       xlink:href="#expr"
       xlink:title="expr">
      <rect x="51" y="311" width="48" height="32"/>
      <rect x="49" y="309" width="48" height="32" class="nonterminal"/>
      <text class="nonterminal" x="59" y="329">expr</text>
   </a>
   <rect x="119" y="311" width="40" height="32" rx="10"/>
   <rect x="117"
          y="309"
          width="40"
          height="32"
          class="terminal"
          rx="10"/>
   <text class="terminal" x="127" y="329">&lt;=</text>
   <a xmlns:xlink="http://www.w3.org/1999/xlink"
       xlink:href="#expr"
       xlink:title="expr">
      <rect x="179" y="311" width="48" height="32"/>
      <rect x="177" y="309" width="48" height="32" class="nonterminal"/>
      <text class="nonterminal" x="187" y="329">expr</text>
   </a>
   <path class="line"
          d="m17 17 h2 m20 0 h10 m48 0 h10 m0 0 h10 m30 0 h10 m0 0 h10 m48 0 h10 m0 0 h10 m-216 0 h20 m196 0 h20 m-236 0 q10 0 10 10 m216 0 q0 -10 10 -10 m-226 10 v24 m216 0 v-24 m-216 24 q0 10 10 10 m196 0 q10 0 10 -10 m-206 10 h10 m48 0 h10 m0 0 h10 m40 0 h10 m0 0 h10 m48 0 h10 m-206 -10 v20 m216 0 v-20 m-216 20 v24 m216 0 v-24 m-216 24 q0 10 10 10 m196 0 q10 0 10 -10 m-206 10 h10 m48 0 h10 m0 0 h10 m34 0 h10 m0 0 h10 m48 0 h10 m0 0 h6 m-206 -10 v20 m216 0 v-20 m-216 20 v24 m216 0 v-24 m-216 24 q0 10 10 10 m196 0 q10 0 10 -10 m-206 10 h10 m48 0 h10 m0 0 h10 m40 0 h10 m0 0 h10 m48 0 h10 m-206 -10 v20 m216 0 v-20 m-216 20 v24 m216 0 v-24 m-216 24 q0 10 10 10 m196 0 q10 0 10 -10 m-206 10 h10 m48 0 h10 m0 0 h10 m30 0 h10 m0 0 h10 m48 0 h10 m0 0 h10 m-206 -10 v20 m216 0 v-20 m-216 20 v24 m216 0 v-24 m-216 24 q0 10 10 10 m196 0 q10 0 10 -10 m-206 10 h10 m48 0 h10 m0 0 h10 m40 0 h10 m0 0 h10 m48 0 h10 m-206 -10 v20 m216 0 v-20 m-216 20 v24 m216 0 v-24 m-216 24 q0 10 10 10 m196 0 q10 0 10 -10 m-206 10 h10 m48 0 h10 m0 0 h10 m30 0 h10 m0 0 h10 m48 0 h10 m0 0 h10 m-206 -10 v20 m216 0 v-20 m-216 20 v24 m216 0 v-24 m-216 24 q0 10 10 10 m196 0 q10 0 10 -10 m-206 10 h10 m48 0 h10 m0 0 h10 m40 0 h10 m0 0 h10 m48 0 h10 m23 -308 h-3"/>
   <polygon points="265 17 273 13 273 21"/>
   <polygon points="265 17 257 13 257 21"/>
</svg>
