<?xml version="1.0" encoding="UTF-8"?>
<svg xmlns="http://www.w3.org/2000/svg" width="409" height="213">
   <defs>
      <style type="text/css">
    @namespace "http://www.w3.org/2000/svg";
    .line                 {fill: none; stroke: #332900; stroke-width: 1;}
    .bold-line            {stroke: #141000; shape-rendering: crispEdges; stroke-width: 2;}
    .thin-line            {stroke: #1F1800; shape-rendering: crispEdges}
    .filled               {fill: #332900; stroke: none;}
    text.terminal         {font-family: Verdana, Sans-serif;
                            font-size: 12px;
                            fill: #141000;
                            font-weight: bold;
                          }
    text.nonterminal      {font-family: Verdana, Sans-serif;
                            font-size: 12px;
                            fill: #1A1400;
                            font-weight: normal;
                          }
    text.regexp           {font-family: Verdana, Sans-serif;
                            font-size: 12px;
                            fill: #1F1800;
                            font-weight: normal;
                          }
    rect, circle, polygon {fill: #332900; stroke: #332900;}
    rect.terminal         {fill: #FFDB4D; stroke: #332900; stroke-width: 1;}
    rect.nonterminal      {fill: #FFEC9E; stroke: #332900; stroke-width: 1;}
    rect.text             {fill: none; stroke: none;}
    polygon.regexp        {fill: #FFF4C7; stroke: #332900; stroke-width: 1;}
  </style>
   </defs>
   <polygon points="9 61 1 57 1 65"/>
   <polygon points="17 61 9 57 9 65"/>
   <rect x="31" y="47" width="100" height="32" rx="10"/>
   <rect x="29"
          y="45"
          width="100"
          height="32"
          class="terminal"
          rx="10"/>
   <text class="terminal" x="39" y="65">RETURNING</text>
   <a xmlns:xlink="http://www.w3.org/1999/xlink"
       xlink:href="#result-expr"
       xlink:title="result-expr">
      <rect x="191" y="47" width="90" height="32"/>
      <rect x="189" y="45" width="90" height="32" class="nonterminal"/>
      <text class="nonterminal" x="199" y="65">result-expr</text>
   </a>
   <rect x="191" y="3" width="24" height="32" rx="10"/>
   <rect x="189"
          y="1"
          width="24"
          height="32"
          class="terminal"
          rx="10"/>
   <text class="terminal" x="199" y="21">,</text>
   <rect x="191" y="91" width="52" height="32" rx="10"/>
   <rect x="189"
          y="89"
          width="52"
          height="32"
          class="terminal"
          rx="10"/>
   <text class="terminal" x="199" y="109">RAW</text>
   <rect x="191" y="135" width="82" height="32" rx="10"/>
   <rect x="189"
          y="133"
          width="82"
          height="32"
          class="terminal"
          rx="10"/>
   <text class="terminal" x="199" y="153">ELEMENT</text>
   <rect x="191" y="179" width="64" height="32" rx="10"/>
   <rect x="189"
          y="177"
          width="64"
          height="32"
          class="terminal"
          rx="10"/>
   <text class="terminal" x="199" y="197">VALUE</text>
   <a xmlns:xlink="http://www.w3.org/1999/xlink"
       xlink:href="#expr"
       xlink:title="expr">
      <rect x="313" y="91" width="48" height="32"/>
      <rect x="311" y="89" width="48" height="32" class="nonterminal"/>
      <text class="nonterminal" x="321" y="109">expr</text>
   </a>
   <path class="line"
          d="m17 61 h2 m0 0 h10 m100 0 h10 m40 0 h10 m90 0 h10 m-130 0 l20 0 m-1 0 q-9 0 -9 -10 l0 -24 q0 -10 10 -10 m110 44 l20 0 m-20 0 q10 0 10 -10 l0 -24 q0 -10 -10 -10 m-110 0 h10 m24 0 h10 m0 0 h66 m20 44 h60 m-230 0 h20 m210 0 h20 m-250 0 q10 0 10 10 m230 0 q0 -10 10 -10 m-240 10 v24 m230 0 v-24 m-230 24 q0 10 10 10 m210 0 q10 0 10 -10 m-200 10 h10 m52 0 h10 m0 0 h30 m-122 0 h20 m102 0 h20 m-142 0 q10 0 10 10 m122 0 q0 -10 10 -10 m-132 10 v24 m122 0 v-24 m-122 24 q0 10 10 10 m102 0 q10 0 10 -10 m-112 10 h10 m82 0 h10 m-112 -10 v20 m122 0 v-20 m-122 20 v24 m122 0 v-24 m-122 24 q0 10 10 10 m102 0 q10 0 10 -10 m-112 10 h10 m64 0 h10 m0 0 h18 m20 -88 h10 m48 0 h10 m23 -44 h-3"/>
   <polygon points="399 61 407 57 407 65"/>
   <polygon points="399 61 391 57 391 65"/>
</svg>
