<?xml version="1.0" encoding="UTF-8"?>
<svg xmlns="http://www.w3.org/2000/svg" width="687" height="157">
   <defs>
      <style type="text/css">
    @namespace "http://www.w3.org/2000/svg";
    .line                 {fill: none; stroke: #332900; stroke-width: 1;}
    .bold-line            {stroke: #141000; shape-rendering: crispEdges; stroke-width: 2;}
    .thin-line            {stroke: #1F1800; shape-rendering: crispEdges}
    .filled               {fill: #332900; stroke: none;}
    text.terminal         {font-family: Verdana, Sans-serif;
                            font-size: 12px;
                            fill: #141000;
                            font-weight: bold;
                          }
    text.nonterminal      {font-family: Verdana, Sans-serif;
                            font-size: 12px;
                            fill: #1A1400;
                            font-weight: normal;
                          }
    text.regexp           {font-family: Verdana, Sans-serif;
                            font-size: 12px;
                            fill: #1F1800;
                            font-weight: normal;
                          }
    rect, circle, polygon {fill: #332900; stroke: #332900;}
    rect.terminal         {fill: #FFDB4D; stroke: #332900; stroke-width: 1;}
    rect.nonterminal      {fill: #FFEC9E; stroke: #332900; stroke-width: 1;}
    rect.text             {fill: none; stroke: none;}
    polygon.regexp        {fill: #FFF4C7; stroke: #332900; stroke-width: 1;}
  </style>
   </defs>
   <polygon points="9 17 1 13 1 21"/>
   <polygon points="17 17 9 13 9 21"/>
   <rect x="31" y="3" width="92" height="32" rx="10"/>
   <rect x="29"
          y="1"
          width="92"
          height="32"
          class="terminal"
          rx="10"/>
   <text class="terminal" x="39" y="21">ROLLBACK</text>
   <rect x="163" y="35" width="64" height="32" rx="10"/>
   <rect x="161"
          y="33"
          width="64"
          height="32"
          class="terminal"
          rx="10"/>
   <text class="terminal" x="171" y="53">WORK</text>
   <rect x="163" y="79" width="56" height="32" rx="10"/>
   <rect x="161"
          y="77"
          width="56"
          height="32"
          class="terminal"
          rx="10"/>
   <text class="terminal" x="171" y="97">TRAN</text>
   <rect x="163" y="123" width="120" height="32" rx="10"/>
   <rect x="161"
          y="121"
          width="120"
          height="32"
          class="terminal"
          rx="10"/>
   <text class="terminal" x="171" y="141">TRANSACTION</text>
   <rect x="343" y="35" width="38" height="32" rx="10"/>
   <rect x="341"
          y="33"
          width="38"
          height="32"
          class="terminal"
          rx="10"/>
   <text class="terminal" x="351" y="53">TO</text>
   <rect x="401" y="35" width="100" height="32" rx="10"/>
   <rect x="399"
          y="33"
          width="100"
          height="32"
          class="terminal"
          rx="10"/>
   <text class="terminal" x="409" y="53">SAVEPOINT</text>
   <a xmlns:xlink="http://www.w3.org/1999/xlink"
       xlink:href="#savepointname"
       xlink:title="savepointname">
      <rect x="521" y="35" width="118" height="32"/>
      <rect x="519" y="33" width="118" height="32" class="nonterminal"/>
      <text class="nonterminal" x="529" y="53">savepointname</text>
   </a>
   <path class="line"
          d="m17 17 h2 m0 0 h10 m92 0 h10 m20 0 h10 m0 0 h130 m-160 0 h20 m140 0 h20 m-180 0 q10 0 10 10 m160 0 q0 -10 10 -10 m-170 10 v12 m160 0 v-12 m-160 12 q0 10 10 10 m140 0 q10 0 10 -10 m-150 10 h10 m64 0 h10 m0 0 h56 m-150 -10 v20 m160 0 v-20 m-160 20 v24 m160 0 v-24 m-160 24 q0 10 10 10 m140 0 q10 0 10 -10 m-150 10 h10 m56 0 h10 m0 0 h64 m-150 -10 v20 m160 0 v-20 m-160 20 v24 m160 0 v-24 m-160 24 q0 10 10 10 m140 0 q10 0 10 -10 m-150 10 h10 m120 0 h10 m40 -120 h10 m0 0 h306 m-336 0 h20 m316 0 h20 m-356 0 q10 0 10 10 m336 0 q0 -10 10 -10 m-346 10 v12 m336 0 v-12 m-336 12 q0 10 10 10 m316 0 q10 0 10 -10 m-326 10 h10 m38 0 h10 m0 0 h10 m100 0 h10 m0 0 h10 m118 0 h10 m23 -32 h-3"/>
   <polygon points="677 17 685 13 685 21"/>
   <polygon points="677 17 669 13 669 21"/>
</svg>
