<?xml version="1.0" encoding="UTF-8"?>
<svg xmlns="http://www.w3.org/2000/svg" width="685" height="113">
   <defs>
      <style type="text/css">
    @namespace "http://www.w3.org/2000/svg";
    .line                 {fill: none; stroke: #332900; stroke-width: 1;}
    .bold-line            {stroke: #141000; shape-rendering: crispEdges; stroke-width: 2;}
    .thin-line            {stroke: #1F1800; shape-rendering: crispEdges}
    .filled               {fill: #332900; stroke: none;}
    text.terminal         {font-family: Verdana, Sans-serif;
                            font-size: 12px;
                            fill: #141000;
                            font-weight: bold;
                          }
    text.nonterminal      {font-family: Verdana, Sans-serif;
                            font-size: 12px;
                            fill: #1A1400;
                            font-weight: normal;
                          }
    text.regexp           {font-family: Verdana, Sans-serif;
                            font-size: 12px;
                            fill: #1F1800;
                            font-weight: normal;
                          }
    rect, circle, polygon {fill: #332900; stroke: #332900;}
    rect.terminal         {fill: #FFDB4D; stroke: #332900; stroke-width: 1;}
    rect.nonterminal      {fill: #FFEC9E; stroke: #332900; stroke-width: 1;}
    rect.text             {fill: none; stroke: none;}
    polygon.regexp        {fill: #FFF4C7; stroke: #332900; stroke-width: 1;}
  </style>
   </defs>
   <polygon points="9 61 1 57 1 65"/>
   <polygon points="17 61 9 57 9 65"/>
   <a xmlns:xlink="http://www.w3.org/1999/xlink"
       xlink:href="#select-term"
       xlink:title="select-term">
      <rect x="51" y="47" width="92" height="32"/>
      <rect x="49" y="45" width="92" height="32" class="nonterminal"/>
      <text class="nonterminal" x="59" y="65">select-term</text>
   </a>
   <a xmlns:xlink="http://www.w3.org/1999/xlink"
       xlink:href="#set-op"
       xlink:title="set-op">
      <rect x="51" y="3" width="60" height="32"/>
      <rect x="49" y="1" width="60" height="32" class="nonterminal"/>
      <text class="nonterminal" x="59" y="21">set-op</text>
   </a>
   <a xmlns:xlink="http://www.w3.org/1999/xlink"
       xlink:href="#order-by-clause"
       xlink:title="order-by-clause">
      <rect x="203" y="79" width="120" height="32"/>
      <rect x="201" y="77" width="120" height="32" class="nonterminal"/>
      <text class="nonterminal" x="211" y="97">order-by-clause</text>
   </a>
   <a xmlns:xlink="http://www.w3.org/1999/xlink"
       xlink:href="#limit-clause"
       xlink:title="limit-clause">
      <rect x="383" y="79" width="92" height="32"/>
      <rect x="381" y="77" width="92" height="32" class="nonterminal"/>
      <text class="nonterminal" x="391" y="97">limit-clause</text>
   </a>
   <a xmlns:xlink="http://www.w3.org/1999/xlink"
       xlink:href="#offset-clause"
       xlink:title="offset-clause">
      <rect x="535" y="79" width="102" height="32"/>
      <rect x="533" y="77" width="102" height="32" class="nonterminal"/>
      <text class="nonterminal" x="543" y="97">offset-clause</text>
   </a>
   <path class="line"
          d="m17 61 h2 m20 0 h10 m92 0 h10 m-132 0 l20 0 m-1 0 q-9 0 -9 -10 l0 -24 q0 -10 10 -10 m112 44 l20 0 m-20 0 q10 0 10 -10 l0 -24 q0 -10 -10 -10 m-112 0 h10 m60 0 h10 m0 0 h32 m40 44 h10 m0 0 h130 m-160 0 h20 m140 0 h20 m-180 0 q10 0 10 10 m160 0 q0 -10 10 -10 m-170 10 v12 m160 0 v-12 m-160 12 q0 10 10 10 m140 0 q10 0 10 -10 m-150 10 h10 m120 0 h10 m40 -32 h10 m0 0 h102 m-132 0 h20 m112 0 h20 m-152 0 q10 0 10 10 m132 0 q0 -10 10 -10 m-142 10 v12 m132 0 v-12 m-132 12 q0 10 10 10 m112 0 q10 0 10 -10 m-122 10 h10 m92 0 h10 m40 -32 h10 m0 0 h112 m-142 0 h20 m122 0 h20 m-162 0 q10 0 10 10 m142 0 q0 -10 10 -10 m-152 10 v12 m142 0 v-12 m-142 12 q0 10 10 10 m122 0 q10 0 10 -10 m-132 10 h10 m102 0 h10 m23 -32 h-3"/>
   <polygon points="675 61 683 57 683 65"/>
   <polygon points="675 61 667 57 667 65"/>
</svg>
