<?xml version="1.0" encoding="UTF-8"?>
<svg xmlns="http://www.w3.org/2000/svg" width="517" height="157">
   <defs>
      <style type="text/css">
    @namespace "http://www.w3.org/2000/svg";
    .line                 {fill: none; stroke: #332900; stroke-width: 1;}
    .bold-line            {stroke: #141000; shape-rendering: crispEdges; stroke-width: 2;}
    .thin-line            {stroke: #1F1800; shape-rendering: crispEdges}
    .filled               {fill: #332900; stroke: none;}
    text.terminal         {font-family: Verdana, Sans-serif;
                            font-size: 12px;
                            fill: #141000;
                            font-weight: bold;
                          }
    text.nonterminal      {font-family: Verdana, Sans-serif;
                            font-size: 12px;
                            fill: #1A1400;
                            font-weight: normal;
                          }
    text.regexp           {font-family: Verdana, Sans-serif;
                            font-size: 12px;
                            fill: #1F1800;
                            font-weight: normal;
                          }
    rect, circle, polygon {fill: #332900; stroke: #332900;}
    rect.terminal         {fill: #FFDB4D; stroke: #332900; stroke-width: 1;}
    rect.nonterminal      {fill: #FFEC9E; stroke: #332900; stroke-width: 1;}
    rect.text             {fill: none; stroke: none;}
    polygon.regexp        {fill: #FFF4C7; stroke: #332900; stroke-width: 1;}
  </style>
   </defs>
   <polygon points="9 61 1 57 1 65"/>
   <polygon points="17 61 9 57 9 65"/>
   <rect x="31" y="47" width="44" height="32" rx="10"/>
   <rect x="29"
          y="45"
          width="44"
          height="32"
          class="terminal"
          rx="10"/>
   <text class="terminal" x="39" y="65">SET</text>
   <a xmlns:xlink="http://www.w3.org/1999/xlink"
       xlink:href="#meta"
       xlink:title="meta">
      <rect x="135" y="47" width="52" height="32"/>
      <rect x="133" y="45" width="52" height="32" class="nonterminal"/>
      <text class="nonterminal" x="143" y="65">meta</text>
   </a>
   <rect x="207" y="47" width="30" height="32" rx="10"/>
   <rect x="205"
          y="45"
          width="30"
          height="32"
          class="terminal"
          rx="10"/>
   <text class="terminal" x="215" y="65">=</text>
   <a xmlns:xlink="http://www.w3.org/1999/xlink"
       xlink:href="#expiration"
       xlink:title="expiration">
      <rect x="257" y="47" width="84" height="32"/>
      <rect x="255" y="45" width="84" height="32" class="nonterminal"/>
      <text class="nonterminal" x="265" y="65">expiration</text>
   </a>
   <a xmlns:xlink="http://www.w3.org/1999/xlink"
       xlink:href="#path"
       xlink:title="path">
      <rect x="135" y="91" width="48" height="32"/>
      <rect x="133" y="89" width="48" height="32" class="nonterminal"/>
      <text class="nonterminal" x="143" y="109">path</text>
   </a>
   <rect x="203" y="91" width="30" height="32" rx="10"/>
   <rect x="201"
          y="89"
          width="30"
          height="32"
          class="terminal"
          rx="10"/>
   <text class="terminal" x="211" y="109">=</text>
   <a xmlns:xlink="http://www.w3.org/1999/xlink"
       xlink:href="#expr"
       xlink:title="expr">
      <rect x="253" y="91" width="48" height="32"/>
      <rect x="251" y="89" width="48" height="32" class="nonterminal"/>
      <text class="nonterminal" x="261" y="109">expr</text>
   </a>
   <a xmlns:xlink="http://www.w3.org/1999/xlink"
       xlink:href="#update-for"
       xlink:title="update-for">
      <rect x="341" y="123" width="88" height="32"/>
      <rect x="339" y="121" width="88" height="32" class="nonterminal"/>
      <text class="nonterminal" x="349" y="141">update-for</text>
   </a>
   <rect x="115" y="3" width="24" height="32" rx="10"/>
   <rect x="113"
          y="1"
          width="24"
          height="32"
          class="terminal"
          rx="10"/>
   <text class="terminal" x="123" y="21">,</text>
   <path class="line"
          d="m17 61 h2 m0 0 h10 m44 0 h10 m40 0 h10 m52 0 h10 m0 0 h10 m30 0 h10 m0 0 h10 m84 0 h10 m0 0 h108 m-354 0 h20 m334 0 h20 m-374 0 q10 0 10 10 m354 0 q0 -10 10 -10 m-364 10 v24 m354 0 v-24 m-354 24 q0 10 10 10 m334 0 q10 0 10 -10 m-344 10 h10 m48 0 h10 m0 0 h10 m30 0 h10 m0 0 h10 m48 0 h10 m20 0 h10 m0 0 h98 m-128 0 h20 m108 0 h20 m-148 0 q10 0 10 10 m128 0 q0 -10 10 -10 m-138 10 v12 m128 0 v-12 m-128 12 q0 10 10 10 m108 0 q10 0 10 -10 m-118 10 h10 m88 0 h10 m-354 -76 l20 0 m-1 0 q-9 0 -9 -10 l0 -24 q0 -10 10 -10 m374 44 l20 0 m-20 0 q10 0 10 -10 l0 -24 q0 -10 -10 -10 m-374 0 h10 m24 0 h10 m0 0 h330 m23 44 h-3"/>
   <polygon points="507 61 515 57 515 65"/>
   <polygon points="507 61 499 57 499 65"/>
</svg>
