<?xml version="1.0" encoding="UTF-8"?>
<svg xmlns="http://www.w3.org/2000/svg" width="225" height="257">
   <defs>
      <style type="text/css">
    @namespace "http://www.w3.org/2000/svg";
    .line                 {fill: none; stroke: #332900; stroke-width: 1;}
    .bold-line            {stroke: #141000; shape-rendering: crispEdges; stroke-width: 2;}
    .thin-line            {stroke: #1F1800; shape-rendering: crispEdges}
    .filled               {fill: #332900; stroke: none;}
    text.terminal         {font-family: Verdana, Sans-serif;
                            font-size: 12px;
                            fill: #141000;
                            font-weight: bold;
                          }
    text.nonterminal      {font-family: Verdana, Sans-serif;
                            font-size: 12px;
                            fill: #1A1400;
                            font-weight: normal;
                          }
    text.regexp           {font-family: Verdana, Sans-serif;
                            font-size: 12px;
                            fill: #1F1800;
                            font-weight: normal;
                          }
    rect, circle, polygon {fill: #332900; stroke: #332900;}
    rect.terminal         {fill: #FFDB4D; stroke: #332900; stroke-width: 1;}
    rect.nonterminal      {fill: #FFEC9E; stroke: #332900; stroke-width: 1;}
    rect.text             {fill: none; stroke: none;}
    polygon.regexp        {fill: #FFF4C7; stroke: #332900; stroke-width: 1;}
  </style>
   </defs>
   <polygon points="9 17 1 13 1 21"/>
   <polygon points="17 17 9 13 9 21"/>
   <a xmlns:xlink="http://www.w3.org/1999/xlink"
       xlink:href="#dcl-statement"
       xlink:title="dcl-statement">
      <rect x="51" y="3" width="108" height="32"/>
      <rect x="49" y="1" width="108" height="32" class="nonterminal"/>
      <text class="nonterminal" x="59" y="21">dcl-statement</text>
   </a>
   <a xmlns:xlink="http://www.w3.org/1999/xlink"
       xlink:href="#ddl-statement"
       xlink:title="ddl-statement">
      <rect x="51" y="47" width="110" height="32"/>
      <rect x="49" y="45" width="110" height="32" class="nonterminal"/>
      <text class="nonterminal" x="59" y="65">ddl-statement</text>
   </a>
   <a xmlns:xlink="http://www.w3.org/1999/xlink"
       xlink:href="#dml-statement"
       xlink:title="dml-statement">
      <rect x="51" y="91" width="114" height="32"/>
      <rect x="49" y="89" width="114" height="32" class="nonterminal"/>
      <text class="nonterminal" x="59" y="109">dml-statement</text>
   </a>
   <a xmlns:xlink="http://www.w3.org/1999/xlink"
       xlink:href="#dql-statement"
       xlink:title="dql-statement">
      <rect x="51" y="135" width="110" height="32"/>
      <rect x="49" y="133" width="110" height="32" class="nonterminal"/>
      <text class="nonterminal" x="59" y="153">dql-statement</text>
   </a>
   <a xmlns:xlink="http://www.w3.org/1999/xlink"
       xlink:href="#tcl-statement"
       xlink:title="tcl-statement">
      <rect x="51" y="179" width="106" height="32"/>
      <rect x="49" y="177" width="106" height="32" class="nonterminal"/>
      <text class="nonterminal" x="59" y="197">tcl-statement</text>
   </a>
   <a xmlns:xlink="http://www.w3.org/1999/xlink"
       xlink:href="#utility-statement"
       xlink:title="utility-statement">
      <rect x="51" y="223" width="126" height="32"/>
      <rect x="49" y="221" width="126" height="32" class="nonterminal"/>
      <text class="nonterminal" x="59" y="241">utility-statement</text>
   </a>
   <path class="line"
          d="m17 17 h2 m20 0 h10 m108 0 h10 m0 0 h18 m-166 0 h20 m146 0 h20 m-186 0 q10 0 10 10 m166 0 q0 -10 10 -10 m-176 10 v24 m166 0 v-24 m-166 24 q0 10 10 10 m146 0 q10 0 10 -10 m-156 10 h10 m110 0 h10 m0 0 h16 m-156 -10 v20 m166 0 v-20 m-166 20 v24 m166 0 v-24 m-166 24 q0 10 10 10 m146 0 q10 0 10 -10 m-156 10 h10 m114 0 h10 m0 0 h12 m-156 -10 v20 m166 0 v-20 m-166 20 v24 m166 0 v-24 m-166 24 q0 10 10 10 m146 0 q10 0 10 -10 m-156 10 h10 m110 0 h10 m0 0 h16 m-156 -10 v20 m166 0 v-20 m-166 20 v24 m166 0 v-24 m-166 24 q0 10 10 10 m146 0 q10 0 10 -10 m-156 10 h10 m106 0 h10 m0 0 h20 m-156 -10 v20 m166 0 v-20 m-166 20 v24 m166 0 v-24 m-166 24 q0 10 10 10 m146 0 q10 0 10 -10 m-156 10 h10 m126 0 h10 m23 -220 h-3"/>
   <polygon points="215 17 223 13 223 21"/>
   <polygon points="215 17 207 13 207 21"/>
</svg>
