<?xml version="1.0" encoding="UTF-8"?>
<svg xmlns="http://www.w3.org/2000/svg" width="613" height="101">
   <defs>
      <style type="text/css">
    @namespace "http://www.w3.org/2000/svg";
    .line                 {fill: none; stroke: #332900; stroke-width: 1;}
    .bold-line            {stroke: #141000; shape-rendering: crispEdges; stroke-width: 2;}
    .thin-line            {stroke: #1F1800; shape-rendering: crispEdges}
    .filled               {fill: #332900; stroke: none;}
    text.terminal         {font-family: Verdana, Sans-serif;
                            font-size: 12px;
                            fill: #141000;
                            font-weight: bold;
                          }
    text.nonterminal      {font-family: Verdana, Sans-serif;
                            font-size: 12px;
                            fill: #1A1400;
                            font-weight: normal;
                          }
    text.regexp           {font-family: Verdana, Sans-serif;
                            font-size: 12px;
                            fill: #1F1800;
                            font-weight: normal;
                          }
    rect, circle, polygon {fill: #332900; stroke: #332900;}
    rect.terminal         {fill: #FFDB4D; stroke: #332900; stroke-width: 1;}
    rect.nonterminal      {fill: #FFEC9E; stroke: #332900; stroke-width: 1;}
    rect.text             {fill: none; stroke: none;}
    polygon.regexp        {fill: #FFF4C7; stroke: #332900; stroke-width: 1;}
  </style>
   </defs>
   <polygon points="9 17 1 13 1 21"/>
   <polygon points="17 17 9 13 9 21"/>
   <a xmlns:xlink="http://www.w3.org/1999/xlink"
       xlink:href="#unnest-type"
       xlink:title="unnest-type">
      <rect x="51" y="35" width="98" height="32"/>
      <rect x="49" y="33" width="98" height="32" class="nonterminal"/>
      <text class="nonterminal" x="59" y="53">unnest-type</text>
   </a>
   <rect x="209" y="3" width="74" height="32" rx="10"/>
   <rect x="207"
          y="1"
          width="74"
          height="32"
          class="terminal"
          rx="10"/>
   <text class="terminal" x="217" y="21">UNNEST</text>
   <rect x="209" y="47" width="80" height="32" rx="10"/>
   <rect x="207"
          y="45"
          width="80"
          height="32"
          class="terminal"
          rx="10"/>
   <text class="terminal" x="217" y="65">FLATTEN</text>
   <a xmlns:xlink="http://www.w3.org/1999/xlink"
       xlink:href="#expr"
       xlink:title="expr">
      <rect x="329" y="3" width="48" height="32"/>
      <rect x="327" y="1" width="48" height="32" class="nonterminal"/>
      <text class="nonterminal" x="337" y="21">expr</text>
   </a>
   <rect x="437" y="67" width="38" height="32" rx="10"/>
   <rect x="435"
          y="65"
          width="38"
          height="32"
          class="terminal"
          rx="10"/>
   <text class="terminal" x="445" y="85">AS</text>
   <a xmlns:xlink="http://www.w3.org/1999/xlink"
       xlink:href="#alias"
       xlink:title="alias">
      <rect x="515" y="35" width="50" height="32"/>
      <rect x="513" y="33" width="50" height="32" class="nonterminal"/>
      <text class="nonterminal" x="523" y="53">alias</text>
   </a>
   <path class="line"
          d="m17 17 h2 m20 0 h10 m0 0 h108 m-138 0 h20 m118 0 h20 m-158 0 q10 0 10 10 m138 0 q0 -10 10 -10 m-148 10 v12 m138 0 v-12 m-138 12 q0 10 10 10 m118 0 q10 0 10 -10 m-128 10 h10 m98 0 h10 m40 -32 h10 m74 0 h10 m0 0 h6 m-120 0 h20 m100 0 h20 m-140 0 q10 0 10 10 m120 0 q0 -10 10 -10 m-130 10 v24 m120 0 v-24 m-120 24 q0 10 10 10 m100 0 q10 0 10 -10 m-110 10 h10 m80 0 h10 m20 -44 h10 m48 0 h10 m20 0 h10 m0 0 h158 m-188 0 h20 m168 0 h20 m-208 0 q10 0 10 10 m188 0 q0 -10 10 -10 m-198 10 v12 m188 0 v-12 m-188 12 q0 10 10 10 m168 0 q10 0 10 -10 m-158 10 h10 m0 0 h48 m-78 0 h20 m58 0 h20 m-98 0 q10 0 10 10 m78 0 q0 -10 10 -10 m-88 10 v12 m78 0 v-12 m-78 12 q0 10 10 10 m58 0 q10 0 10 -10 m-68 10 h10 m38 0 h10 m20 -32 h10 m50 0 h10 m23 -32 h-3"/>
   <polygon points="603 17 611 13 611 21"/>
   <polygon points="603 17 595 13 595 21"/>
</svg>
