<?xml version="1.0" encoding="UTF-8"?>
<svg xmlns="http://www.w3.org/2000/svg" width="379" height="113">
   <defs>
      <style type="text/css">
    @namespace "http://www.w3.org/2000/svg";
    .line                 {fill: none; stroke: #332900; stroke-width: 1;}
    .bold-line            {stroke: #141000; shape-rendering: crispEdges; stroke-width: 2;}
    .thin-line            {stroke: #1F1800; shape-rendering: crispEdges}
    .filled               {fill: #332900; stroke: none;}
    text.terminal         {font-family: Verdana, Sans-serif;
                            font-size: 12px;
                            fill: #141000;
                            font-weight: bold;
                          }
    text.nonterminal      {font-family: Verdana, Sans-serif;
                            font-size: 12px;
                            fill: #1A1400;
                            font-weight: normal;
                          }
    text.regexp           {font-family: Verdana, Sans-serif;
                            font-size: 12px;
                            fill: #1F1800;
                            font-weight: normal;
                          }
    rect, circle, polygon {fill: #332900; stroke: #332900;}
    rect.terminal         {fill: #FFDB4D; stroke: #332900; stroke-width: 1;}
    rect.nonterminal      {fill: #FFEC9E; stroke: #332900; stroke-width: 1;}
    rect.text             {fill: none; stroke: none;}
    polygon.regexp        {fill: #FFF4C7; stroke: #332900; stroke-width: 1;}
  </style>
   </defs>
   <polygon points="9 61 1 57 1 65"/>
   <polygon points="17 61 9 57 9 65"/>
   <rect x="31" y="47" width="64" height="32" rx="10"/>
   <rect x="29"
          y="45"
          width="64"
          height="32"
          class="terminal"
          rx="10"/>
   <text class="terminal" x="39" y="65">UNSET</text>
   <a xmlns:xlink="http://www.w3.org/1999/xlink"
       xlink:href="#path"
       xlink:title="path">
      <rect x="135" y="47" width="48" height="32"/>
      <rect x="133" y="45" width="48" height="32" class="nonterminal"/>
      <text class="nonterminal" x="143" y="65">path</text>
   </a>
   <a xmlns:xlink="http://www.w3.org/1999/xlink"
       xlink:href="#update-for"
       xlink:title="update-for">
      <rect x="223" y="79" width="88" height="32"/>
      <rect x="221" y="77" width="88" height="32" class="nonterminal"/>
      <text class="nonterminal" x="231" y="97">update-for</text>
   </a>
   <rect x="135" y="3" width="24" height="32" rx="10"/>
   <rect x="133"
          y="1"
          width="24"
          height="32"
          class="terminal"
          rx="10"/>
   <text class="terminal" x="143" y="21">,</text>
   <path class="line"
          d="m17 61 h2 m0 0 h10 m64 0 h10 m20 0 h10 m48 0 h10 m20 0 h10 m0 0 h98 m-128 0 h20 m108 0 h20 m-148 0 q10 0 10 10 m128 0 q0 -10 10 -10 m-138 10 v12 m128 0 v-12 m-128 12 q0 10 10 10 m108 0 q10 0 10 -10 m-118 10 h10 m88 0 h10 m-216 -32 l20 0 m-1 0 q-9 0 -9 -10 l0 -24 q0 -10 10 -10 m216 44 l20 0 m-20 0 q10 0 10 -10 l0 -24 q0 -10 -10 -10 m-216 0 h10 m24 0 h10 m0 0 h172 m23 44 h-3"/>
   <polygon points="369 61 377 57 377 65"/>
   <polygon points="369 61 361 57 361 65"/>
</svg>
