<?xml version="1.0" encoding="UTF-8"?>
<svg xmlns="http://www.w3.org/2000/svg" width="631" height="167">
   <defs>
      <style type="text/css">
    @namespace "http://www.w3.org/2000/svg";
    .line                 {fill: none; stroke: #332900; stroke-width: 1;}
    .bold-line            {stroke: #141000; shape-rendering: crispEdges; stroke-width: 2;}
    .thin-line            {stroke: #1F1800; shape-rendering: crispEdges}
    .filled               {fill: #332900; stroke: none;}
    text.terminal         {font-family: Verdana, Sans-serif;
                            font-size: 12px;
                            fill: #141000;
                            font-weight: bold;
                          }
    text.nonterminal      {font-family: Verdana, Sans-serif;
                            font-size: 12px;
                            fill: #1A1400;
                            font-weight: normal;
                          }
    text.regexp           {font-family: Verdana, Sans-serif;
                            font-size: 12px;
                            fill: #1F1800;
                            font-weight: normal;
                          }
    rect, circle, polygon {fill: #332900; stroke: #332900;}
    rect.terminal         {fill: #FFDB4D; stroke: #332900; stroke-width: 1;}
    rect.nonterminal      {fill: #FFEC9E; stroke: #332900; stroke-width: 1;}
    rect.text             {fill: none; stroke: none;}
    polygon.regexp        {fill: #FFF4C7; stroke: #332900; stroke-width: 1;}
  </style>
   </defs>
   <polygon points="9 17 1 13 1 21"/>
   <polygon points="17 17 9 13 9 21"/>
   <rect x="51" y="3" width="74" height="32" rx="10"/>
   <rect x="49"
          y="1"
          width="74"
          height="32"
          class="terminal"
          rx="10"/>
   <text class="terminal" x="59" y="21">UPDATE</text>
   <rect x="145" y="3" width="102" height="32" rx="10"/>
   <rect x="143"
          y="1"
          width="102"
          height="32"
          class="terminal"
          rx="10"/>
   <text class="terminal" x="153" y="21">STATISTICS</text>
   <rect x="267" y="3" width="48" height="32" rx="10"/>
   <rect x="265"
          y="1"
          width="48"
          height="32"
          class="terminal"
          rx="10"/>
   <text class="terminal" x="275" y="21">FOR</text>
   <rect x="51" y="47" width="82" height="32" rx="10"/>
   <rect x="49"
          y="45"
          width="82"
          height="32"
          class="terminal"
          rx="10"/>
   <text class="terminal" x="59" y="65">ANALYZE</text>
   <a xmlns:xlink="http://www.w3.org/1999/xlink"
       xlink:href="#index-clause"
       xlink:title="index-clause">
      <rect x="355" y="3" width="100" height="32"/>
      <rect x="353" y="1" width="100" height="32" class="nonterminal"/>
      <text class="nonterminal" x="363" y="21">index-clause</text>
   </a>
   <a xmlns:xlink="http://www.w3.org/1999/xlink"
       xlink:href="#index-using"
       xlink:title="index-using">
      <rect x="495" y="35" width="94" height="32"/>
      <rect x="493" y="33" width="94" height="32" class="nonterminal"/>
      <text class="nonterminal" x="503" y="53">index-using</text>
   </a>
   <a xmlns:xlink="http://www.w3.org/1999/xlink"
       xlink:href="#index-with"
       xlink:title="index-with">
      <rect x="497" y="133" width="86" height="32"/>
      <rect x="495" y="131" width="86" height="32" class="nonterminal"/>
      <text class="nonterminal" x="505" y="151">index-with</text>
   </a>
   <path class="line"
          d="m17 17 h2 m20 0 h10 m74 0 h10 m0 0 h10 m102 0 h10 m0 0 h10 m48 0 h10 m-304 0 h20 m284 0 h20 m-324 0 q10 0 10 10 m304 0 q0 -10 10 -10 m-314 10 v24 m304 0 v-24 m-304 24 q0 10 10 10 m284 0 q10 0 10 -10 m-294 10 h10 m82 0 h10 m0 0 h182 m20 -44 h10 m100 0 h10 m20 0 h10 m0 0 h104 m-134 0 h20 m114 0 h20 m-154 0 q10 0 10 10 m134 0 q0 -10 10 -10 m-144 10 v12 m134 0 v-12 m-134 12 q0 10 10 10 m114 0 q10 0 10 -10 m-124 10 h10 m94 0 h10 m22 -32 l2 0 m2 0 l2 0 m2 0 l2 0 m-176 98 l2 0 m2 0 l2 0 m2 0 l2 0 m22 0 h10 m0 0 h96 m-126 0 h20 m106 0 h20 m-146 0 q10 0 10 10 m126 0 q0 -10 10 -10 m-136 10 v12 m126 0 v-12 m-126 12 q0 10 10 10 m106 0 q10 0 10 -10 m-116 10 h10 m86 0 h10 m23 -32 h-3"/>
   <polygon points="621 115 629 111 629 119"/>
   <polygon points="621 115 613 111 613 119"/>
</svg>
