<?xml version="1.0" encoding="UTF-8"?>
<svg xmlns="http://www.w3.org/2000/svg" width="289" height="169">
   <defs>
      <style type="text/css">
    @namespace "http://www.w3.org/2000/svg";
    .line                 {fill: none; stroke: #332900; stroke-width: 1;}
    .bold-line            {stroke: #141000; shape-rendering: crispEdges; stroke-width: 2;}
    .thin-line            {stroke: #1F1800; shape-rendering: crispEdges}
    .filled               {fill: #332900; stroke: none;}
    text.terminal         {font-family: Verdana, Sans-serif;
                            font-size: 12px;
                            fill: #141000;
                            font-weight: bold;
                          }
    text.nonterminal      {font-family: Verdana, Sans-serif;
                            font-size: 12px;
                            fill: #1A1400;
                            font-weight: normal;
                          }
    text.regexp           {font-family: Verdana, Sans-serif;
                            font-size: 12px;
                            fill: #1F1800;
                            font-weight: normal;
                          }
    rect, circle, polygon {fill: #332900; stroke: #332900;}
    rect.terminal         {fill: #FFDB4D; stroke: #332900; stroke-width: 1;}
    rect.nonterminal      {fill: #FFEC9E; stroke: #332900; stroke-width: 1;}
    rect.text             {fill: none; stroke: none;}
    polygon.regexp        {fill: #FFF4C7; stroke: #332900; stroke-width: 1;}
  </style>
   </defs>
   <polygon points="9 17 1 13 1 21"/>
   <polygon points="17 17 9 13 9 21"/>
   <a xmlns:xlink="http://www.w3.org/1999/xlink"
       xlink:href="#update-statistics-expr"
       xlink:title="update-statistics-expr">
      <rect x="51" y="3" width="160" height="32"/>
      <rect x="49" y="1" width="160" height="32" class="nonterminal"/>
      <text class="nonterminal" x="59" y="21">update-statistics-expr</text>
   </a>
   <a xmlns:xlink="http://www.w3.org/1999/xlink"
       xlink:href="#update-statistics-index"
       xlink:title="update-statistics-index">
      <rect x="51" y="47" width="166" height="32"/>
      <rect x="49" y="45" width="166" height="32" class="nonterminal"/>
      <text class="nonterminal" x="59" y="65">update-statistics-index</text>
   </a>
   <a xmlns:xlink="http://www.w3.org/1999/xlink"
       xlink:href="#updated-statistics-indexes"
       xlink:title="updated-statistics-indexes">
      <rect x="51" y="91" width="190" height="32"/>
      <rect x="49" y="89" width="190" height="32" class="nonterminal"/>
      <text class="nonterminal" x="59" y="109">updated-statistics-indexes</text>
   </a>
   <a xmlns:xlink="http://www.w3.org/1999/xlink"
       xlink:href="#update-statistics-delete"
       xlink:title="update-statistics-delete">
      <rect x="51" y="135" width="172" height="32"/>
      <rect x="49" y="133" width="172" height="32" class="nonterminal"/>
      <text class="nonterminal" x="59" y="153">update-statistics-delete</text>
   </a>
   <path class="line"
          d="m17 17 h2 m20 0 h10 m160 0 h10 m0 0 h30 m-230 0 h20 m210 0 h20 m-250 0 q10 0 10 10 m230 0 q0 -10 10 -10 m-240 10 v24 m230 0 v-24 m-230 24 q0 10 10 10 m210 0 q10 0 10 -10 m-220 10 h10 m166 0 h10 m0 0 h24 m-220 -10 v20 m230 0 v-20 m-230 20 v24 m230 0 v-24 m-230 24 q0 10 10 10 m210 0 q10 0 10 -10 m-220 10 h10 m190 0 h10 m-220 -10 v20 m230 0 v-20 m-230 20 v24 m230 0 v-24 m-230 24 q0 10 10 10 m210 0 q10 0 10 -10 m-220 10 h10 m172 0 h10 m0 0 h18 m23 -132 h-3"/>
   <polygon points="279 17 287 13 287 21"/>
   <polygon points="279 17 271 13 271 21"/>
</svg>
