<?xml version="1.0" encoding="UTF-8"?>
<svg xmlns="http://www.w3.org/2000/svg" width="653" height="275">
   <defs>
      <style type="text/css">
    @namespace "http://www.w3.org/2000/svg";
    .line                 {fill: none; stroke: #332900; stroke-width: 1;}
    .bold-line            {stroke: #141000; shape-rendering: crispEdges; stroke-width: 2;}
    .thin-line            {stroke: #1F1800; shape-rendering: crispEdges}
    .filled               {fill: #332900; stroke: none;}
    text.terminal         {font-family: Verdana, Sans-serif;
                            font-size: 12px;
                            fill: #141000;
                            font-weight: bold;
                          }
    text.nonterminal      {font-family: Verdana, Sans-serif;
                            font-size: 12px;
                            fill: #1A1400;
                            font-weight: normal;
                          }
    text.regexp           {font-family: Verdana, Sans-serif;
                            font-size: 12px;
                            fill: #1F1800;
                            font-weight: normal;
                          }
    rect, circle, polygon {fill: #332900; stroke: #332900;}
    rect.terminal         {fill: #FFDB4D; stroke: #332900; stroke-width: 1;}
    rect.nonterminal      {fill: #FFEC9E; stroke: #332900; stroke-width: 1;}
    rect.text             {fill: none; stroke: none;}
    polygon.regexp        {fill: #FFF4C7; stroke: #332900; stroke-width: 1;}
  </style>
   </defs>
   <polygon points="9 17 1 13 1 21"/>
   <polygon points="17 17 9 13 9 21"/>
   <rect x="51" y="3" width="74" height="32" rx="10"/>
   <rect x="49"
          y="1"
          width="74"
          height="32"
          class="terminal"
          rx="10"/>
   <text class="terminal" x="59" y="21">UPDATE</text>
   <rect x="145" y="3" width="102" height="32" rx="10"/>
   <rect x="143"
          y="1"
          width="102"
          height="32"
          class="terminal"
          rx="10"/>
   <text class="terminal" x="153" y="21">STATISTICS</text>
   <rect x="287" y="35" width="48" height="32" rx="10"/>
   <rect x="285"
          y="33"
          width="48"
          height="32"
          class="terminal"
          rx="10"/>
   <text class="terminal" x="295" y="53">FOR</text>
   <rect x="51" y="79" width="82" height="32" rx="10"/>
   <rect x="49"
          y="77"
          width="82"
          height="32"
          class="terminal"
          rx="10"/>
   <text class="terminal" x="59" y="97">ANALYZE</text>
   <rect x="173" y="111" width="90" height="32" rx="10"/>
   <rect x="171"
          y="109"
          width="90"
          height="32"
          class="terminal"
          rx="10"/>
   <text class="terminal" x="181" y="129">KEYSPACE</text>
   <rect x="173" y="155" width="108" height="32" rx="10"/>
   <rect x="171"
          y="153"
          width="108"
          height="32"
          class="terminal"
          rx="10"/>
   <text class="terminal" x="181" y="173">COLLECTION</text>
   <a xmlns:xlink="http://www.w3.org/1999/xlink"
       xlink:href="#keyspace-ref"
       xlink:title="keyspace-ref">
      <rect x="395" y="3" width="102" height="32"/>
      <rect x="393" y="1" width="102" height="32" class="nonterminal"/>
      <text class="nonterminal" x="403" y="21">keyspace-ref</text>
   </a>
   <a xmlns:xlink="http://www.w3.org/1999/xlink"
       xlink:href="#indexes-clause"
       xlink:title="indexes-clause">
      <rect x="517" y="3" width="114" height="32"/>
      <rect x="515" y="1" width="114" height="32" class="nonterminal"/>
      <text class="nonterminal" x="525" y="21">indexes-clause</text>
   </a>
   <a xmlns:xlink="http://www.w3.org/1999/xlink"
       xlink:href="#index-using"
       xlink:title="index-using">
      <rect x="365" y="241" width="94" height="32"/>
      <rect x="363" y="239" width="94" height="32" class="nonterminal"/>
      <text class="nonterminal" x="373" y="259">index-using</text>
   </a>
   <a xmlns:xlink="http://www.w3.org/1999/xlink"
       xlink:href="#index-with"
       xlink:title="index-with">
      <rect x="519" y="241" width="86" height="32"/>
      <rect x="517" y="239" width="86" height="32" class="nonterminal"/>
      <text class="nonterminal" x="527" y="259">index-with</text>
   </a>
   <path class="line"
          d="m17 17 h2 m20 0 h10 m74 0 h10 m0 0 h10 m102 0 h10 m20 0 h10 m0 0 h58 m-88 0 h20 m68 0 h20 m-108 0 q10 0 10 10 m88 0 q0 -10 10 -10 m-98 10 v12 m88 0 v-12 m-88 12 q0 10 10 10 m68 0 q10 0 10 -10 m-78 10 h10 m48 0 h10 m-324 -32 h20 m324 0 h20 m-364 0 q10 0 10 10 m344 0 q0 -10 10 -10 m-354 10 v56 m344 0 v-56 m-344 56 q0 10 10 10 m324 0 q10 0 10 -10 m-334 10 h10 m82 0 h10 m20 0 h10 m0 0 h118 m-148 0 h20 m128 0 h20 m-168 0 q10 0 10 10 m148 0 q0 -10 10 -10 m-158 10 v12 m148 0 v-12 m-148 12 q0 10 10 10 m128 0 q10 0 10 -10 m-138 10 h10 m90 0 h10 m0 0 h18 m-138 -10 v20 m148 0 v-20 m-148 20 v24 m148 0 v-24 m-148 24 q0 10 10 10 m128 0 q10 0 10 -10 m-138 10 h10 m108 0 h10 m20 -76 h54 m20 -76 h10 m102 0 h10 m0 0 h10 m114 0 h10 m2 0 l2 0 m2 0 l2 0 m2 0 l2 0 m-330 206 l2 0 m2 0 l2 0 m2 0 l2 0 m22 0 h10 m0 0 h104 m-134 0 h20 m114 0 h20 m-154 0 q10 0 10 10 m134 0 q0 -10 10 -10 m-144 10 v12 m134 0 v-12 m-134 12 q0 10 10 10 m114 0 q10 0 10 -10 m-124 10 h10 m94 0 h10 m40 -32 h10 m0 0 h96 m-126 0 h20 m106 0 h20 m-146 0 q10 0 10 10 m126 0 q0 -10 10 -10 m-136 10 v12 m126 0 v-12 m-126 12 q0 10 10 10 m106 0 q10 0 10 -10 m-116 10 h10 m86 0 h10 m23 -32 h-3"/>
   <polygon points="643 223 651 219 651 227"/>
   <polygon points="643 223 635 219 635 227"/>
</svg>
