<?xml version="1.0" encoding="UTF-8"?>
<svg xmlns="http://www.w3.org/2000/svg" width="627" height="239">
   <defs>
      <style type="text/css">
    @namespace "http://www.w3.org/2000/svg";
    .line                 {fill: none; stroke: #332900; stroke-width: 1;}
    .bold-line            {stroke: #141000; shape-rendering: crispEdges; stroke-width: 2;}
    .thin-line            {stroke: #1F1800; shape-rendering: crispEdges}
    .filled               {fill: #332900; stroke: none;}
    text.terminal         {font-family: Verdana, Sans-serif;
                            font-size: 12px;
                            fill: #141000;
                            font-weight: bold;
                          }
    text.nonterminal      {font-family: Verdana, Sans-serif;
                            font-size: 12px;
                            fill: #1A1400;
                            font-weight: normal;
                          }
    text.regexp           {font-family: Verdana, Sans-serif;
                            font-size: 12px;
                            fill: #1F1800;
                            font-weight: normal;
                          }
    rect, circle, polygon {fill: #332900; stroke: #332900;}
    rect.terminal         {fill: #FFDB4D; stroke: #332900; stroke-width: 1;}
    rect.nonterminal      {fill: #FFEC9E; stroke: #332900; stroke-width: 1;}
    rect.text             {fill: none; stroke: none;}
    polygon.regexp        {fill: #FFF4C7; stroke: #332900; stroke-width: 1;}
  </style>
   </defs>
   <polygon points="9 77 1 73 1 81"/>
   <polygon points="17 77 9 73 9 81"/>
   <rect x="51" y="63" width="48" height="32" rx="10"/>
   <rect x="49"
          y="61"
          width="48"
          height="32"
          class="terminal"
          rx="10"/>
   <text class="terminal" x="59" y="81">FOR</text>
   <a xmlns:xlink="http://www.w3.org/1999/xlink"
       xlink:href="#name-var"
       xlink:title="name-var">
      <rect x="159" y="95" width="80" height="32"/>
      <rect x="157" y="93" width="80" height="32" class="nonterminal"/>
      <text class="nonterminal" x="167" y="113">name-var</text>
   </a>
   <rect x="259" y="95" width="24" height="32" rx="10"/>
   <rect x="257"
          y="93"
          width="24"
          height="32"
          class="terminal"
          rx="10"/>
   <text class="terminal" x="267" y="113">:</text>
   <a xmlns:xlink="http://www.w3.org/1999/xlink"
       xlink:href="#var"
       xlink:title="var">
      <rect x="323" y="63" width="40" height="32"/>
      <rect x="321" y="61" width="40" height="32" class="nonterminal"/>
      <text class="nonterminal" x="331" y="81">var</text>
   </a>
   <rect x="403" y="63" width="36" height="32" rx="10"/>
   <rect x="401"
          y="61"
          width="36"
          height="32"
          class="terminal"
          rx="10"/>
   <text class="terminal" x="411" y="81">IN</text>
   <rect x="403" y="107" width="74" height="32" rx="10"/>
   <rect x="401"
          y="105"
          width="74"
          height="32"
          class="terminal"
          rx="10"/>
   <text class="terminal" x="411" y="125">WITHIN</text>
   <a xmlns:xlink="http://www.w3.org/1999/xlink"
       xlink:href="#path"
       xlink:title="path">
      <rect x="517" y="63" width="48" height="32"/>
      <rect x="515" y="61" width="48" height="32" class="nonterminal"/>
      <text class="nonterminal" x="525" y="81">path</text>
   </a>
   <rect x="139" y="19" width="24" height="32" rx="10"/>
   <rect x="137"
          y="17"
          width="24"
          height="32"
          class="terminal"
          rx="10"/>
   <text class="terminal" x="147" y="37">,</text>
   <rect x="379" y="205" width="62" height="32" rx="10"/>
   <rect x="377"
          y="203"
          width="62"
          height="32"
          class="terminal"
          rx="10"/>
   <text class="terminal" x="387" y="223">WHEN</text>
   <a xmlns:xlink="http://www.w3.org/1999/xlink"
       xlink:href="#cond"
       xlink:title="cond">
      <rect x="461" y="205" width="50" height="32"/>
      <rect x="459" y="203" width="50" height="32" class="nonterminal"/>
      <text class="nonterminal" x="469" y="223">cond</text>
   </a>
   <rect x="551" y="173" width="48" height="32" rx="10"/>
   <rect x="549"
          y="171"
          width="48"
          height="32"
          class="terminal"
          rx="10"/>
   <text class="terminal" x="559" y="191">END</text>
   <path class="line"
          d="m17 77 h2 m20 0 h10 m48 0 h10 m40 0 h10 m0 0 h134 m-164 0 h20 m144 0 h20 m-184 0 q10 0 10 10 m164 0 q0 -10 10 -10 m-174 10 v12 m164 0 v-12 m-164 12 q0 10 10 10 m144 0 q10 0 10 -10 m-154 10 h10 m80 0 h10 m0 0 h10 m24 0 h10 m20 -32 h10 m40 0 h10 m20 0 h10 m36 0 h10 m0 0 h38 m-114 0 h20 m94 0 h20 m-134 0 q10 0 10 10 m114 0 q0 -10 10 -10 m-124 10 v24 m114 0 v-24 m-114 24 q0 10 10 10 m94 0 q10 0 10 -10 m-104 10 h10 m74 0 h10 m20 -44 h10 m48 0 h10 m-466 0 l20 0 m-1 0 q-9 0 -9 -10 l0 -24 q0 -10 10 -10 m446 44 l20 0 m-20 0 q10 0 10 -10 l0 -24 q0 -10 -10 -10 m-446 0 h10 m24 0 h10 m0 0 h402 m-554 44 l20 0 m-1 0 q-9 0 -9 -10 l0 -56 q0 -10 10 -10 m554 76 l20 0 m-20 0 q10 0 10 -10 l0 -56 q0 -10 -10 -10 m-554 0 h10 m0 0 h544 m22 76 l2 0 m2 0 l2 0 m2 0 l2 0 m-290 110 l2 0 m2 0 l2 0 m2 0 l2 0 m22 0 h10 m0 0 h142 m-172 0 h20 m152 0 h20 m-192 0 q10 0 10 10 m172 0 q0 -10 10 -10 m-182 10 v12 m172 0 v-12 m-172 12 q0 10 10 10 m152 0 q10 0 10 -10 m-162 10 h10 m62 0 h10 m0 0 h10 m50 0 h10 m20 -32 h10 m48 0 h10 m3 0 h-3"/>
   <polygon points="617 187 625 183 625 191"/>
   <polygon points="617 187 609 183 609 191"/>
</svg>
