<?xml version="1.0" encoding="UTF-8"?>
<svg xmlns="http://www.w3.org/2000/svg" width="753" height="319">
   <defs>
      <style type="text/css">
    @namespace "http://www.w3.org/2000/svg";
    .line                 {fill: none; stroke: #332900; stroke-width: 1;}
    .bold-line            {stroke: #141000; shape-rendering: crispEdges; stroke-width: 2;}
    .thin-line            {stroke: #1F1800; shape-rendering: crispEdges}
    .filled               {fill: #332900; stroke: none;}
    text.terminal         {font-family: Verdana, Sans-serif;
                            font-size: 12px;
                            fill: #141000;
                            font-weight: bold;
                          }
    text.nonterminal      {font-family: Verdana, Sans-serif;
                            font-size: 12px;
                            fill: #1A1400;
                            font-weight: normal;
                          }
    text.regexp           {font-family: Verdana, Sans-serif;
                            font-size: 12px;
                            fill: #1F1800;
                            font-weight: normal;
                          }
    rect, circle, polygon {fill: #332900; stroke: #332900;}
    rect.terminal         {fill: #FFDB4D; stroke: #332900; stroke-width: 1;}
    rect.nonterminal      {fill: #FFEC9E; stroke: #332900; stroke-width: 1;}
    rect.text             {fill: none; stroke: none;}
    polygon.regexp        {fill: #FFF4C7; stroke: #332900; stroke-width: 1;}
  </style>
   </defs>
   <polygon points="9 61 1 57 1 65"/>
   <polygon points="17 61 9 57 9 65"/>
   <rect x="51" y="47" width="74" height="32" rx="10"/>
   <rect x="49"
          y="45"
          width="74"
          height="32"
          class="terminal"
          rx="10"/>
   <text class="terminal" x="59" y="65">UPDATE</text>
   <rect x="145" y="47" width="102" height="32" rx="10"/>
   <rect x="143"
          y="45"
          width="102"
          height="32"
          class="terminal"
          rx="10"/>
   <text class="terminal" x="153" y="65">STATISTICS</text>
   <rect x="287" y="79" width="48" height="32" rx="10"/>
   <rect x="285"
          y="77"
          width="48"
          height="32"
          class="terminal"
          rx="10"/>
   <text class="terminal" x="295" y="97">FOR</text>
   <rect x="51" y="123" width="82" height="32" rx="10"/>
   <rect x="49"
          y="121"
          width="82"
          height="32"
          class="terminal"
          rx="10"/>
   <text class="terminal" x="59" y="141">ANALYZE</text>
   <rect x="173" y="155" width="90" height="32" rx="10"/>
   <rect x="171"
          y="153"
          width="90"
          height="32"
          class="terminal"
          rx="10"/>
   <text class="terminal" x="181" y="173">KEYSPACE</text>
   <rect x="173" y="199" width="108" height="32" rx="10"/>
   <rect x="171"
          y="197"
          width="108"
          height="32"
          class="terminal"
          rx="10"/>
   <text class="terminal" x="181" y="217">COLLECTION</text>
   <a xmlns:xlink="http://www.w3.org/1999/xlink"
       xlink:href="#keyspace-ref"
       xlink:title="keyspace-ref">
      <rect x="395" y="47" width="102" height="32"/>
      <rect x="393" y="45" width="102" height="32" class="nonterminal"/>
      <text class="nonterminal" x="403" y="65">keyspace-ref</text>
   </a>
   <rect x="517" y="47" width="26" height="32" rx="10"/>
   <rect x="515"
          y="45"
          width="26"
          height="32"
          class="terminal"
          rx="10"/>
   <text class="terminal" x="525" y="65">(</text>
   <a xmlns:xlink="http://www.w3.org/1999/xlink"
       xlink:href="#index-key"
       xlink:title="index-key">
      <rect x="583" y="47" width="82" height="32"/>
      <rect x="581" y="45" width="82" height="32" class="nonterminal"/>
      <text class="nonterminal" x="591" y="65">index-key</text>
   </a>
   <rect x="583" y="3" width="24" height="32" rx="10"/>
   <rect x="581"
          y="1"
          width="24"
          height="32"
          class="terminal"
          rx="10"/>
   <text class="terminal" x="591" y="21">,</text>
   <rect x="705" y="47" width="26" height="32" rx="10"/>
   <rect x="703"
          y="45"
          width="26"
          height="32"
          class="terminal"
          rx="10"/>
   <text class="terminal" x="713" y="65">)</text>
   <a xmlns:xlink="http://www.w3.org/1999/xlink"
       xlink:href="#index-with"
       xlink:title="index-with">
      <rect x="619" y="285" width="86" height="32"/>
      <rect x="617" y="283" width="86" height="32" class="nonterminal"/>
      <text class="nonterminal" x="627" y="303">index-with</text>
   </a>
   <path class="line"
          d="m17 61 h2 m20 0 h10 m74 0 h10 m0 0 h10 m102 0 h10 m20 0 h10 m0 0 h58 m-88 0 h20 m68 0 h20 m-108 0 q10 0 10 10 m88 0 q0 -10 10 -10 m-98 10 v12 m88 0 v-12 m-88 12 q0 10 10 10 m68 0 q10 0 10 -10 m-78 10 h10 m48 0 h10 m-324 -32 h20 m324 0 h20 m-364 0 q10 0 10 10 m344 0 q0 -10 10 -10 m-354 10 v56 m344 0 v-56 m-344 56 q0 10 10 10 m324 0 q10 0 10 -10 m-334 10 h10 m82 0 h10 m20 0 h10 m0 0 h118 m-148 0 h20 m128 0 h20 m-168 0 q10 0 10 10 m148 0 q0 -10 10 -10 m-158 10 v12 m148 0 v-12 m-148 12 q0 10 10 10 m128 0 q10 0 10 -10 m-138 10 h10 m90 0 h10 m0 0 h18 m-138 -10 v20 m148 0 v-20 m-148 20 v24 m148 0 v-24 m-148 24 q0 10 10 10 m128 0 q10 0 10 -10 m-138 10 h10 m108 0 h10 m20 -76 h54 m20 -76 h10 m102 0 h10 m0 0 h10 m26 0 h10 m20 0 h10 m82 0 h10 m-122 0 l20 0 m-1 0 q-9 0 -9 -10 l0 -24 q0 -10 10 -10 m102 44 l20 0 m-20 0 q10 0 10 -10 l0 -24 q0 -10 -10 -10 m-102 0 h10 m24 0 h10 m0 0 h58 m20 44 h10 m26 0 h10 m2 0 l2 0 m2 0 l2 0 m2 0 l2 0 m-176 206 l2 0 m2 0 l2 0 m2 0 l2 0 m22 0 h10 m0 0 h96 m-126 0 h20 m106 0 h20 m-146 0 q10 0 10 10 m126 0 q0 -10 10 -10 m-136 10 v12 m126 0 v-12 m-126 12 q0 10 10 10 m106 0 q10 0 10 -10 m-116 10 h10 m86 0 h10 m23 -32 h-3"/>
   <polygon points="743 267 751 263 751 271"/>
   <polygon points="743 267 735 263 735 271"/>
</svg>
