<?xml version="1.0" encoding="UTF-8"?>
<svg xmlns="http://www.w3.org/2000/svg" width="351" height="81">
   <defs>
      <style type="text/css">
    @namespace "http://www.w3.org/2000/svg";
    .line                 {fill: none; stroke: #332900; stroke-width: 1;}
    .bold-line            {stroke: #141000; shape-rendering: crispEdges; stroke-width: 2;}
    .thin-line            {stroke: #1F1800; shape-rendering: crispEdges}
    .filled               {fill: #332900; stroke: none;}
    text.terminal         {font-family: Verdana, Sans-serif;
                            font-size: 12px;
                            fill: #141000;
                            font-weight: bold;
                          }
    text.nonterminal      {font-family: Verdana, Sans-serif;
                            font-size: 12px;
                            fill: #1A1400;
                            font-weight: normal;
                          }
    text.regexp           {font-family: Verdana, Sans-serif;
                            font-size: 12px;
                            fill: #1F1800;
                            font-weight: normal;
                          }
    rect, circle, polygon {fill: #332900; stroke: #332900;}
    rect.terminal         {fill: #FFDB4D; stroke: #332900; stroke-width: 1;}
    rect.nonterminal      {fill: #FFEC9E; stroke: #332900; stroke-width: 1;}
    rect.text             {fill: none; stroke: none;}
    polygon.regexp        {fill: #FFF4C7; stroke: #332900; stroke-width: 1;}
  </style>
   </defs>
   <polygon points="9 61 1 57 1 65"/>
   <polygon points="17 61 9 57 9 65"/>
   <rect x="31" y="47" width="64" height="32" rx="10"/>
   <rect x="29"
          y="45"
          width="64"
          height="32"
          class="terminal"
          rx="10"/>
   <text class="terminal" x="39" y="65">INDEX</text>
   <rect x="115" y="47" width="26" height="32" rx="10"/>
   <rect x="113"
          y="45"
          width="26"
          height="32"
          class="terminal"
          rx="10"/>
   <text class="terminal" x="123" y="65">(</text>
   <a xmlns:xlink="http://www.w3.org/1999/xlink"
       xlink:href="#index-ref"
       xlink:title="index-ref">
      <rect x="181" y="47" width="76" height="32"/>
      <rect x="179" y="45" width="76" height="32" class="nonterminal"/>
      <text class="nonterminal" x="189" y="65">index-ref</text>
   </a>
   <rect x="181" y="3" width="24" height="32" rx="10"/>
   <rect x="179"
          y="1"
          width="24"
          height="32"
          class="terminal"
          rx="10"/>
   <text class="terminal" x="189" y="21">,</text>
   <rect x="297" y="47" width="26" height="32" rx="10"/>
   <rect x="295"
          y="45"
          width="26"
          height="32"
          class="terminal"
          rx="10"/>
   <text class="terminal" x="305" y="65">)</text>
   <path class="line"
          d="m17 61 h2 m0 0 h10 m64 0 h10 m0 0 h10 m26 0 h10 m20 0 h10 m76 0 h10 m-116 0 l20 0 m-1 0 q-9 0 -9 -10 l0 -24 q0 -10 10 -10 m96 44 l20 0 m-20 0 q10 0 10 -10 l0 -24 q0 -10 -10 -10 m-96 0 h10 m24 0 h10 m0 0 h52 m20 44 h10 m26 0 h10 m3 0 h-3"/>
   <polygon points="341 61 349 57 349 65"/>
   <polygon points="341 61 333 57 333 65"/>
</svg>
