<?xml version="1.0" encoding="UTF-8"?>
<svg xmlns="http://www.w3.org/2000/svg" width="613" height="145">
   <defs>
      <style type="text/css">
    @namespace "http://www.w3.org/2000/svg";
    .line                 {fill: none; stroke: #332900; stroke-width: 1;}
    .bold-line            {stroke: #141000; shape-rendering: crispEdges; stroke-width: 2;}
    .thin-line            {stroke: #1F1800; shape-rendering: crispEdges}
    .filled               {fill: #332900; stroke: none;}
    text.terminal         {font-family: Verdana, Sans-serif;
                            font-size: 12px;
                            fill: #141000;
                            font-weight: bold;
                          }
    text.nonterminal      {font-family: Verdana, Sans-serif;
                            font-size: 12px;
                            fill: #1A1400;
                            font-weight: normal;
                          }
    text.regexp           {font-family: Verdana, Sans-serif;
                            font-size: 12px;
                            fill: #1F1800;
                            font-weight: normal;
                          }
    rect, circle, polygon {fill: #332900; stroke: #332900;}
    rect.terminal         {fill: #FFDB4D; stroke: #332900; stroke-width: 1;}
    rect.nonterminal      {fill: #FFEC9E; stroke: #332900; stroke-width: 1;}
    rect.text             {fill: none; stroke: none;}
    polygon.regexp        {fill: #FFF4C7; stroke: #332900; stroke-width: 1;}
  </style>
   </defs>
   <polygon points="9 93 1 89 1 97"/>
   <polygon points="17 93 9 89 9 97"/>
   <rect x="31" y="79" width="72" height="32" rx="10"/>
   <rect x="29"
          y="77"
          width="72"
          height="32"
          class="terminal"
          rx="10"/>
   <text class="terminal" x="39" y="97">VALUES</text>
   <rect x="143" y="79" width="26" height="32" rx="10"/>
   <rect x="141"
          y="77"
          width="26"
          height="32"
          class="terminal"
          rx="10"/>
   <text class="terminal" x="151" y="97">(</text>
   <a xmlns:xlink="http://www.w3.org/1999/xlink"
       xlink:href="#key"
       xlink:title="key">
      <rect x="189" y="79" width="42" height="32"/>
      <rect x="187" y="77" width="42" height="32" class="nonterminal"/>
      <text class="nonterminal" x="197" y="97">key</text>
   </a>
   <rect x="251" y="79" width="24" height="32" rx="10"/>
   <rect x="249"
          y="77"
          width="24"
          height="32"
          class="terminal"
          rx="10"/>
   <text class="terminal" x="259" y="97">,</text>
   <a xmlns:xlink="http://www.w3.org/1999/xlink"
       xlink:href="#value"
       xlink:title="value">
      <rect x="295" y="79" width="54" height="32"/>
      <rect x="293" y="77" width="54" height="32" class="nonterminal"/>
      <text class="nonterminal" x="303" y="97">value</text>
   </a>
   <rect x="389" y="111" width="24" height="32" rx="10"/>
   <rect x="387"
          y="109"
          width="24"
          height="32"
          class="terminal"
          rx="10"/>
   <text class="terminal" x="397" y="129">,</text>
   <a xmlns:xlink="http://www.w3.org/1999/xlink"
       xlink:href="#options"
       xlink:title="options">
      <rect x="433" y="111" width="66" height="32"/>
      <rect x="431" y="109" width="66" height="32" class="nonterminal"/>
      <text class="nonterminal" x="441" y="129">options</text>
   </a>
   <rect x="539" y="79" width="26" height="32" rx="10"/>
   <rect x="537"
          y="77"
          width="26"
          height="32"
          class="terminal"
          rx="10"/>
   <text class="terminal" x="547" y="97">)</text>
   <rect x="163" y="35" width="72" height="32" rx="10"/>
   <rect x="161"
          y="33"
          width="72"
          height="32"
          class="terminal"
          rx="10"/>
   <text class="terminal" x="171" y="53">VALUES</text>
   <rect x="275" y="3" width="24" height="32" rx="10"/>
   <rect x="273"
          y="1"
          width="24"
          height="32"
          class="terminal"
          rx="10"/>
   <text class="terminal" x="283" y="21">,</text>
   <path class="line"
          d="m17 93 h2 m0 0 h10 m72 0 h10 m20 0 h10 m26 0 h10 m0 0 h10 m42 0 h10 m0 0 h10 m24 0 h10 m0 0 h10 m54 0 h10 m20 0 h10 m0 0 h120 m-150 0 h20 m130 0 h20 m-170 0 q10 0 10 10 m150 0 q0 -10 10 -10 m-160 10 v12 m150 0 v-12 m-150 12 q0 10 10 10 m130 0 q10 0 10 -10 m-140 10 h10 m24 0 h10 m0 0 h10 m66 0 h10 m20 -32 h10 m26 0 h10 m-462 0 l20 0 m-1 0 q-9 0 -9 -10 l0 -56 q0 -10 10 -10 m442 76 l20 0 m-20 0 q10 0 10 -10 l0 -56 q0 -10 -10 -10 m-422 0 h10 m0 0 h82 m-112 0 h20 m92 0 h20 m-132 0 q10 0 10 10 m112 0 q0 -10 10 -10 m-122 10 v12 m112 0 v-12 m-112 12 q0 10 10 10 m92 0 q10 0 10 -10 m-102 10 h10 m72 0 h10 m20 -32 h10 m24 0 h10 m0 0 h266 m23 76 h-3"/>
   <polygon points="603 93 611 89 611 97"/>
   <polygon points="603 93 595 89 595 97"/>
</svg>
