<?xml version="1.0" encoding="UTF-8"?>
<svg xmlns="http://www.w3.org/2000/svg" width="839" height="301">
   <defs>
      <style type="text/css">
    @namespace "http://www.w3.org/2000/svg";
    .line                 {fill: none; stroke: #332900; stroke-width: 1;}
    .bold-line            {stroke: #141000; shape-rendering: crispEdges; stroke-width: 2;}
    .thin-line            {stroke: #1F1800; shape-rendering: crispEdges}
    .filled               {fill: #332900; stroke: none;}
    text.terminal         {font-family: Verdana, Sans-serif;
                            font-size: 12px;
                            fill: #141000;
                            font-weight: bold;
                          }
    text.nonterminal      {font-family: Verdana, Sans-serif;
                            font-size: 12px;
                            fill: #1A1400;
                            font-weight: normal;
                          }
    text.regexp           {font-family: Verdana, Sans-serif;
                            font-size: 12px;
                            fill: #1F1800;
                            font-weight: normal;
                          }
    rect, circle, polygon {fill: #332900; stroke: #332900;}
    rect.terminal         {fill: #FFDB4D; stroke: #332900; stroke-width: 1;}
    rect.nonterminal      {fill: #FFEC9E; stroke: #332900; stroke-width: 1;}
    rect.text             {fill: none; stroke: none;}
    polygon.regexp        {fill: #FFF4C7; stroke: #332900; stroke-width: 1;}
  </style>
   </defs>
   <polygon points="9 17 1 13 1 21"/>
   <polygon points="17 17 9 13 9 21"/>
   <rect x="51" y="3" width="108" height="32" rx="10"/>
   <rect x="49"
          y="1"
          width="108"
          height="32"
          class="terminal"
          rx="10"/>
   <text class="terminal" x="59" y="21">UNBOUNDED</text>
   <rect x="179" y="3" width="100" height="32" rx="10"/>
   <rect x="177"
          y="1"
          width="100"
          height="32"
          class="terminal"
          rx="10"/>
   <text class="terminal" x="187" y="21">PRECEDING</text>
   <a xmlns:xlink="http://www.w3.org/1999/xlink"
       xlink:href="#valexpr"
       xlink:title="valexpr">
      <rect x="51" y="47" width="66" height="32"/>
      <rect x="49" y="45" width="66" height="32" class="nonterminal"/>
      <text class="nonterminal" x="59" y="65">valexpr</text>
   </a>
   <rect x="137" y="47" width="100" height="32" rx="10"/>
   <rect x="135"
          y="45"
          width="100"
          height="32"
          class="terminal"
          rx="10"/>
   <text class="terminal" x="145" y="65">PRECEDING</text>
   <rect x="51" y="91" width="84" height="32" rx="10"/>
   <rect x="49"
          y="89"
          width="84"
          height="32"
          class="terminal"
          rx="10"/>
   <text class="terminal" x="59" y="109">CURRENT</text>
   <rect x="155" y="91" width="54" height="32" rx="10"/>
   <rect x="153"
          y="89"
          width="54"
          height="32"
          class="terminal"
          rx="10"/>
   <text class="terminal" x="163" y="109">ROW</text>
   <rect x="51" y="135" width="86" height="32" rx="10"/>
   <rect x="49"
          y="133"
          width="86"
          height="32"
          class="terminal"
          rx="10"/>
   <text class="terminal" x="59" y="153">BETWEEN</text>
   <rect x="177" y="135" width="108" height="32" rx="10"/>
   <rect x="175"
          y="133"
          width="108"
          height="32"
          class="terminal"
          rx="10"/>
   <text class="terminal" x="185" y="153">UNBOUNDED</text>
   <rect x="305" y="135" width="100" height="32" rx="10"/>
   <rect x="303"
          y="133"
          width="100"
          height="32"
          class="terminal"
          rx="10"/>
   <text class="terminal" x="313" y="153">PRECEDING</text>
   <rect x="177" y="179" width="84" height="32" rx="10"/>
   <rect x="175"
          y="177"
          width="84"
          height="32"
          class="terminal"
          rx="10"/>
   <text class="terminal" x="185" y="197">CURRENT</text>
   <rect x="281" y="179" width="54" height="32" rx="10"/>
   <rect x="279"
          y="177"
          width="54"
          height="32"
          class="terminal"
          rx="10"/>
   <text class="terminal" x="289" y="197">ROW</text>
   <a xmlns:xlink="http://www.w3.org/1999/xlink"
       xlink:href="#valexpr"
       xlink:title="valexpr">
      <rect x="177" y="223" width="66" height="32"/>
      <rect x="175" y="221" width="66" height="32" class="nonterminal"/>
      <text class="nonterminal" x="185" y="241">valexpr</text>
   </a>
   <rect x="283" y="223" width="100" height="32" rx="10"/>
   <rect x="281"
          y="221"
          width="100"
          height="32"
          class="terminal"
          rx="10"/>
   <text class="terminal" x="291" y="241">PRECEDING</text>
   <rect x="283" y="267" width="106" height="32" rx="10"/>
   <rect x="281"
          y="265"
          width="106"
          height="32"
          class="terminal"
          rx="10"/>
   <text class="terminal" x="291" y="285">FOLLOWING</text>
   <rect x="449" y="135" width="48" height="32" rx="10"/>
   <rect x="447"
          y="133"
          width="48"
          height="32"
          class="terminal"
          rx="10"/>
   <text class="terminal" x="457" y="153">AND</text>
   <rect x="537" y="135" width="108" height="32" rx="10"/>
   <rect x="535"
          y="133"
          width="108"
          height="32"
          class="terminal"
          rx="10"/>
   <text class="terminal" x="545" y="153">UNBOUNDED</text>
   <rect x="665" y="135" width="106" height="32" rx="10"/>
   <rect x="663"
          y="133"
          width="106"
          height="32"
          class="terminal"
          rx="10"/>
   <text class="terminal" x="673" y="153">FOLLOWING</text>
   <rect x="537" y="179" width="84" height="32" rx="10"/>
   <rect x="535"
          y="177"
          width="84"
          height="32"
          class="terminal"
          rx="10"/>
   <text class="terminal" x="545" y="197">CURRENT</text>
   <rect x="641" y="179" width="54" height="32" rx="10"/>
   <rect x="639"
          y="177"
          width="54"
          height="32"
          class="terminal"
          rx="10"/>
   <text class="terminal" x="649" y="197">ROW</text>
   <a xmlns:xlink="http://www.w3.org/1999/xlink"
       xlink:href="#valexpr"
       xlink:title="valexpr">
      <rect x="537" y="223" width="66" height="32"/>
      <rect x="535" y="221" width="66" height="32" class="nonterminal"/>
      <text class="nonterminal" x="545" y="241">valexpr</text>
   </a>
   <rect x="643" y="223" width="100" height="32" rx="10"/>
   <rect x="641"
          y="221"
          width="100"
          height="32"
          class="terminal"
          rx="10"/>
   <text class="terminal" x="651" y="241">PRECEDING</text>
   <rect x="643" y="267" width="106" height="32" rx="10"/>
   <rect x="641"
          y="265"
          width="106"
          height="32"
          class="terminal"
          rx="10"/>
   <text class="terminal" x="651" y="285">FOLLOWING</text>
   <path class="line"
          d="m17 17 h2 m20 0 h10 m108 0 h10 m0 0 h10 m100 0 h10 m0 0 h512 m-780 0 h20 m760 0 h20 m-800 0 q10 0 10 10 m780 0 q0 -10 10 -10 m-790 10 v24 m780 0 v-24 m-780 24 q0 10 10 10 m760 0 q10 0 10 -10 m-770 10 h10 m66 0 h10 m0 0 h10 m100 0 h10 m0 0 h554 m-770 -10 v20 m780 0 v-20 m-780 20 v24 m780 0 v-24 m-780 24 q0 10 10 10 m760 0 q10 0 10 -10 m-770 10 h10 m84 0 h10 m0 0 h10 m54 0 h10 m0 0 h582 m-770 -10 v20 m780 0 v-20 m-780 20 v24 m780 0 v-24 m-780 24 q0 10 10 10 m760 0 q10 0 10 -10 m-770 10 h10 m86 0 h10 m20 0 h10 m108 0 h10 m0 0 h10 m100 0 h10 m0 0 h4 m-272 0 h20 m252 0 h20 m-292 0 q10 0 10 10 m272 0 q0 -10 10 -10 m-282 10 v24 m272 0 v-24 m-272 24 q0 10 10 10 m252 0 q10 0 10 -10 m-262 10 h10 m84 0 h10 m0 0 h10 m54 0 h10 m0 0 h74 m-262 -10 v20 m272 0 v-20 m-272 20 v24 m272 0 v-24 m-272 24 q0 10 10 10 m252 0 q10 0 10 -10 m-262 10 h10 m66 0 h10 m20 0 h10 m100 0 h10 m0 0 h6 m-146 0 h20 m126 0 h20 m-166 0 q10 0 10 10 m146 0 q0 -10 10 -10 m-156 10 v24 m146 0 v-24 m-146 24 q0 10 10 10 m126 0 q10 0 10 -10 m-136 10 h10 m106 0 h10 m40 -132 h10 m48 0 h10 m20 0 h10 m108 0 h10 m0 0 h10 m106 0 h10 m-274 0 h20 m254 0 h20 m-294 0 q10 0 10 10 m274 0 q0 -10 10 -10 m-284 10 v24 m274 0 v-24 m-274 24 q0 10 10 10 m254 0 q10 0 10 -10 m-264 10 h10 m84 0 h10 m0 0 h10 m54 0 h10 m0 0 h76 m-264 -10 v20 m274 0 v-20 m-274 20 v24 m274 0 v-24 m-274 24 q0 10 10 10 m254 0 q10 0 10 -10 m-264 10 h10 m66 0 h10 m20 0 h10 m100 0 h10 m0 0 h6 m-146 0 h20 m126 0 h20 m-166 0 q10 0 10 10 m146 0 q0 -10 10 -10 m-156 10 v24 m146 0 v-24 m-146 24 q0 10 10 10 m126 0 q10 0 10 -10 m-136 10 h10 m106 0 h10 m20 -44 h2 m43 -220 h-3"/>
   <polygon points="829 17 837 13 837 21"/>
   <polygon points="829 17 821 13 821 21"/>
</svg>
