<?xml version="1.0" encoding="UTF-8"?>
<svg xmlns="http://www.w3.org/2000/svg" width="761" height="135">
   <defs>
      <style type="text/css">
    @namespace "http://www.w3.org/2000/svg";
    .line                 {fill: none; stroke: #332900; stroke-width: 1;}
    .bold-line            {stroke: #141000; shape-rendering: crispEdges; stroke-width: 2;}
    .thin-line            {stroke: #1F1800; shape-rendering: crispEdges}
    .filled               {fill: #332900; stroke: none;}
    text.terminal         {font-family: Verdana, Sans-serif;
                            font-size: 12px;
                            fill: #141000;
                            font-weight: bold;
                          }
    text.nonterminal      {font-family: Verdana, Sans-serif;
                            font-size: 12px;
                            fill: #1A1400;
                            font-weight: normal;
                          }
    text.regexp           {font-family: Verdana, Sans-serif;
                            font-size: 12px;
                            fill: #1F1800;
                            font-weight: normal;
                          }
    rect, circle, polygon {fill: #332900; stroke: #332900;}
    rect.terminal         {fill: #FFDB4D; stroke: #332900; stroke-width: 1;}
    rect.nonterminal      {fill: #FFEC9E; stroke: #332900; stroke-width: 1;}
    rect.text             {fill: none; stroke: none;}
    polygon.regexp        {fill: #FFF4C7; stroke: #332900; stroke-width: 1;}
  </style>
   </defs>
   <polygon points="9 17 1 13 1 21"/>
   <polygon points="17 17 9 13 9 21"/>
   <a xmlns:xlink="http://www.w3.org/1999/xlink"
       xlink:href="#window-function-name"
       xlink:title="window-function-name">
      <rect x="31" y="3" width="164" height="32"/>
      <rect x="29" y="1" width="164" height="32" class="nonterminal"/>
      <text class="nonterminal" x="39" y="21">window-function-name</text>
   </a>
   <rect x="215" y="3" width="26" height="32" rx="10"/>
   <rect x="213"
          y="1"
          width="26"
          height="32"
          class="terminal"
          rx="10"/>
   <text class="terminal" x="223" y="21">(</text>
   <a xmlns:xlink="http://www.w3.org/1999/xlink"
       xlink:href="#window-function-arguments"
       xlink:title="window-function-arguments">
      <rect x="261" y="3" width="196" height="32"/>
      <rect x="259" y="1" width="196" height="32" class="nonterminal"/>
      <text class="nonterminal" x="269" y="21">window-function-arguments</text>
   </a>
   <rect x="477" y="3" width="26" height="32" rx="10"/>
   <rect x="475"
          y="1"
          width="26"
          height="32"
          class="terminal"
          rx="10"/>
   <text class="terminal" x="485" y="21">)</text>
   <a xmlns:xlink="http://www.w3.org/1999/xlink"
       xlink:href="#window-function-options"
       xlink:title="window-function-options">
      <rect x="543" y="35" width="176" height="32"/>
      <rect x="541" y="33" width="176" height="32" class="nonterminal"/>
      <text class="nonterminal" x="551" y="53">window-function-options</text>
   </a>
   <a xmlns:xlink="http://www.w3.org/1999/xlink"
       xlink:href="#over-clause"
       xlink:title="over-clause">
      <rect x="639" y="101" width="94" height="32"/>
      <rect x="637" y="99" width="94" height="32" class="nonterminal"/>
      <text class="nonterminal" x="647" y="119">over-clause</text>
   </a>
   <path class="line"
          d="m17 17 h2 m0 0 h10 m164 0 h10 m0 0 h10 m26 0 h10 m0 0 h10 m196 0 h10 m0 0 h10 m26 0 h10 m20 0 h10 m0 0 h186 m-216 0 h20 m196 0 h20 m-236 0 q10 0 10 10 m216 0 q0 -10 10 -10 m-226 10 v12 m216 0 v-12 m-216 12 q0 10 10 10 m196 0 q10 0 10 -10 m-206 10 h10 m176 0 h10 m22 -32 l2 0 m2 0 l2 0 m2 0 l2 0 m-144 98 l2 0 m2 0 l2 0 m2 0 l2 0 m2 0 h10 m94 0 h10 m3 0 h-3"/>
   <polygon points="751 115 759 111 759 119"/>
   <polygon points="751 115 743 111 743 119"/>
</svg>
