<?xml version="1.0" encoding="UTF-8"?>
<svg xmlns="http://www.w3.org/2000/svg" width="359" height="169">
   <defs>
      <style type="text/css">
    @namespace "http://www.w3.org/2000/svg";
    .line                 {fill: none; stroke: #332900; stroke-width: 1;}
    .bold-line            {stroke: #141000; shape-rendering: crispEdges; stroke-width: 2;}
    .thin-line            {stroke: #1F1800; shape-rendering: crispEdges}
    .filled               {fill: #332900; stroke: none;}
    text.terminal         {font-family: Verdana, Sans-serif;
                            font-size: 12px;
                            fill: #141000;
                            font-weight: bold;
                          }
    text.nonterminal      {font-family: Verdana, Sans-serif;
                            font-size: 12px;
                            fill: #1A1400;
                            font-weight: normal;
                          }
    text.regexp           {font-family: Verdana, Sans-serif;
                            font-size: 12px;
                            fill: #1F1800;
                            font-weight: normal;
                          }
    rect, circle, polygon {fill: #332900; stroke: #332900;}
    rect.terminal         {fill: #FFDB4D; stroke: #332900; stroke-width: 1;}
    rect.nonterminal      {fill: #FFEC9E; stroke: #332900; stroke-width: 1;}
    rect.text             {fill: none; stroke: none;}
    polygon.regexp        {fill: #FFF4C7; stroke: #332900; stroke-width: 1;}
  </style>
   </defs>
   <polygon points="9 17 1 13 1 21"/>
   <polygon points="17 17 9 13 9 21"/>
   <rect x="31" y="3" width="82" height="32" rx="10"/>
   <rect x="29"
          y="1"
          width="82"
          height="32"
          class="terminal"
          rx="10"/>
   <text class="terminal" x="39" y="21">EXCLUDE</text>
   <rect x="153" y="3" width="84" height="32" rx="10"/>
   <rect x="151"
          y="1"
          width="84"
          height="32"
          class="terminal"
          rx="10"/>
   <text class="terminal" x="161" y="21">CURRENT</text>
   <rect x="257" y="3" width="54" height="32" rx="10"/>
   <rect x="255"
          y="1"
          width="54"
          height="32"
          class="terminal"
          rx="10"/>
   <text class="terminal" x="265" y="21">ROW</text>
   <rect x="153" y="47" width="68" height="32" rx="10"/>
   <rect x="151"
          y="45"
          width="68"
          height="32"
          class="terminal"
          rx="10"/>
   <text class="terminal" x="161" y="65">GROUP</text>
   <rect x="153" y="91" width="52" height="32" rx="10"/>
   <rect x="151"
          y="89"
          width="52"
          height="32"
          class="terminal"
          rx="10"/>
   <text class="terminal" x="161" y="109">TIES</text>
   <rect x="153" y="135" width="40" height="32" rx="10"/>
   <rect x="151"
          y="133"
          width="40"
          height="32"
          class="terminal"
          rx="10"/>
   <text class="terminal" x="161" y="153">NO</text>
   <rect x="213" y="135" width="76" height="32" rx="10"/>
   <rect x="211"
          y="133"
          width="76"
          height="32"
          class="terminal"
          rx="10"/>
   <text class="terminal" x="221" y="153">OTHERS</text>
   <path class="line"
          d="m17 17 h2 m0 0 h10 m82 0 h10 m20 0 h10 m84 0 h10 m0 0 h10 m54 0 h10 m-198 0 h20 m178 0 h20 m-218 0 q10 0 10 10 m198 0 q0 -10 10 -10 m-208 10 v24 m198 0 v-24 m-198 24 q0 10 10 10 m178 0 q10 0 10 -10 m-188 10 h10 m68 0 h10 m0 0 h90 m-188 -10 v20 m198 0 v-20 m-198 20 v24 m198 0 v-24 m-198 24 q0 10 10 10 m178 0 q10 0 10 -10 m-188 10 h10 m52 0 h10 m0 0 h106 m-188 -10 v20 m198 0 v-20 m-198 20 v24 m198 0 v-24 m-198 24 q0 10 10 10 m178 0 q10 0 10 -10 m-188 10 h10 m40 0 h10 m0 0 h10 m76 0 h10 m0 0 h22 m23 -132 h-3"/>
   <polygon points="349 17 357 13 357 21"/>
   <polygon points="349 17 341 13 341 21"/>
</svg>
