<?xml version="1.0" encoding="UTF-8"?>
<svg xmlns="http://www.w3.org/2000/svg" width="587" height="125">
   <defs>
      <style type="text/css">
    @namespace "http://www.w3.org/2000/svg";
    .line                 {fill: none; stroke: #332900; stroke-width: 1;}
    .bold-line            {stroke: #141000; shape-rendering: crispEdges; stroke-width: 2;}
    .thin-line            {stroke: #1F1800; shape-rendering: crispEdges}
    .filled               {fill: #332900; stroke: none;}
    text.terminal         {font-family: Verdana, Sans-serif;
                            font-size: 12px;
                            fill: #141000;
                            font-weight: bold;
                          }
    text.nonterminal      {font-family: Verdana, Sans-serif;
                            font-size: 12px;
                            fill: #1A1400;
                            font-weight: normal;
                          }
    text.regexp           {font-family: Verdana, Sans-serif;
                            font-size: 12px;
                            fill: #1F1800;
                            font-weight: normal;
                          }
    rect, circle, polygon {fill: #332900; stroke: #332900;}
    rect.terminal         {fill: #FFDB4D; stroke: #332900; stroke-width: 1;}
    rect.nonterminal      {fill: #FFEC9E; stroke: #332900; stroke-width: 1;}
    rect.text             {fill: none; stroke: none;}
    polygon.regexp        {fill: #FFF4C7; stroke: #332900; stroke-width: 1;}
  </style>
   </defs>
   <polygon points="9 17 1 13 1 21"/>
   <polygon points="17 17 9 13 9 21"/>
   <rect x="51" y="3" width="62" height="32" rx="10"/>
   <rect x="49"
          y="1"
          width="62"
          height="32"
          class="terminal"
          rx="10"/>
   <text class="terminal" x="59" y="21">ROWS</text>
   <rect x="51" y="47" width="66" height="32" rx="10"/>
   <rect x="49"
          y="45"
          width="66"
          height="32"
          class="terminal"
          rx="10"/>
   <text class="terminal" x="59" y="65">RANGE</text>
   <rect x="51" y="91" width="78" height="32" rx="10"/>
   <rect x="49"
          y="89"
          width="78"
          height="32"
          class="terminal"
          rx="10"/>
   <text class="terminal" x="59" y="109">GROUPS</text>
   <a xmlns:xlink="http://www.w3.org/1999/xlink"
       xlink:href="#window-frame-extent"
       xlink:title="window-frame-extent">
      <rect x="169" y="3" width="156" height="32"/>
      <rect x="167" y="1" width="156" height="32" class="nonterminal"/>
      <text class="nonterminal" x="177" y="21">window-frame-extent</text>
   </a>
   <a xmlns:xlink="http://www.w3.org/1999/xlink"
       xlink:href="#window-frame-exclusion"
       xlink:title="window-frame-exclusion">
      <rect x="365" y="35" width="174" height="32"/>
      <rect x="363" y="33" width="174" height="32" class="nonterminal"/>
      <text class="nonterminal" x="373" y="53">window-frame-exclusion</text>
   </a>
   <path class="line"
          d="m17 17 h2 m20 0 h10 m62 0 h10 m0 0 h16 m-118 0 h20 m98 0 h20 m-138 0 q10 0 10 10 m118 0 q0 -10 10 -10 m-128 10 v24 m118 0 v-24 m-118 24 q0 10 10 10 m98 0 q10 0 10 -10 m-108 10 h10 m66 0 h10 m0 0 h12 m-108 -10 v20 m118 0 v-20 m-118 20 v24 m118 0 v-24 m-118 24 q0 10 10 10 m98 0 q10 0 10 -10 m-108 10 h10 m78 0 h10 m20 -88 h10 m156 0 h10 m20 0 h10 m0 0 h184 m-214 0 h20 m194 0 h20 m-234 0 q10 0 10 10 m214 0 q0 -10 10 -10 m-224 10 v12 m214 0 v-12 m-214 12 q0 10 10 10 m194 0 q10 0 10 -10 m-204 10 h10 m174 0 h10 m23 -32 h-3"/>
   <polygon points="577 17 585 13 585 21"/>
   <polygon points="577 17 569 13 569 21"/>
</svg>
