<?xml version="1.0" encoding="UTF-8"?>
<svg xmlns="http://www.w3.org/2000/svg" width="451" height="121">
   <defs>
      <style type="text/css">
    @namespace "http://www.w3.org/2000/svg";
    .line                 {fill: none; stroke: #332900; stroke-width: 1;}
    .bold-line            {stroke: #141000; shape-rendering: crispEdges; stroke-width: 2;}
    .thin-line            {stroke: #1F1800; shape-rendering: crispEdges}
    .filled               {fill: #332900; stroke: none;}
    text.terminal         {font-family: Verdana, Sans-serif;
                            font-size: 12px;
                            fill: #141000;
                            font-weight: bold;
                          }
    text.nonterminal      {font-family: Verdana, Sans-serif;
                            font-size: 12px;
                            fill: #1A1400;
                            font-weight: normal;
                          }
    text.regexp           {font-family: Verdana, Sans-serif;
                            font-size: 12px;
                            fill: #1F1800;
                            font-weight: normal;
                          }
    rect, circle, polygon {fill: #332900; stroke: #332900;}
    rect.terminal         {fill: #FFDB4D; stroke: #332900; stroke-width: 1;}
    rect.nonterminal      {fill: #FFEC9E; stroke: #332900; stroke-width: 1;}
    rect.text             {fill: none; stroke: none;}
    polygon.regexp        {fill: #FFF4C7; stroke: #332900; stroke-width: 1;}
  </style>
   </defs>
   <polygon points="9 5 1 1 1 9"/>
   <polygon points="17 5 9 1 9 9"/>
   <a xmlns:xlink="http://www.w3.org/1999/xlink"
       xlink:href="#expr"
       xlink:title="expr">
      <rect x="51" y="23" width="48" height="32"/>
      <rect x="49" y="21" width="48" height="32" class="nonterminal"/>
      <text class="nonterminal" x="59" y="41">expr</text>
   </a>
   <rect x="139" y="55" width="24" height="32" rx="10"/>
   <rect x="137"
          y="53"
          width="24"
          height="32"
          class="terminal"
          rx="10"/>
   <text class="terminal" x="147" y="73">,</text>
   <a xmlns:xlink="http://www.w3.org/1999/xlink"
       xlink:href="#expr"
       xlink:title="expr">
      <rect x="183" y="55" width="48" height="32"/>
      <rect x="181" y="53" width="48" height="32" class="nonterminal"/>
      <text class="nonterminal" x="191" y="73">expr</text>
   </a>
   <rect x="271" y="87" width="24" height="32" rx="10"/>
   <rect x="269"
          y="85"
          width="24"
          height="32"
          class="terminal"
          rx="10"/>
   <text class="terminal" x="279" y="105">,</text>
   <a xmlns:xlink="http://www.w3.org/1999/xlink"
       xlink:href="#expr"
       xlink:title="expr">
      <rect x="315" y="87" width="48" height="32"/>
      <rect x="313" y="85" width="48" height="32" class="nonterminal"/>
      <text class="nonterminal" x="323" y="105">expr</text>
   </a>
   <path class="line"
          d="m17 5 h2 m20 0 h10 m0 0 h362 m-392 0 h20 m372 0 h20 m-412 0 q10 0 10 10 m392 0 q0 -10 10 -10 m-402 10 v12 m392 0 v-12 m-392 12 q0 10 10 10 m372 0 q10 0 10 -10 m-382 10 h10 m48 0 h10 m20 0 h10 m0 0 h254 m-284 0 h20 m264 0 h20 m-304 0 q10 0 10 10 m284 0 q0 -10 10 -10 m-294 10 v12 m284 0 v-12 m-284 12 q0 10 10 10 m264 0 q10 0 10 -10 m-274 10 h10 m24 0 h10 m0 0 h10 m48 0 h10 m20 0 h10 m0 0 h102 m-132 0 h20 m112 0 h20 m-152 0 q10 0 10 10 m132 0 q0 -10 10 -10 m-142 10 v12 m132 0 v-12 m-132 12 q0 10 10 10 m112 0 q10 0 10 -10 m-122 10 h10 m24 0 h10 m0 0 h10 m48 0 h10 m63 -96 h-3"/>
   <polygon points="441 5 449 1 449 9"/>
   <polygon points="441 5 433 1 433 9"/>
</svg>
