<?xml version="1.0" encoding="UTF-8"?>
<svg xmlns="http://www.w3.org/2000/svg" width="627" height="143">
   <defs>
      <style type="text/css">
    @namespace "http://www.w3.org/2000/svg";
    .line                 {fill: none; stroke: #332900; stroke-width: 1;}
    .bold-line            {stroke: #141000; shape-rendering: crispEdges; stroke-width: 2;}
    .thin-line            {stroke: #1F1800; shape-rendering: crispEdges}
    .filled               {fill: #332900; stroke: none;}
    text.terminal         {font-family: Verdana, Sans-serif;
                            font-size: 12px;
                            fill: #141000;
                            font-weight: bold;
                          }
    text.nonterminal      {font-family: Verdana, Sans-serif;
                            font-size: 12px;
                            fill: #1A1400;
                            font-weight: normal;
                          }
    text.regexp           {font-family: Verdana, Sans-serif;
                            font-size: 12px;
                            fill: #1F1800;
                            font-weight: normal;
                          }
    rect, circle, polygon {fill: #332900; stroke: #332900;}
    rect.terminal         {fill: #FFDB4D; stroke: #332900; stroke-width: 1;}
    rect.nonterminal      {fill: #FFEC9E; stroke: #332900; stroke-width: 1;}
    rect.text             {fill: none; stroke: none;}
    polygon.regexp        {fill: #FFF4C7; stroke: #332900; stroke-width: 1;}
  </style>
   </defs>
   <polygon points="9 5 1 1 1 9"/>
   <polygon points="17 5 9 1 9 9"/>
   <a xmlns:xlink="http://www.w3.org/1999/xlink"
       xlink:href="#window-ref"
       xlink:title="window-ref">
      <rect x="51" y="23" width="90" height="32"/>
      <rect x="49" y="21" width="90" height="32" class="nonterminal"/>
      <text class="nonterminal" x="59" y="41">window-ref</text>
   </a>
   <a xmlns:xlink="http://www.w3.org/1999/xlink"
       xlink:href="#window-partition-clause"
       xlink:title="window-partition-clause">
      <rect x="201" y="23" width="172" height="32"/>
      <rect x="199" y="21" width="172" height="32" class="nonterminal"/>
      <text class="nonterminal" x="209" y="41">window-partition-clause</text>
   </a>
   <a xmlns:xlink="http://www.w3.org/1999/xlink"
       xlink:href="#window-order-clause"
       xlink:title="window-order-clause">
      <rect x="433" y="23" width="152" height="32"/>
      <rect x="431" y="21" width="152" height="32" class="nonterminal"/>
      <text class="nonterminal" x="441" y="41">window-order-clause</text>
   </a>
   <a xmlns:xlink="http://www.w3.org/1999/xlink"
       xlink:href="#window-frame-clause"
       xlink:title="window-frame-clause">
      <rect x="425" y="109" width="154" height="32"/>
      <rect x="423" y="107" width="154" height="32" class="nonterminal"/>
      <text class="nonterminal" x="433" y="127">window-frame-clause</text>
   </a>
   <path class="line"
          d="m17 5 h2 m20 0 h10 m0 0 h100 m-130 0 h20 m110 0 h20 m-150 0 q10 0 10 10 m130 0 q0 -10 10 -10 m-140 10 v12 m130 0 v-12 m-130 12 q0 10 10 10 m110 0 q10 0 10 -10 m-120 10 h10 m90 0 h10 m40 -32 h10 m0 0 h182 m-212 0 h20 m192 0 h20 m-232 0 q10 0 10 10 m212 0 q0 -10 10 -10 m-222 10 v12 m212 0 v-12 m-212 12 q0 10 10 10 m192 0 q10 0 10 -10 m-202 10 h10 m172 0 h10 m40 -32 h10 m0 0 h162 m-192 0 h20 m172 0 h20 m-212 0 q10 0 10 10 m192 0 q0 -10 10 -10 m-202 10 v12 m192 0 v-12 m-192 12 q0 10 10 10 m172 0 q10 0 10 -10 m-182 10 h10 m152 0 h10 m22 -32 l2 0 m2 0 l2 0 m2 0 l2 0 m-244 86 l2 0 m2 0 l2 0 m2 0 l2 0 m22 0 h10 m0 0 h164 m-194 0 h20 m174 0 h20 m-214 0 q10 0 10 10 m194 0 q0 -10 10 -10 m-204 10 v12 m194 0 v-12 m-194 12 q0 10 10 10 m174 0 q10 0 10 -10 m-184 10 h10 m154 0 h10 m23 -32 h-3"/>
   <polygon points="617 91 625 87 625 95"/>
   <polygon points="617 91 609 87 609 95"/>
</svg>
