<?xml version="1.0" encoding="UTF-8"?>
<svg xmlns="http://www.w3.org/2000/svg" width="469" height="69">
   <defs>
      <style type="text/css">
    @namespace "http://www.w3.org/2000/svg";
    .line                 {fill: none; stroke: #332900; stroke-width: 1;}
    .bold-line            {stroke: #141000; shape-rendering: crispEdges; stroke-width: 2;}
    .thin-line            {stroke: #1F1800; shape-rendering: crispEdges}
    .filled               {fill: #332900; stroke: none;}
    text.terminal         {font-family: Verdana, Sans-serif;
                            font-size: 12px;
                            fill: #141000;
                            font-weight: bold;
                          }
    text.nonterminal      {font-family: Verdana, Sans-serif;
                            font-size: 12px;
                            fill: #1A1400;
                            font-weight: normal;
                          }
    text.regexp           {font-family: Verdana, Sans-serif;
                            font-size: 12px;
                            fill: #1F1800;
                            font-weight: normal;
                          }
    rect, circle, polygon {fill: #332900; stroke: #332900;}
    rect.terminal         {fill: #FFDB4D; stroke: #332900; stroke-width: 1;}
    rect.nonterminal      {fill: #FFEC9E; stroke: #332900; stroke-width: 1;}
    rect.text             {fill: none; stroke: none;}
    polygon.regexp        {fill: #FFF4C7; stroke: #332900; stroke-width: 1;}
  </style>
   </defs>
   <polygon points="9 17 1 13 1 21"/>
   <polygon points="17 17 9 13 9 21"/>
   <a xmlns:xlink="http://www.w3.org/1999/xlink"
       xlink:href="#search-expr"
       xlink:title="search-expr">
      <rect x="31" y="3" width="96" height="32"/>
      <rect x="29" y="1" width="96" height="32" class="nonterminal"/>
      <text class="nonterminal" x="39" y="21">search-expr</text>
   </a>
   <rect x="167" y="35" width="48" height="32" rx="10"/>
   <rect x="165"
          y="33"
          width="48"
          height="32"
          class="terminal"
          rx="10"/>
   <text class="terminal" x="175" y="53">NOT</text>
   <rect x="255" y="3" width="74" height="32" rx="10"/>
   <rect x="253"
          y="1"
          width="74"
          height="32"
          class="terminal"
          rx="10"/>
   <text class="terminal" x="263" y="21">WITHIN</text>
   <a xmlns:xlink="http://www.w3.org/1999/xlink"
       xlink:href="#target-expr"
       xlink:title="target-expr">
      <rect x="349" y="3" width="92" height="32"/>
      <rect x="347" y="1" width="92" height="32" class="nonterminal"/>
      <text class="nonterminal" x="357" y="21">target-expr</text>
   </a>
   <path class="line"
          d="m17 17 h2 m0 0 h10 m96 0 h10 m20 0 h10 m0 0 h58 m-88 0 h20 m68 0 h20 m-108 0 q10 0 10 10 m88 0 q0 -10 10 -10 m-98 10 v12 m88 0 v-12 m-88 12 q0 10 10 10 m68 0 q10 0 10 -10 m-78 10 h10 m48 0 h10 m20 -32 h10 m74 0 h10 m0 0 h10 m92 0 h10 m3 0 h-3"/>
   <polygon points="459 17 467 13 467 21"/>
   <polygon points="459 17 451 13 451 21"/>
</svg>
