<?xml version="1.0" encoding="UTF-8"?>
<svg xmlns="http://www.w3.org/2000/svg" width="495" height="125">
   <defs>
      <style type="text/css">
    @namespace "http://www.w3.org/2000/svg";
    .line                 {fill: none; stroke: #332900; stroke-width: 1;}
    .bold-line            {stroke: #141000; shape-rendering: crispEdges; stroke-width: 2;}
    .thin-line            {stroke: #1F1800; shape-rendering: crispEdges}
    .filled               {fill: #332900; stroke: none;}
    text.terminal         {font-family: Verdana, Sans-serif;
                            font-size: 12px;
                            fill: #141000;
                            font-weight: bold;
                          }
    text.nonterminal      {font-family: Verdana, Sans-serif;
                            font-size: 12px;
                            fill: #1A1400;
                            font-weight: normal;
                          }
    text.regexp           {font-family: Verdana, Sans-serif;
                            font-size: 12px;
                            fill: #1F1800;
                            font-weight: normal;
                          }
    rect, circle, polygon {fill: #332900; stroke: #332900;}
    rect.terminal         {fill: #FFDB4D; stroke: #332900; stroke-width: 1;}
    rect.nonterminal      {fill: #FFEC9E; stroke: #332900; stroke-width: 1;}
    rect.text             {fill: none; stroke: none;}
    polygon.regexp        {fill: #FFF4C7; stroke: #332900; stroke-width: 1;}
  </style>
   </defs>
   <polygon points="9 61 1 57 1 65"/>
   <polygon points="17 61 9 57 9 65"/>
   <rect x="31" y="47" width="58" height="32" rx="10"/>
   <rect x="29"
          y="45"
          width="58"
          height="32"
          class="terminal"
          rx="10"/>
   <text class="terminal" x="39" y="65">WITH</text>
   <a xmlns:xlink="http://www.w3.org/1999/xlink"
       xlink:href="#alias"
       xlink:title="alias">
      <rect x="129" y="47" width="50" height="32"/>
      <rect x="127" y="45" width="50" height="32" class="nonterminal"/>
      <text class="nonterminal" x="137" y="65">alias</text>
   </a>
   <rect x="199" y="47" width="38" height="32" rx="10"/>
   <rect x="197"
          y="45"
          width="38"
          height="32"
          class="terminal"
          rx="10"/>
   <text class="terminal" x="207" y="65">AS</text>
   <rect x="257" y="47" width="26" height="32" rx="10"/>
   <rect x="255"
          y="45"
          width="26"
          height="32"
          class="terminal"
          rx="10"/>
   <text class="terminal" x="265" y="65">(</text>
   <a xmlns:xlink="http://www.w3.org/1999/xlink"
       xlink:href="#select"
       xlink:title="select">
      <rect x="323" y="47" width="58" height="32"/>
      <rect x="321" y="45" width="58" height="32" class="nonterminal"/>
      <text class="nonterminal" x="331" y="65">select</text>
   </a>
   <a xmlns:xlink="http://www.w3.org/1999/xlink"
       xlink:href="#expr"
       xlink:title="expr">
      <rect x="323" y="91" width="48" height="32"/>
      <rect x="321" y="89" width="48" height="32" class="nonterminal"/>
      <text class="nonterminal" x="331" y="109">expr</text>
   </a>
   <rect x="421" y="47" width="26" height="32" rx="10"/>
   <rect x="419"
          y="45"
          width="26"
          height="32"
          class="terminal"
          rx="10"/>
   <text class="terminal" x="429" y="65">)</text>
   <rect x="129" y="3" width="24" height="32" rx="10"/>
   <rect x="127"
          y="1"
          width="24"
          height="32"
          class="terminal"
          rx="10"/>
   <text class="terminal" x="137" y="21">,</text>
   <path class="line"
          d="m17 61 h2 m0 0 h10 m58 0 h10 m20 0 h10 m50 0 h10 m0 0 h10 m38 0 h10 m0 0 h10 m26 0 h10 m20 0 h10 m58 0 h10 m-98 0 h20 m78 0 h20 m-118 0 q10 0 10 10 m98 0 q0 -10 10 -10 m-108 10 v24 m98 0 v-24 m-98 24 q0 10 10 10 m78 0 q10 0 10 -10 m-88 10 h10 m48 0 h10 m0 0 h10 m20 -44 h10 m26 0 h10 m-358 0 l20 0 m-1 0 q-9 0 -9 -10 l0 -24 q0 -10 10 -10 m338 44 l20 0 m-20 0 q10 0 10 -10 l0 -24 q0 -10 -10 -10 m-338 0 h10 m24 0 h10 m0 0 h294 m23 44 h-3"/>
   <polygon points="485 61 493 57 493 65"/>
   <polygon points="485 61 477 57 477 65"/>
</svg>
