<?xml version="1.0" encoding="us-ascii" standalone="no"?><svg xmlns="http://www.w3.org/2000/svg" xmlns:xlink="http://www.w3.org/1999/xlink" contentStyleType="text/css" height="396px" preserveAspectRatio="none" style="width:1008px;height:396px;background:#FFFFFF;" version="1.1" viewBox="0 0 1008 396" width="1008px" zoomAndPan="magnify"><defs/><g><!--cluster Cluster--><g id="cluster_Cluster"><rect fill="none" height="383.48" rx="2.5" ry="2.5" style="stroke:#181818;stroke-width:1.0;" width="995" x="7" y="7"/><path d="M74,7 L74,16.2969 L64,26.2969 L7,26.2969 " fill="none" style="stroke:#181818;stroke-width:1.0;"/><text fill="#000000" font-family="sans-serif" font-size="14" font-weight="bold" lengthAdjust="spacing" textLength="57" x="10" y="20.9951">Cluster</text></g><!--cluster globalLibrary--><g id="cluster_globalLibrary"><rect fill="#FFFFFF" height="162.48" rx="2.5" ry="2.5" style="stroke:#181818;stroke-width:1.0;" width="623" x="355" y="156"/><path d="M467,156 L467,165.2969 L457,175.2969 L355,175.2969 " fill="none" style="stroke:#181818;stroke-width:1.0;"/><text fill="#000000" font-family="sans-serif" font-size="14" font-weight="bold" lengthAdjust="spacing" textLength="102" x="358" y="169.9951">global library</text></g><!--cluster Bucket--><g id="cluster_Bucket"><path d="M31,60 C31,50 181,50 181,50 C181,50 331,50 331,60 L331,356.48 C331,366.48 181,366.48 181,366.48 C181,366.48 31,366.48 31,356.48 L31,60 " fill="none" style="stroke:#181818;stroke-width:1.0;"/><path d="M31,60 C31,70 181,70 181,70 C181,70 331,70 331,60 " fill="none" style="stroke:#181818;stroke-width:1.0;"/><text fill="#000000" font-family="sans-serif" font-size="14" font-weight="bold" lengthAdjust="spacing" textLength="54" x="154" y="84.9951">Bucket</text></g><!--cluster Scope--><g id="cluster_Scope"><polygon fill="#FFFFFF" points="55,118,65,108,307,108,307,332.48,297,342.48,55,342.48,55,118" style="stroke:#181818;stroke-width:1.0;"/><line style="stroke:#181818;stroke-width:1.0;" x1="297" x2="307" y1="118" y2="108"/><line style="stroke:#181818;stroke-width:1.0;" x1="55" x2="297" y1="118" y2="118"/><line style="stroke:#181818;stroke-width:1.0;" x1="297" x2="297" y1="118" y2="342.48"/><text fill="#000000" font-family="sans-serif" font-size="14" font-weight="bold" lengthAdjust="spacing" textLength="49" x="152.5" y="133.9951">Scope</text></g><!--cluster my-library--><g id="cluster_my-library"><rect fill="#FFFFFF" height="162.48" rx="2.5" ry="2.5" style="stroke:#181818;stroke-width:1.0;" width="204" x="79" y="156"/><path d="M168,156 L168,165.2969 L158,175.2969 L79,175.2969 " fill="none" style="stroke:#181818;stroke-width:1.0;"/><text fill="#000000" font-family="sans-serif" font-size="14" font-weight="bold" lengthAdjust="spacing" textLength="79" x="82" y="169.9951">my-library</text></g><!--entity function3--><g id="elem_function3"><rect fill="#FFFFF0" height="111.4844" rx="2.5" ry="2.5" style="stroke:#181818;stroke-width:0.5;" width="278" x="684" y="191"/><rect fill="#FFFFF0" height="10" style="stroke:#181818;stroke-width:0.5;" width="15" x="942" y="196"/><rect fill="#FFFFF0" height="2" style="stroke:#181818;stroke-width:0.5;" width="4" x="940" y="198"/><rect fill="#FFFFF0" height="2" style="stroke:#181818;stroke-width:0.5;" width="4" x="940" y="202"/><text fill="#000000" font-family="sans-serif" font-size="14" lengthAdjust="spacing" textLength="4" x="699" y="223.9951">&#160;</text><text fill="#000000" font-family="sans-serif" font-size="14" lengthAdjust="spacing" textLength="238" x="699" y="240.292">function globalUKHoliday(... args) {</text><text fill="#000000" font-family="sans-serif" font-size="14" lengthAdjust="spacing" textLength="12" x="699" y="256.5889">...</text><text fill="#000000" font-family="sans-serif" font-size="14" lengthAdjust="spacing" textLength="9" x="699" y="272.8857">}</text><text fill="#000000" font-family="sans-serif" font-size="14" lengthAdjust="spacing" textLength="4" x="699" y="289.1826">&#160;</text></g><!--entity function4--><g id="elem_function4"><rect fill="#FFFFF0" height="111.4844" rx="2.5" ry="2.5" style="stroke:#181818;stroke-width:0.5;" width="278" x="371" y="191"/><rect fill="#FFFFF0" height="10" style="stroke:#181818;stroke-width:0.5;" width="15" x="629" y="196"/><rect fill="#FFFFF0" height="2" style="stroke:#181818;stroke-width:0.5;" width="4" x="627" y="198"/><rect fill="#FFFFF0" height="2" style="stroke:#181818;stroke-width:0.5;" width="4" x="627" y="202"/><text fill="#000000" font-family="sans-serif" font-size="14" lengthAdjust="spacing" textLength="4" x="386" y="223.9951">&#160;</text><text fill="#000000" font-family="sans-serif" font-size="14" lengthAdjust="spacing" textLength="238" x="386" y="240.292">function globalUSHoliday(... args) {</text><text fill="#000000" font-family="sans-serif" font-size="14" lengthAdjust="spacing" textLength="12" x="386" y="256.5889">...</text><text fill="#000000" font-family="sans-serif" font-size="14" lengthAdjust="spacing" textLength="9" x="386" y="272.8857">}</text><text fill="#000000" font-family="sans-serif" font-size="14" lengthAdjust="spacing" textLength="4" x="386" y="289.1826">&#160;</text></g><!--entity function1--><g id="elem_function1"><rect fill="#FFFFF0" height="111.4844" rx="2.5" ry="2.5" style="stroke:#181818;stroke-width:0.5;" width="171" x="95.5" y="191"/><rect fill="#FFFFF0" height="10" style="stroke:#181818;stroke-width:0.5;" width="15" x="246.5" y="196"/><rect fill="#FFFFF0" height="2" style="stroke:#181818;stroke-width:0.5;" width="4" x="244.5" y="198"/><rect fill="#FFFFF0" height="2" style="stroke:#181818;stroke-width:0.5;" width="4" x="244.5" y="202"/><text fill="#000000" font-family="sans-serif" font-size="14" lengthAdjust="spacing" textLength="4" x="110.5" y="223.9951">&#160;</text><text fill="#000000" font-family="sans-serif" font-size="14" lengthAdjust="spacing" textLength="131" x="110.5" y="240.292">function add(x, y) {</text><text fill="#000000" font-family="sans-serif" font-size="14" lengthAdjust="spacing" textLength="12" x="110.5" y="256.5889">...</text><text fill="#000000" font-family="sans-serif" font-size="14" lengthAdjust="spacing" textLength="9" x="110.5" y="272.8857">}</text><text fill="#000000" font-family="sans-serif" font-size="14" lengthAdjust="spacing" textLength="4" x="110.5" y="289.1826">&#160;</text></g><!--SRC=[fL7B2i8m4BpdAvRsKa4Beb-W5qLl8Xx4mxP9jPWcagPgaVoxwSFwLj0zXEmoipFCHWeJ1aEUfPefE142jg9owAov3903ZmE5AdS0KwX6qse2xc4JQsPP1QbyYWfbifE22GrH9a8TIz43TxoNbh1iG8z5BjXQOZuPIHvJp3tVzm7LEctLEaLVSqophlcilddf_-1bzeyNKsLAKME0gOrra8LRffrwnHr3I6e1ir3kc0FkuYRT1-3DbPAyqrpe1UKD-KKotU_9tAU3b7h7DkGVqtXINf5FtiorDSIS0G00]--></g></svg>