<?xml version="1.0" encoding="us-ascii" standalone="no"?><svg xmlns="http://www.w3.org/2000/svg" xmlns:xlink="http://www.w3.org/1999/xlink" contentStyleType="text/css" height="501px" preserveAspectRatio="none" style="width:580px;height:501px;background:#FFFFFF;" version="1.1" viewBox="0 0 580 501" width="580px" zoomAndPan="magnify"><defs/><g><!--entity cluster--><g id="elem_cluster"><polygon fill="#F1F1F1" points="196,16,206,6,366,6,366,42.2969,356,52.2969,196,52.2969,196,16" style="stroke:#181818;stroke-width:0.5;"/><line style="stroke:#181818;stroke-width:0.5;" x1="356" x2="366" y1="16" y2="6"/><line style="stroke:#181818;stroke-width:0.5;" x1="196" x2="356" y1="16" y2="16"/><line style="stroke:#181818;stroke-width:0.5;" x1="356" x2="356" y1="16" y2="52.2969"/><text fill="#000000" font-family="sans-serif" font-size="14" lengthAdjust="spacing" textLength="130" x="211" y="38.9951">Couchbase cluster</text></g><!--entity bucket--><g id="elem_bucket"><path d="M246.5,127.35 C246.5,117.35 281,117.35 281,117.35 C281,117.35 315.5,117.35 315.5,127.35 L315.5,152.6469 C315.5,162.6469 281,162.6469 281,162.6469 C281,162.6469 246.5,162.6469 246.5,152.6469 L246.5,127.35 " fill="#F1F1F1" style="stroke:#181818;stroke-width:0.5;"/><path d="M246.5,127.35 C246.5,137.35 281,137.35 281,137.35 C281,137.35 315.5,137.35 315.5,127.35 " fill="none" style="stroke:#181818;stroke-width:0.5;"/><text fill="#000000" font-family="sans-serif" font-size="14" lengthAdjust="spacing" textLength="49" x="256.5" y="154.3451">Bucket</text></g><!--entity scope--><g id="elem_scope"><rect fill="#F1F1F1" height="36.2969" rx="2.5" ry="2.5" style="stroke:#181818;stroke-width:0.5;" width="64" x="249" y="237.25"/><text fill="#000000" font-family="sans-serif" font-size="14" lengthAdjust="spacing" textLength="44" x="259" y="260.2451">Scope</text></g><!--entity collection--><g id="elem_collection"><path d="M234.5,343.65 L275.5,343.65 A3.75,3.75 0 0 1 278,346.15 L285,364.65 L327.5,364.65 A2.5,2.5 0 0 1 330,367.15 L330,395.4469 A2.5,2.5 0 0 1 327.5,397.9469 L234.5,397.9469 A2.5,2.5 0 0 1 232,395.4469 L232,346.15 A2.5,2.5 0 0 1 234.5,343.65 " fill="#F1F1F1" style="stroke:#181818;stroke-width:0.5;"/><line style="stroke:#181818;stroke-width:0.5;" x1="232" x2="285" y1="364.65" y2="364.65"/><text fill="#000000" font-family="sans-serif" font-size="14" lengthAdjust="spacing" textLength="68" x="242" y="384.6451">Collection</text></g><!--entity document1--><g id="elem_document1"><path d="M87,460.99 L87,492.2869 A2.5,2.5 0 0 0 89.5,494.7869 L190.5,494.7869 A2.5,2.5 0 0 0 193,492.2869 L193,468.49 L183,458.49 L89.5,458.49 A2.5,2.5 0 0 0 87,460.99 " fill="#F1F1F1" style="stroke:#181818;stroke-width:0.5;"/><path d="M183,458.49 L183,465.99 A2.5,2.5 0 0 0 185.5,468.49 L193,468.49 " fill="#F1F1F1" style="stroke:#181818;stroke-width:0.5;"/><text fill="#000000" font-family="sans-serif" font-size="14" lengthAdjust="spacing" textLength="86" x="97" y="481.4851">Document 1</text></g><!--entity document2--><g id="elem_document2"><path d="M228,460.99 L228,492.2869 A2.5,2.5 0 0 0 230.5,494.7869 L331.5,494.7869 A2.5,2.5 0 0 0 334,492.2869 L334,468.49 L324,458.49 L230.5,458.49 A2.5,2.5 0 0 0 228,460.99 " fill="#F1F1F1" style="stroke:#181818;stroke-width:0.5;"/><path d="M324,458.49 L324,465.99 A2.5,2.5 0 0 0 326.5,468.49 L334,468.49 " fill="#F1F1F1" style="stroke:#181818;stroke-width:0.5;"/><text fill="#000000" font-family="sans-serif" font-size="14" lengthAdjust="spacing" textLength="86" x="238" y="481.4851">Document 2</text></g><!--entity document3--><g id="elem_document3"><path d="M369,460.99 L369,492.2869 A2.5,2.5 0 0 0 371.5,494.7869 L472.5,494.7869 A2.5,2.5 0 0 0 475,492.2869 L475,468.49 L465,458.49 L371.5,458.49 A2.5,2.5 0 0 0 369,460.99 " fill="#F1F1F1" style="stroke:#181818;stroke-width:0.5;"/><path d="M465,458.49 L465,465.99 A2.5,2.5 0 0 0 467.5,468.49 L475,468.49 " fill="#F1F1F1" style="stroke:#181818;stroke-width:0.5;"/><text fill="#000000" font-family="sans-serif" font-size="14" lengthAdjust="spacing" textLength="86" x="379" y="481.4851">Document 3</text></g><g id="elem_GMN15"><path d="M350,112.3 L350,136 L315.9,140 L350,144 L350,167.6984 A0,0 0 0 0 350,167.6984 L546,167.6984 A0,0 0 0 0 546,167.6984 L546,122.3 L536,112.3 L350,112.3 A0,0 0 0 0 350,112.3 " fill="#FEFFDD" style="stroke:#181818;stroke-width:0.5;"/><path d="M536,112.3 L536,122.3 L546,122.3 L536,112.3 " fill="#FEFFDD" style="stroke:#181818;stroke-width:0.5;"/><text fill="#000000" font-family="sans-serif" font-size="13" lengthAdjust="spacing" textLength="4" x="356" y="129.3669">&#160;</text><text fill="#000000" font-family="sans-serif" font-size="13" lengthAdjust="spacing" textLength="175" x="356" y="144.4997">Maximum of  30 per cluster</text><text fill="#000000" font-family="sans-serif" font-size="13" lengthAdjust="spacing" textLength="4" x="356" y="159.6325">&#160;</text></g><g id="elem_GMN18"><path d="M6,227.7 L6,283.0984 A0,0 0 0 0 6,283.0984 L214,283.0984 A0,0 0 0 0 214,283.0984 L214,259.4 L248.65,255.4 L214,251.4 L214,237.7 L204,227.7 L6,227.7 A0,0 0 0 0 6,227.7 " fill="#FEFFDD" style="stroke:#181818;stroke-width:0.5;"/><path d="M204,227.7 L204,237.7 L214,237.7 L204,227.7 " fill="#FEFFDD" style="stroke:#181818;stroke-width:0.5;"/><text fill="#000000" font-family="sans-serif" font-size="13" lengthAdjust="spacing" textLength="4" x="12" y="244.7669">&#160;</text><text fill="#000000" font-family="sans-serif" font-size="13" lengthAdjust="spacing" textLength="187" x="12" y="259.8997">Maximum of 1000 per cluster</text><text fill="#000000" font-family="sans-serif" font-size="13" lengthAdjust="spacing" textLength="4" x="12" y="275.0325">&#160;</text></g><g id="elem_GMN21"><path d="M365,343.09 L365,366.79 L330.2,370.79 L365,374.79 L365,398.4884 A0,0 0 0 0 365,398.4884 L573,398.4884 A0,0 0 0 0 573,398.4884 L573,353.09 L563,343.09 L365,343.09 A0,0 0 0 0 365,343.09 " fill="#FEFFDD" style="stroke:#181818;stroke-width:0.5;"/><path d="M563,343.09 L563,353.09 L573,353.09 L563,343.09 " fill="#FEFFDD" style="stroke:#181818;stroke-width:0.5;"/><text fill="#000000" font-family="sans-serif" font-size="13" lengthAdjust="spacing" textLength="4" x="371" y="360.1569">&#160;</text><text fill="#000000" font-family="sans-serif" font-size="13" lengthAdjust="spacing" textLength="187" x="371" y="375.2897">Maximum of 1000 per cluster</text><text fill="#000000" font-family="sans-serif" font-size="13" lengthAdjust="spacing" textLength="4" x="371" y="390.4225">&#160;</text></g><!--link cluster to bucket--><g id="link_cluster_bucket"><path d="M281,52.7 C281,69.71 281,93.13 281,111.28 " fill="none" id="cluster-to-bucket" style="stroke:#181818;stroke-width:1.0;"/><polygon fill="#181818" points="281,116.22,285,107.22,281,111.22,277,107.22,281,116.22" style="stroke:#181818;stroke-width:1.0;"/></g><!--link bucket to scope--><g id="link_bucket_scope"><path d="M281,163.13 C281,182.64 281,210.98 281,230.89 " fill="none" id="bucket-to-scope" style="stroke:#181818;stroke-width:1.0;"/><polygon fill="#181818" points="281,235.78,285,226.78,281,230.78,277,226.78,281,235.78" style="stroke:#181818;stroke-width:1.0;"/></g><!--link scope to collection--><g id="link_scope_collection"><path d="M281,273.62 C281,290.54 281,322.76 281,343.56 " fill="none" id="scope-to-collection" style="stroke:#181818;stroke-width:1.0;"/><polygon fill="#181818" points="281,348.54,285,339.54,281,343.54,277,339.54,281,348.54" style="stroke:#181818;stroke-width:1.0;"/></g><!--link collection to document1--><g id="link_collection_document1"><path d="M245.05,398.27 C221.29,415.77 190.56,438.4 168.49,454.66 " fill="none" id="collection-to-document1" style="stroke:#181818;stroke-width:1.0;"/><polygon fill="#181818" points="164.91,458.03,174.5273,455.9068,168.9338,455.0621,169.7786,449.4686,164.91,458.03" style="stroke:#181818;stroke-width:1.0;"/></g><!--link collection to document2--><g id="link_collection_document2"><path d="M281,398.27 C281,414.97 281,436.33 281,452.38 " fill="none" id="collection-to-document2" style="stroke:#181818;stroke-width:1.0;"/><polygon fill="#181818" points="281,457.03,285,448.03,281,452.03,277,448.03,281,457.03" style="stroke:#181818;stroke-width:1.0;"/></g><!--link collection to document3--><g id="link_collection_document3"><path d="M316.95,398.27 C340.71,415.77 371.44,438.4 393.51,454.66 " fill="none" id="collection-to-document3" style="stroke:#181818;stroke-width:1.0;"/><polygon fill="#181818" points="397.09,458.03,392.2214,449.4686,393.0662,455.0621,387.4727,455.9068,397.09,458.03" style="stroke:#181818;stroke-width:1.0;"/></g><!--SRC=[ZP1D3y8W38Rl_HNDxalsSVUWNZtv2nWKNMHWDaZy-KBtwOo97A3bwLjUQfqYp4uko7iZ1a9fmk2fpr0CSmoWX1TCisEG3_9C6mu1Uf9Us9k9z2hTanWEAGBGpYZgKtzZObdhxDXuII4ktIRjsSdGaVLOSecQqdAFgmzSxN7zWMk0wHEOvuVPydZmpUYJTyutpjQGoMhe1wX-WMZ2Ea_OjxUxHwUNoU55lDekTEaEwmAVqUOySmIo2fDkKXlIB9ucYrjnMHGxzPTyUNmx-x-Rl040]--></g></svg>