<?xml version="1.0" encoding="UTF-8" standalone="no"?><svg xmlns="http://www.w3.org/2000/svg" xmlns:xlink="http://www.w3.org/1999/xlink" contentStyleType="text/css" height="294px" preserveAspectRatio="none" style="width:1241px;height:294px;background:#FFFFFF;" version="1.1" viewBox="0 0 1241 294" width="1241px" zoomAndPan="magnify"><defs/><g><!--MD5=[1a08f5c2f344d2fdeaebc4983dabfe2b]
cluster cAndA--><g id="cluster_cAndA"><rect fill="none" height="122" rx="2.5" ry="2.5" style="stroke:#181818;stroke-width:1.0;" width="620" x="169.5" y="70"/><path d="M462.5,70 L462.5,79.2969 L452.5,89.2969 L169.5,89.2969 " fill="none" style="stroke:#181818;stroke-width:1.0;"/><text fill="#000000" font-family="sans-serif" font-size="14" font-weight="bold" lengthAdjust="spacing" textLength="283" x="172.5" y="83.9951">Create library and add first function</text></g><!--MD5=[9780cf7e3f19098ffc51e0c2265c1688]
entity createLibrary--><g id="elem_createLibrary"><rect fill="#F1F1F1" height="36.2969" rx="2.5" ry="2.5" style="stroke:#181818;stroke-width:0.5;" width="133" x="193.5" y="113"/><text fill="#000000" font-family="sans-serif" font-size="14" lengthAdjust="spacing" textLength="113" x="203.5" y="135.9951">(1) Create library</text></g><!--MD5=[2fb1080adff7f992f74c072686d7cb6a]
entity addFunction--><g id="elem_addFunction"><rect fill="#F1F1F1" height="36.2969" rx="2.5" ry="2.5" style="stroke:#181818;stroke-width:0.5;" width="315" x="450.5" y="113"/><text fill="#000000" font-family="sans-serif" font-size="14" lengthAdjust="spacing" textLength="295" x="460.5" y="135.9951">(2) Add the JavaScript function to the library</text></g><!--MD5=[8fc3522a43f8c7199df5e09e5bb0188e]
entity user--><g id="elem_user"><ellipse cx="40.5" cy="109" fill="#F1F1F1" rx="16" ry="16" style="stroke:#181818;stroke-width:1.5;"/><path d="M40.5,129 C44.5,129 47.5,129 51.5,125 C59.5,125 67.5,133 67.5,141 L67.5,145 C67.5,149 63.5,153 59.5,153 L21.5,153 C17.5,153 13.5,149 13.5,145 L13.5,141 C13.5,133 21.5,125 29.5,125 C33.5,129 36.5,129 40.5,129 " fill="#F1F1F1" style="stroke:#181818;stroke-width:1.5;"/><text fill="#000000" font-family="sans-serif" font-size="14" lengthAdjust="spacing" textLength="69" x="6" y="167.4951">developer</text></g><g id="elem_GMN4"><path d="M135,219 L135,259.2656 L385,259.2656 L385,229 L375,219 L135,219 " fill="#FFFFF0" style="stroke:#181818;stroke-width:0.5;"/><path d="M375,219 L375,229 L385,229 L375,219 " fill="#FFFFF0" style="stroke:#181818;stroke-width:1.0;"/><text fill="#000000" font-family="sans-serif" font-size="13" lengthAdjust="spacing" textLength="202" x="141" y="236.0669">The library and the first function</text><text fill="#000000" font-family="sans-serif" font-size="13" lengthAdjust="spacing" textLength="229" x="141" y="251.1997">are usually added in the same step.</text></g><g id="elem_GMN7"><path d="M445,216.5 L445,287.0313 L771,287.0313 L771,226.5 L761,216.5 L445,216.5 " fill="#FFFFF0" style="stroke:#181818;stroke-width:0.5;"/><path d="M761,216.5 L761,226.5 L771,226.5 L761,216.5 " fill="#FFFFF0" style="stroke:#181818;stroke-width:1.0;"/><text fill="#000000" font-family="sans-serif" font-size="13" lengthAdjust="spacing" textLength="278" x="451" y="233.5669">The library can be created in a global library</text><text fill="#000000" font-family="sans-serif" font-size="13" lengthAdjust="spacing" textLength="241" x="451" y="248.6997">which is accessible across the cluster,</text><text fill="#000000" font-family="sans-serif" font-size="13" lengthAdjust="spacing" textLength="203" x="451" y="263.8325">or it can be set to be accessible</text><text fill="#000000" font-family="sans-serif" font-size="13" lengthAdjust="spacing" textLength="305" x="451" y="278.9653">by users with access to a scope within a bucket.</text></g><!--MD5=[60f0d50cabbb4d49de1b6d611b46e1e5]
entity createN1QL--><g id="elem_createN1QL"><rect fill="#F1F1F1" height="36.2969" rx="2.5" ry="2.5" style="stroke:#181818;stroke-width:0.5;" width="303" x="831" y="113"/><text fill="#000000" font-family="sans-serif" font-size="14" lengthAdjust="spacing" textLength="283" x="841" y="135.9951">(3) Create SQL++ User-Defined Function</text></g><!--MD5=[22efa60cf2b4332bf8574b0c93969d71]
entity end--><g id="elem_end"><ellipse cx="1221" cy="131" fill="#F1F1F1" rx="8" ry="8" style="stroke:#181818;stroke-width:0.5;"/><text fill="#000000" font-family="sans-serif" font-size="14" lengthAdjust="spacing" textLength="27" x="1207.5" y="160.9951">end</text></g><g id="elem_GMN18"><path d="M483.5,6 L483.5,46.2656 A0,0 0 0 0 483.5,46.2656 L604,46.2656 L608,112.95 L612,46.2656 L732.5,46.2656 A0,0 0 0 0 732.5,46.2656 L732.5,16 L722.5,6 L483.5,6 A0,0 0 0 0 483.5,6 " fill="#FFFFF0" style="stroke:#181818;stroke-width:0.5;"/><path d="M722.5,6 L722.5,16 L732.5,16 L722.5,6 " fill="#FFFFF0" style="stroke:#181818;stroke-width:0.5;"/><text fill="#000000" font-family="sans-serif" font-size="13" lengthAdjust="spacing" textLength="228" x="489.5" y="23.0669">The developer can add one or more</text><text fill="#000000" font-family="sans-serif" font-size="13" lengthAdjust="spacing" textLength="143" x="489.5" y="38.1997">functions to the library</text></g><!--MD5=[9b49f040221a2b06a8599d92c79ac79c]
link GMN4 to cAndA--><g id="link_GMN4_cAndA"><path d="M260,218.8 C260,213.09 260,207.38 260,201.67 C260,198.815 260,195.96 260,193.105 C260,192.7481 260,192.3913 260,192.0344 " fill="none" id="GMN4-cAndA" style="stroke:#181818;stroke-width:1.0;stroke-dasharray:7.0,7.0;"/></g><!--MD5=[676265709b2f6c853ad856eb0ad7827b]
link cAndA to GMN7--><g id="link_cAndA_GMN7"><path d="M327.7006,192.0272 C329.3917,192.2583 331.0958,192.4934 332.8106,192.7326 C336.2402,193.211 339.7123,193.7055 343.2073,194.2152 C357.1875,196.2538 371.535,198.535 385,201 C409.6,205.5 435.6,210.89 460.8,216.46 " fill="none" id="cAndA-GMN7" style="stroke:#181818;stroke-width:1.0;stroke-dasharray:7.0,7.0;"/></g><!--MD5=[0f8b7e88b556c29e5141b80afdc7c98c]
link createLibrary to addFunction--><g id="link_createLibrary_addFunction"><path d="M326.89,131 C360.62,131 403.3,131 445.11,131 " fill="none" id="createLibrary-to-addFunction" style="stroke:#181818;stroke-width:1.0;"/><polygon fill="#181818" points="450.2,131,441.2,127,445.2,131,441.2,135,450.2,131" style="stroke:#181818;stroke-width:1.0;"/></g><!--MD5=[fc5f50e29d813ac1059901a62aacd44d]
link user to createLibrary--><g id="link_user_createLibrary"><path d="M75.01,131 C105.11,131 150.31,131 188.38,131 " fill="none" id="user-to-createLibrary" style="stroke:#181818;stroke-width:1.0;"/><polygon fill="#181818" points="193.46,131,184.46,127,188.46,131,184.46,135,193.46,131" style="stroke:#181818;stroke-width:1.0;"/></g><!--MD5=[9ca99da250320f6b42d476613d9de75d]
link addFunction to createN1QL--><g id="link_addFunction_createN1QL"><path d="M765.62,131 C785.53,131 805.89,131 825.78,131 " fill="none" id="addFunction-to-createN1QL" style="stroke:#181818;stroke-width:1.0;"/><polygon fill="#181818" points="830.82,131,821.82,127,825.82,131,821.82,135,830.82,131" style="stroke:#181818;stroke-width:1.0;"/></g><!--MD5=[17e3491328fc727aa43e10b5d43d5bdc]
link createN1QL to end--><g id="link_createN1QL_end"><path d="M1134.28,131 C1164.37,131 1191.41,131 1206.75,131 " fill="none" id="createN1QL-to-end" style="stroke:#181818;stroke-width:1.0;"/><polygon fill="#181818" points="1211.86,131,1202.86,127,1206.86,131,1202.86,135,1211.86,131" style="stroke:#181818;stroke-width:1.0;"/></g><!--MD5=[5206d8fd0092fc447caae02ebdcb09da]
@startuml
skinparam ComponentStyle rectangle
skinparam ActorStyle awesome

left to right direction

actor "developer" as user

note top of cAndA #Ivory
  The library and the first function
  are usually added in the same step.
end note

note right of cAndA #Ivory
  The library can be created in a global library
  which is accessible across the cluster,
  or it can be set to be accessible
  by users with access to a scope within a bucket.
end note

frame "Create library and add first function" as cAndA {
  [(1) Create library] as createLibrary
  [(2) Add the JavaScript function to the library] as addFunction
  createLibrary  - -> addFunction
}

user - -> createLibrary
[(3) Create SQL++ User-Defined Function] as createN1QL

addFunction - -> createN1QL
createN1QL - ->() end

note top of addFunction #Ivory
  The developer can add one or more
  functions to the library
end note
@enduml

PlantUML version 1.2022.12(Sun Oct 23 18:12:26 GMT 2022)
(GPL source distribution)
Java Runtime: OpenJDK Runtime Environment
JVM: OpenJDK 64-Bit Server VM
Default Encoding: UTF-8
Language: en
Country: US
--></g></svg>