<?xml version="1.0" encoding="UTF-8" standalone="no"?><svg xmlns="http://www.w3.org/2000/svg" xmlns:xlink="http://www.w3.org/1999/xlink" contentStyleType="text/css" height="355px" preserveAspectRatio="none" style="width:602px;height:355px;background:#FFFFFF;" version="1.1" viewBox="0 0 602 355" width="602px" zoomAndPan="magnify"><defs/><g><!--MD5=[b2dfc59c7c99ce6f2dfd93d12d61802a]
cluster route--><g id="cluster_route"><path d="M8.5,72 L148.5,72 A3.75,3.75 0 0 1 151,74.5 L158,94.2969 L228.5,94.2969 A2.5,2.5 0 0 1 231,96.7969 L231,228.5 A2.5,2.5 0 0 1 228.5,231 L8.5,231 A2.5,2.5 0 0 1 6,228.5 L6,74.5 A2.5,2.5 0 0 1 8.5,72 " fill="none" style="stroke:#000000;stroke-width:1.5;"/><line style="stroke:#000000;stroke-width:1.5;" x1="6" x2="158" y1="94.2969" y2="94.2969"/><text fill="#000000" font-family="sans-serif" font-size="14" font-weight="bold" lengthAdjust="spacing" textLength="139" x="10" y="86.9951">Route documents</text></g><!--MD5=[7452be5c1507a2bba9399b76b0ba2bd9]
cluster airline--><g id="cluster_airline"><path d="M406.5,6 L550.5,6 A3.75,3.75 0 0 1 553,8.5 L560,28.2969 L592.5,28.2969 A2.5,2.5 0 0 1 595,30.7969 L595,162.5 A2.5,2.5 0 0 1 592.5,165 L406.5,165 A2.5,2.5 0 0 1 404,162.5 L404,8.5 A2.5,2.5 0 0 1 406.5,6 " fill="none" style="stroke:#000000;stroke-width:1.5;"/><line style="stroke:#000000;stroke-width:1.5;" x1="404" x2="560" y1="28.2969" y2="28.2969"/><text fill="#000000" font-family="sans-serif" font-size="14" font-weight="bold" lengthAdjust="spacing" textLength="143" x="408" y="20.9951">Airline documents</text></g><!--MD5=[32ae8a9674efac6f8769aadd1ef73608]
cluster airport--><g id="cluster_airport"><path d="M420,189 L569,189 A3.75,3.75 0 0 1 571.5,191.5 L578.5,211.2969 L579,211.2969 A2.5,2.5 0 0 1 581.5,213.7969 L581.5,345.5 A2.5,2.5 0 0 1 579,348 L420,348 A2.5,2.5 0 0 1 417.5,345.5 L417.5,191.5 A2.5,2.5 0 0 1 420,189 " fill="none" style="stroke:#000000;stroke-width:1.5;"/><line style="stroke:#000000;stroke-width:1.5;" x1="417.5" x2="578.5" y1="211.2969" y2="211.2969"/><text fill="#000000" font-family="sans-serif" font-size="14" font-weight="bold" lengthAdjust="spacing" textLength="148" x="421.5" y="203.9951">Airport documents</text></g><g id="elem_route_5966"><rect fill="#F1F1F1" height="101.4844" style="stroke:#181818;stroke-width:0.5;" width="177" x="30" y="111"/><text fill="#000000" font-family="sans-serif" font-size="14" font-weight="bold" lengthAdjust="spacing" textLength="90" x="73.5" y="125.9951">route_5966</text><line style="stroke:#181818;stroke-width:1.0;" x1="30" x2="207" y1="131.2969" y2="131.2969"/><text fill="#000000" font-family="sans-serif" font-size="14" lengthAdjust="spacing" textLength="12" x="75" y="146.292">id</text><text fill="#000000" font-family="sans-serif" font-size="14" lengthAdjust="spacing" textLength="36" x="137" y="146.292">5966</text><line style="stroke:#181818;stroke-width:1.0;" x1="132" x2="132" y1="131.2969" y2="151.5938"/><line style="stroke:#181818;stroke-width:1.0;" x1="30" x2="207" y1="151.5938" y2="151.5938"/><text fill="#000000" font-family="sans-serif" font-size="14" lengthAdjust="spacing" textLength="30" x="66" y="166.5889">type</text><text fill="#000000" font-family="sans-serif" font-size="14" lengthAdjust="spacing" textLength="37" x="137" y="166.5889">route</text><line style="stroke:#181818;stroke-width:1.0;" x1="132" x2="132" y1="151.5938" y2="171.8906"/><line style="stroke:#181818;stroke-width:1.0;" x1="30" x2="207" y1="171.8906" y2="171.8906"/><text fill="#000000" font-family="sans-serif" font-size="14" lengthAdjust="spacing" textLength="52" x="55" y="186.8857">airlineid</text><text fill="#FF0000" font-family="sans-serif" font-size="14" lengthAdjust="spacing" textLength="65" x="137" y="186.8857">airline_24</text><line style="stroke:#181818;stroke-width:1.0;" x1="132" x2="132" y1="171.8906" y2="192.1875"/><line style="stroke:#181818;stroke-width:1.0;" x1="30" x2="207" y1="192.1875" y2="192.1875"/><text fill="#000000" font-family="sans-serif" font-size="14" lengthAdjust="spacing" textLength="92" x="35" y="207.1826">sourceairport</text><text fill="#000000" font-family="sans-serif" font-size="14" lengthAdjust="spacing" textLength="27" x="137" y="207.1826">SEA</text><line style="stroke:#181818;stroke-width:1.0;" x1="132" x2="132" y1="192.1875" y2="212.4844"/></g><g id="elem_airline_24"><rect fill="#F1F1F1" height="101.4844" style="stroke:#181818;stroke-width:0.5;" width="143" x="428" y="45"/><text fill="#FF0000" font-family="sans-serif" font-size="14" font-weight="bold" lengthAdjust="spacing" textLength="75" x="462" y="59.9951">airline_24</text><line style="stroke:#181818;stroke-width:1.0;" x1="428" x2="571" y1="65.2969" y2="65.2969"/><text fill="#000000" font-family="sans-serif" font-size="14" lengthAdjust="spacing" textLength="12" x="452.5" y="80.292">id</text><text fill="#000000" font-family="sans-serif" font-size="14" lengthAdjust="spacing" textLength="18" x="494" y="80.292">24</text><line style="stroke:#181818;stroke-width:1.0;" x1="489" x2="489" y1="65.2969" y2="85.5938"/><line style="stroke:#181818;stroke-width:1.0;" x1="428" x2="571" y1="85.5938" y2="85.5938"/><text fill="#000000" font-family="sans-serif" font-size="14" lengthAdjust="spacing" textLength="30" x="443.5" y="100.5889">type</text><text fill="#000000" font-family="sans-serif" font-size="14" lengthAdjust="spacing" textLength="40" x="494" y="100.5889">airline</text><line style="stroke:#181818;stroke-width:1.0;" x1="489" x2="489" y1="85.5938" y2="105.8906"/><line style="stroke:#181818;stroke-width:1.0;" x1="428" x2="571" y1="105.8906" y2="105.8906"/><text fill="#000000" font-family="sans-serif" font-size="14" lengthAdjust="spacing" textLength="51" x="433" y="120.8857">callsign</text><text fill="#000000" font-family="sans-serif" font-size="14" lengthAdjust="spacing" textLength="72" x="494" y="120.8857">AMERICAN</text><line style="stroke:#181818;stroke-width:1.0;" x1="489" x2="489" y1="105.8906" y2="126.1875"/><line style="stroke:#181818;stroke-width:1.0;" x1="428" x2="571" y1="126.1875" y2="126.1875"/><text fill="#000000" font-family="sans-serif" font-size="14" lengthAdjust="spacing" textLength="24" x="446.5" y="141.1826">iata</text><text fill="#000000" font-family="sans-serif" font-size="14" lengthAdjust="spacing" textLength="18" x="494" y="141.1826">AA</text><line style="stroke:#181818;stroke-width:1.0;" x1="489" x2="489" y1="126.1875" y2="146.4844"/></g><g id="elem_airport_3577"><rect fill="#F1F1F1" height="101.4844" style="stroke:#181818;stroke-width:0.5;" width="114" x="442.5" y="228"/><text fill="#000000" font-family="sans-serif" font-size="14" font-weight="bold" lengthAdjust="spacing" textLength="100" x="449.5" y="242.9951">airport_3577</text><line style="stroke:#181818;stroke-width:1.0;" x1="442.5" x2="556.5" y1="248.2969" y2="248.2969"/><text fill="#000000" font-family="sans-serif" font-size="14" lengthAdjust="spacing" textLength="12" x="456.5" y="263.292">id</text><text fill="#000000" font-family="sans-serif" font-size="14" lengthAdjust="spacing" textLength="36" x="487.5" y="263.292">3577</text><line style="stroke:#181818;stroke-width:1.0;" x1="482.5" x2="482.5" y1="248.2969" y2="268.5938"/><line style="stroke:#181818;stroke-width:1.0;" x1="442.5" x2="556.5" y1="268.5938" y2="268.5938"/><text fill="#000000" font-family="sans-serif" font-size="14" lengthAdjust="spacing" textLength="30" x="447.5" y="283.5889">type</text><text fill="#000000" font-family="sans-serif" font-size="14" lengthAdjust="spacing" textLength="44" x="487.5" y="283.5889">airport</text><line style="stroke:#181818;stroke-width:1.0;" x1="482.5" x2="482.5" y1="268.5938" y2="288.8906"/><line style="stroke:#181818;stroke-width:1.0;" x1="442.5" x2="556.5" y1="288.8906" y2="288.8906"/><text fill="#000000" font-family="sans-serif" font-size="14" lengthAdjust="spacing" textLength="20" x="452.5" y="303.8857">faa</text><text fill="#000000" font-family="sans-serif" font-size="14" lengthAdjust="spacing" textLength="27" x="487.5" y="303.8857">SEA</text><line style="stroke:#181818;stroke-width:1.0;" x1="482.5" x2="482.5" y1="288.8906" y2="309.1875"/><line style="stroke:#181818;stroke-width:1.0;" x1="442.5" x2="556.5" y1="309.1875" y2="309.1875"/><text fill="#000000" font-family="sans-serif" font-size="14" lengthAdjust="spacing" textLength="28" x="448.5" y="324.1826">icao</text><text fill="#000000" font-family="sans-serif" font-size="14" lengthAdjust="spacing" textLength="36" x="487.5" y="324.1826">KSEA</text><line style="stroke:#181818;stroke-width:1.0;" x1="482.5" x2="482.5" y1="309.1875" y2="329.4844"/></g><!--MD5=[5c0502b8783b71438aaef67ba9b30775]
link route_5966 to airline_24--><g id="link_route_5966_airline_24"><path codeLine="43" d="M208.5,181 C280.27,181 358.05,156.49 414.98,133.64 " fill="none" id="route_5966-to-airline_24" style="stroke:#181818;stroke-width:1.0;"/><polygon fill="#181818" points="419.73,131.72,409.8872,131.3747,415.0926,133.5892,412.878,138.7946,419.73,131.72" style="stroke:#181818;stroke-width:1.0;"/><text fill="#000000" font-family="sans-serif" font-size="13" lengthAdjust="spacing" textLength="91" x="272" y="150.0669">Foreign Key ID</text></g><!--MD5=[c88de532f9d1a15d563500f25bf81803]
link airport_3577 to route_5966--><g id="link_airport_3577_route_5966"><path codeLine="44" d="M441.5,298 C329.33,298 320.67,201 208.5,201 " fill="none" id="airport_3577-route_5966" style="stroke:#181818;stroke-width:1.0;stroke-dasharray:7.0,7.0;"/></g><!--MD5=[e3e78711dba73cfaa64e11312e269cc5]
@startuml
left to right direction

together {
  package "Route documents" as route $route {
    map "**route_5966**" as route_5966 {
      id => 5966
      type => route
      airlineid => <font color=red>airline_24
      sourceairport => SEA
    }
  }
}

together {
  package "Airline documents" as airline $airline {
    map "<font color=red>**airline_24**" as airline_24 {
      id => 24
      type => airline
      callsign => AMERICAN
      iata => AA
    }
  }

  package "Airport documents" as airport $airport {
    map "**airport_3577**" as airport_3577 {
      id => 3577
      type => airport
      faa => SEA
      icao => KSEA
    }
  }

  package "Landmark documents" as landmark $landmark {
    map "**landmark_21661**" as landmark_21661 {
      id => 21661
      type => landmark
      country => France
      email => null
    }
  }
}

route_5966::airlineid - -> airline_24  : Foreign Key ID
airport_3577::faa .. route_5966::sourceairport

remove $landmark
@enduml

PlantUML version 1.2022.12(Sun Oct 23 18:12:26 GMT 2022)
(GPL source distribution)
Java Runtime: OpenJDK Runtime Environment
JVM: OpenJDK 64-Bit Server VM
Default Encoding: UTF-8
Language: en
Country: US
--></g></svg>