<?xml version="1.0" encoding="UTF-8" standalone="no"?><svg xmlns="http://www.w3.org/2000/svg" xmlns:xlink="http://www.w3.org/1999/xlink" contentStyleType="text/css" height="375px" preserveAspectRatio="none" style="width:1164px;height:375px;background:#FFFFFF;" version="1.1" viewBox="0 0 1164 375" width="1164px" zoomAndPan="magnify"><defs/><g><!--cluster Query Service--><g id="cluster_Query Service"><rect fill="none" height="185" rx="2.5" ry="2.5" style="stroke:#181818;stroke-width:1.0;" width="1151" x="7" y="68"/><text fill="#000000" font-family="sans-serif" font-size="14" font-weight="bold" lengthAdjust="spacing" textLength="112" x="526.5" y="82.9951">Query Service</text></g><!--entity Parse--><g id="elem_Parse"><rect fill="#F1F1F1" height="134.0781" rx="2.5" ry="2.5" style="stroke:#181818;stroke-width:0.5;" width="59" x="23.5" y="103"/><text fill="#000000" font-family="sans-serif" font-size="14" lengthAdjust="spacing" textLength="39" x="33.5" y="125.9951">Parse</text><text fill="#000000" font-family="sans-serif" font-size="14" lengthAdjust="spacing" textLength="4" x="51" y="142.292"> </text><text fill="#000000" font-family="sans-serif" font-size="14" lengthAdjust="spacing" textLength="4" x="51" y="158.5889"> </text><text fill="#000000" font-family="sans-serif" font-size="14" lengthAdjust="spacing" textLength="13" x="46.5" y="174.8857">▢</text><text fill="#000000" font-family="sans-serif" font-size="14" lengthAdjust="spacing" textLength="4" x="51" y="191.1826"> </text><text fill="#000000" font-family="sans-serif" font-size="14" lengthAdjust="spacing" textLength="4" x="51" y="207.4795"> </text><text fill="#000000" font-family="sans-serif" font-size="14" lengthAdjust="spacing" textLength="4" x="51" y="223.7764"> </text></g><!--entity Plan--><g id="elem_Plan"><rect fill="#F1F1F1" height="134.0781" rx="2.5" ry="2.5" style="stroke:#181818;stroke-width:0.5;" width="49" x="117.5" y="103"/><text fill="#000000" font-family="sans-serif" font-size="14" lengthAdjust="spacing" textLength="29" x="127.5" y="125.9951">Plan</text><text fill="#000000" font-family="sans-serif" font-size="14" lengthAdjust="spacing" textLength="4" x="140" y="142.292"> </text><text fill="#000000" font-family="sans-serif" font-size="14" lengthAdjust="spacing" textLength="4" x="140" y="158.5889"> </text><text fill="#000000" font-family="sans-serif" font-size="14" lengthAdjust="spacing" textLength="13" x="135.5" y="174.8857">▢</text><text fill="#000000" font-family="sans-serif" font-size="14" lengthAdjust="spacing" textLength="4" x="140" y="191.1826"> </text><text fill="#000000" font-family="sans-serif" font-size="14" lengthAdjust="spacing" textLength="4" x="140" y="207.4795"> </text><text fill="#000000" font-family="sans-serif" font-size="14" lengthAdjust="spacing" textLength="4" x="140" y="223.7764"> </text></g><!--entity Scan--><g id="elem_Scan"><rect fill="#F1F1F1" height="134.0781" rx="2.5" ry="2.5" style="stroke:#181818;stroke-width:0.5;" width="54" x="202" y="103"/><text fill="#000000" font-family="sans-serif" font-size="14" lengthAdjust="spacing" textLength="34" x="212" y="125.9951">Scan</text><text fill="#000000" font-family="sans-serif" font-size="14" lengthAdjust="spacing" textLength="4" x="227" y="142.292"> </text><text fill="#000000" font-family="sans-serif" font-size="14" lengthAdjust="spacing" textLength="4" x="227" y="158.5889"> </text><text fill="#000000" font-family="sans-serif" font-size="14" lengthAdjust="spacing" textLength="13" x="222.5" y="174.8857">▢</text><text fill="#000000" font-family="sans-serif" font-size="14" lengthAdjust="spacing" textLength="4" x="227" y="191.1826"> </text><text fill="#000000" font-family="sans-serif" font-size="14" lengthAdjust="spacing" textLength="13" x="222.5" y="207.4795">▢</text><text fill="#000000" font-family="sans-serif" font-size="14" lengthAdjust="spacing" textLength="4" x="227" y="223.7764"> </text></g><!--entity Fetch--><g id="elem_Fetch"><rect fill="#F1F1F1" height="134.0781" rx="2.5" ry="2.5" style="stroke:#181818;stroke-width:0.5;" width="59" x="291.5" y="103"/><text fill="#000000" font-family="sans-serif" font-size="14" lengthAdjust="spacing" textLength="39" x="301.5" y="125.9951">Fetch</text><text fill="#000000" font-family="sans-serif" font-size="14" lengthAdjust="spacing" textLength="4" x="319" y="142.292"> </text><text fill="#000000" font-family="sans-serif" font-size="14" lengthAdjust="spacing" textLength="4" x="319" y="158.5889"> </text><text fill="#000000" font-family="sans-serif" font-size="14" lengthAdjust="spacing" textLength="13" x="314.5" y="174.8857">▢</text><text fill="#000000" font-family="sans-serif" font-size="14" lengthAdjust="spacing" textLength="13" x="314.5" y="191.1826">▢</text><text fill="#000000" font-family="sans-serif" font-size="14" lengthAdjust="spacing" textLength="13" x="314.5" y="207.4795">▢</text><text fill="#000000" font-family="sans-serif" font-size="14" lengthAdjust="spacing" textLength="13" x="314.5" y="223.7764">▢</text></g><!--entity Join--><g id="elem_Join"><rect fill="#F1F1F1" height="134.0781" rx="2.5" ry="2.5" style="stroke:#181818;stroke-width:0.5;" width="44" x="386" y="103"/><text fill="#000000" font-family="sans-serif" font-size="14" lengthAdjust="spacing" textLength="24" x="396" y="125.9951">Join</text><text fill="#000000" font-family="sans-serif" font-size="14" lengthAdjust="spacing" textLength="4" x="406" y="142.292"> </text><text fill="#000000" font-family="sans-serif" font-size="14" lengthAdjust="spacing" textLength="4" x="406" y="158.5889"> </text><text fill="#000000" font-family="sans-serif" font-size="14" lengthAdjust="spacing" textLength="13" x="401.5" y="174.8857">▢</text><text fill="#000000" font-family="sans-serif" font-size="14" lengthAdjust="spacing" textLength="13" x="401.5" y="191.1826">▢</text><text fill="#000000" font-family="sans-serif" font-size="14" lengthAdjust="spacing" textLength="13" x="401.5" y="207.4795">▢</text><text fill="#000000" font-family="sans-serif" font-size="14" lengthAdjust="spacing" textLength="13" x="401.5" y="223.7764">▢</text></g><!--entity Filter--><g id="elem_Filter"><rect fill="#F1F1F1" height="134.0781" rx="2.5" ry="2.5" style="stroke:#181818;stroke-width:0.5;" width="53" x="465.5" y="103"/><text fill="#000000" font-family="sans-serif" font-size="14" lengthAdjust="spacing" textLength="33" x="475.5" y="125.9951">Filter</text><text fill="#000000" font-family="sans-serif" font-size="14" lengthAdjust="spacing" textLength="4" x="490" y="142.292"> </text><text fill="#000000" font-family="sans-serif" font-size="14" lengthAdjust="spacing" textLength="4" x="490" y="158.5889"> </text><text fill="#000000" font-family="sans-serif" font-size="14" lengthAdjust="spacing" textLength="13" x="485.5" y="174.8857">▢</text><text fill="#000000" font-family="sans-serif" font-size="14" lengthAdjust="spacing" textLength="13" x="485.5" y="191.1826">▢</text><text fill="#000000" font-family="sans-serif" font-size="14" lengthAdjust="spacing" textLength="13" x="485.5" y="207.4795">▢</text><text fill="#000000" font-family="sans-serif" font-size="14" lengthAdjust="spacing" textLength="13" x="485.5" y="223.7764">▢</text></g><!--entity PreAggregate--><g id="elem_PreAggregate"><rect fill="#F1F1F1" height="134.0781" rx="2.5" ry="2.5" style="stroke:#181818;stroke-width:0.5;" width="92" x="554" y="103"/><text fill="#000000" font-family="sans-serif" font-size="14" lengthAdjust="spacing" textLength="28" x="586" y="125.9951">Pre-</text><text fill="#000000" font-family="sans-serif" font-size="14" lengthAdjust="spacing" textLength="72" x="564" y="142.292">Aggregate</text><text fill="#000000" font-family="sans-serif" font-size="14" lengthAdjust="spacing" textLength="4" x="598" y="158.5889"> </text><text fill="#000000" font-family="sans-serif" font-size="14" lengthAdjust="spacing" textLength="13" x="593.5" y="174.8857">▢</text><text fill="#000000" font-family="sans-serif" font-size="14" lengthAdjust="spacing" textLength="13" x="593.5" y="191.1826">▢</text><text fill="#000000" font-family="sans-serif" font-size="14" lengthAdjust="spacing" textLength="13" x="593.5" y="207.4795">▢</text><text fill="#000000" font-family="sans-serif" font-size="14" lengthAdjust="spacing" textLength="13" x="593.5" y="223.7764">▢</text></g><!--entity Aggregate--><g id="elem_Aggregate"><rect fill="#F1F1F1" height="134.0781" rx="2.5" ry="2.5" style="stroke:#181818;stroke-width:0.5;" width="92" x="681" y="103"/><text fill="#000000" font-family="sans-serif" font-size="14" lengthAdjust="spacing" textLength="72" x="691" y="125.9951">Aggregate</text><text fill="#000000" font-family="sans-serif" font-size="14" lengthAdjust="spacing" textLength="4" x="725" y="142.292"> </text><text fill="#000000" font-family="sans-serif" font-size="14" lengthAdjust="spacing" textLength="4" x="725" y="158.5889"> </text><text fill="#000000" font-family="sans-serif" font-size="14" lengthAdjust="spacing" textLength="13" x="720.5" y="174.8857">▢</text><text fill="#000000" font-family="sans-serif" font-size="14" lengthAdjust="spacing" textLength="4" x="725" y="191.1826"> </text><text fill="#000000" font-family="sans-serif" font-size="14" lengthAdjust="spacing" textLength="4" x="725" y="207.4795"> </text><text fill="#000000" font-family="sans-serif" font-size="14" lengthAdjust="spacing" textLength="4" x="725" y="223.7764"> </text></g><!--entity Sort--><g id="elem_Sort"><rect fill="#F1F1F1" height="134.0781" rx="2.5" ry="2.5" style="stroke:#181818;stroke-width:0.5;" width="48" x="808" y="103"/><text fill="#000000" font-family="sans-serif" font-size="14" lengthAdjust="spacing" textLength="28" x="818" y="125.9951">Sort</text><text fill="#000000" font-family="sans-serif" font-size="14" lengthAdjust="spacing" textLength="4" x="830" y="142.292"> </text><text fill="#000000" font-family="sans-serif" font-size="14" lengthAdjust="spacing" textLength="4" x="830" y="158.5889"> </text><text fill="#000000" font-family="sans-serif" font-size="14" lengthAdjust="spacing" textLength="13" x="825.5" y="174.8857">▢</text><text fill="#000000" font-family="sans-serif" font-size="14" lengthAdjust="spacing" textLength="13" x="825.5" y="191.1826">▢</text><text fill="#000000" font-family="sans-serif" font-size="14" lengthAdjust="spacing" textLength="13" x="825.5" y="207.4795">▢</text><text fill="#000000" font-family="sans-serif" font-size="14" lengthAdjust="spacing" textLength="13" x="825.5" y="223.7764">▢</text></g><!--entity Offset--><g id="elem_Offset"><rect fill="#F1F1F1" height="134.0781" rx="2.5" ry="2.5" style="stroke:#181818;stroke-width:0.5;" width="61" x="891.5" y="103"/><text fill="#000000" font-family="sans-serif" font-size="14" lengthAdjust="spacing" textLength="41" x="901.5" y="125.9951">Offset</text><text fill="#000000" font-family="sans-serif" font-size="14" lengthAdjust="spacing" textLength="4" x="920" y="142.292"> </text><text fill="#000000" font-family="sans-serif" font-size="14" lengthAdjust="spacing" textLength="4" x="920" y="158.5889"> </text><text fill="#000000" font-family="sans-serif" font-size="14" lengthAdjust="spacing" textLength="13" x="915.5" y="174.8857">▢</text><text fill="#000000" font-family="sans-serif" font-size="14" lengthAdjust="spacing" textLength="4" x="920" y="191.1826"> </text><text fill="#000000" font-family="sans-serif" font-size="14" lengthAdjust="spacing" textLength="4" x="920" y="207.4795"> </text><text fill="#000000" font-family="sans-serif" font-size="14" lengthAdjust="spacing" textLength="4" x="920" y="223.7764"> </text></g><!--entity Limit--><g id="elem_Limit"><rect fill="#F1F1F1" height="134.0781" rx="2.5" ry="2.5" style="stroke:#181818;stroke-width:0.5;" width="51" x="987.5" y="103"/><text fill="#000000" font-family="sans-serif" font-size="14" lengthAdjust="spacing" textLength="31" x="997.5" y="125.9951">Limit</text><text fill="#000000" font-family="sans-serif" font-size="14" lengthAdjust="spacing" textLength="4" x="1011" y="142.292"> </text><text fill="#000000" font-family="sans-serif" font-size="14" lengthAdjust="spacing" textLength="4" x="1011" y="158.5889"> </text><text fill="#000000" font-family="sans-serif" font-size="14" lengthAdjust="spacing" textLength="13" x="1006.5" y="174.8857">▢</text><text fill="#000000" font-family="sans-serif" font-size="14" lengthAdjust="spacing" textLength="4" x="1011" y="191.1826"> </text><text fill="#000000" font-family="sans-serif" font-size="14" lengthAdjust="spacing" textLength="4" x="1011" y="207.4795"> </text><text fill="#000000" font-family="sans-serif" font-size="14" lengthAdjust="spacing" textLength="4" x="1011" y="223.7764"> </text></g><!--entity Project--><g id="elem_Project"><rect fill="#F1F1F1" height="134.0781" rx="2.5" ry="2.5" style="stroke:#181818;stroke-width:0.5;" width="68" x="1074" y="103"/><text fill="#000000" font-family="sans-serif" font-size="14" lengthAdjust="spacing" textLength="48" x="1084" y="125.9951">Project</text><text fill="#000000" font-family="sans-serif" font-size="14" lengthAdjust="spacing" textLength="4" x="1106" y="142.292"> </text><text fill="#000000" font-family="sans-serif" font-size="14" lengthAdjust="spacing" textLength="4" x="1106" y="158.5889"> </text><text fill="#000000" font-family="sans-serif" font-size="14" lengthAdjust="spacing" textLength="13" x="1101.5" y="174.8857">▢</text><text fill="#000000" font-family="sans-serif" font-size="14" lengthAdjust="spacing" textLength="13" x="1101.5" y="191.1826">▢</text><text fill="#000000" font-family="sans-serif" font-size="14" lengthAdjust="spacing" textLength="13" x="1101.5" y="207.4795">▢</text><text fill="#000000" font-family="sans-serif" font-size="14" lengthAdjust="spacing" textLength="13" x="1101.5" y="223.7764">▢</text></g><!--entity Client--><g id="elem_Client"><rect fill="#F1F1F1" height="36.2969" rx="2.5" ry="2.5" style="stroke:#181818;stroke-width:0.5;" width="59" x="23.5" y="7"/><text fill="#000000" font-family="sans-serif" font-size="14" lengthAdjust="spacing" textLength="39" x="33.5" y="29.9951">Client</text></g><!--entity Data--><g id="elem_Data"><path d="M354,307 C354,297 389,297 389,297 C389,297 424,297 424,307 L424,348.5938 C424,358.5938 389,358.5938 389,358.5938 C389,358.5938 354,358.5938 354,348.5938 L354,307 " fill="#F1F1F1" style="stroke:#181818;stroke-width:0.5;"/><path d="M354,307 C354,317 389,317 389,317 C389,317 424,317 424,307 " fill="none" style="stroke:#181818;stroke-width:0.5;"/><text fill="#000000" font-family="sans-serif" font-size="14" lengthAdjust="spacing" textLength="32" x="373" y="333.9951">Data</text><text fill="#000000" font-family="sans-serif" font-size="14" lengthAdjust="spacing" textLength="50" x="364" y="350.292">Service</text></g><!--entity Index--><g id="elem_Index"><path d="M212,307 C212,297 247,297 247,297 C247,297 282,297 282,307 L282,348.5938 C282,358.5938 247,358.5938 247,358.5938 C247,358.5938 212,358.5938 212,348.5938 L212,307 " fill="#F1F1F1" style="stroke:#181818;stroke-width:0.5;"/><path d="M212,307 C212,317 247,317 247,317 C247,317 282,317 282,307 " fill="none" style="stroke:#181818;stroke-width:0.5;"/><text fill="#000000" font-family="sans-serif" font-size="14" lengthAdjust="spacing" textLength="37" x="228.5" y="333.9951">Index</text><text fill="#000000" font-family="sans-serif" font-size="14" lengthAdjust="spacing" textLength="50" x="222" y="350.292">Service</text></g><!--entity Search--><g id="elem_Search"><path d="M107,307 C107,297 142,297 142,297 C142,297 177,297 177,307 L177,348.5938 C177,358.5938 142,358.5938 142,358.5938 C142,358.5938 107,358.5938 107,348.5938 L107,307 " fill="#F1F1F1" style="stroke:#181818;stroke-width:0.5;"/><path d="M107,307 C107,317 142,317 142,317 C142,317 177,317 177,307 " fill="none" style="stroke:#181818;stroke-width:0.5;"/><text fill="#000000" font-family="sans-serif" font-size="14" lengthAdjust="spacing" textLength="48" x="118" y="333.9951">Search</text><text fill="#000000" font-family="sans-serif" font-size="14" lengthAdjust="spacing" textLength="50" x="117" y="350.292">Service</text></g><!--entity End--><g id="elem_End"><ellipse cx="1108" cy="25" fill="#F1F1F1" rx="8" ry="8" style="stroke:#181818;stroke-width:0.5;"/></g><!--link Client to Parse--><g id="link_Client_Parse"><path d="M53,43.25 C53,56.72 53,76.43 53,96.26 " fill="none" id="Client-to-Parse" style="stroke:#181818;stroke-width:1.0;stroke-dasharray:7.0,7.0;"/><polygon fill="#181818" points="53,101.19,57,92.19,53,96.19,49,92.19,53,101.19" style="stroke:#181818;stroke-width:1.0;"/></g><!--link Parse to Plan--><g id="link_Parse_Plan"><path d="M82.9,170 C92.15,170 101.41,170 110.66,170 " fill="none" id="Parse-to-Plan" style="stroke:#181818;stroke-width:1.0;"/><polygon fill="#181818" points="115.55,170,106.55,166,110.55,170,106.55,174,115.55,170" style="stroke:#181818;stroke-width:1.0;"/></g><!--link Plan to Scan--><g id="link_Plan_Scan"><path d="M166.81,170 C176.37,170 185.94,170 195.51,170 " fill="none" id="Plan-to-Scan" style="stroke:#181818;stroke-width:1.0;"/><polygon fill="#181818" points="200.28,170,191.28,166,195.28,170,191.28,174,200.28,170" style="stroke:#181818;stroke-width:1.0;"/></g><!--link Scan to Fetch--><g id="link_Scan_Fetch"><path d="M256.31,170 C265.85,170 275.38,170 284.92,170 " fill="none" id="Scan-to-Fetch" style="stroke:#181818;stroke-width:1.0;"/><polygon fill="#181818" points="289.67,170,280.67,166,284.67,170,280.67,174,289.67,170" style="stroke:#181818;stroke-width:1.0;"/></g><!--link Fetch to Join--><g id="link_Fetch_Join"><path d="M350.91,170 C360.42,170 369.93,170 379.45,170 " fill="none" id="Fetch-to-Join" style="stroke:#181818;stroke-width:1.0;"/><polygon fill="#181818" points="384.18,170,375.18,166,379.18,170,375.18,174,384.18,170" style="stroke:#181818;stroke-width:1.0;"/></g><!--link Join to Filter--><g id="link_Join_Filter"><path d="M430.31,170 C439.71,170 449.11,170 458.51,170 " fill="none" id="Join-to-Filter" style="stroke:#181818;stroke-width:1.0;"/><polygon fill="#181818" points="463.5,170,454.5,166,458.5,170,454.5,174,463.5,170" style="stroke:#181818;stroke-width:1.0;"/></g><!--link Filter to PreAggregate--><g id="link_Filter_PreAggregate"><path d="M519,170 C528.52,170 538.03,170 547.55,170 " fill="none" id="Filter-to-PreAggregate" style="stroke:#181818;stroke-width:1.0;"/><polygon fill="#181818" points="552.29,170,543.29,166,547.29,170,543.29,174,552.29,170" style="stroke:#181818;stroke-width:1.0;"/></g><!--link PreAggregate to Aggregate--><g id="link_PreAggregate_Aggregate"><path d="M646.14,170 C655.46,170 664.79,170 674.11,170 " fill="none" id="PreAggregate-to-Aggregate" style="stroke:#181818;stroke-width:1.0;"/><polygon fill="#181818" points="679.05,170,670.05,166,674.05,170,670.05,174,679.05,170" style="stroke:#181818;stroke-width:1.0;"/></g><!--link Aggregate to Sort--><g id="link_Aggregate_Sort"><path d="M773.35,170 C782.66,170 791.96,170 801.27,170 " fill="none" id="Aggregate-to-Sort" style="stroke:#181818;stroke-width:1.0;"/><polygon fill="#181818" points="806.2,170,797.2,166,801.2,170,797.2,174,806.2,170" style="stroke:#181818;stroke-width:1.0;"/></g><!--link Sort to Offset--><g id="link_Sort_Offset"><path d="M856.26,170 C865.81,170 875.36,170 884.91,170 " fill="none" id="Sort-to-Offset" style="stroke:#181818;stroke-width:1.0;"/><polygon fill="#181818" points="889.67,170,880.67,166,884.67,170,880.67,174,889.67,170" style="stroke:#181818;stroke-width:1.0;"/></g><!--link Offset to Limit--><g id="link_Offset_Limit"><path d="M952.93,170 C962.2,170 971.48,170 980.76,170 " fill="none" id="Offset-to-Limit" style="stroke:#181818;stroke-width:1.0;"/><polygon fill="#181818" points="985.67,170,976.67,166,980.67,170,976.67,174,985.67,170" style="stroke:#181818;stroke-width:1.0;"/></g><!--link Limit to Project--><g id="link_Limit_Project"><path d="M1038.98,170 C1048.49,170 1058,170 1067.51,170 " fill="none" id="Limit-to-Project" style="stroke:#181818;stroke-width:1.0;"/><polygon fill="#181818" points="1072.24,170,1063.24,166,1067.24,170,1063.24,174,1072.24,170" style="stroke:#181818;stroke-width:1.0;"/></g><!--reverse link End to Project--><g id="link_End_Project"><path d="M1108,40.15 C1108,54.96 1108,79.3 1108,102.86 " fill="none" id="End-backto-Project" style="stroke:#181818;stroke-width:1.0;stroke-dasharray:7.0,7.0;"/><polygon fill="#181818" points="1108,35.2,1104,44.2,1108,40.2,1112,44.2,1108,35.2" style="stroke:#181818;stroke-width:1.0;"/></g><!--link Scan to Index--><g id="link_Scan_Index"><path d="M236.63,237.16 C239.03,257.92 241.56,279.83 243.52,296.81 " fill="none" id="Scan-Index" style="stroke:#181818;stroke-width:1.0;stroke-dasharray:7.0,7.0;"/></g><!--link Scan to Search--><g id="link_Scan_Search"><path d="M201.55,228.12 C195.95,239.14 189.94,250.51 184,261 C177.31,272.82 169.44,285.47 162.33,296.51 " fill="none" id="Scan-Search" style="stroke:#181818;stroke-width:1.0;stroke-dasharray:7.0,7.0;"/></g><!--link Fetch to Data--><g id="link_Fetch_Data"><path d="M349.84,237.16 C358.89,257.92 368.44,279.83 375.84,296.81 " fill="none" id="Fetch-Data" style="stroke:#181818;stroke-width:1.0;stroke-dasharray:7.0,7.0;"/></g><!--link Join to Data--><g id="link_Join_Data"><path d="M399.94,237.16 C397.41,257.92 394.75,279.83 392.68,296.81 " fill="none" id="Join-Data" style="stroke:#181818;stroke-width:1.0;stroke-dasharray:7.0,7.0;"/></g><!--SRC=[dLF1JiCm3BtdAwAUuB1-mgG9c0H2OgZSW4DelIxGPIXDqH3YD_W0FeqlmRMJBjbWWbtIznpRTMo_zacRPsNLKbOmLrtZRc3j9eskpHACaoKUO8MmK3fbwWRaIQFH5bkowmxigop0lkWIiZSXvUPofcmByXPjah4GXBy-FWN1-zIzKIPu8zplN9I3SmzZvmYaCLDmvS874OwYVl-cEIvMElotXmTacEe6snhA8790bfc5ILrRg9KRMcnXH62u-7_QxPnHghtJM5aNfe7mWFTSpUSjX1nCjhBmiHDugPSwn17-CSmVsprSFI8PsaViZxM_2r4ffnuKRdXsYkZE1158rShU4ZcScmhMgGUP8fS2b2qNgG_RX3WwbfaaovcfX60PohpAnrvNhBJHc8L3Ga92mY2X8E65PmaWfUMbPUxlU0lzPlPfekqIoQhXvUOcCTFWQH6G-0dwgQA1HyF3eXzmiyC8yWxVGe-ZUlFSzoSmtmak7pdrbyhtv1i0]--></g></svg>