<?xml version="1.0" encoding="us-ascii" standalone="no"?><svg xmlns="http://www.w3.org/2000/svg" xmlns:xlink="http://www.w3.org/1999/xlink" contentStyleType="text/css" height="585px" preserveAspectRatio="none" style="width:572px;height:585px;background:#FFFFFF;" version="1.1" viewBox="0 0 572 585" width="572px" zoomAndPan="magnify"><defs/><g><rect fill="#FFFFFF" height="573.1172" rx="2.5" ry="2.5" style="stroke:#181818;stroke-width:0.5;" width="414" x="152" y="6"/><text fill="#000000" font-family="sans-serif" font-size="13" font-weight="bold" lengthAdjust="spacing" textLength="157" x="278" y="18.0669">Couchbase Database</text><rect fill="#008080" height="383.8594" style="stroke:#181818;stroke-width:1.0;" width="10" x="217.5" y="106.6953"/><rect fill="#00BFFF" height="37" style="stroke:#181818;stroke-width:1.0;" width="10" x="358.5" y="208.2266"/><rect fill="#191970" height="37" style="stroke:#181818;stroke-width:1.0;" width="10" x="495" y="336.8906"/><line style="stroke:#181818;stroke-width:0.5;stroke-dasharray:5.0,5.0;" x1="45" x2="45" y1="60.4297" y2="540.8203"/><line style="stroke:#181818;stroke-width:0.5;stroke-dasharray:5.0,5.0;" x1="222" x2="222" y1="60.4297" y2="540.8203"/><line style="stroke:#181818;stroke-width:0.5;stroke-dasharray:5.0,5.0;" x1="363" x2="363" y1="60.4297" y2="540.8203"/><line style="stroke:#181818;stroke-width:0.5;stroke-dasharray:5.0,5.0;" x1="500" x2="500" y1="60.4297" y2="540.8203"/><rect fill="#E2E2F0" height="30.2969" rx="2.5" ry="2.5" style="stroke:#181818;stroke-width:0.5;" width="61" x="15" y="29.1328"/><text fill="#000000" font-family="sans-serif" font-size="14" lengthAdjust="spacing" textLength="47" x="22" y="49.1279">Clients</text><rect fill="#E2E2F0" height="30.2969" rx="2.5" ry="2.5" style="stroke:#181818;stroke-width:0.5;" width="61" x="15" y="539.8203"/><text fill="#000000" font-family="sans-serif" font-size="14" lengthAdjust="spacing" textLength="47" x="22" y="559.8154">Clients</text><rect fill="#E2E2F0" height="30.2969" rx="2.5" ry="2.5" style="stroke:#181818;stroke-width:0.5;" width="109" x="170" y="25.1328"/><rect fill="#E2E2F0" height="30.2969" rx="2.5" ry="2.5" style="stroke:#181818;stroke-width:0.5;" width="109" x="166" y="29.1328"/><text fill="#000000" font-family="sans-serif" font-size="14" lengthAdjust="spacing" textLength="95" x="173" y="49.1279">Query Service</text><rect fill="#E2E2F0" height="30.2969" rx="2.5" ry="2.5" style="stroke:#181818;stroke-width:0.5;" width="109" x="170" y="539.8203"/><rect fill="#E2E2F0" height="30.2969" rx="2.5" ry="2.5" style="stroke:#181818;stroke-width:0.5;" width="109" x="166" y="543.8203"/><text fill="#000000" font-family="sans-serif" font-size="14" lengthAdjust="spacing" textLength="95" x="173" y="563.8154">Query Service</text><rect fill="#E2E2F0" height="30.2969" rx="2.5" ry="2.5" style="stroke:#181818;stroke-width:0.5;" width="105" x="313" y="25.1328"/><rect fill="#E2E2F0" height="30.2969" rx="2.5" ry="2.5" style="stroke:#181818;stroke-width:0.5;" width="105" x="309" y="29.1328"/><text fill="#000000" font-family="sans-serif" font-size="14" lengthAdjust="spacing" textLength="91" x="316" y="49.1279">Index Service</text><rect fill="#E2E2F0" height="30.2969" rx="2.5" ry="2.5" style="stroke:#181818;stroke-width:0.5;" width="105" x="313" y="539.8203"/><rect fill="#E2E2F0" height="30.2969" rx="2.5" ry="2.5" style="stroke:#181818;stroke-width:0.5;" width="105" x="309" y="543.8203"/><text fill="#000000" font-family="sans-serif" font-size="14" lengthAdjust="spacing" textLength="91" x="316" y="563.8154">Index Service</text><rect fill="#E2E2F0" height="30.2969" rx="2.5" ry="2.5" style="stroke:#181818;stroke-width:0.5;" width="100" x="452" y="25.1328"/><rect fill="#E2E2F0" height="30.2969" rx="2.5" ry="2.5" style="stroke:#181818;stroke-width:0.5;" width="100" x="448" y="29.1328"/><text fill="#000000" font-family="sans-serif" font-size="14" lengthAdjust="spacing" textLength="86" x="455" y="49.1279">Data Service</text><rect fill="#E2E2F0" height="30.2969" rx="2.5" ry="2.5" style="stroke:#181818;stroke-width:0.5;" width="100" x="452" y="539.8203"/><rect fill="#E2E2F0" height="30.2969" rx="2.5" ry="2.5" style="stroke:#181818;stroke-width:0.5;" width="100" x="448" y="543.8203"/><text fill="#000000" font-family="sans-serif" font-size="14" lengthAdjust="spacing" textLength="86" x="455" y="563.8154">Data Service</text><rect fill="#008080" height="383.8594" style="stroke:#181818;stroke-width:1.0;" width="10" x="217.5" y="106.6953"/><rect fill="#00BFFF" height="37" style="stroke:#181818;stroke-width:1.0;" width="10" x="358.5" y="208.2266"/><rect fill="#191970" height="37" style="stroke:#181818;stroke-width:1.0;" width="10" x="495" y="336.8906"/><polygon fill="#181818" points="205.5,102.6953,215.5,106.6953,205.5,110.6953,209.5,106.6953" style="stroke:#181818;stroke-width:1.0;"/><line style="stroke:#181818;stroke-width:1.0;" x1="45.5" x2="211.5" y1="106.6953" y2="106.6953"/><text fill="#000000" font-family="sans-serif" font-size="13" lengthAdjust="spacing" textLength="46" x="52.5" y="86.4966">Submit</text><text fill="#000000" font-family="sans-serif" font-size="13" lengthAdjust="spacing" textLength="4" x="98.5" y="86.4966">&#160;</text><text fill="#000000" font-family="sans-serif" font-size="13" lengthAdjust="spacing" textLength="21" x="102.5" y="86.4966">the</text><text fill="#000000" font-family="sans-serif" font-size="13" lengthAdjust="spacing" textLength="36" x="52.5" y="101.6294">query</text><line style="stroke:none;stroke-width:1.0;stroke-dasharray:2.0,2.0;" x1="227.5" x2="269.5" y1="150.9609" y2="150.9609"/><line style="stroke:none;stroke-width:1.0;stroke-dasharray:2.0,2.0;" x1="269.5" x2="269.5" y1="150.9609" y2="163.9609"/><line style="stroke:none;stroke-width:1.0;stroke-dasharray:2.0,2.0;" x1="228.5" x2="269.5" y1="163.9609" y2="163.9609"/><polygon fill="none" points="238.5,159.9609,228.5,163.9609,238.5,167.9609,234.5,163.9609" style="stroke:none;stroke-width:1.0;"/><text fill="#000000" font-family="sans-serif" font-size="13" lengthAdjust="spacing" textLength="40" x="234.5" y="130.7622">Parse,</text><text fill="#000000" font-family="sans-serif" font-size="13" lengthAdjust="spacing" textLength="4" x="274.5" y="130.7622">&#160;</text><text fill="#000000" font-family="sans-serif" font-size="13" lengthAdjust="spacing" textLength="53" x="278.5" y="130.7622">analyze,</text><text fill="#000000" font-family="sans-serif" font-size="13" lengthAdjust="spacing" textLength="41" x="234.5" y="145.895">create</text><text fill="#000000" font-family="sans-serif" font-size="13" lengthAdjust="spacing" textLength="4" x="275.5" y="145.895">&#160;</text><text fill="#000000" font-family="sans-serif" font-size="13" lengthAdjust="spacing" textLength="27" x="279.5" y="145.895">plan</text><polygon fill="#181818" points="346.5,204.2266,356.5,208.2266,346.5,212.2266,350.5,208.2266" style="stroke:#181818;stroke-width:1.0;"/><line style="stroke:#181818;stroke-width:1.0;" x1="227.5" x2="352.5" y1="208.2266" y2="208.2266"/><text fill="#000000" font-family="sans-serif" font-size="13" lengthAdjust="spacing" textLength="32" x="234.5" y="188.0278">Scan</text><text fill="#000000" font-family="sans-serif" font-size="13" lengthAdjust="spacing" textLength="4" x="266.5" y="188.0278">&#160;</text><text fill="#000000" font-family="sans-serif" font-size="13" lengthAdjust="spacing" textLength="53" x="270.5" y="188.0278">request;</text><text fill="#000000" font-family="sans-serif" font-size="13" lengthAdjust="spacing" textLength="34" x="234.5" y="203.1606">index</text><text fill="#000000" font-family="sans-serif" font-size="13" lengthAdjust="spacing" textLength="4" x="268.5" y="203.1606">&#160;</text><text fill="#000000" font-family="sans-serif" font-size="13" lengthAdjust="spacing" textLength="35" x="272.5" y="203.1606">filters</text><polygon fill="#181818" points="238.5,241.2266,228.5,245.2266,238.5,249.2266,234.5,245.2266" style="stroke:#181818;stroke-width:1.0;"/><line style="stroke:#181818;stroke-width:1.0;" x1="232.5" x2="362.5" y1="245.2266" y2="245.2266"/><text fill="#000000" font-family="sans-serif" font-size="13" lengthAdjust="spacing" textLength="23" x="249.5" y="258.2935">Get</text><text fill="#000000" font-family="sans-serif" font-size="13" lengthAdjust="spacing" textLength="4" x="272.5" y="258.2935">&#160;</text><text fill="#000000" font-family="sans-serif" font-size="13" lengthAdjust="spacing" textLength="53" x="276.5" y="258.2935">qualified</text><text fill="#000000" font-family="sans-serif" font-size="13" lengthAdjust="spacing" textLength="4" x="329.5" y="258.2935">&#160;</text><text fill="#000000" font-family="sans-serif" font-size="13" lengthAdjust="spacing" textLength="23" x="333.5" y="258.2935">doc</text><text fill="#000000" font-family="sans-serif" font-size="13" lengthAdjust="spacing" textLength="29" x="249.5" y="273.4263">keys</text><text fill="#000000" font-family="sans-serif" font-size="13" lengthAdjust="spacing" textLength="4" x="278.5" y="273.4263">&#160;</text><text fill="#000000" font-family="sans-serif" font-size="13" lengthAdjust="spacing" textLength="24" x="282.5" y="273.4263">and</text><text fill="#000000" font-family="sans-serif" font-size="13" lengthAdjust="spacing" textLength="4" x="306.5" y="273.4263">&#160;</text><text fill="#000000" font-family="sans-serif" font-size="13" lengthAdjust="spacing" textLength="34" x="310.5" y="273.4263">index</text><text fill="#000000" font-family="sans-serif" font-size="13" lengthAdjust="spacing" textLength="29" x="249.5" y="288.5591">keys</text><polygon fill="#181818" points="483,332.8906,493,336.8906,483,340.8906,487,336.8906" style="stroke:#181818;stroke-width:1.0;"/><line style="stroke:#181818;stroke-width:1.0;" x1="227.5" x2="489" y1="336.8906" y2="336.8906"/><text fill="#000000" font-family="sans-serif" font-size="13" lengthAdjust="spacing" textLength="35" x="234.5" y="316.6919">Fetch</text><text fill="#000000" font-family="sans-serif" font-size="13" lengthAdjust="spacing" textLength="4" x="269.5" y="316.6919">&#160;</text><text fill="#000000" font-family="sans-serif" font-size="13" lengthAdjust="spacing" textLength="53" x="273.5" y="316.6919">request,</text><text fill="#000000" font-family="sans-serif" font-size="13" lengthAdjust="spacing" textLength="4" x="326.5" y="316.6919">&#160;</text><text fill="#000000" font-family="sans-serif" font-size="13" lengthAdjust="spacing" textLength="23" x="330.5" y="316.6919">doc</text><text fill="#000000" font-family="sans-serif" font-size="13" lengthAdjust="spacing" textLength="29" x="234.5" y="331.8247">keys</text><polygon fill="#181818" points="238.5,369.8906,228.5,373.8906,238.5,377.8906,234.5,373.8906" style="stroke:#181818;stroke-width:1.0;"/><line style="stroke:#181818;stroke-width:1.0;" x1="232.5" x2="499" y1="373.8906" y2="373.8906"/><text fill="#000000" font-family="sans-serif" font-size="13" lengthAdjust="spacing" textLength="35" x="421" y="386.9575">Fetch</text><text fill="#000000" font-family="sans-serif" font-size="13" lengthAdjust="spacing" textLength="4" x="456" y="386.9575">&#160;</text><text fill="#000000" font-family="sans-serif" font-size="13" lengthAdjust="spacing" textLength="21" x="460" y="386.9575">the</text><text fill="#000000" font-family="sans-serif" font-size="13" lengthAdjust="spacing" textLength="72" x="421" y="402.0903">documents</text><line style="stroke:none;stroke-width:1.0;" x1="227.5" x2="269.5" y1="465.5547" y2="465.5547"/><line style="stroke:none;stroke-width:1.0;" x1="269.5" x2="269.5" y1="465.5547" y2="478.5547"/><line style="stroke:none;stroke-width:1.0;" x1="228.5" x2="269.5" y1="478.5547" y2="478.5547"/><polygon fill="none" points="238.5,474.5547,228.5,478.5547,238.5,482.5547,234.5,478.5547" style="stroke:none;stroke-width:1.0;"/><text fill="#000000" font-family="sans-serif" font-size="13" lengthAdjust="spacing" textLength="59" x="234.5" y="430.2231">Evaluate;</text><text fill="#000000" font-family="sans-serif" font-size="13" lengthAdjust="spacing" textLength="72" x="234.5" y="445.356">documents</text><text fill="#000000" font-family="sans-serif" font-size="13" lengthAdjust="spacing" textLength="4" x="306.5" y="445.356">&#160;</text><text fill="#000000" font-family="sans-serif" font-size="13" lengthAdjust="spacing" textLength="13" x="310.5" y="445.356">to</text><text fill="#000000" font-family="sans-serif" font-size="13" lengthAdjust="spacing" textLength="43" x="234.5" y="460.4888">results</text><polygon fill="#181818" points="56.5,486.5547,46.5,490.5547,56.5,494.5547,52.5,490.5547" style="stroke:#181818;stroke-width:1.0;"/><line style="stroke:#181818;stroke-width:1.0;" x1="50.5" x2="221.5" y1="490.5547" y2="490.5547"/><text fill="#000000" font-family="sans-serif" font-size="13" lengthAdjust="spacing" textLength="38" x="177.5" y="503.6216">Query</text><text fill="#000000" font-family="sans-serif" font-size="13" lengthAdjust="spacing" textLength="36" x="177.5" y="518.7544">result</text><!--SRC=[RLExRXin4Epv5GjVQmDnWAIG0GEMaXWf0ZXGaI9EiIBNTuIevOaFMNAKVm-FFDq3S4SEXpEpowNVQcxHuGvsUFn1tcDDQ_r6SFlna_33eREHbRIEoS4C9zzQzjJVN9Anhm_EsLS8BjA4w6aVYUM5-61qpQ2q8ncqvGdn2LtGKhV8uGcLqbp3xOV9-T8UB_ZdARwnH_WhbYYtTGwxiiQwf6ReqH6noAaAk2OisD8wHQu7MvSq2_vFY7QC0IkZYOCNelDOsIYR3Ng2BnWmBwfVZGuaf3McbEFXwcSaTqfExg0bNG5woCYSz9qL7MUaZCn9dSsCqm62M7Kb2z67Wvlxuh20TTpiT83Gq3FlioachGC6AWoe0g4HecnkVbV18VjKSDBvCygaX_1q3SXeJczf8Hrr4gr17kxUby39KoAdOKXsFjo1pdMzQ1F8-T6zb5ifejPlJnkJ1kHyFei2ZyQF560VqUWNJGgKbR2baqz1L2_SROMYkUuaKzUW1NoZ89jBfkj1PuoJ6rljj69TDs68a-4nJP79pKmISPSdOMAUN-FzNWuQNmzeOYBVmI01mNQV9vfkheRa_MCkoiLdBeofNJxu3m00]--></g></svg>