<?xml version="1.0" encoding="UTF-8" standalone="no"?><svg xmlns="http://www.w3.org/2000/svg" xmlns:xlink="http://www.w3.org/1999/xlink" contentStyleType="text/css" height="186px" preserveAspectRatio="none" style="width:494px;height:186px;background:#FFFFFF;" version="1.1" viewBox="0 0 494 186" width="494px" zoomAndPan="magnify"><defs/><g><!--entity Results--><g id="elem_Results"><rect fill="#F1F1F1" height="32.2969" rx="2.5" ry="2.5" style="stroke:#181818;stroke-width:0.5;" width="83.3333" x="401" y="11"/><rect fill="#F1F1F1" height="32.2969" rx="2.5" ry="2.5" style="stroke:#181818;stroke-width:0.5;" width="83.3333" x="397" y="7"/><text fill="#000000" font-family="sans-serif" font-size="14" lengthAdjust="spacing" textLength="52" x="405" y="27.9951">Results</text><path d="M462,18.4635 L462,26.6302 L471.3333,26.6302 L471.3333,25.4635 L463.1667,25.4635 L463.1667,18.4635 L462,18.4635 M467.8333,18.4635 L467.8333,24.2969 L470.1667,24.2969 L470.1667,18.4635 L467.8333,18.4635 M464.3333,20.7969 L464.3333,24.2969 L466.6667,24.2969 L466.6667,20.7969 L464.3333,20.7969 " fill="#000000" style="stroke:;stroke-width:0.0;stroke-dasharray:;"/></g><!--entity Query--><g id="elem_Query"><path d="M394,81 L394,144.8906 A2.5,2.5 0 0 0 396.5,147.3906 L484.5,147.3906 A2.5,2.5 0 0 0 487,144.8906 L487,88.5 L477,78.5 L396.5,78.5 A2.5,2.5 0 0 0 394,81 " fill="#F1F1F1" style="stroke:#181818;stroke-width:0.5;"/><path d="M477,78.5 L477,86 A2.5,2.5 0 0 0 479.5,88.5 L487,88.5 " fill="#F1F1F1" style="stroke:#181818;stroke-width:0.5;"/><text fill="#000000" font-family="sans-serif" font-size="14" lengthAdjust="spacing" textLength="73" x="404" y="101.4951">SQL++ for</text><text fill="#000000" font-family="sans-serif" font-size="14" lengthAdjust="spacing" textLength="60" x="410.5" y="117.792">Analytics</text><text fill="#000000" font-family="sans-serif" font-size="14" lengthAdjust="spacing" textLength="41" x="420" y="134.0889">Query</text></g><!--entity Data--><g id="elem_Data"><path d="M15.5,19 C15.5,9 50.5,9 50.5,9 C50.5,9 85.5,9 85.5,19 L85.5,109.1875 C85.5,119.1875 50.5,119.1875 50.5,119.1875 C50.5,119.1875 15.5,119.1875 15.5,109.1875 L15.5,19 " fill="#F1F1F1" style="stroke:#181818;stroke-width:0.5;"/><path d="M15.5,19 C15.5,29 50.5,29 50.5,29 C50.5,29 85.5,29 85.5,19 " fill="none" style="stroke:#181818;stroke-width:0.5;"/><text fill="#000000" font-family="sans-serif" font-size="14" lengthAdjust="spacing" textLength="32" x="34.5" y="45.9951">Data</text><text fill="#000000" font-family="sans-serif" font-size="14" lengthAdjust="spacing" textLength="50" x="25.5" y="62.292">Service</text><path d="M15.5,60.5938 C15.5,70.5938 50.5,70.5938 50.5,70.5938 C50.5,70.5938 85.5,70.5938 85.5,60.5938 " fill="none" style="stroke:#181818;stroke-width:1.0;"/><text fill="#000000" font-family="sans-serif" font-size="14" lengthAdjust="spacing" textLength="4" x="48.5" y="82.5889"> </text><path d="M15.5,84.8906 C15.5,94.8906 50.5,94.8906 50.5,94.8906 C50.5,94.8906 85.5,94.8906 85.5,84.8906 " fill="none" style="stroke:#181818;stroke-width:1.0;"/><text fill="#000000" font-family="sans-serif" font-size="14" lengthAdjust="spacing" textLength="4" x="48.5" y="106.8857"> </text></g><!--entity Analytics--><g id="elem_Analytics"><path d="M238,19 C238,9 278,9 278,9 C278,9 318,9 318,19 L318,109.1875 C318,119.1875 278,119.1875 278,119.1875 C278,119.1875 238,119.1875 238,109.1875 L238,19 " fill="#F1F1F1" style="stroke:#181818;stroke-width:0.5;"/><path d="M238,19 C238,29 278,29 278,29 C278,29 318,29 318,19 " fill="none" style="stroke:#181818;stroke-width:0.5;"/><text fill="#000000" font-family="sans-serif" font-size="14" lengthAdjust="spacing" textLength="60" x="248" y="45.9951">Analytics</text><text fill="#000000" font-family="sans-serif" font-size="14" lengthAdjust="spacing" textLength="50" x="253" y="62.292">Service</text><path d="M238,60.5938 C238,70.5938 278,70.5938 278,70.5938 C278,70.5938 318,70.5938 318,60.5938 " fill="none" style="stroke:#181818;stroke-width:1.0;"/><text fill="#000000" font-family="sans-serif" font-size="14" lengthAdjust="spacing" textLength="4" x="276" y="82.5889"> </text><path d="M238,84.8906 C238,94.8906 278,94.8906 278,94.8906 C278,94.8906 318,94.8906 318,84.8906 " fill="none" style="stroke:#181818;stroke-width:1.0;"/><text fill="#000000" font-family="sans-serif" font-size="14" lengthAdjust="spacing" textLength="4" x="276" y="106.8857"> </text></g><g id="elem_GMN8"><path d="M6,154.5 L6,179.6328 A0,0 0 0 0 6,179.6328 L95,179.6328 A0,0 0 0 0 95,179.6328 L95,164.5 L85,154.5 L54.5,154.5 L50.5,119.27 L46.5,154.5 L6,154.5 A0,0 0 0 0 6,154.5 " fill="#FEFFDD" style="stroke:#181818;stroke-width:0.5;"/><path d="M85,154.5 L85,164.5 L95,164.5 L85,154.5 " fill="#FEFFDD" style="stroke:#181818;stroke-width:0.5;"/><text fill="#000000" font-family="sans-serif" font-size="13" lengthAdjust="spacing" textLength="68" x="12" y="171.5669">Keyspaces</text></g><g id="elem_GMN11"><path d="M225,154.5 L225,179.6328 A0,0 0 0 0 225,179.6328 L331,179.6328 A0,0 0 0 0 331,179.6328 L331,164.5 L321,154.5 L282,154.5 L278,119.27 L274,154.5 L225,154.5 A0,0 0 0 0 225,154.5 " fill="#FEFFDD" style="stroke:#181818;stroke-width:0.5;"/><path d="M321,154.5 L321,164.5 L331,164.5 L321,154.5 " fill="#FEFFDD" style="stroke:#181818;stroke-width:0.5;"/><text fill="#000000" font-family="sans-serif" font-size="13" lengthAdjust="spacing" textLength="85" x="231" y="171.5669">Shadow Data</text></g><!--link Data to Analytics--><g id="link_Data_Analytics"><path d="M85.75,64 C124.66,64 188.32,64 231.41,64 " fill="none" id="Data-to-Analytics" style="stroke:#181818;stroke-width:1.0;"/><polygon fill="#181818" points="236.36,64,227.36,60,231.36,64,227.36,68,236.36,64" style="stroke:#181818;stroke-width:1.0;"/><text fill="#000000" font-family="sans-serif" font-size="13" lengthAdjust="spacing" textLength="25" x="140.1667" y="45.0669">Link</text><path d="M176.5367,36.2486 C176.3417,36.2595 176.1467,36.2811 175.9625,36.3461 C175.67,36.4545 175.3883,36.617 175.15,36.8553 A0.5417,0.5417 0 1 0 175.8975,37.6028 C176.0167,37.4836 176.1575,37.4186 176.3092,37.3645 C176.6883,37.2345 177.1542,37.2886 177.4575,37.6028 C177.88,38.0253 177.88,38.7295 177.4575,39.1628 L175.8325,40.7878 C175.3558,41.2645 174.9658,41.3078 174.6842,41.297 C174.4025,41.2861 174.24,41.1561 174.24,41.1561 A0.5417,0.5417 0 1 0 173.6983,42.1095 C174.0667,42.3478 174.0667,42.3478 174.6083,42.3803 C175.15,42.4128 175.9083,42.207 176.5692,41.5353 L178.1942,39.9103 C179.0392,39.0653 179.0392,37.7003 178.1942,36.8661 C177.8908,36.5628 177.5333,36.3786 177.1433,36.292 C176.9483,36.2486 176.7317,36.2486 176.5367,36.2595 M174.37,38.7511 C173.8283,38.7295 173.0808,38.9136 172.4417,39.5636 L170.8167,41.1886 C169.9717,42.0336 169.9717,43.3986 170.8167,44.2328 C171.4233,44.8395 172.29,45.0128 173.0483,44.742 C173.3408,44.6336 173.6225,44.4711 173.8608,44.2328 A0.5417,0.5417 0 1 0 173.1133,43.4853 C172.9942,43.6045 172.8533,43.6695 172.7017,43.7236 C172.3225,43.8536 171.8567,43.7995 171.5533,43.4853 C171.1308,43.0628 171.1308,42.3586 171.5533,41.9253 L173.1783,40.3003 C173.6117,39.867 173.9908,39.8128 174.2942,39.8236 C174.5975,39.8345 174.8033,39.9211 174.8033,39.9211 A0.5417,0.5417 0 1 0 175.28,38.9678 C174.9117,38.7511 174.9117,38.7511 174.37,38.7295 " fill="#000000" style="stroke:;stroke-width:0.0;stroke-dasharray:;"/><text fill="#000000" font-family="sans-serif" font-size="13" lengthAdjust="spacing" textLength="68" x="126" y="60.1997">(Ingestion)</text></g><!--link Analytics to Results--><g id="link_Analytics_Results"><path d="M318.26,54.46 C340.07,49.16 367.4,42.52 390.59,36.88 " fill="none" id="Analytics-to-Results" style="stroke:#181818;stroke-width:1.0;"/><polygon fill="#181818" points="395.23,35.76,385.543,33.9816,390.3694,36.9323,387.4187,41.7586,395.23,35.76" style="stroke:#181818;stroke-width:1.0;"/></g><!--link Query to Analytics--><g id="link_Query_Analytics"><path d="M393.53,98.96 C371.78,92.33 345.9,84.43 324.25,77.81 " fill="none" id="Query-to-Analytics" style="stroke:#181818;stroke-width:1.0;"/><polygon fill="#181818" points="319.71,76.43,327.1547,82.878,324.4932,77.8864,329.4849,75.2249,319.71,76.43" style="stroke:#181818;stroke-width:1.0;"/></g><!--SRC=[TL31JiCm3BtxAwmU46Zg3o1KQH8Nn2wZt2W7DtNRQAap9HvG8VwTj1lh4287-qbvptxFSMTbJu46RBYbWzDd_j2rivqCB8ec5GxWk5LKZy5slM9Z0nkrNW0QKgefCjudW2ymDIWvl5d3aAS7f_fwmLqBkL6jYKbmnl-fr7UiFGVy1EETEowEc3rnJ6uZtbtL57BJKz0YGufu-e3MEiQit6vMAsnzgEIygfBjWSCuisS4Nm3YbR7sgdv0tyvv0F6HnxWdmn5O6fmuVvXB0iIofyQ_7yMBOBvDdXSNmMznOsMNpBlKSYjAHejAhX-aupWbl5akCqj_Kir-Vm_x1W00]--></g></svg>