<?xml version="1.0" encoding="UTF-8" standalone="no"?><svg xmlns="http://www.w3.org/2000/svg" xmlns:xlink="http://www.w3.org/1999/xlink" contentStyleType="text/css" height="411.4583px" preserveAspectRatio="none" style="width:487px;height:411px;" version="1.1" viewBox="0 0 487 411" width="487.5px" zoomAndPan="magnify"><defs><linearGradient id="g1j157a3t0ie0x0" x1="50%" x2="50%" y1="0%" y2="100%"><stop offset="0%" stop-color="#FFFFFF"/><stop offset="100%" stop-color="#FFFFFF"/></linearGradient><filter height="300%" id="f1j157a3t0ie0x" width="300%" x="-1" y="-1"><feGaussianBlur result="blurOut" stdDeviation="2.0833333333333335"/><feColorMatrix in="blurOut" result="blurOut2" type="matrix" values="0 0 0 0 0 0 0 0 0 0 0 0 0 0 0 0 0 0 .4 0"/><feOffset dx="4.166666666666667" dy="4.166666666666667" in="blurOut2" result="blurOut3"/><feBlend in="SourceGraphic" in2="blurOut3" mode="normal"/></filter><linearGradient id="g1j157a3t0ie0x1" x1="50%" x2="50%" y1="0%" y2="100%"><stop offset="0%" stop-color="#4DABF5"/><stop offset="100%" stop-color="#2196F3"/></linearGradient></defs><g><!--cluster Capella--><g id="cluster_Capella"><path d="M318.1914,29.078 C321.7803,23.7588 325.3004,24.2441 328.4655,29.49 C331.5244,23.3143 335.5853,22.8979 340.6525,27.1409 C344.4498,20.4383 349.0317,21.0216 353.1184,26.8532 C355.9909,20.4678 359.3332,20.0487 364.0777,25.0517 C366.5235,18.1909 371.2989,17.5851 375.8953,22.9776 C379.0708,17.5266 383.2351,17.7275 387.1769,22.0973 C390.596,17.0649 396.5075,16.6667 399.4016,22.6784 C403.1565,17.2523 409.2222,17.3263 411.6665,24.0062 C415.4343,17.7401 420.9208,18.6905 423.6077,25.0301 C427.9602,20.135 433.022,21.322 434.5597,27.7521 C438.7532,21.2875 444.0072,22.9437 447.012,28.94 C455.6795,22.3959 462.9947,26.1737 465.1042,36.1305 C465.5775,35.7755 465.8801,35.9077 466.0583,36.4458 C472.7866,40.0408 473.653,46.0668 467.5757,50.9971 C473.6251,54.4723 473.8025,59.8925 467.2749,63.0539 C475.3409,67.9881 473.3392,72.8315 467.2556,77.7471 C474.0746,81.9808 474.2614,86.2057 467.8271,91.0104 C473.3295,94.22 473.8041,99.2129 468.0144,102.6049 C473.7878,107.1802 471.8073,112.5005 466.0297,115.265 C472.2414,119.2724 473.4037,123.8744 467.0926,128.8608 C472.6951,137.9553 471.0678,148.3881 457.8125,148.6305 C458.2406,148.7088 458.2756,148.9766 458.0783,149.3023 C455.4386,154.6643 450.7777,156.1725 446.7686,150.7365 C443.9437,156.3684 438.6472,157.8142 434.8794,151.6901 C433.0596,157.1719 429.1075,158.5567 424.5257,154.7783 C421.7996,161.1721 416.3359,162.1494 412.3937,155.9499 C408.4392,161.327 404.1726,162.4032 400.1997,155.9688 C397.5069,161.702 393.8924,164.1976 388.5071,158.7962 C383.7164,163.6438 379.1523,163.873 376.18,156.8999 C370.8749,162.4924 366.7789,160.8627 363.731,154.5414 C359.7953,158.9736 356.4831,159.5625 352.7706,154.2894 C347.5855,159.0538 342.5781,158.1925 339.9854,151.4171 C336.3342,157.6102 331.4491,156.8993 328.2128,151.0128 C318.016,157.5624 309.5212,153.8593 308.8542,141.3388 C310.0035,140.9301 310.7963,141.7242 310.501,142.8696 C302.8258,139.7208 302.3388,133.4555 309.2552,128.9964 C303.4375,127.2956 301.2136,121.682 305.944,117.0561 C299.7956,112.602 300.081,108.0682 305.7995,103.4877 C299.0473,101.0375 298.7407,95.2789 303.6483,90.8448 C296.8447,85.1272 297.6104,80.2057 305.1138,75.8902 C300.8453,71.5122 300.8522,66.3784 307.3437,64.0222 C302.1742,59.8384 301.9297,53.4699 308.6045,50.3808 C299.417,39.7993 302.2486,31.3389 316.1458,28.8388 C316.7759,28.0453 317.7574,28.1953 318.1914,29.078 " fill="url(#g1j157a3t0ie0x0)" filter="url(#f1j157a3t0ie0x)" style="stroke:#2196F3;stroke-width:1.0416666666666667;"/><text fill="#222222" font-family="&quot;Verdana&quot;" font-size="12.5" font-weight="bold" lengthAdjust="spacing" textLength="55.2083" x="359.375" y="56.0666">Capella</text></g><!--entity CB--><g id="elem_CB"><path d="M31.7708,85.0888 C31.7708,74.6722 111.9792,74.6722 111.9792,74.6722 C111.9792,74.6722 192.1875,74.6722 192.1875,85.0888 L192.1875,129.848 C192.1875,140.2646 111.9792,140.2646 111.9792,140.2646 C111.9792,140.2646 31.7708,140.2646 31.7708,129.848 L31.7708,85.0888 " fill="url(#g1j157a3t0ie0x1)" filter="url(#f1j157a3t0ie0x)" style="stroke:#2196F3;stroke-width:1.0416666666666667;"/><path d="M31.7708,85.0888 C31.7708,95.5055 111.9792,95.5055 111.9792,95.5055 C111.9792,95.5055 192.1875,95.5055 192.1875,85.0888 " fill="none" style="stroke:#2196F3;stroke-width:1.0416666666666667;"/><text fill="#222222" font-family="&quot;Verdana&quot;" font-size="12.5" lengthAdjust="spacing" textLength="118.75" x="52.6042" y="121.6916">Couchbase Server</text></g><!--entity SGW--><g id="elem_SGW"><polygon fill="url(#g1j157a3t0ie0x0)" filter="url(#f1j157a3t0ie0x)" points="35.9375,216.3388,46.3542,205.9222,188.0208,205.9222,188.0208,262.1396,177.6042,272.5563,35.9375,272.5563,35.9375,216.3388" style="stroke:#222222;stroke-width:1.0416666666666667;"/><line style="stroke:#222222;stroke-width:1.0416666666666667;" x1="177.6042" x2="188.0208" y1="216.3388" y2="205.9222"/><line style="stroke:#222222;stroke-width:1.0416666666666667;" x1="35.9375" x2="177.6042" y1="216.3388" y2="216.3388"/><line style="stroke:#222222;stroke-width:1.0416666666666667;" x1="177.6042" x2="177.6042" y1="216.3388" y2="272.5563"/><text fill="#222222" font-family="&quot;Verdana&quot;" font-size="12.5" lengthAdjust="spacing" textLength="89.5833" x="61.9792" y="248.775">Sync Gateway</text></g><!--entity Cap--><g id="elem_Cap"><path d="M317.7083,85.0888 C317.7083,74.6722 386.9792,74.6722 386.9792,74.6722 C386.9792,74.6722 456.25,74.6722 456.25,85.0888 L456.25,129.848 C456.25,140.2646 386.9792,140.2646 386.9792,140.2646 C386.9792,140.2646 317.7083,140.2646 317.7083,129.848 L317.7083,85.0888 " fill="url(#g1j157a3t0ie0x1)" filter="url(#f1j157a3t0ie0x)" style="stroke:#2196F3;stroke-width:1.0416666666666667;"/><path d="M317.7083,85.0888 C317.7083,95.5055 386.9792,95.5055 386.9792,95.5055 C386.9792,95.5055 456.25,95.5055 456.25,85.0888 " fill="none" style="stroke:#2196F3;stroke-width:1.0416666666666667;"/><text fill="#222222" font-family="&quot;Verdana&quot;" font-size="12.5" lengthAdjust="spacing" textLength="96.875" x="338.5417" y="121.6916">Capella Bucket</text></g><!--entity Clients--><g id="elem_Clients"><rect fill="#FFA500" filter="url(#f1j157a3t0ie0x)" height="56.2174" rx="4.1667" ry="4.1667" style="stroke:#999999;stroke-width:1.0416666666666667;" width="188.5417" x="17.7083" y="338.2138"/><text fill="#333333" font-family="&quot;Verdana&quot;" font-size="12.5" lengthAdjust="spacing" textLength="146.875" x="38.5417" y="370.65">Couchbase Lite clients</text></g><!--link CB to SGW--><g id="link_CB_SGW"><path d="M111.9792,147.2659 C111.9792,163.6826 111.9792,182.7868 111.9792,199.2243 " fill="none" id="CB-SGW" style="stroke:#2196F3;stroke-width:3.125;"/><polygon fill="#2196F3" points="111.9792,142.1618,107.8125,151.5368,111.9792,147.3701,116.1458,151.5368,111.9792,142.1618" style="stroke:#2196F3;stroke-width:3.125;"/><polygon fill="#2196F3" points="111.9792,204.0472,116.1458,194.6722,111.9792,198.8388,107.8125,194.6722,111.9792,204.0472" style="stroke:#2196F3;stroke-width:3.125;"/></g><!--link SGW to Clients--><g id="link_SGW_Clients"><path d="M111.9792,272.818 C111.9792,293.068 111.9792,318.8284 111.9792,338.0159 " fill="none" id="SGW-Clients" style="stroke:#2196F3;stroke-width:3.125;"/></g><!--link CB to Cap--><g id="link_CB_Cap"><path d="M192.625,107.4847 C229.9271,107.4847 274,107.4847 310.7396,107.4847 " fill="none" id="CB-to-Cap" style="stroke:#FF0000;stroke-width:3.125;"/><polygon fill="#FF0000" points="315.9375,107.4847,306.5625,103.318,310.7292,107.4847,306.5625,111.6513,315.9375,107.4847" style="stroke:#FF0000;stroke-width:3.125;"/><text fill="#222222" font-family="&quot;Verdana&quot;" font-size="12.5" lengthAdjust="spacing" textLength="33.3333" x="221.6146" y="90.9625">XDCR</text></g><!--SRC=[POx1IiH044JlynLbF7YQ7v15C2FinPCHreENtaav2JkR2PFEwYB-kxE9Y613GrDT_QgljEEHE8eozsACfi0YPNmQb6f5PIyJKRaq-suP6-OJSmMPuEh5DQIsE9hpuB4je7SvBzjckpDVnaZWe7y1ZxqIFlP5dbRCEXlZOvfRE1aPe_n_uKUlPt-WhfSoNY9SZOsrTqjYQLZxoxm1FpGBdkzhQ4BeJmI7D8SEqoYUU4iPKVPal61ixaEd1LN8m7LcYrjKBm_kwLMhRm00]--></g></svg>