<?xml version="1.0" encoding="us-ascii" standalone="no"?><svg xmlns="http://www.w3.org/2000/svg" xmlns:xlink="http://www.w3.org/1999/xlink" contentStyleType="text/css" height="406.25px" preserveAspectRatio="none" style="width:486px;height:406px;" version="1.1" viewBox="0 0 486 406" width="486.4583px" zoomAndPan="magnify"><defs><linearGradient id="g1rw5mpneizsoe0" x1="50%" x2="50%" y1="0%" y2="100%"><stop offset="0%" stop-color="#FFFFFF"/><stop offset="100%" stop-color="#FFFFFF"/></linearGradient><filter height="300%" id="f1rw5mpneizsoe" width="300%" x="-1" y="-1"><feGaussianBlur result="blurOut" stdDeviation="2.0833333333333335"/><feColorMatrix in="blurOut" result="blurOut2" type="matrix" values="0 0 0 0 0 0 0 0 0 0 0 0 0 0 0 0 0 0 .4 0"/><feOffset dx="4.166666666666667" dy="4.166666666666667" in="blurOut2" result="blurOut3"/><feBlend in="SourceGraphic" in2="blurOut3" mode="normal"/></filter><linearGradient id="g1rw5mpneizsoe1" x1="50%" x2="50%" y1="0%" y2="100%"><stop offset="0%" stop-color="#4DABF5"/><stop offset="100%" stop-color="#2196F3"/></linearGradient></defs><g><!--cluster Capella--><g id="cluster_Capella"><path d="M318.9298,25.8368 C321.9551,20.8638 325.2761,21.1018 329.0046,25.042 C332.6237,19.2109 337.5901,20.5718 340.8051,25.4858 C344.6132,18.2196 349.9626,18.5607 354.3334,24.9275 C356.5692,20.7351 361.0242,19.5021 363.9827,24.1376 C367.1932,17.9025 372.737,16.691 376.6802,23.42 C379.8508,16.941 383.5804,16.9419 388.0641,22.1398 C392.0801,16.6667 397.4944,16.8459 400.2083,23.4492 C403.5544,18.0521 407.7266,17.4533 411.9914,22.4029 C416.3991,18.9415 420.3488,19.2094 422.5898,24.9095 C425.9978,18.0105 432.2334,19.3214 435.5718,24.9814 C439.159,19.7358 443.1119,20.8328 446.2791,25.4378 C454.6192,18.7275 463.4727,21.7323 464.0625,33.0732 C464.7554,32.4879 465.2789,32.7003 465.6229,33.4738 C472.6975,38.3176 471.9715,43.0062 465.4965,47.7299 C471.0625,50.4358 472.065,55.0969 467.8451,59.7197 C474.8806,64.4506 474.6709,69.5616 468.1613,74.5808 C474.2869,78.7794 474.1548,82.751 467.7647,86.5344 C473.7598,90.6104 474.0969,96.4722 467.073,99.8732 C472.8967,104.0417 474.0777,109.3596 466.895,113.3565 C473.4467,117.5135 474.623,122.5941 467.1978,127.0599 C471.998,136.0346 467.9463,145.5801 456.7708,145.5419 C457.653,144.8989 458.4475,145.4605 458.5633,146.4064 C456.3889,152.2727 450.6252,154.0865 446.7265,148.1333 C443.1687,153.669 438.5008,154.0548 433.9967,149.3044 C432.2685,154.5467 427.6739,155.7174 423.8117,151.6353 C420.5136,158.3588 414.96,158.0336 411.1208,152.1815 C408.1968,158.4169 403.676,159.0634 399.1676,153.8333 C397.2988,160.3541 393.0537,161.5768 387.9672,157.1147 C382.7484,162.1406 379.6745,160.3305 377.0789,154.4869 C373.3936,160.4059 368.3804,158.7218 365.4261,153.7079 C360.8979,158.2379 355.9079,157.463 352.9953,151.7477 C348.958,156.714 344.3814,155.6862 342.6037,149.6195 C338.3529,155.2136 333.6548,155.8198 329.7437,149.2601 C318.3368,154.6048 310.6888,152.0397 309.8958,138.2502 C310.4319,137.959 310.7553,138.1788 310.8611,138.7384 C304.5885,134.7887 303.8796,129.6656 310.5855,125.4468 C304.6417,122.0024 302.7366,117.6399 308.7022,112.4675 C303.0081,108.9607 302.0262,104.4642 307.7881,100.11 C301.6386,95.9883 301.6832,90.074 308.0122,86.1527 C302.4875,81.2787 302.7418,77.4239 309.2521,73.7535 C302.5926,69.9861 304.5741,64.1291 310.0029,61.0778 C303.2258,56.9302 304.4355,50.6139 310.6782,47.0951 C304.2328,37.503 303.6087,29.2581 317.1875,25.7815 C317.721,24.9742 318.4458,25.0831 318.9298,25.8368 " fill="url(#g1rw5mpneizsoe0)" filter="url(#f1rw5mpneizsoe)" style="stroke:#2196F3;stroke-width:1.0416666666666667;"/><text fill="#222222" font-family="Verdana" font-size="12.5" font-weight="bold" lengthAdjust="spacing" textLength="55.2083" x="359.375" y="53.0093">Capella</text></g><!--entity Cap--><g id="elem_Cap"><path d="M317.7083,82.0315 C317.7083,71.6148 386.9792,71.6148 386.9792,71.6148 C386.9792,71.6148 456.25,71.6148 456.25,82.0315 L456.25,126.7906 C456.25,137.2073 386.9792,137.2073 386.9792,137.2073 C386.9792,137.2073 317.7083,137.2073 317.7083,126.7906 L317.7083,82.0315 " fill="url(#g1rw5mpneizsoe1)" filter="url(#f1rw5mpneizsoe)" style="stroke:#2196F3;stroke-width:1.0416666666666667;"/><path d="M317.7083,82.0315 C317.7083,92.4482 386.9792,92.4482 386.9792,92.4482 C386.9792,92.4482 456.25,92.4482 456.25,82.0315 " fill="none" style="stroke:#2196F3;stroke-width:1.0416666666666667;"/><text fill="#222222" font-family="Verdana" font-size="12.5" lengthAdjust="spacing" textLength="96.875" x="338.5417" y="118.6343">Capella Bucket</text></g><!--entity CB--><g id="elem_CB"><path d="M31.7708,82.0315 C31.7708,71.6148 111.9792,71.6148 111.9792,71.6148 C111.9792,71.6148 192.1875,71.6148 192.1875,82.0315 L192.1875,126.7906 C192.1875,137.2073 111.9792,137.2073 111.9792,137.2073 C111.9792,137.2073 31.7708,137.2073 31.7708,126.7906 L31.7708,82.0315 " fill="url(#g1rw5mpneizsoe1)" filter="url(#f1rw5mpneizsoe)" style="stroke:#2196F3;stroke-width:1.0416666666666667;"/><path d="M31.7708,82.0315 C31.7708,92.4482 111.9792,92.4482 111.9792,92.4482 C111.9792,92.4482 192.1875,92.4482 192.1875,82.0315 " fill="none" style="stroke:#2196F3;stroke-width:1.0416666666666667;"/><text fill="#222222" font-family="Verdana" font-size="12.5" lengthAdjust="spacing" textLength="118.75" x="52.6042" y="118.6343">Couchbase Server</text></g><!--entity SGW--><g id="elem_SGW"><polygon fill="url(#g1rw5mpneizsoe0)" filter="url(#f1rw5mpneizsoe)" points="35.9375,213.2502,46.3542,202.8336,188.0208,202.8336,188.0208,259.051,177.6042,269.4677,35.9375,269.4677,35.9375,213.2502" style="stroke:#222222;stroke-width:1.0416666666666667;"/><line style="stroke:#222222;stroke-width:1.0416666666666667;" x1="177.6042" x2="188.0208" y1="213.2502" y2="202.8336"/><line style="stroke:#222222;stroke-width:1.0416666666666667;" x1="35.9375" x2="177.6042" y1="213.2502" y2="213.2502"/><line style="stroke:#222222;stroke-width:1.0416666666666667;" x1="177.6042" x2="177.6042" y1="213.2502" y2="269.4677"/><text fill="#222222" font-family="Verdana" font-size="12.5" lengthAdjust="spacing" textLength="89.5833" x="61.9792" y="245.6864">Sync Gateway</text></g><!--entity Clients--><g id="elem_Clients"><rect fill="#FFA500" filter="url(#f1rw5mpneizsoe)" height="56.2174" rx="4.1667" ry="4.1667" style="stroke:#999999;stroke-width:1.0416666666666667;" width="188.5417" x="17.7083" y="333.0107"/><text fill="#333333" font-family="Verdana" font-size="12.5" lengthAdjust="spacing" textLength="146.875" x="38.5417" y="365.4468">Couchbase Lite clients</text></g><!--link CB to SGW--><g id="link_CB_SGW"><path d="M111.9792,143.6982 C111.9792,160.344 111.9792,179.8232 111.9792,196.5211 " fill="none" id="CB-SGW" style="stroke:#2196F3;stroke-width:3.125;"/><polygon fill="#2196F3" points="111.9792,138.5523,107.8125,147.9273,111.9792,143.7607,116.1458,147.9273,111.9792,138.5523" style="stroke:#2196F3;stroke-width:3.125;"/><polygon fill="#2196F3" points="111.9792,201.4898,116.1458,192.1148,111.9792,196.2815,107.8125,192.1148,111.9792,201.4898" style="stroke:#2196F3;stroke-width:3.125;"/></g><!--link SGW to Clients--><g id="link_SGW_Clients"><path d="M111.9792,269.8023 C111.9792,289.4273 111.9792,314.1252 111.9792,332.7294 " fill="none" id="SGW-Clients" style="stroke:#2196F3;stroke-width:3.125;"/></g><!--link CB to Cap--><g id="link_CB_Cap"><path d="M192.625,104.4169 C230.2396,104.4169 274.7396,104.4169 311.6563,104.4169 " fill="none" id="CB-to-Cap" style="stroke:#FF0000;stroke-width:3.125;"/><polygon fill="#FF0000" points="316.4688,104.4169,307.0938,100.2502,311.2604,104.4169,307.0938,108.5836,316.4688,104.4169" style="stroke:#FF0000;stroke-width:3.125;"/><text fill="#222222" font-family="Verdana" font-size="12.5" lengthAdjust="spacing" textLength="33.3333" x="221.6146" y="87.8947">XDCR</text></g><!--SRC=[POx1IiH044JlynLbF7YQ7v15C2FinPCHreENtaav2JkR2PFEwYB-kxE9Y613GrDT_QgljEEHE8eozsACfi0YPNmQb6f5PIyJKRaq-suP6-OJSmMPuEh5DQIsE9hpuB4je7SvBzjckpDVnaZWe7y1ZxqIFlP5dbRCEXlZOvfRE1aPe_n_uKUlPt-WhfSoNY9SZOsrTqjYQLZxoxm1FpGBdkzhQ4BeJmI7D8SEqoYUU4iPKVPal61ixaEd1LN8m7LcYrjKBm_kwLMhRm00]--></g></svg>