<?xml version="1.0" encoding="UTF-8" standalone="no"?><svg xmlns="http://www.w3.org/2000/svg" xmlns:xlink="http://www.w3.org/1999/xlink" contentStyleType="text/css" height="232px" preserveAspectRatio="none" style="width:692px;height:232px;background:#FFFFFF;" version="1.1" viewBox="0 0 692 232" width="692px" zoomAndPan="magnify"><defs/><g><!--MD5=[0c6c56afe89fba3f46d2be371783d5a6]
cluster Index\nService--><g id="cluster_Index\nService"><rect fill="none" height="103" rx="2.5" ry="2.5" style="stroke:#181818;stroke-width:1.0;" width="492" x="42" y="7"/><text fill="#000000" font-family="sans-serif" font-size="14" font-weight="bold" lengthAdjust="spacing" textLength="43" x="266.5" y="21.9951">Index</text><text fill="#000000" font-family="sans-serif" font-size="14" font-weight="bold" lengthAdjust="spacing" textLength="59" x="258.5" y="38.292">Service</text></g><!--MD5=[7e65e753e7f4885ff7567f7618ef3bdb]
cluster Query\nService--><g id="cluster_Query\nService"><rect fill="none" height="103" rx="2.5" ry="2.5" style="stroke:#181818;stroke-width:1.0;" width="92" x="558" y="7"/><text fill="#000000" font-family="sans-serif" font-size="14" font-weight="bold" lengthAdjust="spacing" textLength="48" x="580" y="21.9951">Query</text><text fill="#000000" font-family="sans-serif" font-size="14" font-weight="bold" lengthAdjust="spacing" textLength="59" x="574.5" y="38.292">Service</text></g><!--MD5=[b56d82cc628557b1acc6c002153fa3f7]
entity IndexScan--><g id="elem_IndexScan"><rect fill="#F1F1F1" height="36.2969" rx="2.5" ry="2.5" style="stroke:#181818;stroke-width:0.5;" width="95" x="58.5" y="58"/><text fill="#000000" font-family="sans-serif" font-size="14" lengthAdjust="spacing" textLength="75" x="68.5" y="80.9951">Index Scan</text></g><!--MD5=[d04648e85a9b10e4576b2636e86a7d55]
entity Filter--><g id="elem_Filter"><rect fill="#F1F1F1" height="36.2969" rx="2.5" ry="2.5" style="stroke:#181818;stroke-width:0.5;" width="53" x="188.5" y="58"/><text fill="#000000" font-family="sans-serif" font-size="14" lengthAdjust="spacing" textLength="33" x="198.5" y="80.9951">Filter</text></g><!--MD5=[ff70e4322b05e68cf66d2ff13f5b48e6]
entity Order--><g id="elem_Order"><rect fill="#F1F1F1" height="36.2969" rx="2.5" ry="2.5" style="stroke:#181818;stroke-width:0.5;" width="59" x="276.5" y="58"/><text fill="#000000" font-family="sans-serif" font-size="14" lengthAdjust="spacing" textLength="39" x="286.5" y="80.9951">Order</text></g><!--MD5=[ba3e2b2dca857ef37695f5c4c4439b77]
entity Offset--><g id="elem_Offset"><rect fill="#F1F1F1" height="36.2969" rx="2.5" ry="2.5" style="stroke:#181818;stroke-width:0.5;" width="61" x="370.5" y="58"/><text fill="#000000" font-family="sans-serif" font-size="14" lengthAdjust="spacing" textLength="41" x="380.5" y="80.9951">Offset</text></g><!--MD5=[7c91c379e791bbc64b0e5662b11be0d0]
entity Limit--><g id="elem_Limit"><rect fill="#F1F1F1" height="36.2969" rx="2.5" ry="2.5" style="stroke:#181818;stroke-width:0.5;" width="51" x="466.5" y="58"/><text fill="#000000" font-family="sans-serif" font-size="14" lengthAdjust="spacing" textLength="31" x="476.5" y="80.9951">Limit</text></g><!--MD5=[1bb669a7cce09e263741a8133c219385]
entity Fetch--><g id="elem_Fetch"><rect fill="#F1F1F1" height="36.2969" rx="2.5" ry="2.5" style="stroke:#181818;stroke-width:0.5;" width="59" x="574.5" y="58"/><text fill="#000000" font-family="sans-serif" font-size="14" lengthAdjust="spacing" textLength="39" x="584.5" y="80.9951">Fetch</text></g><!--MD5=[c88a36799ca4d6dff2d7449eacfc25f7]
entity start--><g id="elem_start"><ellipse cx="14" cy="76" fill="#F1F1F1" rx="8" ry="8" style="stroke:#181818;stroke-width:0.5;"/></g><!--MD5=[22efa60cf2b4332bf8574b0c93969d71]
entity end--><g id="elem_end"><ellipse cx="678" cy="76" fill="#F1F1F1" rx="8" ry="8" style="stroke:#181818;stroke-width:0.5;"/></g><g id="elem_GMN10"><path d="M97,165 L97,205.2656 A0,0 0 0 0 97,205.2656 L333,205.2656 A0,0 0 0 0 333,205.2656 L333,175 L323,165 L219,165 L215,94.49 L211,165 L97,165 A0,0 0 0 0 97,165 " fill="#FEFFDD" style="stroke:#181818;stroke-width:0.5;"/><path d="M323,165 L323,175 L333,175 L323,165 " fill="#FEFFDD" style="stroke:#181818;stroke-width:0.5;"/><text fill="#000000" font-family="sans-serif" font-size="13" lengthAdjust="spacing" textLength="183" x="119" y="182.0669">Filters, order, and pagination</text><text fill="#000000" font-family="sans-serif" font-size="13" lengthAdjust="spacing" textLength="215" x="103" y="197.1997">pushed down to the Index Service</text></g><!--MD5=[0ecd579b94b5f51ba0c6012111a3b28f]
entity Data--><g id="elem_Data"><path d="M569,164 C569,154 604,154 604,154 C604,154 639,154 639,164 L639,205.5938 C639,215.5938 604,215.5938 604,215.5938 C604,215.5938 569,215.5938 569,205.5938 L569,164 " fill="#F1F1F1" style="stroke:#181818;stroke-width:0.5;"/><path d="M569,164 C569,174 604,174 604,174 C604,174 639,174 639,164 " fill="none" style="stroke:#181818;stroke-width:0.5;"/><text fill="#000000" font-family="sans-serif" font-size="14" lengthAdjust="spacing" textLength="32" x="588" y="190.9951">Data</text><text fill="#000000" font-family="sans-serif" font-size="14" lengthAdjust="spacing" textLength="50" x="579" y="207.292">Service</text></g><!--MD5=[9dcf1f94b7e729ba3ce9af7466d1ed88]
link start to IndexScan--><g id="link_start_IndexScan"><path d="M23.16,76 C23.16,76 53.29,76 53.29,76 " fill="none" id="start-to-IndexScan" style="stroke:#181818;stroke-width:1.0;stroke-dasharray:7.0,7.0;"/><polygon fill="#181818" points="58.29,76,49.29,72,53.29,76,49.29,80,58.29,76" style="stroke:#181818;stroke-width:1.0;"/></g><!--MD5=[52b46ba1547ce3b69a59d2722edbd61b]
link IndexScan to Filter--><g id="link_IndexScan_Filter"><path d="M153.81,76 C153.81,76 183.48,76 183.48,76 " fill="none" id="IndexScan-to-Filter" style="stroke:#181818;stroke-width:1.0;"/><polygon fill="#181818" points="188.48,76,179.48,72,183.48,76,179.48,80,188.48,76" style="stroke:#181818;stroke-width:1.0;"/></g><!--MD5=[92b6a7b0f6bdfd4b1190c36d7516077d]
link Filter to Order--><g id="link_Filter_Order"><path d="M241.81,76 C241.81,76 271.2,76 271.2,76 " fill="none" id="Filter-to-Order" style="stroke:#181818;stroke-width:1.0;"/><polygon fill="#181818" points="276.2,76,267.2,72,271.2,76,267.2,80,276.2,76" style="stroke:#181818;stroke-width:1.0;"/></g><!--MD5=[d560d6cf8d8d541f6eb8e1ba1bdccf93]
link Order to Offset--><g id="link_Order_Offset"><path d="M335.54,76 C335.54,76 365.5,76 365.5,76 " fill="none" id="Order-to-Offset" style="stroke:#181818;stroke-width:1.0;"/><polygon fill="#181818" points="370.5,76,361.5,72,365.5,76,361.5,80,370.5,76" style="stroke:#181818;stroke-width:1.0;"/></g><!--MD5=[56c14ee24531f019d403311447c155c8]
link Offset to Limit--><g id="link_Offset_Limit"><path d="M431.55,76 C431.55,76 461.23,76 461.23,76 " fill="none" id="Offset-to-Limit" style="stroke:#181818;stroke-width:1.0;"/><polygon fill="#181818" points="466.23,76,457.23,72,461.23,76,457.23,80,466.23,76" style="stroke:#181818;stroke-width:1.0;"/></g><!--MD5=[3eb6ba6f9c6d7b3d15fba39b330468bf]
link Limit to Fetch--><g id="link_Limit_Fetch"><path d="M517.7,76 C517.7,76 569.47,76 569.47,76 " fill="none" id="Limit-to-Fetch" style="stroke:#181818;stroke-width:1.0;"/><polygon fill="#181818" points="574.47,76,565.47,72,569.47,76,565.47,80,574.47,76" style="stroke:#181818;stroke-width:1.0;"/></g><!--MD5=[99fdd6a768fdd86becbfbf4f6634f0a8]
link Fetch to Data--><g id="link_Fetch_Data"><path d="M594.17,94.49 C594.17,94.49 594.17,148.58 594.17,148.58 " fill="none" id="Fetch-to-Data" style="stroke:#181818;stroke-width:1.0;"/><polygon fill="#181818" points="594.17,153.58,598.17,144.58,594.17,148.58,590.17,144.58,594.17,153.58" style="stroke:#181818;stroke-width:1.0;"/></g><!--MD5=[8c88eee373a4caddaf0bcb426e85f3cc]
reverse link Fetch to Data--><g id="link_Fetch_Data"><path d="M613.83,99.49 C613.83,99.49 613.83,153.58 613.83,153.58 " fill="none" id="Fetch-backto-Data" style="stroke:#181818;stroke-width:1.0;"/><polygon fill="#181818" points="613.83,94.49,609.83,103.49,613.83,99.49,617.83,103.49,613.83,94.49" style="stroke:#181818;stroke-width:1.0;"/></g><!--MD5=[42e161dc13162794568d3cd51fffde3a]
link Fetch to end--><g id="link_Fetch_end"><path d="M633.67,76 C633.67,76 663.74,76 663.74,76 " fill="none" id="Fetch-to-end" style="stroke:#181818;stroke-width:1.0;stroke-dasharray:7.0,7.0;"/><polygon fill="#181818" points="668.74,76,659.74,72,663.74,76,659.74,80,668.74,76" style="stroke:#181818;stroke-width:1.0;"/></g><!--MD5=[fcb759449e7787ed655e95cfd076aea4]
@startuml
skinparam defaultTextAlignment center
skinparam linetype ortho

() " " as start
() " " as end

rectangle "Index\nService"{
  rectangle "Index Scan" as IndexScan
  rectangle Filter
  rectangle Order
  rectangle Offset
  rectangle Limit
}

note bottom of Filter
  Filters, order, and pagination
  pushed down to the Index Service
end note

rectangle "Query\nService"{
  rectangle Fetch
}

database "Data\nService" as Data

start ..r..> IndexScan
IndexScan -> Filter
Filter -> Order
Order -> Offset
Offset -> Limit
Limit -r-> Fetch
Fetch - -> Data
Fetch <- - Data
Fetch ..r..> end
@enduml

PlantUML version 1.2022.12(Sun Oct 23 18:12:26 GMT 2022)
(GPL source distribution)
Java Runtime: OpenJDK Runtime Environment
JVM: OpenJDK 64-Bit Server VM
Default Encoding: UTF-8
Language: en
Country: US
--></g></svg>