<?xml version="1.0" encoding="UTF-8" standalone="no"?><svg xmlns="http://www.w3.org/2000/svg" xmlns:xlink="http://www.w3.org/1999/xlink" contentStyleType="text/css" height="232px" preserveAspectRatio="none" style="width:692px;height:232px;background:#FFFFFF;" version="1.1" viewBox="0 0 692 232" width="692px" zoomAndPan="magnify"><defs/><g><!--MD5=[0c6c56afe89fba3f46d2be371783d5a6]
cluster Index\nService--><g id="cluster_Index\nService"><rect fill="none" height="103" rx="2.5" ry="2.5" style="stroke:#181818;stroke-width:1.0;" width="128" x="42" y="7"/><text fill="#000000" font-family="sans-serif" font-size="14" font-weight="bold" lengthAdjust="spacing" textLength="43" x="84.5" y="21.9951">Index</text><text fill="#000000" font-family="sans-serif" font-size="14" font-weight="bold" lengthAdjust="spacing" textLength="59" x="76.5" y="38.292">Service</text></g><!--MD5=[7e65e753e7f4885ff7567f7618ef3bdb]
cluster Query\nService--><g id="cluster_Query\nService"><rect fill="none" height="103" rx="2.5" ry="2.5" style="stroke:#181818;stroke-width:1.0;" width="456" x="194" y="7"/><text fill="#000000" font-family="sans-serif" font-size="14" font-weight="bold" lengthAdjust="spacing" textLength="48" x="398" y="21.9951">Query</text><text fill="#000000" font-family="sans-serif" font-size="14" font-weight="bold" lengthAdjust="spacing" textLength="59" x="392.5" y="38.292">Service</text></g><!--MD5=[b56d82cc628557b1acc6c002153fa3f7]
entity IndexScan--><g id="elem_IndexScan"><rect fill="#F1F1F1" height="36.2969" rx="2.5" ry="2.5" style="stroke:#181818;stroke-width:0.5;" width="95" x="58.5" y="58"/><text fill="#000000" font-family="sans-serif" font-size="14" lengthAdjust="spacing" textLength="75" x="68.5" y="80.9951">Index Scan</text></g><!--MD5=[1bb669a7cce09e263741a8133c219385]
entity Fetch--><g id="elem_Fetch"><rect fill="#F1F1F1" height="36.2969" rx="2.5" ry="2.5" style="stroke:#181818;stroke-width:0.5;" width="59" x="210.5" y="58"/><text fill="#000000" font-family="sans-serif" font-size="14" lengthAdjust="spacing" textLength="39" x="220.5" y="80.9951">Fetch</text></g><!--MD5=[d04648e85a9b10e4576b2636e86a7d55]
entity Filter--><g id="elem_Filter"><rect fill="#F1F1F1" height="36.2969" rx="2.5" ry="2.5" style="stroke:#181818;stroke-width:0.5;" width="53" x="304.5" y="58"/><text fill="#000000" font-family="sans-serif" font-size="14" lengthAdjust="spacing" textLength="33" x="314.5" y="80.9951">Filter</text></g><!--MD5=[ff70e4322b05e68cf66d2ff13f5b48e6]
entity Order--><g id="elem_Order"><rect fill="#F1F1F1" height="36.2969" rx="2.5" ry="2.5" style="stroke:#181818;stroke-width:0.5;" width="59" x="392.5" y="58"/><text fill="#000000" font-family="sans-serif" font-size="14" lengthAdjust="spacing" textLength="39" x="402.5" y="80.9951">Order</text></g><!--MD5=[ba3e2b2dca857ef37695f5c4c4439b77]
entity Offset--><g id="elem_Offset"><rect fill="#F1F1F1" height="36.2969" rx="2.5" ry="2.5" style="stroke:#181818;stroke-width:0.5;" width="61" x="486.5" y="58"/><text fill="#000000" font-family="sans-serif" font-size="14" lengthAdjust="spacing" textLength="41" x="496.5" y="80.9951">Offset</text></g><!--MD5=[7c91c379e791bbc64b0e5662b11be0d0]
entity Limit--><g id="elem_Limit"><rect fill="#F1F1F1" height="36.2969" rx="2.5" ry="2.5" style="stroke:#181818;stroke-width:0.5;" width="51" x="582.5" y="58"/><text fill="#000000" font-family="sans-serif" font-size="14" lengthAdjust="spacing" textLength="31" x="592.5" y="80.9951">Limit</text></g><!--MD5=[c88a36799ca4d6dff2d7449eacfc25f7]
entity start--><g id="elem_start"><ellipse cx="14" cy="76" fill="#F1F1F1" rx="8" ry="8" style="stroke:#181818;stroke-width:0.5;"/></g><!--MD5=[22efa60cf2b4332bf8574b0c93969d71]
entity end--><g id="elem_end"><ellipse cx="678" cy="76" fill="#F1F1F1" rx="8" ry="8" style="stroke:#181818;stroke-width:0.5;"/></g><g id="elem_GMN12"><path d="M310,165 L310,205.2656 A0,0 0 0 0 310,205.2656 L514,205.2656 A0,0 0 0 0 514,205.2656 L514,175 L504,165 L401.37,165 L344.01,94.19 L393.37,165 L310,165 A0,0 0 0 0 310,165 " fill="#FEFFDD" style="stroke:#181818;stroke-width:0.5;"/><path d="M504,165 L504,175 L514,175 L504,165 " fill="#FEFFDD" style="stroke:#181818;stroke-width:0.5;"/><text fill="#000000" font-family="sans-serif" font-size="13" lengthAdjust="spacing" textLength="183" x="316" y="182.0669">Filters, order, and pagination</text><text fill="#000000" font-family="sans-serif" font-size="13" lengthAdjust="spacing" textLength="137" x="339" y="197.1997">performed after fetch</text></g><!--MD5=[0ecd579b94b5f51ba0c6012111a3b28f]
entity Data--><g id="elem_Data"><path d="M205,164 C205,154 240,154 240,154 C240,154 275,154 275,164 L275,205.5938 C275,215.5938 240,215.5938 240,215.5938 C240,215.5938 205,215.5938 205,205.5938 L205,164 " fill="#F1F1F1" style="stroke:#181818;stroke-width:0.5;"/><path d="M205,164 C205,174 240,174 240,174 C240,174 275,174 275,164 " fill="none" style="stroke:#181818;stroke-width:0.5;"/><text fill="#000000" font-family="sans-serif" font-size="14" lengthAdjust="spacing" textLength="32" x="224" y="190.9951">Data</text><text fill="#000000" font-family="sans-serif" font-size="14" lengthAdjust="spacing" textLength="50" x="215" y="207.292">Service</text></g><!--MD5=[9dcf1f94b7e729ba3ce9af7466d1ed88]
link start to IndexScan--><g id="link_start_IndexScan"><path d="M23.34,76 C33.24,76 43.14,76 53.04,76 " fill="none" id="start-to-IndexScan" style="stroke:#181818;stroke-width:1.0;stroke-dasharray:7.0,7.0;"/><polygon fill="#181818" points="58.21,76,49.21,72,53.21,76,49.21,80,58.21,76" style="stroke:#181818;stroke-width:1.0;"/></g><!--MD5=[10f386584cde928edacfc4f0dc02daf4]
link IndexScan to Fetch--><g id="link_IndexScan_Fetch"><path d="M153.63,76 C170.75,76 187.88,76 205,76 " fill="none" id="IndexScan-to-Fetch" style="stroke:#181818;stroke-width:1.0;"/><polygon fill="#181818" points="210.31,76,201.31,72,205.31,76,201.31,80,210.31,76" style="stroke:#181818;stroke-width:1.0;"/></g><!--MD5=[c331ff6aaed83c3552e0179f02c10475]
link Fetch to Filter--><g id="link_Fetch_Filter"><path d="M269.5,76 C279.32,76 289.14,76 298.96,76 " fill="none" id="Fetch-to-Filter" style="stroke:#181818;stroke-width:1.0;"/><polygon fill="#181818" points="304.1,76,295.1,72,299.1,76,295.1,80,304.1,76" style="stroke:#181818;stroke-width:1.0;"/></g><!--MD5=[92b6a7b0f6bdfd4b1190c36d7516077d]
link Filter to Order--><g id="link_Filter_Order"><path d="M357.66,76 C367.51,76 377.35,76 387.2,76 " fill="none" id="Filter-to-Order" style="stroke:#181818;stroke-width:1.0;"/><polygon fill="#181818" points="392.34,76,383.34,72,387.34,76,383.34,80,392.34,76" style="stroke:#181818;stroke-width:1.0;"/></g><!--MD5=[d560d6cf8d8d541f6eb8e1ba1bdccf93]
link Order to Offset--><g id="link_Order_Offset"><path d="M451.69,76 C461.54,76 471.39,76 481.23,76 " fill="none" id="Order-to-Offset" style="stroke:#181818;stroke-width:1.0;"/><polygon fill="#181818" points="486.38,76,477.38,72,481.38,76,477.38,80,486.38,76" style="stroke:#181818;stroke-width:1.0;"/></g><!--MD5=[56c14ee24531f019d403311447c155c8]
link Offset to Limit--><g id="link_Offset_Limit"><path d="M547.57,76 C557.35,76 567.14,76 576.92,76 " fill="none" id="Offset-to-Limit" style="stroke:#181818;stroke-width:1.0;"/><polygon fill="#181818" points="582.03,76,573.03,72,577.03,76,573.03,80,582.03,76" style="stroke:#181818;stroke-width:1.0;"/></g><!--MD5=[99fdd6a768fdd86becbfbf4f6634f0a8]
link Fetch to Data--><g id="link_Fetch_Data"><path d="M230.34,94.19 C227.31,108.88 226.51,130.48 227.94,148.82 " fill="none" id="Fetch-to-Data" style="stroke:#181818;stroke-width:1.0;"/><polygon fill="#181818" points="228.4,153.89,231.5615,144.5624,227.9435,148.9109,223.5949,145.2928,228.4,153.89" style="stroke:#181818;stroke-width:1.0;"/></g><!--MD5=[8c88eee373a4caddaf0bcb426e85f3cc]
reverse link Fetch to Data--><g id="link_Fetch_Data"><path d="M251.21,99.33 C253.85,115.15 254.21,136.56 252.28,153.89 " fill="none" id="Fetch-backto-Data" style="stroke:#181818;stroke-width:1.0;"/><polygon fill="#181818" points="250.23,94.19,247.9975,103.7825,251.1721,99.1004,255.8542,102.2751,250.23,94.19" style="stroke:#181818;stroke-width:1.0;"/></g><!--MD5=[46b2d070a11629e5e3b743f9933b550e]
link Limit to end--><g id="link_Limit_end"><path d="M633.7,76 C643.62,76 653.55,76 663.47,76 " fill="none" id="Limit-to-end" style="stroke:#181818;stroke-width:1.0;stroke-dasharray:7.0,7.0;"/><polygon fill="#181818" points="668.66,76,659.66,72,663.66,76,659.66,80,668.66,76" style="stroke:#181818;stroke-width:1.0;"/></g><!--MD5=[9e44e4c20be2c1363ad18baa1dc687c7]
@startuml
skinparam defaultTextAlignment center

() " " as start
() " " as end

rectangle "Index\nService"{
  rectangle "Index Scan" as IndexScan
}

rectangle "Query\nService"{
  rectangle Fetch
  rectangle Filter
  rectangle Order
  rectangle Offset
  rectangle Limit
}

note bottom of Filter
  Filters, order, and pagination
  performed after fetch
end note

database "Data\nService" as Data

start ..r..> IndexScan
IndexScan -> Fetch
Fetch -> Filter
Filter -> Order
Order -> Offset
Offset -> Limit
Fetch - -> Data
Fetch <- - Data
Limit ..r..> end
@enduml

PlantUML version 1.2022.12(Sun Oct 23 18:12:26 GMT 2022)
(GPL source distribution)
Java Runtime: OpenJDK Runtime Environment
JVM: OpenJDK 64-Bit Server VM
Default Encoding: UTF-8
Language: en
Country: US
--></g></svg>