<?xml version="1.0" encoding="UTF-8" standalone="no"?><svg xmlns="http://www.w3.org/2000/svg" xmlns:xlink="http://www.w3.org/1999/xlink" contentStyleType="text/css" height="375px" preserveAspectRatio="none" style="width:1164px;height:375px;background:#FFFFFF;" version="1.1" viewBox="0 0 1164 375" width="1164px" zoomAndPan="magnify"><defs/><g><!--MD5=[b0ecd723229114f7ce0b0ff6c303ce95]
cluster Query Service--><g id="cluster_Query Service"><rect fill="none" height="185" rx="2.5" ry="2.5" style="stroke:#181818;stroke-width:1.0;" width="1151" x="7" y="68"/><text fill="#000000" font-family="sans-serif" font-size="14" font-weight="bold" lengthAdjust="spacing" textLength="112" x="526.5" y="82.9951">Query Service</text></g><!--MD5=[ab014a51b30e088747804f887329f388]
entity Parse--><g id="elem_Parse"><rect fill="#F1F1F1" height="134.0781" rx="2.5" ry="2.5" style="stroke:#181818;stroke-width:0.5;" width="59" x="23.5" y="103"/><text fill="#000000" font-family="sans-serif" font-size="14" lengthAdjust="spacing" textLength="39" x="33.5" y="125.9951">Parse</text><text fill="#000000" font-family="sans-serif" font-size="14" lengthAdjust="spacing" textLength="4" x="51" y="142.292"> </text><text fill="#000000" font-family="sans-serif" font-size="14" lengthAdjust="spacing" textLength="4" x="51" y="158.5889"> </text><text fill="#000000" font-family="sans-serif" font-size="14" lengthAdjust="spacing" textLength="13" x="46.5" y="174.8857">▢</text><text fill="#000000" font-family="sans-serif" font-size="14" lengthAdjust="spacing" textLength="4" x="51" y="191.1826"> </text><text fill="#000000" font-family="sans-serif" font-size="14" lengthAdjust="spacing" textLength="4" x="51" y="207.4795"> </text><text fill="#000000" font-family="sans-serif" font-size="14" lengthAdjust="spacing" textLength="4" x="51" y="223.7764"> </text></g><!--MD5=[fb328efc308957fb7a58023446b50fc4]
entity Plan--><g id="elem_Plan"><rect fill="#F1F1F1" height="134.0781" rx="2.5" ry="2.5" style="stroke:#181818;stroke-width:0.5;" width="49" x="117.5" y="103"/><text fill="#000000" font-family="sans-serif" font-size="14" lengthAdjust="spacing" textLength="29" x="127.5" y="125.9951">Plan</text><text fill="#000000" font-family="sans-serif" font-size="14" lengthAdjust="spacing" textLength="4" x="140" y="142.292"> </text><text fill="#000000" font-family="sans-serif" font-size="14" lengthAdjust="spacing" textLength="4" x="140" y="158.5889"> </text><text fill="#000000" font-family="sans-serif" font-size="14" lengthAdjust="spacing" textLength="13" x="135.5" y="174.8857">▢</text><text fill="#000000" font-family="sans-serif" font-size="14" lengthAdjust="spacing" textLength="4" x="140" y="191.1826"> </text><text fill="#000000" font-family="sans-serif" font-size="14" lengthAdjust="spacing" textLength="4" x="140" y="207.4795"> </text><text fill="#000000" font-family="sans-serif" font-size="14" lengthAdjust="spacing" textLength="4" x="140" y="223.7764"> </text></g><!--MD5=[fc618e7c4c94bd88e16d83a99738a103]
entity Scan--><g id="elem_Scan"><rect fill="#F1F1F1" height="134.0781" rx="2.5" ry="2.5" style="stroke:#181818;stroke-width:0.5;" width="54" x="202" y="103"/><text fill="#000000" font-family="sans-serif" font-size="14" lengthAdjust="spacing" textLength="34" x="212" y="125.9951">Scan</text><text fill="#000000" font-family="sans-serif" font-size="14" lengthAdjust="spacing" textLength="4" x="227" y="142.292"> </text><text fill="#000000" font-family="sans-serif" font-size="14" lengthAdjust="spacing" textLength="4" x="227" y="158.5889"> </text><text fill="#000000" font-family="sans-serif" font-size="14" lengthAdjust="spacing" textLength="13" x="222.5" y="174.8857">▢</text><text fill="#000000" font-family="sans-serif" font-size="14" lengthAdjust="spacing" textLength="4" x="227" y="191.1826"> </text><text fill="#000000" font-family="sans-serif" font-size="14" lengthAdjust="spacing" textLength="13" x="222.5" y="207.4795">▢</text><text fill="#000000" font-family="sans-serif" font-size="14" lengthAdjust="spacing" textLength="4" x="227" y="223.7764"> </text></g><!--MD5=[1bb669a7cce09e263741a8133c219385]
entity Fetch--><g id="elem_Fetch"><rect fill="#F1F1F1" height="134.0781" rx="2.5" ry="2.5" style="stroke:#181818;stroke-width:0.5;" width="59" x="291.5" y="103"/><text fill="#000000" font-family="sans-serif" font-size="14" lengthAdjust="spacing" textLength="39" x="301.5" y="125.9951">Fetch</text><text fill="#000000" font-family="sans-serif" font-size="14" lengthAdjust="spacing" textLength="4" x="319" y="142.292"> </text><text fill="#000000" font-family="sans-serif" font-size="14" lengthAdjust="spacing" textLength="4" x="319" y="158.5889"> </text><text fill="#000000" font-family="sans-serif" font-size="14" lengthAdjust="spacing" textLength="13" x="314.5" y="174.8857">▢</text><text fill="#000000" font-family="sans-serif" font-size="14" lengthAdjust="spacing" textLength="13" x="314.5" y="191.1826">▢</text><text fill="#000000" font-family="sans-serif" font-size="14" lengthAdjust="spacing" textLength="13" x="314.5" y="207.4795">▢</text><text fill="#000000" font-family="sans-serif" font-size="14" lengthAdjust="spacing" textLength="13" x="314.5" y="223.7764">▢</text></g><!--MD5=[1891735a4eb8bb7bb36a01516366915a]
entity Join--><g id="elem_Join"><rect fill="#F1F1F1" height="134.0781" rx="2.5" ry="2.5" style="stroke:#181818;stroke-width:0.5;" width="44" x="386" y="103"/><text fill="#000000" font-family="sans-serif" font-size="14" lengthAdjust="spacing" textLength="24" x="396" y="125.9951">Join</text><text fill="#000000" font-family="sans-serif" font-size="14" lengthAdjust="spacing" textLength="4" x="406" y="142.292"> </text><text fill="#000000" font-family="sans-serif" font-size="14" lengthAdjust="spacing" textLength="4" x="406" y="158.5889"> </text><text fill="#000000" font-family="sans-serif" font-size="14" lengthAdjust="spacing" textLength="13" x="401.5" y="174.8857">▢</text><text fill="#000000" font-family="sans-serif" font-size="14" lengthAdjust="spacing" textLength="13" x="401.5" y="191.1826">▢</text><text fill="#000000" font-family="sans-serif" font-size="14" lengthAdjust="spacing" textLength="13" x="401.5" y="207.4795">▢</text><text fill="#000000" font-family="sans-serif" font-size="14" lengthAdjust="spacing" textLength="13" x="401.5" y="223.7764">▢</text></g><!--MD5=[d04648e85a9b10e4576b2636e86a7d55]
entity Filter--><g id="elem_Filter"><rect fill="#F1F1F1" height="134.0781" rx="2.5" ry="2.5" style="stroke:#181818;stroke-width:0.5;" width="53" x="465.5" y="103"/><text fill="#000000" font-family="sans-serif" font-size="14" lengthAdjust="spacing" textLength="33" x="475.5" y="125.9951">Filter</text><text fill="#000000" font-family="sans-serif" font-size="14" lengthAdjust="spacing" textLength="4" x="490" y="142.292"> </text><text fill="#000000" font-family="sans-serif" font-size="14" lengthAdjust="spacing" textLength="4" x="490" y="158.5889"> </text><text fill="#000000" font-family="sans-serif" font-size="14" lengthAdjust="spacing" textLength="13" x="485.5" y="174.8857">▢</text><text fill="#000000" font-family="sans-serif" font-size="14" lengthAdjust="spacing" textLength="13" x="485.5" y="191.1826">▢</text><text fill="#000000" font-family="sans-serif" font-size="14" lengthAdjust="spacing" textLength="13" x="485.5" y="207.4795">▢</text><text fill="#000000" font-family="sans-serif" font-size="14" lengthAdjust="spacing" textLength="13" x="485.5" y="223.7764">▢</text></g><!--MD5=[f1b4171a748e3af05f0fe77e30f614b1]
entity PreAggregate--><g id="elem_PreAggregate"><rect fill="#F1F1F1" height="134.0781" rx="2.5" ry="2.5" style="stroke:#181818;stroke-width:0.5;" width="92" x="554" y="103"/><text fill="#000000" font-family="sans-serif" font-size="14" lengthAdjust="spacing" textLength="28" x="586" y="125.9951">Pre-</text><text fill="#000000" font-family="sans-serif" font-size="14" lengthAdjust="spacing" textLength="72" x="564" y="142.292">Aggregate</text><text fill="#000000" font-family="sans-serif" font-size="14" lengthAdjust="spacing" textLength="4" x="598" y="158.5889"> </text><text fill="#000000" font-family="sans-serif" font-size="14" lengthAdjust="spacing" textLength="13" x="593.5" y="174.8857">▢</text><text fill="#000000" font-family="sans-serif" font-size="14" lengthAdjust="spacing" textLength="13" x="593.5" y="191.1826">▢</text><text fill="#000000" font-family="sans-serif" font-size="14" lengthAdjust="spacing" textLength="13" x="593.5" y="207.4795">▢</text><text fill="#000000" font-family="sans-serif" font-size="14" lengthAdjust="spacing" textLength="13" x="593.5" y="223.7764">▢</text></g><!--MD5=[67d59814128cc376a22bdd63aeef57b1]
entity Aggregate--><g id="elem_Aggregate"><rect fill="#F1F1F1" height="134.0781" rx="2.5" ry="2.5" style="stroke:#181818;stroke-width:0.5;" width="92" x="681" y="103"/><text fill="#000000" font-family="sans-serif" font-size="14" lengthAdjust="spacing" textLength="72" x="691" y="125.9951">Aggregate</text><text fill="#000000" font-family="sans-serif" font-size="14" lengthAdjust="spacing" textLength="4" x="725" y="142.292"> </text><text fill="#000000" font-family="sans-serif" font-size="14" lengthAdjust="spacing" textLength="4" x="725" y="158.5889"> </text><text fill="#000000" font-family="sans-serif" font-size="14" lengthAdjust="spacing" textLength="13" x="720.5" y="174.8857">▢</text><text fill="#000000" font-family="sans-serif" font-size="14" lengthAdjust="spacing" textLength="4" x="725" y="191.1826"> </text><text fill="#000000" font-family="sans-serif" font-size="14" lengthAdjust="spacing" textLength="4" x="725" y="207.4795"> </text><text fill="#000000" font-family="sans-serif" font-size="14" lengthAdjust="spacing" textLength="4" x="725" y="223.7764"> </text></g><!--MD5=[54e8544498e9d0fe61c308d76c98e28d]
entity Sort--><g id="elem_Sort"><rect fill="#F1F1F1" height="134.0781" rx="2.5" ry="2.5" style="stroke:#181818;stroke-width:0.5;" width="48" x="808" y="103"/><text fill="#000000" font-family="sans-serif" font-size="14" lengthAdjust="spacing" textLength="28" x="818" y="125.9951">Sort</text><text fill="#000000" font-family="sans-serif" font-size="14" lengthAdjust="spacing" textLength="4" x="830" y="142.292"> </text><text fill="#000000" font-family="sans-serif" font-size="14" lengthAdjust="spacing" textLength="4" x="830" y="158.5889"> </text><text fill="#000000" font-family="sans-serif" font-size="14" lengthAdjust="spacing" textLength="13" x="825.5" y="174.8857">▢</text><text fill="#000000" font-family="sans-serif" font-size="14" lengthAdjust="spacing" textLength="13" x="825.5" y="191.1826">▢</text><text fill="#000000" font-family="sans-serif" font-size="14" lengthAdjust="spacing" textLength="13" x="825.5" y="207.4795">▢</text><text fill="#000000" font-family="sans-serif" font-size="14" lengthAdjust="spacing" textLength="13" x="825.5" y="223.7764">▢</text></g><!--MD5=[ba3e2b2dca857ef37695f5c4c4439b77]
entity Offset--><g id="elem_Offset"><rect fill="#F1F1F1" height="134.0781" rx="2.5" ry="2.5" style="stroke:#181818;stroke-width:0.5;" width="61" x="891.5" y="103"/><text fill="#000000" font-family="sans-serif" font-size="14" lengthAdjust="spacing" textLength="41" x="901.5" y="125.9951">Offset</text><text fill="#000000" font-family="sans-serif" font-size="14" lengthAdjust="spacing" textLength="4" x="920" y="142.292"> </text><text fill="#000000" font-family="sans-serif" font-size="14" lengthAdjust="spacing" textLength="4" x="920" y="158.5889"> </text><text fill="#000000" font-family="sans-serif" font-size="14" lengthAdjust="spacing" textLength="13" x="915.5" y="174.8857">▢</text><text fill="#000000" font-family="sans-serif" font-size="14" lengthAdjust="spacing" textLength="4" x="920" y="191.1826"> </text><text fill="#000000" font-family="sans-serif" font-size="14" lengthAdjust="spacing" textLength="4" x="920" y="207.4795"> </text><text fill="#000000" font-family="sans-serif" font-size="14" lengthAdjust="spacing" textLength="4" x="920" y="223.7764"> </text></g><!--MD5=[7c91c379e791bbc64b0e5662b11be0d0]
entity Limit--><g id="elem_Limit"><rect fill="#F1F1F1" height="134.0781" rx="2.5" ry="2.5" style="stroke:#181818;stroke-width:0.5;" width="51" x="987.5" y="103"/><text fill="#000000" font-family="sans-serif" font-size="14" lengthAdjust="spacing" textLength="31" x="997.5" y="125.9951">Limit</text><text fill="#000000" font-family="sans-serif" font-size="14" lengthAdjust="spacing" textLength="4" x="1011" y="142.292"> </text><text fill="#000000" font-family="sans-serif" font-size="14" lengthAdjust="spacing" textLength="4" x="1011" y="158.5889"> </text><text fill="#000000" font-family="sans-serif" font-size="14" lengthAdjust="spacing" textLength="13" x="1006.5" y="174.8857">▢</text><text fill="#000000" font-family="sans-serif" font-size="14" lengthAdjust="spacing" textLength="4" x="1011" y="191.1826"> </text><text fill="#000000" font-family="sans-serif" font-size="14" lengthAdjust="spacing" textLength="4" x="1011" y="207.4795"> </text><text fill="#000000" font-family="sans-serif" font-size="14" lengthAdjust="spacing" textLength="4" x="1011" y="223.7764"> </text></g><!--MD5=[34cc0eb5aecfe0c894d9c7cc8648c52a]
entity Project--><g id="elem_Project"><rect fill="#F1F1F1" height="134.0781" rx="2.5" ry="2.5" style="stroke:#181818;stroke-width:0.5;" width="68" x="1074" y="103"/><text fill="#000000" font-family="sans-serif" font-size="14" lengthAdjust="spacing" textLength="48" x="1084" y="125.9951">Project</text><text fill="#000000" font-family="sans-serif" font-size="14" lengthAdjust="spacing" textLength="4" x="1106" y="142.292"> </text><text fill="#000000" font-family="sans-serif" font-size="14" lengthAdjust="spacing" textLength="4" x="1106" y="158.5889"> </text><text fill="#000000" font-family="sans-serif" font-size="14" lengthAdjust="spacing" textLength="13" x="1101.5" y="174.8857">▢</text><text fill="#000000" font-family="sans-serif" font-size="14" lengthAdjust="spacing" textLength="13" x="1101.5" y="191.1826">▢</text><text fill="#000000" font-family="sans-serif" font-size="14" lengthAdjust="spacing" textLength="13" x="1101.5" y="207.4795">▢</text><text fill="#000000" font-family="sans-serif" font-size="14" lengthAdjust="spacing" textLength="13" x="1101.5" y="223.7764">▢</text></g><!--MD5=[0ba5ee7700168656dc1b457c6fe9fdac]
entity Client--><g id="elem_Client"><rect fill="#F1F1F1" height="36.2969" rx="2.5" ry="2.5" style="stroke:#181818;stroke-width:0.5;" width="59" x="23.5" y="7"/><text fill="#000000" font-family="sans-serif" font-size="14" lengthAdjust="spacing" textLength="39" x="33.5" y="29.9951">Client</text></g><!--MD5=[0ecd579b94b5f51ba0c6012111a3b28f]
entity Data--><g id="elem_Data"><path d="M354,307 C354,297 389,297 389,297 C389,297 424,297 424,307 L424,348.5938 C424,358.5938 389,358.5938 389,358.5938 C389,358.5938 354,358.5938 354,348.5938 L354,307 " fill="#F1F1F1" style="stroke:#181818;stroke-width:0.5;"/><path d="M354,307 C354,317 389,317 389,317 C389,317 424,317 424,307 " fill="none" style="stroke:#181818;stroke-width:0.5;"/><text fill="#000000" font-family="sans-serif" font-size="14" lengthAdjust="spacing" textLength="32" x="373" y="333.9951">Data</text><text fill="#000000" font-family="sans-serif" font-size="14" lengthAdjust="spacing" textLength="50" x="364" y="350.292">Service</text></g><!--MD5=[2b768cf920ecee2eebe6cef60f157368]
entity Index--><g id="elem_Index"><path d="M212,307 C212,297 247,297 247,297 C247,297 282,297 282,307 L282,348.5938 C282,358.5938 247,358.5938 247,358.5938 C247,358.5938 212,358.5938 212,348.5938 L212,307 " fill="#F1F1F1" style="stroke:#181818;stroke-width:0.5;"/><path d="M212,307 C212,317 247,317 247,317 C247,317 282,317 282,307 " fill="none" style="stroke:#181818;stroke-width:0.5;"/><text fill="#000000" font-family="sans-serif" font-size="14" lengthAdjust="spacing" textLength="37" x="228.5" y="333.9951">Index</text><text fill="#000000" font-family="sans-serif" font-size="14" lengthAdjust="spacing" textLength="50" x="222" y="350.292">Service</text></g><!--MD5=[f08d99a5d954cab98c847de775e5956b]
entity Search--><g id="elem_Search"><path d="M107,307 C107,297 142,297 142,297 C142,297 177,297 177,307 L177,348.5938 C177,358.5938 142,358.5938 142,358.5938 C142,358.5938 107,358.5938 107,348.5938 L107,307 " fill="#F1F1F1" style="stroke:#181818;stroke-width:0.5;"/><path d="M107,307 C107,317 142,317 142,317 C142,317 177,317 177,307 " fill="none" style="stroke:#181818;stroke-width:0.5;"/><text fill="#000000" font-family="sans-serif" font-size="14" lengthAdjust="spacing" textLength="48" x="118" y="333.9951">Search</text><text fill="#000000" font-family="sans-serif" font-size="14" lengthAdjust="spacing" textLength="50" x="117" y="350.292">Service</text></g><!--MD5=[d5e17f2ddae227662bdc51911f589d9d]
entity End--><g id="elem_End"><ellipse cx="1108" cy="25" fill="#F1F1F1" rx="8" ry="8" style="stroke:#181818;stroke-width:0.5;"/></g><!--MD5=[42eb35e2edb912e5f5217804fff9976a]
link Client to Parse--><g id="link_Client_Parse"><path d="M53,43.25 C53,57.01 53,77.29 53,97.55 " fill="none" id="Client-to-Parse" style="stroke:#181818;stroke-width:1.0;stroke-dasharray:7.0,7.0;"/><polygon fill="#181818" points="53,102.7,57,93.7,53,97.7,49,93.7,53,102.7" style="stroke:#181818;stroke-width:1.0;"/></g><!--MD5=[5325b197ae4d561a643599dd280c5ac7]
link Parse to Plan--><g id="link_Parse_Plan"><path d="M82.55,170 C92.44,170 102.33,170 112.21,170 " fill="none" id="Parse-to-Plan" style="stroke:#181818;stroke-width:1.0;"/><polygon fill="#181818" points="117.38,170,108.38,166,112.38,170,108.38,174,117.38,170" style="stroke:#181818;stroke-width:1.0;"/></g><!--MD5=[76101d9b77fafa56837ca454405c10ad]
link Plan to Scan--><g id="link_Plan_Scan"><path d="M166.81,170 C176.74,170 186.67,170 196.6,170 " fill="none" id="Plan-to-Scan" style="stroke:#181818;stroke-width:1.0;"/><polygon fill="#181818" points="201.79,170,192.79,166,196.79,170,192.79,174,201.79,170" style="stroke:#181818;stroke-width:1.0;"/></g><!--MD5=[915c488fdf8193c60344f6d92f899bad]
link Scan to Fetch--><g id="link_Scan_Fetch"><path d="M256.31,170 C266.28,170 276.25,170 286.22,170 " fill="none" id="Scan-to-Fetch" style="stroke:#181818;stroke-width:1.0;"/><polygon fill="#181818" points="291.44,170,282.44,166,286.44,170,282.44,174,291.44,170" style="stroke:#181818;stroke-width:1.0;"/></g><!--MD5=[a5becf88206640121b676446bda3c2b0]
link Fetch to Join--><g id="link_Fetch_Join"><path d="M350.57,170 C360.5,170 370.44,170 380.37,170 " fill="none" id="Fetch-to-Join" style="stroke:#181818;stroke-width:1.0;"/><polygon fill="#181818" points="385.57,170,376.5815,165.9743,380.57,169.9857,376.5586,173.9743,385.57,170" style="stroke:#181818;stroke-width:1.0;"/></g><!--MD5=[96913b72fbb7b96a3fda838db621a0cf]
link Join to Filter--><g id="link_Join_Filter"><path d="M430.31,170 C440.3,170 450.29,170 460.27,170 " fill="none" id="Join-to-Filter" style="stroke:#181818;stroke-width:1.0;"/><polygon fill="#181818" points="465.49,170,456.49,166,460.49,170,456.49,174,465.49,170" style="stroke:#181818;stroke-width:1.0;"/></g><!--MD5=[307eaa6af32d0c0d6f32c155c50b6877]
link Filter to PreAggregate--><g id="link_Filter_PreAggregate"><path d="M518.58,170 C528.6,170 538.62,170 548.64,170 " fill="none" id="Filter-to-PreAggregate" style="stroke:#181818;stroke-width:1.0;"/><polygon fill="#181818" points="553.88,170,544.88,166,548.88,170,544.88,174,553.88,170" style="stroke:#181818;stroke-width:1.0;"/></g><!--MD5=[4d4fa5fc02e10bd6a9c50d07410ed866]
link PreAggregate to Aggregate--><g id="link_PreAggregate_Aggregate"><path d="M646.14,170 C656,170 665.86,170 675.73,170 " fill="none" id="PreAggregate-to-Aggregate" style="stroke:#181818;stroke-width:1.0;"/><polygon fill="#181818" points="680.88,170,671.88,166,675.88,170,671.88,174,680.88,170" style="stroke:#181818;stroke-width:1.0;"/></g><!--MD5=[0ed30e13a755be82620b1024630672ad]
link Aggregate to Sort--><g id="link_Aggregate_Sort"><path d="M773.35,170 C783.1,170 792.86,170 802.61,170 " fill="none" id="Aggregate-to-Sort" style="stroke:#181818;stroke-width:1.0;"/><polygon fill="#181818" points="807.71,170,798.71,166,802.71,170,798.71,174,807.71,170" style="stroke:#181818;stroke-width:1.0;"/></g><!--MD5=[6ff1baa9c23c7c3acdec90f5374b9910]
link Sort to Offset--><g id="link_Sort_Offset"><path d="M856.26,170 C866.24,170 876.23,170 886.22,170 " fill="none" id="Sort-to-Offset" style="stroke:#181818;stroke-width:1.0;"/><polygon fill="#181818" points="891.44,170,882.44,166,886.44,170,882.44,174,891.44,170" style="stroke:#181818;stroke-width:1.0;"/></g><!--MD5=[56c14ee24531f019d403311447c155c8]
link Offset to Limit--><g id="link_Offset_Limit"><path d="M952.57,170 C962.35,170 972.14,170 981.92,170 " fill="none" id="Offset-to-Limit" style="stroke:#181818;stroke-width:1.0;"/><polygon fill="#181818" points="987.03,170,978.03,166,982.03,170,978.03,174,987.03,170" style="stroke:#181818;stroke-width:1.0;"/></g><!--MD5=[af5b13104a174ed2a4cb95a92236fa26]
link Limit to Project--><g id="link_Limit_Project"><path d="M1038.61,170 C1048.61,170 1058.61,170 1068.61,170 " fill="none" id="Limit-to-Project" style="stroke:#181818;stroke-width:1.0;"/><polygon fill="#181818" points="1073.84,170,1064.84,166,1068.84,170,1064.84,174,1073.84,170" style="stroke:#181818;stroke-width:1.0;"/></g><!--MD5=[e4885972e990809fce50db31a480f265]
reverse link End to Project--><g id="link_End_Project"><path d="M1108,39.42 C1108,54.17 1108,78.98 1108,102.96 " fill="none" id="End-backto-Project" style="stroke:#181818;stroke-width:1.0;stroke-dasharray:7.0,7.0;"/><polygon fill="#181818" points="1108,34.1,1104,43.1,1108,39.1,1112,43.1,1108,34.1" style="stroke:#181818;stroke-width:1.0;"/></g><!--MD5=[6ba80f9c7f33666dddaa8671848be997]
link Scan to Index--><g id="link_Scan_Index"><path d="M236.63,237.16 C239.03,257.92 241.56,279.83 243.52,296.81 " fill="none" id="Scan-Index" style="stroke:#181818;stroke-width:1.0;stroke-dasharray:7.0,7.0;"/></g><!--MD5=[5beca6c756315c37708c55892719918d]
link Scan to Search--><g id="link_Scan_Search"><path d="M201.8,227.64 C196.12,238.81 190.02,250.36 184,261 C177.24,272.94 169.28,285.73 162.11,296.84 " fill="none" id="Scan-Search" style="stroke:#181818;stroke-width:1.0;stroke-dasharray:7.0,7.0;"/></g><!--MD5=[99fdd6a768fdd86becbfbf4f6634f0a8]
link Fetch to Data--><g id="link_Fetch_Data"><path d="M349.84,237.16 C358.89,257.92 368.44,279.83 375.84,296.81 " fill="none" id="Fetch-Data" style="stroke:#181818;stroke-width:1.0;stroke-dasharray:7.0,7.0;"/></g><!--MD5=[3b3f8e75ea95cf864a624021347e689c]
link Join to Data--><g id="link_Join_Data"><path d="M399.94,237.16 C397.41,257.92 394.75,279.83 392.68,296.81 " fill="none" id="Join-Data" style="stroke:#181818;stroke-width:1.0;stroke-dasharray:7.0,7.0;"/></g><!--MD5=[9e52d080af5426d6ec13582ad25f895f]
@startuml
skinparam defaultTextAlignment center

rectangle Client

rectangle "Query Service"{
  rectangle Parse [
    Parse


    ▢



  ]
  rectangle Plan [
    Plan


    ▢



  ]
  rectangle Scan [
    Scan


    ▢

    ▢

  ]
  rectangle Fetch [
    Fetch


    ▢
    ▢
    ▢
    ▢
  ]
  rectangle Join [
    Join


    ▢
    ▢
    ▢
    ▢
  ]
  rectangle Filter [
    Filter


    ▢
    ▢
    ▢
    ▢
  ]
  rectangle PreAggregate [
    Pre-
    Aggregate

    ▢
    ▢
    ▢
    ▢
  ]
  rectangle Aggregate [
    Aggregate


    ▢



  ]
  rectangle Sort [
    Sort


    ▢
    ▢
    ▢
    ▢
  ]
  rectangle Offset [
    Offset


    ▢
    
    

  ]
  rectangle Limit [
    Limit


    ▢
    
    
    
  ]
  rectangle Project [
    Project


    ▢
    ▢
    ▢
    ▢
  ]
}

database "Data\nService" as Data
database "Index\nService" as Index
database "Search\nService" as Search

() " " as End

Client .d.> Parse
Parse -> Plan
Plan -> Scan
Scan -> Fetch
Fetch -> Join
Join -> Filter
Filter -> PreAggregate
PreAggregate -> Aggregate
Aggregate -> Sort
Sort -> Offset
Offset -> Limit
Limit -> Project
Project .u.> End

Scan .. Index
Scan .. Search
Fetch .. Data
Join .. Data
@enduml

PlantUML version 1.2022.12(Sun Oct 23 18:12:26 GMT 2022)
(GPL source distribution)
Java Runtime: OpenJDK Runtime Environment
JVM: OpenJDK 64-Bit Server VM
Default Encoding: UTF-8
Language: en
Country: US
--></g></svg>