<?xml version="1.0" encoding="UTF-8" standalone="no"?><svg xmlns="http://www.w3.org/2000/svg" xmlns:xlink="http://www.w3.org/1999/xlink" contentStyleType="text/css" height="232px" preserveAspectRatio="none" style="width:692px;height:232px;background:#FFFFFF;" version="1.1" viewBox="0 0 692 232" width="692px" zoomAndPan="magnify"><defs/><g><!--MD5=[0c6c56afe89fba3f46d2be371783d5a6]
cluster Index\nService--><g id="cluster_Index\nService"><rect fill="none" height="103" rx="2.5" ry="2.5" style="stroke:#181818;stroke-width:1.0;" width="128" x="42" y="7"/><text fill="#000000" font-family="sans-serif" font-size="14" font-weight="bold" lengthAdjust="spacing" textLength="43" x="84.5" y="21.9951">Index</text><text fill="#000000" font-family="sans-serif" font-size="14" font-weight="bold" lengthAdjust="spacing" textLength="59" x="76.5" y="38.292">Service</text></g><!--MD5=[7e65e753e7f4885ff7567f7618ef3bdb]
cluster Query\nService--><g id="cluster_Query\nService"><rect fill="none" height="103" rx="2.5" ry="2.5" style="stroke:#181818;stroke-width:1.0;" width="456" x="194" y="7"/><text fill="#000000" font-family="sans-serif" font-size="14" font-weight="bold" lengthAdjust="spacing" textLength="48" x="398" y="21.9951">Query</text><text fill="#000000" font-family="sans-serif" font-size="14" font-weight="bold" lengthAdjust="spacing" textLength="59" x="392.5" y="38.292">Service</text></g><!--MD5=[b56d82cc628557b1acc6c002153fa3f7]
entity IndexScan--><g id="elem_IndexScan"><rect fill="#F1F1F1" height="36.2969" rx="2.5" ry="2.5" style="stroke:#181818;stroke-width:0.5;" width="95" x="58.5" y="58"/><text fill="#000000" font-family="sans-serif" font-size="14" lengthAdjust="spacing" textLength="75" x="68.5" y="80.9951">Index Scan</text></g><!--MD5=[1bb669a7cce09e263741a8133c219385]
entity Fetch--><g id="elem_Fetch"><rect fill="#F1F1F1" height="36.2969" rx="2.5" ry="2.5" style="stroke:#181818;stroke-width:0.5;" width="59" x="574.5" y="58"/><text fill="#000000" font-family="sans-serif" font-size="14" lengthAdjust="spacing" textLength="39" x="584.5" y="80.9951">Fetch</text></g><!--MD5=[d04648e85a9b10e4576b2636e86a7d55]
entity Filter--><g id="elem_Filter"><rect fill="#F1F1F1" height="36.2969" rx="2.5" ry="2.5" style="stroke:#181818;stroke-width:0.5;" width="53" x="210.5" y="58"/><text fill="#000000" font-family="sans-serif" font-size="14" lengthAdjust="spacing" textLength="33" x="220.5" y="80.9951">Filter</text></g><!--MD5=[ff70e4322b05e68cf66d2ff13f5b48e6]
entity Order--><g id="elem_Order"><rect fill="#F1F1F1" height="36.2969" rx="2.5" ry="2.5" style="stroke:#181818;stroke-width:0.5;" width="59" x="298.5" y="58"/><text fill="#000000" font-family="sans-serif" font-size="14" lengthAdjust="spacing" textLength="39" x="308.5" y="80.9951">Order</text></g><!--MD5=[ba3e2b2dca857ef37695f5c4c4439b77]
entity Offset--><g id="elem_Offset"><rect fill="#F1F1F1" height="36.2969" rx="2.5" ry="2.5" style="stroke:#181818;stroke-width:0.5;" width="61" x="392.5" y="58"/><text fill="#000000" font-family="sans-serif" font-size="14" lengthAdjust="spacing" textLength="41" x="402.5" y="80.9951">Offset</text></g><!--MD5=[7c91c379e791bbc64b0e5662b11be0d0]
entity Limit--><g id="elem_Limit"><rect fill="#F1F1F1" height="36.2969" rx="2.5" ry="2.5" style="stroke:#181818;stroke-width:0.5;" width="51" x="488.5" y="58"/><text fill="#000000" font-family="sans-serif" font-size="14" lengthAdjust="spacing" textLength="31" x="498.5" y="80.9951">Limit</text></g><!--MD5=[c88a36799ca4d6dff2d7449eacfc25f7]
entity start--><g id="elem_start"><ellipse cx="14" cy="76" fill="#F1F1F1" rx="8" ry="8" style="stroke:#181818;stroke-width:0.5;"/></g><!--MD5=[22efa60cf2b4332bf8574b0c93969d71]
entity end--><g id="elem_end"><ellipse cx="678" cy="76" fill="#F1F1F1" rx="8" ry="8" style="stroke:#181818;stroke-width:0.5;"/></g><g id="elem_GMN12"><path d="M119,165 L119,205.2656 A0,0 0 0 0 119,205.2656 L355,205.2656 A0,0 0 0 0 355,205.2656 L355,175 L345,165 L241,165 L237,94.19 L233,165 L119,165 A0,0 0 0 0 119,165 " fill="#FEFFDD" style="stroke:#181818;stroke-width:0.5;"/><path d="M345,165 L345,175 L355,175 L345,165 " fill="#FEFFDD" style="stroke:#181818;stroke-width:0.5;"/><text fill="#000000" font-family="sans-serif" font-size="13" lengthAdjust="spacing" textLength="215" x="125" y="182.0669">Early filters, order, and pagination</text><text fill="#000000" font-family="sans-serif" font-size="13" lengthAdjust="spacing" textLength="177" x="144" y="197.1997">performed by Query service</text></g><!--MD5=[0ecd579b94b5f51ba0c6012111a3b28f]
entity Data--><g id="elem_Data"><path d="M569,164 C569,154 604,154 604,154 C604,154 639,154 639,164 L639,205.5938 C639,215.5938 604,215.5938 604,215.5938 C604,215.5938 569,215.5938 569,205.5938 L569,164 " fill="#F1F1F1" style="stroke:#181818;stroke-width:0.5;"/><path d="M569,164 C569,174 604,174 604,174 C604,174 639,174 639,164 " fill="none" style="stroke:#181818;stroke-width:0.5;"/><text fill="#000000" font-family="sans-serif" font-size="14" lengthAdjust="spacing" textLength="32" x="588" y="190.9951">Data</text><text fill="#000000" font-family="sans-serif" font-size="14" lengthAdjust="spacing" textLength="50" x="579" y="207.292">Service</text></g><!--MD5=[9dcf1f94b7e729ba3ce9af7466d1ed88]
link start to IndexScan--><g id="link_start_IndexScan"><path d="M23.34,76 C33.24,76 43.14,76 53.04,76 " fill="none" id="start-to-IndexScan" style="stroke:#181818;stroke-width:1.0;stroke-dasharray:7.0,7.0;"/><polygon fill="#181818" points="58.21,76,49.21,72,53.21,76,49.21,80,58.21,76" style="stroke:#181818;stroke-width:1.0;"/></g><!--MD5=[52b46ba1547ce3b69a59d2722edbd61b]
link IndexScan to Filter--><g id="link_IndexScan_Filter"><path d="M153.59,76 C170.72,76 187.84,76 204.97,76 " fill="none" id="IndexScan-to-Filter" style="stroke:#181818;stroke-width:1.0;"/><polygon fill="#181818" points="210.28,76,201.28,72,205.28,76,201.28,80,210.28,76" style="stroke:#181818;stroke-width:1.0;"/></g><!--MD5=[92b6a7b0f6bdfd4b1190c36d7516077d]
link Filter to Order--><g id="link_Filter_Order"><path d="M263.66,76 C273.51,76 283.35,76 293.2,76 " fill="none" id="Filter-to-Order" style="stroke:#181818;stroke-width:1.0;"/><polygon fill="#181818" points="298.34,76,289.34,72,293.34,76,289.34,80,298.34,76" style="stroke:#181818;stroke-width:1.0;"/></g><!--MD5=[d560d6cf8d8d541f6eb8e1ba1bdccf93]
link Order to Offset--><g id="link_Order_Offset"><path d="M357.69,76 C367.54,76 377.39,76 387.23,76 " fill="none" id="Order-to-Offset" style="stroke:#181818;stroke-width:1.0;"/><polygon fill="#181818" points="392.38,76,383.38,72,387.38,76,383.38,80,392.38,76" style="stroke:#181818;stroke-width:1.0;"/></g><!--MD5=[56c14ee24531f019d403311447c155c8]
link Offset to Limit--><g id="link_Offset_Limit"><path d="M453.57,76 C463.35,76 473.14,76 482.92,76 " fill="none" id="Offset-to-Limit" style="stroke:#181818;stroke-width:1.0;"/><polygon fill="#181818" points="488.03,76,479.03,72,483.03,76,479.03,80,488.03,76" style="stroke:#181818;stroke-width:1.0;"/></g><!--MD5=[3eb6ba6f9c6d7b3d15fba39b330468bf]
link Limit to Fetch--><g id="link_Limit_Fetch"><path d="M539.66,76 C549.51,76 559.35,76 569.2,76 " fill="none" id="Limit-to-Fetch" style="stroke:#181818;stroke-width:1.0;"/><polygon fill="#181818" points="574.35,76,565.35,72,569.35,76,565.35,80,574.35,76" style="stroke:#181818;stroke-width:1.0;"/></g><!--MD5=[99fdd6a768fdd86becbfbf4f6634f0a8]
link Fetch to Data--><g id="link_Fetch_Data"><path d="M594.34,94.19 C591.31,108.88 590.51,130.48 591.94,148.82 " fill="none" id="Fetch-to-Data" style="stroke:#181818;stroke-width:1.0;"/><polygon fill="#181818" points="592.4,153.89,595.5615,144.5624,591.9435,148.9109,587.5949,145.2928,592.4,153.89" style="stroke:#181818;stroke-width:1.0;"/></g><!--MD5=[8c88eee373a4caddaf0bcb426e85f3cc]
reverse link Fetch to Data--><g id="link_Fetch_Data"><path d="M615.21,99.33 C617.85,115.15 618.21,136.56 616.28,153.89 " fill="none" id="Fetch-backto-Data" style="stroke:#181818;stroke-width:1.0;"/><polygon fill="#181818" points="614.23,94.19,611.9975,103.7825,615.1721,99.1004,619.8542,102.2751,614.23,94.19" style="stroke:#181818;stroke-width:1.0;"/></g><!--MD5=[42e161dc13162794568d3cd51fffde3a]
link Fetch to end--><g id="link_Fetch_end"><path d="M633.77,76 C643.68,76 653.59,76 663.49,76 " fill="none" id="Fetch-to-end" style="stroke:#181818;stroke-width:1.0;stroke-dasharray:7.0,7.0;"/><polygon fill="#181818" points="668.67,76,659.67,72,663.67,76,659.67,80,668.67,76" style="stroke:#181818;stroke-width:1.0;"/></g><!--MD5=[fd38f6ac01a82ea6ef79687da3568124]
@startuml
skinparam defaultTextAlignment center

() " " as start
() " " as end

rectangle "Index\nService"{
  rectangle "Index Scan" as IndexScan
}

rectangle "Query\nService"{
  rectangle Fetch
  rectangle Filter
  rectangle Order
  rectangle Offset
  rectangle Limit
}

note bottom of Filter
  Early filters, order, and pagination
  performed by Query service
end note

database "Data\nService" as Data

start ..r..> IndexScan
IndexScan -> Filter
Filter -> Order
Order -> Offset
Offset -> Limit
Limit -> Fetch
Fetch - -> Data
Fetch <- - Data
Fetch ..r..> end
@enduml

PlantUML version 1.2022.12(Sun Oct 23 18:12:26 GMT 2022)
(GPL source distribution)
Java Runtime: OpenJDK Runtime Environment
JVM: OpenJDK 64-Bit Server VM
Default Encoding: UTF-8
Language: en
Country: US
--></g></svg>