<?xml version="1.0" encoding="us-ascii" standalone="no"?><svg xmlns="http://www.w3.org/2000/svg" xmlns:xlink="http://www.w3.org/1999/xlink" contentStyleType="text/css" height="174px" preserveAspectRatio="none" style="width:370px;height:174px;background:#FFFFFF;" version="1.1" viewBox="0 0 370 174" width="370px" zoomAndPan="magnify"><defs/><g><g id="elem_Start"><ellipse cx="182.2383" cy="31.0406" fill="#F1F1F1" rx="71.2983" ry="25.0406" style="stroke:#181818;stroke-width:0.5;"/><text fill="#000000" font-family="sans-serif" font-size="14" font-style="italic" lengthAdjust="spacing" textLength="101" x="131.7383" y="28.9983">&#171;Input Token&#187;</text><text fill="#000000" font-family="sans-serif" font-size="14" lengthAdjust="spacing" textLength="51" x="156.7383" y="45.2952">abc def</text></g><g id="elem_abc"><ellipse cx="53.239" cy="142.5172" fill="#F1F1F1" rx="47.239" ry="24.8472" style="stroke:#181818;stroke-width:0.5;"/><text fill="#000000" font-family="sans-serif" font-size="14" font-style="italic" lengthAdjust="spacing" textLength="66" x="20.239" y="140.7637">&#171;Output&#187;</text><text fill="#000000" font-family="sans-serif" font-size="14" lengthAdjust="spacing" textLength="25" x="40.739" y="157.0606">abc</text></g><g id="elem_def"><ellipse cx="182.2353" cy="142.5219" fill="#F1F1F1" rx="46.9853" ry="24.7219" style="stroke:#181818;stroke-width:0.5;"/><text fill="#000000" font-family="sans-serif" font-size="14" font-style="italic" lengthAdjust="spacing" textLength="66" x="149.2353" y="140.9573">&#171;Output&#187;</text><text fill="#000000" font-family="sans-serif" font-size="14" lengthAdjust="spacing" textLength="22" x="171.2353" y="157.2541">def</text></g><g id="elem_abc def"><ellipse cx="314.2446" cy="142.5151" fill="#F1F1F1" rx="50.4746" ry="26.4451" style="stroke:#181818;stroke-width:0.5;"/><text fill="#000000" font-family="sans-serif" font-size="14" font-style="italic" lengthAdjust="spacing" textLength="66" x="281.2446" y="138.4572">&#171;Output&#187;</text><text fill="#000000" font-family="sans-serif" font-size="14" lengthAdjust="spacing" textLength="51" x="288.7446" y="154.7541">abc def</text></g><!--link Start to abc--><g id="link_Start_abc"><path d="M155.51,54.72 C134.01,72.97 103.88,98.55 81.89,117.21 " fill="none" id="Start-to-abc" style="stroke:#181818;stroke-width:1.0;"/><polygon fill="#181818" points="78.32,121.08,87.7677,118.2979,82.1293,117.8413,82.5859,112.2029,78.32,121.08" style="stroke:#181818;stroke-width:1.0;"/></g><!--link Start to def--><g id="link_Start_def"><path d="M182.24,56.34 C182.24,72.75 182.24,94.52 182.24,111.94 " fill="none" id="Start-to-def" style="stroke:#181818;stroke-width:1.0;"/><polygon fill="#181818" points="182.24,116.67,186.24,107.67,182.24,111.67,178.24,107.67,182.24,116.67" style="stroke:#181818;stroke-width:1.0;"/></g><!--link Start to abc def--><g id="link_Start_abc def"><path d="M209.27,54.46 C230.91,72.41 261.25,97.58 283.75,116.24 " fill="none" id="Start-to-abc def" style="stroke:#181818;stroke-width:1.0;"/><polygon fill="#181818" points="287.14,119.88,282.748,111.0646,283.2849,116.696,277.6536,117.2328,287.14,119.88" style="stroke:#181818;stroke-width:1.0;"/></g><!--SRC=[qqXCIbP8IKtJL4WiLWWkIImgKR2nySmhA2rH2CdFJispi-FYqW2gqGGA-vUM0CM18XfW3SW2S5EG1BaWnkdgsYc0JK3cWzIYoOFr0m00]--></g></svg>