<?xml version="1.0" encoding="UTF-8" standalone="no"?><svg xmlns="http://www.w3.org/2000/svg" xmlns:xlink="http://www.w3.org/1999/xlink" contentStyleType="text/css" height="172px" preserveAspectRatio="none" style="width:371px;height:172px;background:#FFFFFF;" version="1.1" viewBox="0 0 371 172" width="371px" zoomAndPan="magnify"><defs/><g><g id="elem_Start"><ellipse cx="185.9336" cy="30.7079" fill="#F1F1F1" rx="70.9336" ry="24.7079" style="stroke:#181818;stroke-width:0.5;"/><text fill="#000000" font-family="sans-serif" font-size="14" font-style="italic" lengthAdjust="spacing" textLength="102" x="134.9336" y="29.1644">«Input Token»</text><text fill="#000000" font-family="sans-serif" font-size="14" lengthAdjust="spacing" textLength="40" x="165.9336" y="45.4613">beers</text></g><g id="elem_beer"><ellipse cx="53.9232" cy="140.6851" fill="#F1F1F1" rx="47.9232" ry="25.1851" style="stroke:#181818;stroke-width:0.5;"/><text fill="#000000" font-family="sans-serif" font-size="14" font-style="italic" lengthAdjust="spacing" textLength="66" x="20.9232" y="138.4291">«Output»</text><text fill="#000000" font-family="sans-serif" font-size="14" lengthAdjust="spacing" textLength="32" x="37.9232" y="154.7259">beer</text></g><g id="elem_beers"><ellipse cx="185.8696" cy="140.6524" fill="#F1F1F1" rx="48.8696" ry="25.6524" style="stroke:#181818;stroke-width:0.5;"/><text fill="#000000" font-family="sans-serif" font-size="14" font-style="italic" lengthAdjust="spacing" textLength="66" x="152.8696" y="137.7158">«Output»</text><text fill="#000000" font-family="sans-serif" font-size="14" lengthAdjust="spacing" textLength="40" x="165.8696" y="154.0126">beers</text></g><g id="elem_eers"><ellipse cx="317.8174" cy="140.6328" fill="#F1F1F1" rx="47.8174" ry="25.1328" style="stroke:#181818;stroke-width:0.5;"/><text fill="#000000" font-family="sans-serif" font-size="14" font-style="italic" lengthAdjust="spacing" textLength="66" x="284.8174" y="138.4539">«Output»</text><text fill="#000000" font-family="sans-serif" font-size="14" lengthAdjust="spacing" textLength="31" x="302.3174" y="154.7508">eers</text></g><!--link Start to beer--><g id="link_Start_beer"><path d="M158.97,53.62 C137.23,71.4 106.71,96.38 84.17,114.81 " fill="none" id="Start-to-beer" style="stroke:#181818;stroke-width:1.0;"/><polygon fill="#181818" points="80.38,117.92,89.877,115.311,84.2479,114.7515,84.8074,109.1224,80.38,117.92" style="stroke:#181818;stroke-width:1.0;"/></g><!--link Start to beers--><g id="link_Start_beers"><path d="M186,55.47 C186,71.05 186,91.52 186,108.36 " fill="none" id="Start-to-beers" style="stroke:#181818;stroke-width:1.0;"/><polygon fill="#181818" points="186,113.34,190,104.34,186,108.34,182,104.34,186,113.34" style="stroke:#181818;stroke-width:1.0;"/></g><!--link Start to eers--><g id="link_Start_eers"><path d="M213.03,53.62 C234.77,71.4 265.29,96.38 287.83,114.81 " fill="none" id="Start-to-eers" style="stroke:#181818;stroke-width:1.0;"/><polygon fill="#181818" points="291.62,117.92,287.1926,109.1224,287.7521,114.7515,282.123,115.311,291.62,117.92" style="stroke:#181818;stroke-width:1.0;"/></g><!--SRC=[qqXAJIqgrbH8B5O8BaaiAb6miV7CAoWjKGZ9pqxDixFZqW0fq0GA-vUM0CLX8iMeGXWYN13JT7Nj520ce0iKeuY01G00]--></g></svg>