<?xml version="1.0" encoding="us-ascii" standalone="no"?><svg xmlns="http://www.w3.org/2000/svg" xmlns:xlink="http://www.w3.org/1999/xlink" contentStyleType="text/css" height="232px" preserveAspectRatio="none" style="width:688px;height:232px;background:#FFFFFF;" version="1.1" viewBox="0 0 688 232" width="688px" zoomAndPan="magnify"><defs/><g><!--cluster Index\nService--><g id="cluster_Index\nService"><rect fill="none" height="103.3" rx="2.5" ry="2.5" style="stroke:#181818;stroke-width:1.0;" width="126" x="42" y="7"/><text fill="#000000" font-family="sans-serif" font-size="14" font-weight="bold" lengthAdjust="spacing" textLength="43" x="83.5" y="21.9951">Index</text><text fill="#000000" font-family="sans-serif" font-size="14" font-weight="bold" lengthAdjust="spacing" textLength="59" x="75.5" y="38.292">Service</text></g><!--cluster Query\nService--><g id="cluster_Query\nService"><rect fill="none" height="103.3" rx="2.5" ry="2.5" style="stroke:#181818;stroke-width:1.0;" width="454" x="192" y="7"/><text fill="#000000" font-family="sans-serif" font-size="14" font-weight="bold" lengthAdjust="spacing" textLength="48" x="395" y="21.9951">Query</text><text fill="#000000" font-family="sans-serif" font-size="14" font-weight="bold" lengthAdjust="spacing" textLength="59" x="389.5" y="38.292">Service</text></g><!--entity IndexScan--><g id="elem_IndexScan"><rect fill="#F1F1F1" height="36.2969" rx="2.5" ry="2.5" style="stroke:#181818;stroke-width:0.5;" width="95" x="57.5" y="58"/><text fill="#000000" font-family="sans-serif" font-size="14" lengthAdjust="spacing" textLength="75" x="67.5" y="80.9951">Index Scan</text></g><!--entity Fetch--><g id="elem_Fetch"><rect fill="#F1F1F1" height="36.2969" rx="2.5" ry="2.5" style="stroke:#181818;stroke-width:0.5;" width="59" x="571.5" y="58"/><text fill="#000000" font-family="sans-serif" font-size="14" lengthAdjust="spacing" textLength="39" x="581.5" y="80.9951">Fetch</text></g><!--entity Filter--><g id="elem_Filter"><rect fill="#F1F1F1" height="36.2969" rx="2.5" ry="2.5" style="stroke:#181818;stroke-width:0.5;" width="53" x="207.5" y="58"/><text fill="#000000" font-family="sans-serif" font-size="14" lengthAdjust="spacing" textLength="33" x="217.5" y="80.9951">Filter</text></g><!--entity Order--><g id="elem_Order"><rect fill="#F1F1F1" height="36.2969" rx="2.5" ry="2.5" style="stroke:#181818;stroke-width:0.5;" width="59" x="295.5" y="58"/><text fill="#000000" font-family="sans-serif" font-size="14" lengthAdjust="spacing" textLength="39" x="305.5" y="80.9951">Order</text></g><!--entity Offset--><g id="elem_Offset"><rect fill="#F1F1F1" height="36.2969" rx="2.5" ry="2.5" style="stroke:#181818;stroke-width:0.5;" width="61" x="389.5" y="58"/><text fill="#000000" font-family="sans-serif" font-size="14" lengthAdjust="spacing" textLength="41" x="399.5" y="80.9951">Offset</text></g><!--entity Limit--><g id="elem_Limit"><rect fill="#F1F1F1" height="36.2969" rx="2.5" ry="2.5" style="stroke:#181818;stroke-width:0.5;" width="51" x="485.5" y="58"/><text fill="#000000" font-family="sans-serif" font-size="14" lengthAdjust="spacing" textLength="31" x="495.5" y="80.9951">Limit</text></g><!--entity start--><g id="elem_start"><ellipse cx="14" cy="76.15" fill="#F1F1F1" rx="8" ry="8" style="stroke:#181818;stroke-width:0.5;"/></g><!--entity end--><g id="elem_end"><ellipse cx="674" cy="76.15" fill="#F1F1F1" rx="8" ry="8" style="stroke:#181818;stroke-width:0.5;"/></g><g id="elem_GMN12"><path d="M116,164.96 L116,205.2256 A0,0 0 0 0 116,205.2256 L352,205.2256 A0,0 0 0 0 352,205.2256 L352,174.96 L342,164.96 L238,164.96 L234,94.33 L230,164.96 L116,164.96 A0,0 0 0 0 116,164.96 " fill="#FEFFDD" style="stroke:#181818;stroke-width:0.5;"/><path d="M342,164.96 L342,174.96 L352,174.96 L342,164.96 " fill="#FEFFDD" style="stroke:#181818;stroke-width:0.5;"/><text fill="#000000" font-family="sans-serif" font-size="13" lengthAdjust="spacing" textLength="215" x="122" y="182.0269">Early filters, order, and pagination</text><text fill="#000000" font-family="sans-serif" font-size="13" lengthAdjust="spacing" textLength="177" x="141" y="197.1597">performed by Query service</text></g><!--entity Data--><g id="elem_Data"><path d="M566,164.3 C566,154.3 601,154.3 601,154.3 C601,154.3 636,154.3 636,164.3 L636,205.8937 C636,215.8937 601,215.8937 601,215.8937 C601,215.8937 566,215.8937 566,205.8937 L566,164.3 " fill="#F1F1F1" style="stroke:#181818;stroke-width:0.5;"/><path d="M566,164.3 C566,174.3 601,174.3 601,174.3 C601,174.3 636,174.3 636,164.3 " fill="none" style="stroke:#181818;stroke-width:0.5;"/><text fill="#000000" font-family="sans-serif" font-size="14" lengthAdjust="spacing" textLength="32" x="585" y="191.2951">Data</text><text fill="#000000" font-family="sans-serif" font-size="14" lengthAdjust="spacing" textLength="50" x="576" y="207.592">Service</text></g><!--link start to IndexScan--><g id="link_start_IndexScan"><path d="M23.24,76.15 C32.59,76.15 41.93,76.15 51.28,76.15 " fill="none" id="start-to-IndexScan" style="stroke:#181818;stroke-width:1.0;stroke-dasharray:7.0,7.0;"/><polygon fill="#181818" points="56.1,76.15,47.1,72.15,51.1,76.15,47.1,80.15,56.1,76.15" style="stroke:#181818;stroke-width:1.0;"/></g><!--link IndexScan to Filter--><g id="link_IndexScan_Filter"><path d="M152.87,76.15 C168.96,76.15 185.05,76.15 201.14,76.15 " fill="none" id="IndexScan-to-Filter" style="stroke:#181818;stroke-width:1.0;"/><polygon fill="#181818" points="206.06,76.15,197.06,72.15,201.06,76.15,197.06,80.15,206.06,76.15" style="stroke:#181818;stroke-width:1.0;"/></g><!--link Filter to Order--><g id="link_Filter_Order"><path d="M260.66,76.15 C270.16,76.15 279.67,76.15 289.17,76.15 " fill="none" id="Filter-to-Order" style="stroke:#181818;stroke-width:1.0;"/><polygon fill="#181818" points="294.09,76.15,285.09,72.15,289.09,76.15,285.09,80.15,294.09,76.15" style="stroke:#181818;stroke-width:1.0;"/></g><!--link Order to Offset--><g id="link_Order_Offset"><path d="M354.69,76.15 C364.19,76.15 373.7,76.15 383.21,76.15 " fill="none" id="Order-to-Offset" style="stroke:#181818;stroke-width:1.0;"/><polygon fill="#181818" points="388.13,76.15,379.13,72.15,383.13,76.15,379.13,80.15,388.13,76.15" style="stroke:#181818;stroke-width:1.0;"/></g><!--link Offset to Limit--><g id="link_Offset_Limit"><path d="M450.93,76.15 C460.38,76.15 469.84,76.15 479.3,76.15 " fill="none" id="Offset-to-Limit" style="stroke:#181818;stroke-width:1.0;"/><polygon fill="#181818" points="484.19,76.15,475.19,72.15,479.19,76.15,475.19,80.15,484.19,76.15" style="stroke:#181818;stroke-width:1.0;"/></g><!--link Limit to Fetch--><g id="link_Limit_Fetch"><path d="M536.66,76.15 C546.17,76.15 555.67,76.15 565.18,76.15 " fill="none" id="Limit-to-Fetch" style="stroke:#181818;stroke-width:1.0;"/><polygon fill="#181818" points="570.09,76.15,561.09,72.15,565.09,76.15,561.09,80.15,570.09,76.15" style="stroke:#181818;stroke-width:1.0;"/></g><!--link Fetch to Data--><g id="link_Fetch_Data"><path d="M591.34,94.33 C588.33,108.88 587.52,130.23 588.9,148.46 " fill="none" id="Fetch-to-Data" style="stroke:#181818;stroke-width:1.0;"/><polygon fill="#181818" points="589.4,153,592.5615,143.6724,588.9435,148.0209,584.5949,144.4028,589.4,153" style="stroke:#181818;stroke-width:1.0;"/></g><!--reverse link Fetch to Data--><g id="link_Fetch_Data"><path d="M612.28,99.88 C614.86,115.65 615.19,136.83 613.28,154 " fill="none" id="Fetch-backto-Data" style="stroke:#181818;stroke-width:1.0;"/><polygon fill="#181818" points="611.23,95.33,608.9706,104.9162,612.1583,100.2431,616.8315,103.4308,611.23,95.33" style="stroke:#181818;stroke-width:1.0;"/></g><!--link Fetch to end--><g id="link_Fetch_end"><path d="M630.94,76.15 C640.23,76.15 649.51,76.15 658.8,76.15 " fill="none" id="Fetch-to-end" style="stroke:#181818;stroke-width:1.0;stroke-dasharray:7.0,7.0;"/><polygon fill="#181818" points="663.58,76.15,654.58,72.15,658.58,76.15,654.58,80.15,663.58,76.15" style="stroke:#181818;stroke-width:1.0;"/></g><!--SRC=[TL3HIiGm47pFLoptf73j5yY1e89m878- -h9jjZNORago9rV4VpVPgDSUI66JcIQJcOdlZYSCE8Ab3e-3lD19RWVNyqWiqAP1mPYhQzYa3oD4mI0BJ6oD2TGASZyGR1xPqkcL3nG-N4kRJmDm-HSEBR9ULfYH-Lg9F1yfpF-9F92qRsl63TdbadeAzfBfkaYoelPkT9AVPYy4ZHVn8_Zkh7UFOPYXKnYtuBFe5f0jJDWxHd6Uqx69GkV3I1QQ6TGxn6BTf7eWgnjZKR31cDBTfTqvNEuXCyPejL3NeQvtYsh-Tb3jVgsL9HCbg4w59MLPCb4owjJxMfvEg1BMbmkygQeb_F6H0dm3]--></g></svg>