<?xml version="1.0" encoding="us-ascii" standalone="no"?><svg xmlns="http://www.w3.org/2000/svg" xmlns:xlink="http://www.w3.org/1999/xlink" contentStyleType="text/css" height="543.75px" preserveAspectRatio="none" style="width:494px;height:543px;" version="1.1" viewBox="0 0 494 543" width="494.7917px" zoomAndPan="magnify"><defs><linearGradient id="g1ni0vtwpds6k30" x1="50%" x2="50%" y1="0%" y2="100%"><stop offset="0%" stop-color="#FFFFFF"/><stop offset="100%" stop-color="#FFFFFF"/></linearGradient><filter height="300%" id="f1ni0vtwpds6k3" width="300%" x="-1" y="-1"><feGaussianBlur result="blurOut" stdDeviation="2.0833333333333335"/><feColorMatrix in="blurOut" result="blurOut2" type="matrix" values="0 0 0 0 0 0 0 0 0 0 0 0 0 0 0 0 0 0 .4 0"/><feOffset dx="4.166666666666667" dy="4.166666666666667" in="blurOut2" result="blurOut3"/><feBlend in="SourceGraphic" in2="blurOut3" mode="normal"/></filter><linearGradient id="g1ni0vtwpds6k31" x1="50%" x2="50%" y1="0%" y2="100%"><stop offset="0%" stop-color="#4DABF5"/><stop offset="100%" stop-color="#2196F3"/></linearGradient></defs><g><!--cluster Capella--><g id="cluster_Capella"><path d="M297.1199,34.5067 C305.3396,23.4041 315.8859,22.4335 322.0766,36.5172 C328.227,20.2528 340.2509,18.751 350.5356,32.6116 C357.2774,20.0784 365.0713,16.6667 375.6446,28.6949 C386.7555,19.4722 393.1833,22.768 398.1772,35.0919 C405.584,21.5786 415.8422,19.385 424.9635,33.4251 C438.5945,19.6697 448.4719,26.0032 455.2083,40.7431 C455.6728,40.898 455.6333,41.2362 455.3625,41.5344 C468.5587,50.4131 468.8477,59.087 456.9638,69.4067 C469.136,77.02 471.7951,85.175 458.9971,94.7887 C471.2046,99.7704 475.4679,112.0477 463.6729,121.2678 C477.88,129.6054 477.2047,138.481 464.6771,147.8293 C478.8343,155.7973 479.0576,163.6284 466.4962,173.4904 C479.0469,181.2258 482.973,190.7976 469.0583,200.9981 C481.8217,209.224 479.9587,220.4825 467.7272,227.4507 C480.3499,235.3078 477.3516,245.4948 466.2879,251.961 C477.7285,260.0871 477.8015,272.3848 464.4378,278.8011 C477.3936,286.9433 473.5731,295.6084 463.5971,302.9525 C475.4275,310.7295 475.4249,320.426 463.9208,328.4987 C477.4908,336.9478 474.8462,348.9949 462.6092,356.223 C473.426,366.2745 474.4399,379.0643 457.7383,384.3503 C470.6013,397.0044 463.5247,410.4833 447.9167,413.566 C449.664,412.4899 451.0293,413.7346 451.0405,415.4848 C446.2521,429.5607 435.9184,429.6586 425.9089,421.3456 C418.8126,433.6598 406.8673,434.0787 398.2861,423.1072 C392.0663,435.904 383.731,437.1488 374.5369,426.0651 C365.591,435.5972 352.1,436.612 347.9889,420.967 C340.0873,432.2342 329.7735,430.8834 325.111,417.91 C311.0919,429.8661 292.7404,425.1825 288.5417,406.2743 C290.9377,406.0297 291.6917,407.0563 291.4049,409.3276 C279.1663,403.0288 278.4461,392.0176 288.3793,383.1556 C275.3365,375.6112 276.8445,363.3959 288.3672,355.8406 C275.1431,346.8293 279.0762,334.7143 291.0374,328.1299 C279.7713,322.0595 279.7977,313.85 288.3828,305.4555 C274.2756,297.9686 274.5584,285.5954 287.7306,277.4727 C275.6117,269.3295 275.4045,258.4797 287.2796,249.9435 C275.9549,243.514 274.9046,234.5255 286.7455,227.5436 C273.5351,217.303 275.1602,205.8917 288.9257,197.6162 C276.3868,189.8011 275.5876,181.2046 288.4943,172.9446 C277.321,165.3144 277.9036,153.5768 290.8049,148.1941 C279.2984,140.1838 277.2733,127.9466 291.9948,121.0876 C279.6251,115.2142 275.3164,102.5619 287.8795,93.0314 C279.0873,85.8083 277.3745,74.6823 290.4878,69.9328 C274.9753,56.4263 275.7738,41.7456 295.8333,33.4514 C296.7085,33.0789 297.3299,33.5561 297.1199,34.5067 " fill="url(#g1ni0vtwpds6k30)" filter="url(#f1ni0vtwpds6k3)" style="stroke:#2196F3;stroke-width:1.0416666666666667;"/><text fill="#222222" font-family="Verdana" font-size="12.5" font-weight="bold" lengthAdjust="spacing" textLength="55.2083" x="344.2708" y="60.6792">Capella</text></g><!--entity Cap--><g id="elem_Cap"><path d="M302.6042,89.7014 C302.6042,79.2848 371.875,79.2848 371.875,79.2848 C371.875,79.2848 441.1458,79.2848 441.1458,89.7014 L441.1458,134.4605 C441.1458,144.8772 371.875,144.8772 371.875,144.8772 C371.875,144.8772 302.6042,144.8772 302.6042,134.4605 L302.6042,89.7014 " fill="url(#g1ni0vtwpds6k31)" filter="url(#f1ni0vtwpds6k3)" style="stroke:#2196F3;stroke-width:1.0416666666666667;"/><path d="M302.6042,89.7014 C302.6042,100.1181 371.875,100.1181 371.875,100.1181 C371.875,100.1181 441.1458,100.1181 441.1458,89.7014 " fill="none" style="stroke:#2196F3;stroke-width:1.0416666666666667;"/><text fill="#222222" font-family="Verdana" font-size="12.5" lengthAdjust="spacing" textLength="96.875" x="323.4375" y="126.3042">Capella Bucket</text></g><!--entity AS--><g id="elem_AS"><polygon fill="url(#g1ni0vtwpds6k30)" filter="url(#f1ni0vtwpds6k3)" points="298.9583,218.8368,309.375,208.4202,444.7917,208.4202,444.7917,264.6376,434.375,275.0543,298.9583,275.0543,298.9583,218.8368" style="stroke:#222222;stroke-width:1.0416666666666667;"/><line style="stroke:#222222;stroke-width:1.0416666666666667;" x1="434.375" x2="444.7917" y1="218.8368" y2="208.4202"/><line style="stroke:#222222;stroke-width:1.0416666666666667;" x1="298.9583" x2="434.375" y1="218.8368" y2="218.8368"/><line style="stroke:#222222;stroke-width:1.0416666666666667;" x1="434.375" x2="434.375" y1="218.8368" y2="275.0543"/><text fill="#222222" font-family="Verdana" font-size="12.5" lengthAdjust="spacing" textLength="83.3333" x="325" y="251.273">App Services</text></g><!--entity AE--><g id="elem_AE"><polygon fill="url(#g1ni0vtwpds6k30)" filter="url(#f1ni0vtwpds6k3)" points="296.875,349.0139,307.2917,338.5973,446.875,338.5973,446.875,394.8147,436.4583,405.2314,296.875,405.2314,296.875,349.0139" style="stroke:#222222;stroke-width:1.0416666666666667;"/><line style="stroke:#222222;stroke-width:1.0416666666666667;" x1="436.4583" x2="446.875" y1="349.0139" y2="338.5973"/><line style="stroke:#222222;stroke-width:1.0416666666666667;" x1="296.875" x2="436.4583" y1="349.0139" y2="349.0139"/><line style="stroke:#222222;stroke-width:1.0416666666666667;" x1="436.4583" x2="436.4583" y1="349.0139" y2="405.2314"/><text fill="#222222" font-family="Verdana" font-size="12.5" lengthAdjust="spacing" textLength="87.5" x="322.9167" y="381.45">App Endpoint</text></g><!--entity CB--><g id="elem_CB"><path d="M16.6667,89.7014 C16.6667,79.2848 96.875,79.2848 96.875,79.2848 C96.875,79.2848 177.0833,79.2848 177.0833,89.7014 L177.0833,134.4605 C177.0833,144.8772 96.875,144.8772 96.875,144.8772 C96.875,144.8772 16.6667,144.8772 16.6667,134.4605 L16.6667,89.7014 " fill="url(#g1ni0vtwpds6k31)" filter="url(#f1ni0vtwpds6k3)" style="stroke:#2196F3;stroke-width:1.0416666666666667;"/><path d="M16.6667,89.7014 C16.6667,100.1181 96.875,100.1181 96.875,100.1181 C96.875,100.1181 177.0833,100.1181 177.0833,89.7014 " fill="none" style="stroke:#2196F3;stroke-width:1.0416666666666667;"/><text fill="#222222" font-family="Verdana" font-size="12.5" lengthAdjust="spacing" textLength="118.75" x="37.5" y="126.3042">Couchbase Server</text></g><!--entity Clients--><g id="elem_Clients"><rect fill="#FFA500" filter="url(#f1ni0vtwpds6k3)" height="56.2174" rx="4.1667" ry="4.1667" style="stroke:#999999;stroke-width:1.0416666666666667;" width="188.5417" x="277.6042" y="470.8577"/><text fill="#333333" font-family="Verdana" font-size="12.5" lengthAdjust="spacing" textLength="146.875" x="298.4375" y="503.2938">Couchbase Lite clients</text></g><!--link Cap to AS--><g id="link_Cap_AS"><path d="M371.875,151.316 C371.875,167.2743 371.875,185.8056 371.875,201.8368 " fill="none" id="Cap-AS" style="stroke:#2196F3;stroke-width:3.125;"/><polygon fill="#2196F3" points="371.875,146.3577,367.7083,155.7327,371.875,151.566,376.0417,155.7327,371.875,146.3577" style="stroke:#2196F3;stroke-width:3.125;"/><polygon fill="#2196F3" points="371.875,207.0348,376.0417,197.6598,371.875,201.8264,367.7083,197.6598,371.875,207.0348" style="stroke:#2196F3;stroke-width:3.125;"/></g><!--link AS to AE--><g id="link_AS_AE"><path d="M371.875,275.441 C371.875,294.7118 371.875,319.0139 371.875,338.2848 " fill="none" id="AS-AE" style="stroke:#2196F3;stroke-width:3.125;"/></g><!--link AE to Clients--><g id="link_AE_Clients"><path d="M371.875,405.4618 C371.875,425.7118 371.875,451.4723 371.875,470.6493 " fill="none" id="AE-Clients" style="stroke:#2196F3;stroke-width:3.125;"/></g><!--link CB to Cap--><!--SRC=[PL0zJyGm3DtpAqmNbkiVGAUJqj3j9hgS10o-n6ejSadKk2o8_qxIW8GWqzFp-t1y9mlT26uej38gfIJELBWLFXIKvr3mYfcWCt6pomudMjzfxG0pc45zAcLzt1mOJEGz_ZT-yyDctqYQ3TCk2j4LWKvfpsHBUH_hwSzq32v53isinzg9CmNvlTMPXS1wBdHBCGqhLThWsFUdcgidwFiQeSSAVZJtaB6SuV9edi1pe0DSDu65dQDm08bGZW8sXinPQc-AcOLZu30hCq3_tAIlf_grile3T3NhHRel]--></g></svg>